<?xml version="1.0" standalone="no"?>
<!DOCTYPE svg PUBLIC "-//W3C//DTD SVG 1.1//EN" "http://www.w3.org/Graphics/SVG/1.1/DTD/svg11.dtd" >
<svg xmlns="http://www.w3.org/2000/svg">
<metadata></metadata>
<defs>
<font id="itv_reem_web_mediumitalic" horiz-adv-x="566" >
<font-face units-per-em="1000" ascent="750" descent="-250" />
<missing-glyph horiz-adv-x="250" />
<glyph unicode="&#xfb01;" horiz-adv-x="620" d="M505 32q-3 -20 -24.5 -28.5t-53.5 -8.5q-68 0 -62 37l87 494h140zM141 555q13 82 55 125q35 35 88.5 49.5t116.5 14.5q44 0 89.5 -6.5t85.5 -15.5l-22 -102q-36 8 -74.5 14t-75.5 6q-54 0 -85 -18.5t-38 -68.5l-4 -27h123l-26 -108h-115l-74 -451q-8 -50 -21 -82.5 t-37 -58.5q-29 -31 -71 -43.5t-83 -12.5q-23 0 -45.5 2.5t-41.5 7.5q-18 4 -18 22q0 12 3 29t7 29q8 25 22 25q8 0 24 -3t36 -3q22 0 37 5.5t25 20t16.5 38.5t12.5 60l68 415h-73q-18 0 -18 19q0 11 3 29t8 33q7 19 26 20l71 5z" />
<glyph unicode="&#xfb02;" horiz-adv-x="672" d="M185 -33q-8 -50 -21 -82.5t-37 -58.5q-29 -31 -71 -43.5t-83 -12.5q-23 0 -45.5 2.5t-41.5 7.5q-18 4 -18 22q0 12 3 29t7 29q8 25 22 25q8 0 24 -3t36 -3q22 0 37 5.5t25 20t16.5 38.5t12.5 60l68 415h-73q-18 0 -18 19q0 11 3 29t8 33q7 19 26 20l71 5l6 36 q8 45 20.5 73.5t32.5 48.5q36 36 96 49t148 13q41 0 89 -2.5t102 -7.5l-94 -537q-9 -53 -9 -69q0 -15 8 -21t25 -6q11 0 19.5 1.5t16.5 1.5q20 0 20 -23q0 -9 -2 -24.5t-5 -27.5q-4 -14 -10 -20.5t-17 -8.5q-13 -3 -32 -4.5t-35 -1.5q-64 0 -98 25.5t-34 82.5q0 20 4 46.5 t11 64.5l75 426q-11 1 -24 1h-21q-40 0 -66.5 -3.5t-43 -12.5t-24.5 -25t-12 -41l-5 -32h123l-26 -108h-115z" />
<glyph horiz-adv-x="1000" />
<glyph horiz-adv-x="1000" />
<glyph unicode="&#xd;" horiz-adv-x="250" />
<glyph unicode=" "  horiz-adv-x="250" />
<glyph unicode="&#x09;" horiz-adv-x="250" />
<glyph unicode="&#xa0;" horiz-adv-x="250" />
<glyph unicode="!" horiz-adv-x="270" d="M259 689l-97 -475q-5 -21 -18 -30t-48 -9q-30 0 -41.5 7t-11.5 22v2.5t0.5 5.5t1.5 11.5t3 20.5l67 445h144zM63 -10q-33 0 -50 16.5t-17 44.5q0 37 24.5 64.5t70.5 27.5q33 0 50 -16.5t17 -44.5q0 -37 -24.5 -64.5t-70.5 -27.5z" />
<glyph unicode="&#x22;" horiz-adv-x="401" d="M298 419q-30 0 -42 5.5t-12 18.5q0 5 1.5 19.5t5.5 43.5l24 183h136l-54 -246q-3 -12 -15 -18t-44 -6zM122 419q-30 0 -42 5.5t-12 18.5q0 5 1.5 19.5t5.5 43.5l24 183h136l-54 -246q-3 -12 -15 -18t-44 -6z" />
<glyph unicode="#" horiz-adv-x="629" d="M97 389q-22 0 -22 24q0 11 5 26t13 29q10 18 21 23t27 5h68l76 193h128l-76 -193h65l76 193h128l-76 -193h106l-43 -107h-106l-40 -102h107l-43 -107h-106l-59 -151q-7 -17 -21 -23t-54 -6q-29 0 -41 3.5t-12 15.5q0 8 4 18.5t10 26.5l45 116h-65l-59 -151 q-7 -17 -21 -23t-54 -6q-29 0 -41 3.5t-12 15.5q0 8 4 18.5t10 26.5l45 116h-69q-22 0 -22 24q0 11 5 26t13 29q10 18 21 23t27 5h67l40 102h-69zM254 287h65l40 102h-65z" />
<glyph unicode="$" horiz-adv-x="594" d="M174 -9q-51 2 -98.5 11t-75.5 21q-19 7 -19 24q0 10 4.5 29t12.5 38q6 15 11.5 20.5t13.5 5.5q5 0 18 -4q20 -6 36.5 -10.5t33.5 -8t37 -6t47 -3.5l34 195q-92 31 -129.5 73.5t-37.5 104.5q0 38 13.5 75t42.5 66q33 33 82.5 50.5t97.5 22.5l18 104h118l-18 -102 q42 -3 83 -9.5t76 -15.5l-29 -116q-41 11 -78.5 16t-72.5 7l-31 -180q49 -18 80.5 -37t50 -41t25.5 -46.5t7 -52.5q0 -97 -57.5 -155t-176.5 -73l-16 -90q-2 -12 -16.5 -18t-48.5 -6q-31 0 -42.5 4.5t-11.5 15.5q0 2 1 9t4 22zM388 201q0 22 -12 36t-36 25l-25 -142 q37 8 55 31.5t18 49.5zM205 498q0 -18 10.5 -32.5t37.5 -25.5l23 132q-32 -7 -51.5 -26t-19.5 -48z" />
<glyph unicode="%" horiz-adv-x="855" d="M221 429q16 0 28.5 11.5t20.5 30t12 42.5t4 49q0 20 -8 33t-22 13q-17 0 -30 -11t-21 -29.5t-12 -42.5t-4 -50q0 -20 8 -33t24 -13zM209 338q-72 0 -103.5 39t-31.5 100q0 48 14 88.5t39.5 70.5t61.5 46.5t80 16.5q70 0 101 -39t31 -100q0 -48 -14 -88.5t-39 -70.5 t-60.5 -46.5t-78.5 -16.5zM623 699h144l-515 -681q-11 -14 -28.5 -21t-55.5 -7q-29 0 -41.5 5t-12.5 17q0 13 20 41zM601 81q16 0 28.5 11.5t20.5 30t12 42.5t4 49q0 20 -8 33t-22 13q-17 0 -30 -11t-21 -29.5t-12 -42.5t-4 -50q0 -20 8 -33t24 -13zM589 -10 q-72 0 -103.5 39t-31.5 100q0 48 14 88.5t39.5 70.5t61.5 46.5t80 16.5q70 0 101 -39t31 -100q0 -48 -14 -88.5t-39 -70.5t-60.5 -46.5t-78.5 -16.5z" />
<glyph unicode="&#x26;" horiz-adv-x="681" d="M280 416q46 22 65.5 51.5t19.5 63.5q0 26 -12.5 41.5t-41.5 15.5q-31 0 -50 -21.5t-19 -55.5q0 -21 9 -46t29 -49zM136 176q0 -37 22 -58t71 -21q32 0 62 9t50 23l-117 162q-49 -26 -68.5 -53.5t-19.5 -61.5zM503 121q9 -12 21 -18.5t29 -6.5q5 0 13.5 0.5t16.5 1.5 q10 2 14 2q5 0 9.5 -4.5t4.5 -20.5q0 -6 -0.5 -22t-2.5 -28q-2 -14 -6.5 -19.5t-16.5 -8.5q-8 -2 -24.5 -4.5t-33.5 -2.5q-33 0 -66.5 12t-56.5 41q-86 -53 -200 -53q-105 0 -159.5 43t-54.5 125q0 75 45 125.5t130 87.5q-26 36 -40 69.5t-14 74.5q0 38 14.5 71t41.5 57.5 t65 38.5t86 14q82 0 132 -42.5t50 -115.5q0 -56 -36 -103.5t-127 -93.5l92 -132q17 26 28.5 59t16.5 65l6 36h129l-7 -41q-10 -57 -35.5 -110.5t-63.5 -96.5z" />
<glyph unicode="'" horiz-adv-x="225" d="M122 419q-30 0 -42 5.5t-12 18.5q0 5 1.5 19.5t5.5 43.5l24 183h136l-54 -246q-3 -12 -15 -18t-44 -6z" />
<glyph unicode="(" horiz-adv-x="331" d="M374 647q-51 -58 -91.5 -114.5t-68.5 -116t-42.5 -124t-14.5 -137.5q0 -92 22 -174.5t60 -151.5l-95 -49q-24 35 -46 77t-39 90t-27 103t-10 115q0 88 21.5 166t58.5 146.5t86 128t104 110.5z" />
<glyph unicode=")" horiz-adv-x="336" d="M-72 -151q51 58 91.5 114.5t68.5 116t42.5 124t14.5 137.5q0 92 -22 174.5t-60 151.5l95 49q24 -35 46 -77t39 -90t27 -103t10 -115q0 -88 -21.5 -166t-58.5 -146.5t-86 -128t-104 -110.5z" />
<glyph unicode="*" horiz-adv-x="416" d="M284 573l119 55l37 -104l-149 -33l88 -100l-105 -67l-51 116l-85 -116l-87 76l120 96l-125 31l48 101l104 -55l4 126h118z" />
<glyph unicode="+" horiz-adv-x="544" d="M282 70q-4 -22 -62 -22q-36 0 -46.5 6.5t-10.5 15.5q0 1 0.5 3.5t1.5 8t3 16t5 28.5l14 79h-135q-14 0 -14 24q0 11 3 31q5 35 13.5 45t16.5 10h135l27 154h119l-27 -154h155l-19 -110h-155z" />
<glyph unicode="," horiz-adv-x="225" d="M-35 -89q7 9 16 22t20 30q5 7 7 13.5t2 10.5q0 9 -9 18q-18 18 -18 46q0 18 6.5 34.5t18.5 29t30 20.5t42 8q67 0 67 -72q0 -25 -10.5 -54t-27 -58.5t-38.5 -57.5t-44 -50q-11 -11 -23 -11q-8 0 -15 2.5t-18 10.5q-21 15 -21 28q0 7 3.5 13.5t11.5 16.5z" />
<glyph unicode="-" horiz-adv-x="408" d="M33 203q-17 0 -17 25q0 9 2 26.5t7 32.5q6 20 12.5 26t15.5 6h307l-20 -116h-307z" />
<glyph unicode="." horiz-adv-x="231" d="M51 -10q-33 0 -50 16.5t-17 44.5q0 37 24.5 64.5t70.5 27.5q33 0 50 -16.5t17 -44.5q0 -37 -24.5 -64.5t-70.5 -27.5z" />
<glyph unicode="/" horiz-adv-x="399" d="M105 27q-11 -21 -28.5 -29t-55.5 -8q-26 0 -41 6t-15 18q0 6 2.5 12t7.5 17l320 656h138z" />
<glyph unicode="0" horiz-adv-x="656" d="M473 435q0 151 -105 151q-51 0 -86.5 -33.5t-57 -82.5t-31.5 -106t-10 -103q0 -76 26.5 -117t80.5 -41q36 0 63.5 16.5t47.5 43.5t34 62t22.5 71.5t12 72.5t3.5 66zM38 252q0 99 22.5 181t66.5 141t108 92t147 33q54 0 97.5 -17t74.5 -50t47.5 -80.5t16.5 -107.5 q0 -96 -22 -179t-64.5 -144t-106 -96t-146.5 -35q-120 0 -180.5 69.5t-60.5 192.5z" />
<glyph unicode="1" horiz-adv-x="478" d="M334 25q-3 -15 -20 -22.5t-59 -7.5q-38 0 -51 6t-13 17q0 5 2 15t5 27l82 465q-45 -26 -94.5 -53.5t-92.5 -50.5l-37 117q30 16 62 34t63.5 35.5t61 34t53.5 30.5q18 11 29.5 14t29.5 3h69q23 0 23 -19q0 -5 -2 -16t-6 -31z" />
<glyph unicode="2" horiz-adv-x="567" d="M13 105q89 61 161.5 113t124 99.5t79.5 92t28 90.5q0 45 -30 64.5t-78 19.5q-40 0 -94.5 -12t-108.5 -33v115q22 9 50 17t58.5 14.5t62.5 10t62 3.5q43 0 83.5 -9t71.5 -30.5t49.5 -57t18.5 -88.5q0 -60 -31 -117t-79.5 -108t-107.5 -95t-115 -79h236q12 0 18.5 -5.5 t6.5 -20.5q0 -17 -2.5 -31t-6.5 -28q-5 -17 -14 -23.5t-26 -6.5h-399q-11 0 -16.5 4t-9.5 12q-5 10 -9 25.5t-4 23.5q0 12 4.5 22t16.5 18z" />
<glyph unicode="3" horiz-adv-x="581" d="M179 297q-21 0 -21 22q0 10 2.5 25.5t5.5 30.5q4 20 12 28t21 8h80q63 0 97 25t34 76q0 39 -29 55.5t-72 16.5q-19 0 -44 -2.5t-52.5 -8t-56 -13t-55.5 -16.5v114q49 18 112.5 29.5t123.5 11.5q106 0 160.5 -43t54.5 -125q0 -52 -28 -97.5t-91 -73.5l-1 -4q41 -17 62 -53 t21 -80q0 -50 -20.5 -92.5t-59.5 -73.5t-95 -49t-126 -18q-63 0 -116 10.5t-86 25.5q-11 5 -17 11.5t-6 19.5q0 22 15 61q6 15 12.5 21t13.5 6t22 -7q33 -14 77 -23.5t84 -9.5q32 0 60.5 7t50 21t34 36.5t12.5 53.5q0 32 -19.5 53t-64.5 21h-107z" />
<glyph unicode="4" horiz-adv-x="613" d="M365 153h-286q-24 0 -33.5 6t-16.5 20l-8 17q-7 15 -7 30q0 20 11.5 38.5t27.5 38.5q30 38 68 86.5t79 100t82.5 103t77.5 96.5h178q-99 -112 -184 -216.5t-166 -208.5h197l31 174h142l-73 -413q-3 -15 -20 -22.5t-59 -7.5q-38 0 -51 6t-13 17q0 5 2 15t5 27z" />
<glyph unicode="5" horiz-adv-x="579" d="M375 241q0 49 -26 66.5t-66 17.5q-35 0 -70 -8.5t-61 -17.5q-13 -5 -20.5 -7.5t-14.5 -2.5q-16 0 -32 14q-11 10 -15 20.5t-4 18.5t3.5 23t11.5 40l79 262q4 13 12 17.5t25 4.5h353l-19 -111h-266l-48 -159q29 12 57.5 16.5t54.5 4.5q90 0 140.5 -44.5t50.5 -139.5 q0 -61 -21 -110.5t-61 -84t-97 -53t-130 -18.5q-27 0 -56 3t-55.5 8.5t-49 12t-37.5 13.5q-13 6 -16.5 13t-3.5 16q0 11 3.5 27t11.5 35q11 27 26 27q5 0 10.5 -2t14.5 -6q35 -14 76.5 -23t79.5 -9q77 0 120 40q40 37 40 96z" />
<glyph unicode="6" horiz-adv-x="621" d="M428 584q-50 0 -89 -14t-68 -39.5t-47.5 -60.5t-27.5 -78q45 29 90 43t90 14q43 0 78 -13.5t59.5 -38t37.5 -59.5t13 -77q0 -59 -20.5 -108.5t-59 -85.5t-92 -56.5t-119.5 -20.5q-59 0 -103 18.5t-73.5 53t-44 82.5t-14.5 108q0 101 25.5 183.5t75 141t122.5 90.5t168 32 q77 0 155 -21l-38 -113q-28 8 -57.5 13.5t-60.5 5.5zM419 243q0 45 -25 68t-66 23q-32 0 -69.5 -12.5t-78.5 -37.5q-1 -9 -1.5 -18t-0.5 -19q0 -68 24.5 -105t80.5 -37q28 0 53 9.5t43.5 27.5t29 43.5t10.5 57.5z" />
<glyph unicode="7" horiz-adv-x="567" d="M550 689q13 0 18.5 -3t9.5 -11q5 -11 8.5 -24t3.5 -21q0 -11 -4 -18.5t-15 -22.5l-383 -565q-9 -14 -28 -20.5t-65 -6.5q-37 0 -52 4.5t-15 14.5q0 6 3 12t8 14l371 532h-346l21 115h465z" />
<glyph unicode="8" horiz-adv-x="620" d="M550 217q0 -47 -21 -88.5t-60.5 -72.5t-95 -48.5t-124.5 -17.5q-61 0 -107 13.5t-76.5 38.5t-46 59t-15.5 75q0 63 40.5 108t104.5 71q-33 20 -53 52.5t-20 77.5q0 49 21 88.5t57.5 67.5t87.5 43t111 15q55 0 98.5 -12.5t72.5 -35t44.5 -54t15.5 -68.5q0 -63 -32.5 -102 t-89.5 -68q42 -21 65 -56.5t23 -85.5zM269 103q27 0 51.5 5t43 16t30 29t11.5 44q0 33 -19.5 55.5t-71.5 36.5l-70 19q-95 -41 -95 -116q0 -44 32.5 -66.5t87.5 -22.5zM339 587q-61 0 -91 -27.5t-30 -65.5q0 -35 20.5 -51.5t53.5 -25.5l64 -17q88 45 88 107q0 36 -26 58 t-79 22z" />
<glyph unicode="9" horiz-adv-x="614" d="M44 18q-11 5 -16 10t-5 16t4 29t10 37q8 25 26 25q5 0 9 -1.5t13 -4.5q29 -11 63.5 -17.5t66.5 -6.5q78 0 131.5 48.5t70.5 139.5q-34 -26 -77 -40.5t-87 -14.5q-42 0 -81 13t-68 40q-26 25 -38.5 60.5t-12.5 74.5q0 63 22 113.5t60.5 86t90 54.5t111.5 19 q63 0 108.5 -19.5t74.5 -54.5t42.5 -83t13.5 -105q0 -96 -22 -177.5t-67.5 -141.5t-115 -94t-164.5 -34q-44 0 -87.5 7t-75.5 21zM434 407q1 8 1 16.5v16.5q0 65 -24 104.5t-78 39.5q-59 0 -97 -37.5t-38 -102.5q0 -49 27.5 -70t67.5 -21q36 0 74 14.5t67 39.5z" />
<glyph unicode=":" horiz-adv-x="231" d="M51 -10q-33 0 -50 16.5t-17 44.5q0 37 24.5 64.5t70.5 27.5q33 0 50 -16.5t17 -44.5q0 -37 -24.5 -64.5t-70.5 -27.5zM103 285q-33 0 -50 16.5t-17 44.5q0 37 24.5 64.5t70.5 27.5q33 0 50 -16.5t17 -44.5q0 -37 -24.5 -64.5t-70.5 -27.5z" />
<glyph unicode=";" horiz-adv-x="225" d="M-35 -89q7 9 16 22t20 30q5 7 7 13.5t2 10.5q0 9 -9 18q-18 18 -18 46q0 18 6.5 34.5t18.5 29t30 20.5t42 8q67 0 67 -72q0 -25 -10.5 -54t-27 -58.5t-38.5 -57.5t-44 -50q-11 -11 -23 -11q-8 0 -15 2.5t-18 10.5q-21 15 -21 28q0 7 3.5 13.5t11.5 16.5zM99 285 q-33 0 -50 16.5t-17 44.5q0 37 24.5 64.5t70.5 27.5q33 0 50 -16.5t17 -44.5q0 -37 -24.5 -64.5t-70.5 -27.5z" />
<glyph unicode="&#x3c;" horiz-adv-x="544" d="M37 262q4 23 9.5 33t16.5 15l384 192l50 -103l-298 -144l237 -135l-58 -98l-332 192q-11 7 -11 25v9.5t2 13.5z" />
<glyph unicode="=" horiz-adv-x="564" d="M502 400l-19 -110h-409q-14 0 -14 24q0 11 3 31q5 35 13.5 45t16.5 10h409zM472 231l-19 -110h-409q-14 0 -14 24q0 11 3 31q5 35 13.5 45t16.5 10h409z" />
<glyph unicode="&#x3e;" horiz-adv-x="544" d="M473 262q-4 -23 -9.5 -32.5t-16.5 -15.5l-384 -192l-50 103l298 144l-237 135l58 98l332 -192q6 -4 8.5 -10.5t2.5 -14.5v-8.5t-2 -14.5z" />
<glyph unicode="?" horiz-adv-x="461" d="M256 300q-10 -4 -13 -7.5t-5 -14.5l-12 -68q-4 -20 -20 -27.5t-50 -7.5q-30 0 -44.5 6t-14.5 22q0 2 1 10t3 20l15 81q5 26 14.5 37t32.5 21q29 12 57 25t49.5 30.5t35 40t13.5 54.5q0 30 -22 47.5t-69 17.5q-30 0 -69 -6t-92 -20l12 108q44 14 92 22t90 8q39 0 75 -8.5 t64 -28t45 -50t17 -75.5q0 -69 -48 -132t-157 -105zM122 -10q-33 0 -50 16.5t-17 44.5q0 37 24.5 64.5t70.5 27.5q33 0 50 -16.5t17 -44.5q0 -37 -24.5 -64.5t-70.5 -27.5z" />
<glyph unicode="@" horiz-adv-x="1012" d="M528 404q-27 0 -50.5 -11.5t-41 -32.5t-27 -50t-9.5 -63q0 -36 12 -54.5t39 -18.5q48 0 90 57l30 168q-22 5 -43 5zM559 146q-31 -38 -68.5 -56t-75.5 -18q-28 0 -54 9.5t-46.5 29.5t-33 52t-12.5 77q0 52 17.5 99.5t52.5 83.5t87 57.5t120 21.5q43 0 89 -8t80 -22 l-30 -173q-6 -34 -10 -55.5t-4 -33.5q0 -40 46 -40q25 0 47.5 14t38.5 40t25.5 62.5t9.5 80.5q0 67 -21.5 117t-59.5 82t-89 48t-110 16q-83 0 -156 -30t-127 -83.5t-85 -127.5t-31 -163q0 -74 22 -127.5t63.5 -88t100 -51t131.5 -16.5q48 0 88 5.5t74 12.5q33 7 55 12.5 t31 5.5q15 0 18 -16q2 -12 3 -28t1 -24q0 -20 -4.5 -29t-16.5 -13q-18 -6 -46 -12t-62 -11.5t-72.5 -9t-76.5 -3.5q-90 0 -170 21t-140.5 67t-95.5 120t-35 181q0 112 39.5 207.5t110 165.5t168 109.5t213.5 39.5q89 0 164.5 -24.5t130.5 -71t86 -114t31 -154.5 q0 -63 -17 -119.5t-50 -99t-81.5 -67t-110.5 -24.5q-57 0 -94 20.5t-58 55.5z" />
<glyph unicode="A" horiz-adv-x="694" d="M385 576q-39 -82 -75.5 -161t-68.5 -154h189q-5 70 -12.5 150t-16.5 165h-16zM527 665q19 -134 36.5 -277t34.5 -286q2 -18 5 -41t3 -33q0 -17 -17 -24t-63 -7q-40 0 -55.5 6.5t-17.5 23.5l-13 121h-249q-14 -32 -30 -66t-27 -59q-8 -16 -28 -21t-62 -5q-43 0 -56.5 4.5 t-13.5 17.5q0 8 7 24q72 155 149 314t152 308q6 12 14.5 18t22.5 6h177q15 0 22 -5t9 -19z" />
<glyph unicode="B" horiz-adv-x="640" d="M123 689h271q108 0 158.5 -35.5t50.5 -113.5q0 -26 -7 -52t-22.5 -49t-39 -41.5t-56.5 -29.5v-2q53 -11 79.5 -48t26.5 -87q0 -54 -15.5 -92.5t-43.5 -65.5q-43 -41 -100.5 -57t-147.5 -16h-242q-20 0 -25.5 7t-2.5 25zM197 297l-31 -181h149q36 0 58 9t38 26 q26 31 26 76q0 35 -19.5 52.5t-65.5 17.5h-155zM246 573l-28 -163h133q46 0 76.5 26.5t30.5 76.5q0 28 -15 43q-17 17 -58 17h-139z" />
<glyph unicode="C" horiz-adv-x="601" d="M519 86q0 -11 -1.5 -24.5t-3.5 -24.5q-5 -23 -24 -28q-29 -8 -70 -13.5t-86 -5.5q-68 0 -123 15.5t-93.5 50t-59 89t-20.5 131.5q0 95 27 172.5t81 134.5q52 54 127 85t166 31q44 0 88 -5.5t84 -13.5l-28 -120q-38 8 -71.5 12t-62.5 4q-117 0 -181 -63 q-36 -35 -59.5 -95.5t-23.5 -131.5q0 -173 169 -173q26 0 57 3.5t56 8.5q12 2 20 3.5t13 1.5q10 0 14.5 -9.5t4.5 -34.5z" />
<glyph unicode="D" horiz-adv-x="700" d="M387 689q71 0 124.5 -15.5t88.5 -52.5q29 -30 45.5 -76t16.5 -112q0 -35 -5 -78t-18 -88t-36 -89t-58 -80q-44 -45 -111 -71.5t-161 -26.5h-240q-16 0 -22 4.5t-6 15.5q0 6 1.5 14.5l4.5 25.5l111 629h265zM245 573l-81 -457h109q54 0 92.5 16.5t66.5 44.5q24 25 40 56 t25.5 64t13.5 65.5t4 61.5q0 77 -33 113q-35 36 -118 36h-119z" />
<glyph unicode="E" horiz-adv-x="569" d="M244 573l-29 -165h269l-20 -113h-269l-32 -179h322l-21 -116h-432q-16 0 -21.5 5t-5.5 16q0 14 11 72l105 596h459l-21 -116h-315z" />
<glyph unicode="F" horiz-adv-x="554" d="M194 287l-45 -261q-3 -15 -19.5 -23t-58.5 -8q-29 0 -47.5 4.5t-18.5 17.5q0 3 1 10.5t3 19.5l107 608q3 18 12 26t28 8h425l-21 -116h-315l-31 -173h274l-20 -113h-274z" />
<glyph unicode="G" horiz-adv-x="691" d="M575 51q-3 -18 -10.5 -25.5t-21.5 -11.5q-92 -24 -184 -24q-155 0 -238 70t-83 215q0 96 26 174t78.5 133.5t133 86t188.5 30.5q40 0 90 -6t105 -19l-26 -116q-40 9 -81.5 14t-75.5 5q-75 0 -129 -18.5t-92 -57.5q-33 -35 -51.5 -85.5t-18.5 -125.5q0 -95 46 -136.5 t137 -41.5q20 0 40.5 2t43.5 6l24 140h-129l22 126h238q23 0 23 -18q0 -7 -2 -19.5t-6 -32.5z" />
<glyph unicode="H" horiz-adv-x="697" d="M478 293h-281l-47 -265q-3 -15 -20 -24t-59 -9q-29 0 -47.5 4.5t-18.5 17.5q0 3 1 10.5t3 19.5l113 642h144l-49 -282h281l50 282h144l-116 -661q-3 -15 -20 -24t-59 -9q-29 0 -47.5 4.5t-18.5 17.5q0 3 1 10.5t3 19.5z" />
<glyph unicode="I" horiz-adv-x="277" d="M125 689h144l-116 -661q-3 -15 -20 -24t-59 -9q-29 0 -47.5 4.5t-18.5 17.5q0 3 1 10.5t3 19.5z" />
<glyph unicode="J" horiz-adv-x="474" d="M470 689l-84 -475q-12 -68 -31.5 -108.5t-53.5 -66.5q-37 -29 -81 -39t-92 -10q-38 0 -68.5 4t-53.5 11q-14 4 -19 10.5t-5 18.5q0 14 10 50q5 16 10.5 26.5t19.5 10.5q6 0 15 -1.5t20 -3.5q14 -2 30.5 -4t31.5 -2q55 0 84 26q20 18 29 46t17 70l77 437h144z" />
<glyph unicode="K" horiz-adv-x="653" d="M122 689h144l-54 -303l310 303h175l-309 -305l178 -332q8 -14 10 -20t2 -10q0 -25 -75 -25q-38 0 -56 6.5t-29 28.5l-136 262l-103 -97l-29 -169q-2 -15 -19.5 -24t-59.5 -9q-29 0 -47.5 4.5t-18.5 17.5q0 3 1 10.5t3 19.5z" />
<glyph unicode="L" horiz-adv-x="519" d="M121 689h144l-101 -573h283l-21 -116h-394q-16 0 -21.5 5t-5.5 16q0 7 3 24.5t8 47.5z" />
<glyph unicode="M" horiz-adv-x="921" d="M867 665q-6 -82 -13.5 -166.5t-16 -167t-16.5 -160t-15 -146.5q-2 -20 -19 -25t-59 -5t-56 6t-14 19q0 8 1.5 21t5.5 40q7 52 15 109t15.5 115t14.5 114.5t13 108.5h-8l-216 -447h-165l-61 447h-8q-12 -52 -27 -114.5t-30 -128.5t-30.5 -133.5t-29.5 -128.5 q-3 -14 -18.5 -21t-57.5 -7q-35 0 -52 5.5t-17 19.5q0 4 1 11t5 23q35 146 73 297t83 312q7 26 39 26h141q26 0 29 -22l61 -438h8l204 438q11 22 38 22h152q17 0 23.5 -6.5t6.5 -17.5z" />
<glyph unicode="N" horiz-adv-x="707" d="M484 -3q-43 0 -63.5 6.5t-26.5 22.5l-172 464l-82 -464q-2 -14 -18 -22.5t-54 -8.5q-27 0 -44.5 5t-17.5 21q0 4 1.5 14.5t7.5 42.5l108 611h165l190 -512l90 512h134l-117 -663q-3 -15 -26.5 -22t-74.5 -7z" />
<glyph unicode="O" horiz-adv-x="718" d="M406 699q132 0 203 -71t71 -208q0 -87 -23.5 -165.5t-69.5 -137t-114 -93t-157 -34.5q-136 0 -207 71t-71 208q0 87 24 165.5t70.5 137t115.5 93t158 34.5zM396 579q-55 0 -95 -26.5t-65.5 -69.5t-38 -97.5t-12.5 -110.5q0 -81 34.5 -123t108.5 -42q53 0 91.5 26.5 t64 69.5t37.5 98t12 111q0 80 -34.5 122t-102.5 42z" />
<glyph unicode="P" horiz-adv-x="627" d="M317 340q37 0 62 9t44 26q43 41 43 110q0 48 -27 68t-81 20h-113l-41 -233h113zM122 689h272q57 0 103 -12t75 -42q23 -24 33 -56.5t10 -69.5q0 -69 -22.5 -124.5t-62.5 -92.5q-38 -35 -86 -51.5t-117 -16.5h-144l-34 -198q-3 -15 -19.5 -23t-58.5 -8q-29 0 -47.5 4.5 t-18.5 18.5q0 3 1 10t3 19z" />
<glyph unicode="Q" horiz-adv-x="718" d="M406 699q132 0 203 -71t71 -208q0 -68 -14 -130t-41.5 -114t-68.5 -92.5t-94 -64.5l63 -114q6 -11 6 -17q0 -8 -9.5 -17t-36.5 -23q-31 -16 -49 -16q-16 0 -23 15l-76 144q-5 -1 -10.5 -1h-10.5q-136 0 -207 71t-71 208q0 87 24 165.5t70.5 137t115.5 93t158 34.5z M396 579q-55 0 -95 -26.5t-65.5 -69.5t-38 -97.5t-12.5 -110.5q0 -81 34.5 -123t108.5 -42q53 0 91.5 26.5t64 69.5t37.5 98t12 111q0 80 -34.5 122t-102.5 42z" />
<glyph unicode="R" horiz-adv-x="644" d="M209 368h115q38 0 61.5 7t41.5 22q16 14 27 35t11 54q0 49 -27 68t-77 19h-116zM122 689h282q57 0 95 -13t63 -36t38 -55t13 -77q0 -44 -12.5 -84.5t-36.5 -73t-59 -55t-79 -31.5l104 -227q5 -12 5 -18q0 -13 -16.5 -18.5t-58.5 -5.5q-22 0 -35.5 1.5t-21 4.5t-11 8 t-6.5 11l-95 232h-102l-40 -226q-3 -15 -19.5 -23t-60.5 -8q-29 0 -46.5 5t-17.5 19q0 3 1 9.5t3 18.5z" />
<glyph unicode="S" d="M512 560q-41 10 -81.5 15.5t-72.5 5.5q-66 0 -102 -21.5t-36 -61.5q0 -28 16.5 -46t61.5 -34l59 -21q34 -12 61 -27t46 -36t29 -49.5t10 -67.5q0 -57 -21 -99.5t-59.5 -71t-91.5 -42.5t-116 -14q-28 0 -57.5 2.5t-57.5 7.5t-53 11.5t-43 14.5q-18 7 -18 25q0 12 5.5 31.5 t11.5 34.5q10 25 24 25q6 0 23 -6q32 -11 74 -19.5t86 -8.5q69 0 108 24.5t39 72.5q0 32 -21.5 48.5t-64.5 31.5l-59 21q-141 50 -141 182q0 45 18 84t54.5 67t92 44t129.5 16q48 0 93.5 -6t83.5 -16z" />
<glyph unicode="T" horiz-adv-x="590" d="M253 573h-200l21 116h550l-21 -116h-207l-95 -547q-3 -15 -19.5 -23t-58.5 -8q-29 0 -47.5 4.5t-18.5 17.5q0 10 4 30z" />
<glyph unicode="U" horiz-adv-x="677" d="M599 253q-12 -69 -33 -115t-58 -78q-42 -37 -99.5 -53.5t-127.5 -16.5q-121 0 -184 47t-63 143q0 14 1.5 32t4.5 35l78 442h144l-77 -436q-2 -14 -3.5 -26t-1.5 -25q0 -22 5 -39t18 -29q28 -26 92 -26q42 0 67 10.5t43 27.5q20 19 31.5 44t17.5 57l78 442h144z" />
<glyph unicode="V" horiz-adv-x="667" d="M385 39q-11 -21 -35 -30t-78 -9q-51 0 -73 9t-26 29q-25 145 -49.5 312t-47.5 339h146q8 -72 16.5 -145.5t17 -144.5t17 -137.5t17.5 -123.5h6l58.5 123.5t64 137.5t65.5 145t65 145h155q-40 -84 -81 -169.5t-81.5 -168.5t-80 -161.5t-76.5 -150.5z" />
<glyph unicode="W" horiz-adv-x="1003" d="M637 689q14 0 20.5 -5.5t6.5 -21.5l-5 -534h10q107 269 211 561h159q-33 -84 -68.5 -169.5t-71 -169t-70 -162t-66.5 -147.5q-11 -23 -37 -32t-80 -9q-60 0 -85.5 9.5t-25.5 32.5l2 514h-10l-171 -509q-8 -23 -37.5 -35t-89.5 -12q-32 0 -52 2.5t-31.5 8t-16 13 t-5.5 17.5q-6 63 -13 140t-13 161t-11 172t-9 175h151q1 -163 5 -300t10 -261h9l177 534q5 14 15 20.5t24 6.5h168z" />
<glyph unicode="X" horiz-adv-x="695" d="M-27 19q0 9 10 21.5t26 31.5q27 32 61 71t68.5 78.5t67.5 76.5t58 64q-22 39 -45.5 80t-47 83t-45.5 83.5t-42 80.5h154q28 -60 60.5 -124t61.5 -117q52 62 101 123.5t90 117.5h171q-35 -44 -72.5 -89.5t-75 -89.5t-74 -84.5t-67.5 -73.5q23 -39 46.5 -81t45.5 -83 t41.5 -79.5t35.5 -71.5q5 -12 5 -17q0 -10 -15 -16.5t-57 -6.5q-41 0 -56.5 6t-20.5 16q-14 30 -29 62.5t-31 64.5t-31.5 62t-29.5 55q-22 -26 -48.5 -58.5t-53.5 -66t-52 -64.5t-44 -55q-11 -13 -29.5 -17.5t-55.5 -4.5q-26 0 -42 1.5t-24.5 4t-11.5 6.5t-3 10z" />
<glyph unicode="Y" horiz-adv-x="641" d="M236 252q-45 105 -86 212t-77 225h153q25 -92 49 -169t44 -132h8q18 27 41.5 62.5t48 75.5t49.5 81.5t48 81.5h169q-80 -123 -155 -230.5t-151 -210.5l-37 -222q-3 -15 -19.5 -23t-58.5 -8q-29 0 -47.5 4.5t-18.5 17.5q0 4 1 11t3 19z" />
<glyph unicode="Z" horiz-adv-x="582" d="M21 0q-16 0 -22 3t-11 11q-5 11 -9 24.5t-4 24.5q0 9 4 18.5t15 22.5l406 469h-310l21 116h442q13 0 19 -3t10 -11q5 -10 9 -22t4 -23q0 -12 -4 -22.5t-15 -22.5l-409 -469h298q12 0 18 -4.5t6 -19.5q0 -8 -3 -26.5t-6 -32.5q-8 -33 -39 -33h-420z" />
<glyph unicode="[" horiz-adv-x="322" d="M123 -108h108l-20 -111h-209q-30 0 -30 22q0 5 2.5 19t7.5 43l140 792q3 18 12 25t31 7h206l-20 -111h-107z" />
<glyph unicode="\" horiz-adv-x="393" d="M85 699h127l81 -593q7 -47 9 -64t2 -22q0 -30 -59 -30q-28 0 -46.5 6.5t-20.5 24.5z" />
<glyph unicode="]" horiz-adv-x="322" d="M156 578h-108l20 111h209q30 0 30 -22q0 -5 -2.5 -19t-7.5 -43l-140 -792q-3 -18 -12 -25t-31 -7h-206l20 111h107z" />
<glyph unicode="^" horiz-adv-x="544" d="M307 567l-174 -202q-5 -6 -11 -7.5t-9 -1.5q-8 0 -18 4.5t-24 17.5q-27 24 -27 39q0 5 8 16l200 235q11 13 24.5 17t42.5 4t40.5 -4t18.5 -17l123 -246q5 -10 5 -16q0 -5 -6 -13t-29 -21q-17 -9 -27.5 -12.5t-18.5 -3.5q-10 0 -16 10z" />
<glyph unicode="_" horiz-adv-x="504" d="M-46 -136q-16 0 -16 24q0 8 2 25t7 31q6 21 12.5 25.5t13.5 4.5h449l-19 -110h-449z" />
<glyph unicode="`" horiz-adv-x="315" d="M287 689q6 -5 9.5 -9t3.5 -11q0 -6 -4 -16t-16 -27q-14 -19 -22.5 -25.5t-16.5 -6.5q-9 0 -26 10l-198 117l73 110z" />
<glyph unicode="a" horiz-adv-x="594" d="M502 159q-8 -41 -12.5 -76t-7.5 -61q-2 -12 -16.5 -18.5t-50.5 -6.5q-19 0 -30.5 1t-17.5 4.5t-8 11t-2 21.5l-1 32q-69 -77 -158 -77q-43 0 -75.5 14t-54.5 39.5t-33.5 60.5t-11.5 77q0 75 23.5 140t68 112.5t109 75t147.5 27.5q57 0 109 -8t84 -18zM166 195 q0 -55 19.5 -77t51.5 -22q31 0 64 19.5t62 51.5l46 257q-13 4 -29 6t-31 2q-38 0 -71 -16t-58 -46.5t-39.5 -74.5t-14.5 -100z" />
<glyph unicode="b" horiz-adv-x="599" d="M546 329q0 -35 -6 -71t-18.5 -70t-30.5 -64t-42 -52q-45 -42 -104.5 -62t-140.5 -20q-45 0 -94 6.5t-88 17.5q-10 2 -13 6.5t-3 11.5q0 5 1.5 13.5t5.5 28.5l116 660h140l-41 -230q28 14 62.5 23t66.5 9q37 0 71.5 -10.5t60.5 -35t41.5 -64t15.5 -97.5zM403 319 q0 58 -24 84t-66 26q-24 0 -51.5 -6.5t-50.5 -17.5l-53 -303q16 -2 33.5 -3.5t34.5 -1.5q45 0 78.5 17t55.5 47t32.5 70.5t10.5 87.5z" />
<glyph unicode="c" horiz-adv-x="505" d="M267 -10q-118 0 -181 51.5t-63 169.5q0 75 21.5 135.5t62 102.5t98.5 64.5t130 22.5q44 0 83.5 -6t74.5 -15l-30 -108q-66 18 -119 18q-48 0 -81.5 -16.5t-55 -44.5t-31.5 -65.5t-10 -79.5q0 -61 30 -89.5t90 -28.5q22 0 45.5 2.5t51.5 7.5q5 1 10 1.5t10 0.5 q7 0 10 -4.5t3 -16.5q0 -10 -2 -28.5t-4 -32.5q-3 -14 -9.5 -19t-17.5 -8q-25 -7 -57.5 -10.5t-58.5 -3.5z" />
<glyph unicode="d" horiz-adv-x="595" d="M482 43q-3 -16 -9 -22t-17 -9q-15 -5 -36 -9t-45.5 -7t-50.5 -4.5t-50 -1.5q-50 0 -95.5 10.5t-80 36t-55 68t-20.5 107.5q0 62 19 120.5t55.5 103.5t90.5 72.5t125 27.5q31 0 62 -6.5t51 -14.5l38 219h140zM408 416q-37 13 -78 13t-72 -16t-51.5 -44t-30.5 -66.5 t-10 -83.5q0 -122 117 -122q34 0 70 6z" />
<glyph unicode="e" d="M164 218v-21q0 -57 32 -77.5t92 -20.5q28 0 53.5 2.5t36.5 4.5t26 4.5t21 2.5t9.5 -4.5t3.5 -16.5q0 -5 -1.5 -21.5t-4.5 -31.5q-4 -19 -11.5 -26t-21.5 -10q-23 -5 -57.5 -9t-76.5 -4q-117 0 -179.5 51.5t-62.5 168.5q0 64 18.5 123t54.5 104t90.5 72t126.5 27 q44 0 82 -11t65.5 -33.5t43.5 -57t16 -80.5q0 -28 -6 -64.5t-20 -71.5h-330zM302 435q-48 0 -80 -31.5t-42 -85.5h193q5 20 5 43q0 20 -5 32.5t-13 21.5q-18 20 -58 20z" />
<glyph unicode="f" horiz-adv-x="408" d="M119 418h-73q-18 0 -18 19q0 11 3 29t8 33q7 19 26 20l71 5l7 42q7 42 20.5 71.5t33.5 50.5q27 29 70.5 42.5t100.5 13.5q29 0 58 -3t54 -8l-24 -107q-17 3 -35.5 5.5t-37.5 2.5q-49 0 -71.5 -16t-28.5 -52l-6 -40h143l-26 -108h-135l-74 -451q-8 -50 -21 -82.5 t-37 -58.5q-29 -31 -71 -43.5t-83 -12.5q-23 0 -45.5 2.5t-41.5 7.5q-18 4 -18 22q0 12 3 29t7 29q8 25 22 25q8 0 24 -3t36 -3q22 0 37 5.5t24.5 20t16.5 38.5t13 60z" />
<glyph unicode="g" horiz-adv-x="593" d="M407 422q-14 4 -27.5 5.5t-27.5 1.5q-42 0 -72 -13t-54 -37q-29 -31 -44.5 -77t-15.5 -92q0 -53 20.5 -81.5t64.5 -28.5q60 0 108 45zM37 -187q0 9 2 23t7 31q5 16 10 22t15 6q4 0 11.5 -1.5l12.5 -2.5q22 -5 48 -8t46 -3q34 0 62.5 8t47.5 25q17 16 25.5 40.5t15.5 62.5 l7 37q-24 -27 -60 -42t-82 -15q-45 0 -79 15.5t-57 43t-34.5 65.5t-11.5 83q0 65 24.5 131t72.5 113q42 41 101 65t145 24q42 0 90 -7t106 -21l-87 -496q-11 -64 -29.5 -107.5t-49.5 -72.5q-35 -33 -87.5 -47.5t-118.5 -14.5q-72 0 -134 17q-11 3 -15 10t-4 16z" />
<glyph unicode="h" horiz-adv-x="593" d="M391 322q2 12 3.5 23t1.5 20q0 58 -67 58q-23 0 -53.5 -8.5t-67.5 -27.5l-64 -361q-3 -17 -21 -24t-56 -7q-30 0 -46.5 6t-16.5 19q0 7 2.5 21t6.5 34l116 659h140l-44 -249q43 27 85.5 39t80.5 12q36 0 65.5 -11t48.5 -31q34 -37 34 -101q0 -28 -6 -59l-54 -308 q-3 -17 -21 -24t-56 -7q-30 0 -46.5 6t-16.5 19q0 7 2.5 21t6.5 34z" />
<glyph unicode="i" horiz-adv-x="262" d="M202 749q37 0 52.5 -14.5t15.5 -40.5q0 -24 -7 -45t-19 -33q-23 -23 -69 -23q-37 0 -52.5 14.5t-15.5 40.5q0 24 7 45t19 33q23 23 69 23zM94 526h140l-88 -500q-3 -17 -21 -24t-56 -7q-30 0 -46.5 6t-16.5 19q0 7 2.5 21t6.5 34z" />
<glyph unicode="j" horiz-adv-x="260" d="M94 526h140l-98 -560q-9 -54 -20.5 -89t-35.5 -59q-48 -48 -137 -48q-20 0 -44.5 2.5t-41.5 7.5q-18 4 -18 22q0 11 2.5 27t7.5 31q5 14 10 19t11 5q4 0 9.5 -1t10.5 -2q8 -2 18 -2.5t18 -0.5q35 0 48 18t19 54zM202 749q37 0 52.5 -14.5t15.5 -40.5q0 -24 -7 -45 t-19 -33q-23 -23 -69 -23q-37 0 -52.5 14.5t-15.5 40.5q0 24 7 45t19 33q23 23 69 23z" />
<glyph unicode="k" horiz-adv-x="548" d="M129 734h140l-70 -391l210 183h169l-244 -212l135 -264q5 -11 7 -16t2 -10q0 -11 -17 -19t-54 -8q-36 0 -53 6.5t-23 20.5l-95 209l-66 -57l-26 -150q-3 -17 -21 -24t-56 -7q-30 0 -46.5 6t-16.5 19q0 7 2.5 21t6.5 34z" />
<glyph unicode="l" horiz-adv-x="307" d="M265 734l-94 -537q-5 -28 -7.5 -42.5t-2.5 -22.5q0 -17 8 -24t27 -7q12 0 22.5 1t17.5 1q15 0 15 -21q0 -10 -2 -25.5t-5 -27.5q-4 -14 -10 -20.5t-17 -8.5q-13 -3 -31.5 -4.5t-38.5 -1.5q-59 0 -93.5 27t-34.5 89q0 8 0.5 16.5t2 20t4.5 27.5t7 39l92 521h140z" />
<glyph unicode="m" horiz-adv-x="905" d="M703 322q2 12 3.5 25t1.5 22q0 58 -61 58q-52 0 -119 -32v-2q0 -28 -6 -59l-54 -308q-3 -17 -21 -24t-56 -7q-30 0 -46.5 6t-16.5 19q0 7 2.5 21t6.5 34l43 247q2 12 3.5 25t1.5 22q0 58 -61 58q-26 0 -54 -7t-61 -23l-65 -371q-3 -17 -21 -24t-56 -7q-30 0 -46.5 6 t-16.5 19q0 7 2.5 21t6.5 34l79 451h126l-5 -44q44 27 87 40.5t81 13.5q74 0 113 -42q4 -5 8.5 -10.5t7.5 -10.5q47 30 95.5 46.5t90.5 16.5q38 0 69.5 -10t51.5 -32q34 -37 34 -101q0 -28 -6 -59l-54 -308q-3 -17 -21 -24t-56 -7q-30 0 -46.5 6t-16.5 19q0 7 2.5 21t6.5 34 z" />
<glyph unicode="n" horiz-adv-x="591" d="M387 311q3 17 5 31.5t2 22.5q0 58 -65 58q-49 0 -122 -35l-63 -362q-3 -17 -21 -24t-56 -7q-30 0 -46.5 6t-16.5 19q0 7 2.5 21t6.5 34l79 451h127l-3 -46q45 29 90 42.5t84 13.5q72 0 109.5 -38.5t37.5 -102.5q0 -15 -2 -33.5t-7 -44.5l-51 -291q-3 -17 -21 -24t-56 -7 q-30 0 -46.5 6t-16.5 19q0 7 2.5 21t6.5 34z" />
<glyph unicode="o" horiz-adv-x="603" d="M257 -10q-54 0 -97 13.5t-73.5 41t-47 69.5t-16.5 99q0 70 20.5 129t59 102t94 67.5t126.5 24.5q50 0 92 -13.5t72 -41t46.5 -69t16.5 -97.5q0 -73 -20 -133t-58 -102.5t-92.5 -66t-122.5 -23.5zM313 430q-38 0 -66 -19t-46 -49.5t-26.5 -69t-8.5 -76.5q0 -58 24 -89 t76 -31q36 0 62.5 18.5t44 48.5t26 68.5t8.5 78.5q0 58 -23.5 89t-70.5 31z" />
<glyph unicode="p" horiz-adv-x="596" d="M159 113q20 -8 41.5 -12t42.5 -4q27 0 52 9t45 26q28 25 44 69.5t16 107.5t-26 91.5t-84 28.5q-31 0 -76 -6zM91 518q51 8 108 13t106 5q118 0 178 -55.5t60 -165.5q0 -62 -18 -120t-53 -104t-86 -73.5t-118 -27.5q-32 0 -65.5 8t-59.5 21l-38 -218q-3 -17 -21 -24 t-56 -7q-30 0 -46.5 6t-16.5 19q0 7 2.5 21t6.5 34z" />
<glyph unicode="q" horiz-adv-x="590" d="M166 211q0 -65 22 -91t60 -26q33 0 61 15t48 36l49 279q-15 2 -29 3.5t-27 1.5q-41 0 -75 -15.5t-58 -44t-37.5 -68.5t-13.5 -90zM436 -199q-3 -17 -21 -24t-54 -7q-38 0 -51 7.5t-13 21.5q0 4 1.5 13t6.5 38l36 201q-58 -61 -143 -61q-32 0 -63.5 10t-56.5 34t-40 64 t-15 99q0 65 20.5 126t62 108.5t105 76t150.5 28.5q43 0 92.5 -7t107.5 -21z" />
<glyph unicode="r" horiz-adv-x="405" d="M92 526h131l-13 -99q46 43 103 73t106 38l-24 -135q-24 -4 -50.5 -11.5t-52.5 -18.5t-50.5 -24t-45.5 -28l-52 -295q-3 -17 -21 -24t-56 -7q-30 0 -46.5 6t-16.5 19q0 7 2.5 21t6.5 34z" />
<glyph unicode="s" horiz-adv-x="462" d="M406 410q-28 8 -61 13.5t-66 5.5q-55 0 -78 -15t-23 -34q0 -18 13 -28.5t45 -21.5l51 -18q56 -20 85 -52.5t29 -87.5q0 -39 -16 -72.5t-46.5 -57.5t-74.5 -38t-100 -14q-45 0 -86.5 8t-73.5 20q-17 8 -17 24q0 6 2 19t6 24q7 21 13.5 29.5t15.5 8.5q5 0 10 -1.5t10 -3.5 q20 -7 51 -14t65 -7q46 0 76.5 13.5t30.5 50.5q0 17 -12.5 28.5t-44.5 22.5l-51 18q-60 21 -89 53t-29 83q0 38 16.5 69.5t46.5 53.5t73.5 34t97.5 12q38 0 78.5 -5.5t81.5 -16.5z" />
<glyph unicode="t" horiz-adv-x="416" d="M50 501q45 32 96.5 73t105.5 86h41l-23 -134h153l-26 -108h-146l-42 -238q-2 -12 -3.5 -22t-1.5 -16q0 -39 53 -39q11 0 23 1t19 2q6 1 11 1.5t10 0.5q14 0 14 -22q0 -23 -6 -50q-4 -16 -9.5 -24t-22.5 -12t-40 -6t-46 -2q-79 0 -116 32q-33 30 -33 90q0 11 2 29.5 t7 42.5l41 232h-71q-17 0 -17 15q0 5 0.5 14t2.5 16q3 14 7.5 22t16.5 16z" />
<glyph unicode="u" horiz-adv-x="572" d="M545 526l-64 -364q-8 -41 -12.5 -77.5t-7.5 -62.5q-2 -12 -16.5 -18.5t-50.5 -6.5q-19 0 -30 1t-17 5t-8 11t-3 18q-1 7 -1 17v20q-35 -38 -80.5 -58.5t-90.5 -20.5q-32 0 -61 10t-49 32q-16 17 -25 41t-9 54t6 65l59 334h140l-57 -323q-2 -12 -3.5 -24.5t-1.5 -21.5 q0 -32 18 -45t45 -13q29 0 60.5 16.5t54.5 45.5l64 365h140z" />
<glyph unicode="v" horiz-adv-x="539" d="M558 526q-30 -59 -64 -126.5t-68.5 -134.5t-67 -129t-59.5 -110q-7 -12 -27 -19t-69 -7q-28 0 -45.5 2t-27.5 5.5t-14.5 8t-5.5 10.5q-10 49 -22 109.5t-24 126.5t-23.5 133.5t-21.5 130.5h147q11 -101 23.5 -204t26.5 -194h7q44 91 90.5 193t91.5 205h153z" />
<glyph unicode="w" horiz-adv-x="803" d="M820 526q-24 -61 -51.5 -127.5t-55 -131.5t-54.5 -124.5t-49 -106.5q-5 -10 -11 -16.5t-17.5 -11t-29.5 -6.5t-45 -2q-53 0 -72.5 8t-20.5 22l-14 330h-7l-132 -330q-4 -9 -9 -15t-15.5 -9.5t-27.5 -4.5t-44 -1q-53 0 -73 5.5t-23 23.5q-6 48 -11.5 109t-11 127.5 t-10 133.5t-7.5 127h148q-2 -102 0 -205t5 -193h9l148 377q5 11 12 16t27 5h86q20 0 25 -4.5t6 -16.5l20 -377h10q34 88 72.5 190.5t71.5 207.5h151z" />
<glyph unicode="x" horiz-adv-x="558" d="M-12 60q20 23 46 52t53.5 60t56 60.5t52.5 54.5q-31 50 -65 109t-73 130h150q8 -19 18 -40.5t20.5 -43t20.5 -41.5l18 -36q29 33 64 76.5t66 84.5h161q-27 -32 -56.5 -66t-59 -67t-58 -63t-53.5 -55q16 -27 34.5 -58t36.5 -62t33 -59t26 -49q9 -18 9 -25q0 -11 -16 -18 t-53 -7t-55 5.5t-23 17.5q-16 38 -37.5 84.5t-43.5 85.5q-31 -35 -66.5 -78t-62.5 -80q-7 -9 -14 -15.5t-18 -11t-26.5 -6.5t-38.5 -2q-36 0 -53 7t-17 17q0 12 24 39z" />
<glyph unicode="y" horiz-adv-x="530" d="M549 526q-83 -180 -173.5 -360.5t-192.5 -369.5q-8 -15 -26 -20.5t-58 -5.5q-62 0 -62 20q0 9 9 23q22 38 49.5 86.5t56.5 100.5q-22 0 -34 5.5t-16 24.5q-11 55 -22.5 117t-22 126t-20.5 128.5t-18 124.5h143q4 -46 9.5 -98t12.5 -104.5t14 -103t14 -92.5h7q22 45 45 95 t46 101.5t45.5 102.5t42.5 99h151z" />
<glyph unicode="z" horiz-adv-x="475" d="M381 108q21 0 21 -26q0 -6 -1 -18t-3 -22q-3 -22 -12 -32t-27 -10h-347q-14 0 -21 4t-11 14q-7 17 -7 31q0 19 12 33l303 336h-238l19 108h363q16 0 23.5 -5.5t10.5 -16.5q6 -21 6 -35q0 -21 -14 -37l-295 -324h218z" />
<glyph unicode="{" horiz-adv-x="335" d="M204 138q0 -24 -9.5 -58.5t-21.5 -69.5t-21.5 -63.5t-9.5 -40.5q0 -15 20 -15h65l-20 -110h-83q-52 0 -84 21.5t-32 66.5q0 25 10.5 59.5t22.5 71t22.5 71.5t10.5 61q0 14 -11.5 23.5t-29.5 18.5q-8 4 -12 10t-4 20q0 13 3 33q5 31 12 42t21 16q22 9 34.5 17t19.5 23 t9 40t2 69q0 38 1 74.5t6 59.5q19 111 138 111h104l-19 -110h-64q-14 0 -20 -6t-8 -18q-2 -14 -3 -39t-1 -51q0 -56 -5 -94.5t-18 -64t-35.5 -41.5t-57.5 -28q33 -11 50.5 -37t17.5 -62z" />
<glyph unicode="|" horiz-adv-x="270" d="M104 -197q-3 -18 -18.5 -25.5t-52.5 -7.5q-61 0 -61 27q0 5 1 13t5 29l150 850h132z" />
<glyph unicode="}" horiz-adv-x="333" d="M91 332q0 24 9.5 58.5t21.5 69.5t21.5 63.5t9.5 40.5q0 15 -20 15h-65l20 110h83q52 0 84 -21.5t32 -66.5q0 -25 -10.5 -59.5t-22.5 -71t-22.5 -71.5t-10.5 -61q0 -14 11.5 -23.5t29.5 -18.5q8 -4 12 -10t4 -20t-3 -33q-5 -31 -12 -42t-21 -16q-22 -9 -35 -17t-19.5 -23 t-8.5 -40.5t-2 -68.5q0 -38 -1 -74.5t-6 -59.5q-20 -111 -138 -111h-104l19 110h64q14 0 20 6t8 18q2 14 3 39t1 51q0 56 5 94.5t18 64t35.5 41.5t57.5 28q-33 11 -50.5 37t-17.5 62z" />
<glyph unicode="~" horiz-adv-x="544" d="M476 304q-37 -54 -72 -80t-78 -26q-26 0 -46 7.5t-37 17t-32 17t-30 7.5q-19 0 -35 -12t-33 -29q-10 -10 -18 -10q-6 0 -16 5.5t-20 13.5t-17.5 17.5t-7.5 18.5t14 26q27 34 59.5 54.5t71.5 20.5q25 0 46 -7.5t39 -16.5t34 -16.5t32 -7.5q17 0 34.5 12t40.5 42z" />
<glyph unicode="&#xa1;" horiz-adv-x="270" d="M-27.9844 -205.958l96.9941 474.971q5 20.999 17.999 29.999q12.999 8.99902 47.9971 8.99902q29.998 0 41.4971 -7q11.5 -6.99902 11.5 -21.998v-2.5t-0.5 -5.5q-0.5 -3.99902 -1.5 -11.499t-3 -20.499l-66.9961 -444.973h-143.991zM168.004 492.999 q32.998 0 49.9971 -16.499t16.999 -44.4971q0 -36.9971 -24.499 -64.4961q-24.498 -27.498 -70.4951 -27.498q-32.998 0 -49.9971 16.499t-16.999 44.4971q0 36.998 24.498 64.4961q24.499 27.498 70.4961 27.498z" />
<glyph unicode="&#xa2;" horiz-adv-x="503" d="M193 -5q-80 15 -127.5 65.5t-47.5 150.5q0 70 18.5 126.5t53.5 98t85 67t113 31.5l19 105h118l-19 -108q23 -3 45 -7t42 -9l-30 -108q-38 10 -76 15l-56 -318q12 1 25 3t27 4q5 1 10 1.5t10 0.5q7 0 10 -4.5t3 -16.5q0 -10 -2 -28.5t-4 -32.5q-3 -14 -9.5 -19t-17.5 -8 q-32 -8 -72 -11l-15 -89q-2 -12 -16 -18t-47 -6q-32 0 -43.5 5t-11.5 16q0 3 2 14t4 25zM161 219q0 -43 13.5 -68.5t39.5 -37.5l53 299q-57 -22 -81.5 -74.5t-24.5 -118.5z" />
<glyph unicode="&#xa3;" horiz-adv-x="549" d="M258 258q0 -41 -18.5 -81.5t-56.5 -63.5h287l-20 -113h-454q-9 0 -15 4.5t-6 17.5q0 14 5 42q5 25 11 31.5t20 10.5t33.5 11t37.5 23t30.5 43.5t12.5 71.5v13.5t-1 13.5h-74q-22 0 -22 25q0 11 3 31q5 32 12.5 41t18.5 9h46q-5 15 -7.5 34.5t-2.5 42.5q0 61 20 105 t54.5 72.5t80.5 42.5t98 14q68 0 125 -18.5t94 -40.5l-35 -109q-35 23 -78 37.5t-88 14.5q-66 0 -100 -35t-34 -103q0 -17 2 -31t5 -26h189l-19 -106h-154v-24z" />
<glyph unicode="&#xa4;" horiz-adv-x="592" d="M481 313q0 -35 -11 -67t-29 -58l50 -61q7 -8 7 -14q0 -15 -29 -40t-46 -25q-11 0 -21 13l-44 54q-47 -24 -100 -24q-27 0 -49 5.5t-40 15.5l-62 -54q-11 -10 -19 -10q-15 0 -41 30q-14 16 -19 26.5t-5 17.5q0 4 2 7.5t10 9.5l68 59q-5 15 -6.5 30t-1.5 29q0 38 10.5 71 t30.5 59l-55 68l87 71l54 -67q23 10 46 16t50 6q50 0 88 -22l77 67l72 -81l-83 -71q9 -30 9 -61zM273 205q20 0 37 8t29 22t18.5 31.5t6.5 37.5q0 33 -17.5 48t-43.5 15q-20 0 -37 -8t-29 -22t-18.5 -32t-6.5 -37q0 -33 17.5 -48t43.5 -15z" />
<glyph unicode="&#xa5;" horiz-adv-x="628" d="M191 110h-126q-8 0 -12 5.5t-4 19.5q0 11 3 29q6 32 13.5 43t19.5 11h125l8 44h-126q-8 0 -12 5.5t-4 19.5q0 11 3 29q6 32 13.5 43t19.5 11h60q-27 76 -52 155t-50 164h151q20 -92 42 -175.5t37 -139.5h8q17 27 39 63t46.5 77t51 85.5t52.5 89.5h165q-57 -88 -110 -166 t-106 -153h84l-19 -108h-149l-8 -44h149l-19 -108h-149l-15 -84q-2 -14 -19 -22.5t-59 -8.5q-29 0 -47.5 4.5t-18.5 17.5q0 7 4 30z" />
<glyph unicode="&#xa6;" horiz-adv-x="270" d="M36 169h132l-64 -366q-3 -18 -18.5 -25.5t-52.5 -7.5q-61 0 -61 27q0 5 1 13t5 29zM128 689h132l-64 -366q-3 -18 -18.5 -25.5t-52.5 -7.5q-61 0 -61 27q0 5 1 13t5 29z" />
<glyph unicode="&#xa7;" horiz-adv-x="488" d="M267 69q0 20 -13 31t-39 19l-58 17q-72 21 -102.5 56.5t-30.5 83.5q0 42 26 81t78 68q-17 17 -26 39t-9 51q0 37 12.5 68.5t34.5 53.5q33 34 81.5 48t104.5 14q38 0 78.5 -7t72.5 -18l-30 -106q-29 10 -59 15.5t-58 5.5q-44 0 -71 -14t-27 -42q0 -12 9.5 -24t41.5 -23 l50 -16q61 -20 84 -50t23 -68q0 -52 -30.5 -90t-69.5 -58q29 -19 47 -46t18 -73q0 -45 -17.5 -80t-49.5 -59.5t-76 -37.5t-97 -13q-21 0 -44.5 2.5t-46 7t-43 10t-34.5 11.5q-16 7 -16 22q0 11 4.5 28t10.5 31q11 26 26 26q8 0 23 -5t31 -10t39 -9t50 -4q54 0 78 19t24 45z M250 241q24 14 40 31t16 42q0 22 -17 35t-49 23l-27 8q-24 -14 -40 -31t-16 -42q0 -22 17 -35t49 -23z" />
<glyph unicode="&#xa8;" horiz-adv-x="391" d="M76 610q-34 0 -51 18t-17 47q0 39 24.5 68t72.5 29q34 0 51.5 -17.5t17.5 -46.5q0 -39 -25 -68.5t-73 -29.5zM285 610q-34 0 -51 18t-17 47q0 39 24.5 68t72.5 29q34 0 51.5 -17.5t17.5 -46.5q0 -39 -25 -68.5t-73 -29.5z" />
<glyph unicode="&#xa9;" horiz-adv-x="797" d="M324 320q0 -72 76 -72q29 0 50.5 5.5t31.5 5.5q8 0 11.5 -6.5t3.5 -17.5q0 -8 -0.5 -18t-2.5 -17q-3 -15 -19 -20q-17 -5 -41 -9.5t-55 -4.5q-33 0 -61.5 8.5t-49 26.5t-32 46.5t-11.5 68.5q0 44 13.5 82t40 65.5t65 43.5t89.5 16q26 0 53 -4t54 -12l-19 -79 q-40 13 -80 13q-60 0 -88.5 -34.5t-28.5 -86.5zM346 76q65 0 120 25.5t95 69t62.5 102t22.5 125.5q0 54 -14.5 94t-41 67t-64 40t-83.5 13q-65 0 -120 -25.5t-95 -69t-62.5 -102t-22.5 -125.5q0 -108 55.5 -161t147.5 -53zM446 711q75 0 134 -21.5t99 -62t61 -98t21 -129.5 q0 -84 -29 -161t-83 -135t-131.5 -92.5t-174.5 -34.5q-75 0 -134 21.5t-99 62t-61 98t-21 129.5q0 84 29 161t83 135t131.5 92.5t174.5 34.5z" />
<glyph unicode="&#xaa;" horiz-adv-x="406" d="M258 379q-41 -40 -102 -40q-42 0 -69.5 25t-27.5 72q0 26 10 49t31 40t53.5 27t78.5 10q13 0 26.5 -1t22.5 -3q3 15 3 23q0 34 -50 34q-25 0 -52.5 -4.5t-63.5 -13.5l11 84q72 18 135 18q57 0 90.5 -24t33.5 -72q0 -10 -1.5 -24t-5.5 -34l-13 -70q-6 -32 -9.5 -57.5 t-6.5 -53.5q-1 -10 -11.5 -15t-33.5 -5q-27 0 -35.5 7.5t-12.5 23.5zM225 489q-32 0 -45.5 -11.5t-13.5 -28.5q0 -16 10.5 -23t25.5 -7q16 0 31 6.5t27 17.5l8 43q-21 3 -43 3z" />
<glyph unicode="&#xab;" horiz-adv-x="693" d="M185 250l119 -143l-84 -71l-175 181q-14 16 -14 33q0 41 31 65l233 179l72 -85zM477 250l119 -143l-84 -71l-175 181q-14 16 -14 33q0 41 31 65l233 179l72 -85z" />
<glyph unicode="&#xac;" horiz-adv-x="535" d="M427 147q-4 -20 -58 -20q-32 0 -41 6t-9 14q0 3 2 13t7 39l16 91h-300q-14 0 -14 24q0 11 3 31q5 35 13.5 45t16.5 10h410z" />
<glyph unicode="&#xad;" horiz-adv-x="408" d="M33 203q-17 0 -17 25q0 9 2 26.5t7 32.5q6 20 12.5 26t15.5 6h307l-20 -116h-307z" />
<glyph unicode="&#xae;" horiz-adv-x="797" d="M507 234q11 -21 15.5 -31.5t4.5 -15.5q0 -8 -10 -12.5t-37 -4.5q-29 0 -40.5 5.5t-16.5 16.5l-44 99h-34l-17 -100q-2 -11 -13.5 -16t-37.5 -5q-23 0 -32 4t-9 14q0 3 1 12t6 35l50 284h158q62 0 89 -25.5t27 -70.5q0 -51 -27 -80.5t-69 -41.5zM346 76q65 0 120 25.5 t95 69t62.5 102t22.5 125.5q0 54 -14.5 94t-41 67t-64 40t-83.5 13q-65 0 -120 -25.5t-95 -69t-62.5 -102t-22.5 -125.5q0 -108 55.5 -161t147.5 -53zM446 711q75 0 134 -21.5t99 -62t61 -98t21 -129.5q0 -84 -29 -161t-83 -135t-131.5 -92.5t-174.5 -34.5q-75 0 -134 21.5 t-99 62t-61 98t-21 129.5q0 84 29 161t83 135t131.5 92.5t174.5 34.5zM359 367h62q24 0 36 14t12 34q0 29 -34 29h-63z" />
<glyph unicode="&#xaf;" horiz-adv-x="354" d="M328 625h-301q-10 0 -14.5 5t-4.5 20q0 11 3 31q5 32 13.5 43t18.5 11h304z" />
<glyph unicode="&#xb0;" horiz-adv-x="346" d="M196 508q25 0 40.5 17t15.5 40q0 35 -34 35q-25 0 -40.5 -17t-15.5 -40q0 -35 34 -35zM185 409q-27 0 -50.5 7t-41 22t-27.5 38t-10 55q0 36 13 66.5t36 53t54.5 35.5t69.5 13q27 0 50.5 -7t41 -22t27.5 -38t10 -55q0 -36 -13 -67t-36 -53.5t-55 -35t-69 -12.5z" />
<glyph unicode="&#xb1;" horiz-adv-x="544" d="M443 110l-19 -110h-409q-14 0 -14 24q0 11 3 31q5 35 13.5 45t16.5 10h409zM300 174q-4 -22 -62 -22q-36 0 -46 6.5t-10 15.5q0 4 1.5 13t7.5 43l13 73h-135q-14 0 -14 24q0 11 3 31q5 35 13.5 45t16.5 10h135l26 148h119l-26 -148h155l-19 -110h-155z" />
<glyph unicode="&#xb2;" horiz-adv-x="368" d="M95 667q40 17 75 24.5t64 7.5q60 0 92 -27t32 -72q0 -29 -12.5 -53.5t-33 -45.5t-46 -38.5t-52.5 -32.5h96q17 0 17 -23q0 -11 -3 -27q-5 -26 -11 -35.5t-22 -9.5h-217q-13 0 -17.5 2.5t-6.5 9.5q-5 17 -5 36q0 14 4 20.5t16 14.5q34 21 70.5 46t70.5 57q24 23 31.5 36 t7.5 24q0 28 -40 28q-21 0 -48 -8t-59 -22z" />
<glyph unicode="&#xb3;" horiz-adv-x="368" d="M127 519q4 22 8.5 33t15.5 11h61q37 0 37 23q0 25 -44 25q-21 0 -46 -6t-61 -20l-3 86q35 13 71 20.5t70 7.5q37 0 59.5 -9t36.5 -23q24 -24 24 -60q0 -22 -12 -44.5t-43 -39.5v-2q23 -10 31.5 -27t8.5 -39q0 -25 -9.5 -47.5t-29.5 -39.5t-50.5 -27t-72.5 -10 q-35 0 -69.5 6t-53.5 14q-16 6 -16 19q0 16 11 43t24 27q4 0 9 -1.5t10 -3.5q23 -8 45.5 -12t39.5 -4q23 0 38.5 9t15.5 28q0 9 -5.5 14.5t-24.5 5.5h-67q-12 0 -12 16q0 10 3 27z" />
<glyph unicode="&#xb4;" horiz-adv-x="321" d="M250 831l62 -110l-224 -119q-14 -8 -24 -8q-11 0 -20 9.5t-18 25.5t-11.5 24.5t-2.5 13.5q0 9 5.5 14.5t14.5 11.5z" />
<glyph unicode="&#xb5;" horiz-adv-x="623" d="M217 -10q-34 0 -62 17l-34 -194q-6 -31 -74 -31q-65 0 -65 29q0 3 1.5 12.5t6.5 38.5l117 664h140l-57 -323q-3 -17 -4 -26t-1 -18q0 -33 17.5 -46.5t49.5 -13.5q73 0 124 62l64 365h140l-64 -364q-8 -48 -12.5 -80t-7.5 -60q-2 -12 -15.5 -18.5t-46.5 -6.5q-37 0 -50 10 q-10 8 -11 27l-3 35q-36 -38 -76.5 -58.5t-76.5 -20.5z" />
<glyph unicode="&#xb6;" horiz-adv-x="633" d="M566 565l-134 -761q-3 -17 -17.5 -24t-49.5 -7q-57 0 -57 25q0 5 1 12t4 27l128 728h-50l-134 -761q-3 -17 -17.5 -24t-49.5 -7q-57 0 -57 25q0 5 1 12t4 27l76 432q-67 6 -110.5 50t-43.5 124q0 56 18.5 100t53 74.5t82.5 46.5t108 16h333l-20 -115h-69z" />
<glyph unicode="&#xb7;" horiz-adv-x="229" d="M86 196q-33 0 -50 16.5t-17 44.5q0 37 24.5 64.5t70.5 27.5q33 0 50 -16.5t17 -44.5q0 -37 -24.5 -64.5t-70.5 -27.5z" />
<glyph unicode="&#xb8;" horiz-adv-x="288" d="M142 -116q-11 0 -21.5 -2t-20.5 -5q-9 -3 -17 -3q-12 0 -21 9q-7 7 -7.5 13.5t3.5 15.5l48 124h83l-31 -81q18 10 43 10q33 0 57 -21.5t24 -69.5q0 -60 -42 -96t-111 -36q-40 0 -70 8t-42 16l-4.5 4.5t-2.5 8.5q0 10 6.5 27.5t11.5 26.5q7 12 17 12q5 0 11.5 -3t16.5 -6 q21 -6 48 -6q24 0 38.5 7t14.5 24q0 12 -9.5 17.5t-22.5 5.5z" />
<glyph unicode="&#xb9;" horiz-adv-x="348" d="M256 351q-2 -12 -15.5 -17.5t-45.5 -5.5t-42 5t-10 15q0 3 1.5 12.5t7.5 42.5l30 172q-20 -13 -41 -24t-47 -22l-34 81q42 19 72 36.5t61 37.5q9 6 18 8t22 2h54q25 0 25 -18q0 -5 -1.5 -14l-4.5 -27z" />
<glyph unicode="&#xba;" horiz-adv-x="430" d="M226 422q24 0 39.5 13.5t25 33.5t13 42.5t3.5 40.5q0 64 -46 64q-24 0 -39.5 -13.5t-25 -33.5t-13 -42.5t-3.5 -40.5q0 -64 46 -64zM212 339q-68 0 -105 36.5t-37 108.5q0 46 14 85.5t40.5 68.5t64.5 45t86 16q68 0 105 -36.5t37 -108.5q0 -47 -14 -86t-40.5 -68 t-64.5 -45t-86 -16z" />
<glyph unicode="&#xbb;" horiz-adv-x="693" d="M186 280l-119 143l84 71l175 -181q14 -16 14 -33q0 -41 -31 -65l-233 -179l-72 85zM478 280l-119 143l84 71l175 -181q14 -16 14 -33q0 -41 -31 -65l-233 -179l-72 85z" />
<glyph unicode="&#xbc;" horiz-adv-x="861" d="M640 64h-141q-18 0 -25.5 4.5t-14.5 18.5q-6 13 -8 20t-2 14q0 8 7.5 22.5t26.5 40.5q30 42 66.5 88t70.5 87h124q-46 -51 -89.5 -104.5t-77.5 -104.5h78l15 80h101l-38 -215q-2 -12 -13.5 -17.5t-40.5 -5.5q-28 0 -38 4t-10 14q0 3 1 10t4 22zM275 351 q-2 -12 -15.5 -17.5t-45.5 -5.5t-42 5t-10 15q0 3 1.5 12.5t7.5 42.5l30 172q-20 -13 -41 -24t-47 -22l-34 81q42 19 72 36.5t61 37.5q9 6 18 8t22 2h54q25 0 25 -18q0 -5 -1.5 -14l-4.5 -27zM609 699h144l-515 -681q-11 -14 -29.5 -21t-59.5 -7q-24 0 -40 5.5t-16 14.5 q0 6 4.5 13t22.5 30z" />
<glyph unicode="&#xbd;" horiz-adv-x="861" d="M261 351q-2 -12 -15.5 -17.5t-45.5 -5.5t-42 5t-10 15q0 3 1.5 12.5t7.5 42.5l30 172q-20 -13 -41 -24t-47 -22l-34 81q42 19 72 36.5t61 37.5q9 6 18 8t22 2h54q25 0 25 -18q0 -5 -1.5 -14l-4.5 -27zM595 699h144l-515 -681q-11 -14 -29.5 -21t-59.5 -7q-24 0 -40 5.5 t-16 14.5q0 6 4.5 13t22.5 30zM528 332q40 17 75 24.5t64 7.5q60 0 92 -27t32 -72q0 -29 -12.5 -53.5t-33 -45.5t-46 -38.5t-52.5 -32.5h96q17 0 17 -23q0 -11 -3 -27q-5 -26 -11 -35.5t-22 -9.5h-217q-13 0 -17.5 2.5t-6.5 9.5q-5 17 -5 36q0 14 4 20.5t16 14.5 q34 21 70.5 46t70.5 57q24 23 31.5 36t7.5 24q0 28 -40 28q-21 0 -48 -8t-59 -22z" />
<glyph unicode="&#xbe;" horiz-adv-x="861" d="M650 64h-141q-18 0 -25.5 4.5t-14.5 18.5q-6 13 -8 20t-2 14q0 8 7.5 22.5t26.5 40.5q30 42 66.5 88t70.5 87h124q-46 -51 -89.5 -104.5t-77.5 -104.5h78l15 80h101l-38 -215q-2 -12 -13.5 -17.5t-40.5 -5.5q-28 0 -38 4t-10 14q0 3 1 10t4 22zM619 699h144l-515 -681 q-11 -14 -29.5 -21t-59.5 -7q-24 0 -40 5.5t-16 14.5q0 6 4.5 13t22.5 30zM134 519q4 22 8.5 33t15.5 11h61q37 0 37 23q0 25 -44 25q-21 0 -46 -6t-61 -20l-3 86q35 13 71 20.5t70 7.5q37 0 59.5 -9t36.5 -23q24 -24 24 -60q0 -22 -12 -44.5t-43 -39.5v-2q23 -10 31.5 -27 t8.5 -39q0 -25 -9.5 -47.5t-29.5 -39.5t-50.5 -27t-72.5 -10q-35 0 -69.5 6t-53.5 14q-16 6 -16 19q0 16 11 43t24 27q4 0 9 -1.5t10 -3.5q23 -8 45.5 -12t39.5 -4q23 0 38.5 9t15.5 28q0 9 -5.5 14.5t-24.5 5.5h-67q-12 0 -12 16q0 10 3 27z" />
<glyph unicode="&#xbf;" horiz-adv-x="461" d="M171.016 183.019q9.99902 3.99902 12.999 7.49902t5 14.499l11.999 67.9961q4 19.999 19.999 27.498q15.999 7.5 49.9971 7.5q29.998 0 44.4971 -6q14.499 -5.99902 14.499 -21.998q0 -2 -1 -10q-1 -7.99902 -3 -19.998l-14.999 -80.9951 q-4.99902 -25.999 -14.499 -36.998q-9.49902 -10.999 -32.498 -20.999q-28.998 -11.999 -56.9961 -24.998t-49.4971 -30.498t-34.998 -39.998q-13.499 -22.498 -13.499 -54.4961q0 -29.999 21.998 -47.4971q21.999 -17.499 68.9961 -17.499q29.998 0 68.9961 5.99902 q38.9971 6 91.9941 19.999l-11.999 -107.993q-43.9971 -13.999 -91.9941 -21.999q-47.9971 -7.99902 -89.9951 -7.99902q-38.9971 0 -74.9951 8.49902q-35.998 8.5 -63.9961 27.998q-27.998 19.499 -44.9971 49.9971t-16.999 75.4961q0 68.9951 47.9971 131.991 t156.99 104.994zM305.008 492.999q32.998 0 49.9961 -16.499q16.999 -16.499 16.999 -44.4971q0 -36.9971 -24.498 -64.4961q-24.499 -27.498 -70.4961 -27.498q-32.998 0 -49.9971 16.499q-16.998 16.499 -16.998 44.4971q0 36.998 24.498 64.4961t70.4961 27.498z" />
<glyph unicode="&#xc0;" horiz-adv-x="694" d="M385 576q-39 -82 -75.5 -161t-68.5 -154h189q-5 70 -12.5 150t-16.5 165h-16zM527 665q19 -134 36.5 -277t34.5 -286q2 -18 5 -41t3 -33q0 -17 -17 -24t-63 -7q-40 0 -55.5 6.5t-17.5 23.5l-13 121h-249q-14 -32 -30 -66t-27 -59q-8 -16 -28 -21t-62 -5q-43 0 -56.5 4.5 t-13.5 17.5q0 8 7 24q72 155 149 314t152 308q6 12 14.5 18t22.5 6h177q15 0 22 -5t9 -19zM514 849q6 -5 9.5 -9t3.5 -11q0 -6 -4 -16t-16 -27q-14 -19 -22.5 -25.5t-16.5 -6.5q-9 0 -26 10l-198 117l73 110z" />
<glyph unicode="&#xc1;" horiz-adv-x="694" d="M385 576q-39 -82 -75.5 -161t-68.5 -154h189q-5 70 -12.5 150t-16.5 165h-16zM527 665q19 -134 36.5 -277t34.5 -286q2 -18 5 -41t3 -33q0 -17 -17 -24t-63 -7q-40 0 -55.5 6.5t-17.5 23.5l-13 121h-249q-14 -32 -30 -66t-27 -59q-8 -16 -28 -21t-62 -5q-43 0 -56.5 4.5 t-13.5 17.5q0 8 7 24q72 155 149 314t152 308q6 12 14.5 18t22.5 6h177q15 0 22 -5t9 -19zM557 991l62 -110l-224 -119q-14 -8 -24 -8q-11 0 -20 9.5t-18 25.5t-11.5 24.5t-2.5 13.5q0 9 5.5 14.5t14.5 11.5z" />
<glyph unicode="&#xc2;" horiz-adv-x="694" d="M385 576q-39 -82 -75.5 -161t-68.5 -154h189q-5 70 -12.5 150t-16.5 165h-16zM527 665q19 -134 36.5 -277t34.5 -286q2 -18 5 -41t3 -33q0 -17 -17 -24t-63 -7q-40 0 -55.5 6.5t-17.5 23.5l-13 121h-249q-14 -32 -30 -66t-27 -59q-8 -16 -28 -21t-62 -5q-43 0 -56.5 4.5 t-13.5 17.5q0 8 7 24q72 155 149 314t152 308q6 12 14.5 18t22.5 6h177q15 0 22 -5t9 -19zM476 979q26 0 37 -16l94 -130q4 -5 5 -8.5t1 -6.5q0 -8 -6.5 -17t-21.5 -21q-24 -20 -40 -20q-10 0 -19 10l-79 90h-10l-108 -86q-8 -7 -14 -10.5t-13 -3.5q-8 0 -15 5.5t-22 23.5 q-18 22 -18 33q0 9 12 20l131 122q9 8 18 11.5t23 3.5h45z" />
<glyph unicode="&#xc3;" horiz-adv-x="694" d="M385 576q-39 -82 -75.5 -161t-68.5 -154h189q-5 70 -12.5 150t-16.5 165h-16zM527 665q19 -134 36.5 -277t34.5 -286q2 -18 5 -41t3 -33q0 -17 -17 -24t-63 -7q-40 0 -55.5 6.5t-17.5 23.5l-13 121h-249q-14 -32 -30 -66t-27 -59q-8 -16 -28 -21t-62 -5q-43 0 -56.5 4.5 t-13.5 17.5q0 8 7 24q72 155 149 314t152 308q6 12 14.5 18t22.5 6h177q15 0 22 -5t9 -19zM237 799q-18 18 -18 31q0 8 9 21q29 42 63 69t71 27q22 0 40.5 -9t35 -19.5t32 -19t32.5 -8.5q23 0 39 16t32 37l68 -49q-27 -52 -62 -85t-79 -33q-23 0 -42 8.5t-35.5 19t-31.5 19 t-31 8.5q-18 0 -32 -11.5t-30 -28.5q-13 -14 -23 -14q-17 0 -38 21z" />
<glyph unicode="&#xc4;" horiz-adv-x="694" d="M385 576q-39 -82 -75.5 -161t-68.5 -154h189q-5 70 -12.5 150t-16.5 165h-16zM527 665q19 -134 36.5 -277t34.5 -286q2 -18 5 -41t3 -33q0 -17 -17 -24t-63 -7q-40 0 -55.5 6.5t-17.5 23.5l-13 121h-249q-14 -32 -30 -66t-27 -59q-8 -16 -28 -21t-62 -5q-43 0 -56.5 4.5 t-13.5 17.5q0 8 7 24q72 155 149 314t152 308q6 12 14.5 18t22.5 6h177q15 0 22 -5t9 -19zM319 770q-34 0 -51 18t-17 47q0 39 24.5 68t72.5 29q34 0 51.5 -17.5t17.5 -46.5q0 -39 -25 -68.5t-73 -29.5zM528 770q-34 0 -51 18t-17 47q0 39 24.5 68t72.5 29q34 0 51.5 -17.5 t17.5 -46.5q0 -39 -25 -68.5t-73 -29.5z" />
<glyph unicode="&#xc5;" horiz-adv-x="694" d="M385 576q-39 -82 -75.5 -161t-68.5 -154h189q-5 70 -12.5 150t-16.5 165h-16zM527 665q19 -134 36.5 -277t34.5 -286q2 -18 5 -41t3 -33q0 -17 -17 -24t-63 -7q-40 0 -55.5 6.5t-17.5 23.5l-13 121h-249q-14 -32 -30 -66t-27 -59q-8 -16 -28 -21t-62 -5q-43 0 -56.5 4.5 t-13.5 17.5q0 8 7 24q72 155 149 314t152 308q6 12 14.5 18t22.5 6h177q15 0 22 -5t9 -19zM432 824q22 0 34.5 16.5t12.5 36.5q0 14 -7 23t-22 9q-23 0 -35 -17.5t-12 -36.5q0 -14 7 -22.5t22 -8.5zM423 742q-46 0 -76.5 26t-30.5 78q0 29 10.5 55.5t29 46.5t45 31.5 t58.5 11.5q46 0 76.5 -26t30.5 -78q0 -29 -10.5 -55.5t-29 -46.5t-45 -31.5t-58.5 -11.5z" />
<glyph unicode="&#xc6;" horiz-adv-x="976" d="M123 19q-12 -19 -34 -24t-65 -5q-32 0 -50.5 5.5t-18.5 19.5q0 8 6 19.5t18 30.5q95 148 203 298.5t214 290.5q12 17 26.5 26t37.5 9h527l-21 -116h-315l-28 -165h268l-20 -113h-269l-31 -179h321l-21 -116h-430q-30 0 -30 22q0 5 2 18t6 34l13 72h-229zM496 573 q-52 -70 -106.5 -148t-110.5 -162h174l55 310h-12z" />
<glyph unicode="&#xc7;" horiz-adv-x="601" d="M519 86q0 -11 -1.5 -24.5t-3.5 -24.5q-5 -23 -24 -28q-28 -8 -67.5 -13t-81.5 -6l-13 -35q18 10 43 10q34 0 57.5 -21.5t23.5 -68.5q0 -60 -42 -96.5t-111 -36.5q-36 0 -68 8t-44 16l-4.5 4.5t-2.5 8.5q0 10 6.5 27.5t11.5 26.5q7 12 17 12q5 0 11.5 -3t16.5 -6 q21 -6 44 -6t37.5 7t14.5 24q0 23 -27 23q-16 0 -31.5 -5t-27.5 -5t-21 9q-7 7 -7.5 13.5t3.5 15.5l32 83q-104 15 -163 81.5t-59 199.5q0 95 27 172.5t81 134.5q52 54 127 85t166 31q44 0 88 -5.5t84 -13.5l-28 -120q-38 8 -71.5 12t-62.5 4q-117 0 -181 -63 q-36 -35 -59.5 -95.5t-23.5 -131.5q0 -173 169 -173q26 0 57 3.5t56 8.5q12 2 20 3.5t13 1.5q10 0 14.5 -9.5t4.5 -34.5z" />
<glyph unicode="&#xc8;" horiz-adv-x="569" d="M244 573l-29 -165h269l-20 -113h-269l-32 -179h322l-21 -116h-432q-16 0 -21.5 5t-5.5 16q0 14 11 72l105 596h459l-21 -116h-315zM466 849q6 -5 9.5 -9t3.5 -11q0 -6 -4 -16t-16 -27q-14 -19 -22.5 -25.5t-16.5 -6.5q-9 0 -26 10l-198 117l73 110z" />
<glyph unicode="&#xc9;" horiz-adv-x="569" d="M244 573l-29 -165h269l-20 -113h-269l-32 -179h322l-21 -116h-432q-16 0 -21.5 5t-5.5 16q0 14 11 72l105 596h459l-21 -116h-315zM494 991l62 -110l-224 -119q-14 -8 -24 -8q-11 0 -20 9.5t-18 25.5t-11.5 24.5t-2.5 13.5q0 9 5.5 14.5t14.5 11.5z" />
<glyph unicode="&#xca;" horiz-adv-x="569" d="M244 573l-29 -165h269l-20 -113h-269l-32 -179h322l-21 -116h-432q-16 0 -21.5 5t-5.5 16q0 14 11 72l105 596h459l-21 -116h-315zM424 979q26 0 37 -16l94 -130q4 -5 5 -8.5t1 -6.5q0 -8 -6.5 -17t-21.5 -21q-24 -20 -40 -20q-10 0 -19 10l-79 90h-10l-108 -86 q-8 -7 -14 -10.5t-13 -3.5q-8 0 -15 5.5t-22 23.5q-18 22 -18 33q0 9 12 20l131 122q9 8 18 11.5t23 3.5h45z" />
<glyph unicode="&#xcb;" horiz-adv-x="569" d="M244 573l-29 -165h269l-20 -113h-269l-32 -179h322l-21 -116h-432q-16 0 -21.5 5t-5.5 16q0 14 11 72l105 596h459l-21 -116h-315zM260 770q-34 0 -51 18t-17 47q0 39 24.5 68t72.5 29q34 0 51.5 -17.5t17.5 -46.5q0 -39 -25 -68.5t-73 -29.5zM469 770q-34 0 -51 18 t-17 47q0 39 24.5 68t72.5 29q34 0 51.5 -17.5t17.5 -46.5q0 -39 -25 -68.5t-73 -29.5z" />
<glyph unicode="&#xcc;" horiz-adv-x="277" d="M125 689h144l-116 -661q-3 -15 -20 -24t-59 -9q-29 0 -47.5 4.5t-18.5 17.5q0 3 1 10.5t3 19.5zM298 849q6 -5 9.5 -9t3.5 -11q0 -6 -4 -16t-16 -27q-14 -19 -22.5 -25.5t-16.5 -6.5q-9 0 -26 10l-198 117l73 110z" />
<glyph unicode="&#xcd;" horiz-adv-x="277" d="M125 689h144l-116 -661q-3 -15 -20 -24t-59 -9q-29 0 -47.5 4.5t-18.5 17.5q0 3 1 10.5t3 19.5zM376 991l62 -110l-224 -119q-14 -8 -24 -8q-11 0 -20 9.5t-18 25.5t-11.5 24.5t-2.5 13.5q0 9 5.5 14.5t14.5 11.5z" />
<glyph unicode="&#xce;" horiz-adv-x="277" d="M125 689h144l-116 -661q-3 -15 -20 -24t-59 -9q-29 0 -47.5 4.5t-18.5 17.5q0 3 1 10.5t3 19.5zM268 979q26 0 37 -16l94 -130q4 -5 5 -8.5t1 -6.5q0 -8 -6.5 -17t-21.5 -21q-24 -20 -40 -20q-10 0 -19 10l-79 90h-10l-108 -86q-8 -7 -14 -10.5t-13 -3.5q-8 0 -15 5.5 t-22 23.5q-18 22 -18 33q0 9 12 20l131 122q9 8 18 11.5t23 3.5h45z" />
<glyph unicode="&#xcf;" horiz-adv-x="277" d="M125 689h144l-116 -661q-3 -15 -20 -24t-59 -9q-29 0 -47.5 4.5t-18.5 17.5q0 3 1 10.5t3 19.5zM106 770q-34 0 -51 18t-17 47q0 39 24.5 68t72.5 29q34 0 51.5 -17.5t17.5 -46.5q0 -39 -25 -68.5t-73 -29.5zM315 770q-34 0 -51 18t-17 47q0 39 24.5 68t72.5 29 q34 0 51.5 -17.5t17.5 -46.5q0 -39 -25 -68.5t-73 -29.5z" />
<glyph unicode="&#xd0;" horiz-adv-x="741" d="M428 689q71 0 124.5 -15.5t88.5 -52.5q29 -30 45.5 -76t16.5 -112q0 -35 -5 -78t-18 -88t-36 -89t-58 -80q-44 -45 -111 -71.5t-161 -26.5h-240q-16 0 -22 4.5t-6 15.5q0 6 1.5 14.5l4.5 25.5l42 242h-63q-8 0 -11.5 5t-3.5 19t3 35q6 35 14 46t20 11h62l48 271h265z M286 573l-28 -155h182l-21 -116h-181l-33 -186h109q54 0 92.5 16.5t66.5 44.5q24 25 40 56t25.5 64t13.5 65.5t4 61.5q0 77 -33 113q-35 36 -118 36h-119z" />
<glyph unicode="&#xd1;" horiz-adv-x="707" d="M484 -3q-43 0 -63.5 6.5t-26.5 22.5l-172 464l-82 -464q-2 -14 -18 -22.5t-54 -8.5q-27 0 -44.5 5t-17.5 21q0 4 1.5 14.5t7.5 42.5l108 611h165l190 -512l90 512h134l-117 -663q-3 -15 -26.5 -22t-74.5 -7zM241 799q-18 18 -18 31q0 8 9 21q29 42 63 69t71 27 q22 0 40.5 -9t35 -19.5t32 -19t32.5 -8.5q23 0 39 16t32 37l68 -49q-27 -52 -62 -85t-79 -33q-23 0 -42 8.5t-35.5 19t-31.5 19t-31 8.5q-18 0 -32 -11.5t-30 -28.5q-13 -14 -23 -14q-17 0 -38 21z" />
<glyph unicode="&#xd2;" horiz-adv-x="718" d="M406 699q132 0 203 -71t71 -208q0 -87 -23.5 -165.5t-69.5 -137t-114 -93t-157 -34.5q-136 0 -207 71t-71 208q0 87 24 165.5t70.5 137t115.5 93t158 34.5zM396 579q-55 0 -95 -26.5t-65.5 -69.5t-38 -97.5t-12.5 -110.5q0 -81 34.5 -123t108.5 -42q53 0 91.5 26.5 t64 69.5t37.5 98t12 111q0 80 -34.5 122t-102.5 42zM542 849q6 -5 9.5 -9t3.5 -11q0 -6 -4 -16t-16 -27q-14 -19 -22.5 -25.5t-16.5 -6.5q-9 0 -26 10l-198 117l73 110z" />
<glyph unicode="&#xd3;" horiz-adv-x="718" d="M406 699q132 0 203 -71t71 -208q0 -87 -23.5 -165.5t-69.5 -137t-114 -93t-157 -34.5q-136 0 -207 71t-71 208q0 87 24 165.5t70.5 137t115.5 93t158 34.5zM396 579q-55 0 -95 -26.5t-65.5 -69.5t-38 -97.5t-12.5 -110.5q0 -81 34.5 -123t108.5 -42q53 0 91.5 26.5 t64 69.5t37.5 98t12 111q0 80 -34.5 122t-102.5 42zM569 991l62 -110l-224 -119q-14 -8 -24 -8q-11 0 -20 9.5t-18 25.5t-11.5 24.5t-2.5 13.5q0 9 5.5 14.5t14.5 11.5z" />
<glyph unicode="&#xd4;" horiz-adv-x="718" d="M406 699q132 0 203 -71t71 -208q0 -87 -23.5 -165.5t-69.5 -137t-114 -93t-157 -34.5q-136 0 -207 71t-71 208q0 87 24 165.5t70.5 137t115.5 93t158 34.5zM396 579q-55 0 -95 -26.5t-65.5 -69.5t-38 -97.5t-12.5 -110.5q0 -81 34.5 -123t108.5 -42q53 0 91.5 26.5 t64 69.5t37.5 98t12 111q0 80 -34.5 122t-102.5 42zM501 979q26 0 37 -16l94 -130q4 -5 5 -8.5t1 -6.5q0 -8 -6.5 -17t-21.5 -21q-24 -20 -40 -20q-10 0 -19 10l-79 90h-10l-108 -86q-8 -7 -14 -10.5t-13 -3.5q-8 0 -15 5.5t-22 23.5q-18 22 -18 33q0 9 12 20l131 122 q9 8 18 11.5t23 3.5h45z" />
<glyph unicode="&#xd5;" horiz-adv-x="718" d="M406 699q132 0 203 -71t71 -208q0 -87 -23.5 -165.5t-69.5 -137t-114 -93t-157 -34.5q-136 0 -207 71t-71 208q0 87 24 165.5t70.5 137t115.5 93t158 34.5zM396 579q-55 0 -95 -26.5t-65.5 -69.5t-38 -97.5t-12.5 -110.5q0 -81 34.5 -123t108.5 -42q53 0 91.5 26.5 t64 69.5t37.5 98t12 111q0 80 -34.5 122t-102.5 42zM278 799q-18 18 -18 31q0 8 9 21q29 42 63 69t71 27q22 0 40.5 -9t35 -19.5t32 -19t32.5 -8.5q23 0 39 16t32 37l68 -49q-27 -52 -62 -85t-79 -33q-23 0 -42 8.5t-35.5 19t-31.5 19t-31 8.5q-18 0 -32 -11.5t-30 -28.5 q-13 -14 -23 -14q-17 0 -38 21z" />
<glyph unicode="&#xd6;" horiz-adv-x="718" d="M406 699q132 0 203 -71t71 -208q0 -87 -23.5 -165.5t-69.5 -137t-114 -93t-157 -34.5q-136 0 -207 71t-71 208q0 87 24 165.5t70.5 137t115.5 93t158 34.5zM396 579q-55 0 -95 -26.5t-65.5 -69.5t-38 -97.5t-12.5 -110.5q0 -81 34.5 -123t108.5 -42q53 0 91.5 26.5 t64 69.5t37.5 98t12 111q0 80 -34.5 122t-102.5 42zM337 770q-34 0 -51 18t-17 47q0 39 24.5 68t72.5 29q34 0 51.5 -17.5t17.5 -46.5q0 -39 -25 -68.5t-73 -29.5zM546 770q-34 0 -51 18t-17 47q0 39 24.5 68t72.5 29q34 0 51.5 -17.5t17.5 -46.5q0 -39 -25 -68.5t-73 -29.5 z" />
<glyph unicode="&#xd7;" horiz-adv-x="544" d="M327 259l78 -92q9 -12 9 -19t-6 -16.5t-25 -26.5q-17 -14 -26 -19t-15 -5q-11 0 -20 11l-77 93l-109 -97q-4 -3 -7 -5t-8 -2q-11 0 -21 8.5t-20 19.5q-13 14 -18 24t-5 17q0 8 8 16l112 100l-92 109l84 73l91 -109l121 109l72 -77z" />
<glyph unicode="&#xd8;" horiz-adv-x="720" d="M406 699q92 0 155 -36l1 2l78 89l88 -71l-83 -95l-4 -4q19 -32 29 -73t10 -91q0 -87 -23.5 -165.5t-69.5 -137t-114 -93t-157 -34.5q-96 0 -160 36l-58 -67q-9 -10 -19 -10q-16 0 -44 24q-19 16 -25.5 26.5t-6.5 16.5t9 17l63 73q-37 66 -37 163q0 87 24 165.5t70.5 137 t115.5 93t158 34.5zM533 415q0 21 -3 41l-284 -327q32 -19 82 -19q53 0 91.5 26.5t64 69.5t37.5 98t12 111zM396 579q-55 0 -95 -26.5t-65.5 -69.5t-38 -97.5t-12.5 -110.5q0 -11 0.5 -21t1.5 -19l284 325q-29 19 -75 19z" />
<glyph unicode="&#xd9;" horiz-adv-x="677" d="M599 253q-12 -69 -33 -115t-58 -78q-42 -37 -99.5 -53.5t-127.5 -16.5q-121 0 -184 47t-63 143q0 14 1.5 32t4.5 35l78 442h144l-77 -436q-2 -14 -3.5 -26t-1.5 -25q0 -22 5 -39t18 -29q28 -26 92 -26q42 0 67 10.5t43 27.5q20 19 31.5 44t17.5 57l78 442h144zM503 849 q6 -5 9.5 -9t3.5 -11q0 -6 -4 -16t-16 -27q-14 -19 -22.5 -25.5t-16.5 -6.5q-9 0 -26 10l-198 117l73 110z" />
<glyph unicode="&#xda;" horiz-adv-x="677" d="M599 253q-12 -69 -33 -115t-58 -78q-42 -37 -99.5 -53.5t-127.5 -16.5q-121 0 -184 47t-63 143q0 14 1.5 32t4.5 35l78 442h144l-77 -436q-2 -14 -3.5 -26t-1.5 -25q0 -22 5 -39t18 -29q28 -26 92 -26q42 0 67 10.5t43 27.5q20 19 31.5 44t17.5 57l78 442h144zM543 991 l62 -110l-224 -119q-14 -8 -24 -8q-11 0 -20 9.5t-18 25.5t-11.5 24.5t-2.5 13.5q0 9 5.5 14.5t14.5 11.5z" />
<glyph unicode="&#xdb;" horiz-adv-x="677" d="M599 253q-12 -69 -33 -115t-58 -78q-42 -37 -99.5 -53.5t-127.5 -16.5q-121 0 -184 47t-63 143q0 14 1.5 32t4.5 35l78 442h144l-77 -436q-2 -14 -3.5 -26t-1.5 -25q0 -22 5 -39t18 -29q28 -26 92 -26q42 0 67 10.5t43 27.5q20 19 31.5 44t17.5 57l78 442h144zM461 979 q26 0 37 -16l94 -130q4 -5 5 -8.5t1 -6.5q0 -8 -6.5 -17t-21.5 -21q-24 -20 -40 -20q-10 0 -19 10l-79 90h-10l-108 -86q-8 -7 -14 -10.5t-13 -3.5q-8 0 -15 5.5t-22 23.5q-18 22 -18 33q0 9 12 20l131 122q9 8 18 11.5t23 3.5h45z" />
<glyph unicode="&#xdc;" horiz-adv-x="677" d="M599 253q-12 -69 -33 -115t-58 -78q-42 -37 -99.5 -53.5t-127.5 -16.5q-121 0 -184 47t-63 143q0 14 1.5 32t4.5 35l78 442h144l-77 -436q-2 -14 -3.5 -26t-1.5 -25q0 -22 5 -39t18 -29q28 -26 92 -26q42 0 67 10.5t43 27.5q20 19 31.5 44t17.5 57l78 442h144zM305 770 q-34 0 -51 18t-17 47q0 39 24.5 68t72.5 29q34 0 51.5 -17.5t17.5 -46.5q0 -39 -25 -68.5t-73 -29.5zM514 770q-34 0 -51 18t-17 47q0 39 24.5 68t72.5 29q34 0 51.5 -17.5t17.5 -46.5q0 -39 -25 -68.5t-73 -29.5z" />
<glyph unicode="&#xdd;" horiz-adv-x="641" d="M236 252q-45 105 -86 212t-77 225h153q25 -92 49 -169t44 -132h8q18 27 41.5 62.5t48 75.5t49.5 81.5t48 81.5h169q-80 -123 -155 -230.5t-151 -210.5l-37 -222q-3 -15 -19.5 -23t-58.5 -8q-29 0 -47.5 4.5t-18.5 17.5q0 4 1 11t3 19zM515 991l62 -110l-224 -119 q-14 -8 -24 -8q-11 0 -20 9.5t-18 25.5t-11.5 24.5t-2.5 13.5q0 9 5.5 14.5t14.5 11.5z" />
<glyph unicode="&#xde;" horiz-adv-x="610" d="M302 241q33 0 61 9t47 26q21 20 30 47.5t9 62.5q0 48 -27 68t-81 20h-113l-41 -233h115zM122 689h144l-18 -99h129q57 0 103 -12t75 -42q23 -24 33 -56.5t10 -69.5q0 -69 -22.5 -125.5t-62.5 -93.5q-38 -35 -85 -50.5t-116 -15.5h-146l-17 -99q-2 -15 -19 -23t-59 -8 q-29 0 -47.5 4.5t-18.5 18.5q0 3 1 10t3 19z" />
<glyph unicode="&#xdf;" horiz-adv-x="633" d="M85 485q13 73 37 117t59 71q35 26 80 39t98 13q55 0 96 -12.5t68.5 -34.5t41 -50.5t13.5 -60.5q0 -46 -25.5 -75.5t-70.5 -60.5q-35 -24 -51.5 -37.5t-16.5 -31.5q0 -12 7.5 -21.5t19 -17.5t25.5 -16t28 -18q15 -11 31 -23t29 -28.5t21 -38t8 -50.5q0 -41 -16 -71.5 t-44 -51.5t-64.5 -31.5t-76.5 -10.5q-42 0 -86.5 8t-73.5 22q-6 3 -10.5 7.5t-4.5 16.5q0 10 3.5 25t8.5 29q4 10 7.5 15t10.5 5q5 0 11.5 -2t16.5 -5q20 -7 47.5 -12.5t55.5 -5.5q42 0 63.5 16.5t21.5 41.5q0 17 -9.5 30t-24 24t-32.5 20.5t-35 20.5q-39 25 -56 51.5 t-17 61.5q0 21 5 38.5t15.5 33t27 30.5t39.5 31q38 26 57.5 41t19.5 35q0 25 -23 39t-61 14q-50 0 -86 -31.5t-49 -104.5l-97 -550q-3 -17 -21 -24t-56 -7q-30 0 -46.5 6t-16.5 19q0 7 2.5 20t6.5 35z" />
<glyph unicode="&#xe0;" horiz-adv-x="594" d="M502 159q-8 -41 -12.5 -76t-7.5 -61q-2 -12 -16.5 -18.5t-50.5 -6.5q-19 0 -30.5 1t-17.5 4.5t-8 11t-2 21.5l-1 32q-69 -77 -158 -77q-43 0 -75.5 14t-54.5 39.5t-33.5 60.5t-11.5 77q0 75 23.5 140t68 112.5t109 75t147.5 27.5q57 0 109 -8t84 -18zM166 195 q0 -55 19.5 -77t51.5 -22q31 0 64 19.5t62 51.5l46 257q-13 4 -29 6t-31 2q-38 0 -71 -16t-58 -46.5t-39.5 -74.5t-14.5 -100zM479 689q6 -5 9.5 -9t3.5 -11q0 -6 -4 -16t-16 -27q-14 -19 -22.5 -25.5t-16.5 -6.5q-9 0 -26 10l-198 117l73 110z" />
<glyph unicode="&#xe1;" horiz-adv-x="594" d="M502 159q-8 -41 -12.5 -76t-7.5 -61q-2 -12 -16.5 -18.5t-50.5 -6.5q-19 0 -30.5 1t-17.5 4.5t-8 11t-2 21.5l-1 32q-69 -77 -158 -77q-43 0 -75.5 14t-54.5 39.5t-33.5 60.5t-11.5 77q0 75 23.5 140t68 112.5t109 75t147.5 27.5q57 0 109 -8t84 -18zM166 195 q0 -55 19.5 -77t51.5 -22q31 0 64 19.5t62 51.5l46 257q-13 4 -29 6t-31 2q-38 0 -71 -16t-58 -46.5t-39.5 -74.5t-14.5 -100zM512 831l62 -110l-224 -119q-14 -8 -24 -8q-11 0 -20 9.5t-18 25.5t-11.5 24.5t-2.5 13.5q0 9 5.5 14.5t14.5 11.5z" />
<glyph unicode="&#xe2;" horiz-adv-x="594" d="M502 159q-8 -41 -12.5 -76t-7.5 -61q-2 -12 -16.5 -18.5t-50.5 -6.5q-19 0 -30.5 1t-17.5 4.5t-8 11t-2 21.5l-1 32q-69 -77 -158 -77q-43 0 -75.5 14t-54.5 39.5t-33.5 60.5t-11.5 77q0 75 23.5 140t68 112.5t109 75t147.5 27.5q57 0 109 -8t84 -18zM166 195 q0 -55 19.5 -77t51.5 -22q31 0 64 19.5t62 51.5l46 257q-13 4 -29 6t-31 2q-38 0 -71 -16t-58 -46.5t-39.5 -74.5t-14.5 -100zM438 819q26 0 37 -16l94 -130q4 -5 5 -8.5t1 -6.5q0 -8 -6.5 -17t-21.5 -21q-24 -20 -40 -20q-10 0 -19 10l-79 90h-10l-108 -86q-8 -7 -14 -10.5 t-13 -3.5q-8 0 -15 5.5t-22 23.5q-18 22 -18 33q0 9 12 20l131 122q9 8 18 11.5t23 3.5h45z" />
<glyph unicode="&#xe3;" horiz-adv-x="594" d="M502 159q-8 -41 -12.5 -76t-7.5 -61q-2 -12 -16.5 -18.5t-50.5 -6.5q-19 0 -30.5 1t-17.5 4.5t-8 11t-2 21.5l-1 32q-69 -77 -158 -77q-43 0 -75.5 14t-54.5 39.5t-33.5 60.5t-11.5 77q0 75 23.5 140t68 112.5t109 75t147.5 27.5q57 0 109 -8t84 -18zM166 195 q0 -55 19.5 -77t51.5 -22q31 0 64 19.5t62 51.5l46 257q-13 4 -29 6t-31 2q-38 0 -71 -16t-58 -46.5t-39.5 -74.5t-14.5 -100zM202 639q-18 18 -18 31q0 8 9 21q29 42 63 69t71 27q22 0 40.5 -9t35 -19.5t32 -19t32.5 -8.5q23 0 39 16t32 37l68 -49q-27 -52 -62 -85t-79 -33 q-23 0 -42 8.5t-35.5 19t-31.5 19t-31 8.5q-18 0 -32 -11.5t-30 -28.5q-13 -14 -23 -14q-17 0 -38 21z" />
<glyph unicode="&#xe4;" horiz-adv-x="594" d="M502 159q-8 -41 -12.5 -76t-7.5 -61q-2 -12 -16.5 -18.5t-50.5 -6.5q-19 0 -30.5 1t-17.5 4.5t-8 11t-2 21.5l-1 32q-69 -77 -158 -77q-43 0 -75.5 14t-54.5 39.5t-33.5 60.5t-11.5 77q0 75 23.5 140t68 112.5t109 75t147.5 27.5q57 0 109 -8t84 -18zM166 195 q0 -55 19.5 -77t51.5 -22q31 0 64 19.5t62 51.5l46 257q-13 4 -29 6t-31 2q-38 0 -71 -16t-58 -46.5t-39.5 -74.5t-14.5 -100zM278 610q-34 0 -51 18t-17 47q0 39 24.5 68t72.5 29q34 0 51.5 -17.5t17.5 -46.5q0 -39 -25 -68.5t-73 -29.5zM487 610q-34 0 -51 18t-17 47 q0 39 24.5 68t72.5 29q34 0 51.5 -17.5t17.5 -46.5q0 -39 -25 -68.5t-73 -29.5z" />
<glyph unicode="&#xe5;" horiz-adv-x="594" d="M502 159q-8 -41 -12.5 -76t-7.5 -61q-2 -12 -16.5 -18.5t-50.5 -6.5q-19 0 -30.5 1t-17.5 4.5t-8 11t-2 21.5l-1 32q-69 -77 -158 -77q-43 0 -75.5 14t-54.5 39.5t-33.5 60.5t-11.5 77q0 75 23.5 140t68 112.5t109 75t147.5 27.5q57 0 109 -8t84 -18zM166 195 q0 -55 19.5 -77t51.5 -22q31 0 64 19.5t62 51.5l46 257q-13 4 -29 6t-31 2q-38 0 -71 -16t-58 -46.5t-39.5 -74.5t-14.5 -100zM383 664q22 0 34.5 16.5t12.5 36.5q0 14 -7 23t-22 9q-23 0 -35 -17.5t-12 -36.5q0 -14 7 -22.5t22 -8.5zM374 582q-46 0 -76.5 26t-30.5 78 q0 29 10.5 55.5t29 46.5t45 31.5t58.5 11.5q46 0 76.5 -26t30.5 -78q0 -29 -10.5 -55.5t-29 -46.5t-45 -31.5t-58.5 -11.5z" />
<glyph unicode="&#xe6;" horiz-adv-x="872" d="M470 197q0 -56 32 -77t92 -21q28 0 53.5 2.5t36.5 4.5t26 4.5t21 2.5t9.5 -4.5t3.5 -16.5q0 -5 -1.5 -21.5t-4.5 -31.5q-4 -19 -11.5 -26t-21.5 -10q-23 -5 -57.5 -9t-75.5 -4q-69 0 -119 19t-76 54q-46 -37 -101 -55t-110 -18q-46 0 -78 12t-52.5 32t-30 46t-9.5 55 q0 52 23 88t60.5 58t85.5 31.5t98 9.5q17 0 40 -1.5t43 -3.5q8 34 8 49q0 34 -20 47t-71 13q-35 0 -76 -6.5t-86 -18.5l4 108q48 13 91.5 20t89.5 7q68 0 107 -14t62 -40q33 24 74 39t90 15q44 0 82 -11t65.5 -33.5t43.5 -57t16 -80.5q0 -28 -6 -64.5t-20 -71.5h-330v-21z M210 91q62 0 127 45q-8 37 -8 75v12q-17 2 -35 2.5t-28 0.5q-62 0 -93 -20q-17 -11 -24.5 -27t-7.5 -33q0 -30 19.5 -42.5t49.5 -12.5zM608 435q-48 0 -80 -31.5t-42 -85.5h193q5 20 5 43q0 20 -5 32.5t-13 21.5q-18 20 -58 20z" />
<glyph unicode="&#xe7;" horiz-adv-x="495" d="M240 -116q-16 0 -31.5 -5t-27.5 -5t-21 9q-7 7 -7.5 13.5t3.5 15.5l32 85q-81 14 -123 65.5t-42 148.5q0 75 21.5 135.5t62 102.5t98.5 64.5t130 22.5q44 0 83.5 -6t74.5 -15l-30 -108q-66 18 -119 18q-48 0 -81.5 -16.5t-55 -44.5t-31.5 -65.5t-10 -79.5q0 -61 30 -89.5 t90 -28.5q22 0 45.5 2.5t51.5 7.5q5 1 10 1.5t10 0.5q7 0 10 -4.5t3 -16.5q0 -10 -2 -28.5t-4 -32.5q-3 -14 -9.5 -19t-17.5 -8q-24 -7 -56 -10.5t-58 -3.5l-13 -35q18 10 43 10q34 0 57.5 -21.5t23.5 -68.5q0 -60 -42 -96.5t-111 -36.5q-36 0 -68 8t-44 16l-4.5 4.5 t-2.5 8.5q0 10 6.5 27.5t11.5 26.5q7 12 17 12q5 0 11.5 -3t16.5 -6q21 -6 44 -6t37.5 7t14.5 24q0 23 -27 23z" />
<glyph unicode="&#xe8;" d="M164 218v-21q0 -57 32 -77.5t92 -20.5q28 0 53.5 2.5t36.5 4.5t26 4.5t21 2.5t9.5 -4.5t3.5 -16.5q0 -5 -1.5 -21.5t-4.5 -31.5q-4 -19 -11.5 -26t-21.5 -10q-23 -5 -57.5 -9t-76.5 -4q-117 0 -179.5 51.5t-62.5 168.5q0 64 18.5 123t54.5 104t90.5 72t126.5 27 q44 0 82 -11t65.5 -33.5t43.5 -57t16 -80.5q0 -28 -6 -64.5t-20 -71.5h-330zM302 435q-48 0 -80 -31.5t-42 -85.5h193q5 20 5 43q0 20 -5 32.5t-13 21.5q-18 20 -58 20zM455 689q6 -5 9.5 -9t3.5 -11q0 -6 -4 -16t-16 -27q-14 -19 -22.5 -25.5t-16.5 -6.5q-9 0 -26 10 l-198 117l73 110z" />
<glyph unicode="&#xe9;" d="M164 218v-21q0 -57 32 -77.5t92 -20.5q28 0 53.5 2.5t36.5 4.5t26 4.5t21 2.5t9.5 -4.5t3.5 -16.5q0 -5 -1.5 -21.5t-4.5 -31.5q-4 -19 -11.5 -26t-21.5 -10q-23 -5 -57.5 -9t-76.5 -4q-117 0 -179.5 51.5t-62.5 168.5q0 64 18.5 123t54.5 104t90.5 72t126.5 27 q44 0 82 -11t65.5 -33.5t43.5 -57t16 -80.5q0 -28 -6 -64.5t-20 -71.5h-330zM302 435q-48 0 -80 -31.5t-42 -85.5h193q5 20 5 43q0 20 -5 32.5t-13 21.5q-18 20 -58 20zM449 831l62 -110l-224 -119q-14 -8 -24 -8q-11 0 -20 9.5t-18 25.5t-11.5 24.5t-2.5 13.5q0 9 5.5 14.5 t14.5 11.5z" />
<glyph unicode="&#xea;" d="M164 218v-21q0 -57 32 -77.5t92 -20.5q28 0 53.5 2.5t36.5 4.5t26 4.5t21 2.5t9.5 -4.5t3.5 -16.5q0 -5 -1.5 -21.5t-4.5 -31.5q-4 -19 -11.5 -26t-21.5 -10q-23 -5 -57.5 -9t-76.5 -4q-117 0 -179.5 51.5t-62.5 168.5q0 64 18.5 123t54.5 104t90.5 72t126.5 27 q44 0 82 -11t65.5 -33.5t43.5 -57t16 -80.5q0 -28 -6 -64.5t-20 -71.5h-330zM302 435q-48 0 -80 -31.5t-42 -85.5h193q5 20 5 43q0 20 -5 32.5t-13 21.5q-18 20 -58 20zM393 819q26 0 37 -16l94 -130q4 -5 5 -8.5t1 -6.5q0 -8 -6.5 -17t-21.5 -21q-24 -20 -40 -20 q-10 0 -19 10l-79 90h-10l-108 -86q-8 -7 -14 -10.5t-13 -3.5q-8 0 -15 5.5t-22 23.5q-18 22 -18 33q0 9 12 20l131 122q9 8 18 11.5t23 3.5h45z" />
<glyph unicode="&#xeb;" d="M164 218v-21q0 -57 32 -77.5t92 -20.5q28 0 53.5 2.5t36.5 4.5t26 4.5t21 2.5t9.5 -4.5t3.5 -16.5q0 -5 -1.5 -21.5t-4.5 -31.5q-4 -19 -11.5 -26t-21.5 -10q-23 -5 -57.5 -9t-76.5 -4q-117 0 -179.5 51.5t-62.5 168.5q0 64 18.5 123t54.5 104t90.5 72t126.5 27 q44 0 82 -11t65.5 -33.5t43.5 -57t16 -80.5q0 -28 -6 -64.5t-20 -71.5h-330zM302 435q-48 0 -80 -31.5t-42 -85.5h193q5 20 5 43q0 20 -5 32.5t-13 21.5q-18 20 -58 20zM233 610q-34 0 -51 18t-17 47q0 39 24.5 68t72.5 29q34 0 51.5 -17.5t17.5 -46.5q0 -39 -25 -68.5 t-73 -29.5zM442 610q-34 0 -51 18t-17 47q0 39 24.5 68t72.5 29q34 0 51.5 -17.5t17.5 -46.5q0 -39 -25 -68.5t-73 -29.5z" />
<glyph unicode="&#xec;" horiz-adv-x="262" d="M147 32q-3 -20 -24.5 -28.5t-53.5 -8.5q-68 0 -62 37l87 494h140zM260 689q6 -5 9.5 -9t3.5 -11q0 -6 -4 -16t-16 -27q-14 -19 -22.5 -25.5t-16.5 -6.5q-9 0 -26 10l-198 117l73 110z" />
<glyph unicode="&#xed;" horiz-adv-x="262" d="M147 32q-3 -20 -24.5 -28.5t-53.5 -8.5q-68 0 -62 37l87 494h140zM321 831l62 -110l-224 -119q-14 -8 -24 -8q-11 0 -20 9.5t-18 25.5t-11.5 24.5t-2.5 13.5q0 9 5.5 14.5t14.5 11.5z" />
<glyph unicode="&#xee;" horiz-adv-x="262" d="M147 32q-3 -20 -24.5 -28.5t-53.5 -8.5q-68 0 -62 37l87 494h140zM229 819q26 0 37 -16l94 -130q4 -5 5 -8.5t1 -6.5q0 -8 -6.5 -17t-21.5 -21q-24 -20 -40 -20q-10 0 -19 10l-79 90h-10l-108 -86q-8 -7 -14 -10.5t-13 -3.5q-8 0 -15 5.5t-22 23.5q-18 22 -18 33 q0 9 12 20l131 122q9 8 18 11.5t23 3.5h45z" />
<glyph unicode="&#xef;" horiz-adv-x="262" d="M147 32q-3 -20 -24.5 -28.5t-53.5 -8.5q-68 0 -62 37l87 494h140zM74 610q-34 0 -51 18t-17 47q0 39 24.5 68t72.5 29q34 0 51.5 -17.5t17.5 -46.5q0 -39 -25 -68.5t-73 -29.5zM283 610q-34 0 -51 18t-17 47q0 39 24.5 68t72.5 29q34 0 51.5 -17.5t17.5 -46.5 q0 -39 -25 -68.5t-73 -29.5z" />
<glyph unicode="&#xf0;" horiz-adv-x="602" d="M398 491q-4 32 -19.5 63.5t-41.5 60.5l-73 -44q-7 -4 -12 -4q-8 0 -14.5 6.5t-17.5 24.5q-10 15 -14 25t-4 15q0 10 11 16l53 30q-16 11 -31.5 17.5t-31.5 14.5l59 85q30 -12 57 -25.5t50 -29.5l94 58l51 -84l-69 -41q54 -60 78.5 -138.5t24.5 -176.5q0 -71 -18 -138 t-55.5 -119.5t-96 -84.5t-139.5 -32q-50 0 -91.5 14t-71 42t-45.5 70.5t-16 99.5q0 69 21 129t62 105q35 38 82 60t104 22q40 0 68 -10.5t46 -30.5zM306 430q-44 0 -73 -22t-46 -54.5t-24 -70t-7 -68.5q0 -54 20.5 -86.5t73.5 -32.5q44 0 73 21t46 53t24 69.5t7 71.5 q0 119 -94 119z" />
<glyph unicode="&#xf1;" horiz-adv-x="591" d="M387 311q3 17 5 31.5t2 22.5q0 58 -65 58q-49 0 -122 -35l-63 -362q-3 -17 -21 -24t-56 -7q-30 0 -46.5 6t-16.5 19q0 7 2.5 21t6.5 34l79 451h127l-3 -46q45 29 90 42.5t84 13.5q72 0 109.5 -38.5t37.5 -102.5q0 -15 -2 -33.5t-7 -44.5l-51 -291q-3 -17 -21 -24t-56 -7 q-30 0 -46.5 6t-16.5 19q0 7 2.5 21t6.5 34zM180 639q-18 18 -18 31q0 8 9 21q29 42 63 69t71 27q22 0 40.5 -9t35 -19.5t32 -19t32.5 -8.5q23 0 39 16t32 37l68 -49q-27 -52 -62 -85t-79 -33q-23 0 -42 8.5t-35.5 19t-31.5 19t-31 8.5q-18 0 -32 -11.5t-30 -28.5 q-13 -14 -23 -14q-17 0 -38 21z" />
<glyph unicode="&#xf2;" horiz-adv-x="603" d="M257 -10q-54 0 -97 13.5t-73.5 41t-47 69.5t-16.5 99q0 70 20.5 129t59 102t94 67.5t126.5 24.5q50 0 92 -13.5t72 -41t46.5 -69t16.5 -97.5q0 -73 -20 -133t-58 -102.5t-92.5 -66t-122.5 -23.5zM313 430q-38 0 -66 -19t-46 -49.5t-26.5 -69t-8.5 -76.5q0 -58 24 -89 t76 -31q36 0 62.5 18.5t44 48.5t26 68.5t8.5 78.5q0 58 -23.5 89t-70.5 31zM457 689q6 -5 9.5 -9t3.5 -11q0 -6 -4 -16t-16 -27q-14 -19 -22.5 -25.5t-16.5 -6.5q-9 0 -26 10l-198 117l73 110z" />
<glyph unicode="&#xf3;" horiz-adv-x="603" d="M257 -10q-54 0 -97 13.5t-73.5 41t-47 69.5t-16.5 99q0 70 20.5 129t59 102t94 67.5t126.5 24.5q50 0 92 -13.5t72 -41t46.5 -69t16.5 -97.5q0 -73 -20 -133t-58 -102.5t-92.5 -66t-122.5 -23.5zM313 430q-38 0 -66 -19t-46 -49.5t-26.5 -69t-8.5 -76.5q0 -58 24 -89 t76 -31q36 0 62.5 18.5t44 48.5t26 68.5t8.5 78.5q0 58 -23.5 89t-70.5 31zM494 831l62 -110l-224 -119q-14 -8 -24 -8q-11 0 -20 9.5t-18 25.5t-11.5 24.5t-2.5 13.5q0 9 5.5 14.5t14.5 11.5z" />
<glyph unicode="&#xf4;" horiz-adv-x="603" d="M257 -10q-54 0 -97 13.5t-73.5 41t-47 69.5t-16.5 99q0 70 20.5 129t59 102t94 67.5t126.5 24.5q50 0 92 -13.5t72 -41t46.5 -69t16.5 -97.5q0 -73 -20 -133t-58 -102.5t-92.5 -66t-122.5 -23.5zM313 430q-38 0 -66 -19t-46 -49.5t-26.5 -69t-8.5 -76.5q0 -58 24 -89 t76 -31q36 0 62.5 18.5t44 48.5t26 68.5t8.5 78.5q0 58 -23.5 89t-70.5 31zM397 819q26 0 37 -16l94 -130q4 -5 5 -8.5t1 -6.5q0 -8 -6.5 -17t-21.5 -21q-24 -20 -40 -20q-10 0 -19 10l-79 90h-10l-108 -86q-8 -7 -14 -10.5t-13 -3.5q-8 0 -15 5.5t-22 23.5q-18 22 -18 33 q0 9 12 20l131 122q9 8 18 11.5t23 3.5h45z" />
<glyph unicode="&#xf5;" horiz-adv-x="603" d="M257 -10q-54 0 -97 13.5t-73.5 41t-47 69.5t-16.5 99q0 70 20.5 129t59 102t94 67.5t126.5 24.5q50 0 92 -13.5t72 -41t46.5 -69t16.5 -97.5q0 -73 -20 -133t-58 -102.5t-92.5 -66t-122.5 -23.5zM313 430q-38 0 -66 -19t-46 -49.5t-26.5 -69t-8.5 -76.5q0 -58 24 -89 t76 -31q36 0 62.5 18.5t44 48.5t26 68.5t8.5 78.5q0 58 -23.5 89t-70.5 31zM168 639q-18 18 -18 31q0 8 9 21q29 42 63 69t71 27q22 0 40.5 -9t35 -19.5t32 -19t32.5 -8.5q23 0 39 16t32 37l68 -49q-27 -52 -62 -85t-79 -33q-23 0 -42 8.5t-35.5 19t-31.5 19t-31 8.5 q-18 0 -32 -11.5t-30 -28.5q-13 -14 -23 -14q-17 0 -38 21z" />
<glyph unicode="&#xf6;" horiz-adv-x="603" d="M257 -10q-54 0 -97 13.5t-73.5 41t-47 69.5t-16.5 99q0 70 20.5 129t59 102t94 67.5t126.5 24.5q50 0 92 -13.5t72 -41t46.5 -69t16.5 -97.5q0 -73 -20 -133t-58 -102.5t-92.5 -66t-122.5 -23.5zM313 430q-38 0 -66 -19t-46 -49.5t-26.5 -69t-8.5 -76.5q0 -58 24 -89 t76 -31q36 0 62.5 18.5t44 48.5t26 68.5t8.5 78.5q0 58 -23.5 89t-70.5 31zM250 610q-34 0 -51 18t-17 47q0 39 24.5 68t72.5 29q34 0 51.5 -17.5t17.5 -46.5q0 -39 -25 -68.5t-73 -29.5zM459 610q-34 0 -51 18t-17 47q0 39 24.5 68t72.5 29q34 0 51.5 -17.5t17.5 -46.5 q0 -39 -25 -68.5t-73 -29.5z" />
<glyph unicode="&#xf7;" horiz-adv-x="534" d="M472 315l-19 -110h-409q-14 0 -14 24q0 11 3 31q5 35 13.5 45t16.5 10h409zM206 28q-30 0 -45 15t-15 40q0 34 22 59t64 25q30 0 45.5 -15t15.5 -41q0 -33 -22.5 -58t-64.5 -25zM263 353q-30 0 -45 15t-15 40q0 34 22 59t64 25q30 0 45.5 -15t15.5 -41q0 -33 -22.5 -58 t-64.5 -25z" />
<glyph unicode="&#xf8;" horiz-adv-x="604" d="M258 -10q-71 0 -126 25l-51 -58q-6 -6 -14 -6q-13 0 -39 22q-17 13 -22.5 23t-4.5 16q0 5 5 10l51 58q-33 53 -33 133q0 70 20.5 129t59 102t94 67.5t126.5 24.5q69 0 119 -25l60 68l76 -63l-62 -70q17 -26 25.5 -58t8.5 -73q0 -73 -20 -133t-58 -102.5t-92.5 -66 t-122.5 -23.5zM408 324l-193 -217q22 -11 52 -11q36 0 62.5 18.5t44 48.5t26 68.5t8.5 78.5v14zM314 430q-38 0 -66 -19t-46 -49.5t-26.5 -69t-8.5 -76.5v-13l193 216q-20 11 -46 11z" />
<glyph unicode="&#xf9;" horiz-adv-x="572" d="M545 526l-64 -364q-8 -41 -12.5 -77.5t-7.5 -62.5q-2 -12 -16.5 -18.5t-50.5 -6.5q-19 0 -30 1t-17 5t-8 11t-3 18q-1 7 -1 17v20q-35 -38 -80.5 -58.5t-90.5 -20.5q-32 0 -61 10t-49 32q-16 17 -25 41t-9 54t6 65l59 334h140l-57 -323q-2 -12 -3.5 -24.5t-1.5 -21.5 q0 -32 18 -45t45 -13q29 0 60.5 16.5t54.5 45.5l64 365h140zM412 689q6 -5 9.5 -9t3.5 -11q0 -6 -4 -16t-16 -27q-14 -19 -22.5 -25.5t-16.5 -6.5q-9 0 -26 10l-198 117l73 110z" />
<glyph unicode="&#xfa;" horiz-adv-x="572" d="M545 526l-64 -364q-8 -41 -12.5 -77.5t-7.5 -62.5q-2 -12 -16.5 -18.5t-50.5 -6.5q-19 0 -30 1t-17 5t-8 11t-3 18q-1 7 -1 17v20q-35 -38 -80.5 -58.5t-90.5 -20.5q-32 0 -61 10t-49 32q-16 17 -25 41t-9 54t6 65l59 334h140l-57 -323q-2 -12 -3.5 -24.5t-1.5 -21.5 q0 -32 18 -45t45 -13q29 0 60.5 16.5t54.5 45.5l64 365h140zM466 831l62 -110l-224 -119q-14 -8 -24 -8q-11 0 -20 9.5t-18 25.5t-11.5 24.5t-2.5 13.5q0 9 5.5 14.5t14.5 11.5z" />
<glyph unicode="&#xfb;" horiz-adv-x="572" d="M545 526l-64 -364q-8 -41 -12.5 -77.5t-7.5 -62.5q-2 -12 -16.5 -18.5t-50.5 -6.5q-19 0 -30 1t-17 5t-8 11t-3 18q-1 7 -1 17v20q-35 -38 -80.5 -58.5t-90.5 -20.5q-32 0 -61 10t-49 32q-16 17 -25 41t-9 54t6 65l59 334h140l-57 -323q-2 -12 -3.5 -24.5t-1.5 -21.5 q0 -32 18 -45t45 -13q29 0 60.5 16.5t54.5 45.5l64 365h140zM385 819q26 0 37 -16l94 -130q4 -5 5 -8.5t1 -6.5q0 -8 -6.5 -17t-21.5 -21q-24 -20 -40 -20q-10 0 -19 10l-79 90h-10l-108 -86q-8 -7 -14 -10.5t-13 -3.5q-8 0 -15 5.5t-22 23.5q-18 22 -18 33q0 9 12 20 l131 122q9 8 18 11.5t23 3.5h45z" />
<glyph unicode="&#xfc;" horiz-adv-x="572" d="M545 526l-64 -364q-8 -41 -12.5 -77.5t-7.5 -62.5q-2 -12 -16.5 -18.5t-50.5 -6.5q-19 0 -30 1t-17 5t-8 11t-3 18q-1 7 -1 17v20q-35 -38 -80.5 -58.5t-90.5 -20.5q-32 0 -61 10t-49 32q-16 17 -25 41t-9 54t6 65l59 334h140l-57 -323q-2 -12 -3.5 -24.5t-1.5 -21.5 q0 -32 18 -45t45 -13q29 0 60.5 16.5t54.5 45.5l64 365h140zM225 610q-34 0 -51 18t-17 47q0 39 24.5 68t72.5 29q34 0 51.5 -17.5t17.5 -46.5q0 -39 -25 -68.5t-73 -29.5zM434 610q-34 0 -51 18t-17 47q0 39 24.5 68t72.5 29q34 0 51.5 -17.5t17.5 -46.5q0 -39 -25 -68.5 t-73 -29.5z" />
<glyph unicode="&#xfd;" horiz-adv-x="530" d="M549 526q-83 -180 -173.5 -360.5t-192.5 -369.5q-8 -15 -26 -20.5t-58 -5.5q-62 0 -62 20q0 9 9 23q22 38 49.5 86.5t56.5 100.5q-22 0 -34 5.5t-16 24.5q-11 55 -22.5 117t-22 126t-20.5 128.5t-18 124.5h143q4 -46 9.5 -98t12.5 -104.5t14 -103t14 -92.5h7q22 45 45 95 t46 101.5t45.5 102.5t42.5 99h151zM430 831l62 -110l-224 -119q-14 -8 -24 -8q-11 0 -20 9.5t-18 25.5t-11.5 24.5t-2.5 13.5q0 9 5.5 14.5t14.5 11.5z" />
<glyph unicode="&#xfe;" horiz-adv-x="597" d="M159 115q36 -15 75 -15q65 0 110 45q26 26 42 68t16 103q0 60 -25 85.5t-77 25.5q-43 0 -89 -15zM129 733h139l-39 -218q25 10 54.5 15t59.5 5q43 0 81.5 -15.5t67.5 -45.5q26 -28 39.5 -68.5t13.5 -87.5q0 -73 -25 -137.5t-73 -111.5q-42 -41 -92.5 -60t-105.5 -19 q-27 0 -56 7t-52 18l-37 -214q-3 -17 -21 -24t-56 -7q-30 0 -46.5 6t-16.5 19q0 7 2.5 21t6.5 34z" />
<glyph unicode="&#xff;" horiz-adv-x="530" d="M549 526q-83 -180 -173.5 -360.5t-192.5 -369.5q-8 -15 -26 -20.5t-58 -5.5q-62 0 -62 20q0 9 9 23q22 38 49.5 86.5t56.5 100.5q-22 0 -34 5.5t-16 24.5q-11 55 -22.5 117t-22 126t-20.5 128.5t-18 124.5h143q4 -46 9.5 -98t12.5 -104.5t14 -103t14 -92.5h7q22 45 45 95 t46 101.5t45.5 102.5t42.5 99h151zM182 610q-34 0 -51 18t-17 47q0 39 24.5 68t72.5 29q34 0 51.5 -17.5t17.5 -46.5q0 -39 -25 -68.5t-73 -29.5zM391 610q-34 0 -51 18t-17 47q0 39 24.5 68t72.5 29q34 0 51.5 -17.5t17.5 -46.5q0 -39 -25 -68.5t-73 -29.5z" />
<glyph unicode="&#x100;" horiz-adv-x="694" d="M385 576q-39 -82 -75.5 -161t-68.5 -154h189q-5 70 -12.5 150t-16.5 165h-16zM527 665q19 -134 36.5 -277t34.5 -286q2 -18 5 -41t3 -33q0 -17 -17 -24t-63 -7q-40 0 -55.5 6.5t-17.5 23.5l-13 121h-249q-14 -32 -30 -66t-27 -59q-8 -16 -28 -21t-62 -5q-43 0 -56.5 4.5 t-13.5 17.5q0 8 7 24q72 155 149 314t152 308q6 12 14.5 18t22.5 6h177q15 0 22 -5t9 -19zM587 785h-301q-10 0 -14.5 5t-4.5 20q0 11 3 31q5 32 13.5 43t18.5 11h304z" />
<glyph unicode="&#x101;" horiz-adv-x="594" d="M502 159q-8 -41 -12.5 -76t-7.5 -61q-2 -12 -16.5 -18.5t-50.5 -6.5q-19 0 -30.5 1t-17.5 4.5t-8 11t-2 21.5l-1 32q-69 -77 -158 -77q-43 0 -75.5 14t-54.5 39.5t-33.5 60.5t-11.5 77q0 75 23.5 140t68 112.5t109 75t147.5 27.5q57 0 109 -8t84 -18zM166 195 q0 -55 19.5 -77t51.5 -22q31 0 64 19.5t62 51.5l46 257q-13 4 -29 6t-31 2q-38 0 -71 -16t-58 -46.5t-39.5 -74.5t-14.5 -100zM547 625h-301q-10 0 -14.5 5t-4.5 20q0 11 3 31q5 32 13.5 43t18.5 11h304z" />
<glyph unicode="&#x102;" horiz-adv-x="694" d="M385 576q-39 -82 -75.5 -161t-68.5 -154h189q-5 70 -12.5 150t-16.5 165h-16zM527 665q19 -134 36.5 -277t34.5 -286q2 -18 5 -41t3 -33q0 -17 -17 -24t-63 -7q-40 0 -55.5 6.5t-17.5 23.5l-13 121h-249q-14 -32 -30 -66t-27 -59q-8 -16 -28 -21t-62 -5q-43 0 -56.5 4.5 t-13.5 17.5q0 8 7 24q72 155 149 314t152 308q6 12 14.5 18t22.5 6h177q15 0 22 -5t9 -19zM422 746q-33 0 -61 9t-48.5 28.5t-32 48.5t-11.5 70q0 10 0.5 19t1.5 18h111q-3 -15 -3 -31q0 -27 11.5 -43.5t38.5 -16.5q35 0 58.5 26t31.5 65h111q-5 -38 -21 -72.5t-42 -61.5 t-62.5 -43t-82.5 -16z" />
<glyph unicode="&#x103;" horiz-adv-x="594" d="M502 159q-8 -41 -12.5 -76t-7.5 -61q-2 -12 -16.5 -18.5t-50.5 -6.5q-19 0 -30.5 1t-17.5 4.5t-8 11t-2 21.5l-1 32q-69 -77 -158 -77q-43 0 -75.5 14t-54.5 39.5t-33.5 60.5t-11.5 77q0 75 23.5 140t68 112.5t109 75t147.5 27.5q57 0 109 -8t84 -18zM166 195 q0 -55 19.5 -77t51.5 -22q31 0 64 19.5t62 51.5l46 257q-13 4 -29 6t-31 2q-38 0 -71 -16t-58 -46.5t-39.5 -74.5t-14.5 -100zM387 586q-33 0 -61 9t-48.5 28.5t-32 48.5t-11.5 70q0 10 0.5 19t1.5 18h111q-3 -15 -3 -31q0 -27 11.5 -43.5t38.5 -16.5q35 0 58.5 26t31.5 65 h111q-5 -38 -21 -72.5t-42 -61.5t-62.5 -43t-82.5 -16z" />
<glyph unicode="&#x104;" horiz-adv-x="694" d="M350 -126q0 44 27.5 81t75.5 66l-13 127h-249l-57 -125q-8 -16 -28 -21t-62 -5q-43 0 -56.5 4.5t-13.5 17.5q0 8 7 24q72 155 149 314t152 308q6 12 14.5 18t22.5 6h177q15 0 22 -5t9 -19q19 -134 36.5 -277t34.5 -286q2 -18 5 -41t3 -33q0 -17 -20 -25q-24 -9 -44 -22.5 t-34.5 -28t-22.5 -29t-8 -25.5q0 -23 28 -23q9 0 20.5 2t20.5 5q8 3 14 5.5t11 2.5q4 0 8 -2t6 -10q4 -11 6 -27t2 -24q0 -11 -3.5 -16t-10.5 -8q-18 -9 -47.5 -15t-58.5 -6q-24 0 -46 5t-39 15.5t-27.5 28t-10.5 43.5zM385 576q-39 -82 -75.5 -161t-68.5 -154h189 q-5 70 -12.5 150t-16.5 165h-16z" />
<glyph unicode="&#x105;" horiz-adv-x="594" d="M482 22q-2 -11 -8 -14q-60 -27 -85.5 -52.5t-25.5 -54.5q0 -26 28 -26q9 0 20.5 2t20.5 5q8 3 14 5.5t11 2.5q4 0 8 -2t6 -10q4 -11 6 -27t2 -24q0 -11 -3.5 -16t-10.5 -8q-18 -9 -47.5 -15t-58.5 -6q-24 0 -46 5t-39 15.5t-27.5 28t-10.5 43.5q0 48 33 81.5t91 59.5 q-2 11 -3 23t-1 29q-69 -77 -158 -77q-43 0 -75.5 14t-54.5 39.5t-33.5 60.5t-11.5 77q0 75 23.5 140t68 112.5t109 75t147.5 27.5q57 0 109 -8t84 -18l-62 -351q-15 -83 -20 -137zM166 195q0 -55 19.5 -77t51.5 -22q31 0 64 19.5t62 51.5l46 257q-13 4 -29 6t-31 2 q-38 0 -71 -16t-58 -46.5t-39.5 -74.5t-14.5 -100z" />
<glyph unicode="&#x106;" horiz-adv-x="601" d="M519 86q0 -11 -1.5 -24.5t-3.5 -24.5q-5 -23 -24 -28q-29 -8 -70 -13.5t-86 -5.5q-68 0 -123 15.5t-93.5 50t-59 89t-20.5 131.5q0 95 27 172.5t81 134.5q52 54 127 85t166 31q44 0 88 -5.5t84 -13.5l-28 -120q-38 8 -71.5 12t-62.5 4q-117 0 -181 -63 q-36 -35 -59.5 -95.5t-23.5 -131.5q0 -173 169 -173q26 0 57 3.5t56 8.5q12 2 20 3.5t13 1.5q10 0 14.5 -9.5t4.5 -34.5zM554 991l62 -110l-224 -119q-14 -8 -24 -8q-11 0 -20 9.5t-18 25.5t-11.5 24.5t-2.5 13.5q0 9 5.5 14.5t14.5 11.5z" />
<glyph unicode="&#x107;" horiz-adv-x="495" d="M267 -10q-118 0 -181 51.5t-63 169.5q0 75 21.5 135.5t62 102.5t98.5 64.5t130 22.5q44 0 83.5 -6t74.5 -15l-30 -108q-66 18 -119 18q-48 0 -81.5 -16.5t-55 -44.5t-31.5 -65.5t-10 -79.5q0 -61 30 -89.5t90 -28.5q22 0 45.5 2.5t51.5 7.5q5 1 10 1.5t10 0.5 q7 0 10 -4.5t3 -16.5q0 -10 -2 -28.5t-4 -32.5q-3 -14 -9.5 -19t-17.5 -8q-25 -7 -57.5 -10.5t-58.5 -3.5zM483 831l62 -110l-224 -119q-14 -8 -24 -8q-11 0 -20 9.5t-18 25.5t-11.5 24.5t-2.5 13.5q0 9 5.5 14.5t14.5 11.5z" />
<glyph unicode="&#x108;" horiz-adv-x="601" d="M519 86q0 -11 -1.5 -24.5t-3.5 -24.5q-5 -23 -24 -28q-29 -8 -70 -13.5t-86 -5.5q-68 0 -123 15.5t-93.5 50t-59 89t-20.5 131.5q0 95 27 172.5t81 134.5q52 54 127 85t166 31q44 0 88 -5.5t84 -13.5l-28 -120q-38 8 -71.5 12t-62.5 4q-117 0 -181 -63 q-36 -35 -59.5 -95.5t-23.5 -131.5q0 -173 169 -173q26 0 57 3.5t56 8.5q12 2 20 3.5t13 1.5q10 0 14.5 -9.5t4.5 -34.5zM504 979q26 0 37 -16l94 -130q4 -5 5 -8.5t1 -6.5q0 -8 -6.5 -17t-21.5 -21q-24 -20 -40 -20q-10 0 -19 10l-79 90h-10l-108 -86q-8 -7 -14 -10.5 t-13 -3.5q-8 0 -15 5.5t-22 23.5q-18 22 -18 33q0 9 12 20l131 122q9 8 18 11.5t23 3.5h45z" />
<glyph unicode="&#x109;" horiz-adv-x="495" d="M267 -10q-118 0 -181 51.5t-63 169.5q0 75 21.5 135.5t62 102.5t98.5 64.5t130 22.5q44 0 83.5 -6t74.5 -15l-30 -108q-66 18 -119 18q-48 0 -81.5 -16.5t-55 -44.5t-31.5 -65.5t-10 -79.5q0 -61 30 -89.5t90 -28.5q22 0 45.5 2.5t51.5 7.5q5 1 10 1.5t10 0.5 q7 0 10 -4.5t3 -16.5q0 -10 -2 -28.5t-4 -32.5q-3 -14 -9.5 -19t-17.5 -8q-25 -7 -57.5 -10.5t-58.5 -3.5zM397 819q26 0 37 -16l94 -130q4 -5 5 -8.5t1 -6.5q0 -8 -6.5 -17t-21.5 -21q-24 -20 -40 -20q-10 0 -19 10l-79 90h-10l-108 -86q-8 -7 -14 -10.5t-13 -3.5 q-8 0 -15 5.5t-22 23.5q-18 22 -18 33q0 9 12 20l131 122q9 8 18 11.5t23 3.5h45z" />
<glyph unicode="&#x10a;" horiz-adv-x="601" d="M519 86q0 -11 -1.5 -24.5t-3.5 -24.5q-5 -23 -24 -28q-29 -8 -70 -13.5t-86 -5.5q-68 0 -123 15.5t-93.5 50t-59 89t-20.5 131.5q0 95 27 172.5t81 134.5q52 54 127 85t166 31q44 0 88 -5.5t84 -13.5l-28 -120q-38 8 -71.5 12t-62.5 4q-117 0 -181 -63 q-36 -35 -59.5 -95.5t-23.5 -131.5q0 -173 169 -173q26 0 57 3.5t56 8.5q12 2 20 3.5t13 1.5q10 0 14.5 -9.5t4.5 -34.5zM478 949q35 0 53 -19.5t18 -52.5q0 -21 -7.5 -41t-21 -35.5t-33 -25t-43.5 -9.5q-35 0 -53 19.5t-18 52.5q0 21 7.5 41t21 35.5t33 25t43.5 9.5z" />
<glyph unicode="&#x10b;" horiz-adv-x="495" d="M267 -10q-118 0 -181 51.5t-63 169.5q0 75 21.5 135.5t62 102.5t98.5 64.5t130 22.5q44 0 83.5 -6t74.5 -15l-30 -108q-66 18 -119 18q-48 0 -81.5 -16.5t-55 -44.5t-31.5 -65.5t-10 -79.5q0 -61 30 -89.5t90 -28.5q22 0 45.5 2.5t51.5 7.5q5 1 10 1.5t10 0.5 q7 0 10 -4.5t3 -16.5q0 -10 -2 -28.5t-4 -32.5q-3 -14 -9.5 -19t-17.5 -8q-25 -7 -57.5 -10.5t-58.5 -3.5zM369 789q35 0 53 -19.5t18 -52.5q0 -21 -7.5 -41t-21 -35.5t-33 -25t-43.5 -9.5q-35 0 -53 19.5t-18 52.5q0 21 7.5 41t21 35.5t33 25t43.5 9.5z" />
<glyph unicode="&#x10c;" horiz-adv-x="601" d="M519 86q0 -11 -1.5 -24.5t-3.5 -24.5q-5 -23 -24 -28q-29 -8 -70 -13.5t-86 -5.5q-68 0 -123 15.5t-93.5 50t-59 89t-20.5 131.5q0 95 27 172.5t81 134.5q52 54 127 85t166 31q44 0 88 -5.5t84 -13.5l-28 -120q-38 8 -71.5 12t-62.5 4q-117 0 -181 -63 q-36 -35 -59.5 -95.5t-23.5 -131.5q0 -173 169 -173q26 0 57 3.5t56 8.5q12 2 20 3.5t13 1.5q10 0 14.5 -9.5t4.5 -34.5zM447 760q-26 0 -40 4.5t-28 23.5l-102 140l77 64l99 -113h10l147 117l61 -71l-150 -140q-15 -14 -33 -19.5t-41 -5.5z" />
<glyph unicode="&#x10d;" horiz-adv-x="495" d="M267 -10q-118 0 -181 51.5t-63 169.5q0 75 21.5 135.5t62 102.5t98.5 64.5t130 22.5q44 0 83.5 -6t74.5 -15l-30 -108q-66 18 -119 18q-48 0 -81.5 -16.5t-55 -44.5t-31.5 -65.5t-10 -79.5q0 -61 30 -89.5t90 -28.5q22 0 45.5 2.5t51.5 7.5q5 1 10 1.5t10 0.5 q7 0 10 -4.5t3 -16.5q0 -10 -2 -28.5t-4 -32.5q-3 -14 -9.5 -19t-17.5 -8q-25 -7 -57.5 -10.5t-58.5 -3.5zM346 600q-26 0 -40 4.5t-28 23.5l-102 140l77 64l99 -113h10l147 117l61 -71l-150 -140q-15 -14 -33 -19.5t-41 -5.5z" />
<glyph unicode="&#x10e;" horiz-adv-x="703" d="M387 689q71 0 124.5 -15.5t88.5 -52.5q29 -30 45.5 -76t16.5 -112q0 -35 -5 -78t-18 -88t-36 -89t-58 -80q-44 -45 -111 -71.5t-161 -26.5h-240q-16 0 -22 4.5t-6 15.5q0 6 1.5 14.5l4.5 25.5l111 629h265zM245 573l-81 -457h109q54 0 92.5 16.5t66.5 44.5q24 25 40 56 t25.5 64t13.5 65.5t4 61.5q0 77 -33 113q-35 36 -118 36h-119zM364 760q-26 0 -40 4.5t-28 23.5l-102 140l77 64l99 -113h10l147 117l61 -71l-150 -140q-15 -14 -33 -19.5t-41 -5.5z" />
<glyph unicode="&#x10f;" horiz-adv-x="732" d="M482 43q-3 -16 -9 -22t-17 -9q-15 -5 -36 -9t-45.5 -7t-50.5 -4.5t-50 -1.5q-50 0 -95.5 10.5t-80 36t-55 68t-20.5 107.5q0 62 19 120.5t55.5 103.5t90.5 72.5t125 27.5q31 0 62 -6.5t51 -14.5l38 219h140zM408 416q-37 13 -78 13t-72 -16t-51.5 -44t-30.5 -66.5 t-10 -83.5q0 -122 117 -122q34 0 70 6zM740 528q-5 -16 -18 -22.5t-47 -6.5q-23 0 -35.5 4t-12.5 18q0 7 2.5 18t7.5 27l45 168h132z" />
<glyph unicode="&#x110;" horiz-adv-x="741" d="M428 689q71 0 124.5 -15.5t88.5 -52.5q29 -30 45.5 -76t16.5 -112q0 -35 -5 -78t-18 -88t-36 -89t-58 -80q-44 -45 -111 -71.5t-161 -26.5h-240q-16 0 -22 4.5t-6 15.5q0 6 1.5 14.5l4.5 25.5l42 242h-63q-8 0 -11.5 5t-3.5 19t3 35q6 35 14 46t20 11h62l48 271h265z M286 573l-28 -155h182l-21 -116h-181l-33 -186h109q54 0 92.5 16.5t66.5 44.5q24 25 40 56t25.5 64t13.5 65.5t4 61.5q0 77 -33 113q-35 36 -118 36h-119z" />
<glyph unicode="&#x111;" horiz-adv-x="595" d="M595 683h70l-19 -108h-70l-94 -532q-3 -16 -9 -22t-17 -9q-15 -5 -36 -9t-45.5 -7t-50.5 -4.5t-50 -1.5q-50 0 -95.5 10.5t-80 36t-55 68t-20.5 107.5q0 62 19 120.5t55.5 103.5t90.5 72.5t125 27.5q31 0 62 -6.5t51 -14.5l10 60h-90q-9 0 -12 6t-3 16q0 6 1 15.5t3 20.5 q7 35 16 42.5t16 7.5h88l9 51h140zM408 416q-37 13 -78 13t-72 -16t-51.5 -44t-30.5 -66.5t-10 -83.5q0 -122 117 -122q34 0 70 6z" />
<glyph unicode="&#x112;" horiz-adv-x="569" d="M244 573l-29 -165h269l-20 -113h-269l-32 -179h322l-21 -116h-432q-16 0 -21.5 5t-5.5 16q0 14 11 72l105 596h459l-21 -116h-315zM525 785h-301q-10 0 -14.5 5t-4.5 20q0 11 3 31q5 32 13.5 43t18.5 11h304z" />
<glyph unicode="&#x113;" d="M164 218v-21q0 -57 32 -77.5t92 -20.5q28 0 53.5 2.5t36.5 4.5t26 4.5t21 2.5t9.5 -4.5t3.5 -16.5q0 -5 -1.5 -21.5t-4.5 -31.5q-4 -19 -11.5 -26t-21.5 -10q-23 -5 -57.5 -9t-76.5 -4q-117 0 -179.5 51.5t-62.5 168.5q0 64 18.5 123t54.5 104t90.5 72t126.5 27 q44 0 82 -11t65.5 -33.5t43.5 -57t16 -80.5q0 -28 -6 -64.5t-20 -71.5h-330zM302 435q-48 0 -80 -31.5t-42 -85.5h193q5 20 5 43q0 20 -5 32.5t-13 21.5q-18 20 -58 20zM500 625h-301q-10 0 -14.5 5t-4.5 20q0 11 3 31q5 32 13.5 43t18.5 11h304z" />
<glyph unicode="&#x114;" horiz-adv-x="569" d="M244 573l-29 -165h269l-20 -113h-269l-32 -179h322l-21 -116h-432q-16 0 -21.5 5t-5.5 16q0 14 11 72l105 596h459l-21 -116h-315zM369 746q-33 0 -61 9t-48.5 28.5t-32 48.5t-11.5 70q0 10 0.5 19t1.5 18h111q-3 -15 -3 -31q0 -27 11.5 -43.5t38.5 -16.5q35 0 58.5 26 t31.5 65h111q-5 -38 -21 -72.5t-42 -61.5t-62.5 -43t-82.5 -16z" />
<glyph unicode="&#x115;" d="M164 218v-21q0 -57 32 -77.5t92 -20.5q28 0 53.5 2.5t36.5 4.5t26 4.5t21 2.5t9.5 -4.5t3.5 -16.5q0 -5 -1.5 -21.5t-4.5 -31.5q-4 -19 -11.5 -26t-21.5 -10q-23 -5 -57.5 -9t-76.5 -4q-117 0 -179.5 51.5t-62.5 168.5q0 64 18.5 123t54.5 104t90.5 72t126.5 27 q44 0 82 -11t65.5 -33.5t43.5 -57t16 -80.5q0 -28 -6 -64.5t-20 -71.5h-330zM302 435q-48 0 -80 -31.5t-42 -85.5h193q5 20 5 43q0 20 -5 32.5t-13 21.5q-18 20 -58 20zM347 586q-33 0 -61 9t-48.5 28.5t-32 48.5t-11.5 70q0 10 0.5 19t1.5 18h111q-3 -15 -3 -31 q0 -27 11.5 -43.5t38.5 -16.5q35 0 58.5 26t31.5 65h111q-5 -38 -21 -72.5t-42 -61.5t-62.5 -43t-82.5 -16z" />
<glyph unicode="&#x116;" horiz-adv-x="569" d="M244 573l-29 -165h269l-20 -113h-269l-32 -179h322l-21 -116h-432q-16 0 -21.5 5t-5.5 16q0 14 11 72l105 596h459l-21 -116h-315zM397 949q35 0 53 -19.5t18 -52.5q0 -21 -7.5 -41t-21 -35.5t-33 -25t-43.5 -9.5q-35 0 -53 19.5t-18 52.5q0 21 7.5 41t21 35.5t33 25 t43.5 9.5z" />
<glyph unicode="&#x117;" d="M164 218v-21q0 -57 32 -77.5t92 -20.5q28 0 53.5 2.5t36.5 4.5t26 4.5t21 2.5t9.5 -4.5t3.5 -16.5q0 -5 -1.5 -21.5t-4.5 -31.5q-4 -19 -11.5 -26t-21.5 -10q-23 -5 -57.5 -9t-76.5 -4q-117 0 -179.5 51.5t-62.5 168.5q0 64 18.5 123t54.5 104t90.5 72t126.5 27 q44 0 82 -11t65.5 -33.5t43.5 -57t16 -80.5q0 -28 -6 -64.5t-20 -71.5h-330zM302 435q-48 0 -80 -31.5t-42 -85.5h193q5 20 5 43q0 20 -5 32.5t-13 21.5q-18 20 -58 20zM364 789q35 0 53 -19.5t18 -52.5q0 -21 -7.5 -41t-21 -35.5t-33 -25t-43.5 -9.5q-35 0 -53 19.5 t-18 52.5q0 21 7.5 41t21 35.5t33 25t43.5 9.5z" />
<glyph unicode="&#x118;" horiz-adv-x="569" d="M244 573l-29 -165h269l-20 -113h-269l-32 -179h322l-21 -116q-29 -5 -52 -15.5t-38.5 -24t-24 -29t-8.5 -30.5q0 -26 28 -26q9 0 20.5 2t20.5 5q8 3 14 5.5t11 2.5q4 0 8 -2t6 -10q4 -11 6 -27t2 -24q0 -11 -3.5 -16t-10.5 -8q-18 -9 -47.5 -15t-58.5 -6q-25 0 -47 5 t-38.5 16t-26.5 28.5t-10 43.5q0 42 27.5 74t75.5 51h-286q-16 0 -21.5 5t-5.5 16q0 14 11 72l105 596h459l-21 -116h-315z" />
<glyph unicode="&#x119;" d="M164 218v-21q0 -57 32 -77.5t92 -20.5q28 0 53.5 2.5t36.5 4.5t26 4.5t21 2.5t9.5 -4.5t3.5 -16.5q0 -5 -1.5 -21.5t-4.5 -31.5q-4 -19 -11.5 -26t-21.5 -10q-51 -13 -77 -41t-26 -57q0 -17 8 -23.5t22 -6.5q11 0 21.5 2t18.5 4t15.5 4.5t11.5 2.5t7.5 -1.5t5.5 -8.5 q4 -11 6 -27t2 -24q0 -11 -3.5 -16t-10.5 -8q-18 -9 -47.5 -15t-58.5 -6q-24 0 -46 5t-39 15.5t-27.5 28t-10.5 43.5q0 35 21.5 66.5t55.5 49.5q-109 3 -167 55t-58 165q0 64 18.5 123t54.5 104t90.5 72t126.5 27q44 0 82 -11t65.5 -33.5t43.5 -57t16 -80.5q0 -28 -6 -64.5 t-20 -71.5h-330zM302 435q-48 0 -80 -31.5t-42 -85.5h193q5 20 5 43q0 20 -5 32.5t-13 21.5q-18 20 -58 20z" />
<glyph unicode="&#x11a;" horiz-adv-x="569" d="M244 573l-29 -165h269l-20 -113h-269l-32 -179h322l-21 -116h-432q-16 0 -21.5 5t-5.5 16q0 14 11 72l105 596h459l-21 -116h-315zM363 760q-26 0 -40 4.5t-28 23.5l-102 140l77 64l99 -113h10l147 117l61 -71l-150 -140q-15 -14 -33 -19.5t-41 -5.5z" />
<glyph unicode="&#x11b;" d="M164 218v-21q0 -57 32 -77.5t92 -20.5q28 0 53.5 2.5t36.5 4.5t26 4.5t21 2.5t9.5 -4.5t3.5 -16.5q0 -5 -1.5 -21.5t-4.5 -31.5q-4 -19 -11.5 -26t-21.5 -10q-23 -5 -57.5 -9t-76.5 -4q-117 0 -179.5 51.5t-62.5 168.5q0 64 18.5 123t54.5 104t90.5 72t126.5 27 q44 0 82 -11t65.5 -33.5t43.5 -57t16 -80.5q0 -28 -6 -64.5t-20 -71.5h-330zM302 435q-48 0 -80 -31.5t-42 -85.5h193q5 20 5 43q0 20 -5 32.5t-13 21.5q-18 20 -58 20zM346 600q-26 0 -40 4.5t-28 23.5l-102 140l77 64l99 -113h10l147 117l61 -71l-150 -140 q-15 -14 -33 -19.5t-41 -5.5z" />
<glyph unicode="&#x11c;" horiz-adv-x="691" d="M575 51q-3 -18 -10.5 -25.5t-21.5 -11.5q-92 -24 -184 -24q-155 0 -238 70t-83 215q0 96 26 174t78.5 133.5t133 86t188.5 30.5q40 0 90 -6t105 -19l-26 -116q-40 9 -81.5 14t-75.5 5q-75 0 -129 -18.5t-92 -57.5q-33 -35 -51.5 -85.5t-18.5 -125.5q0 -95 46 -136.5 t137 -41.5q20 0 40.5 2t43.5 6l24 140h-129l22 126h238q23 0 23 -18q0 -7 -2 -19.5t-6 -32.5zM492 979q26 0 37 -16l94 -130q4 -5 5 -8.5t1 -6.5q0 -8 -6.5 -17t-21.5 -21q-24 -20 -40 -20q-10 0 -19 10l-79 90h-10l-108 -86q-8 -7 -14 -10.5t-13 -3.5q-8 0 -15 5.5 t-22 23.5q-18 22 -18 33q0 9 12 20l131 122q9 8 18 11.5t23 3.5h45z" />
<glyph unicode="&#x11d;" horiz-adv-x="593" d="M407 422q-14 4 -27.5 5.5t-27.5 1.5q-42 0 -72 -13t-54 -37q-29 -31 -44.5 -77t-15.5 -92q0 -53 20.5 -81.5t64.5 -28.5q60 0 108 45zM37 -187q0 9 2 23t7 31q5 16 10 22t15 6q4 0 11.5 -1.5l12.5 -2.5q22 -5 48 -8t46 -3q34 0 62.5 8t47.5 25q17 16 25.5 40.5t15.5 62.5 l7 37q-24 -27 -60 -42t-82 -15q-45 0 -79 15.5t-57 43t-34.5 65.5t-11.5 83q0 65 24.5 131t72.5 113q42 41 101 65t145 24q42 0 90 -7t106 -21l-87 -496q-11 -64 -29.5 -107.5t-49.5 -72.5q-35 -33 -87.5 -47.5t-118.5 -14.5q-72 0 -134 17q-11 3 -15 10t-4 16zM429 819 q26 0 37 -16l94 -130q4 -5 5 -8.5t1 -6.5q0 -8 -6.5 -17t-21.5 -21q-24 -20 -40 -20q-10 0 -19 10l-79 90h-10l-108 -86q-8 -7 -14 -10.5t-13 -3.5q-8 0 -15 5.5t-22 23.5q-18 22 -18 33q0 9 12 20l131 122q9 8 18 11.5t23 3.5h45z" />
<glyph unicode="&#x11e;" horiz-adv-x="691" d="M575 51q-3 -18 -10.5 -25.5t-21.5 -11.5q-92 -24 -184 -24q-155 0 -238 70t-83 215q0 96 26 174t78.5 133.5t133 86t188.5 30.5q40 0 90 -6t105 -19l-26 -116q-40 9 -81.5 14t-75.5 5q-75 0 -129 -18.5t-92 -57.5q-33 -35 -51.5 -85.5t-18.5 -125.5q0 -95 46 -136.5 t137 -41.5q20 0 40.5 2t43.5 6l24 140h-129l22 126h238q23 0 23 -18q0 -7 -2 -19.5t-6 -32.5zM433 746q-33 0 -61 9t-48.5 28.5t-32 48.5t-11.5 70q0 10 0.5 19t1.5 18h111q-3 -15 -3 -31q0 -27 11.5 -43.5t38.5 -16.5q35 0 58.5 26t31.5 65h111q-5 -38 -21 -72.5t-42 -61.5 t-62.5 -43t-82.5 -16z" />
<glyph unicode="&#x11f;" horiz-adv-x="593" d="M407 422q-14 4 -27.5 5.5t-27.5 1.5q-42 0 -72 -13t-54 -37q-29 -31 -44.5 -77t-15.5 -92q0 -53 20.5 -81.5t64.5 -28.5q60 0 108 45zM37 -187q0 9 2 23t7 31q5 16 10 22t15 6q4 0 11.5 -1.5l12.5 -2.5q22 -5 48 -8t46 -3q34 0 62.5 8t47.5 25q17 16 25.5 40.5t15.5 62.5 l7 37q-24 -27 -60 -42t-82 -15q-45 0 -79 15.5t-57 43t-34.5 65.5t-11.5 83q0 65 24.5 131t72.5 113q42 41 101 65t145 24q42 0 90 -7t106 -21l-87 -496q-11 -64 -29.5 -107.5t-49.5 -72.5q-35 -33 -87.5 -47.5t-118.5 -14.5q-72 0 -134 17q-11 3 -15 10t-4 16zM364 586 q-33 0 -61 9t-48.5 28.5t-32 48.5t-11.5 70q0 10 0.5 19t1.5 18h111q-3 -15 -3 -31q0 -27 11.5 -43.5t38.5 -16.5q35 0 58.5 26t31.5 65h111q-5 -38 -21 -72.5t-42 -61.5t-62.5 -43t-82.5 -16z" />
<glyph unicode="&#x120;" horiz-adv-x="691" d="M575 51q-3 -18 -10.5 -25.5t-21.5 -11.5q-92 -24 -184 -24q-155 0 -238 70t-83 215q0 96 26 174t78.5 133.5t133 86t188.5 30.5q40 0 90 -6t105 -19l-26 -116q-40 9 -81.5 14t-75.5 5q-75 0 -129 -18.5t-92 -57.5q-33 -35 -51.5 -85.5t-18.5 -125.5q0 -95 46 -136.5 t137 -41.5q20 0 40.5 2t43.5 6l24 140h-129l22 126h238q23 0 23 -18q0 -7 -2 -19.5t-6 -32.5zM333 770q-34 0 -51 18t-17 47q0 39 24.5 68t72.5 29q34 0 51.5 -17.5t17.5 -46.5q0 -39 -25 -68.5t-73 -29.5zM542 770q-34 0 -51 18t-17 47q0 39 24.5 68t72.5 29 q34 0 51.5 -17.5t17.5 -46.5q0 -39 -25 -68.5t-73 -29.5z" />
<glyph unicode="&#x121;" horiz-adv-x="593" d="M407 422q-14 4 -27.5 5.5t-27.5 1.5q-42 0 -72 -13t-54 -37q-29 -31 -44.5 -77t-15.5 -92q0 -53 20.5 -81.5t64.5 -28.5q60 0 108 45zM37 -187q0 9 2 23t7 31q5 16 10 22t15 6q4 0 11.5 -1.5l12.5 -2.5q22 -5 48 -8t46 -3q34 0 62.5 8t47.5 25q17 16 25.5 40.5t15.5 62.5 l7 37q-24 -27 -60 -42t-82 -15q-45 0 -79 15.5t-57 43t-34.5 65.5t-11.5 83q0 65 24.5 131t72.5 113q42 41 101 65t145 24q42 0 90 -7t106 -21l-87 -496q-11 -64 -29.5 -107.5t-49.5 -72.5q-35 -33 -87.5 -47.5t-118.5 -14.5q-72 0 -134 17q-11 3 -15 10t-4 16zM392 789 q35 0 53 -19.5t18 -52.5q0 -21 -7.5 -41t-21 -35.5t-33 -25t-43.5 -9.5q-35 0 -53 19.5t-18 52.5q0 21 7.5 41t21 35.5t33 25t43.5 9.5z" />
<glyph unicode="&#x122;" horiz-adv-x="691" d="M575 51q-3 -18 -10.5 -25.5t-21.5 -11.5q-92 -24 -184 -24q-155 0 -238 70t-83 215q0 96 26 174t78.5 133.5t133 86t188.5 30.5q40 0 90 -6t105 -19l-26 -116q-40 9 -81.5 14t-75.5 5q-75 0 -129 -18.5t-92 -57.5q-33 -35 -51.5 -85.5t-18.5 -125.5q0 -95 46 -136.5 t137 -41.5q20 0 40.5 2t43.5 6l24 140h-129l22 126h238q23 0 23 -18q0 -7 -2 -19.5t-6 -32.5zM321 -277q-5 -16 -18 -22.5t-47 -6.5q-23 0 -35.5 4t-12.5 18q0 7 2.5 18t7.5 27l45 168h132z" />
<glyph unicode="&#x123;" horiz-adv-x="593" d="M407 422q-14 4 -27.5 5.5t-27.5 1.5q-42 0 -72 -13t-54 -37q-29 -31 -44.5 -77t-15.5 -92q0 -53 20.5 -81.5t64.5 -28.5q60 0 108 45zM37 -187q0 9 2 23t7 31q5 16 10 22t15 6q4 0 11.5 -1.5l12.5 -2.5q22 -5 48 -8t46 -3q34 0 62.5 8t47.5 25q17 16 25.5 40.5t15.5 62.5 l7 37q-24 -27 -60 -42t-82 -15q-45 0 -79 15.5t-57 43t-34.5 65.5t-11.5 83q0 65 24.5 131t72.5 113q42 41 101 65t145 24q42 0 90 -7t106 -21l-87 -496q-11 -64 -29.5 -107.5t-49.5 -72.5q-35 -33 -87.5 -47.5t-118.5 -14.5q-72 0 -134 17q-11 3 -15 10t-4 16z M355.012 803.983q4.99902 15.999 17.999 22.498q12.999 6.5 46.9971 6.5q22.998 0 35.4971 -4q12.5 -4 12.5 -17.999q0 -6.99902 -2.5 -17.999q-2.5 -10.999 -7.5 -26.998l-44.9971 -167.989h-131.992z" />
<glyph unicode="&#x124;" horiz-adv-x="697" d="M478 293h-281l-47 -265q-3 -15 -20 -24t-59 -9q-29 0 -47.5 4.5t-18.5 17.5q0 3 1 10.5t3 19.5l113 642h144l-49 -282h281l50 282h144l-116 -661q-3 -15 -20 -24t-59 -9q-29 0 -47.5 4.5t-18.5 17.5q0 3 1 10.5t3 19.5zM478 979q26 0 37 -16l94 -130q4 -5 5 -8.5t1 -6.5 q0 -8 -6.5 -17t-21.5 -21q-24 -20 -40 -20q-10 0 -19 10l-79 90h-10l-108 -86q-8 -7 -14 -10.5t-13 -3.5q-8 0 -15 5.5t-22 23.5q-18 22 -18 33q0 9 12 20l131 122q9 8 18 11.5t23 3.5h45z" />
<glyph unicode="&#x125;" horiz-adv-x="593" d="M391 322q2 12 3.5 23t1.5 20q0 58 -67 58q-23 0 -53.5 -8.5t-67.5 -27.5l-64 -361q-3 -17 -21 -24t-56 -7q-30 0 -46.5 6t-16.5 19q0 7 2.5 21t6.5 34l116 659h140l-44 -249q43 27 85.5 39t80.5 12q36 0 65.5 -11t48.5 -31q34 -37 34 -101q0 -28 -6 -59l-54 -308 q-3 -17 -21 -24t-56 -7q-30 0 -46.5 6t-16.5 19q0 7 2.5 21t6.5 34zM251 952q26 0 37 -16l94 -130q4 -5 5 -8.5t1 -6.5q0 -8 -6.5 -17t-21.5 -21q-24 -20 -40 -20q-10 0 -19 10l-79 90h-10l-108 -86q-8 -7 -14 -10.5t-13 -3.5q-8 0 -15 5.5t-22 23.5q-18 22 -18 33 q0 9 12 20l131 122q9 8 18 11.5t23 3.5h45z" />
<glyph unicode="&#x126;" horiz-adv-x="760" d="M508 293h-281l-47 -265q-3 -15 -20 -24t-59 -9q-29 0 -47.5 4.5t-18.5 17.5q0 3 1 10.5t3 19.5l79 448h-83q-10 0 -14.5 5t-4.5 20q0 11 3 31q5 32 13.5 43t18.5 11h86l15 84h144l-15 -84h282l15 84h144l-15 -84h98l-19 -110h-98l-82 -467q-3 -15 -20 -24t-59 -9 q-29 0 -47.5 4.5t-18.5 17.5q0 3 1 10.5t3 19.5zM528 407l15 88h-281l-15 -88h281z" />
<glyph unicode="&#x127;" horiz-adv-x="593" d="M391 322q2 12 3.5 23t1.5 20q0 58 -67 58q-23 0 -53.5 -8.5t-67.5 -27.5l-64 -361q-3 -17 -21 -24t-56 -7q-30 0 -46.5 6t-16.5 19q0 7 2.5 21t6.5 34l88 500h-51q-9 0 -12 6t-3 16q0 6 1 15.5t3 20.5q7 35 16 42.5t16 7.5h49l9 51h140l-9 -51h109l-19 -108h-109l-16 -90 q43 27 85.5 39t80.5 12q36 0 65.5 -11t48.5 -31q34 -37 34 -101q0 -28 -6 -59l-54 -308q-3 -17 -21 -24t-56 -7q-30 0 -46.5 6t-16.5 19q0 7 2.5 21t6.5 34z" />
<glyph unicode="&#x128;" horiz-adv-x="277" d="M125 689h144l-116 -661q-3 -15 -20 -24t-59 -9q-29 0 -47.5 4.5t-18.5 17.5q0 3 1 10.5t3 19.5zM33 799q-18 18 -18 31q0 8 9 21q29 42 63 69t71 27q22 0 40.5 -9t35 -19.5t32 -19t32.5 -8.5q23 0 39 16t32 37l68 -49q-27 -52 -62 -85t-79 -33q-23 0 -42 8.5t-35.5 19 t-31.5 19t-31 8.5q-18 0 -32 -11.5t-30 -28.5q-13 -14 -23 -14q-17 0 -38 21z" />
<glyph unicode="&#x129;" horiz-adv-x="262" d="M147 32q-3 -20 -24.5 -28.5t-53.5 -8.5q-68 0 -62 37l87 494h140zM0 639q-18 18 -18 31q0 8 9 21q29 42 63 69t71 27q22 0 40.5 -9t35 -19.5t32 -19t32.5 -8.5q23 0 39 16t32 37l68 -49q-27 -52 -62 -85t-79 -33q-23 0 -42 8.5t-35.5 19t-31.5 19t-31 8.5 q-18 0 -32 -11.5t-30 -28.5q-13 -14 -23 -14q-17 0 -38 21z" />
<glyph unicode="&#x12a;" horiz-adv-x="277" d="M125 689h144l-116 -661q-3 -15 -20 -24t-59 -9q-29 0 -47.5 4.5t-18.5 17.5q0 3 1 10.5t3 19.5zM373 785h-301q-10 0 -14.5 5t-4.5 20q0 11 3 31q5 32 13.5 43t18.5 11h304z" />
<glyph unicode="&#x12b;" horiz-adv-x="262" d="M147 32q-3 -20 -24.5 -28.5t-53.5 -8.5q-68 0 -62 37l87 494h140zM344 625h-301q-10 0 -14.5 5t-4.5 20q0 11 3 31q5 32 13.5 43t18.5 11h304z" />
<glyph unicode="&#x12c;" horiz-adv-x="277" d="M125 689h144l-116 -661q-3 -15 -20 -24t-59 -9q-29 0 -47.5 4.5t-18.5 17.5q0 3 1 10.5t3 19.5zM211 746q-33 0 -61 9t-48.5 28.5t-32 48.5t-11.5 70q0 10 0.5 19t1.5 18h111q-3 -15 -3 -31q0 -27 11.5 -43.5t38.5 -16.5q35 0 58.5 26t31.5 65h111q-5 -38 -21 -72.5 t-42 -61.5t-62.5 -43t-82.5 -16z" />
<glyph unicode="&#x12d;" horiz-adv-x="262" d="M147 32q-3 -20 -24.5 -28.5t-53.5 -8.5q-68 0 -62 37l87 494h140zM182 586q-33 0 -61 9t-48.5 28.5t-32 48.5t-11.5 70q0 10 0.5 19t1.5 18h111q-3 -15 -3 -31q0 -27 11.5 -43.5t38.5 -16.5q35 0 58.5 26t31.5 65h111q-5 -38 -21 -72.5t-42 -61.5t-62.5 -43t-82.5 -16z " />
<glyph unicode="&#x12e;" horiz-adv-x="277" d="M-97 -126q0 45 30 85t75 68l117 662h144l-116 -661q-2 -11 -10.5 -16.5t-25.5 -12.5q-44 -17 -65.5 -47t-21.5 -54q0 -23 28 -23q9 0 20.5 2t20.5 5q8 3 14 5.5t11 2.5q4 0 8 -2t6 -10q4 -11 6 -27t2 -24q0 -11 -3.5 -16t-10.5 -8q-18 -9 -47.5 -15t-58.5 -6q-24 0 -46 5 t-39 15.5t-27.5 28t-10.5 43.5z" />
<glyph unicode="&#x12f;" horiz-adv-x="262" d="M121 -197q-18 -9 -47.5 -15t-58.5 -6q-24 0 -46 5t-39 15.5t-27.5 28t-10.5 43.5q0 49 29.5 86.5t84.5 65.5l88 500h140l-88 -500q-3 -17 -24 -25q-46 -21 -74.5 -46t-28.5 -57q0 -23 28 -23q9 0 20.5 2t20.5 5q8 3 14 5.5t11 2.5q4 0 8 -2t6 -10q4 -11 6 -27t2 -24 q0 -11 -3.5 -16t-10.5 -8zM202 749q37 0 52.5 -14.5t15.5 -40.5q0 -24 -7 -45t-19 -33q-23 -23 -69 -23q-37 0 -52.5 14.5t-15.5 40.5q0 24 7 45t19 33q23 23 69 23z" />
<glyph unicode="&#x130;" horiz-adv-x="277" d="M125 689h144l-116 -661q-3 -15 -20 -24t-59 -9q-29 0 -47.5 4.5t-18.5 17.5q0 3 1 10.5t3 19.5zM244 949q35 0 53 -19.5t18 -52.5q0 -21 -7.5 -41t-21 -35.5t-33 -25t-43.5 -9.5q-35 0 -53 19.5t-18 52.5q0 21 7.5 41t21 35.5t33 25t43.5 9.5z" />
<glyph unicode="&#x131;" horiz-adv-x="262" d="M147 32q-3 -20 -24.5 -28.5t-53.5 -8.5q-68 0 -62 37l87 494h140z" />
<glyph unicode="&#x132;" horiz-adv-x="751" d="M125 689h144l-116 -661q-3 -15 -20 -24t-59 -9q-29 0 -47.5 4.5t-18.5 17.5q0 3 1 10.5t3 19.5zM747 689l-84 -475q-12 -68 -31.5 -108.5t-53.5 -66.5q-37 -29 -81 -39t-92 -10q-38 0 -68.5 4t-53.5 11q-14 4 -19 10.5t-5 18.5q0 14 10 50q5 16 10.5 26.5t19.5 10.5 q6 0 15 -1.5t20 -3.5q14 -2 30.5 -4t31.5 -2q55 0 84 26q20 18 29 46t17 70l77 437h144z" />
<glyph unicode="&#x133;" horiz-adv-x="534" d="M202 749q37 0 52.5 -14.5t15.5 -40.5q0 -24 -7 -45t-19 -33q-23 -23 -69 -23q-37 0 -52.5 14.5t-15.5 40.5q0 24 7 45t19 33q23 23 69 23zM94 526h140l-88 -500q-3 -17 -21 -24t-56 -7q-30 0 -46.5 6t-16.5 19q0 7 2.5 21t6.5 34zM368 526h140l-98 -560q-9 -54 -20.5 -89 t-35.5 -59q-48 -48 -137 -48q-20 0 -44.5 2.5t-41.5 7.5q-18 4 -18 22q0 11 2.5 27t7.5 31q5 14 10 19t11 5q4 0 9.5 -1t10.5 -2q8 -2 18 -2.5t18 -0.5q35 0 48 18t19 54zM476 749q37 0 52.5 -14.5t15.5 -40.5q0 -24 -7 -45t-19 -33q-23 -23 -69 -23q-37 0 -52.5 14.5 t-15.5 40.5q0 24 7 45t19 33q23 23 69 23z" />
<glyph unicode="&#x134;" horiz-adv-x="474" d="M470 689l-84 -475q-12 -68 -31.5 -108.5t-53.5 -66.5q-37 -29 -81 -39t-92 -10q-38 0 -68.5 4t-53.5 11q-14 4 -19 10.5t-5 18.5q0 14 10 50q5 16 10.5 26.5t19.5 10.5q6 0 15 -1.5t20 -3.5q14 -2 30.5 -4t31.5 -2q55 0 84 26q20 18 29 46t17 70l77 437h144zM472 979 q26 0 37 -16l94 -130q4 -5 5 -8.5t1 -6.5q0 -8 -6.5 -17t-21.5 -21q-24 -20 -40 -20q-10 0 -19 10l-79 90h-10l-108 -86q-8 -7 -14 -10.5t-13 -3.5q-8 0 -15 5.5t-22 23.5q-18 22 -18 33q0 9 12 20l131 122q9 8 18 11.5t23 3.5h45z" />
<glyph unicode="&#x135;" horiz-adv-x="262" d="M94 526h140l-98 -560q-9 -54 -20.5 -89t-35.5 -59q-48 -48 -140 -48q-40 0 -84 11q-17 4 -17 21q0 11 2 24.5t8 32.5q5 15 10 20t11 5q4 0 9.5 -1t10.5 -2q8 -2 18 -2.5t18 -0.5q35 0 48 18t19 54zM228 819q26 0 37 -16l94 -130q4 -5 5 -8.5t1 -6.5q0 -8 -6.5 -17 t-21.5 -21q-24 -20 -40 -20q-10 0 -19 10l-79 90h-10l-108 -86q-8 -7 -14 -10.5t-13 -3.5q-8 0 -15 5.5t-22 23.5q-18 22 -18 33q0 9 12 20l131 122q9 8 18 11.5t23 3.5h45z" />
<glyph unicode="&#x136;" horiz-adv-x="653" d="M122 689h144l-54 -303l310 303h175l-309 -305l178 -332q8 -14 10 -20t2 -10q0 -25 -75 -25q-38 0 -56 6.5t-29 28.5l-136 262l-103 -97l-29 -169q-2 -15 -19.5 -24t-59.5 -9q-29 0 -47.5 4.5t-18.5 17.5q0 3 1 10.5t3 19.5zM253 -277q-5 -16 -18 -22.5t-47 -6.5 q-23 0 -35.5 4t-12.5 18q0 7 2.5 18t7.5 27l45 168h132z" />
<glyph unicode="&#x137;" horiz-adv-x="548" d="M129 734h140l-70 -391l210 183h169l-244 -212l135 -264q5 -11 7 -16t2 -10q0 -11 -17 -19t-54 -8q-36 0 -53 6.5t-23 20.5l-95 209l-66 -57l-26 -150q-3 -17 -21 -24t-56 -7q-30 0 -46.5 6t-16.5 19q0 7 2.5 21t6.5 34zM203 -277q-5 -16 -18 -22.5t-47 -6.5 q-23 0 -35.5 4t-12.5 18q0 7 2.5 18t7.5 27l45 168h132z" />
<glyph unicode="&#x138;" horiz-adv-x="548" d="M92 526h140l-33 -183l210 183h169l-244 -212l135 -264q5 -11 7 -16t2 -10q0 -11 -17 -19t-54 -8q-36 0 -53 6.5t-23 20.5l-95 209l-66 -57l-26 -150q-3 -17 -21 -24t-56 -7q-30 0 -46.5 6t-16.5 19q0 7 2.5 21t6.5 34z" />
<glyph unicode="&#x139;" horiz-adv-x="519" d="M121 689h144l-101 -573h283l-21 -116h-394q-16 0 -21.5 5t-5.5 16q0 7 3 24.5t8 47.5zM349 991l62 -110l-224 -119q-14 -8 -24 -8q-11 0 -20 9.5t-18 25.5t-11.5 24.5t-2.5 13.5q0 9 5.5 14.5t14.5 11.5z" />
<glyph unicode="&#x13a;" horiz-adv-x="307" d="M265 734l-94 -537q-5 -28 -7.5 -42.5t-2.5 -22.5q0 -17 8 -24t27 -7q12 0 22.5 1t17.5 1q15 0 15 -21q0 -10 -2 -25.5t-5 -27.5q-4 -14 -10 -20.5t-17 -8.5q-13 -3 -31.5 -4.5t-38.5 -1.5q-59 0 -93.5 27t-34.5 89q0 8 0.5 16.5t2 20t4.5 27.5t7 39l92 521h140zM346 1005 l62 -110l-224 -119q-14 -8 -24 -8q-11 0 -20 9.5t-18 25.5t-11.5 24.5t-2.5 13.5q0 9 5.5 14.5t14.5 11.5z" />
<glyph unicode="&#x13b;" horiz-adv-x="519" d="M121 689h144l-101 -573h283l-21 -116h-394q-16 0 -21.5 5t-5.5 16q0 7 3 24.5t8 47.5zM197 -277q-5 -16 -18 -22.5t-47 -6.5q-23 0 -35.5 4t-12.5 18q0 7 2.5 18t7.5 27l45 168h132z" />
<glyph unicode="&#x13c;" horiz-adv-x="307" d="M265 734l-94 -537q-5 -28 -7.5 -42.5t-2.5 -22.5q0 -17 8 -24t27 -7q12 0 22.5 1t17.5 1q15 0 15 -21q0 -10 -2 -25.5t-5 -27.5q-4 -14 -10 -20.5t-17 -8.5q-13 -3 -31.5 -4.5t-38.5 -1.5q-59 0 -93.5 27t-34.5 89q0 8 0.5 16.5t2 20t4.5 27.5t7 39l92 521h140zM107 -277 q-5 -16 -18 -22.5t-47 -6.5q-23 0 -35.5 4t-12.5 18q0 7 2.5 18t7.5 27l45 168h132z" />
<glyph unicode="&#x13d;" horiz-adv-x="519" d="M121 689h144l-101 -573h283l-21 -116h-394q-16 0 -21.5 5t-5.5 16q0 7 3 24.5t8 47.5zM442 483q-5 -16 -18 -22.5t-47 -6.5q-23 0 -35.5 4t-12.5 18q0 7 2.5 18t7.5 27l45 168h132z" />
<glyph unicode="&#x13e;" horiz-adv-x="393" d="M265 734l-102 -579q-2 -8 -2.5 -15t-0.5 -11q0 -14 10 -19t24 -5q5 0 12 0.5t12 1.5t9 1.5t7 0.5q5 0 8 -4t3 -18q0 -10 -1.5 -24.5t-4.5 -28.5t-8 -21.5t-16 -10.5q-18 -5 -36.5 -6.5t-37.5 -1.5q-66 0 -97 28q-28 26 -28 72q0 12 1.5 25t3.5 27l104 588h140zM401 528 q-5 -16 -18 -22.5t-47 -6.5q-23 0 -35.5 4t-12.5 18q0 7 2.5 18t7.5 27l45 168h132z" />
<glyph unicode="&#x13f;" horiz-adv-x="519" d="M121 689h144l-101 -573h283l-21 -116h-394q-16 0 -21.5 5t-5.5 16q0 7 3 24.5t8 47.5zM410 467q35 0 53 -19.5t18 -52.5q0 -21 -7.5 -41t-21 -35.5t-33 -25t-43.5 -9.5q-35 0 -53 19.5t-18 52.5q0 21 7.5 41t21 35.5t33 25t43.5 9.5z" />
<glyph unicode="&#x140;" horiz-adv-x="447" d="M265 734l-94 -537q-5 -28 -7.5 -42.5t-2.5 -22.5q0 -17 8 -24t27 -7q12 0 22.5 1t17.5 1q15 0 15 -21q0 -10 -2 -25.5t-5 -27.5q-4 -14 -10 -20.5t-17 -8.5q-13 -3 -31.5 -4.5t-38.5 -1.5q-59 0 -93.5 27t-34.5 89q0 8 0.5 16.5t2 20t4.5 27.5t7 39l92 521h140zM374 474 q35 0 53 -19.5t18 -52.5q0 -21 -7.5 -41t-21 -35.5t-33 -25t-43.5 -9.5q-35 0 -53 19.5t-18 52.5q0 21 7.5 41t21 35.5t33 25t43.5 9.5z" />
<glyph unicode="&#x141;" horiz-adv-x="518" d="M37 214l-31 -17q-9 -5 -20 1t-27 38q-9 18 -12.5 29.5t-3.5 18.5q0 6 2 9t6 5l112 61l58 330h144l-43 -243l113 62l51 -103l-190 -104l-32 -185h283l-21 -116h-394q-16 0 -21.5 5t-5.5 16q0 7 3 24.5t8 47.5z" />
<glyph unicode="&#x142;" horiz-adv-x="390" d="M306 734l-48 -275l92 51l40 -99l-156 -85l-22 -129q-5 -28 -7.5 -42.5t-2.5 -22.5q0 -17 8 -24t27 -7q12 0 22.5 1t17.5 1q15 0 15 -21q0 -10 -2 -25.5t-5 -27.5q-4 -14 -10 -20.5t-17 -8.5q-13 -3 -31.5 -4.5t-38.5 -1.5q-59 0 -93.5 27t-34.5 89q0 15 3 36t11 67l5 27 l-38 -20q-10 -5 -18.5 2.5t-20.5 36.5q-6 15 -8.5 25t-2.5 17q0 13 10 18l101 55l64 360h140z" />
<glyph unicode="&#x143;" horiz-adv-x="707" d="M484 -3q-43 0 -63.5 6.5t-26.5 22.5l-172 464l-82 -464q-2 -14 -18 -22.5t-54 -8.5q-27 0 -44.5 5t-17.5 21q0 4 1.5 14.5t7.5 42.5l108 611h165l190 -512l90 512h134l-117 -663q-3 -15 -26.5 -22t-74.5 -7zM567 991l62 -110l-224 -119q-14 -8 -24 -8q-11 0 -20 9.5 t-18 25.5t-11.5 24.5t-2.5 13.5q0 9 5.5 14.5t14.5 11.5z" />
<glyph unicode="&#x144;" horiz-adv-x="591" d="M387 311q3 17 5 31.5t2 22.5q0 58 -65 58q-49 0 -122 -35l-63 -362q-3 -17 -21 -24t-56 -7q-30 0 -46.5 6t-16.5 19q0 7 2.5 21t6.5 34l79 451h127l-3 -46q45 29 90 42.5t84 13.5q72 0 109.5 -38.5t37.5 -102.5q0 -15 -2 -33.5t-7 -44.5l-51 -291q-3 -17 -21 -24t-56 -7 q-30 0 -46.5 6t-16.5 19q0 7 2.5 21t6.5 34zM494 831l62 -110l-224 -119q-14 -8 -24 -8q-11 0 -20 9.5t-18 25.5t-11.5 24.5t-2.5 13.5q0 9 5.5 14.5t14.5 11.5z" />
<glyph unicode="&#x145;" horiz-adv-x="707" d="M484 -3q-43 0 -63.5 6.5t-26.5 22.5l-172 464l-82 -464q-2 -14 -18 -22.5t-54 -8.5q-27 0 -44.5 5t-17.5 21q0 4 1.5 14.5t7.5 42.5l108 611h165l190 -512l90 512h134l-117 -663q-3 -15 -26.5 -22t-74.5 -7zM287 -277q-5 -16 -18 -22.5t-47 -6.5q-23 0 -35.5 4t-12.5 18 q0 7 2.5 18t7.5 27l45 168h132z" />
<glyph unicode="&#x146;" horiz-adv-x="591" d="M387 311q3 17 5 31.5t2 22.5q0 58 -65 58q-49 0 -122 -35l-63 -362q-3 -17 -21 -24t-56 -7q-30 0 -46.5 6t-16.5 19q0 7 2.5 21t6.5 34l79 451h127l-3 -46q45 29 90 42.5t84 13.5q72 0 109.5 -38.5t37.5 -102.5q0 -15 -2 -33.5t-7 -44.5l-51 -291q-3 -17 -21 -24t-56 -7 q-30 0 -46.5 6t-16.5 19q0 7 2.5 21t6.5 34zM227 -277q-5 -16 -18 -22.5t-47 -6.5q-23 0 -35.5 4t-12.5 18q0 7 2.5 18t7.5 27l45 168h132z" />
<glyph unicode="&#x147;" horiz-adv-x="707" d="M484 -3q-43 0 -63.5 6.5t-26.5 22.5l-172 464l-82 -464q-2 -14 -18 -22.5t-54 -8.5q-27 0 -44.5 5t-17.5 21q0 4 1.5 14.5t7.5 42.5l108 611h165l190 -512l90 512h134l-117 -663q-3 -15 -26.5 -22t-74.5 -7zM422 760q-26 0 -40 4.5t-28 23.5l-102 140l77 64l99 -113h10 l147 117l61 -71l-150 -140q-15 -14 -33 -19.5t-41 -5.5z" />
<glyph unicode="&#x148;" horiz-adv-x="591" d="M387 311q3 17 5 31.5t2 22.5q0 58 -65 58q-49 0 -122 -35l-63 -362q-3 -17 -21 -24t-56 -7q-30 0 -46.5 6t-16.5 19q0 7 2.5 21t6.5 34l79 451h127l-3 -46q45 29 90 42.5t84 13.5q72 0 109.5 -38.5t37.5 -102.5q0 -15 -2 -33.5t-7 -44.5l-51 -291q-3 -17 -21 -24t-56 -7 q-30 0 -46.5 6t-16.5 19q0 7 2.5 21t6.5 34zM347 600q-26 0 -40 4.5t-28 23.5l-102 140l77 64l99 -113h10l147 117l61 -71l-150 -140q-15 -14 -33 -19.5t-41 -5.5z" />
<glyph unicode="&#x149;" horiz-adv-x="727" d="M523 311q3 17 5 31.5t2 22.5q0 58 -65 58q-49 0 -122 -35l-63 -362q-3 -17 -21 -24t-56 -7q-30 0 -46.5 6t-16.5 19q0 7 2.5 21t6.5 34l79 451h127l-3 -46q45 29 90 42.5t84 13.5q72 0 109.5 -38.5t37.5 -102.5q0 -15 -2 -33.5t-7 -44.5l-51 -291q-3 -17 -21 -24t-56 -7 q-30 0 -46.5 6t-16.5 19q0 7 2.5 21t6.5 34zM14 468q7 9 16 22t20 30q5 7 7 13.5t2 10.5q0 9 -9 18q-18 18 -18 46q0 18 6.5 34.5t18.5 29t30 20.5t42 8q67 0 67 -72q0 -25 -10.5 -54t-27 -58.5t-38.5 -57.5t-44 -50q-11 -11 -23 -11q-8 0 -15 2.5t-18 10.5q-21 15 -21 28 q0 7 3.5 13.5t11.5 16.5z" />
<glyph unicode="&#x14a;" horiz-adv-x="707" d="M140 26q-2 -14 -18 -22.5t-54 -8.5q-27 0 -44.5 5t-17.5 21q0 4 1.5 14.5t7.5 42.5l108 611h156l210 -450l79 450h134l-117 -663q-14 -81 -36 -129t-57 -78q-37 -32 -82.5 -43.5t-86.5 -11.5q-33 0 -59 3.5t-47 9.5q-12 4 -17.5 10t-5.5 19t10 49q5 16 11 26.5t17 10.5 t32 -4.5t50 -4.5q26 0 47.5 4.5t35.5 14.5q19 13 31.5 39.5t19.5 64.5l-226 484z" />
<glyph unicode="&#x14b;" horiz-adv-x="591" d="M92 526h127l-3 -46q45 29 90 42.5t84 13.5q74 0 113 -42q17 -19 25.5 -44.5t8.5 -55.5q0 -24 -6 -60l-50 -283q-13 -72 -27 -110.5t-38 -62.5q-48 -48 -138 -48q-17 0 -41 2.5t-40 7.5q-8 2 -12 7t-4 17q0 8 2 23t9 34q6 17 11.5 19.5t11.5 2.5q4 0 9.5 -0.5t10.5 -1.5 q7 -1 15 -1.5t16 -0.5q14 0 27 3t22 14q7 8 11 23.5t11 50.5l52 286q3 15 4 26.5t1 18.5q0 62 -64 62q-50 0 -123 -35l-63 -362q-3 -17 -21 -24t-56 -7q-30 0 -46.5 6t-16.5 19q0 7 2.5 20.5t6.5 34.5z" />
<glyph unicode="&#x14c;" horiz-adv-x="718" d="M406 699q132 0 203 -71t71 -208q0 -87 -23.5 -165.5t-69.5 -137t-114 -93t-157 -34.5q-136 0 -207 71t-71 208q0 87 24 165.5t70.5 137t115.5 93t158 34.5zM396 579q-55 0 -95 -26.5t-65.5 -69.5t-38 -97.5t-12.5 -110.5q0 -81 34.5 -123t108.5 -42q53 0 91.5 26.5 t64 69.5t37.5 98t12 111q0 80 -34.5 122t-102.5 42zM610 785h-301q-10 0 -14.5 5t-4.5 20q0 11 3 31q5 32 13.5 43t18.5 11h304z" />
<glyph unicode="&#x14d;" horiz-adv-x="603" d="M257 -10q-54 0 -97 13.5t-73.5 41t-47 69.5t-16.5 99q0 70 20.5 129t59 102t94 67.5t126.5 24.5q50 0 92 -13.5t72 -41t46.5 -69t16.5 -97.5q0 -73 -20 -133t-58 -102.5t-92.5 -66t-122.5 -23.5zM313 430q-38 0 -66 -19t-46 -49.5t-26.5 -69t-8.5 -76.5q0 -58 24 -89 t76 -31q36 0 62.5 18.5t44 48.5t26 68.5t8.5 78.5q0 58 -23.5 89t-70.5 31zM511 625h-301q-10 0 -14.5 5t-4.5 20q0 11 3 31q5 32 13.5 43t18.5 11h304z" />
<glyph unicode="&#x14e;" horiz-adv-x="718" d="M406 699q132 0 203 -71t71 -208q0 -87 -23.5 -165.5t-69.5 -137t-114 -93t-157 -34.5q-136 0 -207 71t-71 208q0 87 24 165.5t70.5 137t115.5 93t158 34.5zM396 579q-55 0 -95 -26.5t-65.5 -69.5t-38 -97.5t-12.5 -110.5q0 -81 34.5 -123t108.5 -42q53 0 91.5 26.5 t64 69.5t37.5 98t12 111q0 80 -34.5 122t-102.5 42zM436 746q-33 0 -61 9t-48.5 28.5t-32 48.5t-11.5 70q0 10 0.5 19t1.5 18h111q-3 -15 -3 -31q0 -27 11.5 -43.5t38.5 -16.5q35 0 58.5 26t31.5 65h111q-5 -38 -21 -72.5t-42 -61.5t-62.5 -43t-82.5 -16z" />
<glyph unicode="&#x14f;" horiz-adv-x="603" d="M257 -10q-54 0 -97 13.5t-73.5 41t-47 69.5t-16.5 99q0 70 20.5 129t59 102t94 67.5t126.5 24.5q50 0 92 -13.5t72 -41t46.5 -69t16.5 -97.5q0 -73 -20 -133t-58 -102.5t-92.5 -66t-122.5 -23.5zM313 430q-38 0 -66 -19t-46 -49.5t-26.5 -69t-8.5 -76.5q0 -58 24 -89 t76 -31q36 0 62.5 18.5t44 48.5t26 68.5t8.5 78.5q0 58 -23.5 89t-70.5 31zM354 586q-33 0 -61 9t-48.5 28.5t-32 48.5t-11.5 70q0 10 0.5 19t1.5 18h111q-3 -15 -3 -31q0 -27 11.5 -43.5t38.5 -16.5q35 0 58.5 26t31.5 65h111q-5 -38 -21 -72.5t-42 -61.5t-62.5 -43 t-82.5 -16z" />
<glyph unicode="&#x150;" horiz-adv-x="718" d="M406 699q132 0 203 -71t71 -208q0 -87 -23.5 -165.5t-69.5 -137t-114 -93t-157 -34.5q-136 0 -207 71t-71 208q0 87 24 165.5t70.5 137t115.5 93t158 34.5zM396 579q-55 0 -95 -26.5t-65.5 -69.5t-38 -97.5t-12.5 -110.5q0 -81 34.5 -123t108.5 -42q53 0 91.5 26.5 t64 69.5t37.5 98t12 111q0 80 -34.5 122t-102.5 42zM462 1010l73 -105l-210 -138q-17 -11 -28 -11q-16 0 -36 28q-9 13 -12 21.5t-3 14.5q0 5 3 9.5t12 12.5zM715 1010l73 -105l-210 -138q-17 -11 -28 -11q-16 0 -36 28q-9 13 -12 21.5t-3 14.5q0 5 3 9.5t12 12.5z" />
<glyph unicode="&#x151;" horiz-adv-x="603" d="M257 -10q-54 0 -97 13.5t-73.5 41t-47 69.5t-16.5 99q0 70 20.5 129t59 102t94 67.5t126.5 24.5q50 0 92 -13.5t72 -41t46.5 -69t16.5 -97.5q0 -73 -20 -133t-58 -102.5t-92.5 -66t-122.5 -23.5zM313 430q-38 0 -66 -19t-46 -49.5t-26.5 -69t-8.5 -76.5q0 -58 24 -89 t76 -31q36 0 62.5 18.5t44 48.5t26 68.5t8.5 78.5q0 58 -23.5 89t-70.5 31zM391 850l73 -105l-210 -138q-17 -11 -28 -11q-16 0 -36 28q-9 13 -12 21.5t-3 14.5q0 5 3 9.5t12 12.5zM644 850l73 -105l-210 -138q-17 -11 -28 -11q-16 0 -36 28q-9 13 -12 21.5t-3 14.5 q0 5 3 9.5t12 12.5z" />
<glyph unicode="&#x152;" horiz-adv-x="1011" d="M686 573l-28 -165h268l-20 -113h-269l-31 -179h321l-21 -116h-596q-71 0 -124.5 15.5t-88.5 52.5q-29 30 -44 76t-15 112q0 35 5 77.5t18.5 87t36.5 88t58 79.5q44 45 109 73t159 28h598l-21 -116h-315zM462 116l80 457h-114q-57 0 -95 -17t-64 -44q-25 -26 -41 -58 t-25.5 -66t-13 -68t-3.5 -62q0 -40 6 -62t18 -38q19 -24 48 -33t82 -9h122z" />
<glyph unicode="&#x153;" horiz-adv-x="943" d="M313 430q-38 0 -66 -19t-46 -49.5t-26.5 -69t-8.5 -76.5q0 -58 24 -89t76 -31q29 0 52 12.5t40 34t28 49.5t16 60l3 22q1 9 1.5 18t0.5 18q0 58 -23.5 89t-70.5 31zM642 -10q-68 0 -119.5 20.5t-77.5 55.5q-34 -35 -82.5 -55.5t-110.5 -20.5q-52 0 -94 13.5t-72 41 t-46.5 69.5t-16.5 99q0 70 20.5 129t59 102t94 67.5t126.5 24.5q57 0 102 -18.5t75 -53.5q36 32 82.5 52t107.5 20q44 0 82 -11t65.5 -33.5t43.5 -57t16 -80.5q0 -28 -6 -64.5t-20 -71.5h-330v-21q0 -57 32 -77.5t92 -20.5q28 0 53.5 2.5t36.5 4.5t26 4.5t21 2.5t9.5 -4.5 t3.5 -16.5q0 -5 -1.5 -21.5t-4.5 -31.5q-4 -19 -11.5 -26t-21.5 -10q-23 -5 -57.5 -9t-76.5 -4zM679 435q-48 0 -80 -31.5t-42 -85.5h193q5 20 5 43q0 20 -5 32.5t-13 21.5q-18 20 -58 20z" />
<glyph unicode="&#x154;" horiz-adv-x="644" d="M209 368h115q38 0 61.5 7t41.5 22q16 14 27 35t11 54q0 49 -27 68t-77 19h-116zM122 689h282q57 0 95 -13t63 -36t38 -55t13 -77q0 -44 -12.5 -84.5t-36.5 -73t-59 -55t-79 -31.5l104 -227q5 -12 5 -18q0 -13 -16.5 -18.5t-58.5 -5.5q-22 0 -35.5 1.5t-21 4.5t-11 8 t-6.5 11l-95 232h-102l-40 -226q-3 -15 -19.5 -23t-60.5 -8q-29 0 -46.5 5t-17.5 19q0 3 1 9.5t3 18.5zM513 991l62 -110l-224 -119q-14 -8 -24 -8q-11 0 -20 9.5t-18 25.5t-11.5 24.5t-2.5 13.5q0 9 5.5 14.5t14.5 11.5z" />
<glyph unicode="&#x155;" horiz-adv-x="405" d="M92 526h131l-13 -99q46 43 103 73t106 38l-24 -135q-24 -4 -50.5 -11.5t-52.5 -18.5t-50.5 -24t-45.5 -28l-52 -295q-3 -17 -21 -24t-56 -7q-30 0 -46.5 6t-16.5 19q0 7 2.5 21t6.5 34zM423 831l62 -110l-224 -119q-14 -8 -24 -8q-11 0 -20 9.5t-18 25.5t-11.5 24.5 t-2.5 13.5q0 9 5.5 14.5t14.5 11.5z" />
<glyph unicode="&#x156;" horiz-adv-x="644" d="M209 368h115q38 0 61.5 7t41.5 22q16 14 27 35t11 54q0 49 -27 68t-77 19h-116zM122 689h282q57 0 95 -13t63 -36t38 -55t13 -77q0 -44 -12.5 -84.5t-36.5 -73t-59 -55t-79 -31.5l104 -227q5 -12 5 -18q0 -13 -16.5 -18.5t-58.5 -5.5q-22 0 -35.5 1.5t-21 4.5t-11 8 t-6.5 11l-95 232h-102l-40 -226q-3 -15 -19.5 -23t-60.5 -8q-29 0 -46.5 5t-17.5 19q0 3 1 9.5t3 18.5zM233 -277q-5 -16 -18 -22.5t-47 -6.5q-23 0 -35.5 4t-12.5 18q0 7 2.5 18t7.5 27l45 168h132z" />
<glyph unicode="&#x157;" horiz-adv-x="405" d="M92 526h131l-13 -99q46 43 103 73t106 38l-24 -135q-24 -4 -50.5 -11.5t-52.5 -18.5t-50.5 -24t-45.5 -28l-52 -295q-3 -17 -21 -24t-56 -7q-30 0 -46.5 6t-16.5 19q0 7 2.5 21t6.5 34zM52 -277q-5 -16 -18 -22.5t-47 -6.5q-23 0 -35.5 4t-12.5 18q0 7 2.5 18t7.5 27 l45 168h132z" />
<glyph unicode="&#x158;" horiz-adv-x="644" d="M209 368h115q38 0 61.5 7t41.5 22q16 14 27 35t11 54q0 49 -27 68t-77 19h-116zM122 689h282q57 0 95 -13t63 -36t38 -55t13 -77q0 -44 -12.5 -84.5t-36.5 -73t-59 -55t-79 -31.5l104 -227q5 -12 5 -18q0 -13 -16.5 -18.5t-58.5 -5.5q-22 0 -35.5 1.5t-21 4.5t-11 8 t-6.5 11l-95 232h-102l-40 -226q-3 -15 -19.5 -23t-60.5 -8q-29 0 -46.5 5t-17.5 19q0 3 1 9.5t3 18.5zM373 760q-26 0 -40 4.5t-28 23.5l-102 140l77 64l99 -113h10l147 117l61 -71l-150 -140q-15 -14 -33 -19.5t-41 -5.5z" />
<glyph unicode="&#x159;" horiz-adv-x="405" d="M92 526h131l-13 -99q46 43 103 73t106 38l-24 -135q-24 -4 -50.5 -11.5t-52.5 -18.5t-50.5 -24t-45.5 -28l-52 -295q-3 -17 -21 -24t-56 -7q-30 0 -46.5 6t-16.5 19q0 7 2.5 21t6.5 34zM258 600q-26 0 -40 4.5t-28 23.5l-102 140l77 64l99 -113h10l147 117l61 -71 l-150 -140q-15 -14 -33 -19.5t-41 -5.5z" />
<glyph unicode="&#x15a;" d="M512 560q-41 10 -81.5 15.5t-72.5 5.5q-66 0 -102 -21.5t-36 -61.5q0 -28 16.5 -46t61.5 -34l59 -21q34 -12 61 -27t46 -36t29 -49.5t10 -67.5q0 -57 -21 -99.5t-59.5 -71t-91.5 -42.5t-116 -14q-28 0 -57.5 2.5t-57.5 7.5t-53 11.5t-43 14.5q-18 7 -18 25q0 12 5.5 31.5 t11.5 34.5q10 25 24 25q6 0 23 -6q32 -11 74 -19.5t86 -8.5q69 0 108 24.5t39 72.5q0 32 -21.5 48.5t-64.5 31.5l-59 21q-141 50 -141 182q0 45 18 84t54.5 67t92 44t129.5 16q48 0 93.5 -6t83.5 -16zM502 991l62 -110l-224 -119q-14 -8 -24 -8q-11 0 -20 9.5t-18 25.5 t-11.5 24.5t-2.5 13.5q0 9 5.5 14.5t14.5 11.5z" />
<glyph unicode="&#x15b;" horiz-adv-x="462" d="M406 410q-28 8 -61 13.5t-66 5.5q-55 0 -78 -15t-23 -34q0 -18 13 -28.5t45 -21.5l51 -18q56 -20 85 -52.5t29 -87.5q0 -39 -16 -72.5t-46.5 -57.5t-74.5 -38t-100 -14q-45 0 -86.5 8t-73.5 20q-17 8 -17 24q0 6 2 19t6 24q7 21 13.5 29.5t15.5 8.5q5 0 10 -1.5t10 -3.5 q20 -7 51 -14t65 -7q46 0 76.5 13.5t30.5 50.5q0 17 -12.5 28.5t-44.5 22.5l-51 18q-60 21 -89 53t-29 83q0 38 16.5 69.5t46.5 53.5t73.5 34t97.5 12q38 0 78.5 -5.5t81.5 -16.5zM411 831l62 -110l-224 -119q-14 -8 -24 -8q-11 0 -20 9.5t-18 25.5t-11.5 24.5t-2.5 13.5 q0 9 5.5 14.5t14.5 11.5z" />
<glyph unicode="&#x15c;" d="M512 560q-41 10 -81.5 15.5t-72.5 5.5q-66 0 -102 -21.5t-36 -61.5q0 -28 16.5 -46t61.5 -34l59 -21q34 -12 61 -27t46 -36t29 -49.5t10 -67.5q0 -57 -21 -99.5t-59.5 -71t-91.5 -42.5t-116 -14q-28 0 -57.5 2.5t-57.5 7.5t-53 11.5t-43 14.5q-18 7 -18 25q0 12 5.5 31.5 t11.5 34.5q10 25 24 25q6 0 23 -6q32 -11 74 -19.5t86 -8.5q69 0 108 24.5t39 72.5q0 32 -21.5 48.5t-64.5 31.5l-59 21q-141 50 -141 182q0 45 18 84t54.5 67t92 44t129.5 16q48 0 93.5 -6t83.5 -16zM428 979q26 0 37 -16l94 -130q4 -5 5 -8.5t1 -6.5q0 -8 -6.5 -17 t-21.5 -21q-24 -20 -40 -20q-10 0 -19 10l-79 90h-10l-108 -86q-8 -7 -14 -10.5t-13 -3.5q-8 0 -15 5.5t-22 23.5q-18 22 -18 33q0 9 12 20l131 122q9 8 18 11.5t23 3.5h45z" />
<glyph unicode="&#x15d;" horiz-adv-x="462" d="M406 410q-28 8 -61 13.5t-66 5.5q-55 0 -78 -15t-23 -34q0 -18 13 -28.5t45 -21.5l51 -18q56 -20 85 -52.5t29 -87.5q0 -39 -16 -72.5t-46.5 -57.5t-74.5 -38t-100 -14q-45 0 -86.5 8t-73.5 20q-17 8 -17 24q0 6 2 19t6 24q7 21 13.5 29.5t15.5 8.5q5 0 10 -1.5t10 -3.5 q20 -7 51 -14t65 -7q46 0 76.5 13.5t30.5 50.5q0 17 -12.5 28.5t-44.5 22.5l-51 18q-60 21 -89 53t-29 83q0 38 16.5 69.5t46.5 53.5t73.5 34t97.5 12q38 0 78.5 -5.5t81.5 -16.5zM332 819q26 0 37 -16l94 -130q4 -5 5 -8.5t1 -6.5q0 -8 -6.5 -17t-21.5 -21q-24 -20 -40 -20 q-10 0 -19 10l-79 90h-10l-108 -86q-8 -7 -14 -10.5t-13 -3.5q-8 0 -15 5.5t-22 23.5q-18 22 -18 33q0 9 12 20l131 122q9 8 18 11.5t23 3.5h45z" />
<glyph unicode="&#x15e;" d="M228 -116q-16 0 -31.5 -5t-27.5 -5t-21 9q-7 7 -7.5 13.5t3.5 15.5l30 79q-48 3 -94 12t-76 23q-18 7 -18 25q0 12 5.5 31.5t11.5 34.5q10 25 24 25q6 0 23 -6q32 -11 74 -19.5t86 -8.5q69 0 108 24.5t39 72.5q0 32 -21.5 48.5t-64.5 31.5l-59 21q-141 50 -141 182 q0 45 18 84t54.5 67t92 44t129.5 16q48 0 93.5 -6t83.5 -16l-30 -117q-41 10 -81.5 15.5t-72.5 5.5q-66 0 -102 -21.5t-36 -61.5q0 -28 16.5 -46t61.5 -34l59 -21q34 -12 61 -27t46 -36t29 -49.5t10 -67.5q0 -52 -18 -92t-50 -68t-77.5 -44.5t-99.5 -20.5l-14 -37 q18 10 43 10q34 0 57.5 -21.5t23.5 -68.5q0 -60 -42 -96.5t-111 -36.5q-36 0 -68 8t-44 16l-4.5 4.5t-2.5 8.5q0 10 6.5 27.5t11.5 26.5q7 12 17 12q5 0 11.5 -3t16.5 -6q21 -6 44 -6t37.5 7t14.5 24q0 23 -27 23z" />
<glyph unicode="&#x15f;" horiz-adv-x="462" d="M406 410q-28 8 -61 13.5t-66 5.5q-55 0 -78 -15t-23 -34q0 -18 13 -28.5t45 -21.5l51 -18q56 -20 85 -52.5t29 -87.5q0 -73 -53.5 -122.5t-151.5 -57.5l-14 -37q18 10 43 10q33 0 57 -21.5t24 -69.5q0 -60 -42 -96t-111 -36q-40 0 -70 8t-42 16l-4.5 4.5t-2.5 8.5 q0 10 6.5 27.5t11.5 26.5q7 12 17 12q5 0 11.5 -3t16.5 -6q21 -6 48 -6q24 0 38.5 7t14.5 24q0 12 -9.5 17.5t-22.5 5.5q-11 0 -21.5 -2t-20.5 -5q-9 -3 -17 -3q-12 0 -21 9q-7 7 -7.5 13.5t3.5 15.5l31 81q-31 4 -58.5 10t-50.5 15q-17 8 -17 24q0 6 2 19t6 24 q7 21 13.5 29.5t15.5 8.5q5 0 10 -1.5t10 -3.5q20 -7 51 -14t65 -7q46 0 76.5 13.5t30.5 50.5q0 17 -12.5 28.5t-44.5 22.5l-51 18q-60 21 -89 53t-29 83q0 38 16.5 69.5t46.5 53.5t73.5 34t97.5 12q38 0 78.5 -5.5t81.5 -16.5z" />
<glyph unicode="&#x160;" d="M512 560q-41 10 -81.5 15.5t-72.5 5.5q-66 0 -102 -21.5t-36 -61.5q0 -28 16.5 -46t61.5 -34l59 -21q34 -12 61 -27t46 -36t29 -49.5t10 -67.5q0 -57 -21 -99.5t-59.5 -71t-91.5 -42.5t-116 -14q-28 0 -57.5 2.5t-57.5 7.5t-53 11.5t-43 14.5q-18 7 -18 25q0 12 5.5 31.5 t11.5 34.5q10 25 24 25q6 0 23 -6q32 -11 74 -19.5t86 -8.5q69 0 108 24.5t39 72.5q0 32 -21.5 48.5t-64.5 31.5l-59 21q-141 50 -141 182q0 45 18 84t54.5 67t92 44t129.5 16q48 0 93.5 -6t83.5 -16zM374 760q-26 0 -40 4.5t-28 23.5l-102 140l77 64l99 -113h10l147 117 l61 -71l-150 -140q-15 -14 -33 -19.5t-41 -5.5z" />
<glyph unicode="&#x161;" horiz-adv-x="462" d="M406 410q-28 8 -61 13.5t-66 5.5q-55 0 -78 -15t-23 -34q0 -18 13 -28.5t45 -21.5l51 -18q56 -20 85 -52.5t29 -87.5q0 -39 -16 -72.5t-46.5 -57.5t-74.5 -38t-100 -14q-45 0 -86.5 8t-73.5 20q-17 8 -17 24q0 6 2 19t6 24q7 21 13.5 29.5t15.5 8.5q5 0 10 -1.5t10 -3.5 q20 -7 51 -14t65 -7q46 0 76.5 13.5t30.5 50.5q0 17 -12.5 28.5t-44.5 22.5l-51 18q-60 21 -89 53t-29 83q0 38 16.5 69.5t46.5 53.5t73.5 34t97.5 12q38 0 78.5 -5.5t81.5 -16.5zM277 600q-26 0 -40 4.5t-28 23.5l-102 140l77 64l99 -113h10l147 117l61 -71l-150 -140 q-15 -14 -33 -19.5t-41 -5.5z" />
<glyph unicode="&#x162;" horiz-adv-x="590" d="M253 573h-200l21 116h550l-21 -116h-207l-95 -547q-3 -15 -19.5 -23t-58.5 -8q-29 0 -47.5 4.5t-18.5 17.5q0 10 4 30zM206 -277q-5 -16 -18 -22.5t-47 -6.5q-23 0 -35.5 4t-12.5 18q0 7 2.5 18t7.5 27l45 168h132z" />
<glyph unicode="&#x163;" horiz-adv-x="416" d="M50 501q45 32 96.5 73t105.5 86h41l-23 -134h153l-26 -108h-146l-42 -238q-2 -12 -3.5 -22t-1.5 -16q0 -39 53 -39q11 0 23 1t19 2q6 1 11 1.5t10 0.5q14 0 14 -22q0 -23 -6 -50q-4 -16 -9.5 -24t-22.5 -12t-40 -6t-46 -2q-79 0 -116 32q-33 30 -33 90q0 11 2 29.5 t7 42.5l41 232h-71q-17 0 -17 15q0 5 0.5 14t2.5 16q3 14 7.5 22t16.5 16z" />
<glyph unicode="&#x164;" horiz-adv-x="590" d="M253 573h-200l21 116h550l-21 -116h-207l-95 -547q-3 -15 -19.5 -23t-58.5 -8q-29 0 -47.5 4.5t-18.5 17.5q0 10 4 30zM357 760q-26 0 -40 4.5t-28 23.5l-102 140l77 64l99 -113h10l147 117l61 -71l-150 -140q-15 -14 -33 -19.5t-41 -5.5z" />
<glyph unicode="&#x165;" horiz-adv-x="416" d="M50 501q45 32 96.5 73t105.5 86h41l-23 -134h153l-26 -108h-146l-42 -238q-2 -12 -3.5 -22t-1.5 -16q0 -39 53 -39q11 0 23 1t19 2q6 1 11 1.5t10 0.5q14 0 14 -22q0 -23 -6 -50q-4 -16 -9.5 -24t-22.5 -12t-40 -6t-46 -2q-79 0 -116 32q-33 30 -33 90q0 11 2 29.5 t7 42.5l41 232h-71q-17 0 -17 15q0 5 0.5 14t2.5 16q3 14 7.5 22t16.5 16z" />
<glyph unicode="&#x166;" horiz-adv-x="650" d="M235 302h-114q-8 0 -11.5 5t-3.5 19t3 35q5 37 15 47t19 10h113l27 155h-200l21 116h550l-21 -116h-207l-27 -155h151l-21 -116h-150l-48 -276q-3 -15 -19.5 -23t-58.5 -8q-29 0 -47.5 4.5t-18.5 17.5q0 10 4 30z" />
<glyph unicode="&#x167;" horiz-adv-x="430" d="M57 501q45 32 96.5 73t105.5 86h41l-23 -134h153l-26 -108h-146l-16 -89h110l-19 -108h-110l-7 -41q-2 -12 -3.5 -22t-1.5 -16q0 -39 53 -39q11 0 23 1t19 2q6 1 11 1.5t10 0.5q14 0 14 -22q0 -23 -6 -50q-4 -16 -9.5 -24t-22.5 -12t-40 -6t-46 -2q-79 0 -116 32 q-33 30 -33 90q0 11 2 29.5t7 42.5l6 35h-50q-9 0 -12 6t-3 16q0 6 1 15.5t3 20.5q7 35 16 42.5t16 7.5h48l16 89h-71q-17 0 -17 15q0 5 0.5 14t2.5 16q3 14 7.5 22t16.5 16z" />
<glyph unicode="&#x168;" horiz-adv-x="677" d="M599 253q-12 -69 -33 -115t-58 -78q-42 -37 -99.5 -53.5t-127.5 -16.5q-121 0 -184 47t-63 143q0 14 1.5 32t4.5 35l78 442h144l-77 -436q-2 -14 -3.5 -26t-1.5 -25q0 -22 5 -39t18 -29q28 -26 92 -26q42 0 67 10.5t43 27.5q20 19 31.5 44t17.5 57l78 442h144zM231 799 q-18 18 -18 31q0 8 9 21q29 42 63 69t71 27q22 0 40.5 -9t35 -19.5t32 -19t32.5 -8.5q23 0 39 16t32 37l68 -49q-27 -52 -62 -85t-79 -33q-23 0 -42 8.5t-35.5 19t-31.5 19t-31 8.5q-18 0 -32 -11.5t-30 -28.5q-13 -14 -23 -14q-17 0 -38 21z" />
<glyph unicode="&#x169;" horiz-adv-x="572" d="M545 526l-64 -364q-8 -41 -12.5 -77.5t-7.5 -62.5q-2 -12 -16.5 -18.5t-50.5 -6.5q-19 0 -30 1t-17 5t-8 11t-3 18q-1 7 -1 17v20q-35 -38 -80.5 -58.5t-90.5 -20.5q-32 0 -61 10t-49 32q-16 17 -25 41t-9 54t6 65l59 334h140l-57 -323q-2 -12 -3.5 -24.5t-1.5 -21.5 q0 -32 18 -45t45 -13q29 0 60.5 16.5t54.5 45.5l64 365h140zM153 639q-18 18 -18 31q0 8 9 21q29 42 63 69t71 27q22 0 40.5 -9t35 -19.5t32 -19t32.5 -8.5q23 0 39 16t32 37l68 -49q-27 -52 -62 -85t-79 -33q-23 0 -42 8.5t-35.5 19t-31.5 19t-31 8.5q-18 0 -32 -11.5 t-30 -28.5q-13 -14 -23 -14q-17 0 -38 21z" />
<glyph unicode="&#x16a;" horiz-adv-x="677" d="M599 253q-12 -69 -33 -115t-58 -78q-42 -37 -99.5 -53.5t-127.5 -16.5q-121 0 -184 47t-63 143q0 14 1.5 32t4.5 35l78 442h144l-77 -436q-2 -14 -3.5 -26t-1.5 -25q0 -22 5 -39t18 -29q28 -26 92 -26q42 0 67 10.5t43 27.5q20 19 31.5 44t17.5 57l78 442h144zM574 785 h-301q-10 0 -14.5 5t-4.5 20q0 11 3 31q5 32 13.5 43t18.5 11h304z" />
<glyph unicode="&#x16b;" horiz-adv-x="572" d="M545 526l-64 -364q-8 -41 -12.5 -77.5t-7.5 -62.5q-2 -12 -16.5 -18.5t-50.5 -6.5q-19 0 -30 1t-17 5t-8 11t-3 18q-1 7 -1 17v20q-35 -38 -80.5 -58.5t-90.5 -20.5q-32 0 -61 10t-49 32q-16 17 -25 41t-9 54t6 65l59 334h140l-57 -323q-2 -12 -3.5 -24.5t-1.5 -21.5 q0 -32 18 -45t45 -13q29 0 60.5 16.5t54.5 45.5l64 365h140zM494 625h-301q-10 0 -14.5 5t-4.5 20q0 11 3 31q5 32 13.5 43t18.5 11h304z" />
<glyph unicode="&#x16c;" horiz-adv-x="677" d="M599 253q-12 -69 -33 -115t-58 -78q-42 -37 -99.5 -53.5t-127.5 -16.5q-121 0 -184 47t-63 143q0 14 1.5 32t4.5 35l78 442h144l-77 -436q-2 -14 -3.5 -26t-1.5 -25q0 -22 5 -39t18 -29q28 -26 92 -26q42 0 67 10.5t43 27.5q20 19 31.5 44t17.5 57l78 442h144zM395 746 q-33 0 -61 9t-48.5 28.5t-32 48.5t-11.5 70q0 10 0.5 19t1.5 18h111q-3 -15 -3 -31q0 -27 11.5 -43.5t38.5 -16.5q35 0 58.5 26t31.5 65h111q-5 -38 -21 -72.5t-42 -61.5t-62.5 -43t-82.5 -16z" />
<glyph unicode="&#x16d;" horiz-adv-x="572" d="M545 526l-64 -364q-8 -41 -12.5 -77.5t-7.5 -62.5q-2 -12 -16.5 -18.5t-50.5 -6.5q-19 0 -30 1t-17 5t-8 11t-3 18q-1 7 -1 17v20q-35 -38 -80.5 -58.5t-90.5 -20.5q-32 0 -61 10t-49 32q-16 17 -25 41t-9 54t6 65l59 334h140l-57 -323q-2 -12 -3.5 -24.5t-1.5 -21.5 q0 -32 18 -45t45 -13q29 0 60.5 16.5t54.5 45.5l64 365h140zM327 586q-33 0 -61 9t-48.5 28.5t-32 48.5t-11.5 70q0 10 0.5 19t1.5 18h111q-3 -15 -3 -31q0 -27 11.5 -43.5t38.5 -16.5q35 0 58.5 26t31.5 65h111q-5 -38 -21 -72.5t-42 -61.5t-62.5 -43t-82.5 -16z" />
<glyph unicode="&#x16e;" horiz-adv-x="677" d="M599 253q-12 -69 -33 -115t-58 -78q-42 -37 -99.5 -53.5t-127.5 -16.5q-121 0 -184 47t-63 143q0 14 1.5 32t4.5 35l78 442h144l-77 -436q-2 -14 -3.5 -26t-1.5 -25q0 -22 5 -39t18 -29q28 -26 92 -26q42 0 67 10.5t43 27.5q20 19 31.5 44t17.5 57l78 442h144zM419 824 q22 0 34.5 16.5t12.5 36.5q0 14 -7 23t-22 9q-23 0 -35 -17.5t-12 -36.5q0 -14 7 -22.5t22 -8.5zM410 742q-46 0 -76.5 26t-30.5 78q0 29 10.5 55.5t29 46.5t45 31.5t58.5 11.5q46 0 76.5 -26t30.5 -78q0 -29 -10.5 -55.5t-29 -46.5t-45 -31.5t-58.5 -11.5z" />
<glyph unicode="&#x16f;" horiz-adv-x="572" d="M545 526l-64 -364q-8 -41 -12.5 -77.5t-7.5 -62.5q-2 -12 -16.5 -18.5t-50.5 -6.5q-19 0 -30 1t-17 5t-8 11t-3 18q-1 7 -1 17v20q-35 -38 -80.5 -58.5t-90.5 -20.5q-32 0 -61 10t-49 32q-16 17 -25 41t-9 54t6 65l59 334h140l-57 -323q-2 -12 -3.5 -24.5t-1.5 -21.5 q0 -32 18 -45t45 -13q29 0 60.5 16.5t54.5 45.5l64 365h140zM339 664q22 0 34.5 16.5t12.5 36.5q0 14 -7 23t-22 9q-23 0 -35 -17.5t-12 -36.5q0 -14 7 -22.5t22 -8.5zM330 582q-46 0 -76.5 26t-30.5 78q0 29 10.5 55.5t29 46.5t45 31.5t58.5 11.5q46 0 76.5 -26t30.5 -78 q0 -29 -10.5 -55.5t-29 -46.5t-45 -31.5t-58.5 -11.5z" />
<glyph unicode="&#x170;" horiz-adv-x="677" d="M599 253q-12 -69 -33 -115t-58 -78q-42 -37 -99.5 -53.5t-127.5 -16.5q-121 0 -184 47t-63 143q0 14 1.5 32t4.5 35l78 442h144l-77 -436q-2 -14 -3.5 -26t-1.5 -25q0 -22 5 -39t18 -29q28 -26 92 -26q42 0 67 10.5t43 27.5q20 19 31.5 44t17.5 57l78 442h144zM430 1010 l73 -105l-210 -138q-17 -11 -28 -11q-16 0 -36 28q-9 13 -12 21.5t-3 14.5q0 5 3 9.5t12 12.5zM683 1010l73 -105l-210 -138q-17 -11 -28 -11q-16 0 -36 28q-9 13 -12 21.5t-3 14.5q0 5 3 9.5t12 12.5z" />
<glyph unicode="&#x171;" horiz-adv-x="572" d="M545 526l-64 -364q-8 -41 -12.5 -77.5t-7.5 -62.5q-2 -12 -16.5 -18.5t-50.5 -6.5q-19 0 -30 1t-17 5t-8 11t-3 18q-1 7 -1 17v20q-35 -38 -80.5 -58.5t-90.5 -20.5q-32 0 -61 10t-49 32q-16 17 -25 41t-9 54t6 65l59 334h140l-57 -323q-2 -12 -3.5 -24.5t-1.5 -21.5 q0 -32 18 -45t45 -13q29 0 60.5 16.5t54.5 45.5l64 365h140zM354 850l73 -105l-210 -138q-17 -11 -28 -11q-16 0 -36 28q-9 13 -12 21.5t-3 14.5q0 5 3 9.5t12 12.5zM607 850l73 -105l-210 -138q-17 -11 -28 -11q-16 0 -36 28q-9 13 -12 21.5t-3 14.5q0 5 3 9.5t12 12.5z " />
<glyph unicode="&#x172;" horiz-adv-x="677" d="M419 -197q-18 -9 -47.5 -15t-58.5 -6q-24 0 -46 5t-39 15.5t-27.5 28t-10.5 43.5q0 39 22 68t60 48q-117 2 -177.5 49t-60.5 141q0 14 1.5 32t4.5 35l78 442h144l-77 -436q-2 -14 -3.5 -26t-1.5 -25q0 -22 5 -39t18 -29q28 -26 92 -26q42 0 67 10.5t43 27.5 q20 19 31.5 44t17.5 57l78 442h144l-77 -436q-8 -43 -18.5 -78t-27.5 -63t-42 -50t-60 -39q-62 -29 -98 -58t-36 -65q0 -25 28 -25q9 0 20.5 2t20.5 5q8 3 14 5.5t11 2.5q4 0 8 -2t6 -10q4 -11 6 -27t2 -24q0 -11 -3.5 -16t-10.5 -8z" />
<glyph unicode="&#x173;" horiz-adv-x="572" d="M545 526l-64 -364q-8 -41 -12.5 -77.5t-7.5 -62.5q-1 -14 -25 -22q-48 -18 -73.5 -44t-25.5 -58q0 -23 28 -23q9 0 20.5 2t20.5 5q8 3 14 5.5t11 2.5q4 0 8 -2t6 -10q4 -11 6 -27t2 -24q0 -11 -3.5 -16t-10.5 -8q-18 -9 -47.5 -15t-58.5 -6q-24 0 -46 5t-39 15.5 t-27.5 28t-10.5 43.5q0 83 127 146q0 2 -0.5 5t-0.5 7q-1 7 -1 17v20q-35 -38 -80.5 -58.5t-90.5 -20.5q-32 0 -61 10t-49 32q-16 17 -25 41t-9 54t6 65l59 334h140l-57 -323q-2 -12 -3.5 -24.5t-1.5 -21.5q0 -32 18 -45t45 -13q29 0 60.5 16.5t54.5 45.5l64 365h140z" />
<glyph unicode="&#x174;" horiz-adv-x="1003" d="M637 689q14 0 20.5 -5.5t6.5 -21.5l-5 -534h10q107 269 211 561h159q-33 -84 -68.5 -169.5t-71 -169t-70 -162t-66.5 -147.5q-11 -23 -37 -32t-80 -9q-60 0 -85.5 9.5t-25.5 32.5l2 514h-10l-171 -509q-8 -23 -37.5 -35t-89.5 -12q-32 0 -52 2.5t-31.5 8t-16 13 t-5.5 17.5q-6 63 -13 140t-13 161t-11 172t-9 175h151q1 -163 5 -300t10 -261h9l177 534q5 14 15 20.5t24 6.5h168zM623 979q26 0 37 -16l94 -130q4 -5 5 -8.5t1 -6.5q0 -8 -6.5 -17t-21.5 -21q-24 -20 -40 -20q-10 0 -19 10l-79 90h-10l-108 -86q-8 -7 -14 -10.5t-13 -3.5 q-8 0 -15 5.5t-22 23.5q-18 22 -18 33q0 9 12 20l131 122q9 8 18 11.5t23 3.5h45z" />
<glyph unicode="&#x175;" horiz-adv-x="803" d="M820 526q-24 -61 -51.5 -127.5t-55 -131.5t-54.5 -124.5t-49 -106.5q-5 -10 -11 -16.5t-17.5 -11t-29.5 -6.5t-45 -2q-53 0 -72.5 8t-20.5 22l-14 330h-7l-132 -330q-4 -9 -9 -15t-15.5 -9.5t-27.5 -4.5t-44 -1q-53 0 -73 5.5t-23 23.5q-6 48 -11.5 109t-11 127.5 t-10 133.5t-7.5 127h148q-2 -102 0 -205t5 -193h9l148 377q5 11 12 16t27 5h86q20 0 25 -4.5t6 -16.5l20 -377h10q34 88 72.5 190.5t71.5 207.5h151zM491 819q26 0 37 -16l94 -130q4 -5 5 -8.5t1 -6.5q0 -8 -6.5 -17t-21.5 -21q-24 -20 -40 -20q-10 0 -19 10l-79 90h-10 l-108 -86q-8 -7 -14 -10.5t-13 -3.5q-8 0 -15 5.5t-22 23.5q-18 22 -18 33q0 9 12 20l131 122q9 8 18 11.5t23 3.5h45z" />
<glyph unicode="&#x176;" horiz-adv-x="641" d="M236 252q-45 105 -86 212t-77 225h153q25 -92 49 -169t44 -132h8q18 27 41.5 62.5t48 75.5t49.5 81.5t48 81.5h169q-80 -123 -155 -230.5t-151 -210.5l-37 -222q-3 -15 -19.5 -23t-58.5 -8q-29 0 -47.5 4.5t-18.5 17.5q0 4 1 11t3 19zM440 979q26 0 37 -16l94 -130 q4 -5 5 -8.5t1 -6.5q0 -8 -6.5 -17t-21.5 -21q-24 -20 -40 -20q-10 0 -19 10l-79 90h-10l-108 -86q-8 -7 -14 -10.5t-13 -3.5q-8 0 -15 5.5t-22 23.5q-18 22 -18 33q0 9 12 20l131 122q9 8 18 11.5t23 3.5h45z" />
<glyph unicode="&#x177;" horiz-adv-x="530" d="M549 526q-83 -180 -173.5 -360.5t-192.5 -369.5q-8 -15 -26 -20.5t-58 -5.5q-62 0 -62 20q0 9 9 23q22 38 49.5 86.5t56.5 100.5q-22 0 -34 5.5t-16 24.5q-11 55 -22.5 117t-22 126t-20.5 128.5t-18 124.5h143q4 -46 9.5 -98t12.5 -104.5t14 -103t14 -92.5h7q22 45 45 95 t46 101.5t45.5 102.5t42.5 99h151zM344 819q26 0 37 -16l94 -130q4 -5 5 -8.5t1 -6.5q0 -8 -6.5 -17t-21.5 -21q-24 -20 -40 -20q-10 0 -19 10l-79 90h-10l-108 -86q-8 -7 -14 -10.5t-13 -3.5q-8 0 -15 5.5t-22 23.5q-18 22 -18 33q0 9 12 20l131 122q9 8 18 11.5t23 3.5h45 z" />
<glyph unicode="&#x178;" horiz-adv-x="641" d="M236 252q-45 105 -86 212t-77 225h153q25 -92 49 -169t44 -132h8q18 27 41.5 62.5t48 75.5t49.5 81.5t48 81.5h169q-80 -123 -155 -230.5t-151 -210.5l-37 -222q-3 -15 -19.5 -23t-58.5 -8q-29 0 -47.5 4.5t-18.5 17.5q0 4 1 11t3 19zM282 770q-34 0 -51 18t-17 47 q0 39 24.5 68t72.5 29q34 0 51.5 -17.5t17.5 -46.5q0 -39 -25 -68.5t-73 -29.5zM491 770q-34 0 -51 18t-17 47q0 39 24.5 68t72.5 29q34 0 51.5 -17.5t17.5 -46.5q0 -39 -25 -68.5t-73 -29.5z" />
<glyph unicode="&#x179;" horiz-adv-x="582" d="M21 0q-16 0 -22 3t-11 11q-5 11 -9 24.5t-4 24.5q0 9 4 18.5t15 22.5l406 469h-310l21 116h442q13 0 19 -3t10 -11q5 -10 9 -22t4 -23q0 -12 -4 -22.5t-15 -22.5l-409 -469h298q12 0 18 -4.5t6 -19.5q0 -8 -3 -26.5t-6 -32.5q-8 -33 -39 -33h-420zM498 991l62 -110 l-224 -119q-14 -8 -24 -8q-11 0 -20 9.5t-18 25.5t-11.5 24.5t-2.5 13.5q0 9 5.5 14.5t14.5 11.5z" />
<glyph unicode="&#x17a;" horiz-adv-x="475" d="M381 108q21 0 21 -26q0 -6 -1 -18t-3 -22q-3 -22 -12 -32t-27 -10h-347q-14 0 -21 4t-11 14q-7 17 -7 31q0 19 12 33l303 336h-238l19 108h363q16 0 23.5 -5.5t10.5 -16.5q6 -21 6 -35q0 -21 -14 -37l-295 -324h218zM419 831l62 -110l-224 -119q-14 -8 -24 -8 q-11 0 -20 9.5t-18 25.5t-11.5 24.5t-2.5 13.5q0 9 5.5 14.5t14.5 11.5z" />
<glyph unicode="&#x17b;" horiz-adv-x="582" d="M21 0q-16 0 -22 3t-11 11q-5 11 -9 24.5t-4 24.5q0 9 4 18.5t15 22.5l406 469h-310l21 116h442q13 0 19 -3t10 -11q5 -10 9 -22t4 -23q0 -12 -4 -22.5t-15 -22.5l-409 -469h298q12 0 18 -4.5t6 -19.5q0 -8 -3 -26.5t-6 -32.5q-8 -33 -39 -33h-420zM401 949q35 0 53 -19.5 t18 -52.5q0 -21 -7.5 -41t-21 -35.5t-33 -25t-43.5 -9.5q-35 0 -53 19.5t-18 52.5q0 21 7.5 41t21 35.5t33 25t43.5 9.5z" />
<glyph unicode="&#x17c;" horiz-adv-x="475" d="M381 108q21 0 21 -26q0 -6 -1 -18t-3 -22q-3 -22 -12 -32t-27 -10h-347q-14 0 -21 4t-11 14q-7 17 -7 31q0 19 12 33l303 336h-238l19 108h363q16 0 23.5 -5.5t10.5 -16.5q6 -21 6 -35q0 -21 -14 -37l-295 -324h218zM316 789q35 0 53 -19.5t18 -52.5q0 -21 -7.5 -41 t-21 -35.5t-33 -25t-43.5 -9.5q-35 0 -53 19.5t-18 52.5q0 21 7.5 41t21 35.5t33 25t43.5 9.5z" />
<glyph unicode="&#x17d;" horiz-adv-x="582" d="M21 0q-16 0 -22 3t-11 11q-5 11 -9 24.5t-4 24.5q0 9 4 18.5t15 22.5l406 469h-310l21 116h442q13 0 19 -3t10 -11q5 -10 9 -22t4 -23q0 -12 -4 -22.5t-15 -22.5l-409 -469h298q12 0 18 -4.5t6 -19.5q0 -8 -3 -26.5t-6 -32.5q-8 -33 -39 -33h-420zM360 760q-26 0 -40 4.5 t-28 23.5l-102 140l77 64l99 -113h10l147 117l61 -71l-150 -140q-15 -14 -33 -19.5t-41 -5.5z" />
<glyph unicode="&#x17e;" horiz-adv-x="475" d="M381 108q21 0 21 -26q0 -6 -1 -18t-3 -22q-3 -22 -12 -32t-27 -10h-347q-14 0 -21 4t-11 14q-7 17 -7 31q0 19 12 33l303 336h-238l19 108h363q16 0 23.5 -5.5t10.5 -16.5q6 -21 6 -35q0 -21 -14 -37l-295 -324h218zM285 600q-26 0 -40 4.5t-28 23.5l-102 140l77 64 l99 -113h10l147 117l61 -71l-150 -140q-15 -14 -33 -19.5t-41 -5.5z" />
<glyph unicode="&#x17f;" horiz-adv-x="325" d="M125 418h-72q-19 0 -19 21q0 10 3 27.5t8 32.5q7 19 26 20l71 5l7 42q7 42 20.5 71.5t33.5 50.5q27 29 72.5 42.5t105.5 13.5q25 0 52 -2.5t53 -8.5l-24 -107q-23 4 -43 6t-35 2q-45 0 -67.5 -16t-28.5 -52l-90 -556q-11 -64 -27 -111.5t-43 -76.5q-26 -27 -66.5 -39.5 t-88.5 -12.5q-43 0 -82 10q-17 5 -17 21q0 10 1.5 24.5t8.5 34.5q5 15 11 19.5t13 4.5q4 0 10 -1t11 -2q7 -1 16 -1.5t21 -0.5q22 0 37 5.5t24.5 20t16.5 38.5t13 60z" />
<glyph unicode="&#x192;" horiz-adv-x="435" d="M103 281h-75q-8 0 -12 4.5t-4 16.5q0 10 3 27.5t8 32.5q7 19 24 20l75 6l21 119q18 102 76.5 147t150.5 45q29 0 58.5 -3t52.5 -8l-24 -107q-17 4 -37.5 6t-38.5 2q-83 0 -98 -86l-21 -114h142l-23 -108h-138l-46 -264q-11 -64 -25.5 -115t-46.5 -82q-46 -43 -135 -43 q-48 0 -84 11q-17 5 -17 21q0 17 10 57q4 14 10 19.5t13 5.5q4 0 9.5 -1t11.5 -2q21 -3 37 -3q31 0 45 14q14 12 19.5 44.5t13.5 77.5z" />
<glyph unicode="&#x218;" d="M512 560q-41 10 -81.5 15.5t-72.5 5.5q-66 0 -102 -21.5t-36 -61.5q0 -28 16.5 -46t61.5 -34l59 -21q34 -12 61 -27t46 -36t29 -49.5t10 -67.5q0 -57 -21 -99.5t-59.5 -71t-91.5 -42.5t-116 -14q-28 0 -57.5 2.5t-57.5 7.5t-53 11.5t-43 14.5q-18 7 -18 25q0 12 5.5 31.5 t11.5 34.5q10 25 24 25q6 0 23 -6q32 -11 74 -19.5t86 -8.5q69 0 108 24.5t39 72.5q0 32 -21.5 48.5t-64.5 31.5l-59 21q-141 50 -141 182q0 45 18 84t54.5 67t92 44t129.5 16q48 0 93.5 -6t83.5 -16zM220 -277q-5 -16 -18 -22.5t-47 -6.5q-23 0 -35.5 4t-12.5 18 q0 7 2.5 18t7.5 27l45 168h132z" />
<glyph unicode="&#x219;" horiz-adv-x="462" d="M406 410q-28 8 -61 13.5t-66 5.5q-55 0 -78 -15t-23 -34q0 -18 13 -28.5t45 -21.5l51 -18q56 -20 85 -52.5t29 -87.5q0 -39 -16 -72.5t-46.5 -57.5t-74.5 -38t-100 -14q-45 0 -86.5 8t-73.5 20q-17 8 -17 24q0 6 2 19t6 24q7 21 13.5 29.5t15.5 8.5q5 0 10 -1.5t10 -3.5 q20 -7 51 -14t65 -7q46 0 76.5 13.5t30.5 50.5q0 17 -12.5 28.5t-44.5 22.5l-51 18q-60 21 -89 53t-29 83q0 38 16.5 69.5t46.5 53.5t73.5 34t97.5 12q38 0 78.5 -5.5t81.5 -16.5zM162 -277q-5 -16 -18 -22.5t-47 -6.5q-23 0 -35.5 4t-12.5 18q0 7 2.5 18t7.5 27l45 168h132 z" />
<glyph unicode="&#x21a;" horiz-adv-x="590" d="M253 573h-200l21 116h550l-21 -116h-207l-95 -547q-3 -15 -19.5 -23t-58.5 -8q-29 0 -47.5 4.5t-18.5 17.5q0 10 4 30zM206 -277q-5 -16 -18 -22.5t-47 -6.5q-23 0 -35.5 4t-12.5 18q0 7 2.5 18t7.5 27l45 168h132z" />
<glyph unicode="&#x21b;" horiz-adv-x="416" d="M50 501q45 32 96.5 73t105.5 86h41l-23 -134h153l-26 -108h-146l-42 -238q-2 -12 -3.5 -22t-1.5 -16q0 -39 53 -39q11 0 23 1t19 2q6 1 11 1.5t10 0.5q14 0 14 -22q0 -23 -6 -50q-4 -16 -9.5 -24t-22.5 -12t-40 -6t-46 -2q-79 0 -116 32q-33 30 -33 90q0 11 2 29.5 t7 42.5l41 232h-71q-17 0 -17 15q0 5 0.5 14t2.5 16q3 14 7.5 22t16.5 16z" />
<glyph unicode="&#x2c6;" horiz-adv-x="385" d="M239 819q26 0 37 -16l94 -130q4 -5 5 -8.5t1 -6.5q0 -8 -6.5 -17t-21.5 -21q-24 -20 -40 -20q-10 0 -19 10l-79 90h-10l-108 -86q-8 -7 -14 -10.5t-13 -3.5q-8 0 -15 5.5t-22 23.5q-18 22 -18 33q0 9 12 20l131 122q9 8 18 11.5t23 3.5h45z" />
<glyph unicode="&#x2c7;" horiz-adv-x="405" d="M176 600q-26 0 -40 4.5t-28 23.5l-102 140l77 64l99 -113h10l147 117l61 -71l-150 -140q-15 -14 -33 -19.5t-41 -5.5z" />
<glyph unicode="&#x2d8;" horiz-adv-x="378" d="M163 586q-33 0 -61 9t-48.5 28.5t-32 48.5t-11.5 70q0 10 0.5 19t1.5 18h111q-3 -15 -3 -31q0 -27 11.5 -43.5t38.5 -16.5q35 0 58.5 26t31.5 65h111q-5 -38 -21 -72.5t-42 -61.5t-62.5 -43t-82.5 -16z" />
<glyph unicode="&#x2d9;" horiz-adv-x="197" d="M115 789q35 0 53 -19.5t18 -52.5q0 -21 -7.5 -41t-21 -35.5t-33 -25t-43.5 -9.5q-35 0 -53 19.5t-18 52.5q0 21 7.5 41t21 35.5t33 25t43.5 9.5z" />
<glyph unicode="&#x2da;" horiz-adv-x="260" d="M121 664q22 0 34.5 16.5t12.5 36.5q0 14 -7 23t-22 9q-23 0 -35 -17.5t-12 -36.5q0 -14 7 -22.5t22 -8.5zM112 582q-46 0 -76.5 26t-30.5 78q0 29 10.5 55.5t29 46.5t45 31.5t58.5 11.5q46 0 76.5 -26t30.5 -78q0 -29 -10.5 -55.5t-29 -46.5t-45 -31.5t-58.5 -11.5z" />
<glyph unicode="&#x2db;" horiz-adv-x="270" d="M238 -197q-18 -9 -47.5 -15t-58.5 -6q-24 0 -46 5t-39 15.5t-27.5 28t-10.5 43.5t11 49.5t30 44t44 38.5t53 33h118q-27 -18 -50.5 -36.5t-41 -36.5t-27.5 -35t-10 -33q0 -23 28 -23q9 0 20.5 2t20.5 5q8 3 14 5.5t11 2.5q4 0 8 -2t6 -10q4 -11 6 -27t2 -24 q0 -11 -3.5 -16t-10.5 -8z" />
<glyph unicode="&#x2dc;" horiz-adv-x="438" d="M25 639q-18 18 -18 31q0 8 9 21q29 42 63 69t71 27q22 0 40.5 -9t35 -19.5t32 -19t32.5 -8.5q23 0 39 16t32 37l68 -49q-27 -52 -62 -85t-79 -33q-23 0 -42 8.5t-35.5 19t-31.5 19t-31 8.5q-18 0 -32 -11.5t-30 -28.5q-13 -14 -23 -14q-17 0 -38 21z" />
<glyph unicode="&#x2dd;" horiz-adv-x="556" d="M222 850l73 -105l-210 -138q-17 -11 -28 -11q-16 0 -36 28q-9 13 -12 21.5t-3 14.5q0 5 3 9.5t12 12.5zM475 850l73 -105l-210 -138q-17 -11 -28 -11q-16 0 -36 28q-9 13 -12 21.5t-3 14.5q0 5 3 9.5t12 12.5z" />
<glyph unicode="&#x326;" horiz-adv-x="250" d="M187 -277q-5 -16 -18 -22.5t-47 -6.5q-23 0 -35.5 4t-12.5 18q0 7 2.5 18t7.5 27l45 168h132z" />
<glyph unicode="&#x3a9;" horiz-adv-x="736" d="M138 114q-40 27 -64.5 67t-24.5 105q0 40 10 90q13 64 41.5 127t80.5 111q43 39 102.5 62t137.5 23q81 0 132.5 -23.5t81.5 -60.5q29 -35 41 -80.5t12 -93.5q0 -25 -2.5 -51t-6.5 -49q-9 -57 -25 -95.5t-36 -64.5t-44 -41.5t-51 -25.5h116l-20 -114h-242q-19 0 -26 13 q-4 7 -7 21t-3 34q0 16 3.5 24t14.5 13q25 11 50.5 25.5t49 41t43 70t32.5 114.5q4 20 6.5 42t2.5 42q0 26 -6.5 52t-25.5 47q-33 38 -103 38q-43 0 -74 -14t-54 -37q-29 -29 -47 -70t-29 -97q-5 -25 -8 -50.5t-3 -46.5q0 -39 9.5 -65.5t23.5 -44t30 -28t29 -17.5 q12 -6 12 -19q0 -16 -10 -38.5t-18 -33.5q-11 -16 -36 -16h-240l20 114h125z" />
<glyph unicode="&#x3c0;" horiz-adv-x="628" d="M128 419h-94l19 107h574l-19 -107h-94l-41 -235q-4 -21 -5.5 -31.5t-1.5 -17.5q0 -14 7.5 -21t27.5 -7q9 0 17 1t13 1q19 0 19 -32q0 -8 -1 -19.5t-3 -23.5q-3 -16 -9 -22t-17 -10q-13 -4 -31.5 -6t-32.5 -2q-26 0 -53.5 8t-47.5 26q-19 17 -25 39t-6 43q0 15 2 32.5 t7 43.5l41 233h-106l-69 -393q-6 -31 -74 -31q-65 0 -65 29q0 3 1.5 12.5t6.5 38.5z" />
<glyph unicode="&#x2013;" horiz-adv-x="577" d="M33 203q-17 0 -17 25q0 9 2 26.5t7 32.5q6 20 12.5 26t15.5 6h476l-20 -116h-476v0z" />
<glyph unicode="&#x2014;" horiz-adv-x="1040" d="M33 203q-17 0 -17 25q0 9 2 26.5t7 32.5q6 20 12.5 26t15.5 6h939l-20 -116h-939v0z" />
<glyph unicode="&#x2018;" horiz-adv-x="239" d="M233.998 634.994q-7 -8.99902 -15.999 -21.998q-9 -12.999 -19.999 -29.998q-5 -7 -7 -13.499q-1.99902 -6.5 -1.99902 -10.5q0 -8.99902 8.99902 -17.999q17.999 -17.999 17.999 -45.9971q0 -17.999 -6.5 -34.498q-6.49902 -16.499 -18.499 -28.998 q-11.999 -12.499 -29.998 -20.499q-17.998 -7.99902 -41.9971 -7.99902q-66.9961 0 -66.9961 71.9951q0 24.999 10.5 53.9971q10.499 28.998 26.998 58.4961q16.499 29.499 38.4971 57.4971q21.999 27.998 43.998 49.9971q10.999 10.999 22.998 10.999q8 0 14.999 -2.5 q7 -2.5 17.999 -10.499q20.999 -14.999 20.999 -27.998q0 -7 -3.5 -13.5q-3.5 -6.49902 -11.499 -16.499z" />
<glyph unicode="&#x2019;" horiz-adv-x="240" d="M70 468q7 9 16 22t20 30q5 7 7 13.5t2 10.5q0 9 -9 18q-18 18 -18 46q0 18 6.5 34.5t18.5 29t30 20.5t42 8q67 0 67 -72q0 -25 -10.5 -54t-27 -58.5t-38.5 -57.5t-44 -50q-11 -11 -23 -11q-8 0 -15 2.5t-18 10.5q-21 15 -21 28q0 7 3.5 13.5t11.5 16.5z" />
<glyph unicode="&#x201a;" horiz-adv-x="245" d="M-27 -134q7 9 16 22t20 30q5 7 7 13.5t2 10.5q0 9 -9 18q-18 18 -18 46q0 18 6.5 34.5t18.5 29t30 20.5t42 8q67 0 67 -72q0 -25 -10.5 -54t-27 -58.5t-38.5 -57.5t-44 -50q-11 -11 -23 -11q-8 0 -15 2.5t-18 10.5q-21 15 -21 28q0 7 3.5 13.5t11.5 16.5z" />
<glyph unicode="&#x201c;" horiz-adv-x="461" d="M455.998 634.994q-7 -8.99902 -15.999 -21.998q-9 -12.999 -19.999 -29.998q-5 -7 -7 -13.499q-1.99902 -6.5 -1.99902 -10.5q0 -8.99902 8.99902 -17.999q17.999 -17.999 17.999 -45.9971q0 -17.999 -6.5 -34.498q-6.49902 -16.499 -18.499 -28.998 q-11.999 -12.499 -29.998 -20.499q-17.998 -7.99902 -41.9971 -7.99902q-66.9961 0 -66.9961 71.9951q0 24.999 10.5 53.9971q10.499 28.998 26.998 58.4961q16.499 29.499 38.4971 57.4971q21.999 27.998 43.998 49.9971q10.999 10.999 22.998 10.999q8 0 14.999 -2.5 q7 -2.5 17.999 -10.499q20.999 -14.999 20.999 -27.998q0 -7 -3.5 -13.5q-3.5 -6.49902 -11.499 -16.499zM233.998 634.994q-7 -8.99902 -15.999 -21.998q-9 -12.999 -19.999 -29.998q-5 -7 -7 -13.499q-1.99902 -6.5 -1.99902 -10.5q0 -8.99902 8.99902 -17.999 q17.999 -17.999 17.999 -45.9971q0 -17.999 -6.5 -34.498q-6.49902 -16.499 -18.499 -28.998q-11.999 -12.499 -29.998 -20.499q-17.998 -7.99902 -41.9971 -7.99902q-66.9961 0 -66.9961 71.9951q0 24.999 10.5 53.9971q10.499 28.998 26.998 58.4961 q16.499 29.499 38.4971 57.4971q21.999 27.998 43.998 49.9971q10.999 10.999 22.998 10.999q8 0 14.999 -2.5q7 -2.5 17.999 -10.499q20.999 -14.999 20.999 -27.998q0 -7 -3.5 -13.5q-3.5 -6.49902 -11.499 -16.499z" />
<glyph unicode="&#x201d;" horiz-adv-x="462" d="M292 468q7 9 16 22t20 30q5 7 7 13.5t2 10.5q0 9 -9 18q-18 18 -18 46q0 18 6.5 34.5t18.5 29t30 20.5t42 8q67 0 67 -72q0 -25 -10.5 -54t-27 -58.5t-38.5 -57.5t-44 -50q-11 -11 -23 -11q-8 0 -15 2.5t-18 10.5q-21 15 -21 28q0 7 3.5 13.5t11.5 16.5zM70 468 q7 9 16 22t20 30q5 7 7 13.5t2 10.5q0 9 -9 18q-18 18 -18 46q0 18 6.5 34.5t18.5 29t30 20.5t42 8q67 0 67 -72q0 -25 -10.5 -54t-27 -58.5t-38.5 -57.5t-44 -50q-11 -11 -23 -11q-8 0 -15 2.5t-18 10.5q-21 15 -21 28q0 7 3.5 13.5t11.5 16.5z" />
<glyph unicode="&#x201e;" horiz-adv-x="467" d="M195 -134q7 9 16 22t20 30q5 7 7 13.5t2 10.5q0 9 -9 18q-18 18 -18 46q0 18 6.5 34.5t18.5 29t30 20.5t42 8q67 0 67 -72q0 -25 -10.5 -54t-27 -58.5t-38.5 -57.5t-44 -50q-11 -11 -23 -11q-8 0 -15 2.5t-18 10.5q-21 15 -21 28q0 7 3.5 13.5t11.5 16.5zM-27 -134 q7 9 16 22t20 30q5 7 7 13.5t2 10.5q0 9 -9 18q-18 18 -18 46q0 18 6.5 34.5t18.5 29t30 20.5t42 8q67 0 67 -72q0 -25 -10.5 -54t-27 -58.5t-38.5 -57.5t-44 -50q-11 -11 -23 -11q-8 0 -15 2.5t-18 10.5q-21 15 -21 28q0 7 3.5 13.5t11.5 16.5z" />
<glyph unicode="&#x2020;" horiz-adv-x="419" d="M211 22q-6 -29 -65 -29q-52 0 -52 28q0 5 1 12.5t4 24.5l56 343l-114 -2l19 111l113 -2l30 181h132l-34 -181l113 2l-19 -111l-114 2z" />
<glyph unicode="&#x2021;" horiz-adv-x="419" d="M123 212l-100 -2l20 109l98 -2l14 84l-114 -2l19 111l113 -2l30 181h132l-34 -181l113 2l-19 -111l-114 2l-16 -84l102 2l-20 -109l-102 2l-35 -190q-3 -17 -19 -23t-44 -6q-54 0 -54 28q0 5 1 12.5t4 24.5l26 154h-1z" />
<glyph unicode="&#x2022;" horiz-adv-x="368" d="M185.536 233.986q-52.7588 0 -79.9375 26.4219t-27.1787 71.2588q0 59.249 39.1699 103.285q39.1689 44.0361 112.712 44.0361q52.7588 0 79.9375 -26.4219t27.1787 -71.2578q0 -59.249 -39.1689 -103.285q-39.1699 -44.0371 -112.713 -44.0371z" />
<glyph unicode="&#x2026;" horiz-adv-x="693" d="M51 -10q-33 0 -50 16.5t-17 44.5q0 37 24.5 64.5t70.5 27.5q33 0 50 -16.5t17 -44.5q0 -37 -24.5 -64.5t-70.5 -27.5zM282 -10q-33 0 -50 16.5t-17 44.5q0 37 24.5 64.5t70.5 27.5q33 0 50 -16.5t17 -44.5q0 -37 -24.5 -64.5t-70.5 -27.5zM513 -10q-33 0 -50 16.5 t-17 44.5q0 37 24.5 64.5t70.5 27.5q33 0 50 -16.5t17 -44.5q0 -37 -24.5 -64.5t-70.5 -27.5z" />
<glyph unicode="&#x2030;" horiz-adv-x="1216" d="M221 429q16 0 28.5 11.5t20.5 30t12 42.5t4 49q0 20 -8 33t-22 13q-17 0 -30 -11t-21 -29.5t-12 -42.5t-4 -50q0 -20 8 -33t24 -13zM209 338q-72 0 -103.5 39t-31.5 100q0 48 14 88.5t39.5 70.5t61.5 46.5t80 16.5q70 0 101 -39t31 -100q0 -48 -14 -88.5t-39 -70.5 t-60.5 -46.5t-78.5 -16.5zM623 699h144l-515 -681q-11 -14 -28.5 -21t-55.5 -7q-29 0 -41.5 5t-12.5 17q0 13 20 41zM601 81q16 0 28.5 11.5t20.5 30t12 42.5t4 49q0 20 -8 33t-22 13q-17 0 -30 -11t-21 -29.5t-12 -42.5t-4 -50q0 -20 8 -33t24 -13zM589 -10 q-72 0 -103.5 39t-31.5 100q0 48 14 88.5t39.5 70.5t61.5 46.5t80 16.5q70 0 101 -39t31 -100q0 -48 -14 -88.5t-39 -70.5t-60.5 -46.5t-78.5 -16.5zM962 81q16 0 28.5 11.5t20.5 30t12 42.5t4 49q0 20 -8 33t-22 13q-17 0 -30 -11t-21 -29.5t-12 -42.5t-4 -50q0 -20 8 -33 t24 -13zM950 -10q-72 0 -103.5 39t-31.5 100q0 48 14 88.5t39.5 70.5t61.5 46.5t80 16.5q70 0 101 -39t31 -100q0 -48 -14 -88.5t-39 -70.5t-60.5 -46.5t-78.5 -16.5z" />
<glyph unicode="&#x2039;" horiz-adv-x="401" d="M185 250l119 -143l-84 -71l-175 181q-14 16 -14 33q0 41 31 65l233 179l72 -85z" />
<glyph unicode="&#x203a;" horiz-adv-x="401" d="M186 280l-119 143l84 71l175 -181q14 -16 14 -33q0 -41 -31 -65l-233 -179l-72 85z" />
<glyph unicode="&#x2044;" horiz-adv-x="490" d="M432 699h144l-515 -681q-11 -14 -29.5 -21t-59.5 -7q-24 0 -40 5.5t-16 14.5q0 6 4.5 13t22.5 30z" />
<glyph unicode="&#x20ac;" horiz-adv-x="631" d="M483 576q-73 0 -121 -27t-77 -78h182l-19 -108h-205q-2 -11 -3 -21.5t-2 -21.5h203l-19 -108h-175q18 -99 142 -99q21 0 49.5 2.5t57.5 9.5q14 3 21.5 4.5t13.5 1.5q8 0 12.5 -7.5t4.5 -32.5q0 -14 -1.5 -28.5t-3.5 -25.5q-3 -13 -7.5 -18.5t-16.5 -9.5 q-29 -8 -69.5 -13.5t-79.5 -5.5q-118 0 -188.5 56t-86.5 166h-93q-15 0 -15 22q0 10 3 30q5 29 11.5 38.5t20.5 10.5l72 6l2 22t3 22h-71q-8 0 -11.5 6.5t-3.5 17.5q0 10 3 30q5 29 11.5 37.5t20.5 9.5l80 6q41 114 130.5 171.5t225.5 57.5q35 0 78 -5.5t83 -13.5l-28 -120 q-38 8 -71.5 12t-62.5 4z" />
<glyph unicode="&#x2116;" horiz-adv-x="1045" d="M870 429q19 0 34.5 12t26 30t16 40t5.5 42q0 26 -10 40.5t-31 14.5q-19 0 -34.5 -12t-26 -30t-16 -40t-5.5 -42q0 -26 10 -40.5t31 -14.5zM857 338q-68 0 -104 36t-36 105q0 43 14.5 83t41.5 70.5t65 48.5t85 18q69 0 105 -38.5t36 -107.5q0 -44 -14.5 -83t-41 -68 t-65 -46.5t-86.5 -17.5zM495 -3q-43 0 -60.5 6.5t-23.5 22.5l-185 487l-86 -487q-2 -14 -18 -22.5t-54 -8.5q-29 0 -47 6t-15 25l117 663h171l186 -498l88 498h134l-117 -663q-3 -15 -21 -22t-69 -7z" />
<glyph unicode="&#x2122;" horiz-adv-x="721" d="M513 523l69 153q4 8 8 10.5t14 2.5h85q23 0 22 -17q-2 -33 -4.5 -68.5t-5 -67.5t-5 -59.5t-4.5 -45.5q-2 -12 -15 -16t-34 -4t-32 3t-11 13q0 3 1.5 18.5t5.5 47.5l8 74h-3l-66 -140h-99l-10 140h-3q-2 -9 -6.5 -26t-9 -37l-9 -40t-7.5 -34q-2 -10 -13 -14.5t-39 -4.5 q-23 0 -32.5 3t-9.5 11q0 3 1 9t5 20q9 34 25 90t37 128q3 11 8 14t18 3h80q18 0 18 -14l11 -152h2zM137 610h-83l13 79h262l-13 -79h-83l-32 -179q-2 -10 -13.5 -15t-38.5 -5q-26 0 -34.5 4.5t-8.5 13.5q0 5 1.5 16t6.5 37z" />
<glyph unicode="&#x212e;" horiz-adv-x="820" d="M181 316q-5 0 -5 -5v-182q0 -10 9 -21q42 -45 100.5 -71t126.5 -26q72 0 133.5 29.5t103.5 79.5h54q-51 -58 -126.5 -93.5t-165.5 -35.5q-77 0 -144.5 26t-117.5 71t-79.5 105.5t-29.5 129.5t29.5 130t79.5 106t117.5 71t144.5 26q76 0 143 -26t117.5 -71t79.5 -106 t29 -130v-7h-599zM644 521q0 12 -10 22q-42 43 -99 68t-123 25q-68 0 -126 -25.5t-100 -70.5q-10 -8 -10 -23v-179q0 -5 5 -5h458q5 0 5 5v183z" />
<glyph unicode="&#x2190;" horiz-adv-x="666" d="M290 118q4 -4 1 -9.5t-17 -19.5l-9 -9q-14 -14 -19 -16.5t-9 1.5l-176 201q-8 9 -10.5 13t-2.5 9v8q0 5 2.5 9t10.5 13l176 201q4 4 9 1.5t19 -16.5l9 -9q14 -14 17 -19.5t-1 -9.5l-120 -133h443q5 0 7 -7t2 -27v-14q0 -20 -2 -27t-7 -7h-443z" />
<glyph unicode="&#x2191;" horiz-adv-x="666" d="M159 332q-4 -4 -9.5 -1t-19.5 17l-9 9q-14 14 -16.5 19t1.5 9l201 176q9 8 13 10.5t9 2.5h8q5 0 9 -2.5t13 -10.5l201 -176q4 -4 1.5 -9t-16.5 -19l-9 -9q-14 -14 -19.5 -17t-9.5 1l-133 120v-443q0 -5 -7 -7t-27 -2h-14q-20 0 -27 2t-7 7v443z" />
<glyph unicode="&#x2192;" horiz-adv-x="666" d="M496 251h-443q-5 0 -7 7t-2 27v14q0 20 2 27t7 7h443l-120 133q-4 4 -1 9.5t17 19.5l9 9q14 14 19 16.5t9 -1.5l176 -201q8 -9 10.5 -13t2.5 -9v-8q0 -5 -2.5 -9t-10.5 -13l-176 -201q-4 -4 -9 -1.5t-19 16.5l-9 9q-14 14 -17 19.5t1 9.5z" />
<glyph unicode="&#x2193;" horiz-adv-x="666" d="M292 122v443q0 5 7 7t27 2h14q20 0 27 -2t7 -7v-443l133 120q4 4 9.5 1t19.5 -17l9 -9q14 -14 16.5 -19t-1.5 -9l-201 -176q-9 -8 -13 -10.5t-9 -2.5h-8q-5 0 -9 2.5t-13 10.5l-201 176q-4 4 -1.5 9t16.5 19l9 9q14 14 19.5 17t9.5 -1z" />
<glyph unicode="&#x2202;" horiz-adv-x="608" d="M421 399q1 8 2 21t1 30q0 64 -27 100t-97 36q-26 0 -59 -5.5t-75 -18.5l3 111q42 14 75.5 20.5t71.5 6.5q65 0 112 -19.5t77.5 -57t45 -91t14.5 -122.5q0 -81 -20 -157t-60.5 -134t-102 -93t-145.5 -35q-103 0 -164 54.5t-61 156.5q0 57 19.5 105t52.5 80q41 40 87 51.5 t83 11.5q49 0 89 -12.5t78 -38.5zM405 293q-26 20 -56 31t-64 11t-59 -11t-41 -29.5t-23.5 -42.5t-7.5 -49q0 -51 26.5 -73.5t64.5 -22.5q53 0 95 43.5t65 142.5z" />
<glyph unicode="&#x2206;" horiz-adv-x="655" d="M454 689q32 0 35 -26l74 -538q6 -42 8.5 -61t2.5 -25q0 -18 -9.5 -28.5t-31.5 -10.5h-529q-34 0 -34 29q0 12 7 27l298 607q13 26 45 26h134zM369 557l-211 -442h267z" />
<glyph unicode="&#x220f;" horiz-adv-x="778" d="M184 570h-96l21 119h677l-21 -119h-96l-114 -653q-2 -14 -19.5 -23t-55.5 -9q-32 0 -50.5 7.5t-18.5 21.5q0 4 1 11.5t5 28.5l108 616h-197l-114 -653q-2 -14 -19.5 -23t-55.5 -9q-32 0 -50.5 7.5t-18.5 21.5q0 4 1 11.5t5 28.5z" />
<glyph unicode="&#x2211;" horiz-adv-x="570" d="M241 570l111 -214q11 -21 15 -33.5t4 -20.5q0 -5 -1 -12.5t-4 -18.5t-9.5 -22t-20.5 -29l-174 -211h300l-21 -119h-436q-23 0 -29 18q-5 14 -6.5 24.5t-1.5 17.5q0 14 3.5 26t17.5 29l239 291l1 6l-145 283q-7 14 -7 25q0 12 7.5 30t21.5 34q13 15 31 15h440l-21 -119 h-315z" />
<glyph unicode="&#x2212;" horiz-adv-x="534" d="M472 315l-19 -110h-409q-14 0 -14 24q0 11 3 31q5 35 13.5 45t16.5 10h409z" />
<glyph unicode="&#x221a;" horiz-adv-x="636" d="M195 485q19 0 27 -6.5t10 -21.5l33 -308h4l305 628h144l-377 -748q-8 -15 -18.5 -22t-33.5 -7h-86q-22 0 -32 8.5t-13 28.5l-46 338h-64q-16 0 -16 24q0 11 3 31q5 33 14 44t20 11h126z" />
<glyph unicode="&#x221e;" horiz-adv-x="788" d="M319 327q-17 31 -38.5 45t-47.5 14q-37 0 -60 -24t-23 -59q0 -31 17 -42.5t36 -11.5q29 0 57 21.5t59 56.5zM454 306q17 -31 38.5 -45t47.5 -14q37 0 60 24t23 59q0 31 -17 42.5t-36 11.5q-29 0 -57 -21.5t-59 -56.5zM373 231q-49 -50 -95.5 -69.5t-91.5 -19.5 q-34 0 -63 10t-50 29t-33 47.5t-12 65.5q0 41 15 77t42.5 62.5t66.5 42t87 15.5t90.5 -19t70.5 -70q49 50 95.5 69.5t91.5 19.5q34 0 63 -10t50 -29t33 -47.5t12 -65.5q0 -41 -15 -77t-42.5 -62.5t-66.5 -42t-87 -15.5t-90.5 19t-70.5 70z" />
<glyph unicode="&#x222b;" horiz-adv-x="392" d="M105 396q0 53 4.5 93.5t13.5 71.5t23 53.5t34 39.5q25 21 59 33t80 12q34 0 63 -5.5t52 -13.5l-32 -103q-13 3 -28 5.5t-32 2.5t-31 -4t-28 -17q-11 -10 -18 -25t-11 -40t-6 -62.5t-2 -91.5q0 -26 0.5 -65t0.5 -79.5t0.5 -75.5t0.5 -53q0 -50 -3.5 -88t-11 -66.5 t-20 -49.5t-31.5 -38q-32 -29 -72 -41t-89 -12q-26 0 -48 2.5t-36 6.5q-11 3 -15.5 8.5t-4.5 18.5q0 11 3 28.5t8 32.5q8 20 22 20q11 0 27 -3.5t36 -3.5q19 0 32.5 4.5t24.5 13.5q13 10 20 25.5t11 39.5t5 58.5t1 82.5q0 40 -0.5 83.5t-0.5 83t-0.5 71t-0.5 47.5z" />
<glyph unicode="&#x2248;" horiz-adv-x="544" d="M491 374q-37 -54 -72 -80t-78 -26q-26 0 -46 7.5t-37 17t-32 17t-30 7.5q-19 0 -35 -12t-33 -29q-10 -10 -18 -10q-6 0 -16 5.5t-20 13.5t-17.5 17.5t-7.5 18.5t14 26q27 34 59.5 54.5t71.5 20.5q25 0 46 -7.5t39 -16.5t34 -16.5t32 -7.5q17 0 34.5 12t40.5 42zM462 198 q-37 -54 -72 -80t-78 -26q-26 0 -46 7.5t-37 17t-32 17t-30 7.5q-19 0 -35 -12t-33 -29q-10 -10 -18 -10q-6 0 -16 5.5t-20 13.5t-17.5 17.5t-7.5 18.5t14 26q27 34 59.5 54.5t71.5 20.5q25 0 46 -7.5t39 -16.5t34 -16.5t32 -7.5q17 0 34.5 12t40.5 42z" />
<glyph unicode="&#x2260;" horiz-adv-x="564" d="M279 400l66 118h124l-66 -118h99l-19 -110h-142l-33 -60h164l-19 -110h-207l-52 -93q-6 -11 -21.5 -17t-47.5 -6q-23 0 -38.5 4t-15.5 15q0 5 3 10.5t8 14.5l41 72h-79q-14 0 -14 24q0 11 3 31q5 35 13.5 45t16.5 10h121l33 60h-143q-14 0 -14 24q0 11 3 31q5 35 13.5 45 t16.5 10h186z" />
<glyph unicode="&#x2264;" horiz-adv-x="564" d="M78 312q-8 4 -11.5 10t-3.5 18v7.5t2 15.5q4 26 10.5 35t14.5 13l388 172l43 -104l-283 -124l226 -114l-55 -98zM452 110l-19 -110h-409q-14 0 -14 24q0 11 3 31q5 35 13.5 45t16.5 10h409z" />
<glyph unicode="&#x2265;" horiz-adv-x="564" d="M488 414q8 -4 11.5 -10t3.5 -18v-7.5t-2 -15.5q-4 -26 -10.5 -35t-14.5 -13l-388 -172l-43 104l283 124l-226 114l55 98zM5 0l19 110h409q14 0 14 -24q0 -12 -3 -31q-5 -35 -13.5 -45t-16.5 -10h-409z" />
<glyph unicode="&#x25ca;" horiz-adv-x="642" d="M56 292q-5 10 -7 17.5t-2 15.5q0 18 6.5 33t19.5 29l246 277q22 25 51 25h20q30 0 43 -25l148 -277q5 -10 7 -17.5t2 -15.5q0 -18 -6.5 -33t-19.5 -29l-246 -277q-22 -25 -51 -25h-20q-30 0 -43 25zM181 325l94 -175l181 204l-94 175z" />
<glyph unicode="&#x266a;" horiz-adv-x="690" d="M513 408q-3 -2 -5.5 -0.5t-8.5 10.5l-4 6q-6 9 -6.5 11.5t2.5 4.5q32 22 32 50q0 16 -8.5 27t-22 19t-31.5 14t-37 13q-17 5 -32.5 13t-29.5 20v-472q0 -64 -37.5 -99t-108.5 -35q-56 0 -86 24t-30 56t29.5 56t82.5 24q24 0 50 -7t46 -20v588q0 5 3.5 7t19.5 2h8 q16 0 19.5 -2t3.5 -7v-25q24 -18 51 -29t53 -21q25 -9 47.5 -18t39.5 -22t27 -31t10 -46q0 -31 -20 -60.5t-57 -50.5z" />
<glyph unicode="&#xe000;" horiz-adv-x="525" d="M0 525h525v-525h-525v525z" />
<glyph unicode="&#xf8ff;" horiz-adv-x="535" d="M460 201h-258v62h195v66h-195v193h258v-64h-192v-64h192v-193zM460 586h-320v-521h71v-65h-136v650h385v-64z" />
<glyph horiz-adv-x="315" d="M287 849q6 -5 9.5 -9t3.5 -11q0 -6 -4 -16t-16 -27q-14 -19 -22.5 -25.5t-16.5 -6.5q-9 0 -26 10l-198 117l73 110z" />
<glyph horiz-adv-x="321" d="M250 991l62 -110l-224 -119q-14 -8 -24 -8q-11 0 -20 9.5t-18 25.5t-11.5 24.5t-2.5 13.5q0 9 5.5 14.5t14.5 11.5z" />
<glyph horiz-adv-x="391" d="M76 770q-34 0 -51 18t-17 47q0 39 24.5 68t72.5 29q34 0 51.5 -17.5t17.5 -46.5q0 -39 -25 -68.5t-73 -29.5zM285 770q-34 0 -51 18t-17 47q0 39 24.5 68t72.5 29q34 0 51.5 -17.5t17.5 -46.5q0 -39 -25 -68.5t-73 -29.5z" />
<glyph horiz-adv-x="385" d="M239 979q26 0 37 -16l94 -130q4 -5 5 -8.5t1 -6.5q0 -8 -6.5 -17t-21.5 -21q-24 -20 -40 -20q-10 0 -19 10l-79 90h-10l-108 -86q-8 -7 -14 -10.5t-13 -3.5q-8 0 -15 5.5t-22 23.5q-18 22 -18 33q0 9 12 20l131 122q9 8 18 11.5t23 3.5h45z" />
<glyph horiz-adv-x="438" d="M25 799q-18 18 -18 31q0 8 9 21q29 42 63 69t71 27q22 0 40.5 -9t35 -19.5t32 -19t32.5 -8.5q23 0 39 16t32 37l68 -49q-27 -52 -62 -85t-79 -33q-23 0 -42 8.5t-35.5 19t-31.5 19t-31 8.5q-18 0 -32 -11.5t-30 -28.5q-13 -14 -23 -14q-17 0 -38 21z" />
<glyph horiz-adv-x="354" d="M328 785h-301q-10 0 -14.5 5t-4.5 20q0 11 3 31q5 32 13.5 43t18.5 11h304z" />
<glyph horiz-adv-x="378" d="M163 746q-33 0 -61 9t-48.5 28.5t-32 48.5t-11.5 70q0 10 0.5 19t1.5 18h111q-3 -15 -3 -31q0 -27 11.5 -43.5t38.5 -16.5q35 0 58.5 26t31.5 65h111q-5 -38 -21 -72.5t-42 -61.5t-62.5 -43t-82.5 -16z" />
<glyph horiz-adv-x="197" d="M115 949q35 0 53 -19.5t18 -52.5q0 -21 -7.5 -41t-21 -35.5t-33 -25t-43.5 -9.5q-35 0 -53 19.5t-18 52.5q0 21 7.5 41t21 35.5t33 25t43.5 9.5z" />
<glyph horiz-adv-x="260" d="M121 824q22 0 34.5 16.5t12.5 36.5q0 14 -7 23t-22 9q-23 0 -35 -17.5t-12 -36.5q0 -14 7 -22.5t22 -8.5zM112 742q-46 0 -76.5 26t-30.5 78q0 29 10.5 55.5t29 46.5t45 31.5t58.5 11.5q46 0 76.5 -26t30.5 -78q0 -29 -10.5 -55.5t-29 -46.5t-45 -31.5t-58.5 -11.5z" />
<glyph horiz-adv-x="556" d="M222 1010l73 -105l-210 -138q-17 -11 -28 -11q-16 0 -36 28q-9 13 -12 21.5t-3 14.5q0 5 3 9.5t12 12.5zM475 1010l73 -105l-210 -138q-17 -11 -28 -11q-16 0 -36 28q-9 13 -12 21.5t-3 14.5q0 5 3 9.5t12 12.5z" />
<glyph horiz-adv-x="405" d="M176 760q-26 0 -40 4.5t-28 23.5l-102 140l77 64l99 -113h10l147 117l61 -71l-150 -140q-15 -14 -33 -19.5t-41 -5.5z" />
</font>
</defs>
</svg>
