<?xml version="1.0" standalone="no"?>
<!DOCTYPE svg PUBLIC "-//W3C//DTD SVG 1.1//EN" "http://www.w3.org/Graphics/SVG/1.1/DTD/svg11.dtd" >
<svg xmlns="http://www.w3.org/2000/svg">
<metadata></metadata>
<defs>
<font id="itv_reem_web_lightregular" horiz-adv-x="228" >
<font-face units-per-em="1000" ascent="750" descent="-250" />
<missing-glyph horiz-adv-x="226" />
<glyph unicode="&#xfb01;" horiz-adv-x="602" d="M534 526v-501q0 -8 -5.5 -18t-33.5 -10t-33.5 10t-5.5 18v501h78zM207 465v-440q0 -8 -5.5 -18t-33.5 -10t-33.5 10t-5.5 18v440h-87q-11 0 -15.5 5t-4.5 22t4.5 22t15.5 6l87 6v37q0 48 11.5 78t30.5 49q32 32 79.5 43t102.5 11q44 0 74.5 -4.5t53.5 -10.5l-5 -61 q-25 5 -51 9.5t-59 4.5q-45 0 -77 -6t-54 -28q-14 -14 -21 -32.5t-7 -45.5v-44h160l-3 -61h-157z" />
<glyph unicode="&#xfb02;" horiz-adv-x="657" d="M364 465h-157v-440q0 -8 -5.5 -18t-33.5 -10t-33.5 10t-5.5 18v440h-87q-11 0 -15.5 5t-4.5 22t4.5 22t15.5 6l87 6v50q0 48 17 79t44 51q31 21 75.5 29.5t107.5 8.5q43 0 81.5 -2.5t79.5 -7.5v-594q0 -23 1.5 -40.5t12.5 -28.5q8 -8 22 -11t27 -3q9 0 18 1.5t14 1.5 q4 0 6 -1.5t3 -7.5q1 -5 2 -18t1 -19t-1.5 -8.5t-8.5 -4.5q-14 -3 -28.5 -4.5t-25.5 -1.5q-63 0 -93 32q-15 16 -21.5 41.5t-6.5 68.5v540q-21 2 -49 3.5t-45 1.5q-33 0 -64.5 -4.5t-54.5 -21.5q-17 -13 -26.5 -33t-9.5 -47v-50h160z" />
<glyph horiz-adv-x="1000" />
<glyph horiz-adv-x="1000" />
<glyph unicode="&#xd;" horiz-adv-x="226" />
<glyph unicode=" "  horiz-adv-x="226" />
<glyph unicode="&#x09;" horiz-adv-x="226" />
<glyph unicode="&#xa0;" horiz-adv-x="226" />
<glyph unicode="!" horiz-adv-x="204" d="M102 99q50 0 50 -50v-9q0 -23 -12 -36.5t-38 -13.5q-27 0 -38.5 13.5t-11.5 36.5v9q0 24 11.5 37t38.5 13zM145 689l-13 -488q0 -16 -7 -21t-24 -5q-15 0 -21.5 5.5t-6.5 19.5l-12 489h84z" />
<glyph unicode="&#x22;" horiz-adv-x="337" d="M285 450q0 -5 -4.5 -10.5t-21.5 -5.5q-18 0 -22 5.5t-4 10.5l-9 239h69zM105 450q0 -5 -4.5 -10.5t-21.5 -5.5q-18 0 -22 5.5t-4 10.5l-9 239h69z" />
<glyph unicode="#" horiz-adv-x="629" d="M264 434l-39 -178h145l39 178h-145zM194 434h-96q-7 0 -12 1t-5 7q0 5 4 22q5 22 8.5 26t15.5 4h99l42 195h70l-42 -195h144l42 195h70l-42 -195h116l-15 -60h-114l-39 -178h117l-15 -60h-116l-41 -183q-2 -7 -8.5 -11.5t-29.5 -4.5q-18 0 -25.5 3t-7.5 10q0 2 3 17 l39 169h-145l-41 -183q-2 -7 -8.5 -11.5t-29.5 -4.5q-18 0 -25.5 3t-7.5 10q0 2 3 17l39 169h-96q-7 0 -12 1t-5 7q0 5 4 22q5 22 8.5 26t15.5 4h99z" />
<glyph unicode="$" horiz-adv-x="590" d="M462 176q0 33 -10.5 55t-28 36t-40.5 22.5t-48 15.5v-245q25 3 48 11.5t40.5 22.5t28 34.5t10.5 47.5zM137 518q0 -47 30 -73t98 -47v230q-25 -2 -48 -10t-41 -21.5t-28.5 -33.5t-10.5 -45zM265 320q-45 15 -82.5 30t-64 36.5t-41.5 53.5t-15 80q0 37 14.5 68t41 53.5 t64 37t83.5 18.5v102h70v-100q54 -2 97.5 -11.5t69.5 -17.5l-7 -66l-32 8t-35 7t-41.5 6t-51.5 5v-248q42 -12 79.5 -25t65 -34.5t43.5 -54.5t16 -83t-18 -85.5t-47.5 -58t-66 -34.5t-72.5 -15v-90q0 -11 -8 -16.5t-29 -5.5q-20 0 -26.5 5.5t-6.5 17.5v89q-120 0 -198 32 q-12 5 -12 17q0 9 3 26q3 15 7.5 19t9.5 4q4 0 17 -4q23 -7 43.5 -12t40.5 -8t41.5 -4.5t47.5 -1.5v260z" />
<glyph unicode="%" horiz-adv-x="844" d="M665 699l-390 -676q-12 -21 -23 -27t-36 -6q-12 0 -21 3.5t-9 12.5q0 5 2 9t5 9l391 675h81zM201 399q32 0 49 18q23 25 23 103q0 76 -23 101q-18 19 -49 19t-49 -19q-23 -25 -23 -101q0 -78 23 -103q17 -18 49 -18zM202 699q31 0 57.5 -9t42.5 -25q44 -44 44 -145 q0 -102 -44 -146q-16 -16 -42.5 -25t-57.5 -9t-57.5 9t-42.5 25q-44 44 -44 146q0 101 44 145q16 16 42.5 25t57.5 9zM641 49q32 0 49 18q23 25 23 103q0 76 -23 101q-18 19 -49 19t-49 -19q-23 -25 -23 -101q0 -78 23 -103q17 -18 49 -18zM642 349q31 0 57.5 -9t42.5 -25 q44 -44 44 -145q0 -102 -44 -146q-16 -16 -42.5 -25t-57.5 -9t-57.5 9t-42.5 25q-44 44 -44 146q0 101 44 145q16 16 42.5 25t57.5 9z" />
<glyph unicode="&#x26;" horiz-adv-x="681" d="M495 158q26 35 38 83.5t12 95.5v11h68v-15q0 -63 -17 -119.5t-54 -105.5q14 -15 24.5 -25.5t19.5 -17t18.5 -9t20.5 -2.5q4 0 10.5 0.5t8.5 0.5q8 0 9.5 -4.5t3.5 -21.5q2 -19 1 -23t-6 -6q-20 -5 -38 -5q-16 0 -29.5 3t-28 10.5t-30.5 20t-36 32.5q-39 -33 -93 -52 t-112 -19q-47 0 -90.5 9.5t-76.5 31t-52.5 57t-19.5 88.5q0 37 13 67.5t35 54.5t51 42.5t61 31.5q-21 21 -39 40t-31 38.5t-20 40.5t-7 47q0 34 13 63t37 50t58 33t76 12q37 0 68.5 -11t54.5 -32t36.5 -50.5t13.5 -66.5q0 -25 -7.5 -48t-25.5 -45t-47.5 -43t-73.5 -42z M290 58q45 0 85.5 14.5t69.5 39.5l-198 218q-22 -10 -43.5 -23.5t-38.5 -31.5t-27.5 -41t-10.5 -52q0 -35 13 -58.5t35 -38t52 -21t63 -6.5zM187 529q0 -33 21 -60.5t64 -68.5q36 17 58 32t35 30.5t17.5 32t4.5 37.5q0 24 -8 42t-21.5 30t-31 17.5t-36.5 5.5 q-46 0 -74.5 -26t-28.5 -72z" />
<glyph unicode="'" horiz-adv-x="157" d="M105 450q0 -5 -4.5 -10.5t-21.5 -5.5q-18 0 -22 5.5t-4 10.5l-9 239h69z" />
<glyph unicode="(" horiz-adv-x="283" d="M141 248q0 -127 35.5 -237t107.5 -200l-47 -31q-42 42 -74 96.5t-54 115t-33.5 126t-11.5 130.5t12 131t34 127t54 115t73 95l47 -33q-69 -88 -106 -197.5t-37 -237.5z" />
<glyph unicode=")" horiz-adv-x="283" d="M146 248q0 128 -37 237.5t-106 197.5l47 33q40 -41 72.5 -95t54.5 -115t34 -127t12 -131t-11.5 -130.5t-33.5 -126t-54 -115t-74 -96.5l-47 31q72 90 107.5 200t35.5 237z" />
<glyph unicode="*" horiz-adv-x="384" d="M111 361l-52 38l101 117l-132 30l21 57l122 -49l-8 145h60l-9 -145l121 49l21 -57l-132 -31l102 -116l-53 -38l-81 128z" />
<glyph unicode="+" horiz-adv-x="527" d="M229 226h-142q-10 0 -14.5 6t-4.5 28t5.5 27.5t13.5 5.5h142v162h71v-162h159v-67h-159v-138q0 -8 -6 -17t-31 -9q-24 0 -29 9t-5 17v138z" />
<glyph unicode="," horiz-adv-x="184" d="M151 45q0 -47 -17 -92.5t-43 -89.5q-8 -14 -11 -17t-7 -3q-7 0 -18 5q-17 8 -17 16q0 4 2 8.5t7 13.5q8 15 14.5 30t12.5 29q3 7 6 15.5t3 13.5q0 8 -3.5 11t-11.5 8q-15 9 -20.5 21t-5.5 32q0 30 13 43.5t42 13.5t41.5 -14.5t12.5 -43.5z" />
<glyph unicode="-" horiz-adv-x="365" d="M317 296v-67h-254q-10 0 -14.5 6t-4.5 28t5.5 27.5t13.5 5.5h254z" />
<glyph unicode="." horiz-adv-x="187" d="M94 103q29 0 40.5 -14t11.5 -40v-5q0 -24 -11.5 -39t-40.5 -15q-31 0 -42 15t-11 39v5q0 26 11 40t42 14z" />
<glyph unicode="/" horiz-adv-x="360" d="M32 4q0 4 1 8t4 13l216 674h75l-219 -685q-4 -12 -12.5 -18t-32.5 -6q-18 0 -25 4.5t-7 9.5z" />
<glyph unicode="0" horiz-adv-x="650" d="M512 345q0 91 -14 148t-44 92q-24 27 -57.5 38.5t-71.5 11.5q-39 0 -72.5 -11.5t-57.5 -38.5q-29 -34 -43 -91.5t-14 -148.5t14 -149.5t43 -91.5q24 -27 57.5 -38.5t72.5 -11.5q38 0 71.5 11.5t57.5 38.5q30 34 44 92t14 149zM58 345q0 105 21 176t62 113 q34 34 80.5 49.5t103.5 15.5q58 0 104 -15.5t80 -49.5q41 -42 62 -113t21 -176t-21 -176.5t-62 -113.5q-34 -34 -80 -49.5t-104 -15.5q-57 0 -103.5 15.5t-80.5 49.5q-41 42 -62 113.5t-21 176.5z" />
<glyph unicode="1" horiz-adv-x="443" d="M275 618q-24 -15 -51 -32.5t-54.5 -35t-54 -34t-49.5 -29.5l-32 60q47 27 101 61.5t101 65.5q13 8 22.5 11.5t23.5 3.5h49q12 0 16 -4t4 -18v-644q0 -9 -5.5 -17.5t-32.5 -8.5t-32.5 8.5t-5.5 18.5v594z" />
<glyph unicode="2" horiz-adv-x="555" d="M75 0q-2 0 -7 1t-9 7q-3 5 -6.5 15.5t-3.5 18.5q0 5 1.5 12t9.5 13q105 76 174 134.5t109 107t56 92.5t16 92q0 67 -40 104t-115 37q-95 0 -191 -44l-14 61q43 21 98 34.5t116 13.5q50 0 91.5 -14t71.5 -40t47 -63t17 -82q0 -57 -22.5 -112t-65.5 -109t-105 -106.5 t-141 -104.5h323q8 0 13.5 -7.5t5.5 -26.5q0 -20 -4.5 -27.5t-14.5 -6.5h-410z" />
<glyph unicode="3" horiz-adv-x="580" d="M49 53q0 20 8 36q5 11 16 11q3 0 17 -6q37 -17 80.5 -26.5t94.5 -9.5q94 0 139 39.5t45 106.5q0 36 -12.5 59.5t-34.5 37t-51 19t-62 5.5h-89q-8 0 -11 6.5t-3 27.5q0 19 3 25t11 6h65q28 0 58 4t54.5 17t40 37t15.5 64q0 28 -8 50.5t-26.5 38.5t-48.5 24.5t-75 8.5 t-94.5 -9.5t-97.5 -26.5l-13 60q40 17 96 29t111 12q60 0 103.5 -14t72.5 -38.5t43 -57.5t14 -72q0 -59 -27.5 -98.5t-82.5 -55.5v-3q69 -21 99 -61t30 -103q0 -97 -65.5 -151.5t-191.5 -54.5q-56 0 -113 11.5t-97 30.5q-6 3 -9.5 7.5t-3.5 13.5z" />
<glyph unicode="4" horiz-adv-x="611" d="M519 23q0 -9 -4.5 -17.5t-31.5 -8.5t-32 8.5t-5 18.5v147h-353q-9 0 -15 1t-11 4.5t-9.5 9.5t-10.5 16q-5 7 -7.5 14t-2.5 16q0 10 6 24t17 32q26 43 56.5 92.5t62.5 101.5t65.5 104.5t65.5 102.5h94q-39 -54 -74.5 -108t-70.5 -109.5t-70 -113t-72 -120.5h327v184h75 v-399z" />
<glyph unicode="5" horiz-adv-x="572" d="M305 423q59 0 100 -15.5t66.5 -43t37 -64.5t11.5 -80q0 -51 -15.5 -93.5t-47 -73t-78.5 -47t-110 -16.5t-118.5 14t-91.5 33q-7 4 -10 8.5t-3 14.5q0 8 2 17.5t7 19.5q5 9 14 9q3 0 8 -2l10 -4q45 -20 90 -31t87 -11q95 0 135.5 42t40.5 114q0 34 -7 61.5t-25 46.5 t-47.5 29t-74.5 10q-48 0 -89.5 -11.5t-70.5 -22.5q-24 -10 -38 1q-8 6 -10 12.5t-2 14.5q1 9 2 19q1 8 1.5 18.5t2.5 20.5l32 258q2 12 5.5 15t11.5 3h337v-67h-290l-29 -231q43 19 82.5 25.5t73.5 6.5z" />
<glyph unicode="6" horiz-adv-x="614" d="M135 352q51 39 104.5 60.5t112.5 21.5q43 0 81.5 -14t67.5 -41t46 -66t17 -88q0 -51 -17 -94.5t-48.5 -74.5t-75.5 -48.5t-97 -17.5q-125 0 -196.5 87.5t-71.5 269.5q0 87 24 153t66 110t98 66.5t119 22.5q38 0 72.5 -5.5t65.5 -15.5l-11 -61q-26 8 -58 12.5t-65 4.5 q-118 0 -173.5 -72t-60.5 -210zM321 52q40 0 71 12.5t52.5 35t32.5 54t11 68.5q0 69 -39.5 109.5t-108.5 40.5q-55 0 -109 -24.5t-94 -59.5q0 -56 14 -100t39 -74t58.5 -46t72.5 -16z" />
<glyph unicode="7" horiz-adv-x="557" d="M499 689q12 0 16 -8q10 -22 10 -32q0 -6 -2 -11t-6 -13l-305 -595q-12 -21 -23 -27t-38 -6q-32 0 -32 15q0 6 7 19l312 589h-408v69h469z" />
<glyph unicode="8" horiz-adv-x="611" d="M561 190q0 -90 -65 -145t-187 -55q-131 0 -195 55t-64 146q0 27 9 52t25 47t38 39t48 28q-52 26 -74 66.5t-22 92.5q0 51 21.5 86t55 56.5t75.5 31t84 9.5q119 0 175.5 -47t56.5 -123q0 -55 -29 -96.5t-83 -71.5q37 -12 62 -30t40.5 -40.5t22 -48t6.5 -52.5zM309 52 q89 0 131 40.5t42 102.5q0 52 -38 78.5t-121 44.5l-84 18q-22 -7 -42 -20.5t-35 -31.5t-24 -39.5t-9 -45.5q0 -66 44.5 -106.5t135.5 -40.5zM363 380q48 24 76.5 59t28.5 81q0 31 -12.5 53t-33.5 36.5t-50 21.5t-62 7q-41 0 -71 -10t-49.5 -27t-28.5 -39.5t-9 -46.5 q0 -44 24.5 -74t83.5 -41z" />
<glyph unicode="9" horiz-adv-x="606" d="M261 -10q-32 0 -68.5 4t-62.5 12q-9 3 -12 7t-3 12q0 5 0.5 11t1.5 11q4 22 15 22q3 0 10 -1.5t18 -3.5q19 -4 45.5 -7t46.5 -3q62 0 104 18t68 54t37.5 89t13.5 122q-51 -39 -104.5 -60.5t-112.5 -21.5q-43 0 -81.5 14t-67.5 41t-46 65.5t-17 88.5q0 51 17 94.5 t48.5 74.5t75.5 48.5t97 17.5q62 0 112 -22t84.5 -66.5t53 -111.5t18.5 -157q0 -175 -76 -263.5t-215 -88.5zM289 637q-40 0 -71 -12.5t-52.5 -35t-32.5 -54t-11 -68.5q0 -69 39.5 -109.5t108.5 -40.5q55 0 109 24.5t94 59.5q0 56 -14 100t-39 74t-58.5 46t-72.5 16z" />
<glyph unicode=":" horiz-adv-x="187" d="M94 103q29 0 40.5 -14t11.5 -40v-5q0 -24 -11.5 -39t-40.5 -15q-31 0 -42 15t-11 39v5q0 26 11 40t42 14zM94 410q29 0 40.5 -14t11.5 -40v-5q0 -24 -11.5 -39t-40.5 -15q-31 0 -42 15t-11 39v5q0 26 11 40t42 14z" />
<glyph unicode=";" horiz-adv-x="184" d="M92 410q29 0 40.5 -14t11.5 -40v-5q0 -24 -11.5 -39t-40.5 -15q-31 0 -42 15t-11 39v5q0 26 11 40t42 14zM148 45q0 -47 -17 -92.5t-43 -89.5q-8 -14 -11 -17t-7 -3q-7 0 -18 5q-17 8 -17 16q0 4 2 8.5t7 13.5q8 15 14.5 30t12.5 29q3 7 6 15.5t3 13.5q0 8 -3.5 11 t-11.5 8q-15 9 -20.5 21t-5.5 32q0 30 13 43.5t42 13.5t41.5 -14.5t12.5 -43.5z" />
<glyph unicode="&#x3c;" horiz-adv-x="527" d="M459 416l-312 -154l312 -154l-30 -60l-341 176q-12 6 -16 13.5t-4 24.5q0 20 5 26.5t15 11.5l341 176z" />
<glyph unicode="=" horiz-adv-x="527" d="M87 318q-10 0 -14.5 6t-4.5 28t5.5 27.5t13.5 5.5h372v-67h-372zM87 135q-10 0 -14.5 6t-4.5 28t5.5 27.5t13.5 5.5h372v-67h-372z" />
<glyph unicode="&#x3e;" horiz-adv-x="527" d="M98 476l341 -176q10 -5 15 -11.5t5 -26.5q0 -17 -4 -24.5t-16 -13.5l-341 -176l-30 60l312 154l-312 154z" />
<glyph unicode="?" horiz-adv-x="450" d="M177 99q50 0 50 -50v-9q0 -23 -12 -36.5t-38 -13.5q-27 0 -38.5 13.5t-11.5 36.5v9q0 24 11.5 37t38.5 13zM143 296q0 24 8.5 33.5t37.5 21.5q48 20 76.5 39t43 37.5t18.5 37.5t4 40q0 60 -38.5 93.5t-108.5 33.5q-42 0 -78.5 -7t-65.5 -15l-6 65q32 11 70.5 17.5 t89.5 6.5q47 0 87 -11.5t69 -34t45 -57.5t16 -81t-15.5 -79t-40.5 -57t-55.5 -41t-61.5 -30q-9 -4 -14.5 -7.5t-8 -8.5t-3 -13.5t-0.5 -21.5v-57q0 -8 -5.5 -16.5t-29.5 -8.5t-29 8.5t-5 16.5v96z" />
<glyph unicode="@" horiz-adv-x="1022" d="M472 134q30 0 58 15.5t45 44.5l34 234q-16 5 -35 7.5t-38 2.5q-33 0 -61.5 -13.5t-49.5 -39t-33 -61.5t-12 -82q0 -58 24.5 -83t67.5 -25zM732 131q35 0 63.5 16t49 46t31.5 72.5t11 94.5q0 72 -22 129t-62 97q-47 47 -111 68.5t-145 21.5q-85 0 -160.5 -27t-131.5 -79 t-89 -126.5t-33 -170.5q0 -187 100 -281t292 -94q76 0 140.5 10.5t119.5 25.5q10 3 16 3q9 0 15 -14q6 -17 6 -29q0 -10 -3.5 -13t-10.5 -5q-63 -20 -138.5 -31.5t-152.5 -11.5q-108 0 -194.5 29.5t-146.5 85.5t-92.5 137t-32.5 185q0 103 35.5 190t101 150t158.5 98.5 t208 35.5q94 0 172 -28t133 -79q54 -51 83 -122t29 -158q0 -61 -17 -113.5t-49 -91t-78 -60.5t-104 -22q-51 0 -86 20.5t-46 55.5q-55 -76 -147 -76q-34 0 -60.5 12.5t-45 35t-28 53t-9.5 66.5q0 65 19 114.5t52 83t76.5 50.5t92.5 17q46 0 86 -7.5t67 -17.5l-30 -207 q-3 -23 -5.5 -43t-2.5 -32q0 -28 14.5 -46t61.5 -18z" />
<glyph unicode="A" horiz-adv-x="648" d="M462 243q-26 88 -57 186.5t-63 192.5h-36q-32 -94 -63 -192.5t-57 -186.5h276zM167 176l-49 -154q-4 -12 -13 -18.5t-36 -6.5q-22 0 -28 5.5t-6 11.5q0 7 8 31q51 165 103 326t99 298q5 12 9.5 16t17.5 4h104q13 0 17.5 -4t9.5 -16q47 -137 99 -298t103 -326q8 -24 8 -31 q0 -6 -6 -11.5t-28 -5.5q-27 0 -36 6.5t-13 18.5l-49 154h-314z" />
<glyph unicode="B" horiz-adv-x="621" d="M100 0q-30 0 -30 28v661h234q37 0 78.5 -3.5t76.5 -19.5t58 -49.5t23 -94.5q0 -27 -5.5 -52.5t-18 -46.5t-33.5 -36.5t-51 -22.5v-3q75 -11 109 -54.5t34 -111.5q0 -65 -23.5 -103.5t-62 -59t-87 -26.5t-98.5 -6h-204zM150 392h158q31 0 58.5 4t48.5 17t33 35.5t12 60.5 q0 37 -11.5 59t-31 34t-45.5 15.5t-55 3.5h-167v-229zM309 69q40 0 74 5t58.5 19.5t38 39.5t13.5 66q0 39 -13 63.5t-35.5 38.5t-52 19t-62.5 5h-180v-256h159z" />
<glyph unicode="C" horiz-adv-x="607" d="M379 -10q-165 0 -245 87.5t-80 268.5q0 185 93 274q41 38 99.5 58.5t141.5 20.5q41 0 82 -5t74 -13l-7 -65q-32 7 -68.5 11.5t-75.5 4.5q-69 0 -115.5 -14.5t-75.5 -45.5q-35 -38 -50.5 -94.5t-15.5 -132.5q0 -78 16 -132.5t47.5 -89t78.5 -50t110 -15.5q27 0 59 4t57 9 q20 4 30.5 6.5t13.5 2.5q5 0 8.5 -4t5.5 -21q2 -8 2.5 -18.5t0.5 -12.5q0 -6 -4 -8.5t-13 -4.5q-35 -9 -78.5 -15t-90.5 -6z" />
<glyph unicode="D" horiz-adv-x="693" d="M100 0q-30 0 -30 28v661h232q82 0 144 -16.5t106 -59.5q42 -42 64.5 -109.5t22.5 -159.5t-22.5 -157.5t-64.5 -107.5q-43 -43 -105.5 -61t-144.5 -18h-202zM150 69h152q70 0 115.5 13.5t74.5 42.5q37 37 51 91t14 128t-14 129t-51 92q-34 34 -81 45t-109 11h-152v-552z " />
<glyph unicode="E" horiz-adv-x="563" d="M70 661q0 28 30 28h411v-68h-361v-227h312v-67h-312v-258h367v-69h-417q-30 0 -30 28v633z" />
<glyph unicode="F" horiz-adv-x="541" d="M150 21q0 -9 -6.5 -17.5t-33.5 -8.5t-33.5 8.5t-6.5 18.5v639q0 28 30 28h405v-68h-355v-241h314v-67h-314v-292z" />
<glyph unicode="G" horiz-adv-x="683" d="M589 610q-46 10 -89.5 16t-86.5 6q-67 0 -121.5 -17t-88.5 -53q-34 -35 -50.5 -87.5t-16.5 -130.5q0 -71 11.5 -124.5t41 -89.5t79.5 -54.5t127 -18.5q35 0 75.5 3.5t71.5 8.5v229h-172v67h222q15 0 20 -6t5 -20v-287q0 -22 -4 -28t-16 -10q-36 -11 -87 -17.5t-118 -6.5 q-175 0 -256.5 85.5t-81.5 269.5q0 86 23 150.5t67 109.5q94 94 266 94q48 0 95 -6.5t89 -17.5z" />
<glyph unicode="H" horiz-adv-x="685" d="M615 21q0 -9 -6.5 -17.5t-33.5 -8.5t-33.5 8.5t-6.5 18.5v299h-385v-300q0 -9 -6.5 -17.5t-33.5 -8.5t-33.5 8.5t-6.5 18.5v667h80v-299h385v299h80v-668z" />
<glyph unicode="I" d="M154 21q0 -9 -6.5 -17.5t-33.5 -8.5t-33.5 8.5t-6.5 18.5v667h80v-668z" />
<glyph unicode="J" horiz-adv-x="435" d="M371 689v-460q0 -62 -10 -107t-37 -75q-25 -28 -66.5 -42.5t-107.5 -14.5q-62 0 -102 9q-7 2 -9.5 6t-2.5 15q0 14 3 28q4 17 15 17q3 0 24 -3q17 -2 33.5 -3.5t34.5 -1.5q82 0 113 34q19 20 25.5 54.5t6.5 87.5v456h80z" />
<glyph unicode="K" horiz-adv-x="621" d="M70 689h80v-362l323 362h99l-250 -275l262 -372q10 -14 13 -19.5t3 -10.5q0 -6 -8.5 -10.5t-30.5 -4.5q-15 0 -24.5 1.5t-16 5t-11.5 9t-11 13.5l-232 333l-116 -129v-209q0 -9 -6.5 -17.5t-33.5 -8.5t-33.5 8.5t-6.5 18.5v667z" />
<glyph unicode="L" horiz-adv-x="505" d="M70 689h80v-620h321v-69h-371q-30 0 -30 28v661z" />
<glyph unicode="M" horiz-adv-x="875" d="M746 659q0 -4 3 -32t7.5 -71t10 -97t11.5 -109q13 -130 30 -294q2 -16 2.5 -24t0.5 -11q0 -12 -11 -19t-29 -7q-27 0 -33 8.5t-7 19.5q-8 115 -22 261t-33 333h-12q-44 -131 -86.5 -265t-85.5 -265h-118l-174 530h-12l-43 -594q-1 -11 -8 -19.5t-33 -8.5q-20 0 -30 6 t-10 15q0 7 0.5 14.5t2.5 24.5q13 143 25.5 296t28.5 319q1 11 4.5 15t16.5 4h96q13 0 16.5 -5t11.5 -28q1 -3 8.5 -26.5t19.5 -59t26.5 -80t29.5 -90.5q35 -108 80 -243h10q45 138 80 248q15 47 29.5 92.5t26.5 82t19.5 60.5t9.5 28q5 14 9 17.5t18 3.5h94q13 0 15.5 -5.5 t4.5 -24.5z" />
<glyph unicode="N" horiz-adv-x="682" d="M537 689h75v-661q0 -18 -10 -24.5t-32 -6.5q-25 0 -35 6t-18 17l-372 574v-567q0 -14 -6.5 -23t-30.5 -9q-25 0 -31.5 8.5t-6.5 22.5v663h99l368 -567v567z" />
<glyph unicode="O" horiz-adv-x="720" d="M666 345q0 -81 -18 -146.5t-55.5 -112t-95.5 -71.5t-137 -25q-80 0 -137.5 25t-95 71.5t-55.5 112t-18 146.5t18 146.5t55.5 111.5t95 71t137.5 25q79 0 137 -25t95.5 -71t55.5 -111.5t18 -146.5zM584 345q0 140 -53.5 213t-170.5 73q-118 0 -171 -72.5t-53 -213.5 t53 -214t171 -73q117 0 170.5 73.5t53.5 213.5z" />
<glyph unicode="P" horiz-adv-x="612" d="M150 21q0 -9 -6.5 -17.5t-33.5 -8.5t-33.5 8.5t-6.5 18.5v667h247q40 0 84.5 -4.5t82 -25t62 -64t24.5 -121.5q0 -74 -22 -119.5t-57 -70t-79.5 -33t-89.5 -8.5h-172v-222zM311 310q40 0 72.5 5.5t56 23t36 49.5t12.5 86q0 49 -12 78.5t-35 44.5t-56 19.5t-74 4.5h-161 v-311h161z" />
<glyph unicode="Q" horiz-adv-x="720" d="M666 345q0 -123 -42.5 -210t-131.5 -123l92 -121q8 -11 8 -17q0 -5 -5.5 -12.5t-20.5 -16.5q-11 -6 -17.5 -7.5t-9.5 -1.5q-7 0 -11 3.5t-9 9.5l-101 144q-30 -3 -58 -3q-80 0 -137.5 25t-95 71.5t-55.5 112t-18 146.5t18 146.5t55.5 111.5t95 71t137.5 25q79 0 137 -25 t95.5 -71t55.5 -111.5t18 -146.5zM584 345q0 141 -53 213.5t-171 72.5q-119 0 -171.5 -72.5t-52.5 -213.5t52.5 -214t171.5 -73q118 0 171 73t53 214z" />
<glyph unicode="R" horiz-adv-x="623" d="M150 353h179q34 0 62.5 7t49.5 23t32.5 42.5t11.5 66.5q0 39 -10.5 64t-30 39.5t-48 20t-64.5 5.5h-182v-268zM70 689h263q51 0 94 -7.5t74 -29.5t48.5 -60.5t17.5 -99.5q0 -89 -47 -138.5t-123 -60.5l161 -266q2 -4 4 -7.5t2 -6.5q0 -16 -40 -16q-25 0 -34.5 5.5 t-20.5 22.5l-156 261h-163v-265q0 -9 -6.5 -17.5t-33.5 -8.5t-33.5 8.5t-6.5 18.5v667z" />
<glyph unicode="S" horiz-adv-x="557" d="M296 699q46 0 88.5 -6.5t77.5 -17.5l-8 -65q-37 11 -75.5 16.5t-70.5 5.5q-38 0 -69.5 -6t-54 -19.5t-35.5 -35t-13 -52.5q0 -48 29.5 -74.5t92.5 -43.5l70 -19q44 -12 78.5 -27.5t57.5 -39.5q21 -22 32 -52.5t11 -75.5q0 -51 -17.5 -88t-49 -61t-76.5 -36t-99 -12 q-52 0 -102.5 8t-88.5 24q-12 5 -12 17q0 9 3 26q3 15 7.5 19t9.5 4q4 0 17 -4q46 -14 85.5 -20t79.5 -6q85 0 125 31.5t40 94.5q0 26 -5.5 45.5t-19 34t-36.5 26t-59 20.5l-68 18q-38 10 -72.5 26t-57.5 39t-36.5 53.5t-13.5 69.5q0 45 17.5 79t48.5 57t74.5 35t94.5 12z " />
<glyph unicode="T" horiz-adv-x="587" d="M254 621h-230v68h539v-68h-229v-600q0 -9 -6.5 -17.5t-33.5 -8.5t-33.5 8.5t-6.5 18.5v599z" />
<glyph unicode="U" horiz-adv-x="659" d="M593 245q0 -63 -16.5 -108t-46.5 -75q-35 -35 -85 -53.5t-110 -18.5h-11q-60 0 -109.5 18.5t-84.5 53.5q-31 30 -47.5 75t-16.5 108v444h80v-443q0 -94 50 -144q43 -45 134 -45q87 0 134 45q50 50 50 141v446h79v-444z" />
<glyph unicode="V" horiz-adv-x="629" d="M382 27q-2 -6 -4.5 -11t-9.5 -8.5t-18.5 -5.5t-31.5 -2q-21 0 -33 2t-18.5 5.5t-9.5 8.5t-5 11q-53 160 -108 321t-110 341h83q25 -84 51 -167.5t51.5 -162.5t49 -152t44.5 -137h12q19 63 42 136.5t48 153t50 163t48 166.5h82q-28 -92 -57 -184.5t-56.5 -179t-53 -162.5 t-46.5 -136z" />
<glyph unicode="W" horiz-adv-x="995" d="M706 70h12q37 140 76.5 297t74.5 322h80q-41 -188 -84.5 -350t-79.5 -311q-2 -6 -4.5 -11t-9.5 -8.5t-21 -6t-38 -2.5q-25 0 -39 2.5t-20.5 6.5t-9 9t-3.5 11l-135 572h-10l-125 -575q-1 -6 -3.5 -10.5t-10 -8t-22 -5.5t-38.5 -2t-38 2.5t-21.5 6.5t-10.5 9t-4 11 q-40 147 -87.5 315t-88.5 345h84q18 -77 38.5 -158t41 -161t41 -156t38.5 -144h15q31 143 64.5 297t64.5 302q3 13 5.5 16.5t11.5 3.5h95q9 0 12.5 -3t6.5 -17z" />
<glyph unicode="X" horiz-adv-x="643" d="M47 34q59 91 117 174t109 152q-26 34 -56 75t-61 84t-61 86.5t-57 83.5h94q17 -25 42 -61.5t52 -74.5t53 -74t44 -60q18 25 42 59t48.5 70t49 72.5t44.5 68.5h86q-18 -29 -43.5 -67t-55.5 -81.5t-62.5 -89t-64.5 -88.5q62 -85 120 -167.5t112 -163.5q2 -2 3.5 -5t1.5 -8 q0 -11 -9.5 -16.5t-24.5 -5.5q-29 0 -39.5 7.5t-19.5 21.5q-20 32 -45.5 69.5t-51.5 74.5t-51 71.5t-44 61.5q-14 -21 -37.5 -54t-50 -71.5t-53.5 -78t-48 -72.5q-9 -14 -18.5 -22t-37.5 -8q-18 0 -26 5t-8 13q0 6 2 10t5 9z" />
<glyph unicode="Y" horiz-adv-x="609" d="M273 261q-57 95 -118 202.5t-121 225.5h89q23 -46 48 -95t49.5 -96t47 -89.5t40.5 -73.5h9q16 31 38.5 76.5t46.5 95t47 98t39 84.5h87q-58 -122 -113 -226.5t-109 -201.5v-240q0 -9 -6.5 -17.5t-33.5 -8.5t-33.5 8.5t-6.5 18.5v239z" />
<glyph unicode="Z" horiz-adv-x="560" d="M489 689q19 0 26 -14t7 -29q0 -12 -8 -24l-380 -553h361q8 0 13.5 -7.5t5.5 -26.5q0 -20 -4.5 -27.5t-14.5 -7.5h-424q-19 0 -26 14t-7 28q0 10 8 23l381 555h-365v69h427z" />
<glyph unicode="[" horiz-adv-x="285" d="M156 -153h125v-66h-177q-14 0 -19 5t-5 19v861q0 14 5 18.5t19 4.5h177v-66h-125v-776z" />
<glyph unicode="\" horiz-adv-x="360" d="M328 4q0 -5 -7 -9.5t-25 -4.5q-24 0 -32.5 6t-12.5 18l-219 685h75l216 -674q3 -9 4 -13t1 -8z" />
<glyph unicode="]" horiz-adv-x="285" d="M129 623h-125v66h177q14 0 19 -4.5t5 -18.5v-861q0 -14 -5 -19t-19 -5h-177v66h125v776z" />
<glyph unicode="^" horiz-adv-x="506" d="M449 444q4 -5 8 -11.5t4 -10.5q0 -7 -7.5 -13t-14.5 -11q-6 -4 -13 -7t-12 -3t-9.5 4.5t-12.5 15.5l-136 191h-6l-137 -192q-8 -11 -12.5 -15.5t-9.5 -4.5t-12 3t-13 7q-7 5 -14.5 11t-7.5 13q0 4 4 10.5t8 11.5l147 221q11 16 22 20.5t28 4.5t28 -4.5t21 -18.5z" />
<glyph unicode="_" horiz-adv-x="487" d="M463 -43v-67h-424q-10 0 -14.5 6t-4.5 28t5.5 27.5t13.5 5.5h424z" />
<glyph unicode="`" horiz-adv-x="319" d="M308 659q12 -8 12 -18q0 -8 -6 -18q-9 -17 -19 -17q-6 0 -14 4l-211 99l38 69z" />
<glyph unicode="a" horiz-adv-x="540" d="M93 509q12 4 31 9t41.5 9t47 6.5t48.5 2.5q64 0 104 -12t63 -36q21 -22 31.5 -54t10.5 -81v-179q0 -62 4 -104.5t4 -50.5t-6 -15t-26 -7q-22 0 -28.5 5.5t-9.5 17.5l-10 41q-35 -34 -83 -52.5t-99 -18.5q-39 0 -70.5 11t-54 31t-34.5 48t-12 61q0 75 54 119.5t163 44.5 q32 0 66.5 -3.5t63.5 -10.5v54q0 24 -3.5 50t-21.5 44q-18 19 -49 25.5t-67 6.5q-35 0 -76 -7.5t-78 -19.5zM278 247q-76 0 -115.5 -24.5t-39.5 -78.5q0 -42 27.5 -68.5t83.5 -26.5q24 0 47.5 6t44.5 16t38 22.5t28 25.5v116q-30 6 -59.5 9t-54.5 3z" />
<glyph unicode="b" horiz-adv-x="583" d="M82 16q-10 2 -12 7t-2 14v697h78v-245q41 21 82 34t91 13q46 0 85.5 -16.5t67.5 -49.5t44 -83.5t16 -118.5v-5q0 -134 -67 -204q-33 -33 -84 -51t-120 -18q-43 0 -88.5 7.5t-90.5 18.5zM146 66q32 -8 65 -11t57 -3q47 0 78 10t54 32q28 27 41 70t13 100q0 58 -10.5 98.5 t-30.5 65t-49 35.5t-66 11q-41 0 -81.5 -13.5t-70.5 -31.5v-363z" />
<glyph unicode="c" horiz-adv-x="485" d="M307 -10q-128 0 -192 70t-64 202q0 139 69.5 206.5t194.5 67.5q32 0 66.5 -5t56.5 -13l-6 -64q-23 8 -54.5 12.5t-55.5 4.5q-50 0 -86 -11t-59 -36t-34.5 -64.5t-11.5 -97.5q0 -108 43 -157t142 -49q42 0 72.5 5.5t39.5 5.5q7 0 11 -2.5t6 -12.5q2 -13 2 -21v-10 q0 -9 -3.5 -12.5t-14.5 -5.5q-20 -5 -53 -9t-69 -4z" />
<glyph unicode="d" horiz-adv-x="584" d="M438 734h78v-691q0 -10 -3 -13.5t-20 -9.5q-13 -5 -33.5 -10t-45.5 -9.5t-53 -7.5t-55 -3q-122 0 -188.5 66t-66.5 207v5q0 53 14.5 101.5t44.5 85.5t75.5 59t107.5 22q38 0 75.5 -9t69.5 -24v231zM438 443q-62 31 -135 31q-38 0 -69.5 -11t-54 -36t-35.5 -65t-13 -97 q0 -51 8.5 -91t28.5 -67t54.5 -41t86.5 -14q32 0 67 4.5t62 11.5v375z" />
<glyph unicode="e" horiz-adv-x="553" d="M424 302q1 6 1 9.5v5.5q0 77 -32.5 117t-105.5 40q-82 0 -117.5 -45.5t-38.5 -126.5h293zM451 5q-20 -5 -58 -10t-78 -5q-72 0 -121 16t-81 48q-32 33 -47 85.5t-15 121.5v3q0 133 58 202.5t178 69.5q217 0 217 -234q0 -11 -1 -30t-3 -33h-369q0 -41 7 -78t32 -63 q22 -22 56.5 -32t96.5 -10q28 0 58 3.5t50 7.5q15 3 21 3q7 0 9 -3t3 -13q2 -9 2.5 -18.5t0.5 -12.5q0 -9 -2.5 -12t-13.5 -6z" />
<glyph unicode="f" horiz-adv-x="381" d="M129 465h-87q-11 0 -15.5 5t-4.5 22t4.5 22t15.5 6l87 6v43q0 90 38 131q41 44 132 44q27 0 49.5 -2.5t39.5 -7.5l-3 -60q-14 4 -34 6t-34 2q-34 0 -54.5 -5t-34.5 -19q-11 -11 -16 -29.5t-5 -55.5v-47h160l-3 -61h-157v-440q0 -8 -5.5 -18t-33.5 -10t-33.5 10t-5.5 18 v440z" />
<glyph unicode="g" horiz-adv-x="578" d="M435 44q-38 -26 -75 -37t-82 -11q-106 0 -166.5 68.5t-60.5 196.5v5q0 71 20.5 122t57 84t87.5 48.5t111 15.5q45 0 94.5 -8.5t91.5 -22.5v-493q0 -61 -14 -107.5t-44 -77.5q-29 -29 -71 -43t-103 -14q-36 0 -74.5 3.5t-62.5 11.5q-8 2 -11.5 6t-3.5 15v10t2 15 q4 19 14 19q4 0 10.5 -1t16.5 -3q14 -2 41 -5.5t58 -3.5q47 0 76 7t49 27q23 24 31 57t8 80v36zM435 457q-31 9 -58 13t-53 4q-100 0 -146.5 -51t-46.5 -157q0 -56 10 -95.5t30 -64.5t51.5 -36.5t75.5 -11.5q40 0 72.5 11.5t64.5 30.5v357z" />
<glyph unicode="h" horiz-adv-x="580" d="M437 332q0 39 -4.5 63t-18.5 42q-27 34 -95 34q-45 0 -91 -18.5t-82 -43.5v-384q0 -8 -6 -18t-34 -10q-27 0 -32.5 10t-5.5 18v709h78v-265q44 30 90.5 48.5t100.5 18.5q84 0 130 -44q24 -23 36 -58t12 -87v-322q0 -8 -5.5 -18t-33.5 -10q-26 0 -32.5 10t-6.5 18v307z " />
<glyph unicode="i" d="M75 526h78v-501q0 -8 -6 -18t-34 -10q-27 0 -32.5 10t-5.5 18v501zM114 737q28 0 40 -14t12 -40v-5q0 -24 -12 -39t-40 -15t-40 15t-12 39v5q0 26 12 40t40 14z" />
<glyph unicode="j" d="M153 -42q0 -51 -8 -87.5t-33 -61.5q-17 -18 -43 -28.5t-62 -10.5q-18 0 -35.5 1.5t-30.5 4.5q-9 2 -11.5 7t-2.5 11q0 8 1 18t2 15q1 11 9 11q6 0 21 -2t35 -2q19 0 33.5 4.5t25.5 15.5q15 15 18 38.5t3 57.5v576h78v-568zM114 737q28 0 40 -14t12 -40v-5q0 -24 -12 -39 t-40 -15t-40 15t-12 39v5q0 26 12 40t40 14z" />
<glyph unicode="k" horiz-adv-x="503" d="M146 25q0 -8 -6 -18t-34 -10q-27 0 -32.5 10t-5.5 18v709h78v-465l252 257h92l-195 -198l194 -299q2 -4 3.5 -6.5t1.5 -7.5q0 -16 -37 -16q-13 0 -21.5 1.5t-14.5 5t-11.5 10t-12.5 17.5l-157 247l-94 -94v-161z" />
<glyph unicode="l" horiz-adv-x="269" d="M146 734v-594q0 -23 1.5 -40.5t12.5 -28.5q8 -8 22 -11t27 -3q9 0 18 1.5t14 1.5q4 0 6 -1.5t3 -7.5q1 -5 2 -18t1 -19t-1.5 -8.5t-8.5 -4.5q-14 -3 -28.5 -4.5t-25.5 -1.5q-30 0 -54.5 8t-38.5 24q-15 15 -21.5 41t-6.5 69v597h78z" />
<glyph unicode="m" horiz-adv-x="917" d="M774 332q0 36 -3.5 61.5t-20.5 45.5q-14 17 -35.5 24.5t-49.5 7.5q-48 0 -92.5 -18.5t-79.5 -40.5q2 -10 4 -28.5t2 -38.5v-320q0 -8 -5.5 -18t-33.5 -10q-26 0 -32.5 10t-6.5 18v308q0 28 -3 52t-13 42q-13 23 -37.5 33.5t-58.5 10.5q-42 0 -83 -16t-80 -39v-391 q0 -8 -5.5 -18t-33.5 -10q-26 0 -32.5 10t-6.5 18v501h70l3 -52q50 32 97 47t95 15q43 0 80 -15.5t62 -57.5q32 22 60.5 36.5t55 22.5t51 11t48.5 3q42 0 70.5 -13t45.5 -30q23 -24 34.5 -59t11.5 -87v-322q0 -8 -5.5 -18t-33.5 -10q-26 0 -32.5 10t-6.5 18v307z" />
<glyph unicode="n" horiz-adv-x="580" d="M437 332q0 39 -4.5 63t-18.5 42q-27 34 -95 34q-45 0 -91 -18.5t-82 -43.5v-384q0 -8 -6 -18t-34 -10q-27 0 -32.5 10t-5.5 18v501h70l4 -59q45 31 92.5 50t102.5 19q84 0 130 -44q24 -23 36 -58t12 -87v-322q0 -8 -5.5 -18t-33.5 -10q-26 0 -32.5 10t-6.5 18v307z" />
<glyph unicode="o" horiz-adv-x="594" d="M51 266q0 136 64.5 203t181.5 67q246 0 246 -269v-5q0 -272 -246 -272q-117 0 -181.5 68t-64.5 204v4zM131 264q0 -106 39.5 -159t126.5 -53q166 0 166 212q0 109 -40.5 159.5t-125.5 50.5q-87 0 -126.5 -49t-39.5 -161z" />
<glyph unicode="p" horiz-adv-x="583" d="M146 79q23 -10 57 -18.5t67 -8.5q40 0 73.5 11.5t57.5 36.5t37.5 65t13.5 96q0 54 -10 96.5t-37 71.5q-22 23 -53.5 34t-81.5 11q-32 0 -65 -5.5t-59 -13.5v-376zM68 502q43 16 100 25t108 9q124 0 190 -66t66 -207v-5q0 -53 -16 -101.5t-47 -85.5t-76.5 -59t-103.5 -22 q-32 0 -70.5 7.5t-72.5 22.5v-222q0 -8 -6 -18t-34 -10q-27 0 -32.5 10t-5.5 18v704z" />
<glyph unicode="q" horiz-adv-x="584" d="M438 455q-23 8 -55.5 13.5t-61.5 5.5q-100 0 -145 -53.5t-45 -159.5q0 -56 10.5 -95.5t31 -64.5t50 -36.5t68.5 -11.5q22 0 43.5 4.5t40.5 11t35 14.5t28 15v357zM438 37q-35 -23 -78 -35t-86 -12q-52 0 -93.5 19t-70 54.5t-44 84.5t-15.5 109v5q0 66 17.5 115.5 t50.5 84.5q35 37 88.5 55.5t121.5 18.5q45 0 95 -9t92 -24v-705q0 -8 -6 -18t-34 -10q-27 0 -32.5 10t-5.5 18v239z" />
<glyph unicode="r" horiz-adv-x="374" d="M146 25q0 -8 -6 -18t-34 -10q-27 0 -32.5 10t-5.5 18v501h68l7 -120q42 54 97.5 87t109.5 43v-84q-52 -10 -104 -36.5t-100 -79.5v-311z" />
<glyph unicode="s" horiz-adv-x="449" d="M368 455q-22 6 -53 11t-60 5q-64 0 -96 -18t-32 -61q0 -20 7 -34t19.5 -23t30.5 -15t39 -11l39 -9q81 -19 111 -49q20 -20 28.5 -46t8.5 -59q0 -71 -50.5 -113.5t-148.5 -42.5q-35 0 -76.5 5.5t-73.5 16.5q-6 2 -9.5 5t-3.5 14q0 5 0.5 10.5t2.5 13.5q2 13 6 17t9 4 t17.5 -2.5t29.5 -6.5q22 -5 47 -8t49 -3q62 0 95 22.5t33 70.5q0 20 -5.5 33.5t-17.5 23t-31 16t-46 12.5l-38 9q-36 8 -62 20.5t-43 29.5q-38 37 -38 98q0 36 14 63t39.5 45.5t61 27.5t78.5 9q31 0 67 -6t58 -14z" />
<glyph unicode="t" horiz-adv-x="417" d="M38 505q21 13 42.5 30.5t40 38t33.5 42t24 44.5h35v-134h166l-3 -61h-163v-305q0 -33 3 -53t15 -32t31.5 -15t37.5 -3q17 0 38 3t26 3t8.5 -2.5t4.5 -11.5t1 -17v-12q0 -10 -3.5 -12.5t-10.5 -4.5q-14 -5 -38 -8t-43 -3q-44 0 -72.5 8.5t-45 27.5t-23.5 49t-7 73v315h-95 q-9 0 -11.5 4.5t-2.5 13.5t2.5 13t9.5 9z" />
<glyph unicode="u" horiz-adv-x="551" d="M235 -10q-48 0 -78.5 13t-50.5 36q-22 25 -31.5 60.5t-9.5 86.5v340h78v-332q0 -39 4.5 -63t18.5 -42q27 -34 93 -34q17 0 37 4.5t40 12.5t38 18.5t30 22.5v413h77v-352q0 -62 4 -104.5t4 -50.5t-6 -15t-26 -7q-22 0 -28.5 5t-9.5 18l-9 37q-31 -27 -76 -47t-99 -20z" />
<glyph unicode="v" horiz-adv-x="512" d="M492 526q-21 -67 -42.5 -135t-43 -133t-42 -125t-38.5 -111q-3 -8 -6 -12.5t-9.5 -6.5t-18 -2.5t-30.5 -0.5q-21 0 -33.5 1t-19.5 3.5t-10 7t-6 11.5q-19 54 -40 115t-43.5 125.5t-45 131t-44.5 131.5h84q38 -121 79 -241t74 -228h10q32 106 70.5 227.5t73.5 241.5h81z " />
<glyph unicode="w" horiz-adv-x="783" d="M761 526q-14 -56 -31 -122t-35.5 -133.5t-37 -132t-33.5 -117.5q-4 -12 -17 -16.5t-48 -4.5q-21 0 -33.5 1.5t-19 4.5t-8.5 6.5t-3 8.5l-97 406h-8l-103 -405q-2 -6 -4 -10t-8.5 -6.5t-18.5 -4t-33 -1.5q-23 0 -35.5 1.5t-19 4.5t-8.5 7.5t-4 10.5q-30 105 -66 235 t-68 267h80q12 -59 26 -120.5t29 -122t30.5 -118t30.5 -108.5h9l114 453q3 11 6.5 13.5t11.5 2.5h70q8 0 11 -3t6 -15q0 -1 4.5 -20.5t12 -51.5t17.5 -72.5t20 -82.5l54 -224h10q13 49 28 107t30.5 119.5t30.5 123.5t29 119h79z" />
<glyph unicode="x" horiz-adv-x="513" d="M28 28l92.5 129.5t90.5 123.5q-38 49 -84 111.5t-96 133.5h92q32 -50 67.5 -102.5t65.5 -96.5q15 21 32.5 46t36 51t36.5 52t33 50h87q-40 -58 -84 -120t-97 -128l181 -246q8 -11 8 -18q0 -8 -7.5 -13.5t-24.5 -5.5q-26 0 -37 7t-23 24l-144 202q-29 -42 -66.5 -96.5 t-72.5 -107.5q-8 -11 -19.5 -20t-40.5 -9q-18 0 -24.5 5t-6.5 13q0 2 0.5 6t4.5 9z" />
<glyph unicode="y" horiz-adv-x="514" d="M490 526q-27 -86 -54 -170t-55.5 -172t-60 -184t-67.5 -207q-3 -9 -12.5 -16t-33.5 -7q-17 0 -25 6t-8 12q0 5 3 14q23 59 39 106.5t31 91.5h-27q-13 0 -18.5 5.5t-8.5 13.5q-42 115 -85.5 246t-83.5 261h83q10 -38 22.5 -78t29 -93t39.5 -124.5t55 -173.5h14l34 110.5 t36.5 119.5t37.5 122t36 117h79z" />
<glyph unicode="z" horiz-adv-x="460" d="M53 0q-8 0 -12 1.5t-6 6.5q-2 4 -3.5 11t-1.5 11q0 5 1.5 8.5t5.5 8.5l294 418h-289v61h357q14 0 19 -5q4 -4 8 -13t4 -17t-8 -19l-288 -410h276q8 0 13.5 -6t5.5 -25q0 -20 -4.5 -25.5t-14.5 -5.5h-357z" />
<glyph unicode="{" horiz-adv-x="306" d="M281 625h-59q-20 0 -30 -4.5t-10 -29.5q0 -20 4 -46.5t9 -60.5q5 -35 9.5 -67.5t4.5 -49.5q0 -23 -4.5 -43t-15.5 -37t-29.5 -30t-47.5 -22q29 -8 47.5 -21t29.5 -30.5t15.5 -38.5t4.5 -45q0 -17 -4.5 -51t-9.5 -69q-5 -33 -9.5 -60t-4.5 -40q0 -37 45 -37h56v-62h-86 q-39 0 -64 19.5t-25 69.5q0 18 5.5 52t12.5 73q6 34 10.5 63t4.5 49q0 38 -15.5 57.5t-51.5 30.5q-5 1 -8 3t-5 6t-3 11t-1 20q0 23 4.5 28.5t12.5 8.5q37 14 52 34t15 54q0 17 -4.5 47.5t-10.5 64.5q-7 40 -12.5 76t-5.5 57q0 46 23.5 65t64.5 19h86v-64z" />
<glyph unicode="|" horiz-adv-x="232" d="M77 689h78v-891q0 -8 -6 -18t-34 -10q-27 0 -32.5 10t-5.5 18v891z" />
<glyph unicode="}" horiz-adv-x="306" d="M25 689h86q41 0 64.5 -19t23.5 -65q0 -21 -5.5 -57t-12.5 -76q-6 -34 -10.5 -64.5t-4.5 -47.5q0 -34 15 -54t52 -34q8 -3 12.5 -8.5t4.5 -28.5q0 -13 -1 -20t-3 -11t-5 -6t-8 -3q-36 -11 -51.5 -30.5t-15.5 -57.5q0 -20 4.5 -49t10.5 -63q7 -39 12.5 -73t5.5 -52 q0 -50 -25 -69.5t-64 -19.5h-86v62h56q45 0 45 37q0 13 -4.5 40t-9.5 60q-5 35 -9.5 69t-4.5 51q0 24 4.5 45t15.5 38.5t29.5 30.5t47.5 21q-29 9 -47.5 22t-29.5 30t-15.5 37t-4.5 43q0 17 4.5 49.5t9.5 67.5q5 34 9 60.5t4 46.5q0 25 -10 29.5t-30 4.5h-59v64z" />
<glyph unicode="~" horiz-adv-x="527" d="M458 297q-9 -15 -19.5 -29t-24 -25.5t-31.5 -18.5t-42 -7t-42.5 8t-35 18t-32 18t-33.5 8q-22 0 -35.5 -10t-32.5 -28q-15 -15 -20 -15t-10 2t-13 9q-11 8 -14.5 13t-3.5 10q0 6 5 15t25 28q26 26 50.5 33.5t49.5 7.5q27 0 46 -8t34.5 -17t30.5 -17t33 -8q23 0 41.5 16 t30.5 31z" />
<glyph unicode="&#xa1;" horiz-adv-x="204" d="M102 385q-27 0 -38.5 13t-11.5 37v9q0 23 11.5 36.5t38.5 13.5q26 0 38 -13.5t12 -36.5v-9q0 -50 -50 -50zM61 -205l12 489q0 14 6.5 19.5t21.5 5.5q17 0 24 -5t7 -21l13 -488h-84z" />
<glyph unicode="&#xa2;" horiz-adv-x="490" d="M337 536q26 -2 55 -6t51 -12l-6 -64q-23 8 -51.5 12t-48.5 4v-414q35 2 61 6.5t35 4.5q7 0 11 -2.5t6 -12.5q2 -13 2 -21v-10q0 -9 -3.5 -12.5t-14.5 -5.5q-20 -5 -44.5 -8t-52.5 -4v-89q0 -11 -8 -16.5t-29 -5.5q-20 0 -26.5 5.5t-6.5 17.5v88q-111 5 -172.5 72 t-61.5 199q0 69 17.5 119t48.5 83t74 50t94 21v104h70v-103zM267 469q-35 -3 -63.5 -14.5t-48.5 -35t-31 -61.5t-11 -96q0 -54 10 -91.5t29.5 -61.5t48.5 -36.5t66 -15.5v412z" />
<glyph unicode="&#xa3;" horiz-adv-x="542" d="M124 369q-17 33 -26.5 65.5t-9.5 65.5q0 50 18 87.5t48.5 62t72 37t88.5 12.5q52 0 98.5 -12t83.5 -32l-14 -62q-35 17 -78.5 28t-83.5 11q-30 0 -58.5 -7.5t-50.5 -24.5t-35 -45t-13 -69q0 -36 10 -63t23 -53h200v-62h-177q8 -20 12 -41.5t4 -44.5q0 -51 -18.5 -88 t-63.5 -66h337v-68h-433q-11 0 -15 5.5t-4 22.5q0 20 4 26.5t16 11.5q23 8 42.5 18.5t34 27.5t22.5 42.5t8 64.5q0 24 -6.5 49t-14.5 40h-87q-11 0 -15 5t-4 22t4 22t15 6z" />
<glyph unicode="&#xa4;" horiz-adv-x="641" d="M427 137q-25 -18 -53 -26.5t-54 -8.5t-54.5 8.5t-52.5 26.5l-65 -65q-9 -9 -17 -9.5t-23 13.5q-15 15 -14.5 23t11.5 19l63 62q-17 19 -25.5 47.5t-8.5 60.5q0 33 9 60t25 48l-81 81l43 43l83 -83q17 15 45 26.5t62 11.5t62.5 -11.5t44.5 -26.5l83 83l43 -43l-82 -81 q14 -18 24.5 -45t10.5 -63q0 -35 -10 -60.5t-25 -46.5l64 -63q11 -11 11.5 -19t-14.5 -23q-15 -14 -23 -13.5t-17 9.5zM320 165q25 0 47 9t38.5 25t26 38.5t9.5 49.5t-9.5 49.5t-26 39t-38.5 25.5t-47 9t-47.5 -9t-39 -25.5t-26 -39t-9.5 -49.5t9.5 -49.5t26 -38.5t39 -25 t47.5 -9z" />
<glyph unicode="&#xa5;" horiz-adv-x="590" d="M509 316v-61h-167v-68h167v-61h-167v-103q0 -8 -6 -18t-34 -10q-27 0 -32.5 10t-5.5 18v103h-149q-10 0 -14.5 5t-4.5 25q0 19 5.5 25t13.5 6h149v68h-149q-10 0 -14.5 5t-4.5 25q0 19 5.5 25t13.5 6h116q-58 112 -100.5 201t-84.5 172h86q10 -24 24.5 -55t35 -74 t48 -101t64.5 -135q21 45 43.5 93.5t45 95.5t44 92t39.5 84h86q-40 -84 -87.5 -178.5t-97.5 -194.5h132z" />
<glyph unicode="&#xa6;" horiz-adv-x="232" d="M77 689h78v-353q0 -8 -6 -18t-34 -10q-27 0 -32.5 10t-5.5 18v353zM77 151h78v-353q0 -8 -6 -18t-34 -10q-27 0 -32.5 10t-5.5 18v353z" />
<glyph unicode="&#xa7;" horiz-adv-x="444" d="M367 618q-25 6 -54 11t-58 5q-63 0 -92.5 -21.5t-29.5 -59.5t22 -54t57 -26q21 -6 32 -9t31 -9q31 -9 54 -19.5t38.5 -25.5t23 -35.5t7.5 -49.5q0 -49 -27 -80.5t-65 -47.5q45 -14 74 -48t29 -93q0 -75 -47.5 -118t-147.5 -43q-61 0 -99 7.5t-61 15.5q-17 6 -17 17 q0 3 1 9.5t3 12.5q4 14 7.5 21t12.5 7q3 0 11 -2q32 -9 63 -15.5t73 -6.5q69 0 98 21.5t29 65.5q0 24 -8 39.5t-21.5 25t-31 15.5t-36.5 11l-22 6t-37 9q-47 11 -76 26.5t-45 34.5t-21.5 41t-5.5 48q0 25 8 45.5t21.5 36t29.5 27t33 17.5q-11 7 -22 16t-20 23t-14.5 33.5 t-5.5 46.5q0 66 47.5 108t136.5 42q33 0 66.5 -5.5t62.5 -12.5zM239 216q15 4 32 10.5t31.5 17.5t23.5 27t9 37q0 19 -6 33t-23 25t-47.5 21.5t-79.5 22.5q-13 -5 -27.5 -12t-27 -18.5t-20.5 -27.5t-8 -38t6.5 -36t23 -24.5t44 -19t69.5 -18.5z" />
<glyph unicode="&#xa8;" horiz-adv-x="346" d="M74 731q29 0 41 -13t12 -38v-7q0 -24 -12 -38t-41 -14t-41.5 14t-12.5 38v7q0 25 12.5 38t41.5 13zM273 731q29 0 41 -13t12 -38v-7q0 -24 -12 -38t-41 -14t-41.5 14t-12.5 38v7q0 25 12.5 38t41.5 13z" />
<glyph unicode="&#xa9;" horiz-adv-x="802" d="M401 32q63 0 118 23t95.5 64.5t64 98.5t23.5 125t-23.5 125.5t-64 99.5t-95.5 65.5t-118 23.5t-118 -23.5t-95.5 -65.5t-64 -99.5t-23.5 -125.5t23.5 -125t64 -98.5t95.5 -64.5t118 -23zM401 712q76 0 142.5 -26.5t115.5 -75t77 -116.5t28 -150t-28 -149.5t-77 -116 t-115.5 -75t-142.5 -26.5t-142.5 26.5t-115.5 75t-77 116t-28 149.5t28 150t77 116.5t115.5 75t142.5 26.5zM418 166q-174 0 -174 178q0 95 47 137t132 42q23 0 47 -4t40 -9l-4 -52q-19 6 -40.5 9.5t-37.5 3.5q-32 0 -55 -6t-38 -20t-22 -39t-7 -62q0 -69 27 -97.5t91 -28.5 q19 0 34.5 2t25.5 4q5 1 8.5 1.5t7.5 0.5q5 0 8.5 -2.5t5.5 -11.5q2 -8 2 -13.5v-7.5q0 -8 -3 -10.5t-12 -4.5t-33.5 -6t-49.5 -4z" />
<glyph unicode="&#xaa;" horiz-adv-x="385" d="M76 682q16 6 47.5 11.5t62.5 5.5q43 0 69 -7.5t41 -23.5q13 -15 20 -36t7 -53v-119q0 -45 2.5 -69t2.5 -31q0 -6 -4 -11t-18 -5q-16 0 -21.5 5t-7.5 12l-6 26q-23 -23 -52.5 -35.5t-61.5 -12.5q-51 0 -81.5 29t-30.5 73q0 49 35.5 80t106.5 31q21 0 40.5 -2t38.5 -6v27 q0 16 -1 32.5t-12 27.5t-30.5 15.5t-42.5 4.5q-21 0 -48 -5t-53 -13zM197 507q-94 0 -94 -64q0 -24 16 -41t53 -17q31 0 54.5 15t39.5 34v65q-20 4 -36 6t-33 2z" />
<glyph unicode="&#xab;" horiz-adv-x="645" d="M302 98l-38 -42l-189 167q-21 18 -21 40t21 40l189 169l38 -42l-159 -167zM591 98l-38 -42l-189 167q-21 18 -21 40t21 40l189 169l38 -42l-159 -167z" />
<glyph unicode="&#xac;" horiz-adv-x="527" d="M388 314h-301q-10 0 -14.5 6t-4.5 28t5.5 27.5t13.5 5.5h372v-205q0 -8 -6 -17t-31 -9q-24 0 -29 9t-5 17v138z" />
<glyph unicode="&#xad;" horiz-adv-x="365" d="M317 296v-67h-254q-10 0 -14.5 6t-4.5 28t5.5 27.5t13.5 5.5h254z" />
<glyph unicode="&#xae;" horiz-adv-x="802" d="M348 356h77q29 0 47 11t18 44q0 31 -17 43.5t-47 12.5h-78v-111zM288 519h138q27 0 50 -4.5t39.5 -16.5t26 -33t9.5 -54q0 -45 -22 -69t-57 -31l66 -107q9 -14 9 -20q0 -9 -10 -11t-21 -2q-17 0 -24 4t-13 14l-68 114h-63v-113q0 -8 -5 -14t-25 -6t-25 6t-5 14v329z M401 32q63 0 118 23t95.5 64.5t64 98.5t23.5 125t-23.5 125.5t-64 99.5t-95.5 65.5t-118 23.5t-118 -23.5t-95.5 -65.5t-64 -99.5t-23.5 -125.5t23.5 -125t64 -98.5t95.5 -64.5t118 -23zM401 712q76 0 142.5 -26.5t115.5 -75t77 -116.5t28 -150t-28 -149.5t-77 -116 t-115.5 -75t-142.5 -26.5t-142.5 26.5t-115.5 75t-77 116t-28 149.5t28 150t77 116.5t115.5 75t142.5 26.5z" />
<glyph unicode="&#xaf;" horiz-adv-x="312" d="M283 707v-62h-243q-8 0 -13.5 6t-5.5 25q0 20 4.5 25.5t14.5 5.5h243z" />
<glyph unicode="&#xb0;" horiz-adv-x="363" d="M322 601q0 -29 -11.5 -54t-31 -44t-45 -29.5t-53.5 -10.5t-53.5 10.5t-45 29.5t-31 44t-11.5 54t11.5 54t31 44t45 29.5t53.5 10.5t53.5 -10.5t45 -29.5t31 -44t11.5 -54zM254 602q0 30 -19.5 52.5t-53.5 22.5t-53.5 -22.5t-19.5 -52.5t19.5 -53t53.5 -23t53.5 23 t19.5 53z" />
<glyph unicode="&#xb1;" horiz-adv-x="527" d="M229 318h-142q-10 0 -14.5 6t-4.5 28t5.5 27.5t13.5 5.5h142v162h71v-162h159v-67h-159v-138q0 -8 -6 -17t-31 -9q-24 0 -29 9t-5 17v138zM87 0q-10 0 -14.5 6t-4.5 28t5.5 27.5t13.5 5.5h372v-67h-372z" />
<glyph unicode="&#xb2;" horiz-adv-x="355" d="M274 399q8 0 14.5 -5t6.5 -23q0 -17 -5 -22.5t-16 -5.5h-191q-5 0 -9 2t-8 9q-4 8 -6.5 14t-2.5 10q0 5 2.5 7.5t10.5 8.5q49 35 79 61t46.5 48t22.5 41.5t6 41.5q0 26 -14.5 43t-43.5 17q-27 0 -47.5 -8t-46.5 -20l-10 51q23 12 48 21t62 9q55 0 87 -28t32 -81 q0 -32 -9.5 -57t-28 -47t-45.5 -43t-61 -44h127z" />
<glyph unicode="&#xb3;" horiz-adv-x="355" d="M51 381q0 5 1 11t5 13q6 10 16 10q4 0 6 -0.5t7 -2.5q19 -7 36 -11.5t41 -4.5q38 0 53.5 15t15.5 43q0 17 -4 26.5t-11.5 14t-18 5.5t-23.5 1h-33q-11 0 -15.5 4.5t-4.5 21.5q0 16 5 21t15 5h21q11 0 22 1t19.5 5t14 13t5.5 25q0 21 -10.5 35t-47.5 14q-21 0 -43 -6 t-53 -18l-10 51q26 12 51.5 19t57.5 7q66 0 93.5 -25.5t27.5 -69.5q0 -23 -11 -45.5t-39 -30.5q32 -8 45.5 -31t13.5 -47q0 -52 -32 -81t-99 -29q-29 0 -56 5.5t-47 15.5q-6 3 -10 7.5t-4 12.5z" />
<glyph unicode="&#xb4;" horiz-adv-x="318" d="M250 778l38 -69l-211 -99q-8 -4 -14 -4q-10 0 -19 17q-6 10 -6 18q0 10 12 18z" />
<glyph unicode="&#xb5;" horiz-adv-x="569" d="M62 526h78v-330q0 -33 1.5 -60t15.5 -47q14 -19 36.5 -26t61.5 -7q42 0 85 15t81 48v407h77v-352q0 -62 4 -104.5t4 -50.5t-6 -15t-26 -7q-22 0 -28.5 5t-9.5 18l-9 43q-38 -38 -81 -55.5t-90 -17.5q-88 0 -118 39v-231q0 -8 -5.5 -18t-33.5 -10q-27 0 -32 10t-5 18v728z " />
<glyph unicode="&#xb6;" horiz-adv-x="547" d="M516 689v-68h-68v-820q0 -8 -6 -18t-34 -10q-27 0 -32.5 10t-5.5 18v820h-68v-820q0 -8 -6 -18t-34 -10q-27 0 -32.5 10t-5.5 18v510q-85 8 -135 55.5t-50 132.5q0 88 55.5 139t155.5 51h266z" />
<glyph unicode="&#xb7;" horiz-adv-x="187" d="M94 319q29 0 40.5 -14t11.5 -40v-5q0 -24 -11.5 -39t-40.5 -15q-31 0 -42 15t-11 39v5q0 26 11 40t42 14z" />
<glyph unicode="&#xb8;" horiz-adv-x="295" d="M100 23h52l-18 -88q9 3 20 5t24 2q16 0 31 -5.5t27 -17t19 -28.5t7 -39q0 -59 -33 -84.5t-95 -25.5q-21 0 -44.5 4t-40.5 10q-10 4 -10 11q0 4 1 10t3 11q6 19 14 19q9 0 24 -6t45 -6q40 0 56.5 15t16.5 38q0 25 -12 35.5t-38 10.5q-17 0 -31.5 -3.5t-19.5 -3.5 q-7 0 -14 7t-7 13t4 25z" />
<glyph unicode="&#xb9;" horiz-adv-x="355" d="M175 627q-23 -14 -51.5 -32t-48.5 -29l-28 50q11 6 27 15.5t32.5 19.5t32 19.5t26.5 16.5q7 5 12.5 6t13.5 1h30q10 0 13.5 -3.5t3.5 -14.5v-319q0 -7 -5 -13.5t-27 -6.5t-26.5 6.5t-4.5 14.5v269z" />
<glyph unicode="&#xba;" horiz-adv-x="431" d="M54 521q0 90 42 134t120 44q161 0 161 -177v-4q0 -179 -161 -179q-78 0 -120 45t-42 134v3zM113 520q0 -66 24.5 -99.5t78.5 -33.5q102 0 102 133q0 68 -25 99.5t-77 31.5q-54 0 -78.5 -31t-24.5 -100z" />
<glyph unicode="&#xbb;" horiz-adv-x="661" d="M229 263l-159 167l38 42l189 -169q21 -18 21 -40t-21 -40l-189 -167l-38 42zM518 263l-159 167l38 42l189 -169q21 -18 21 -40t-21 -40l-189 -167l-38 42z" />
<glyph unicode="&#xbc;" horiz-adv-x="844" d="M792 16q0 -8 -3.5 -16t-26.5 -8q-22 0 -26 8t-4 16v62h-164q-15 0 -20 3.5t-13 14.5q-8 12 -8 22q0 6 4 14.5t9 17.5q13 22 29 47t33 51l34 52t32 49h75q-22 -31 -41 -58t-37 -53.5t-35.5 -53t-35.5 -55.5h138v91h60v-204zM665 699l-390 -676q-12 -21 -23 -27t-36 -6 q-12 0 -21 3.5t-9 12.5q0 5 2 9t5 9l391 675h81zM175 627q-23 -14 -51.5 -32t-48.5 -29l-28 50q11 6 27 15.5t32.5 19.5t32 19.5t26.5 16.5q7 5 12.5 6t13.5 1h30q10 0 13.5 -3.5t3.5 -14.5v-319q0 -7 -5 -13.5t-27 -6.5t-26.5 6.5t-4.5 14.5v269z" />
<glyph unicode="&#xbd;" horiz-adv-x="844" d="M665 699l-390 -676q-12 -21 -23 -27t-36 -6q-12 0 -21 3.5t-9 12.5q0 5 2 9t5 9l391 675h81zM763 56q8 0 14.5 -5t6.5 -23q0 -17 -5 -22.5t-16 -5.5h-204q-5 0 -9 2t-8 9q-4 8 -6.5 14t-2.5 10q0 5 2.5 7.5t10.5 8.5q49 35 81 61t51 48t27 41.5t8 41.5q0 26 -18 43 t-47 17q-26 0 -50 -8t-50 -20l-10 51q23 12 52 21t64 9q55 0 90.5 -28t35.5 -81q0 -32 -10.5 -57t-30.5 -47t-48 -43t-62 -44h134zM175 627q-23 -14 -51.5 -32t-48.5 -29l-28 50q11 6 27 15.5t32.5 19.5t32 19.5t26.5 16.5q7 5 12.5 6t13.5 1h30q10 0 13.5 -3.5t3.5 -14.5 v-319q0 -7 -5 -13.5t-27 -6.5t-26.5 6.5t-4.5 14.5v269z" />
<glyph unicode="&#xbe;" horiz-adv-x="844" d="M792 16q0 -8 -3.5 -16t-26.5 -8q-22 0 -26 8t-4 16v62h-164q-15 0 -20 3.5t-13 14.5q-8 12 -8 22q0 6 4 14.5t9 17.5q13 22 29 47t33 51l34 52t32 49h75q-22 -31 -41 -58t-37 -53.5t-35.5 -53t-35.5 -55.5h138v91h60v-204zM665 699l-390 -676q-12 -21 -23 -27t-36 -6 q-12 0 -21 3.5t-9 12.5q0 5 2 9t5 9l391 675h81zM61 381q0 5 1 11t5 13q6 10 16 10q4 0 6 -0.5t7 -2.5q19 -7 36 -11.5t41 -4.5q38 0 53.5 15t15.5 43q0 17 -4 26.5t-11.5 14t-18 5.5t-23.5 1h-33q-11 0 -15.5 4.5t-4.5 21.5q0 16 5 21t15 5h21q11 0 22 1t19.5 5t14 13 t5.5 25q0 21 -10.5 35t-47.5 14q-21 0 -43 -6t-53 -18l-10 51q26 12 51.5 19t57.5 7q66 0 93.5 -25.5t27.5 -69.5q0 -23 -11 -45.5t-39 -30.5q32 -8 45.5 -31t13.5 -47q0 -52 -32 -81t-99 -29q-29 0 -56 5.5t-47 15.5q-6 3 -10 7.5t-4 12.5z" />
<glyph unicode="&#xbf;" horiz-adv-x="450" d="M273 385q-50 0 -50 50v9q0 23 12 36.5t38 13.5q27 0 38.5 -13.5t11.5 -36.5v-9q0 -24 -11.5 -37t-38.5 -13zM307 188q0 -24 -8.5 -33.5t-37.5 -21.5q-48 -20 -76.5 -39t-43 -37.5t-18.5 -37.5t-4 -40q0 -60 38.5 -93.5t108.5 -33.5q42 0 78.5 7t65.5 15l6 -65 q-32 -11 -70.5 -17.5t-89.5 -6.5q-47 0 -87 11.5t-69 34t-45 57t-16 81.5q0 46 15.5 79t40 57t55.5 40.5t62 30.5q9 4 14.5 7.5t8 8.5t3 13t0.5 22v57q0 8 5.5 16.5t29.5 8.5t29 -8.5t5 -16.5v-96z" />
<glyph unicode="&#xc0;" horiz-adv-x="648" d="M462 243q-26 88 -57 186.5t-63 192.5h-36q-32 -94 -63 -192.5t-57 -186.5h276zM167 176l-49 -154q-4 -12 -13 -18.5t-36 -6.5q-22 0 -28 5.5t-6 11.5q0 7 8 31q51 165 103 326t99 298q5 12 9.5 16t17.5 4h104q13 0 17.5 -4t9.5 -16q47 -137 99 -298t103 -326q8 -24 8 -31 q0 -6 -6 -11.5t-28 -5.5q-27 0 -36 6.5t-13 18.5l-49 154h-314zM444 813q9 -5 9 -11q0 -2 -1 -7t-7 -16q-9 -16 -14.5 -19.5t-7.5 -3.5q-6 0 -18 6l-210 99l42 75z" />
<glyph unicode="&#xc1;" horiz-adv-x="648" d="M462 243q-26 88 -57 186.5t-63 192.5h-36q-32 -94 -63 -192.5t-57 -186.5h276zM167 176l-49 -154q-4 -12 -13 -18.5t-36 -6.5q-22 0 -28 5.5t-6 11.5q0 7 8 31q51 165 103 326t99 298q5 12 9.5 16t17.5 4h104q13 0 17.5 -4t9.5 -16q47 -137 99 -298t103 -326q8 -24 8 -31 q0 -6 -6 -11.5t-28 -5.5q-27 0 -36 6.5t-13 18.5l-49 154h-314zM412 936l42 -75l-210 -99q-12 -6 -18 -6q-2 0 -7.5 3.5t-14.5 19.5q-6 11 -7 16t-1 7q0 6 9 11z" />
<glyph unicode="&#xc2;" horiz-adv-x="648" d="M462 243q-26 88 -57 186.5t-63 192.5h-36q-32 -94 -63 -192.5t-57 -186.5h276zM167 176l-49 -154q-4 -12 -13 -18.5t-36 -6.5q-22 0 -28 5.5t-6 11.5q0 7 8 31q51 165 103 326t99 298q5 12 9.5 16t17.5 4h104q13 0 17.5 -4t9.5 -16q47 -137 99 -298t103 -326q8 -24 8 -31 q0 -6 -6 -11.5t-28 -5.5q-27 0 -36 6.5t-13 18.5l-49 154h-314zM318 862l-100 -91q-9 -8 -13 -10.5t-7 -2.5q-9 0 -21 12q-8 8 -10.5 13.5t-2.5 7.5q0 4 3 8l124 138q4 5 6.5 5.5t7.5 0.5h38q5 0 7.5 -0.5t6.5 -5.5l124 -138q3 -4 3 -8q0 -2 -2.5 -7.5t-10.5 -13.5 q-9 -8 -13.5 -10t-7.5 -2q-4 0 -9 4t-11 9l-100 91h-12z" />
<glyph unicode="&#xc3;" horiz-adv-x="648" d="M462 243q-26 88 -57 186.5t-63 192.5h-36q-32 -94 -63 -192.5t-57 -186.5h276zM167 176l-49 -154q-4 -12 -13 -18.5t-36 -6.5q-22 0 -28 5.5t-6 11.5q0 7 8 31q51 165 103 326t99 298q5 12 9.5 16t17.5 4h104q13 0 17.5 -4t9.5 -16q47 -137 99 -298t103 -326q8 -24 8 -31 q0 -6 -6 -11.5t-28 -5.5q-27 0 -36 6.5t-13 18.5l-49 154h-314zM154 783q-16 10 -16 15q0 4 7 16q22 41 49.5 63.5t61.5 22.5q24 0 43 -10t36 -22t33 -22t34 -10q20 0 35 17t29 41l46 -32q-21 -39 -47.5 -66.5t-65.5 -27.5q-23 0 -41.5 10t-35 22t-33 22t-35.5 10 q-14 0 -28.5 -10.5t-28.5 -34.5q-5 -8 -8 -13t-7 -5q-3 0 -10.5 4t-17.5 10z" />
<glyph unicode="&#xc4;" horiz-adv-x="648" d="M462 243q-26 88 -57 186.5t-63 192.5h-36q-32 -94 -63 -192.5t-57 -186.5h276zM167 176l-49 -154q-4 -12 -13 -18.5t-36 -6.5q-22 0 -28 5.5t-6 11.5q0 7 8 31q51 165 103 326t99 298q5 12 9.5 16t17.5 4h104q13 0 17.5 -4t9.5 -16q47 -137 99 -298t103 -326q8 -24 8 -31 q0 -6 -6 -11.5t-28 -5.5q-27 0 -36 6.5t-13 18.5l-49 154h-314zM225 898q30 0 43 -14t13 -40v-7q0 -26 -13 -40.5t-43 -14.5q-31 0 -44 14.5t-13 40.5v7q0 26 13 40t44 14zM424 898q30 0 43 -14t13 -40v-7q0 -26 -13 -40.5t-43 -14.5q-31 0 -44 14.5t-13 40.5v7q0 26 13 40 t44 14z" />
<glyph unicode="&#xc5;" horiz-adv-x="648" d="M462 243q-26 88 -57 186.5t-63 192.5h-36q-32 -94 -63 -192.5t-57 -186.5h276zM167 176l-49 -154q-4 -12 -13 -18.5t-36 -6.5q-22 0 -28 5.5t-6 11.5q0 7 8 31q51 165 103 326t99 298q5 12 9.5 16t17.5 4h104q13 0 17.5 -4t9.5 -16q47 -137 99 -298t103 -326q8 -24 8 -31 q0 -6 -6 -11.5t-28 -5.5q-27 0 -36 6.5t-13 18.5l-49 154h-314zM324 964q43 0 73.5 -29t30.5 -77t-30.5 -76.5t-73.5 -28.5t-74 28.5t-31 76.5q0 24 8.5 43.5t22.5 33.5t33.5 21.5t40.5 7.5zM323 804q23 0 37.5 15.5t14.5 38.5t-14.5 39t-37.5 16q-22 0 -36.5 -16t-14.5 -39 t14.5 -38.5t36.5 -15.5z" />
<glyph unicode="&#xc6;" horiz-adv-x="981" d="M919 689v-68h-351v-227h302v-67h-302v-258h357v-69h-407q-30 0 -30 28v148h-280l-90 -155q-8 -15 -19.5 -19.5t-37.5 -4.5q-21 0 -29 1.5t-8 8.5q0 5 10 22q57 100 100.5 176t76.5 134t58.5 101.5t45.5 79t37.5 66t35.5 61.5q9 16 15.5 24.5t12.5 12.5t13 4.5t18 0.5h472 zM247 243h241v377h-32z" />
<glyph unicode="&#xc7;" horiz-adv-x="606" d="M327 -7q-139 13 -206.5 99.5t-67.5 253.5q0 185 93 274q41 38 99.5 58.5t141.5 20.5q41 0 82 -5t74 -13l-7 -65q-32 7 -68.5 11.5t-75.5 4.5q-69 0 -115.5 -14.5t-75.5 -45.5q-35 -38 -50.5 -94.5t-15.5 -132.5q0 -78 16 -132.5t47.5 -89t78.5 -50t110 -15.5q27 0 59 3.5 t57 8.5q20 4 30.5 7t13.5 3q5 0 8.5 -4t5.5 -21q2 -8 2.5 -18.5t0.5 -12.5q0 -6 -4 -8.5t-13 -4.5q-35 -9 -78.5 -15t-89.5 -6l-11 -55q9 3 20 5t24 2q16 0 31 -5.5t27 -17t19 -28.5t7 -39q0 -59 -33 -84.5t-95 -25.5q-21 0 -44.5 4t-40.5 10q-10 4 -10 11q0 4 1 10t3 11 q6 19 14 19q9 0 24 -6t45 -6q40 0 56.5 15t16.5 38q0 25 -12 35.5t-38 10.5q-17 0 -31.5 -3.5t-19.5 -3.5q-7 0 -14 7t-7 13t4 25z" />
<glyph unicode="&#xc8;" horiz-adv-x="563" d="M70 661q0 28 30 28h411v-68h-361v-227h312v-67h-312v-258h367v-69h-417q-30 0 -30 28v633zM392 813q9 -5 9 -11q0 -2 -1 -7t-7 -16q-9 -16 -14.5 -19.5t-7.5 -3.5q-6 0 -18 6l-210 99l42 75z" />
<glyph unicode="&#xc9;" horiz-adv-x="563" d="M70 661q0 28 30 28h411v-68h-361v-227h312v-67h-312v-258h367v-69h-417q-30 0 -30 28v633zM395 936l42 -75l-210 -99q-12 -6 -18 -6q-2 0 -7.5 3.5t-14.5 19.5q-6 11 -7 16t-1 7q0 6 9 11z" />
<glyph unicode="&#xca;" horiz-adv-x="563" d="M70 661q0 28 30 28h411v-68h-361v-227h312v-67h-312v-258h367v-69h-417q-30 0 -30 28v633zM290 862l-100 -91q-9 -8 -13 -10.5t-7 -2.5q-9 0 -21 12q-8 8 -10.5 13.5t-2.5 7.5q0 4 3 8l124 138q4 5 6.5 5.5t7.5 0.5h38q5 0 7.5 -0.5t6.5 -5.5l124 -138q3 -4 3 -8 q0 -2 -2.5 -7.5t-10.5 -13.5q-9 -8 -13.5 -10t-7.5 -2q-4 0 -9 4t-11 9l-100 91h-12z" />
<glyph unicode="&#xcb;" horiz-adv-x="563" d="M70 661q0 28 30 28h411v-68h-361v-227h312v-67h-312v-258h367v-69h-417q-30 0 -30 28v633zM194 898q30 0 43 -14t13 -40v-7q0 -26 -13 -40.5t-43 -14.5q-31 0 -44 14.5t-13 40.5v7q0 26 13 40t44 14zM393 898q30 0 43 -14t13 -40v-7q0 -26 -13 -40.5t-43 -14.5 q-31 0 -44 14.5t-13 40.5v7q0 26 13 40t44 14z" />
<glyph unicode="&#xcc;" d="M154 21q0 -9 -6.5 -17.5t-33.5 -8.5t-33.5 8.5t-6.5 18.5v667h80v-668zM184 813q9 -5 9 -11q0 -2 -1 -7t-7 -16q-9 -16 -14.5 -19.5t-7.5 -3.5q-6 0 -18 6l-210 99l42 75z" />
<glyph unicode="&#xcd;" d="M154 21q0 -9 -6.5 -17.5t-33.5 -8.5t-33.5 8.5t-6.5 18.5v667h80v-668zM254 936l42 -75l-210 -99q-12 -6 -18 -6q-2 0 -7.5 3.5t-14.5 19.5q-6 11 -7 16t-1 7q0 6 9 11z" />
<glyph unicode="&#xce;" d="M154 21q0 -9 -6.5 -17.5t-33.5 -8.5t-33.5 8.5t-6.5 18.5v667h80v-668zM109 862l-100 -91q-9 -8 -13 -10.5t-7 -2.5q-9 0 -21 12q-8 8 -10.5 13.5t-2.5 7.5q0 4 3 8l124 138q4 5 6.5 5.5t7.5 0.5h38q5 0 7.5 -0.5t6.5 -5.5l124 -138q3 -4 3 -8q0 -2 -2.5 -7.5 t-10.5 -13.5q-9 -8 -13.5 -10t-7.5 -2q-4 0 -9 4t-11 9l-100 91h-12z" />
<glyph unicode="&#xcf;" d="M154 21q0 -9 -6.5 -17.5t-33.5 -8.5t-33.5 8.5t-6.5 18.5v667h80v-668zM16 898q30 0 43 -14t13 -40v-7q0 -26 -13 -40.5t-43 -14.5q-31 0 -44 14.5t-13 40.5v7q0 26 13 40t44 14zM215 898q30 0 43 -14t13 -40v-7q0 -26 -13 -40.5t-43 -14.5q-31 0 -44 14.5t-13 40.5v7 q0 26 13 40t44 14z" />
<glyph unicode="&#xd0;" horiz-adv-x="747" d="M204 327v-258h152q70 0 115.5 13.5t74.5 42.5q37 37 51 91t14 128t-14 129t-51 92q-34 34 -81 45t-109 11h-152v-227h200v-67h-200zM124 689h232q82 0 144 -16.5t106 -59.5q42 -42 64.5 -109.5t22.5 -159.5t-22.5 -157.5t-64.5 -107.5q-43 -43 -105.5 -61t-144.5 -18 h-202q-30 0 -30 28v299h-93q-10 0 -14.5 6t-4.5 28t5.5 27.5t13.5 5.5h93v295z" />
<glyph unicode="&#xd1;" horiz-adv-x="682" d="M537 689h75v-661q0 -18 -10 -24.5t-32 -6.5q-25 0 -35 6t-18 17l-372 574v-567q0 -14 -6.5 -23t-30.5 -9q-25 0 -31.5 8.5t-6.5 22.5v663h99l368 -567v567zM171 783q-16 10 -16 15q0 4 7 16q22 41 49.5 63.5t61.5 22.5q24 0 43 -10t36 -22t33 -22t34 -10q20 0 35 17 t29 41l46 -32q-21 -39 -47.5 -66.5t-65.5 -27.5q-23 0 -41.5 10t-35 22t-33 22t-35.5 10q-14 0 -28.5 -10.5t-28.5 -34.5q-5 -8 -8 -13t-7 -5q-3 0 -10.5 4t-17.5 10z" />
<glyph unicode="&#xd2;" horiz-adv-x="720" d="M666 345q0 -81 -18 -146.5t-55.5 -112t-95.5 -71.5t-137 -25q-80 0 -137.5 25t-95 71.5t-55.5 112t-18 146.5t18 146.5t55.5 111.5t95 71t137.5 25q79 0 137 -25t95.5 -71t55.5 -111.5t18 -146.5zM584 345q0 140 -53.5 213t-170.5 73q-118 0 -171 -72.5t-53 -213.5 t53 -214t171 -73q117 0 170.5 73.5t53.5 213.5zM471 813q9 -5 9 -11q0 -2 -1 -7t-7 -16q-9 -16 -14.5 -19.5t-7.5 -3.5q-6 0 -18 6l-210 99l42 75z" />
<glyph unicode="&#xd3;" horiz-adv-x="720" d="M666 345q0 -81 -18 -146.5t-55.5 -112t-95.5 -71.5t-137 -25q-80 0 -137.5 25t-95 71.5t-55.5 112t-18 146.5t18 146.5t55.5 111.5t95 71t137.5 25q79 0 137 -25t95.5 -71t55.5 -111.5t18 -146.5zM584 345q0 140 -53.5 213t-170.5 73q-118 0 -171 -72.5t-53 -213.5 t53 -214t171 -73q117 0 170.5 73.5t53.5 213.5zM458 936l42 -75l-210 -99q-12 -6 -18 -6q-2 0 -7.5 3.5t-14.5 19.5q-6 11 -7 16t-1 7q0 6 9 11z" />
<glyph unicode="&#xd4;" horiz-adv-x="720" d="M666 345q0 -81 -18 -146.5t-55.5 -112t-95.5 -71.5t-137 -25q-80 0 -137.5 25t-95 71.5t-55.5 112t-18 146.5t18 146.5t55.5 111.5t95 71t137.5 25q79 0 137 -25t95.5 -71t55.5 -111.5t18 -146.5zM584 345q0 140 -53.5 213t-170.5 73q-118 0 -171 -72.5t-53 -213.5 t53 -214t171 -73q117 0 170.5 73.5t53.5 213.5zM354 862l-100 -91q-9 -8 -13 -10.5t-7 -2.5q-9 0 -21 12q-8 8 -10.5 13.5t-2.5 7.5q0 4 3 8l124 138q4 5 6.5 5.5t7.5 0.5h38q5 0 7.5 -0.5t6.5 -5.5l124 -138q3 -4 3 -8q0 -2 -2.5 -7.5t-10.5 -13.5q-9 -8 -13.5 -10t-7.5 -2 q-4 0 -9 4t-11 9l-100 91h-12z" />
<glyph unicode="&#xd5;" horiz-adv-x="720" d="M666 345q0 -81 -18 -146.5t-55.5 -112t-95.5 -71.5t-137 -25q-80 0 -137.5 25t-95 71.5t-55.5 112t-18 146.5t18 146.5t55.5 111.5t95 71t137.5 25q79 0 137 -25t95.5 -71t55.5 -111.5t18 -146.5zM584 345q0 140 -53.5 213t-170.5 73q-118 0 -171 -72.5t-53 -213.5 t53 -214t171 -73q117 0 170.5 73.5t53.5 213.5zM190 783q-16 10 -16 15q0 4 7 16q22 41 49.5 63.5t61.5 22.5q24 0 43 -10t36 -22t33 -22t34 -10q20 0 35 17t29 41l46 -32q-21 -39 -47.5 -66.5t-65.5 -27.5q-23 0 -41.5 10t-35 22t-33 22t-35.5 10q-14 0 -28.5 -10.5 t-28.5 -34.5q-5 -8 -8 -13t-7 -5q-3 0 -10.5 4t-17.5 10z" />
<glyph unicode="&#xd6;" horiz-adv-x="720" d="M666 345q0 -81 -18 -146.5t-55.5 -112t-95.5 -71.5t-137 -25q-80 0 -137.5 25t-95 71.5t-55.5 112t-18 146.5t18 146.5t55.5 111.5t95 71t137.5 25q79 0 137 -25t95.5 -71t55.5 -111.5t18 -146.5zM584 345q0 140 -53.5 213t-170.5 73q-118 0 -171 -72.5t-53 -213.5 t53 -214t171 -73q117 0 170.5 73.5t53.5 213.5zM261 898q30 0 43 -14t13 -40v-7q0 -26 -13 -40.5t-43 -14.5q-31 0 -44 14.5t-13 40.5v7q0 26 13 40t44 14zM460 898q30 0 43 -14t13 -40v-7q0 -26 -13 -40.5t-43 -14.5q-31 0 -44 14.5t-13 40.5v7q0 26 13 40t44 14z" />
<glyph unicode="&#xd7;" horiz-adv-x="527" d="M263 212l-103 -103q-11 -11 -21 -11q-12 0 -26 14q-15 15 -15 26q0 8 10 18l104 104l-116 117l50 50l117 -117l118 117l50 -50l-117 -117l103 -104q10 -10 10 -18q0 -11 -15 -26q-14 -14 -26 -14q-10 0 -21 11z" />
<glyph unicode="&#xd8;" horiz-adv-x="720" d="M666 345q0 -81 -18 -146.5t-55.5 -112t-95.5 -71.5t-137 -25q-57 0 -103 13t-81 38l-50 -70q-8 -11 -14 -11q-4 0 -10 2.5t-17 10.5q-19 14 -19 23q0 3 1.5 6t8.5 13l51 72q-38 46 -55.5 111.5t-17.5 146.5t18 146.5t55.5 111.5t95 71t137.5 25q105 0 173 -44l58 81 l54 -38l-61 -85q42 -47 62 -114.5t20 -153.5zM584 345q0 132 -47 203l-319 -448q52 -42 142 -42q117 0 170.5 73.5t53.5 213.5zM136 345q0 -122 39 -192l316 443q-52 35 -131 35q-118 0 -171 -72.5t-53 -213.5z" />
<glyph unicode="&#xd9;" horiz-adv-x="659" d="M593 245q0 -63 -16.5 -108t-46.5 -75q-35 -35 -85 -53.5t-110 -18.5h-11q-60 0 -109.5 18.5t-84.5 53.5q-31 30 -47.5 75t-16.5 108v444h80v-443q0 -94 50 -144q43 -45 134 -45q87 0 134 45q50 50 50 141v446h79v-444zM419 813q9 -5 9 -11q0 -2 -1 -7t-7 -16 q-9 -16 -14.5 -19.5t-7.5 -3.5q-6 0 -18 6l-210 99l42 75z" />
<glyph unicode="&#xda;" horiz-adv-x="659" d="M593 245q0 -63 -16.5 -108t-46.5 -75q-35 -35 -85 -53.5t-110 -18.5h-11q-60 0 -109.5 18.5t-84.5 53.5q-31 30 -47.5 75t-16.5 108v444h80v-443q0 -94 50 -144q43 -45 134 -45q87 0 134 45q50 50 50 141v446h79v-444zM455 936l42 -75l-210 -99q-12 -6 -18 -6 q-2 0 -7.5 3.5t-14.5 19.5q-6 11 -7 16t-1 7q0 6 9 11z" />
<glyph unicode="&#xdb;" horiz-adv-x="659" d="M593 245q0 -63 -16.5 -108t-46.5 -75q-35 -35 -85 -53.5t-110 -18.5h-11q-60 0 -109.5 18.5t-84.5 53.5q-31 30 -47.5 75t-16.5 108v444h80v-443q0 -94 50 -144q43 -45 134 -45q87 0 134 45q50 50 50 141v446h79v-444zM323 862l-100 -91q-9 -8 -13 -10.5t-7 -2.5 q-9 0 -21 12q-8 8 -10.5 13.5t-2.5 7.5q0 4 3 8l124 138q4 5 6.5 5.5t7.5 0.5h38q5 0 7.5 -0.5t6.5 -5.5l124 -138q3 -4 3 -8q0 -2 -2.5 -7.5t-10.5 -13.5q-9 -8 -13.5 -10t-7.5 -2q-4 0 -9 4t-11 9l-100 91h-12z" />
<glyph unicode="&#xdc;" horiz-adv-x="659" d="M593 245q0 -63 -16.5 -108t-46.5 -75q-35 -35 -85 -53.5t-110 -18.5h-11q-60 0 -109.5 18.5t-84.5 53.5q-31 30 -47.5 75t-16.5 108v444h80v-443q0 -94 50 -144q43 -45 134 -45q87 0 134 45q50 50 50 141v446h79v-444zM230 898q30 0 43 -14t13 -40v-7q0 -26 -13 -40.5 t-43 -14.5q-31 0 -44 14.5t-13 40.5v7q0 26 13 40t44 14zM429 898q30 0 43 -14t13 -40v-7q0 -26 -13 -40.5t-43 -14.5q-31 0 -44 14.5t-13 40.5v7q0 26 13 40t44 14z" />
<glyph unicode="&#xdd;" horiz-adv-x="609" d="M273 261q-57 95 -118 202.5t-121 225.5h89q23 -46 48 -95t49.5 -96t47 -89.5t40.5 -73.5h9q16 31 38.5 76.5t46.5 95t47 98t39 84.5h87q-58 -122 -113 -226.5t-109 -201.5v-240q0 -9 -6.5 -17.5t-33.5 -8.5t-33.5 8.5t-6.5 18.5v239zM415 936l42 -75l-210 -99 q-12 -6 -18 -6q-2 0 -7.5 3.5t-14.5 19.5q-6 11 -7 16t-1 7q0 6 9 11z" />
<glyph unicode="&#xde;" horiz-adv-x="612" d="M150 21q0 -9 -6.5 -17.5t-33.5 -8.5t-33.5 8.5t-6.5 18.5v667h80v-107h167q40 0 84.5 -4.5t82 -25t62 -64t24.5 -121.5q0 -74 -22 -119.5t-57 -70t-79.5 -33t-89.5 -8.5h-172v-115zM311 203q40 0 72.5 5.5t56 23t36 49.5t12.5 86q0 49 -12 78.5t-35 44.5t-56 19.5 t-74 4.5h-161v-311h161z" />
<glyph unicode="&#xdf;" horiz-adv-x="603" d="M399 -10q-36 0 -77 5.5t-73 16.5q-6 2 -9.5 5t-3.5 14q0 5 0.5 10t2.5 13q2 13 6 17t9 4t17.5 -2.5t29.5 -6.5q22 -5 46.5 -7.5t45.5 -2.5q22 0 41.5 5t34.5 16.5t23.5 29t8.5 41.5q0 29 -17 47.5t-42.5 32t-55 25t-55 27.5t-42.5 39t-17 59q0 33 23.5 59.5t51.5 51 t51.5 49t23.5 54.5q0 43 -33.5 64.5t-87.5 21.5q-38 0 -66 -12t-47 -33q-22 -24 -32 -60t-10 -83v-557q0 -8 -6 -18t-34 -10q-27 0 -32.5 10t-5.5 18v565q0 114 63 179q30 31 74 49t103 18q34 0 68 -9t61 -27t44 -46t17 -67t-23.5 -69t-51.5 -54.5t-51.5 -45.5t-23.5 -43 q0 -23 17 -37.5t42 -26.5t54.5 -24t54.5 -31t42 -46.5t17 -70.5q0 -32 -11 -60.5t-33.5 -50t-55.5 -34t-76 -12.5z" />
<glyph unicode="&#xe0;" horiz-adv-x="540" d="M93 509q12 4 31 9t41.5 9t47 6.5t48.5 2.5q64 0 104 -12t63 -36q21 -22 31.5 -54t10.5 -81v-179q0 -62 4 -104.5t4 -50.5t-6 -15t-26 -7q-22 0 -28.5 5.5t-9.5 17.5l-10 41q-35 -34 -83 -52.5t-99 -18.5q-39 0 -70.5 11t-54 31t-34.5 48t-12 61q0 75 54 119.5t163 44.5 q32 0 66.5 -3.5t63.5 -10.5v54q0 24 -3.5 50t-21.5 44q-18 19 -49 25.5t-67 6.5q-35 0 -76 -7.5t-78 -19.5zM278 247q-76 0 -115.5 -24.5t-39.5 -78.5q0 -42 27.5 -68.5t83.5 -26.5q24 0 47.5 6t44.5 16t38 22.5t28 25.5v116q-30 6 -59.5 9t-54.5 3zM369 659q12 -8 12 -18 q0 -8 -6 -18q-9 -17 -19 -17q-6 0 -14 4l-211 99l38 69z" />
<glyph unicode="&#xe1;" horiz-adv-x="540" d="M93 509q12 4 31 9t41.5 9t47 6.5t48.5 2.5q64 0 104 -12t63 -36q21 -22 31.5 -54t10.5 -81v-179q0 -62 4 -104.5t4 -50.5t-6 -15t-26 -7q-22 0 -28.5 5.5t-9.5 17.5l-10 41q-35 -34 -83 -52.5t-99 -18.5q-39 0 -70.5 11t-54 31t-34.5 48t-12 61q0 75 54 119.5t163 44.5 q32 0 66.5 -3.5t63.5 -10.5v54q0 24 -3.5 50t-21.5 44q-18 19 -49 25.5t-67 6.5q-35 0 -76 -7.5t-78 -19.5zM278 247q-76 0 -115.5 -24.5t-39.5 -78.5q0 -42 27.5 -68.5t83.5 -26.5q24 0 47.5 6t44.5 16t38 22.5t28 25.5v116q-30 6 -59.5 9t-54.5 3zM380 778l38 -69 l-211 -99q-8 -4 -14 -4q-10 0 -19 17q-6 10 -6 18q0 10 12 18z" />
<glyph unicode="&#xe2;" horiz-adv-x="540" d="M93 509q12 4 31 9t41.5 9t47 6.5t48.5 2.5q64 0 104 -12t63 -36q21 -22 31.5 -54t10.5 -81v-179q0 -62 4 -104.5t4 -50.5t-6 -15t-26 -7q-22 0 -28.5 5.5t-9.5 17.5l-10 41q-35 -34 -83 -52.5t-99 -18.5q-39 0 -70.5 11t-54 31t-34.5 48t-12 61q0 75 54 119.5t163 44.5 q32 0 66.5 -3.5t63.5 -10.5v54q0 24 -3.5 50t-21.5 44q-18 19 -49 25.5t-67 6.5q-35 0 -76 -7.5t-78 -19.5zM278 247q-76 0 -115.5 -24.5t-39.5 -78.5q0 -42 27.5 -68.5t83.5 -26.5q24 0 47.5 6t44.5 16t38 22.5t28 25.5v116q-30 6 -59.5 9t-54.5 3zM291 785q11 0 18 -8 l118 -131q6 -6 6 -11q0 -8 -12 -20t-20 -12q-6 0 -11 5l-111 102h-10l-111 -102q-5 -5 -11 -5q-8 0 -20 12t-12 20q0 5 6 11l118 131q7 8 18 8h34z" />
<glyph unicode="&#xe3;" horiz-adv-x="540" d="M93 509q12 4 31 9t41.5 9t47 6.5t48.5 2.5q64 0 104 -12t63 -36q21 -22 31.5 -54t10.5 -81v-179q0 -62 4 -104.5t4 -50.5t-6 -15t-26 -7q-22 0 -28.5 5.5t-9.5 17.5l-10 41q-35 -34 -83 -52.5t-99 -18.5q-39 0 -70.5 11t-54 31t-34.5 48t-12 61q0 75 54 119.5t163 44.5 q32 0 66.5 -3.5t63.5 -10.5v54q0 24 -3.5 50t-21.5 44q-18 19 -49 25.5t-67 6.5q-35 0 -76 -7.5t-78 -19.5zM278 247q-76 0 -115.5 -24.5t-39.5 -78.5q0 -42 27.5 -68.5t83.5 -26.5q24 0 47.5 6t44.5 16t38 22.5t28 25.5v116q-30 6 -59.5 9t-54.5 3zM105 624q-17 11 -17 16 t6 16q22 41 50.5 63t62.5 22q24 0 43 -10t36 -22t33 -22t34 -10q20 0 35 17t29 41l43 -29q-17 -38 -45.5 -66t-67.5 -28q-23 0 -41.5 10t-35 22t-33 22t-35.5 10q-14 0 -28.5 -10.5t-28.5 -34.5q-5 -8 -8 -13t-7 -5q-7 0 -25 11z" />
<glyph unicode="&#xe4;" horiz-adv-x="540" d="M93 509q12 4 31 9t41.5 9t47 6.5t48.5 2.5q64 0 104 -12t63 -36q21 -22 31.5 -54t10.5 -81v-179q0 -62 4 -104.5t4 -50.5t-6 -15t-26 -7q-22 0 -28.5 5.5t-9.5 17.5l-10 41q-35 -34 -83 -52.5t-99 -18.5q-39 0 -70.5 11t-54 31t-34.5 48t-12 61q0 75 54 119.5t163 44.5 q32 0 66.5 -3.5t63.5 -10.5v54q0 24 -3.5 50t-21.5 44q-18 19 -49 25.5t-67 6.5q-35 0 -76 -7.5t-78 -19.5zM278 247q-76 0 -115.5 -24.5t-39.5 -78.5q0 -42 27.5 -68.5t83.5 -26.5q24 0 47.5 6t44.5 16t38 22.5t28 25.5v116q-30 6 -59.5 9t-54.5 3zM168 731q29 0 41 -13 t12 -38v-7q0 -24 -12 -38t-41 -14t-41.5 14t-12.5 38v7q0 25 12.5 38t41.5 13zM367 731q29 0 41 -13t12 -38v-7q0 -24 -12 -38t-41 -14t-41.5 14t-12.5 38v7q0 25 12.5 38t41.5 13z" />
<glyph unicode="&#xe5;" horiz-adv-x="540" d="M93 509q12 4 31 9t41.5 9t47 6.5t48.5 2.5q64 0 104 -12t63 -36q21 -22 31.5 -54t10.5 -81v-179q0 -62 4 -104.5t4 -50.5t-6 -15t-26 -7q-22 0 -28.5 5.5t-9.5 17.5l-10 41q-35 -34 -83 -52.5t-99 -18.5q-39 0 -70.5 11t-54 31t-34.5 48t-12 61q0 75 54 119.5t163 44.5 q32 0 66.5 -3.5t63.5 -10.5v54q0 24 -3.5 50t-21.5 44q-18 19 -49 25.5t-67 6.5q-35 0 -76 -7.5t-78 -19.5zM278 247q-76 0 -115.5 -24.5t-39.5 -78.5q0 -42 27.5 -68.5t83.5 -26.5q24 0 47.5 6t44.5 16t38 22.5t28 25.5v116q-30 6 -59.5 9t-54.5 3zM270 789q42 0 72 -28 t30 -76q0 -47 -30 -75t-72 -28t-72.5 28t-30.5 75q0 24 8 43t22.5 32.5t33 21t39.5 7.5zM269 627q24 0 40 16.5t16 41.5t-16 42t-40 17q-23 0 -39 -17t-16 -42t16 -41.5t39 -16.5z" />
<glyph unicode="&#xe6;" horiz-adv-x="895" d="M439 456q29 33 73 56.5t117 23.5q217 0 217 -234q0 -11 -1 -30t-3 -33h-369q0 -41 7 -78t32 -63q22 -22 56.5 -32t96.5 -10q28 0 58 3.5t50 7.5q15 3 21 3q7 0 9 -3t3 -13q2 -9 2.5 -18.5t0.5 -12.5q0 -9 -2.5 -12t-13.5 -6q-20 -5 -58 -10t-78 -5q-72 0 -128.5 18 t-91.5 63q-49 -48 -103.5 -64.5t-109.5 -16.5q-86 0 -132.5 42t-46.5 109q0 75 54 119.5t163 44.5q32 0 66.5 -3.5t63.5 -10.5v54q0 24 -3.5 50t-21.5 44q-18 19 -49 25.5t-67 6.5q-35 0 -76 -7.5t-78 -19.5l-4 65q12 4 31 9t41.5 9t47 6.5t48.5 2.5q65 0 108.5 -17.5 t69.5 -62.5zM278 247q-76 0 -115.5 -24.5t-39.5 -78.5q0 -43 28 -69t88 -26q24 0 49.5 6t48.5 16.5t42.5 24.5t32.5 30q-7 20 -12 47t-6 62q-30 6 -60.5 9t-55.5 3zM766 302q1 6 1 9.5v5.5q0 77 -32.5 117t-105.5 40q-82 0 -117.5 -45.5t-38.5 -126.5h293z" />
<glyph unicode="&#xe7;" horiz-adv-x="485" d="M254 -6q-102 14 -152.5 82t-50.5 186q0 139 69.5 206.5t194.5 67.5q32 0 66.5 -5t56.5 -13l-6 -64q-23 8 -54.5 12.5t-55.5 4.5q-50 0 -86 -11t-59 -36t-34.5 -64.5t-11.5 -97.5q0 -108 43 -157t142 -49q48 0 77.5 5.5t36.5 5.5q5 0 9 -2.5t6 -12.5q2 -13 2 -21v-10 q0 -9 -3.5 -12.5t-14.5 -5.5q-20 -5 -53 -9t-69 -4h-4l-9 -55q9 3 20 5t24 2q16 0 31 -5.5t27 -17t19 -28.5t7 -39q0 -59 -33 -84.5t-95 -25.5q-21 0 -44.5 4t-40.5 10q-10 4 -10 11q0 4 1 10t3 11q6 19 14 19q9 0 24 -6t45 -6q40 0 56.5 15t16.5 38q0 25 -12 35.5t-38 10.5 q-17 0 -31.5 -3.5t-19.5 -3.5q-7 0 -14 7t-7 13t4 25z" />
<glyph unicode="&#xe8;" horiz-adv-x="553" d="M424 302q1 6 1 9.5v5.5q0 77 -32.5 117t-105.5 40q-82 0 -117.5 -45.5t-38.5 -126.5h293zM451 5q-20 -5 -58 -10t-78 -5q-72 0 -121 16t-81 48q-32 33 -47 85.5t-15 121.5v3q0 133 58 202.5t178 69.5q217 0 217 -234q0 -11 -1 -30t-3 -33h-369q0 -41 7 -78t32 -63 q22 -22 56.5 -32t96.5 -10q28 0 58 3.5t50 7.5q15 3 21 3q7 0 9 -3t3 -13q2 -9 2.5 -18.5t0.5 -12.5q0 -9 -2.5 -12t-13.5 -6zM378 659q12 -8 12 -18q0 -8 -6 -18q-9 -17 -19 -17q-6 0 -14 4l-211 99l38 69z" />
<glyph unicode="&#xe9;" horiz-adv-x="553" d="M424 302q1 6 1 9.5v5.5q0 77 -32.5 117t-105.5 40q-82 0 -117.5 -45.5t-38.5 -126.5h293zM451 5q-20 -5 -58 -10t-78 -5q-72 0 -121 16t-81 48q-32 33 -47 85.5t-15 121.5v3q0 133 58 202.5t178 69.5q217 0 217 -234q0 -11 -1 -30t-3 -33h-369q0 -41 7 -78t32 -63 q22 -22 56.5 -32t96.5 -10q28 0 58 3.5t50 7.5q15 3 21 3q7 0 9 -3t3 -13q2 -9 2.5 -18.5t0.5 -12.5q0 -9 -2.5 -12t-13.5 -6zM389 778l38 -69l-211 -99q-8 -4 -14 -4q-10 0 -19 17q-6 10 -6 18q0 10 12 18z" />
<glyph unicode="&#xea;" horiz-adv-x="553" d="M424 302q1 6 1 9.5v5.5q0 77 -32.5 117t-105.5 40q-82 0 -117.5 -45.5t-38.5 -126.5h293zM451 5q-20 -5 -58 -10t-78 -5q-72 0 -121 16t-81 48q-32 33 -47 85.5t-15 121.5v3q0 133 58 202.5t178 69.5q217 0 217 -234q0 -11 -1 -30t-3 -33h-369q0 -41 7 -78t32 -63 q22 -22 56.5 -32t96.5 -10q28 0 58 3.5t50 7.5q15 3 21 3q7 0 9 -3t3 -13q2 -9 2.5 -18.5t0.5 -12.5q0 -9 -2.5 -12t-13.5 -6zM306 785q11 0 18 -8l118 -131q6 -6 6 -11q0 -8 -12 -20t-20 -12q-6 0 -11 5l-111 102h-10l-111 -102q-5 -5 -11 -5q-8 0 -20 12t-12 20q0 5 6 11 l118 131q7 8 18 8h34z" />
<glyph unicode="&#xeb;" horiz-adv-x="553" d="M424 302q1 6 1 9.5v5.5q0 77 -32.5 117t-105.5 40q-82 0 -117.5 -45.5t-38.5 -126.5h293zM451 5q-20 -5 -58 -10t-78 -5q-72 0 -121 16t-81 48q-32 33 -47 85.5t-15 121.5v3q0 133 58 202.5t178 69.5q217 0 217 -234q0 -11 -1 -30t-3 -33h-369q0 -41 7 -78t32 -63 q22 -22 56.5 -32t96.5 -10q28 0 58 3.5t50 7.5q15 3 21 3q7 0 9 -3t3 -13q2 -9 2.5 -18.5t0.5 -12.5q0 -9 -2.5 -12t-13.5 -6zM189 731q29 0 41 -13t12 -38v-7q0 -24 -12 -38t-41 -14t-41.5 14t-12.5 38v7q0 25 12.5 38t41.5 13zM388 731q29 0 41 -13t12 -38v-7 q0 -24 -12 -38t-41 -14t-41.5 14t-12.5 38v7q0 25 12.5 38t41.5 13z" />
<glyph unicode="&#xec;" d="M75 526h78v-501q0 -8 -6 -18t-34 -10q-27 0 -32.5 10t-5.5 18v501zM174 659q12 -8 12 -18q0 -8 -6 -18q-9 -17 -19 -17q-6 0 -14 4l-211 99l38 69z" />
<glyph unicode="&#xed;" d="M75 526h78v-501q0 -8 -6 -18t-34 -10q-27 0 -32.5 10t-5.5 18v501zM260 778l38 -69l-211 -99q-8 -4 -14 -4q-10 0 -19 17q-6 10 -6 18q0 10 12 18z" />
<glyph unicode="&#xee;" d="M75 526h78v-501q0 -8 -6 -18t-34 -10q-27 0 -32.5 10t-5.5 18v501zM132 785q11 0 18 -8l118 -131q6 -6 6 -11q0 -8 -12 -20t-20 -12q-6 0 -11 5l-111 102h-10l-111 -102q-5 -5 -11 -5q-8 0 -20 12t-12 20q0 5 6 11l118 131q7 8 18 8h34z" />
<glyph unicode="&#xef;" d="M75 526h78v-501q0 -8 -6 -18t-34 -10q-27 0 -32.5 10t-5.5 18v501zM19 731q29 0 41 -13t12 -38v-7q0 -24 -12 -38t-41 -14t-41.5 14t-12.5 38v7q0 25 12.5 38t41.5 13zM218 731q29 0 41 -13t12 -38v-7q0 -24 -12 -38t-41 -14t-41.5 14t-12.5 38v7q0 25 12.5 38t41.5 13z " />
<glyph unicode="&#xf0;" horiz-adv-x="595" d="M431 481q-11 31 -29 60t-37.5 53.5t-39 42.5t-32.5 28l-94 -62q-11 -8 -14.5 -9t-5.5 -1q-3 0 -8 3t-12 14t-8.5 15t-1.5 7q0 5 4 8.5t12 8.5l80 53q-25 19 -43.5 28t-33.5 17l28 53q25 -10 56.5 -26.5t59.5 -35.5l86 58l34 -47l-73 -49q36 -32 69.5 -72.5t59 -91.5 t41 -114.5t15.5 -139.5q0 -70 -12.5 -118.5t-33.5 -81t-47.5 -51t-54 -27.5t-54 -11.5t-47.5 -2.5q-56 0 -101.5 16.5t-77 50t-48.5 85t-17 121.5v5q0 67 17 117.5t48 84t73.5 50t93.5 16.5q57 0 92 -17.5t56 -37.5zM131 262q0 -106 40 -158t126 -52q38 0 69 11.5t52.5 37 t33 65.5t11.5 96q0 113 -42.5 162.5t-122.5 49.5q-92 0 -129.5 -53t-37.5 -159z" />
<glyph unicode="&#xf1;" horiz-adv-x="580" d="M437 332q0 39 -4.5 63t-18.5 42q-27 34 -95 34q-45 0 -91 -18.5t-82 -43.5v-384q0 -8 -6 -18t-34 -10q-27 0 -32.5 10t-5.5 18v501h70l4 -59q45 31 92.5 50t102.5 19q84 0 130 -44q24 -23 36 -58t12 -87v-322q0 -8 -5.5 -18t-33.5 -10q-26 0 -32.5 10t-6.5 18v307z M122 624q-17 11 -17 16t6 16q22 41 50.5 63t62.5 22q24 0 43 -10t36 -22t33 -22t34 -10q20 0 35 17t29 41l43 -29q-17 -38 -45.5 -66t-67.5 -28q-23 0 -41.5 10t-35 22t-33 22t-35.5 10q-14 0 -28.5 -10.5t-28.5 -34.5q-5 -8 -8 -13t-7 -5q-7 0 -25 11z" />
<glyph unicode="&#xf2;" horiz-adv-x="594" d="M51 266q0 136 64.5 203t181.5 67q246 0 246 -269v-5q0 -272 -246 -272q-117 0 -181.5 68t-64.5 204v4zM131 264q0 -106 39.5 -159t126.5 -53q166 0 166 212q0 109 -40.5 159.5t-125.5 50.5q-87 0 -126.5 -49t-39.5 -161zM398 659q12 -8 12 -18q0 -8 -6 -18 q-9 -17 -19 -17q-6 0 -14 4l-211 99l38 69z" />
<glyph unicode="&#xf3;" horiz-adv-x="594" d="M51 266q0 136 64.5 203t181.5 67q246 0 246 -269v-5q0 -272 -246 -272q-117 0 -181.5 68t-64.5 204v4zM131 264q0 -106 39.5 -159t126.5 -53q166 0 166 212q0 109 -40.5 159.5t-125.5 50.5q-87 0 -126.5 -49t-39.5 -161zM399 778l38 -69l-211 -99q-8 -4 -14 -4 q-10 0 -19 17q-6 10 -6 18q0 10 12 18z" />
<glyph unicode="&#xf4;" horiz-adv-x="594" d="M51 266q0 136 64.5 203t181.5 67q246 0 246 -269v-5q0 -272 -246 -272q-117 0 -181.5 68t-64.5 204v4zM131 264q0 -106 39.5 -159t126.5 -53q166 0 166 212q0 109 -40.5 159.5t-125.5 50.5q-87 0 -126.5 -49t-39.5 -161zM316 785q11 0 18 -8l118 -131q6 -6 6 -11 q0 -8 -12 -20t-20 -12q-6 0 -11 5l-111 102h-10l-111 -102q-5 -5 -11 -5q-8 0 -20 12t-12 20q0 5 6 11l118 131q7 8 18 8h34z" />
<glyph unicode="&#xf5;" horiz-adv-x="594" d="M51 266q0 136 64.5 203t181.5 67q246 0 246 -269v-5q0 -272 -246 -272q-117 0 -181.5 68t-64.5 204v4zM131 264q0 -106 39.5 -159t126.5 -53q166 0 166 212q0 109 -40.5 159.5t-125.5 50.5q-87 0 -126.5 -49t-39.5 -161zM132 624q-17 11 -17 16t6 16q22 41 50.5 63 t62.5 22q24 0 43 -10t36 -22t33 -22t34 -10q20 0 35 17t29 41l43 -29q-17 -38 -45.5 -66t-67.5 -28q-23 0 -41.5 10t-35 22t-33 22t-35.5 10q-14 0 -28.5 -10.5t-28.5 -34.5q-5 -8 -8 -13t-7 -5q-7 0 -25 11z" />
<glyph unicode="&#xf6;" horiz-adv-x="594" d="M51 266q0 136 64.5 203t181.5 67q246 0 246 -269v-5q0 -272 -246 -272q-117 0 -181.5 68t-64.5 204v4zM131 264q0 -106 39.5 -159t126.5 -53q166 0 166 212q0 109 -40.5 159.5t-125.5 50.5q-87 0 -126.5 -49t-39.5 -161zM197 731q29 0 41 -13t12 -38v-7q0 -24 -12 -38 t-41 -14t-41.5 14t-12.5 38v7q0 25 12.5 38t41.5 13zM396 731q29 0 41 -13t12 -38v-7q0 -24 -12 -38t-41 -14t-41.5 14t-12.5 38v7q0 25 12.5 38t41.5 13z" />
<glyph unicode="&#xf7;" horiz-adv-x="527" d="M264 477q44 0 44 -43v-9q0 -20 -10.5 -31.5t-33.5 -11.5t-33.5 11.5t-10.5 31.5v9q0 43 44 43zM264 138q44 0 44 -43v-9q0 -20 -10.5 -31.5t-33.5 -11.5t-33.5 11.5t-10.5 31.5v9q0 43 44 43zM87 226q-10 0 -14.5 6t-4.5 28t5.5 27.5t13.5 5.5h372v-67h-372z" />
<glyph unicode="&#xf8;" horiz-adv-x="594" d="M51 266q0 136 64.5 203t181.5 67q82 0 136 -30l49 68l47 -34l-49 -70q63 -68 63 -203v-5q0 -272 -246 -272q-82 0 -134 32l-42 -59q-2 -3 -4.5 -6t-6.5 -3q-5 0 -12 3t-13 8q-11 8 -14 12.5t-3 8.5t3 8t8 12l37 52q-32 35 -48.5 85.5t-16.5 118.5v4zM131 264 q0 -92 30 -143l233 329q-38 24 -97 24q-87 0 -126.5 -49t-39.5 -161zM463 264q0 90 -29 142l-232 -330q37 -24 95 -24q166 0 166 212z" />
<glyph unicode="&#xf9;" horiz-adv-x="551" d="M235 -10q-48 0 -78.5 13t-50.5 36q-22 25 -31.5 60.5t-9.5 86.5v340h78v-332q0 -39 4.5 -63t18.5 -42q27 -34 93 -34q17 0 37 4.5t40 12.5t38 18.5t30 22.5v413h77v-352q0 -62 4 -104.5t4 -50.5t-6 -15t-26 -7q-22 0 -28.5 5t-9.5 18l-9 37q-31 -27 -76 -47t-99 -20z M367 659q12 -8 12 -18q0 -8 -6 -18q-9 -17 -19 -17q-6 0 -14 4l-211 99l38 69z" />
<glyph unicode="&#xfa;" horiz-adv-x="551" d="M235 -10q-48 0 -78.5 13t-50.5 36q-22 25 -31.5 60.5t-9.5 86.5v340h78v-332q0 -39 4.5 -63t18.5 -42q27 -34 93 -34q17 0 37 4.5t40 12.5t38 18.5t30 22.5v413h77v-352q0 -62 4 -104.5t4 -50.5t-6 -15t-26 -7q-22 0 -28.5 5t-9.5 18l-9 37q-31 -27 -76 -47t-99 -20z M388 778l38 -69l-211 -99q-8 -4 -14 -4q-10 0 -19 17q-6 10 -6 18q0 10 12 18z" />
<glyph unicode="&#xfb;" horiz-adv-x="551" d="M235 -10q-48 0 -78.5 13t-50.5 36q-22 25 -31.5 60.5t-9.5 86.5v340h78v-332q0 -39 4.5 -63t18.5 -42q27 -34 93 -34q17 0 37 4.5t40 12.5t38 18.5t30 22.5v413h77v-352q0 -62 4 -104.5t4 -50.5t-6 -15t-26 -7q-22 0 -28.5 5t-9.5 18l-9 37q-31 -27 -76 -47t-99 -20z M290 785q11 0 18 -8l118 -131q6 -6 6 -11q0 -8 -12 -20t-20 -12q-6 0 -11 5l-111 102h-10l-111 -102q-5 -5 -11 -5q-8 0 -20 12t-12 20q0 5 6 11l118 131q7 8 18 8h34z" />
<glyph unicode="&#xfc;" horiz-adv-x="551" d="M235 -10q-48 0 -78.5 13t-50.5 36q-22 25 -31.5 60.5t-9.5 86.5v340h78v-332q0 -39 4.5 -63t18.5 -42q27 -34 93 -34q17 0 37 4.5t40 12.5t38 18.5t30 22.5v413h77v-352q0 -62 4 -104.5t4 -50.5t-6 -15t-26 -7q-22 0 -28.5 5t-9.5 18l-9 37q-31 -27 -76 -47t-99 -20z M176 731q29 0 41 -13t12 -38v-7q0 -24 -12 -38t-41 -14t-41.5 14t-12.5 38v7q0 25 12.5 38t41.5 13zM375 731q29 0 41 -13t12 -38v-7q0 -24 -12 -38t-41 -14t-41.5 14t-12.5 38v7q0 25 12.5 38t41.5 13z" />
<glyph unicode="&#xfd;" horiz-adv-x="514" d="M490 526q-27 -86 -54 -170t-55.5 -172t-60 -184t-67.5 -207q-3 -9 -12.5 -16t-33.5 -7q-17 0 -25 6t-8 12q0 5 3 14q23 59 39 106.5t31 91.5h-27q-13 0 -18.5 5.5t-8.5 13.5q-42 115 -85.5 246t-83.5 261h83q10 -38 22.5 -78t29 -93t39.5 -124.5t55 -173.5h14l34 110.5 t36.5 119.5t37.5 122t36 117h79zM385 778l38 -69l-211 -99q-8 -4 -14 -4q-10 0 -19 17q-6 10 -6 18q0 10 12 18z" />
<glyph unicode="&#xfe;" horiz-adv-x="583" d="M68 734h78v-224q33 14 64 20t66 6q124 0 190 -66t66 -207v-5q0 -53 -16 -101.5t-47 -85.5t-76.5 -59t-103.5 -22q-32 0 -70.5 7.5t-72.5 22.5v-222q0 -8 -6 -18t-34 -10q-27 0 -32.5 10t-5.5 18v936zM146 79q23 -10 57 -18.5t67 -8.5q40 0 73.5 11.5t57.5 36.5t37.5 65 t13.5 96q0 54 -10 96.5t-37 71.5q-22 23 -53.5 34t-81.5 11q-39 0 -69.5 -7t-54.5 -18v-370z" />
<glyph unicode="&#xff;" horiz-adv-x="514" d="M490 526q-27 -86 -54 -170t-55.5 -172t-60 -184t-67.5 -207q-3 -9 -12.5 -16t-33.5 -7q-17 0 -25 6t-8 12q0 5 3 14q23 59 39 106.5t31 91.5h-27q-13 0 -18.5 5.5t-8.5 13.5q-42 115 -85.5 246t-83.5 261h83q10 -38 22.5 -78t29 -93t39.5 -124.5t55 -173.5h14l34 110.5 t36.5 119.5t37.5 122t36 117h79zM160 731q29 0 41 -13t12 -38v-7q0 -24 -12 -38t-41 -14t-41.5 14t-12.5 38v7q0 25 12.5 38t41.5 13zM359 731q29 0 41 -13t12 -38v-7q0 -24 -12 -38t-41 -14t-41.5 14t-12.5 38v7q0 25 12.5 38t41.5 13z" />
<glyph unicode="&#x100;" horiz-adv-x="648" d="M462 243q-26 88 -57 186.5t-63 192.5h-36q-32 -94 -63 -192.5t-57 -186.5h276zM167 176l-49 -154q-4 -12 -13 -18.5t-36 -6.5q-22 0 -28 5.5t-6 11.5q0 7 8 31q51 165 103 326t99 298q5 12 9.5 16t17.5 4h104q13 0 17.5 -4t9.5 -16q47 -137 99 -298t103 -326q8 -24 8 -31 q0 -6 -6 -11.5t-28 -5.5q-27 0 -36 6.5t-13 18.5l-49 154h-314zM460 872v-66h-253q-10 0 -14.5 6.5t-4.5 26.5t4.5 26.5t14.5 6.5h253z" />
<glyph unicode="&#x101;" horiz-adv-x="540" d="M93 509q12 4 31 9t41.5 9t47 6.5t48.5 2.5q64 0 104 -12t63 -36q21 -22 31.5 -54t10.5 -81v-179q0 -62 4 -104.5t4 -50.5t-6 -15t-26 -7q-22 0 -28.5 5.5t-9.5 17.5l-10 41q-35 -34 -83 -52.5t-99 -18.5q-39 0 -70.5 11t-54 31t-34.5 48t-12 61q0 75 54 119.5t163 44.5 q32 0 66.5 -3.5t63.5 -10.5v54q0 24 -3.5 50t-21.5 44q-18 19 -49 25.5t-67 6.5q-35 0 -76 -7.5t-78 -19.5zM278 247q-76 0 -115.5 -24.5t-39.5 -78.5q0 -42 27.5 -68.5t83.5 -26.5q24 0 47.5 6t44.5 16t38 22.5t28 25.5v116q-30 6 -59.5 9t-54.5 3zM397 707v-62h-243 q-8 0 -13.5 6t-5.5 25q0 20 4.5 25.5t14.5 5.5h243z" />
<glyph unicode="&#x102;" horiz-adv-x="648" d="M462 243q-26 88 -57 186.5t-63 192.5h-36q-32 -94 -63 -192.5t-57 -186.5h276zM167 176l-49 -154q-4 -12 -13 -18.5t-36 -6.5q-22 0 -28 5.5t-6 11.5q0 7 8 31q51 165 103 326t99 298q5 12 9.5 16t17.5 4h104q13 0 17.5 -4t9.5 -16q47 -137 99 -298t103 -326q8 -24 8 -31 q0 -6 -6 -11.5t-28 -5.5q-27 0 -36 6.5t-13 18.5l-49 154h-314zM325 782q-30 0 -58.5 8.5t-50 27t-35.5 48t-16 72.5h57q9 -48 38 -67.5t65 -19.5t65 19.5t38 67.5h57q-2 -43 -16 -72.5t-35.5 -48t-50 -27t-58.5 -8.5z" />
<glyph unicode="&#x103;" horiz-adv-x="540" d="M93 509q12 4 31 9t41.5 9t47 6.5t48.5 2.5q64 0 104 -12t63 -36q21 -22 31.5 -54t10.5 -81v-179q0 -62 4 -104.5t4 -50.5t-6 -15t-26 -7q-22 0 -28.5 5.5t-9.5 17.5l-10 41q-35 -34 -83 -52.5t-99 -18.5q-39 0 -70.5 11t-54 31t-34.5 48t-12 61q0 75 54 119.5t163 44.5 q32 0 66.5 -3.5t63.5 -10.5v54q0 24 -3.5 50t-21.5 44q-18 19 -49 25.5t-67 6.5q-35 0 -76 -7.5t-78 -19.5zM278 247q-76 0 -115.5 -24.5t-39.5 -78.5q0 -42 27.5 -68.5t83.5 -26.5q24 0 47.5 6t44.5 16t38 22.5t28 25.5v116q-30 6 -59.5 9t-54.5 3zM273 608q-32 0 -60.5 10 t-50 29.5t-35 48.5t-14.5 68h54q1 -26 11 -44.5t25 -29.5t33 -16t37 -5t37 5t33 16t24.5 29.5t11.5 44.5h54q-2 -39 -15 -68t-34.5 -48.5t-50 -29.5t-60.5 -10z" />
<glyph unicode="&#x104;" horiz-adv-x="648" d="M462 243q-26 88 -57 186.5t-63 192.5h-36q-32 -94 -63 -192.5t-57 -186.5h276zM605 45q5 -15 6.5 -22t1.5 -11q0 -10 -17 -15q-52 -14 -84.5 -40t-32.5 -71q0 -23 13.5 -36.5t47.5 -13.5q26 0 42 5t23 5q8 0 11 -11q2 -5 3 -12t1 -13q0 -7 -10 -12q-13 -6 -36.5 -11 t-47.5 -5q-54 0 -83 24.5t-29 69.5q0 27 9.5 48.5t25 38t36.5 29.5t45 24l-49 160h-314l-49 -154q-4 -12 -13 -18.5t-36 -6.5q-22 0 -28 5.5t-6 11.5q0 7 8 31q51 165 103 326t99 298q5 12 9.5 16t17.5 4h104q13 0 17.5 -4t9.5 -16q47 -137 99 -298t103 -326z" />
<glyph unicode="&#x105;" horiz-adv-x="540" d="M93 509q12 4 31 9t41.5 9t47 6.5t48.5 2.5q64 0 104 -12t63 -36q21 -22 31.5 -54t10.5 -81v-179q0 -62 4 -104.5t4 -50.5q0 -16 -15 -20q-57 -17 -88.5 -43t-31.5 -69q0 -51 63 -51q25 0 40.5 5t22.5 5t10 -8q2 -6 3.5 -14.5t1.5 -13.5q0 -7 -10 -12q-13 -6 -36.5 -11 t-47.5 -5q-51 0 -81.5 23.5t-30.5 70.5q0 28 10.5 50.5t28 40t41 31t49.5 23.5l-9 40q-35 -34 -83 -52.5t-99 -18.5q-39 0 -70.5 11t-54 31t-34.5 48t-12 61q0 75 54 119.5t163 44.5q32 0 66.5 -3.5t63.5 -10.5v54q0 24 -3.5 50t-21.5 44q-18 19 -49 25.5t-67 6.5 q-35 0 -76 -7.5t-78 -19.5zM278 247q-76 0 -115.5 -24.5t-39.5 -78.5q0 -42 27.5 -68.5t83.5 -26.5q24 0 47.5 6t44.5 16t38 22.5t28 25.5v116q-30 6 -59.5 9t-54.5 3z" />
<glyph unicode="&#x106;" horiz-adv-x="607" d="M379 -10q-165 0 -245 87.5t-80 268.5q0 185 93 274q41 38 99.5 58.5t141.5 20.5q41 0 82 -5t74 -13l-7 -65q-32 7 -68.5 11.5t-75.5 4.5q-69 0 -115.5 -14.5t-75.5 -45.5q-35 -38 -50.5 -94.5t-15.5 -132.5q0 -78 16 -132.5t47.5 -89t78.5 -50t110 -15.5q27 0 59 4t57 9 q20 4 30.5 6.5t13.5 2.5q5 0 8.5 -4t5.5 -21q2 -8 2.5 -18.5t0.5 -12.5q0 -6 -4 -8.5t-13 -4.5q-35 -9 -78.5 -15t-90.5 -6zM465 936l42 -75l-210 -99q-12 -6 -18 -6q-2 0 -7.5 3.5t-14.5 19.5q-6 11 -7 16t-1 7q0 6 9 11z" />
<glyph unicode="&#x107;" horiz-adv-x="485" d="M307 -10q-128 0 -192 70t-64 202q0 139 69.5 206.5t194.5 67.5q32 0 66.5 -5t56.5 -13l-6 -64q-23 8 -54.5 12.5t-55.5 4.5q-50 0 -86 -11t-59 -36t-34.5 -64.5t-11.5 -97.5q0 -108 43 -157t142 -49q42 0 72.5 5.5t39.5 5.5q7 0 11 -2.5t6 -12.5q2 -13 2 -21v-10 q0 -9 -3.5 -12.5t-14.5 -5.5q-20 -5 -53 -9t-69 -4zM388 778l38 -69l-211 -99q-8 -4 -14 -4q-10 0 -19 17q-6 10 -6 18q0 10 12 18z" />
<glyph unicode="&#x108;" horiz-adv-x="607" d="M379 -10q-165 0 -245 87.5t-80 268.5q0 185 93 274q41 38 99.5 58.5t141.5 20.5q41 0 82 -5t74 -13l-7 -65q-32 7 -68.5 11.5t-75.5 4.5q-69 0 -115.5 -14.5t-75.5 -45.5q-35 -38 -50.5 -94.5t-15.5 -132.5q0 -78 16 -132.5t47.5 -89t78.5 -50t110 -15.5q27 0 59 4t57 9 q20 4 30.5 6.5t13.5 2.5q5 0 8.5 -4t5.5 -21q2 -8 2.5 -18.5t0.5 -12.5q0 -6 -4 -8.5t-13 -4.5q-35 -9 -78.5 -15t-90.5 -6zM360 862l-100 -91q-9 -8 -13 -10.5t-7 -2.5q-9 0 -21 12q-8 8 -10.5 13.5t-2.5 7.5q0 4 3 8l124 138q4 5 6.5 5.5t7.5 0.5h38q5 0 7.5 -0.5 t6.5 -5.5l124 -138q3 -4 3 -8q0 -2 -2.5 -7.5t-10.5 -13.5q-9 -8 -13.5 -10t-7.5 -2q-4 0 -9 4t-11 9l-100 91h-12z" />
<glyph unicode="&#x109;" horiz-adv-x="485" d="M307 -10q-128 0 -192 70t-64 202q0 139 69.5 206.5t194.5 67.5q32 0 66.5 -5t56.5 -13l-6 -64q-23 8 -54.5 12.5t-55.5 4.5q-50 0 -86 -11t-59 -36t-34.5 -64.5t-11.5 -97.5q0 -108 43 -157t142 -49q42 0 72.5 5.5t39.5 5.5q7 0 11 -2.5t6 -12.5q2 -13 2 -21v-10 q0 -9 -3.5 -12.5t-14.5 -5.5q-20 -5 -53 -9t-69 -4zM303 785q11 0 18 -8l118 -131q6 -6 6 -11q0 -8 -12 -20t-20 -12q-6 0 -11 5l-111 102h-10l-111 -102q-5 -5 -11 -5q-8 0 -20 12t-12 20q0 5 6 11l118 131q7 8 18 8h34z" />
<glyph unicode="&#x10a;" horiz-adv-x="607" d="M379 -10q-165 0 -245 87.5t-80 268.5q0 185 93 274q41 38 99.5 58.5t141.5 20.5q41 0 82 -5t74 -13l-7 -65q-32 7 -68.5 11.5t-75.5 4.5q-69 0 -115.5 -14.5t-75.5 -45.5q-35 -38 -50.5 -94.5t-15.5 -132.5q0 -78 16 -132.5t47.5 -89t78.5 -50t110 -15.5q27 0 59 4t57 9 q20 4 30.5 6.5t13.5 2.5q5 0 8.5 -4t5.5 -21q2 -8 2.5 -18.5t0.5 -12.5q0 -6 -4 -8.5t-13 -4.5q-35 -9 -78.5 -15t-90.5 -6zM372 791q-27 0 -47 19.5t-20 47.5t20 48t47 20q28 0 48 -20t20 -48t-20 -47.5t-48 -19.5z" />
<glyph unicode="&#x10b;" horiz-adv-x="485" d="M307 -10q-128 0 -192 70t-64 202q0 139 69.5 206.5t194.5 67.5q32 0 66.5 -5t56.5 -13l-6 -64q-23 8 -54.5 12.5t-55.5 4.5q-50 0 -86 -11t-59 -36t-34.5 -64.5t-11.5 -97.5q0 -108 43 -157t142 -49q42 0 72.5 5.5t39.5 5.5q7 0 11 -2.5t6 -12.5q2 -13 2 -21v-10 q0 -9 -3.5 -12.5t-14.5 -5.5q-20 -5 -53 -9t-69 -4zM294 616q-26 0 -44.5 19t-18.5 45t18.5 45t44.5 19t45 -19t19 -45t-19 -45t-45 -19z" />
<glyph unicode="&#x10c;" horiz-adv-x="607" d="M379 -10q-165 0 -245 87.5t-80 268.5q0 185 93 274q41 38 99.5 58.5t141.5 20.5q41 0 82 -5t74 -13l-7 -65q-32 7 -68.5 11.5t-75.5 4.5q-69 0 -115.5 -14.5t-75.5 -45.5q-35 -38 -50.5 -94.5t-15.5 -132.5q0 -78 16 -132.5t47.5 -89t78.5 -50t110 -15.5q27 0 59 4t57 9 q20 4 30.5 6.5t13.5 2.5q5 0 8.5 -4t5.5 -21q2 -8 2.5 -18.5t0.5 -12.5q0 -6 -4 -8.5t-13 -4.5q-35 -9 -78.5 -15t-90.5 -6zM369 853l114 103l40 -39l-116 -129q-8 -8 -18 -13t-27 -5q-20 0 -28.5 5.5t-14.5 12.5l-116 129l38 39l116 -103h12z" />
<glyph unicode="&#x10d;" horiz-adv-x="485" d="M307 -10q-128 0 -192 70t-64 202q0 139 69.5 206.5t194.5 67.5q32 0 66.5 -5t56.5 -13l-6 -64q-23 8 -54.5 12.5t-55.5 4.5q-50 0 -86 -11t-59 -36t-34.5 -64.5t-11.5 -97.5q0 -108 43 -157t142 -49q42 0 72.5 5.5t39.5 5.5q7 0 11 -2.5t6 -12.5q2 -13 2 -21v-10 q0 -9 -3.5 -12.5t-14.5 -5.5q-20 -5 -53 -9t-69 -4zM303 600q-29 0 -44 16l-116 129l38 37l113 -106h18l113 106l38 -37l-116 -129q-15 -16 -44 -16z" />
<glyph unicode="&#x10e;" horiz-adv-x="693" d="M100 0q-30 0 -30 28v661h232q82 0 144 -16.5t106 -59.5q42 -42 64.5 -109.5t22.5 -159.5t-22.5 -157.5t-64.5 -107.5q-43 -43 -105.5 -61t-144.5 -18h-202zM150 69h152q70 0 115.5 13.5t74.5 42.5q37 37 51 91t14 128t-14 129t-51 92q-34 34 -81 45t-109 11h-152v-552z M308 853l114 103l40 -39l-116 -129q-8 -8 -18 -13t-27 -5q-20 0 -28.5 5.5t-14.5 12.5l-116 129l38 39l116 -103h12z" />
<glyph unicode="&#x10f;" horiz-adv-x="692" d="M438 734h78v-691q0 -10 -3 -13.5t-20 -9.5q-13 -5 -33.5 -10t-45.5 -9.5t-53 -7.5t-55 -3q-122 0 -188.5 66t-66.5 207v5q0 53 14.5 101.5t44.5 85.5t75.5 59t107.5 22q38 0 75.5 -9t69.5 -24v231zM438 443q-62 31 -135 31q-38 0 -69.5 -11t-54 -36t-35.5 -65t-13 -97 q0 -51 8.5 -91t28.5 -67t54.5 -41t86.5 -14q32 0 67 4.5t62 11.5v375zM647 537q-2 -10 -9.5 -13t-22.5 -3q-32 0 -30 16l18 197h79z" />
<glyph unicode="&#x110;" horiz-adv-x="747" d="M204 327v-258h152q70 0 115.5 13.5t74.5 42.5q37 37 51 91t14 128t-14 129t-51 92q-34 34 -81 45t-109 11h-152v-227h200v-67h-200zM124 689h232q82 0 144 -16.5t106 -59.5q42 -42 64.5 -109.5t22.5 -159.5t-22.5 -157.5t-64.5 -107.5q-43 -43 -105.5 -61t-144.5 -18 h-202q-30 0 -30 28v299h-93q-10 0 -14.5 6t-4.5 28t5.5 27.5t13.5 5.5h93v295z" />
<glyph unicode="&#x111;" horiz-adv-x="584" d="M438 598h-149q-8 0 -14 6t-6 25q0 20 5 25.5t15 5.5h149v74h78v-74h95v-62h-95v-555q0 -10 -3 -13.5t-20 -9.5q-13 -5 -33.5 -10t-45.5 -9.5t-53 -7.5t-55 -3q-122 0 -188.5 66t-66.5 207v5q0 53 14.5 101.5t44.5 85.5t75.5 59t107.5 22q38 0 75.5 -9t69.5 -24v95z M438 443q-62 31 -135 31q-38 0 -69.5 -11t-54 -36t-35.5 -65t-13 -97q0 -51 8.5 -91t28.5 -67t54.5 -41t86.5 -14q32 0 67 4.5t62 11.5v375z" />
<glyph unicode="&#x112;" horiz-adv-x="563" d="M70 661q0 28 30 28h411v-68h-361v-227h312v-67h-312v-258h367v-69h-417q-30 0 -30 28v633zM432 872v-66h-253q-10 0 -14.5 6.5t-4.5 26.5t4.5 26.5t14.5 6.5h253z" />
<glyph unicode="&#x113;" horiz-adv-x="553" d="M424 302q1 6 1 9.5v5.5q0 77 -32.5 117t-105.5 40q-82 0 -117.5 -45.5t-38.5 -126.5h293zM451 5q-20 -5 -58 -10t-78 -5q-72 0 -121 16t-81 48q-32 33 -47 85.5t-15 121.5v3q0 133 58 202.5t178 69.5q217 0 217 -234q0 -11 -1 -30t-3 -33h-369q0 -41 7 -78t32 -63 q22 -22 56.5 -32t96.5 -10q28 0 58 3.5t50 7.5q15 3 21 3q7 0 9 -3t3 -13q2 -9 2.5 -18.5t0.5 -12.5q0 -9 -2.5 -12t-13.5 -6zM415 707v-62h-243q-8 0 -13.5 6t-5.5 25q0 20 4.5 25.5t14.5 5.5h243z" />
<glyph unicode="&#x114;" horiz-adv-x="563" d="M70 661q0 28 30 28h411v-68h-361v-227h312v-67h-312v-258h367v-69h-417q-30 0 -30 28v633zM306 782q-30 0 -58.5 8.5t-50 27t-35.5 48t-16 72.5h57q9 -48 38 -67.5t65 -19.5t65 19.5t38 67.5h57q-2 -43 -16 -72.5t-35.5 -48t-50 -27t-58.5 -8.5z" />
<glyph unicode="&#x115;" horiz-adv-x="553" d="M424 302q1 6 1 9.5v5.5q0 77 -32.5 117t-105.5 40q-82 0 -117.5 -45.5t-38.5 -126.5h293zM451 5q-20 -5 -58 -10t-78 -5q-72 0 -121 16t-81 48q-32 33 -47 85.5t-15 121.5v3q0 133 58 202.5t178 69.5q217 0 217 -234q0 -11 -1 -30t-3 -33h-369q0 -41 7 -78t32 -63 q22 -22 56.5 -32t96.5 -10q28 0 58 3.5t50 7.5q15 3 21 3q7 0 9 -3t3 -13q2 -9 2.5 -18.5t0.5 -12.5q0 -9 -2.5 -12t-13.5 -6zM281 608q-32 0 -60.5 10t-50 29.5t-35 48.5t-14.5 68h54q1 -26 11 -44.5t25 -29.5t33 -16t37 -5t37 5t33 16t24.5 29.5t11.5 44.5h54 q-2 -39 -15 -68t-34.5 -48.5t-50 -29.5t-60.5 -10z" />
<glyph unicode="&#x116;" horiz-adv-x="563" d="M70 661q0 28 30 28h411v-68h-361v-227h312v-67h-312v-258h367v-69h-417q-30 0 -30 28v633zM305 791q-27 0 -47 19.5t-20 47.5t20 48t47 20q28 0 48 -20t20 -48t-20 -47.5t-48 -19.5z" />
<glyph unicode="&#x117;" horiz-adv-x="553" d="M424 302q1 6 1 9.5v5.5q0 77 -32.5 117t-105.5 40q-82 0 -117.5 -45.5t-38.5 -126.5h293zM451 5q-20 -5 -58 -10t-78 -5q-72 0 -121 16t-81 48q-32 33 -47 85.5t-15 121.5v3q0 133 58 202.5t178 69.5q217 0 217 -234q0 -11 -1 -30t-3 -33h-369q0 -41 7 -78t32 -63 q22 -22 56.5 -32t96.5 -10q28 0 58 3.5t50 7.5q15 3 21 3q7 0 9 -3t3 -13q2 -9 2.5 -18.5t0.5 -12.5q0 -9 -2.5 -12t-13.5 -6zM286 616q-26 0 -44.5 19t-18.5 45t18.5 45t44.5 19t45 -19t19 -45t-19 -45t-45 -19z" />
<glyph unicode="&#x118;" horiz-adv-x="563" d="M70 661q0 28 30 28h411v-68h-361v-227h312v-67h-312v-258h367v-69q-23 -5 -47.5 -14t-41.5 -21t-30.5 -31t-13.5 -48q0 -23 13.5 -36.5t48.5 -13.5q26 0 41.5 5t22.5 5t11 -11q4 -13 4 -25q0 -7 -10 -12q-13 -6 -36.5 -11t-47.5 -5q-51 0 -81.5 23.5t-30.5 70.5 q0 37 19.5 68t64.5 56h-303q-30 0 -30 28v633z" />
<glyph unicode="&#x119;" horiz-adv-x="553" d="M467 23q0 -9 -4 -12.5t-19 -9.5q-24 -9 -45 -19.5t-36.5 -24t-24.5 -31t-9 -41.5q0 -49 63 -49q25 0 40.5 5t22.5 5q3 0 6 -1.5t5 -8.5q4 -13 4 -26q0 -7 -10 -12q-13 -6 -36.5 -11t-47.5 -5q-51 0 -81.5 23.5t-30.5 70.5q0 39 19 66.5t48 47.5h-16q-72 0 -121 16t-81 48 q-32 33 -47 85.5t-15 121.5v3q0 133 58 202.5t178 69.5q217 0 217 -234q0 -11 -1 -30t-3 -33h-369q0 -41 7 -78t32 -63q22 -22 56.5 -32t96.5 -10q28 0 58 3.5t50 7.5q15 3 21 3q7 0 8.5 -3t3.5 -13q2 -8 2.5 -18t0.5 -13zM424 302q1 6 1 9.5v5.5q0 77 -32.5 117t-105.5 40 q-82 0 -117.5 -45.5t-38.5 -126.5h293z" />
<glyph unicode="&#x11a;" horiz-adv-x="563" d="M70 661q0 28 30 28h411v-68h-361v-227h312v-67h-312v-258h367v-69h-417q-30 0 -30 28v633zM305 853l114 103l40 -39l-116 -129q-8 -8 -18 -13t-27 -5q-20 0 -28.5 5.5t-14.5 12.5l-116 129l38 39l116 -103h12z" />
<glyph unicode="&#x11b;" horiz-adv-x="553" d="M424 302q1 6 1 9.5v5.5q0 77 -32.5 117t-105.5 40q-82 0 -117.5 -45.5t-38.5 -126.5h293zM451 5q-20 -5 -58 -10t-78 -5q-72 0 -121 16t-81 48q-32 33 -47 85.5t-15 121.5v3q0 133 58 202.5t178 69.5q217 0 217 -234q0 -11 -1 -30t-3 -33h-369q0 -41 7 -78t32 -63 q22 -22 56.5 -32t96.5 -10q28 0 58 3.5t50 7.5q15 3 21 3q7 0 9 -3t3 -13q2 -9 2.5 -18.5t0.5 -12.5q0 -9 -2.5 -12t-13.5 -6zM290 600q-29 0 -44 16l-116 129l38 37l113 -106h18l113 106l38 -37l-116 -129q-15 -16 -44 -16z" />
<glyph unicode="&#x11c;" horiz-adv-x="683" d="M589 610q-46 10 -89.5 16t-86.5 6q-67 0 -121.5 -17t-88.5 -53q-34 -35 -50.5 -87.5t-16.5 -130.5q0 -71 11.5 -124.5t41 -89.5t79.5 -54.5t127 -18.5q35 0 75.5 3.5t71.5 8.5v229h-172v67h222q15 0 20 -6t5 -20v-287q0 -22 -4 -28t-16 -10q-36 -11 -87 -17.5t-118 -6.5 q-175 0 -256.5 85.5t-81.5 269.5q0 86 23 150.5t67 109.5q94 94 266 94q48 0 95 -6.5t89 -17.5zM379 862l-100 -91q-9 -8 -13 -10.5t-7 -2.5q-9 0 -21 12q-8 8 -10.5 13.5t-2.5 7.5q0 4 3 8l124 138q4 5 6.5 5.5t7.5 0.5h38q5 0 7.5 -0.5t6.5 -5.5l124 -138q3 -4 3 -8 q0 -2 -2.5 -7.5t-10.5 -13.5q-9 -8 -13.5 -10t-7.5 -2q-4 0 -9 4t-11 9l-100 91h-12z" />
<glyph unicode="&#x11d;" horiz-adv-x="578" d="M435 44q-38 -26 -75 -37t-82 -11q-106 0 -166.5 68.5t-60.5 196.5v5q0 71 20.5 122t57 84t87.5 48.5t111 15.5q45 0 94.5 -8.5t91.5 -22.5v-493q0 -61 -14 -107.5t-44 -77.5q-29 -29 -71 -43t-103 -14q-36 0 -74.5 3.5t-62.5 11.5q-8 2 -11.5 6t-3.5 15v10t2 15 q4 19 14 19q4 0 10.5 -1t16.5 -3q14 -2 41 -5.5t58 -3.5q47 0 76 7t49 27q23 24 31 57t8 80v36zM435 457q-31 9 -58 13t-53 4q-100 0 -146.5 -51t-46.5 -157q0 -56 10 -95.5t30 -64.5t51.5 -36.5t75.5 -11.5q40 0 72.5 11.5t64.5 30.5v357zM326 785q11 0 18 -8l118 -131 q6 -6 6 -11q0 -8 -12 -20t-20 -12q-6 0 -11 5l-111 102h-10l-111 -102q-5 -5 -11 -5q-8 0 -20 12t-12 20q0 5 6 11l118 131q7 8 18 8h34z" />
<glyph unicode="&#x11e;" horiz-adv-x="683" d="M589 610q-46 10 -89.5 16t-86.5 6q-67 0 -121.5 -17t-88.5 -53q-34 -35 -50.5 -87.5t-16.5 -130.5q0 -71 11.5 -124.5t41 -89.5t79.5 -54.5t127 -18.5q35 0 75.5 3.5t71.5 8.5v229h-172v67h222q15 0 20 -6t5 -20v-287q0 -22 -4 -28t-16 -10q-36 -11 -87 -17.5t-118 -6.5 q-175 0 -256.5 85.5t-81.5 269.5q0 86 23 150.5t67 109.5q94 94 266 94q48 0 95 -6.5t89 -17.5zM391 782q-30 0 -58.5 8.5t-50 27t-35.5 48t-16 72.5h57q9 -48 38 -67.5t65 -19.5t65 19.5t38 67.5h57q-2 -43 -16 -72.5t-35.5 -48t-50 -27t-58.5 -8.5z" />
<glyph unicode="&#x11f;" horiz-adv-x="578" d="M435 44q-38 -26 -75 -37t-82 -11q-106 0 -166.5 68.5t-60.5 196.5v5q0 71 20.5 122t57 84t87.5 48.5t111 15.5q45 0 94.5 -8.5t91.5 -22.5v-493q0 -61 -14 -107.5t-44 -77.5q-29 -29 -71 -43t-103 -14q-36 0 -74.5 3.5t-62.5 11.5q-8 2 -11.5 6t-3.5 15v10t2 15 q4 19 14 19q4 0 10.5 -1t16.5 -3q14 -2 41 -5.5t58 -3.5q47 0 76 7t49 27q23 24 31 57t8 80v36zM435 457q-31 9 -58 13t-53 4q-100 0 -146.5 -51t-46.5 -157q0 -56 10 -95.5t30 -64.5t51.5 -36.5t75.5 -11.5q40 0 72.5 11.5t64.5 30.5v357zM309 608q-32 0 -60.5 10t-50 29.5 t-35 48.5t-14.5 68h54q1 -26 11 -44.5t25 -29.5t33 -16t37 -5t37 5t33 16t24.5 29.5t11.5 44.5h54q-2 -39 -15 -68t-34.5 -48.5t-50 -29.5t-60.5 -10z" />
<glyph unicode="&#x120;" horiz-adv-x="683" d="M589 610q-46 10 -89.5 16t-86.5 6q-67 0 -121.5 -17t-88.5 -53q-34 -35 -50.5 -87.5t-16.5 -130.5q0 -71 11.5 -124.5t41 -89.5t79.5 -54.5t127 -18.5q35 0 75.5 3.5t71.5 8.5v229h-172v67h222q15 0 20 -6t5 -20v-287q0 -22 -4 -28t-16 -10q-36 -11 -87 -17.5t-118 -6.5 q-175 0 -256.5 85.5t-81.5 269.5q0 86 23 150.5t67 109.5q94 94 266 94q48 0 95 -6.5t89 -17.5zM396 791q-27 0 -47 19.5t-20 47.5t20 48t47 20q28 0 48 -20t20 -48t-20 -47.5t-48 -19.5z" />
<glyph unicode="&#x121;" horiz-adv-x="578" d="M435 44q-38 -26 -75 -37t-82 -11q-106 0 -166.5 68.5t-60.5 196.5v5q0 71 20.5 122t57 84t87.5 48.5t111 15.5q45 0 94.5 -8.5t91.5 -22.5v-493q0 -61 -14 -107.5t-44 -77.5q-29 -29 -71 -43t-103 -14q-36 0 -74.5 3.5t-62.5 11.5q-8 2 -11.5 6t-3.5 15v10t2 15 q4 19 14 19q4 0 10.5 -1t16.5 -3q14 -2 41 -5.5t58 -3.5q47 0 76 7t49 27q23 24 31 57t8 80v36zM435 457q-31 9 -58 13t-53 4q-100 0 -146.5 -51t-46.5 -157q0 -56 10 -95.5t30 -64.5t51.5 -36.5t75.5 -11.5q40 0 72.5 11.5t64.5 30.5v357zM310 616q-26 0 -44.5 19t-18.5 45 t18.5 45t44.5 19t45 -19t19 -45t-19 -45t-45 -19z" />
<glyph unicode="&#x122;" horiz-adv-x="683" d="M589 610q-46 10 -89.5 16t-86.5 6q-67 0 -121.5 -17t-88.5 -53q-34 -35 -50.5 -87.5t-16.5 -130.5q0 -71 11.5 -124.5t41 -89.5t79.5 -54.5t127 -18.5q35 0 75.5 3.5t71.5 8.5v229h-172v67h222q15 0 20 -6t5 -20v-287q0 -22 -4 -28t-16 -10q-36 -11 -87 -17.5t-118 -6.5 q-175 0 -256.5 85.5t-81.5 269.5q0 86 23 150.5t67 109.5q94 94 266 94q48 0 95 -6.5t89 -17.5zM427 -268q-2 -10 -9.5 -13t-22.5 -3q-32 0 -30 16l18 197h79z" />
<glyph unicode="&#x123;" horiz-adv-x="578" d="M435 44q-38 -26 -75 -37t-82 -11q-106 0 -166.5 68.5t-60.5 196.5v5q0 71 20.5 122t57 84t87.5 48.5t111 15.5q45 0 94.5 -8.5t91.5 -22.5v-493q0 -61 -14 -107.5t-44 -77.5q-29 -29 -71 -43t-103 -14q-36 0 -74.5 3.5t-62.5 11.5q-8 2 -11.5 6t-3.5 15v10t2 15 q4 19 14 19q4 0 10.5 -1t16.5 -3q14 -2 41 -5.5t58 -3.5q47 0 76 7t49 27q23 24 31 57t8 80v36zM435 457q-31 9 -58 13t-53 4q-100 0 -146.5 -51t-46.5 -157q0 -56 10 -95.5t30 -64.5t51.5 -36.5t75.5 -11.5q40 0 72.5 11.5t64.5 30.5v357zM320.011 791.983q2 10 9.5 12.999 q7.49902 3 22.498 3q31.998 0 29.998 -15.999l-17.998 -196.987h-78.9951z" />
<glyph unicode="&#x124;" horiz-adv-x="685" d="M615 21q0 -9 -6.5 -17.5t-33.5 -8.5t-33.5 8.5t-6.5 18.5v299h-385v-300q0 -9 -6.5 -17.5t-33.5 -8.5t-33.5 8.5t-6.5 18.5v667h80v-299h385v299h80v-668zM336 862l-100 -91q-9 -8 -13 -10.5t-7 -2.5q-9 0 -21 12q-8 8 -10.5 13.5t-2.5 7.5q0 4 3 8l124 138q4 5 6.5 5.5 t7.5 0.5h38q5 0 7.5 -0.5t6.5 -5.5l124 -138q3 -4 3 -8q0 -2 -2.5 -7.5t-10.5 -13.5q-9 -8 -13.5 -10t-7.5 -2q-4 0 -9 4t-11 9l-100 91h-12z" />
<glyph unicode="&#x125;" horiz-adv-x="580" d="M437 332q0 39 -4.5 63t-18.5 42q-27 34 -95 34q-45 0 -91 -18.5t-82 -43.5v-384q0 -8 -6 -18t-34 -10q-27 0 -32.5 10t-5.5 18v709h78v-265q44 30 90.5 48.5t100.5 18.5q84 0 130 -44q24 -23 36 -58t12 -87v-322q0 -8 -5.5 -18t-33.5 -10q-26 0 -32.5 10t-6.5 18v307z M125 955q11 0 18 -8l118 -131q6 -6 6 -11q0 -8 -12 -20t-20 -12q-6 0 -11 5l-111 102h-10l-111 -102q-5 -5 -11 -5q-8 0 -20 12t-12 20q0 5 6 11l118 131q7 8 18 8h34z" />
<glyph unicode="&#x126;" horiz-adv-x="801" d="M673 577h98v-67h-98v-489q0 -9 -6.5 -17.5t-33.5 -8.5t-33.5 8.5t-6.5 18.5v299h-385v-300q0 -9 -6.5 -17.5t-33.5 -8.5t-33.5 8.5t-6.5 18.5v488h-83q-10 0 -14.5 6t-4.5 28t5.5 27.5t13.5 5.5h83v112h80v-112h385v112h80v-112zM593 390v120h-385v-120h385z" />
<glyph unicode="&#x127;" horiz-adv-x="601" d="M89 660v74h78v-74h166v-62h-166v-129q44 30 90.5 48.5t100.5 18.5q84 0 130 -44q24 -23 36 -58t12 -87v-322q0 -8 -5.5 -18t-33.5 -10q-26 0 -32.5 10t-6.5 18v307q0 39 -4.5 63t-18.5 42q-27 34 -95 34q-45 0 -91 -18.5t-82 -43.5v-384q0 -8 -6 -18t-34 -10 q-27 0 -32.5 10t-5.5 18v573h-78q-8 0 -14 6t-6 25q0 20 5 25.5t15 5.5h78z" />
<glyph unicode="&#x128;" d="M154 21q0 -9 -6.5 -17.5t-33.5 -8.5t-33.5 8.5t-6.5 18.5v667h80v-668zM-56 783q-16 10 -16 15q0 4 7 16q22 41 49.5 63.5t61.5 22.5q24 0 43 -10t36 -22t33 -22t34 -10q20 0 35 17t29 41l46 -32q-21 -39 -47.5 -66.5t-65.5 -27.5q-23 0 -41.5 10t-35 22t-33 22t-35.5 10 q-14 0 -28.5 -10.5t-28.5 -34.5q-5 -8 -8 -13t-7 -5q-3 0 -10.5 4t-17.5 10z" />
<glyph unicode="&#x129;" d="M75 526h78v-501q0 -8 -6 -18t-34 -10q-27 0 -32.5 10t-5.5 18v501zM-54 624q-17 11 -17 16t6 16q22 41 50.5 63t62.5 22q24 0 43 -10t36 -22t33 -22t34 -10q20 0 35 17t29 41l43 -29q-17 -38 -45.5 -66t-67.5 -28q-23 0 -41.5 10t-35 22t-33 22t-35.5 10 q-14 0 -28.5 -10.5t-28.5 -34.5q-5 -8 -8 -13t-7 -5q-7 0 -25 11z" />
<glyph unicode="&#x12a;" d="M154 21q0 -9 -6.5 -17.5t-33.5 -8.5t-33.5 8.5t-6.5 18.5v667h80v-668zM251 872v-66h-253q-10 0 -14.5 6.5t-4.5 26.5t4.5 26.5t14.5 6.5h253z" />
<glyph unicode="&#x12b;" d="M75 526h78v-501q0 -8 -6 -18t-34 -10q-27 0 -32.5 10t-5.5 18v501zM246 707v-62h-243q-8 0 -13.5 6t-5.5 25q0 20 4.5 25.5t14.5 5.5h243z" />
<glyph unicode="&#x12c;" d="M154 21q0 -9 -6.5 -17.5t-33.5 -8.5t-33.5 8.5t-6.5 18.5v667h80v-668zM115 782q-30 0 -58.5 8.5t-50 27t-35.5 48t-16 72.5h57q9 -48 38 -67.5t65 -19.5t65 19.5t38 67.5h57q-2 -43 -16 -72.5t-35.5 -48t-50 -27t-58.5 -8.5z" />
<glyph unicode="&#x12d;" d="M75 526h78v-501q0 -8 -6 -18t-34 -10q-27 0 -32.5 10t-5.5 18v501zM115 608q-32 0 -60.5 10t-50 29.5t-35 48.5t-14.5 68h54q1 -26 11 -44.5t25 -29.5t33 -16t37 -5t37 5t33 16t24.5 29.5t11.5 44.5h54q-2 -39 -15 -68t-34.5 -48.5t-50 -29.5t-60.5 -10z" />
<glyph unicode="&#x12e;" d="M154 22q0 -11 -4 -16t-16 -13q-33 -21 -53 -46.5t-20 -59.5q0 -26 14.5 -38.5t47.5 -12.5q25 0 41 5t23 5q3 0 6 -2t5 -9q2 -6 3 -12.5t1 -12.5q0 -7 -10 -12q-13 -6 -37 -11t-47 -5q-52 0 -82 24t-30 69q0 40 21.5 72t56.5 53v689h80v-667v0z" />
<glyph unicode="&#x12f;" d="M-4 -122q0 40 22 70.5t57 51.5v526h78v-501q0 -11 -4 -17t-16 -14q-33 -21 -52.5 -46.5t-19.5 -60.5q0 -24 13.5 -37.5t46.5 -13.5q26 0 42.5 5t23.5 5q3 0 6 -2t5 -9q1 -3 2.5 -12t1.5 -13q0 -7 -10 -12q-14 -7 -36.5 -11.5t-46.5 -4.5q-54 0 -83.5 24t-29.5 72z M115 744q29 0 40.5 -14t11.5 -40v-5q0 -24 -11.5 -39t-40.5 -15q-31 0 -42 15t-11 39v5q0 26 11 40t42 14z" />
<glyph unicode="&#x130;" d="M154 21q0 -9 -6.5 -17.5t-33.5 -8.5t-33.5 8.5t-6.5 18.5v667h80v-668zM115 791q-27 0 -47 19.5t-20 47.5t20 48t47 20q28 0 48 -20t20 -48t-20 -47.5t-48 -19.5z" />
<glyph unicode="&#x131;" d="M75 526h78v-501q0 -8 -6 -18t-34 -10q-27 0 -32.5 10t-5.5 18v501z" />
<glyph unicode="&#x132;" horiz-adv-x="663" d="M154 21q0 -9 -6.5 -17.5t-33.5 -8.5t-33.5 8.5t-6.5 18.5v667h80v-668zM599 689v-460q0 -62 -10 -107t-37 -75q-25 -28 -66.5 -42.5t-107.5 -14.5q-62 0 -102 9q-7 2 -9.5 6t-2.5 15q0 14 3 28q4 17 15 17q3 0 24 -3q17 -2 33.5 -3.5t34.5 -1.5q82 0 113 34 q19 20 25.5 54.5t6.5 87.5v456h80z" />
<glyph unicode="&#x133;" horiz-adv-x="467" d="M75 526h78v-501q0 -8 -6 -18t-34 -10q-27 0 -32.5 10t-5.5 18v501zM114 737q28 0 40 -14t12 -40v-5q0 -24 -12 -39t-40 -15t-40 15t-12 39v5q0 26 12 40t40 14zM392 -42q0 -51 -8 -87.5t-33 -61.5q-17 -18 -43 -28.5t-62 -10.5q-18 0 -35.5 1.5t-30.5 4.5q-9 2 -11.5 7 t-2.5 11q0 8 1 18t2 15q1 11 9 11q6 0 21 -2t35 -2q19 0 33.5 4.5t25.5 15.5q15 15 18 38.5t3 57.5v576h78v-568zM353 737q28 0 40 -14t12 -40v-5q0 -24 -12 -39t-40 -15t-40 15t-12 39v5q0 26 12 40t40 14z" />
<glyph unicode="&#x134;" horiz-adv-x="435" d="M371 689v-460q0 -62 -10 -107t-37 -75q-25 -28 -66.5 -42.5t-107.5 -14.5q-62 0 -102 9q-7 2 -9.5 6t-2.5 15q0 14 3 28q4 17 15 17q3 0 24 -3q17 -2 33.5 -3.5t34.5 -1.5q82 0 113 34q19 20 25.5 54.5t6.5 87.5v456h80zM323 862l-100 -91q-9 -8 -13 -10.5t-7 -2.5 q-9 0 -21 12q-8 8 -10.5 13.5t-2.5 7.5q0 4 3 8l124 138q4 5 6.5 5.5t7.5 0.5h38q5 0 7.5 -0.5t6.5 -5.5l124 -138q3 -4 3 -8q0 -2 -2.5 -7.5t-10.5 -13.5q-9 -8 -13.5 -10t-7.5 -2q-4 0 -9 4t-11 9l-100 91h-12z" />
<glyph unicode="&#x135;" d="M153 -35q0 -51 -8 -87.5t-33 -61.5q-17 -18 -43 -28.5t-62 -10.5q-18 0 -35.5 1.5t-30.5 4.5q-9 2 -11.5 7t-2.5 11q0 8 1 18t2 15q1 11 9 11q6 0 21 -2t35 -2q19 0 33.5 4.5t25.5 15.5q15 15 18 38.5t3 57.5v569h78v-561zM108 705l-102 -92q-9 -8 -13 -10.5t-7 -2.5 q-7 0 -19 12q-8 8 -10.5 13.5t-2.5 7.5q0 4 3 8l124 138q4 5 6.5 5.5t7.5 0.5h38q5 0 7.5 -0.5t6.5 -5.5l124 -138q3 -4 3 -8q0 -2 -2.5 -7.5t-10.5 -13.5q-12 -12 -19 -12q-4 0 -18 13l-104 92h-12z" />
<glyph unicode="&#x136;" horiz-adv-x="621" d="M70 689h80v-362l323 362h99l-250 -275l262 -372q10 -14 13 -19.5t3 -10.5q0 -6 -8.5 -10.5t-30.5 -4.5q-15 0 -24.5 1.5t-16 5t-11.5 9t-11 13.5l-232 333l-116 -129v-209q0 -9 -6.5 -17.5t-33.5 -8.5t-33.5 8.5t-6.5 18.5v667zM324 -268q-2 -10 -9.5 -13t-22.5 -3 q-32 0 -30 16l18 197h79z" />
<glyph unicode="&#x137;" horiz-adv-x="503" d="M146 25q0 -8 -6 -18t-34 -10q-27 0 -32.5 10t-5.5 18v709h78v-465l252 257h92l-195 -198l194 -299q2 -4 3.5 -6.5t1.5 -7.5q0 -16 -37 -16q-13 0 -21.5 1.5t-14.5 5t-11.5 10t-12.5 17.5l-157 247l-94 -94v-161zM261 -268q-2 -10 -9.5 -13t-22.5 -3q-32 0 -30 16l18 197 h79z" />
<glyph unicode="&#x138;" horiz-adv-x="503" d="M146 25q0 -8 -6 -18t-34 -10q-27 0 -32.5 10t-5.5 18v501h78v-257l252 257h92l-195 -198l194 -299q2 -4 3.5 -6.5t1.5 -7.5q0 -16 -37 -16q-13 0 -21.5 1.5t-14.5 5t-11.5 10t-12.5 17.5l-157 247l-94 -94v-161z" />
<glyph unicode="&#x139;" horiz-adv-x="505" d="M70 689h80v-620h321v-69h-371q-30 0 -30 28v661zM252 936l42 -75l-210 -99q-12 -6 -18 -6q-2 0 -7.5 3.5t-14.5 19.5q-6 11 -7 16t-1 7q0 6 9 11z" />
<glyph unicode="&#x13a;" horiz-adv-x="269" d="M146 734v-594q0 -23 1.5 -40.5t12.5 -28.5q8 -8 22 -11t27 -3q9 0 18 1.5t14 1.5q4 0 6 -1.5t3 -7.5q1 -5 2 -18t1 -19t-1.5 -8.5t-8.5 -4.5q-14 -3 -28.5 -4.5t-25.5 -1.5q-30 0 -54.5 8t-38.5 24q-15 15 -21.5 41t-6.5 69v597h78zM224 958l38 -69l-211 -99 q-8 -4 -14 -4q-10 0 -19 17q-6 10 -6 18q0 10 12 18z" />
<glyph unicode="&#x13b;" horiz-adv-x="505" d="M70 689h80v-620h321v-69h-371q-30 0 -30 28v661zM299 -268q-2 -10 -9.5 -13t-22.5 -3q-32 0 -30 16l18 197h79z" />
<glyph unicode="&#x13c;" horiz-adv-x="269" d="M146 734v-594q0 -23 1.5 -40.5t12.5 -28.5q8 -8 22 -11t27 -3q9 0 18 1.5t14 1.5q4 0 6 -1.5t3 -7.5q1 -5 2 -18t1 -19t-1.5 -8.5t-8.5 -4.5q-14 -3 -28.5 -4.5t-25.5 -1.5q-30 0 -54.5 8t-38.5 24q-15 15 -21.5 41t-6.5 69v597h78zM165 -268q-2 -10 -9.5 -13t-22.5 -3 q-32 0 -30 16l18 197h79z" />
<glyph unicode="&#x13d;" horiz-adv-x="535" d="M70 689h80v-620h321v-69h-371q-30 0 -30 28v661zM319 492q-2 -10 -9.5 -13t-22.5 -3q-32 0 -30 16l18 197h79z" />
<glyph unicode="&#x13e;" horiz-adv-x="342" d="M146 734v-594q0 -23 1.5 -40.5t12.5 -28.5q8 -8 22 -11t27 -3q9 0 18 1.5t14 1.5q4 0 6 -1.5t3 -7.5q1 -5 2 -18t1 -19t-1.5 -8.5t-8.5 -4.5q-14 -3 -28.5 -4.5t-25.5 -1.5q-30 0 -54.5 8t-38.5 24q-15 15 -21.5 41t-6.5 69v597h78zM277 537q-2 -10 -9.5 -13t-22.5 -3 q-32 0 -30 16l18 197h79z" />
<glyph unicode="&#x13f;" horiz-adv-x="539" d="M70 689h80v-620h321v-69h-371q-30 0 -30 28v661zM385 327q-26 0 -44.5 19t-18.5 45t18.5 45t44.5 19t45 -19t19 -45t-19 -45t-45 -19z" />
<glyph unicode="&#x140;" horiz-adv-x="397" d="M146 734v-594q0 -23 1.5 -40.5t12.5 -28.5q8 -8 22 -11t27 -3q9 0 18 1.5t14 1.5q4 0 6 -1.5t3 -7.5q1 -5 2 -18t1 -19t-1.5 -8.5t-8.5 -4.5q-14 -3 -28.5 -4.5t-25.5 -1.5q-30 0 -54.5 8t-38.5 24q-15 15 -21.5 41t-6.5 69v597h78zM303 315q-26 0 -44.5 19t-18.5 45 t18.5 45t44.5 19t45 -19t19 -45t-19 -45t-45 -19z" />
<glyph unicode="&#x141;" horiz-adv-x="561" d="M118 258l-74 -45q-10 -6 -15 -6q-4 0 -9 4t-14 19q-6 11 -8 16.5t-2 10.5q0 6 9 11l113 69v352h80v-310l131 79l34 -57l-165 -101v-231h321v-69h-371q-30 0 -30 28v230z" />
<glyph unicode="&#x142;" horiz-adv-x="396" d="M213 734v-325l126 79l31 -52l-157 -100v-196q0 -23 1.5 -40.5t12.5 -28.5q8 -8 22 -11t27 -3q9 0 18 1.5t14 1.5q4 0 6 -1.5t3 -7.5q1 -5 2 -18t1 -19t-1.5 -8.5t-8.5 -4.5q-14 -3 -28.5 -4.5t-25.5 -1.5q-30 0 -54.5 8t-38.5 24q-15 15 -21.5 41t-6.5 69v159l-86 -55 q-2 -2 -5.5 -3.5t-7.5 -1.5q-3 0 -8 3.5t-14 17.5q-7 11 -8.5 15t-1.5 8q0 7 10 13l121 76v365h78z" />
<glyph unicode="&#x143;" horiz-adv-x="682" d="M537 689h75v-661q0 -18 -10 -24.5t-32 -6.5q-25 0 -35 6t-18 17l-372 574v-567q0 -14 -6.5 -23t-30.5 -9q-25 0 -31.5 8.5t-6.5 22.5v663h99l368 -567v567zM467 936l42 -75l-210 -99q-12 -6 -18 -6q-2 0 -7.5 3.5t-14.5 19.5q-6 11 -7 16t-1 7q0 6 9 11z" />
<glyph unicode="&#x144;" horiz-adv-x="580" d="M437 332q0 39 -4.5 63t-18.5 42q-27 34 -95 34q-45 0 -91 -18.5t-82 -43.5v-384q0 -8 -6 -18t-34 -10q-27 0 -32.5 10t-5.5 18v501h70l4 -59q45 31 92.5 50t102.5 19q84 0 130 -44q24 -23 36 -58t12 -87v-322q0 -8 -5.5 -18t-33.5 -10q-26 0 -32.5 10t-6.5 18v307z M428 778l38 -69l-211 -99q-8 -4 -14 -4q-10 0 -19 17q-6 10 -6 18q0 10 12 18z" />
<glyph unicode="&#x145;" horiz-adv-x="682" d="M537 689h75v-661q0 -18 -10 -24.5t-32 -6.5q-25 0 -35 6t-18 17l-372 574v-567q0 -14 -6.5 -23t-30.5 -9q-25 0 -31.5 8.5t-6.5 22.5v663h99l368 -567v567zM355 -268q-2 -10 -9.5 -13t-22.5 -3q-32 0 -30 16l18 197h79z" />
<glyph unicode="&#x146;" horiz-adv-x="580" d="M437 332q0 39 -4.5 63t-18.5 42q-27 34 -95 34q-45 0 -91 -18.5t-82 -43.5v-384q0 -8 -6 -18t-34 -10q-27 0 -32.5 10t-5.5 18v501h70l4 -59q45 31 92.5 50t102.5 19q84 0 130 -44q24 -23 36 -58t12 -87v-322q0 -8 -5.5 -18t-33.5 -10q-26 0 -32.5 10t-6.5 18v307z M305 -268q-2 -10 -9.5 -13t-22.5 -3q-32 0 -30 16l18 197h79z" />
<glyph unicode="&#x147;" horiz-adv-x="682" d="M537 689h75v-661q0 -18 -10 -24.5t-32 -6.5q-25 0 -35 6t-18 17l-372 574v-567q0 -14 -6.5 -23t-30.5 -9q-25 0 -31.5 8.5t-6.5 22.5v663h99l368 -567v567zM357 853l114 103l40 -39l-116 -129q-8 -8 -18 -13t-27 -5q-20 0 -28.5 5.5t-14.5 12.5l-116 129l38 39l116 -103 h12z" />
<glyph unicode="&#x148;" horiz-adv-x="580" d="M437 332q0 39 -4.5 63t-18.5 42q-27 34 -95 34q-45 0 -91 -18.5t-82 -43.5v-384q0 -8 -6 -18t-34 -10q-27 0 -32.5 10t-5.5 18v501h70l4 -59q45 31 92.5 50t102.5 19q84 0 130 -44q24 -23 36 -58t12 -87v-322q0 -8 -5.5 -18t-33.5 -10q-26 0 -32.5 10t-6.5 18v307z M296 600q-29 0 -44 16l-116 129l38 37l113 -106h18l113 106l38 -37l-116 -129q-15 -16 -44 -16z" />
<glyph unicode="&#x149;" horiz-adv-x="660" d="M517 332q0 39 -4.5 63t-18.5 42q-27 34 -95 34q-45 0 -91 -18.5t-82 -43.5v-384q0 -8 -6 -18t-34 -10q-27 0 -32.5 10t-5.5 18v501h70l4 -59q45 31 92.5 50t102.5 19q84 0 130 -44q24 -23 36 -58t12 -87v-322q0 -8 -5.5 -18t-33.5 -10q-26 0 -32.5 10t-6.5 18v307z M98 642q0 -47 -17 -92.5t-43 -89.5q-8 -14 -11 -17t-7 -3q-7 0 -18 5q-17 8 -17 16q0 4 2 8.5t7 13.5q8 15 14.5 30t12.5 29q3 7 6 15.5t3 13.5q0 8 -3.5 11t-11.5 8q-15 9 -20.5 21t-5.5 32q0 30 13 43.5t42 13.5t41.5 -14.5t12.5 -43.5z" />
<glyph unicode="&#x14a;" horiz-adv-x="682" d="M516 -108q13 13 16.5 32.5t4.5 45.5v30l-392 600v-573q0 -14 -6.5 -23t-30.5 -9q-25 0 -31.5 8.5t-6.5 22.5v663h102l365 -559v559h75v-693q0 -51 -8 -87.5t-33 -61.5q-17 -18 -43 -28.5t-62 -10.5q-18 0 -35.5 1.5t-30.5 4.5q-9 2 -11.5 7t-2.5 11q0 8 1 18t2 15 q1 11 9 11q6 0 21.5 -2t35.5 -2q19 0 34.5 4.5t26.5 15.5z" />
<glyph unicode="&#x14b;" horiz-adv-x="580" d="M437 332q0 39 -4.5 63t-18.5 42q-27 34 -95 34q-45 0 -91 -18.5t-82 -43.5v-384q0 -8 -6 -18t-34 -10q-27 0 -32.5 10t-5.5 18v501h70l4 -59q45 31 92.5 50t102.5 19q84 0 130 -44q24 -23 36 -58t12 -87v-329q0 -51 -8 -87.5t-33 -61.5q-17 -18 -43 -28.5t-62 -10.5 q-18 0 -35.5 1.5t-30.5 4.5q-9 2 -11.5 7t-2.5 11q0 8 1 18t2 15q1 11 9 11q6 0 21 -2t35 -2q19 0 33.5 4.5t25.5 15.5q15 15 18 38.5t3 57.5v322z" />
<glyph unicode="&#x14c;" horiz-adv-x="720" d="M666 345q0 -81 -18 -146.5t-55.5 -112t-95.5 -71.5t-137 -25q-80 0 -137.5 25t-95 71.5t-55.5 112t-18 146.5t18 146.5t55.5 111.5t95 71t137.5 25q79 0 137 -25t95.5 -71t55.5 -111.5t18 -146.5zM584 345q0 140 -53.5 213t-170.5 73q-118 0 -171 -72.5t-53 -213.5 t53 -214t171 -73q117 0 170.5 73.5t53.5 213.5zM496 872v-66h-253q-10 0 -14.5 6.5t-4.5 26.5t4.5 26.5t14.5 6.5h253z" />
<glyph unicode="&#x14d;" horiz-adv-x="594" d="M51 266q0 136 64.5 203t181.5 67q246 0 246 -269v-5q0 -272 -246 -272q-117 0 -181.5 68t-64.5 204v4zM131 264q0 -106 39.5 -159t126.5 -53q166 0 166 212q0 109 -40.5 159.5t-125.5 50.5q-87 0 -126.5 -49t-39.5 -161zM428 707v-62h-243q-8 0 -13.5 6t-5.5 25 q0 20 4.5 25.5t14.5 5.5h243z" />
<glyph unicode="&#x14e;" horiz-adv-x="720" d="M666 345q0 -81 -18 -146.5t-55.5 -112t-95.5 -71.5t-137 -25q-80 0 -137.5 25t-95 71.5t-55.5 112t-18 146.5t18 146.5t55.5 111.5t95 71t137.5 25q79 0 137 -25t95.5 -71t55.5 -111.5t18 -146.5zM584 345q0 140 -53.5 213t-170.5 73q-118 0 -171 -72.5t-53 -213.5 t53 -214t171 -73q117 0 170.5 73.5t53.5 213.5zM361 782q-30 0 -58.5 8.5t-50 27t-35.5 48t-16 72.5h57q9 -48 38 -67.5t65 -19.5t65 19.5t38 67.5h57q-2 -43 -16 -72.5t-35.5 -48t-50 -27t-58.5 -8.5z" />
<glyph unicode="&#x14f;" horiz-adv-x="594" d="M51 266q0 136 64.5 203t181.5 67q246 0 246 -269v-5q0 -272 -246 -272q-117 0 -181.5 68t-64.5 204v4zM131 264q0 -106 39.5 -159t126.5 -53q166 0 166 212q0 109 -40.5 159.5t-125.5 50.5q-87 0 -126.5 -49t-39.5 -161zM297 608q-32 0 -60.5 10t-50 29.5t-35 48.5 t-14.5 68h54q1 -26 11 -44.5t25 -29.5t33 -16t37 -5t37 5t33 16t24.5 29.5t11.5 44.5h54q-2 -39 -15 -68t-34.5 -48.5t-50 -29.5t-60.5 -10z" />
<glyph unicode="&#x150;" horiz-adv-x="720" d="M666 345q0 -81 -18 -146.5t-55.5 -112t-95.5 -71.5t-137 -25q-80 0 -137.5 25t-95 71.5t-55.5 112t-18 146.5t18 146.5t55.5 111.5t95 71t137.5 25q79 0 137 -25t95.5 -71t55.5 -111.5t18 -146.5zM584 345q0 140 -53.5 213t-170.5 73q-118 0 -171 -72.5t-53 -213.5 t53 -214t171 -73q117 0 170.5 73.5t53.5 213.5zM368 965l49 -65l-182 -132q-10 -7 -14 -7q-2 0 -8.5 4t-15.5 15q-12 15 -12 23q0 2 1 4.5t7 7.5zM598 965l49 -65l-182 -132q-10 -7 -14 -7q-2 0 -8.5 4t-15.5 15q-12 15 -12 23q0 2 1 4.5t7 7.5z" />
<glyph unicode="&#x151;" horiz-adv-x="594" d="M51 266q0 136 64.5 203t181.5 67q246 0 246 -269v-5q0 -272 -246 -272q-117 0 -181.5 68t-64.5 204v4zM131 264q0 -106 39.5 -159t126.5 -53q166 0 166 212q0 109 -40.5 159.5t-125.5 50.5q-87 0 -126.5 -49t-39.5 -161zM330 801q11 -15 22.5 -28.5t22.5 -28.5 q-45 -33 -91 -66.5t-90 -65.5q-9 -7 -14 -7q-2 0 -7 2t-13 13q-12 15 -12 22q0 4 7 10zM541 801q11 -15 22.5 -28.5t23.5 -28.5q-45 -33 -91 -66.5t-91 -65.5q-9 -7 -13 -7q-2 0 -7 2t-13 13q-12 15 -12 22q0 4 7 10z" />
<glyph unicode="&#x152;" horiz-adv-x="1022" d="M970 689v-68h-361v-227h312v-67h-312v-258h367v-69h-585q-82 0 -144.5 18t-105.5 61q-42 42 -64.5 107.5t-22.5 157.5t22.5 159.5t64.5 109.5q44 43 106 59.5t144 16.5h579zM529 621h-138q-62 0 -109 -11t-81 -45q-37 -37 -51 -92t-14 -129t14 -128t51 -91 q29 -29 74.5 -42.5t115.5 -13.5h138v552z" />
<glyph unicode="&#x153;" horiz-adv-x="965" d="M863 5q-20 -5 -58 -10t-78 -5q-72 0 -121 16t-81 48q-10 10 -15.5 18.5t-8.5 13.5q-11 -18 -28 -35.5t-41.5 -31t-58 -21.5t-76.5 -8q-117 0 -181.5 68t-64.5 204v4q0 136 64.5 203t181.5 67q48 0 83.5 -9.5t60 -24.5t39 -32.5t21.5 -33.5q9 15 23 32.5t37.5 32.5t57 25 t80.5 10q217 0 217 -234q0 -11 -1 -30t-3 -33h-369q0 -41 7 -78t32 -63q22 -22 56.5 -32t96.5 -10q28 0 58 3.5t50 7.5q15 3 21 3q7 0 9 -3t3 -13q2 -9 2.5 -18.5t0.5 -12.5q0 -9 -2.5 -12t-13.5 -6zM131 264q0 -106 39.5 -159t126.5 -53q166 0 166 212q0 109 -40.5 159.5 t-125.5 50.5q-87 0 -126.5 -49t-39.5 -161zM836 302q1 6 1 9.5v5.5q0 77 -32.5 117t-105.5 40q-82 0 -117.5 -45.5t-38.5 -126.5h293z" />
<glyph unicode="&#x154;" horiz-adv-x="623" d="M150 353h179q34 0 62.5 7t49.5 23t32.5 42.5t11.5 66.5q0 39 -10.5 64t-30 39.5t-48 20t-64.5 5.5h-182v-268zM70 689h263q51 0 94 -7.5t74 -29.5t48.5 -60.5t17.5 -99.5q0 -89 -47 -138.5t-123 -60.5l161 -266q2 -4 4 -7.5t2 -6.5q0 -16 -40 -16q-25 0 -34.5 5.5 t-20.5 22.5l-156 261h-163v-265q0 -9 -6.5 -17.5t-33.5 -8.5t-33.5 8.5t-6.5 18.5v667zM407 936l42 -75l-210 -99q-12 -6 -18 -6q-2 0 -7.5 3.5t-14.5 19.5q-6 11 -7 16t-1 7q0 6 9 11z" />
<glyph unicode="&#x155;" horiz-adv-x="374" d="M146 25q0 -8 -6 -18t-34 -10q-27 0 -32.5 10t-5.5 18v501h68l7 -120q42 54 97.5 87t109.5 43v-84q-52 -10 -104 -36.5t-100 -79.5v-311zM296 778l38 -69l-211 -99q-8 -4 -14 -4q-10 0 -19 17q-6 10 -6 18q0 10 12 18z" />
<glyph unicode="&#x156;" horiz-adv-x="623" d="M150 353h179q34 0 62.5 7t49.5 23t32.5 42.5t11.5 66.5q0 39 -10.5 64t-30 39.5t-48 20t-64.5 5.5h-182v-268zM70 689h263q51 0 94 -7.5t74 -29.5t48.5 -60.5t17.5 -99.5q0 -89 -47 -138.5t-123 -60.5l161 -266q2 -4 4 -7.5t2 -6.5q0 -16 -40 -16q-25 0 -34.5 5.5 t-20.5 22.5l-156 261h-163v-265q0 -9 -6.5 -17.5t-33.5 -8.5t-33.5 8.5t-6.5 18.5v667zM304 -268q-2 -10 -9.5 -13t-22.5 -3q-32 0 -30 16l18 197h79z" />
<glyph unicode="&#x157;" horiz-adv-x="374" d="M146 25q0 -8 -6 -18t-34 -10q-27 0 -32.5 10t-5.5 18v501h68l7 -120q42 54 97.5 87t109.5 43v-84q-52 -10 -104 -36.5t-100 -79.5v-311zM119 -268q-2 -10 -9.5 -13t-22.5 -3q-32 0 -30 16l18 197h79z" />
<glyph unicode="&#x158;" horiz-adv-x="623" d="M150 353h179q34 0 62.5 7t49.5 23t32.5 42.5t11.5 66.5q0 39 -10.5 64t-30 39.5t-48 20t-64.5 5.5h-182v-268zM70 689h263q51 0 94 -7.5t74 -29.5t48.5 -60.5t17.5 -99.5q0 -89 -47 -138.5t-123 -60.5l161 -266q2 -4 4 -7.5t2 -6.5q0 -16 -40 -16q-25 0 -34.5 5.5 t-20.5 22.5l-156 261h-163v-265q0 -9 -6.5 -17.5t-33.5 -8.5t-33.5 8.5t-6.5 18.5v667zM305 853l114 103l40 -39l-116 -129q-8 -8 -18 -13t-27 -5q-20 0 -28.5 5.5t-14.5 12.5l-116 129l38 39l116 -103h12z" />
<glyph unicode="&#x159;" horiz-adv-x="374" d="M146 25q0 -8 -6 -18t-34 -10q-27 0 -32.5 10t-5.5 18v501h68l7 -120q42 54 97.5 87t109.5 43v-84q-52 -10 -104 -36.5t-100 -79.5v-311zM197 600q-29 0 -44 16l-116 129l38 37l113 -106h18l113 106l38 -37l-116 -129q-15 -16 -44 -16z" />
<glyph unicode="&#x15a;" horiz-adv-x="557" d="M296 699q46 0 88.5 -6.5t77.5 -17.5l-8 -65q-37 11 -75.5 16.5t-70.5 5.5q-38 0 -69.5 -6t-54 -19.5t-35.5 -35t-13 -52.5q0 -48 29.5 -74.5t92.5 -43.5l70 -19q44 -12 78.5 -27.5t57.5 -39.5q21 -22 32 -52.5t11 -75.5q0 -51 -17.5 -88t-49 -61t-76.5 -36t-99 -12 q-52 0 -102.5 8t-88.5 24q-12 5 -12 17q0 9 3 26q3 15 7.5 19t9.5 4q4 0 17 -4q46 -14 85.5 -20t79.5 -6q85 0 125 31.5t40 94.5q0 26 -5.5 45.5t-19 34t-36.5 26t-59 20.5l-68 18q-38 10 -72.5 26t-57.5 39t-36.5 53.5t-13.5 69.5q0 45 17.5 79t48.5 57t74.5 35t94.5 12z M380 936l42 -75l-210 -99q-12 -6 -18 -6q-2 0 -7.5 3.5t-14.5 19.5q-6 11 -7 16t-1 7q0 6 9 11z" />
<glyph unicode="&#x15b;" horiz-adv-x="449" d="M368 455q-22 6 -53 11t-60 5q-64 0 -96 -18t-32 -61q0 -20 7 -34t19.5 -23t30.5 -15t39 -11l39 -9q81 -19 111 -49q20 -20 28.5 -46t8.5 -59q0 -71 -50.5 -113.5t-148.5 -42.5q-35 0 -76.5 5.5t-73.5 16.5q-6 2 -9.5 5t-3.5 14q0 5 0.5 10.5t2.5 13.5q2 13 6 17t9 4 t17.5 -2.5t29.5 -6.5q22 -5 47 -8t49 -3q62 0 95 22.5t33 70.5q0 20 -5.5 33.5t-17.5 23t-31 16t-46 12.5l-38 9q-36 8 -62 20.5t-43 29.5q-38 37 -38 98q0 36 14 63t39.5 45.5t61 27.5t78.5 9q31 0 67 -6t58 -14zM338 778l38 -69l-211 -99q-8 -4 -14 -4q-10 0 -19 17 q-6 10 -6 18q0 10 12 18z" />
<glyph unicode="&#x15c;" horiz-adv-x="557" d="M296 699q46 0 88.5 -6.5t77.5 -17.5l-8 -65q-37 11 -75.5 16.5t-70.5 5.5q-38 0 -69.5 -6t-54 -19.5t-35.5 -35t-13 -52.5q0 -48 29.5 -74.5t92.5 -43.5l70 -19q44 -12 78.5 -27.5t57.5 -39.5q21 -22 32 -52.5t11 -75.5q0 -51 -17.5 -88t-49 -61t-76.5 -36t-99 -12 q-52 0 -102.5 8t-88.5 24q-12 5 -12 17q0 9 3 26q3 15 7.5 19t9.5 4q4 0 17 -4q46 -14 85.5 -20t79.5 -6q85 0 125 31.5t40 94.5q0 26 -5.5 45.5t-19 34t-36.5 26t-59 20.5l-68 18q-38 10 -72.5 26t-57.5 39t-36.5 53.5t-13.5 69.5q0 45 17.5 79t48.5 57t74.5 35t94.5 12z M278 862l-100 -91q-9 -8 -13 -10.5t-7 -2.5q-9 0 -21 12q-8 8 -10.5 13.5t-2.5 7.5q0 4 3 8l124 138q4 5 6.5 5.5t7.5 0.5h38q5 0 7.5 -0.5t6.5 -5.5l124 -138q3 -4 3 -8q0 -2 -2.5 -7.5t-10.5 -13.5q-9 -8 -13.5 -10t-7.5 -2q-4 0 -9 4t-11 9l-100 91h-12z" />
<glyph unicode="&#x15d;" horiz-adv-x="449" d="M368 455q-22 6 -53 11t-60 5q-64 0 -96 -18t-32 -61q0 -20 7 -34t19.5 -23t30.5 -15t39 -11l39 -9q81 -19 111 -49q20 -20 28.5 -46t8.5 -59q0 -71 -50.5 -113.5t-148.5 -42.5q-35 0 -76.5 5.5t-73.5 16.5q-6 2 -9.5 5t-3.5 14q0 5 0.5 10.5t2.5 13.5q2 13 6 17t9 4 t17.5 -2.5t29.5 -6.5q22 -5 47 -8t49 -3q62 0 95 22.5t33 70.5q0 20 -5.5 33.5t-17.5 23t-31 16t-46 12.5l-38 9q-36 8 -62 20.5t-43 29.5q-38 37 -38 98q0 36 14 63t39.5 45.5t61 27.5t78.5 9q31 0 67 -6t58 -14zM241 785q11 0 18 -8l118 -131q6 -6 6 -11q0 -8 -12 -20 t-20 -12q-6 0 -11 5l-111 102h-10l-111 -102q-5 -5 -11 -5q-8 0 -20 12t-12 20q0 5 6 11l118 131q7 8 18 8h34z" />
<glyph unicode="&#x15e;" horiz-adv-x="557" d="M221 -8q-41 2 -79 9.5t-68 20.5q-12 5 -12 17q0 9 3 26q3 15 7.5 19t9.5 4q4 0 17 -4q46 -14 85.5 -20t79.5 -6q85 0 125 31.5t40 94.5q0 26 -5.5 45.5t-19 34t-36.5 26t-59 20.5l-68 18q-38 10 -72.5 26t-57.5 39t-36.5 53.5t-13.5 69.5q0 45 17.5 79t48.5 57t74.5 35 t94.5 12q46 0 88.5 -6.5t77.5 -17.5l-8 -65q-37 11 -75.5 16.5t-70.5 5.5q-38 0 -69.5 -6t-54 -19.5t-35.5 -35t-13 -52.5q0 -48 29.5 -74.5t92.5 -43.5l70 -19q44 -12 78.5 -27.5t57.5 -39.5q21 -22 32 -52.5t11 -75.5q0 -50 -17 -86.5t-47.5 -61t-74 -36.5t-95.5 -13 l-11 -55q9 3 20 5t24 2q16 0 31 -5.5t27 -17t19 -28.5t7 -39q0 -59 -33 -84.5t-95 -25.5q-21 0 -44.5 4t-40.5 10q-10 4 -10 11q0 4 1 10t3 11q6 19 14 19q9 0 24 -6t45 -6q40 0 56.5 15t16.5 38q0 25 -12 35.5t-38 10.5q-17 0 -31.5 -3.5t-19.5 -3.5q-7 0 -14 7t-7 13t4 25 z" />
<glyph unicode="&#x15f;" horiz-adv-x="449" d="M167 -8q-28 2 -55.5 7t-50.5 13q-6 2 -9.5 5t-3.5 14q0 5 0.5 10.5t2.5 13.5q2 13 6 17t9 4t16.5 -3t28.5 -7q22 -5 48 -7.5t50 -2.5q62 0 95 22.5t33 70.5q0 20 -5.5 33.5t-17.5 23t-31 16t-46 12.5l-38 9q-36 8 -62 20.5t-43 29.5q-38 37 -38 98q0 36 14 63t39.5 45.5 t61 27.5t78.5 9q31 0 67 -6t58 -14l-6 -61q-22 6 -53 11t-60 5q-64 0 -96 -18t-32 -61q0 -20 7 -34t19.5 -23t30.5 -15t39 -11l39 -9q81 -19 111 -49q20 -20 28.5 -46t8.5 -59q0 -69 -48.5 -111.5t-142.5 -44.5l-11 -55q9 3 20 5t24 2q16 0 31 -5.5t27 -17t19 -28.5t7 -39 q0 -59 -33 -84.5t-95 -25.5q-21 0 -44.5 4t-40.5 10q-10 4 -10 11q0 4 1 10t3 11q6 19 14 19q9 0 24 -6t45 -6q40 0 56.5 15t16.5 38q0 25 -12 35.5t-38 10.5q-17 0 -31.5 -3.5t-19.5 -3.5q-7 0 -14 7t-7 13t4 25z" />
<glyph unicode="&#x160;" horiz-adv-x="557" d="M296 699q46 0 88.5 -6.5t77.5 -17.5l-8 -65q-37 11 -75.5 16.5t-70.5 5.5q-38 0 -69.5 -6t-54 -19.5t-35.5 -35t-13 -52.5q0 -48 29.5 -74.5t92.5 -43.5l70 -19q44 -12 78.5 -27.5t57.5 -39.5q21 -22 32 -52.5t11 -75.5q0 -51 -17.5 -88t-49 -61t-76.5 -36t-99 -12 q-52 0 -102.5 8t-88.5 24q-12 5 -12 17q0 9 3 26q3 15 7.5 19t9.5 4q4 0 17 -4q46 -14 85.5 -20t79.5 -6q85 0 125 31.5t40 94.5q0 26 -5.5 45.5t-19 34t-36.5 26t-59 20.5l-68 18q-38 10 -72.5 26t-57.5 39t-36.5 53.5t-13.5 69.5q0 45 17.5 79t48.5 57t74.5 35t94.5 12z M285 853l114 103l40 -39l-116 -129q-8 -8 -18 -13t-27 -5q-20 0 -28.5 5.5t-14.5 12.5l-116 129l38 39l116 -103h12z" />
<glyph unicode="&#x161;" horiz-adv-x="449" d="M368 455q-22 6 -53 11t-60 5q-64 0 -96 -18t-32 -61q0 -20 7 -34t19.5 -23t30.5 -15t39 -11l39 -9q81 -19 111 -49q20 -20 28.5 -46t8.5 -59q0 -71 -50.5 -113.5t-148.5 -42.5q-35 0 -76.5 5.5t-73.5 16.5q-6 2 -9.5 5t-3.5 14q0 5 0.5 10.5t2.5 13.5q2 13 6 17t9 4 t17.5 -2.5t29.5 -6.5q22 -5 47 -8t49 -3q62 0 95 22.5t33 70.5q0 20 -5.5 33.5t-17.5 23t-31 16t-46 12.5l-38 9q-36 8 -62 20.5t-43 29.5q-38 37 -38 98q0 36 14 63t39.5 45.5t61 27.5t78.5 9q31 0 67 -6t58 -14zM229 600q-29 0 -44 16l-116 129l38 37l113 -106h18l113 106 l38 -37l-116 -129q-15 -16 -44 -16z" />
<glyph unicode="&#x162;" horiz-adv-x="587" d="M254 621h-230v68h539v-68h-229v-600q0 -9 -6.5 -17.5t-33.5 -8.5t-33.5 8.5t-6.5 18.5v599zM301 -268q-2 -10 -9.5 -13t-22.5 -3q-32 0 -30 16l18 197h79z" />
<glyph unicode="&#x163;" horiz-adv-x="417" d="M38 505q21 13 42.5 30.5t40 38t33.5 42t24 44.5h35v-134h166l-3 -61h-163v-305q0 -33 3 -53t15 -32t31.5 -15t37.5 -3q17 0 38 3t26 3t8.5 -2.5t4.5 -11.5t1 -17v-12q0 -10 -3.5 -12.5t-10.5 -4.5q-14 -5 -38 -8t-43 -3q-44 0 -72.5 8.5t-45 27.5t-23.5 49t-7 73v315h-95 q-9 0 -11.5 4.5t-2.5 13.5t2.5 13t9.5 9zM266 -268q-2 -10 -9.5 -13t-22.5 -3q-32 0 -30 16l18 197h79z" />
<glyph unicode="&#x164;" horiz-adv-x="588" d="M254 621h-230v68h539v-68h-229v-600q0 -9 -6.5 -17.5t-33.5 -8.5t-33.5 8.5t-6.5 18.5v599zM299 853l114 103l40 -39l-116 -129q-8 -8 -18 -13t-27 -5q-20 0 -28.5 5.5t-14.5 12.5l-116 129l38 39l116 -103h12z" />
<glyph unicode="&#x165;" horiz-adv-x="436" d="M38 505q21 13 42.5 30.5t40 38t33.5 42t24 44.5h35v-134h166l-3 -61h-163v-305q0 -33 3 -53t15 -32t31.5 -15t37.5 -3q17 0 38 3t26 3t8.5 -2.5t4.5 -11.5t1 -17v-12q0 -10 -3.5 -12.5t-10.5 -4.5q-14 -5 -38 -8t-43 -3q-44 0 -72.5 8.5t-45 27.5t-23.5 49t-7 73v315h-95 q-9 0 -11.5 4.5t-2.5 13.5t2.5 13t9.5 9zM351 604q-2 -10 -9.5 -13t-22.5 -3q-32 0 -30 16l18 197h79z" />
<glyph unicode="&#x166;" horiz-adv-x="643" d="M282 296h-112q-10 0 -14.5 6t-4.5 28t5.5 27.5t13.5 5.5h112v258h-230v68h539v-68h-229v-258h145v-67h-145v-275q0 -9 -6.5 -17.5t-33.5 -8.5t-33.5 8.5t-6.5 18.5v274z" />
<glyph unicode="&#x167;" horiz-adv-x="467" d="M58 505q21 13 42.5 30.5t40 38t33.5 42t24 44.5h35v-134h166l-3 -61h-163v-172h132v-61h-132v-72q0 -33 3 -53t15 -32t31.5 -15t37.5 -3q17 0 38 3t26 3t8.5 -2.5t4.5 -11.5t1 -17v-12q0 -10 -3.5 -12.5t-10.5 -4.5q-14 -5 -38 -8t-43 -3q-44 0 -72.5 8.5t-45 27.5 t-23.5 49t-7 73v82h-59q-8 0 -13.5 6t-5.5 25q0 20 4.5 25t14.5 5h59v172h-95q-9 0 -11.5 4.5t-2.5 13.5t2.5 13t9.5 9z" />
<glyph unicode="&#x168;" horiz-adv-x="659" d="M593 245q0 -63 -16.5 -108t-46.5 -75q-35 -35 -85 -53.5t-110 -18.5h-11q-60 0 -109.5 18.5t-84.5 53.5q-31 30 -47.5 75t-16.5 108v444h80v-443q0 -94 50 -144q43 -45 134 -45q87 0 134 45q50 50 50 141v446h79v-444zM158 783q-16 10 -16 15q0 4 7 16q22 41 49.5 63.5 t61.5 22.5q24 0 43 -10t36 -22t33 -22t34 -10q20 0 35 17t29 41l46 -32q-21 -39 -47.5 -66.5t-65.5 -27.5q-23 0 -41.5 10t-35 22t-33 22t-35.5 10q-14 0 -28.5 -10.5t-28.5 -34.5q-5 -8 -8 -13t-7 -5q-3 0 -10.5 4t-17.5 10z" />
<glyph unicode="&#x169;" horiz-adv-x="551" d="M235 -10q-48 0 -78.5 13t-50.5 36q-22 25 -31.5 60.5t-9.5 86.5v340h78v-332q0 -39 4.5 -63t18.5 -42q27 -34 93 -34q17 0 37 4.5t40 12.5t38 18.5t30 22.5v413h77v-352q0 -62 4 -104.5t4 -50.5t-6 -15t-26 -7q-22 0 -28.5 5t-9.5 18l-9 37q-31 -27 -76 -47t-99 -20z M106 624q-17 11 -17 16t6 16q22 41 50.5 63t62.5 22q24 0 43 -10t36 -22t33 -22t34 -10q20 0 35 17t29 41l43 -29q-17 -38 -45.5 -66t-67.5 -28q-23 0 -41.5 10t-35 22t-33 22t-35.5 10q-14 0 -28.5 -10.5t-28.5 -34.5q-5 -8 -8 -13t-7 -5q-7 0 -25 11z" />
<glyph unicode="&#x16a;" horiz-adv-x="659" d="M593 245q0 -63 -16.5 -108t-46.5 -75q-35 -35 -85 -53.5t-110 -18.5h-11q-60 0 -109.5 18.5t-84.5 53.5q-31 30 -47.5 75t-16.5 108v444h80v-443q0 -94 50 -144q43 -45 134 -45q87 0 134 45q50 50 50 141v446h79v-444zM465 872v-66h-253q-10 0 -14.5 6.5t-4.5 26.5 t4.5 26.5t14.5 6.5h253z" />
<glyph unicode="&#x16b;" horiz-adv-x="551" d="M235 -10q-48 0 -78.5 13t-50.5 36q-22 25 -31.5 60.5t-9.5 86.5v340h78v-332q0 -39 4.5 -63t18.5 -42q27 -34 93 -34q17 0 37 4.5t40 12.5t38 18.5t30 22.5v413h77v-352q0 -62 4 -104.5t4 -50.5t-6 -15t-26 -7q-22 0 -28.5 5t-9.5 18l-9 37q-31 -27 -76 -47t-99 -20z M406 707v-62h-243q-8 0 -13.5 6t-5.5 25q0 20 4.5 25.5t14.5 5.5h243z" />
<glyph unicode="&#x16c;" horiz-adv-x="659" d="M593 245q0 -63 -16.5 -108t-46.5 -75q-35 -35 -85 -53.5t-110 -18.5h-11q-60 0 -109.5 18.5t-84.5 53.5q-31 30 -47.5 75t-16.5 108v444h80v-443q0 -94 50 -144q43 -45 134 -45q87 0 134 45q50 50 50 141v446h79v-444zM329 782q-30 0 -58.5 8.5t-50 27t-35.5 48t-16 72.5 h57q9 -48 38 -67.5t65 -19.5t65 19.5t38 67.5h57q-2 -43 -16 -72.5t-35.5 -48t-50 -27t-58.5 -8.5z" />
<glyph unicode="&#x16d;" horiz-adv-x="551" d="M235 -10q-48 0 -78.5 13t-50.5 36q-22 25 -31.5 60.5t-9.5 86.5v340h78v-332q0 -39 4.5 -63t18.5 -42q27 -34 93 -34q17 0 37 4.5t40 12.5t38 18.5t30 22.5v413h77v-352q0 -62 4 -104.5t4 -50.5t-6 -15t-26 -7q-22 0 -28.5 5t-9.5 18l-9 37q-31 -27 -76 -47t-99 -20z M275 608q-32 0 -60.5 10t-50 29.5t-35 48.5t-14.5 68h54q1 -26 11 -44.5t25 -29.5t33 -16t37 -5t37 5t33 16t24.5 29.5t11.5 44.5h54q-2 -39 -15 -68t-34.5 -48.5t-50 -29.5t-60.5 -10z" />
<glyph unicode="&#x16e;" horiz-adv-x="659" d="M593 245q0 -63 -16.5 -108t-46.5 -75q-35 -35 -85 -53.5t-110 -18.5h-11q-60 0 -109.5 18.5t-84.5 53.5q-31 30 -47.5 75t-16.5 108v444h80v-443q0 -94 50 -144q43 -45 134 -45q87 0 134 45q50 50 50 141v446h79v-444zM330 964q43 0 73.5 -29t30.5 -77t-30.5 -76.5 t-73.5 -28.5t-74 28.5t-31 76.5q0 24 8.5 43.5t22.5 33.5t33.5 21.5t40.5 7.5zM329 804q23 0 37.5 15.5t14.5 38.5t-14.5 39t-37.5 16q-22 0 -36.5 -16t-14.5 -39t14.5 -38.5t36.5 -15.5z" />
<glyph unicode="&#x16f;" horiz-adv-x="551" d="M235 -10q-48 0 -78.5 13t-50.5 36q-22 25 -31.5 60.5t-9.5 86.5v340h78v-332q0 -39 4.5 -63t18.5 -42q27 -34 93 -34q17 0 37 4.5t40 12.5t38 18.5t30 22.5v413h77v-352q0 -62 4 -104.5t4 -50.5t-6 -15t-26 -7q-22 0 -28.5 5t-9.5 18l-9 37q-31 -27 -76 -47t-99 -20z M276 789q42 0 72 -28t30 -76q0 -47 -30 -75t-72 -28t-72.5 28t-30.5 75q0 24 8 43t22.5 32.5t33 21t39.5 7.5zM275 627q24 0 40 16.5t16 41.5t-16 42t-40 17q-23 0 -39 -17t-16 -42t16 -41.5t39 -16.5z" />
<glyph unicode="&#x170;" horiz-adv-x="659" d="M593 245q0 -63 -16.5 -108t-46.5 -75q-35 -35 -85 -53.5t-110 -18.5h-11q-60 0 -109.5 18.5t-84.5 53.5q-31 30 -47.5 75t-16.5 108v444h80v-443q0 -94 50 -144q43 -45 134 -45q87 0 134 45q50 50 50 141v446h79v-444zM340 965l49 -65l-182 -132q-10 -7 -14 -7 q-2 0 -8.5 4t-15.5 15q-12 15 -12 23q0 2 1 4.5t7 7.5zM570 965l49 -65l-182 -132q-10 -7 -14 -7q-2 0 -8.5 4t-15.5 15q-12 15 -12 23q0 2 1 4.5t7 7.5z" />
<glyph unicode="&#x171;" horiz-adv-x="551" d="M235 -10q-48 0 -78.5 13t-50.5 36q-22 25 -31.5 60.5t-9.5 86.5v340h78v-332q0 -39 4.5 -63t18.5 -42q27 -34 93 -34q17 0 37 4.5t40 12.5t38 18.5t30 22.5v413h77v-352q0 -62 4 -104.5t4 -50.5t-6 -15t-26 -7q-22 0 -28.5 5t-9.5 18l-9 37q-31 -27 -76 -47t-99 -20z M321 801q11 -15 22.5 -28.5t22.5 -28.5q-45 -33 -91 -66.5t-90 -65.5q-9 -7 -14 -7q-2 0 -7 2t-13 13q-12 15 -12 22q0 4 7 10zM532 801q11 -15 22.5 -28.5t23.5 -28.5q-45 -33 -91 -66.5t-91 -65.5q-9 -7 -13 -7q-2 0 -7 2t-13 13q-12 15 -12 22q0 4 7 10z" />
<glyph unicode="&#x172;" horiz-adv-x="659" d="M303 -123q0 34 15 60.5t40 52.5h-32q-63 0 -112 18.5t-84 53.5q-31 30 -47.5 75t-16.5 108v444h80v-443q0 -94 50 -144q43 -45 134 -45q87 0 134 45q50 50 50 141v446h79v-444q0 -63 -16.5 -108t-46.5 -75q-22 -22 -44 -33.5t-49 -27.5q-33 -20 -51 -51.5t-18 -62.5 q0 -24 13.5 -37.5t48.5 -13.5q25 0 41 5t23 5t11 -11q2 -5 3 -12t1 -13q0 -7 -10 -12q-13 -6 -37 -11t-48 -5q-51 0 -81 23.5t-30 71.5z" />
<glyph unicode="&#x173;" horiz-adv-x="551" d="M410 56q-31 -27 -76 -46.5t-99 -19.5q-48 0 -78.5 13t-50.5 36q-22 25 -31.5 60.5t-9.5 86.5v340h78v-332q0 -39 4.5 -63t18.5 -42q27 -34 93 -34q17 0 37 4.5t40 12.5t38 18.5t30 22.5v413h77v-352q0 -62 4 -104.5t4 -50.5q0 -16 -15 -20q-57 -17 -88.5 -43t-31.5 -69 q0 -51 63 -51q25 0 40.5 5t22.5 5t10 -8q2 -6 3.5 -14.5t1.5 -13.5q0 -7 -10 -12q-13 -6 -36.5 -11t-47.5 -5q-51 0 -81.5 23.5t-30.5 70.5q0 28 10.5 50.5t28 40t41 31t49.5 23.5z" />
<glyph unicode="&#x174;" horiz-adv-x="995" d="M706 70h12q37 140 76.5 297t74.5 322h80q-41 -188 -84.5 -350t-79.5 -311q-2 -6 -4.5 -11t-9.5 -8.5t-21 -6t-38 -2.5q-25 0 -39 2.5t-20.5 6.5t-9 9t-3.5 11l-135 572h-10l-125 -575q-1 -6 -3.5 -10.5t-10 -8t-22 -5.5t-38.5 -2t-38 2.5t-21.5 6.5t-10.5 9t-4 11 q-40 147 -87.5 315t-88.5 345h84q18 -77 38.5 -158t41 -161t41 -156t38.5 -144h15q31 143 64.5 297t64.5 302q3 13 5.5 16.5t11.5 3.5h95q9 0 12.5 -3t6.5 -17zM493 862l-100 -91q-9 -8 -13 -10.5t-7 -2.5q-9 0 -21 12q-8 8 -10.5 13.5t-2.5 7.5q0 4 3 8l124 138 q4 5 6.5 5.5t7.5 0.5h38q5 0 7.5 -0.5t6.5 -5.5l124 -138q3 -4 3 -8q0 -2 -2.5 -7.5t-10.5 -13.5q-9 -8 -13.5 -10t-7.5 -2q-4 0 -9 4t-11 9l-100 91h-12z" />
<glyph unicode="&#x175;" horiz-adv-x="783" d="M761 526q-14 -56 -31 -122t-35.5 -133.5t-37 -132t-33.5 -117.5q-4 -12 -17 -16.5t-48 -4.5q-21 0 -33.5 1.5t-19 4.5t-8.5 6.5t-3 8.5l-97 406h-8l-103 -405q-2 -6 -4 -10t-8.5 -6.5t-18.5 -4t-33 -1.5q-23 0 -35.5 1.5t-19 4.5t-8.5 7.5t-4 10.5q-30 105 -66 235 t-68 267h80q12 -59 26 -120.5t29 -122t30.5 -118t30.5 -108.5h9l114 453q3 11 6.5 13.5t11.5 2.5h70q8 0 11 -3t6 -15q0 -1 4.5 -20.5t12 -51.5t17.5 -72.5t20 -82.5l54 -224h10q13 49 28 107t30.5 119.5t30.5 123.5t29 119h79zM412 785q11 0 18 -8l118 -131q6 -6 6 -11 q0 -8 -12 -20t-20 -12q-6 0 -11 5l-111 102h-10l-111 -102q-5 -5 -11 -5q-8 0 -20 12t-12 20q0 5 6 11l118 131q7 8 18 8h34z" />
<glyph unicode="&#x176;" horiz-adv-x="609" d="M273 261q-57 95 -118 202.5t-121 225.5h89q23 -46 48 -95t49.5 -96t47 -89.5t40.5 -73.5h9q16 31 38.5 76.5t46.5 95t47 98t39 84.5h87q-58 -122 -113 -226.5t-109 -201.5v-240q0 -9 -6.5 -17.5t-33.5 -8.5t-33.5 8.5t-6.5 18.5v239zM303 862l-100 -91q-9 -8 -13 -10.5 t-7 -2.5q-9 0 -21 12q-8 8 -10.5 13.5t-2.5 7.5q0 4 3 8l124 138q4 5 6.5 5.5t7.5 0.5h38q5 0 7.5 -0.5t6.5 -5.5l124 -138q3 -4 3 -8q0 -2 -2.5 -7.5t-10.5 -13.5q-9 -8 -13.5 -10t-7.5 -2q-4 0 -9 4t-11 9l-100 91h-12z" />
<glyph unicode="&#x177;" horiz-adv-x="514" d="M490 526q-27 -86 -54 -170t-55.5 -172t-60 -184t-67.5 -207q-3 -9 -12.5 -16t-33.5 -7q-17 0 -25 6t-8 12q0 5 3 14q23 59 39 106.5t31 91.5h-27q-13 0 -18.5 5.5t-8.5 13.5q-42 115 -85.5 246t-83.5 261h83q10 -38 22.5 -78t29 -93t39.5 -124.5t55 -173.5h14l34 110.5 t36.5 119.5t37.5 122t36 117h79zM277 785q11 0 18 -8l118 -131q6 -6 6 -11q0 -8 -12 -20t-20 -12q-6 0 -11 5l-111 102h-10l-111 -102q-5 -5 -11 -5q-8 0 -20 12t-12 20q0 5 6 11l118 131q7 8 18 8h34z" />
<glyph unicode="&#x178;" horiz-adv-x="609" d="M273 261q-57 95 -118 202.5t-121 225.5h89q23 -46 48 -95t49.5 -96t47 -89.5t40.5 -73.5h9q16 31 38.5 76.5t46.5 95t47 98t39 84.5h87q-58 -122 -113 -226.5t-109 -201.5v-240q0 -9 -6.5 -17.5t-33.5 -8.5t-33.5 8.5t-6.5 18.5v239zM209 898q30 0 43 -14t13 -40v-7 q0 -26 -13 -40.5t-43 -14.5q-31 0 -44 14.5t-13 40.5v7q0 26 13 40t44 14zM408 898q30 0 43 -14t13 -40v-7q0 -26 -13 -40.5t-43 -14.5q-31 0 -44 14.5t-13 40.5v7q0 26 13 40t44 14z" />
<glyph unicode="&#x179;" horiz-adv-x="560" d="M489 689q19 0 26 -14t7 -29q0 -12 -8 -24l-380 -553h361q8 0 13.5 -7.5t5.5 -26.5q0 -20 -4.5 -27.5t-14.5 -7.5h-424q-19 0 -26 14t-7 28q0 10 8 23l381 555h-365v69h427zM422 936l42 -75l-210 -99q-12 -6 -18 -6q-2 0 -7.5 3.5t-14.5 19.5q-6 11 -7 16t-1 7q0 6 9 11z " />
<glyph unicode="&#x17a;" horiz-adv-x="460" d="M53 0q-8 0 -12 1.5t-6 6.5q-2 4 -3.5 11t-1.5 11q0 5 1.5 8.5t5.5 8.5l294 418h-289v61h357q14 0 19 -5q4 -4 8 -13t4 -17t-8 -19l-288 -410h276q8 0 13.5 -6t5.5 -25q0 -20 -4.5 -25.5t-14.5 -5.5h-357zM346 778l38 -69l-211 -99q-8 -4 -14 -4q-10 0 -19 17q-6 10 -6 18 q0 10 12 18z" />
<glyph unicode="&#x17b;" horiz-adv-x="560" d="M489 689q19 0 26 -14t7 -29q0 -12 -8 -24l-380 -553h361q8 0 13.5 -7.5t5.5 -26.5q0 -20 -4.5 -27.5t-14.5 -7.5h-424q-19 0 -26 14t-7 28q0 10 8 23l381 555h-365v69h427zM282 791q-27 0 -47 19.5t-20 47.5t20 48t47 20q28 0 48 -20t20 -48t-20 -47.5t-48 -19.5z" />
<glyph unicode="&#x17c;" horiz-adv-x="460" d="M53 0q-8 0 -12 1.5t-6 6.5q-2 4 -3.5 11t-1.5 11q0 5 1.5 8.5t5.5 8.5l294 418h-289v61h357q14 0 19 -5q4 -4 8 -13t4 -17t-8 -19l-288 -410h276q8 0 13.5 -6t5.5 -25q0 -20 -4.5 -25.5t-14.5 -5.5h-357zM231 616q-26 0 -44.5 19t-18.5 45t18.5 45t44.5 19t45 -19t19 -45 t-19 -45t-45 -19z" />
<glyph unicode="&#x17d;" horiz-adv-x="560" d="M489 689q19 0 26 -14t7 -29q0 -12 -8 -24l-380 -553h361q8 0 13.5 -7.5t5.5 -26.5q0 -20 -4.5 -27.5t-14.5 -7.5h-424q-19 0 -26 14t-7 28q0 10 8 23l381 555h-365v69h427zM287 853l114 103l40 -39l-116 -129q-8 -8 -18 -13t-27 -5q-20 0 -28.5 5.5t-14.5 12.5l-116 129 l38 39l116 -103h12z" />
<glyph unicode="&#x17e;" horiz-adv-x="460" d="M53 0q-8 0 -12 1.5t-6 6.5q-2 4 -3.5 11t-1.5 11q0 5 1.5 8.5t5.5 8.5l294 418h-289v61h357q14 0 19 -5q4 -4 8 -13t4 -17t-8 -19l-288 -410h276q8 0 13.5 -6t5.5 -25q0 -20 -4.5 -25.5t-14.5 -5.5h-357zM238 600q-29 0 -44 16l-116 129l38 37l113 -106h18l113 106 l38 -37l-116 -129q-15 -16 -44 -16z" />
<glyph unicode="&#x17f;" horiz-adv-x="381" d="M207 25q0 -8 -5.5 -18t-33.5 -10t-33.5 10t-5.5 18v440h-87q-11 0 -15.5 5t-4.5 22t4.5 22t15.5 6l87 6v43q0 90 38 131q41 44 132 44q27 0 49.5 -2.5t39.5 -7.5l-3 -60q-14 4 -34 6t-34 2q-34 0 -54.5 -5t-34.5 -19q-11 -11 -16 -29.5t-5 -55.5v-548z" />
<glyph unicode="&#x192;" horiz-adv-x="384" d="M210 -42q0 -51 -8 -87.5t-33 -61.5q-17 -18 -43 -28.5t-62 -10.5q-20 0 -36.5 2t-29.5 5q-9 2 -11.5 7t-2.5 11q0 8 1 18t2 15q1 11 9 11q6 0 19 -2.5t38 -2.5q19 0 33 4.5t25 15.5q15 15 18 38.5t3 57.5v370h-97q-8 0 -11.5 4.5t-3.5 21.5q0 16 3.5 22t9.5 7l99 6v147 q0 46 11.5 76.5t31.5 50.5q24 24 56 34t71 10q31 0 51.5 -2.5t37.5 -7.5l-3 -60q-13 3 -33 5.5t-35 2.5q-31 0 -51.5 -7t-34.5 -22q-24 -24 -24 -80v-147h162v-61h-162v-362z" />
<glyph unicode="&#x218;" horiz-adv-x="557" d="M296 699q46 0 88.5 -6.5t77.5 -17.5l-8 -65q-37 11 -75.5 16.5t-70.5 5.5q-38 0 -69.5 -6t-54 -19.5t-35.5 -35t-13 -52.5q0 -48 29.5 -74.5t92.5 -43.5l70 -19q44 -12 78.5 -27.5t57.5 -39.5q21 -22 32 -52.5t11 -75.5q0 -51 -17.5 -88t-49 -61t-76.5 -36t-99 -12 q-52 0 -102.5 8t-88.5 24q-12 5 -12 17q0 9 3 26q3 15 7.5 19t9.5 4q4 0 17 -4q46 -14 85.5 -20t79.5 -6q85 0 125 31.5t40 94.5q0 26 -5.5 45.5t-19 34t-36.5 26t-59 20.5l-68 18q-38 10 -72.5 26t-57.5 39t-36.5 53.5t-13.5 69.5q0 45 17.5 79t48.5 57t74.5 35t94.5 12z M297 -268q-2 -10 -9.5 -13t-22.5 -3q-32 0 -30 16l18 197h79z" />
<glyph unicode="&#x219;" horiz-adv-x="449" d="M368 455q-22 6 -53 11t-60 5q-64 0 -96 -18t-32 -61q0 -20 7 -34t19.5 -23t30.5 -15t39 -11l39 -9q81 -19 111 -49q20 -20 28.5 -46t8.5 -59q0 -71 -50.5 -113.5t-148.5 -42.5q-35 0 -76.5 5.5t-73.5 16.5q-6 2 -9.5 5t-3.5 14q0 5 0.5 10.5t2.5 13.5q2 13 6 17t9 4 t17.5 -2.5t29.5 -6.5q22 -5 47 -8t49 -3q62 0 95 22.5t33 70.5q0 20 -5.5 33.5t-17.5 23t-31 16t-46 12.5l-38 9q-36 8 -62 20.5t-43 29.5q-38 37 -38 98q0 36 14 63t39.5 45.5t61 27.5t78.5 9q31 0 67 -6t58 -14zM240 -268q-2 -10 -9.5 -13t-22.5 -3q-32 0 -30 16l18 197 h79z" />
<glyph unicode="&#x21a;" horiz-adv-x="587" d="M254 621h-230v68h539v-68h-229v-600q0 -9 -6.5 -17.5t-33.5 -8.5t-33.5 8.5t-6.5 18.5v599zM299 -268q-2 -10 -9.5 -13t-22.5 -3q-32 0 -30 16l18 197h79z" />
<glyph unicode="&#x21b;" horiz-adv-x="417" d="M38 505q21 13 42.5 30.5t40 38t33.5 42t24 44.5h35v-134h166l-3 -61h-163v-305q0 -33 3 -53t15 -32t31.5 -15t37.5 -3q17 0 38 3t26 3t8.5 -2.5t4.5 -11.5t1 -17v-12q0 -10 -3.5 -12.5t-10.5 -4.5q-14 -5 -38 -8t-43 -3q-44 0 -72.5 8.5t-45 27.5t-23.5 49t-7 73v315h-95 q-9 0 -11.5 4.5t-2.5 13.5t2.5 13t9.5 9zM266 -268q-2 -10 -9.5 -13t-22.5 -3q-32 0 -30 16l18 197h79z" />
<glyph unicode="&#x2c6;" horiz-adv-x="342" d="M185 785q11 0 18 -8l118 -131q6 -6 6 -11q0 -8 -12 -20t-20 -12q-6 0 -11 5l-111 102h-10l-111 -102q-5 -5 -11 -5q-8 0 -20 12t-12 20q0 5 6 11l118 131q7 8 18 8h34z" />
<glyph unicode="&#x2c7;" horiz-adv-x="328" d="M162 600q-29 0 -44 16l-116 129l38 37l113 -106h18l113 106l38 -37l-116 -129q-15 -16 -44 -16z" />
<glyph unicode="&#x2d8;" horiz-adv-x="355" d="M178 608q-32 0 -60.5 10t-50 29.5t-35 48.5t-14.5 68h54q1 -26 11 -44.5t25 -29.5t33 -16t37 -5t37 5t33 16t24.5 29.5t11.5 44.5h54q-2 -39 -15 -68t-34.5 -48.5t-50 -29.5t-60.5 -10z" />
<glyph unicode="&#x2d9;" horiz-adv-x="271" d="M135 616q-26 0 -44.5 19t-18.5 45t18.5 45t44.5 19t45 -19t19 -45t-19 -45t-45 -19z" />
<glyph unicode="&#x2da;" horiz-adv-x="302" d="M151 789q42 0 72 -28t30 -76q0 -47 -30 -75t-72 -28t-72.5 28t-30.5 75q0 24 8 43t22.5 32.5t33 21t39.5 7.5zM150 627q24 0 40 16.5t16 41.5t-16 42t-40 17q-23 0 -39 -17t-16 -42t16 -41.5t39 -16.5z" />
<glyph unicode="&#x2db;" horiz-adv-x="302" d="M55 -123q0 47 28 82.5t74 64.5h48q-42 -37 -63.5 -68.5t-21.5 -67.5q0 -52 58 -52q25 0 40.5 5t22.5 5t11 -11q2 -5 3 -12.5t1 -12.5q0 -7 -10 -12q-13 -6 -36.5 -11t-47.5 -5q-51 0 -79 25t-28 70z" />
<glyph unicode="&#x2dc;" horiz-adv-x="366" d="M15 624q-17 11 -17 16t6 16q22 41 50.5 63t62.5 22q24 0 43 -10t36 -22t33 -22t34 -10q20 0 35 17t29 41l43 -29q-17 -38 -45.5 -66t-67.5 -28q-23 0 -41.5 10t-35 22t-33 22t-35.5 10q-14 0 -28.5 -10.5t-28.5 -34.5q-5 -8 -8 -13t-7 -5q-7 0 -25 11z" />
<glyph unicode="&#x2dd;" horiz-adv-x="405" d="M200 801q11 -15 22.5 -28.5t22.5 -28.5q-45 -33 -91 -66.5t-90 -65.5q-9 -7 -14 -7q-2 0 -7 2t-13 13q-12 15 -12 22q0 4 7 10zM411 801q11 -15 22.5 -28.5t23.5 -28.5q-45 -33 -91 -66.5t-91 -65.5q-9 -7 -13 -7q-2 0 -7 2t-13 13q-12 15 -12 22q0 4 7 10z" />
<glyph unicode="&#x326;" horiz-adv-x="328" d="M181 -268q-2 -10 -9.5 -13t-22.5 -3q-32 0 -30 16l18 197h79z" />
<glyph unicode="&#x3a9;" horiz-adv-x="719" d="M293 64q9 -5 10 -11t1 -11q0 -8 -3.5 -18.5t-6.5 -15.5q-4 -6 -9 -7t-7 -1h-226v68h132q-21 14 -43.5 36t-41 56t-30.5 81.5t-12 113.5q0 76 17.5 139.5t54.5 109t94 70.5t137 25q79 0 136.5 -25t94.5 -70.5t54.5 -109t17.5 -139.5q0 -64 -11.5 -111.5t-29.5 -82 t-41.5 -57.5t-47.5 -36h134v-68h-226q-2 0 -7 1t-9 7q-3 5 -6.5 15.5t-3.5 18.5q0 5 1 11t10 11q26 15 53.5 31t50 45t37 77t14.5 128q0 139 -52.5 212.5t-168.5 73.5t-168.5 -74t-52.5 -212q0 -76 14.5 -124t37 -78t50 -47.5t52.5 -31.5z" />
<glyph unicode="&#x3c0;" horiz-adv-x="594" d="M122 465h-101v61h547v-61h-101v-322q0 -24 2 -40t13 -27q10 -10 23.5 -11.5t23.5 -1.5q12 0 23 1.5t13 1.5q4 0 7 -1.5t4 -10.5q1 -8 1.5 -19.5t0.5 -18.5q0 -5 -3.5 -7.5t-8.5 -4.5q-13 -4 -28 -5.5t-29 -1.5q-61 0 -91 31q-15 16 -22 42.5t-7 69.5v325h-189v-440 q0 -8 -6 -18t-34 -10q-27 0 -32.5 10t-5.5 18v440z" />
<glyph unicode="&#x2013;" horiz-adv-x="565" d="M517 296v-67h-454q-10 0 -14.5 6t-4.5 28t5.5 27.5t13.5 5.5h454z" />
<glyph unicode="&#x2014;" horiz-adv-x="1065" d="M1017 296v-67h-954q-10 0 -14.5 6t-4.5 28t5.5 27.5t13.5 5.5h954z" />
<glyph unicode="&#x2018;" horiz-adv-x="194" d="M37 501q0 47 17 92.5t43 89.5q8 14 11 17t7 3q7 0 18 -5q17 -8 17 -16q0 -4 -2 -8.5t-7 -13.5q-8 -15 -14.5 -30t-12.5 -29q-3 -7 -6 -15.5t-3 -13.5q0 -8 3.5 -11t11.5 -8q15 -9 20.5 -21t5.5 -32q0 -30 -13 -43.5t-42 -13.5t-41.5 14.5t-12.5 43.5z" />
<glyph unicode="&#x2019;" horiz-adv-x="194" d="M157 642q0 -47 -17 -92.5t-43 -89.5q-8 -14 -11 -17t-7 -3q-7 0 -18 5q-17 8 -17 16q0 4 2 8.5t7 13.5q8 15 14.5 30t12.5 29q3 7 6 15.5t3 13.5q0 8 -3.5 11t-11.5 8q-15 9 -20.5 21t-5.5 32q0 30 13 43.5t42 13.5t41.5 -14.5t12.5 -43.5z" />
<glyph unicode="&#x201a;" horiz-adv-x="184" d="M151 20q0 -47 -17 -92.5t-43 -89.5q-8 -14 -11 -17t-7 -3q-7 0 -18 5q-17 8 -17 16q0 4 2 8.5t7 13.5q8 15 14.5 30t12.5 29q3 7 6 15.5t3 13.5q0 8 -3.5 11t-11.5 8q-15 9 -20.5 21t-5.5 32q0 30 13 43.5t42 13.5t41.5 -14.5t12.5 -43.5z" />
<glyph unicode="&#x201c;" horiz-adv-x="374" d="M217 501q0 47 17 92.5t43 89.5q8 14 11 17t7 3q7 0 18 -5q17 -8 17 -16q0 -4 -2 -8.5t-7 -13.5q-8 -15 -14.5 -30t-12.5 -29q-3 -7 -6 -15.5t-3 -13.5q0 -8 3.5 -11t11.5 -8q15 -9 20.5 -21t5.5 -32q0 -30 -13 -43.5t-42 -13.5t-41.5 14.5t-12.5 43.5zM37 501 q0 47 17 92.5t43 89.5q8 14 11 17t7 3q7 0 18 -5q17 -8 17 -16q0 -4 -2 -8.5t-7 -13.5q-8 -15 -14.5 -30t-12.5 -29q-3 -7 -6 -15.5t-3 -13.5q0 -8 3.5 -11t11.5 -8q15 -9 20.5 -21t5.5 -32q0 -30 -13 -43.5t-42 -13.5t-41.5 14.5t-12.5 43.5z" />
<glyph unicode="&#x201d;" horiz-adv-x="374" d="M337 642q0 -47 -17 -92.5t-43 -89.5q-8 -14 -11 -17t-7 -3q-7 0 -18 5q-17 8 -17 16q0 4 2 8.5t7 13.5q8 15 14.5 30t12.5 29q3 7 6 15.5t3 13.5q0 8 -3.5 11t-11.5 8q-15 9 -20.5 21t-5.5 32q0 30 13 43.5t42 13.5t41.5 -14.5t12.5 -43.5zM157 642q0 -47 -17 -92.5 t-43 -89.5q-8 -14 -11 -17t-7 -3q-7 0 -18 5q-17 8 -17 16q0 4 2 8.5t7 13.5q8 15 14.5 30t12.5 29q3 7 6 15.5t3 13.5q0 8 -3.5 11t-11.5 8q-15 9 -20.5 21t-5.5 32q0 30 13 43.5t42 13.5t41.5 -14.5t12.5 -43.5z" />
<glyph unicode="&#x201e;" horiz-adv-x="364" d="M331 20q0 -47 -17 -92.5t-43 -89.5q-8 -14 -11 -17t-7 -3q-7 0 -18 5q-17 8 -17 16q0 4 2 8.5t7 13.5q8 15 14.5 30t12.5 29q3 7 6 15.5t3 13.5q0 8 -3.5 11t-11.5 8q-15 9 -20.5 21t-5.5 32q0 30 13 43.5t42 13.5t41.5 -14.5t12.5 -43.5zM151 20q0 -47 -17 -92.5 t-43 -89.5q-8 -14 -11 -17t-7 -3q-7 0 -18 5q-17 8 -17 16q0 4 2 8.5t7 13.5q8 15 14.5 30t12.5 29q3 7 6 15.5t3 13.5q0 8 -3.5 11t-11.5 8q-15 9 -20.5 21t-5.5 32q0 30 13 43.5t42 13.5t41.5 -14.5t12.5 -43.5z" />
<glyph unicode="&#x2020;" horiz-adv-x="387" d="M219 10q0 -7 -4.5 -12t-21.5 -5t-21 5t-4 12l-6 440l-128 -2v59l127 -1l-2 183h69l-2 -183l127 1v-59l-128 2z" />
<glyph unicode="&#x2021;" horiz-adv-x="387" d="M223 292l112 1v-59l-113 2l-3 -226q0 -7 -4.5 -12t-21.5 -5t-21 5t-4 12l-3 226l-113 -2v59l112 -1l-2 158l-128 -2v59l127 -1l-2 183h69l-2 -183l127 1v-59l-128 2z" />
<glyph unicode="&#x2022;" horiz-adv-x="330" d="M166 367q53 0 76.5 -25t23.5 -73v-14q0 -46 -23.5 -72t-76.5 -26q-54 0 -78 26t-24 72v14q0 48 24 73t78 25z" />
<glyph unicode="&#x2026;" horiz-adv-x="622" d="M94 103q29 0 40.5 -14t11.5 -40v-5q0 -24 -11.5 -39t-40.5 -15q-31 0 -42 15t-11 39v5q0 26 11 40t42 14zM529 103q29 0 40.5 -14t11.5 -40v-5q0 -24 -11.5 -39t-40.5 -15q-31 0 -42 15t-11 39v5q0 26 11 40t42 14zM311 103q29 0 40.5 -14t11.5 -40v-5q0 -24 -11.5 -39 t-40.5 -15q-31 0 -42 15t-11 39v5q0 26 11 40t42 14z" />
<glyph unicode="&#x2030;" horiz-adv-x="1206" d="M201 399q32 0 49 18q23 25 23 103q0 76 -23 101q-18 19 -49 19t-49 -19q-23 -25 -23 -101q0 -78 23 -103q17 -18 49 -18zM202 699q31 0 57.5 -9t42.5 -25q44 -44 44 -145q0 -102 -44 -146q-16 -16 -42.5 -25t-57.5 -9t-57.5 9t-42.5 25q-44 44 -44 146q0 101 44 145 q16 16 42.5 25t57.5 9zM641 49q32 0 49 18q23 25 23 103q0 76 -23 101q-18 19 -49 19t-49 -19q-23 -25 -23 -101q0 -78 23 -103q17 -18 49 -18zM642 349q31 0 57.5 -9t42.5 -25q44 -44 44 -145q0 -102 -44 -146q-16 -16 -42.5 -25t-57.5 -9t-57.5 9t-42.5 25q-44 44 -44 146 q0 101 44 145q16 16 42.5 25t57.5 9zM1003 49q32 0 49 18q23 25 23 103q0 76 -23 101q-18 19 -49 19t-49 -19q-23 -25 -23 -101q0 -78 23 -103q17 -18 49 -18zM1004 349q31 0 57.5 -9t42.5 -25q44 -44 44 -145q0 -102 -44 -146q-16 -16 -42.5 -25t-57.5 -9t-57.5 9t-42.5 25 q-44 44 -44 146q0 101 44 145q16 16 42.5 25t57.5 9zM665 699l-390 -676q-12 -21 -23 -27t-36 -6q-12 0 -21 3.5t-9 12.5q0 5 2 9t5 9l391 675h81z" />
<glyph unicode="&#x2039;" horiz-adv-x="356" d="M302 98l-38 -42l-189 167q-21 18 -21 40t21 40l189 169l38 -42l-159 -167z" />
<glyph unicode="&#x203a;" horiz-adv-x="356" d="M213 263l-159 167l38 42l189 -169q21 -18 21 -40t-21 -40l-189 -167l-38 42z" />
<glyph unicode="&#x2044;" horiz-adv-x="348" d="M425 699l-390 -676q-12 -21 -23 -27t-36 -6q-12 0 -21 3.5t-9 12.5q0 5 2 9t5 9l391 675h81z" />
<glyph unicode="&#x20ac;" horiz-adv-x="621" d="M118 447q12 64 38.5 111.5t65.5 78.5t88.5 46.5t106.5 15.5q40 0 75.5 -5t71.5 -15l-8 -65q-33 7 -65 12.5t-70 5.5q-44 0 -81 -10t-66 -32t-48.5 -57.5t-28.5 -86.5h214v-61h-219q-1 -8 -1 -17v-20v-31h220v-61h-214q5 -35 16.5 -70t35.5 -63.5t63 -46.5t101 -18 q27 0 57.5 5t50.5 10q18 5 29.5 8t16.5 3q4 0 6.5 -2.5t7.5 -21.5q5 -23 5 -28q0 -7 -5 -10t-13 -6q-31 -10 -73.5 -18t-88.5 -8q-76 0 -128 23t-85.5 60.5t-51 85.5t-24.5 97h-90q-11 0 -15 5t-4 22t4 22t15 6l85 6v31v17.5t1 19.5h-86q-11 0 -15 5t-4 22t4 22t15 6z" />
<glyph unicode="&#x2116;" horiz-adv-x="1060" d="M542 689h70v-654q0 -18 -10.5 -28t-36.5 -10q-15 0 -25.5 2.5t-18.5 8t-15 15t-16 23.5l-350 564v-583q0 -14 -5.5 -23t-29.5 -9q-25 0 -30 8.5t-5 22.5v663h104l368 -595v595zM713 521q0 90 42 134t120 44q161 0 161 -177v-4q0 -179 -161 -179q-78 0 -120 45t-42 134v3z M772 520q0 -66 24.5 -99.5t78.5 -33.5q102 0 102 133q0 68 -25 99.5t-77 31.5q-54 0 -78.5 -31t-24.5 -100z" />
<glyph unicode="&#x2122;" horiz-adv-x="619" d="M110 638h-91v51h237v-51h-91v-209q0 -8 -4.5 -13t-23.5 -5q-18 0 -22.5 5.5t-4.5 13.5v208zM575 666q0 -4 2.5 -23t5 -44.5t5.5 -54.5t6 -53.5t4.5 -40.5t1.5 -17q0 -22 -27 -22q-18 0 -22 7t-5 15q-3 27 -5 56.5t-4.5 57t-4.5 50.5t-3 38h-3q-22 -74 -37 -122.5 t-20 -66.5h-63q-14 46 -25 85q-10 33 -19 64t-12 40h-3q-2 -21 -4 -47t-4 -53t-4.5 -53.5t-3.5 -48.5q-1 -8 -6 -15t-21 -7q-15 0 -22 6t-7 14q0 9 1.5 25.5t4 45t7 70t10.5 99.5q1 8 4.5 13t15.5 5h45q11 0 15 -4.5t8 -16.5l49 -166h4l52 173q3 9 6.5 11.5t14.5 2.5h44 q11 0 14 -3.5t5 -19.5z" />
<glyph unicode="&#x212e;" horiz-adv-x="820" d="M181 316q-5 0 -5 -5v-182q0 -10 9 -21q42 -45 100.5 -71t126.5 -26q72 0 133.5 29.5t103.5 79.5h54q-51 -58 -126.5 -93.5t-165.5 -35.5q-77 0 -144.5 26t-117.5 71t-79.5 105.5t-29.5 129.5t29.5 130t79.5 106t117.5 71t144.5 26q76 0 143 -26t117.5 -71t79.5 -106 t29 -130v-7h-599zM644 521q0 12 -10 22q-42 43 -99 68t-123 25q-68 0 -126 -25.5t-100 -70.5q-10 -8 -10 -23v-179q0 -5 5 -5h458q5 0 5 5v183z" />
<glyph unicode="&#x2190;" horiz-adv-x="666" d="M290 118q4 -4 1 -9.5t-17 -19.5l-9 -9q-14 -14 -19 -16.5t-9 1.5l-176 201q-8 9 -10.5 13t-2.5 9v8q0 5 2.5 9t10.5 13l176 201q4 4 9 1.5t19 -16.5l9 -9q14 -14 17 -19.5t-1 -9.5l-120 -133h443q5 0 7 -7t2 -27v-14q0 -20 -2 -27t-7 -7h-443z" />
<glyph unicode="&#x2191;" horiz-adv-x="666" d="M159 332q-4 -4 -9.5 -1t-19.5 17l-9 9q-14 14 -16.5 19t1.5 9l201 176q9 8 13 10.5t9 2.5h8q5 0 9 -2.5t13 -10.5l201 -176q4 -4 1.5 -9t-16.5 -19l-9 -9q-14 -14 -19.5 -17t-9.5 1l-133 120v-443q0 -5 -7 -7t-27 -2h-14q-20 0 -27 2t-7 7v443z" />
<glyph unicode="&#x2192;" horiz-adv-x="666" d="M496 251h-443q-5 0 -7 7t-2 27v14q0 20 2 27t7 7h443l-120 133q-4 4 -1 9.5t17 19.5l9 9q14 14 19 16.5t9 -1.5l176 -201q8 -9 10.5 -13t2.5 -9v-8q0 -5 -2.5 -9t-10.5 -13l-176 -201q-4 -4 -9 -1.5t-19 16.5l-9 9q-14 14 -17 19.5t1 9.5z" />
<glyph unicode="&#x2193;" horiz-adv-x="666" d="M292 122v443q0 5 7 7t27 2h14q20 0 27 -2t7 -7v-443l133 120q4 4 9.5 1t19.5 -17l9 -9q14 -14 16.5 -19t-1.5 -9l-201 -176q-9 -8 -13 -10.5t-9 -2.5h-8q-5 0 -9 2.5t-13 10.5l-201 176q-4 4 -1.5 9t16.5 19l9 9q14 14 19.5 17t9.5 -1z" />
<glyph unicode="&#x2202;" horiz-adv-x="593" d="M271 444q54 0 103.5 -19.5t92.5 -65.5q-1 78 -14 130.5t-38 85t-62 46.5t-85 14q-31 0 -61 -5.5t-54 -12.5l-12 63q30 10 64 14.5t67 4.5q134 0 203 -85.5t69 -271.5q0 -95 -17.5 -161.5t-50.5 -109t-81.5 -62t-110.5 -19.5q-53 0 -95.5 17.5t-72 49t-45 75.5t-15.5 96 t16 92.5t44.5 68t68 41.5t86.5 14zM288 58q39 0 71.5 13t56 40.5t37 71t14.5 104.5q-13 15 -32 31t-42.5 28.5t-50.5 20.5t-54 8q-75 0 -113.5 -40t-38.5 -113q0 -75 38 -119.5t114 -44.5z" />
<glyph unicode="&#x2206;" horiz-adv-x="653" d="M378 689q14 0 18.5 -5.5t12.5 -29.5q24 -77 49 -149.5t49.5 -145t49.5 -148.5t51 -159q5 -17 7 -23.5t2 -10.5q0 -11 -10 -14.5t-27 -3.5h-509q-22 0 -28 6.5t-6 12.5q0 7 8 31q51 165 102.5 318t99.5 301q4 12 9 16t18 4h104zM310 622q-10 -31 -24.5 -76t-31 -97 t-34 -107.5t-33.5 -106.5t-30 -95t-23 -73h383q-9 29 -23.5 73.5t-31 97t-34 109t-34 108.5t-30.5 95.5t-22 71.5h-32z" />
<glyph unicode="&#x220f;" horiz-adv-x="777" d="M611 -89q0 -9 -6.5 -17.5t-33.5 -8.5t-33.5 8.5t-6.5 18.5v709h-285v-710q0 -9 -6.5 -17.5t-33.5 -8.5t-33.5 8.5t-6.5 18.5v709h-108v68h661v-68h-108v-710z" />
<glyph unicode="&#x2211;" horiz-adv-x="565" d="M135 -41h376v-69h-446q-11 0 -16 8q-10 17 -10 34q0 11 8 23l222 339v10l-223 318q-5 8 -6.5 13.5t-1.5 10.5q0 10 1.5 16t6.5 15q5 8 9 10t15 2h436v-69h-373l197 -277q7 -10 9.5 -15t2.5 -15v-27q0 -11 -2 -16t-9 -16z" />
<glyph unicode="&#x221a;" horiz-adv-x="585" d="M47 416q-6 0 -12.5 5.5t-6.5 27.5q0 21 6.5 27.5t12.5 6.5h115q5 0 7 -2.5t4 -8.5l122 -391h27l227 696h72l-248 -758q-3 -9 -7 -14t-15 -5h-90q-8 0 -11.5 3.5t-7.5 14.5l-126 398h-69z" />
<glyph unicode="&#x221e;" horiz-adv-x="787" d="M393 271q-11 -15 -27 -34.5t-38.5 -37t-53 -29.5t-70.5 -12q-34 0 -63 10.5t-50.5 31.5t-34 52.5t-12.5 73.5q0 36 11 65.5t31.5 51t49.5 33t64 11.5q60 0 106 -29t87 -88q22 30 42.5 52t43 36.5t48.5 21.5t59 7q72 0 114.5 -44t42.5 -117q0 -78 -43.5 -123t-116.5 -45 q-35 0 -63 10t-51.5 26t-42 36.5t-33.5 40.5zM432 316q22 -27 39.5 -46t34 -31t34.5 -17t41 -5q40 0 68 27.5t28 78.5q0 53 -27.5 78.5t-75.5 25.5q-43 0 -74 -28.5t-68 -82.5zM355 319q-12 18 -26.5 37t-32.5 34.5t-40 26t-49 10.5q-45 0 -72 -25.5t-27 -78.5 q0 -51 29 -78.5t74 -27.5q40 0 72.5 25t71.5 77z" />
<glyph unicode="&#x222b;" horiz-adv-x="336" d="M255 -10q0 -47 -9.5 -86t-29.5 -67t-52 -44t-78 -16q-15 0 -37.5 2.5t-34.5 5.5q-10 2 -10 15q0 9 1 19t4 23q1 6 6 6q4 0 22 -3t36 -3q24 0 43 5t32.5 20.5t21 43.5t7.5 74q0 22 -3.5 51t-9 61.5t-12.5 65.5t-14 65q-8 36 -16.5 75t-15.5 76.5t-11 71.5t-4 61 q0 90 41 138.5t122 48.5q28 0 49.5 -3.5t32.5 -7.5l-10 -58q-12 2 -26.5 4t-25.5 2q-25 0 -45 -6t-33.5 -20.5t-20.5 -39.5t-7 -63q0 -24 4.5 -55.5t11 -66.5t15 -72t16.5 -73q14 -66 27 -131t13 -119z" />
<glyph unicode="&#x2248;" horiz-adv-x="527" d="M456 363q-9 -15 -19.5 -29t-24 -25.5t-31.5 -18.5t-42 -7t-42.5 8t-35 18t-32 18t-33.5 8q-22 0 -35.5 -10t-32.5 -28q-15 -15 -20 -15t-10 2t-13 9q-11 8 -14.5 13t-3.5 10q0 6 5 15t25 28q26 26 50.5 33.5t49.5 7.5q27 0 46 -8t34.5 -17t30.5 -17t33 -8q23 0 41.5 16 t30.5 31zM72 150q9 15 19.5 29t24 25.5t31.5 18.5t42 7t42.5 -8t35 -18t32 -18t33.5 -8q22 0 35.5 10t32.5 28q15 15 20 15t10 -2t13 -9q11 -8 14.5 -13t3.5 -10q0 -6 -5 -15t-25 -28q-26 -26 -50.5 -33.5t-49.5 -7.5q-27 0 -46 8t-34.5 17t-30.5 17t-33 8q-23 0 -41.5 -16 t-30.5 -31z" />
<glyph unicode="&#x2260;" horiz-adv-x="527" d="M87 135q-10 0 -14.5 6t-4.5 28t5.5 27.5t13.5 5.5h122l45 116h-167q-10 0 -14.5 6t-4.5 28t5.5 27.5t13.5 5.5h193l53 133h73l-53 -133h106v-67h-133l-45 -116h178v-67h-204l-46 -116q-3 -8 -11 -11.5t-29 -3.5q-32 0 -32 13q0 5 4 13l41 105h-95z" />
<glyph unicode="&#x2264;" horiz-adv-x="527" d="M459 506l-312 -154l312 -154l-30 -60l-341 176q-12 6 -16 13.5t-4 24.5q0 20 5 26.5t15 11.5l341 176zM87 0q-10 0 -14.5 6t-4.5 28t5.5 27.5t13.5 5.5h372v-67h-372z" />
<glyph unicode="&#x2265;" horiz-adv-x="527" d="M98 566l341 -176q10 -5 15 -11.5t5 -26.5q0 -17 -4 -24.5t-16 -13.5l-341 -176l-30 60l312 154l-312 154zM68 0v67h372q8 0 13.5 -5.5t5.5 -27.5t-4.5 -28t-14.5 -6h-372z" />
<glyph unicode="&#x25ca;" horiz-adv-x="646" d="M335 689q5 0 11 -4.5t11 -11.5l219 -300q5 -6 8.5 -12.5t3.5 -15.5v-6q0 -8 -3.5 -14.5t-8.5 -13.5l-219 -306q-7 -9 -10.5 -12t-10.5 -3h-26q-7 0 -10.5 3t-10.5 12l-219 306q-5 7 -8.5 13.5t-3.5 14.5v6q0 9 3.5 15.5t8.5 12.5l219 300q5 7 11 11.5t11 4.5h24zM324 70 l193 269l-193 264h-2l-193 -264l193 -269h2z" />
<glyph unicode="&#x266a;" horiz-adv-x="690" d="M513 408q-3 -2 -5.5 -0.5t-8.5 10.5l-4 6q-6 9 -6.5 11.5t2.5 4.5q32 22 32 50q0 16 -8.5 27t-22 19t-31.5 14t-37 13q-17 5 -32.5 13t-29.5 20v-472q0 -64 -37.5 -99t-108.5 -35q-56 0 -86 24t-30 56t29.5 56t82.5 24q24 0 50 -7t46 -20v588q0 5 3.5 7t19.5 2h8 q16 0 19.5 -2t3.5 -7v-25q24 -18 51 -29t53 -21q25 -9 47.5 -18t39.5 -22t27 -31t10 -46q0 -31 -20 -60.5t-57 -50.5z" />
<glyph unicode="&#xe000;" horiz-adv-x="525" d="M0 525h525v-525h-525v525z" />
<glyph unicode="&#xf8ff;" horiz-adv-x="535" d="M460 201h-258v62h195v66h-195v193h258v-64h-192v-64h192v-193zM460 586h-320v-521h71v-65h-136v650h385v-64z" />
<glyph horiz-adv-x="319" d="M316 813q9 -5 9 -11q0 -2 -1 -7t-7 -16q-9 -16 -14.5 -19.5t-7.5 -3.5q-6 0 -18 6l-210 99l42 75z" />
<glyph horiz-adv-x="319" d="M249 936l42 -75l-210 -99q-12 -6 -18 -6q-2 0 -7.5 3.5t-14.5 19.5q-6 11 -7 16t-1 7q0 6 9 11z" />
<glyph horiz-adv-x="352" d="M77 898q30 0 43 -14t13 -40v-7q0 -26 -13 -40.5t-43 -14.5q-31 0 -44 14.5t-13 40.5v7q0 26 13 40t44 14zM276 898q30 0 43 -14t13 -40v-7q0 -26 -13 -40.5t-43 -14.5q-31 0 -44 14.5t-13 40.5v7q0 26 13 40t44 14z" />
<glyph horiz-adv-x="342" d="M162 862l-100 -91q-9 -8 -13 -10.5t-7 -2.5q-9 0 -21 12q-8 8 -10.5 13.5t-2.5 7.5q0 4 3 8l124 138q4 5 6.5 5.5t7.5 0.5h38q5 0 7.5 -0.5t6.5 -5.5l124 -138q3 -4 3 -8q0 -2 -2.5 -7.5t-10.5 -13.5q-9 -8 -13.5 -10t-7.5 -2q-4 0 -9 4t-11 9l-100 91h-12z" />
<glyph horiz-adv-x="369" d="M15 783q-16 10 -16 15q0 4 7 16q22 41 49.5 63.5t61.5 22.5q24 0 43 -10t36 -22t33 -22t34 -10q20 0 35 17t29 41l46 -32q-21 -39 -47.5 -66.5t-65.5 -27.5q-23 0 -41.5 10t-35 22t-33 22t-35.5 10q-14 0 -28.5 -10.5t-28.5 -34.5q-5 -8 -8 -13t-7 -5q-3 0 -10.5 4 t-17.5 10z" />
<glyph horiz-adv-x="312" d="M263 872v-66h-253q-10 0 -14.5 6.5t-4.5 26.5t4.5 26.5t14.5 6.5h253z" />
<glyph horiz-adv-x="355" d="M178 782q-30 0 -58.5 8.5t-50 27t-35.5 48t-16 72.5h57q9 -48 38 -67.5t65 -19.5t65 19.5t38 67.5h57q-2 -43 -16 -72.5t-35.5 -48t-50 -27t-58.5 -8.5z" />
<glyph horiz-adv-x="279" d="M139 791q-27 0 -47 19.5t-20 47.5t20 48t47 20q28 0 48 -20t20 -48t-20 -47.5t-48 -19.5z" />
<glyph horiz-adv-x="302" d="M151 964q43 0 73.5 -29t30.5 -77t-30.5 -76.5t-73.5 -28.5t-74 28.5t-31 76.5q0 24 8.5 43.5t22.5 33.5t33.5 21.5t40.5 7.5zM150 804q23 0 37.5 15.5t14.5 38.5t-14.5 39t-37.5 16q-22 0 -36.5 -16t-14.5 -39t14.5 -38.5t36.5 -15.5z" />
<glyph horiz-adv-x="404" d="M187 965l49 -65l-182 -132q-10 -7 -14 -7q-2 0 -8.5 4t-15.5 15q-12 15 -12 23q0 2 1 4.5t7 7.5zM417 965l49 -65l-182 -132q-10 -7 -14 -7q-2 0 -8.5 4t-15.5 15q-12 15 -12 23q0 2 1 4.5t7 7.5z" />
<glyph horiz-adv-x="320" d="M167 853l114 103l40 -39l-116 -129q-8 -8 -18 -13t-27 -5q-20 0 -28.5 5.5t-14.5 12.5l-116 129l38 39l116 -103h12z" />
</font>
</defs>
</svg>
