<?xml version="1.0" standalone="no"?>
<!DOCTYPE svg PUBLIC "-//W3C//DTD SVG 1.1//EN" "http://www.w3.org/Graphics/SVG/1.1/DTD/svg11.dtd" >
<svg xmlns="http://www.w3.org/2000/svg">
<metadata></metadata>
<defs>
<font id="itv_reem_web_lightitalic" horiz-adv-x="230" >
<font-face units-per-em="1000" ascent="750" descent="-250" />
<missing-glyph horiz-adv-x="221" />
<glyph unicode="&#xfb01;" horiz-adv-x="580" d="M153 526l6 37q8 48 24.5 78t38.5 49q37 32 85.5 43t91.5 11t79 -5.5t55 -12.5l-16 -60q-21 6 -50 11t-54 5q-35 0 -64.5 -5.5t-52.5 -19t-38.5 -37t-21.5 -59.5l-6 -35h154l-16 -61h-149l-87 -507q-9 -51 -21.5 -89t-41.5 -63q-41 -36 -112 -36q-36 0 -61 9q-8 3 -10 6.5 t-2 8.5q0 6 3 18t5 17q4 12 13 12q7 0 19 -3.5t33 -3.5q19 0 33 4.5t27 15.5q17 15 24 38.5t13 57.5l88 515h-85q-8 0 -12 2t-4 12q0 7 3 21q3 12 7.5 15.5t15.5 4.5zM461 31q-2 -12 -4 -16.5t-5 -7.5q-4 -4 -12.5 -7t-22.5 -3q-23 0 -29 7t-6 13q0 3 1 10t3 15l86 484h77z " />
<glyph unicode="&#xfb02;" horiz-adv-x="627" d="M159 563q8 48 24.5 78t38.5 49q37 32 88 43t103 11q62 0 103.5 -5.5t62.5 -10.5l-104 -588q-2 -12 -4 -24.5t-2 -17.5q0 -17 7 -27q5 -8 18 -11t27 -3q9 0 18.5 1.5t13.5 1.5q8 0 8 -7q0 -16 -3 -37q-1 -11 -13 -15q-10 -3 -23.5 -4.5t-26.5 -1.5q-20 0 -38.5 4.5 t-33 14.5t-23 26.5t-8.5 39.5q0 16 2.5 33.5t5.5 34.5l93 529q-17 2 -34 3.5t-46 1.5q-35 0 -64.5 -5.5t-52.5 -19t-38.5 -37t-21.5 -59.5l-6 -35h154l-16 -61h-149l-87 -507q-9 -51 -21.5 -89t-41.5 -63q-41 -36 -112 -36q-36 0 -61 9q-8 3 -10 6.5t-2 8.5q0 6 3 18t5 17 q4 12 13 12q7 0 19 -3.5t33 -3.5q19 0 33 4.5t27 15.5q17 15 24 38.5t13 57.5l88 515h-85q-8 0 -12 2t-4 12q0 7 3 21q3 12 7.5 15.5t15.5 4.5l85 6z" />
<glyph horiz-adv-x="1000" />
<glyph horiz-adv-x="1000" />
<glyph unicode="&#xd;" horiz-adv-x="221" />
<glyph unicode=" "  horiz-adv-x="221" />
<glyph unicode="&#x09;" horiz-adv-x="221" />
<glyph unicode="&#xa0;" horiz-adv-x="221" />
<glyph unicode="!" horiz-adv-x="206" d="M207 689l-99 -488q-3 -16 -11 -21t-25 -5q-16 0 -20.5 5.5t-2.5 19.5l74 489h84zM64 99q43 0 43 -38q0 -36 -17 -56q-8 -7 -18.5 -11t-26.5 -4q-44 0 -44 39q0 17 4.5 31.5t13.5 23.5q15 15 45 15z" />
<glyph unicode="&#x22;" horiz-adv-x="331" d="M123 458q-3 -13 -7 -18.5t-22 -5.5q-16 0 -20.5 4.5t-4.5 9.5v2.5t1 7.5l33 231h69zM301 458q-3 -13 -7 -18.5t-22 -5.5q-16 0 -20.5 4.5t-4.5 9.5v2.5t1 7.5l33 231h69z" />
<glyph unicode="#" horiz-adv-x="625" d="M309 434l-70 -179h142l70 179h-142zM264 493l76 196h69l-76 -196h141l76 196h69l-76 -196h113l-25 -59h-111l-70 -179h114l-24 -59h-112l-74 -183q-3 -7 -10.5 -11.5t-30.5 -4.5q-33 0 -30 13q0 2 6 17l69 169h-141l-74 -183q-3 -7 -10.5 -11.5t-29.5 -4.5q-34 0 -31 13 q0 2 6 17l69 169h-95q-8 0 -11.5 1.5t-3.5 7.5q0 2 1 6.5t6 17.5q8 20 13 23t16 3h97l70 179h-95q-8 0 -11.5 1.5t-3.5 7.5q0 2 1 6.5t6 17.5q8 20 13 23t16 3h98z" />
<glyph unicode="$" horiz-adv-x="586" d="M460 210q0 15 -3 27.5t-14 24t-32 21.5t-56 21l-42 -241q25 3 51 11.5t47.5 25.5t35 44t13.5 66zM197 506q0 -21 5 -36.5t17 -27.5t32.5 -22.5t52.5 -20.5l41 230q-25 -2 -51 -10t-47.5 -23t-35.5 -37t-14 -53zM290 321q-42 15 -73.5 30t-52.5 35t-31.5 46t-10.5 64 q0 46 19.5 82t52 62t75 40.5t88.5 16.5l17 102h68l-17 -102q54 -2 95.5 -11.5t63.5 -17.5l-19 -66q-26 8 -65.5 17t-86.5 11l-44 -249q46 -14 78.5 -28.5t52.5 -33.5t29 -44t9 -60q0 -59 -23.5 -99t-58.5 -66t-77 -39t-78 -16l-17 -93q-2 -11 -11 -16.5t-29 -5.5t-24.5 5.5 t-2.5 17.5l16 92q-119 0 -189 32q-6 3 -7.5 6t-1.5 8q0 4 1.5 12t4.5 17q5 15 9.5 19.5t9.5 4.5q2 0 19 -5q21 -7 40.5 -12t39 -8t40.5 -4.5t46 -1.5z" />
<glyph unicode="%" horiz-adv-x="828" d="M241 398q29 0 48.5 15.5t31 39t16.5 51t5 51.5q0 49 -19 67.5t-44 18.5q-23 0 -41.5 -13t-31.5 -35t-19.5 -50.5t-6.5 -59.5q0 -48 17.5 -66.5t43.5 -18.5zM283 699q63 0 96 -36t33 -111q0 -42 -12 -80.5t-34 -67.5t-54.5 -46.5t-72.5 -17.5q-27 0 -51 8t-41 26t-27 45.5 t-10 66.5q0 42 12 80.5t34 68t54 47t73 17.5zM611 48q29 0 48.5 15.5t31 39t16.5 51t5 51.5q0 49 -19 67.5t-44 18.5q-23 0 -41.5 -13t-31.5 -35t-19.5 -50.5t-6.5 -59.5q0 -48 17.5 -66.5t43.5 -18.5zM653 349q63 0 96 -36t33 -111q0 -42 -12 -80.5t-34 -67.5t-54.5 -46.5 t-72.5 -17.5q-27 0 -51 8t-41 26t-27 45.5t-10 66.5q0 42 12 80.5t34 68t54 47t73 17.5zM751 699l-501 -676q-15 -21 -27.5 -27t-37.5 -6q-11 0 -19.5 3t-8.5 12q0 3 2 7t8 12l501 675h83z" />
<glyph unicode="&#x26;" horiz-adv-x="665" d="M464 160q32 35 53 82.5t29 94.5l2 11h67q0 -2 -0.5 -4.5t-0.5 -4.5q-1 -3 -1 -6q-11 -63 -37 -121.5t-71 -107.5q11 -15 19 -25t15.5 -15.5t16 -7.5t19.5 -2q6 0 13.5 1t11.5 1q6 0 8 -5t3 -31q0 -10 -2.5 -13.5t-10.5 -5.5q-9 -2 -23 -4t-22 -2q-15 0 -28 2.5t-25 9.5 t-25.5 19.5t-29.5 32.5q-45 -33 -102 -51t-114 -18q-42 0 -79 9t-64.5 28.5t-44 49t-16.5 71.5q0 46 15.5 82t42 64t61.5 48t73 34q-17 22 -29 39.5t-19.5 33.5t-11 32t-3.5 36q0 39 15.5 72t42 56.5t62 37t76.5 13.5q32 0 60.5 -9.5t50 -27t34 -43t12.5 -57.5 q0 -68 -44 -115t-137 -90zM246 57q47 0 88 15.5t73 40.5l-151 212q-26 -11 -52.5 -24.5t-48 -33.5t-35 -47t-13.5 -64q0 -27 10.5 -46t29.5 -31t44.5 -17t54.5 -5zM342 628q-19 0 -38.5 -6.5t-35.5 -19.5t-26 -33t-10 -48q0 -13 2 -24.5t8 -24t17 -29t29 -40.5 q33 15 59 29.5t43.5 31t27 37t9.5 47.5q0 45 -26 62.5t-59 17.5z" />
<glyph unicode="'" horiz-adv-x="153" d="M123 458q-3 -13 -7 -18.5t-22 -5.5q-16 0 -20.5 4.5t-4.5 9.5v2.5t1 7.5l33 231h69z" />
<glyph unicode="(" horiz-adv-x="278" d="M115 129q0 -86 19.5 -164t63.5 -156l-53 -29q-30 42 -50 84t-33 85.5t-18.5 90.5t-5.5 100q0 82 20 163t55.5 155.5t84.5 140t107 117.5l46 -38q-45 -45 -87.5 -103t-75.5 -127t-53 -149t-20 -170z" />
<glyph unicode=")" horiz-adv-x="278" d="M146 367q0 86 -19.5 164t-63.5 156l53 29q30 -42 50 -84t33 -85.5t18.5 -90.5t5.5 -100q0 -83 -20 -163.5t-55.5 -155t-84.5 -140t-107 -117.5l-46 38q45 45 87.5 102.5t75.5 126.5t53 149.5t20 170.5z" />
<glyph unicode="*" horiz-adv-x="374" d="M111 361l-44 40l117 113l-122 32l25 57l116 -49l17 145h60l-34 -145l119 49l19 -57l-132 -33l78 -117l-56 -35l-61 128z" />
<glyph unicode="+" horiz-adv-x="517" d="M253 293l29 162h69l-29 -162h157l-12 -67h-156l-24 -135q-2 -11 -9 -20t-32 -9q-17 0 -23.5 5.5t-6.5 12.5q0 3 0.5 7t2.5 12l23 127h-140q-7 0 -10.5 2.5t-3.5 12.5q0 3 0.5 9t1.5 11q4 22 10.5 27t13.5 5h139z" />
<glyph unicode="," horiz-adv-x="166" d="M96 51q0 -19 -4.5 -39t-15 -42.5t-29 -49t-46.5 -57.5q-14 -15 -18 -17.5t-7 -2.5q-6 0 -15 5q-8 5 -10.5 9t-2.5 8q0 5 14 24q7 9 15.5 21t16.5 24.5t13.5 24t5.5 19.5q0 9 -4.5 14t-10.5 10.5t-10.5 12.5t-4.5 21q0 32 19 49.5t47 17.5q24 0 35.5 -16t11.5 -36z" />
<glyph unicode="-" horiz-adv-x="347" d="M307 296l-12 -66h-249q-7 0 -10.5 2.5t-3.5 12.5q0 3 0.5 8.5t1.5 10.5q4 22 10.5 27t13.5 5h249z" />
<glyph unicode="." horiz-adv-x="165" d="M45 104q24 0 34.5 -10.5t10.5 -29.5q0 -18 -4.5 -33t-13.5 -25q-16 -16 -46 -16q-25 0 -35.5 10.5t-10.5 30.5q0 17 4.5 32.5t13.5 24.5q16 16 47 16z" />
<glyph unicode="/" horiz-adv-x="352" d="M-41 4q0 5 8 21l330 674h75l-335 -685q-5 -12 -15 -18t-34 -6q-17 0 -23 4.5t-6 9.5z" />
<glyph unicode="0" horiz-adv-x="639" d="M297 54q60 0 105.5 30t76.5 83t47 125t16 156q0 91 -33.5 139t-111.5 48q-56 0 -100.5 -32t-75.5 -86.5t-47 -127.5t-16 -154q0 -91 36 -136t103 -45zM78 239q0 66 10 122.5t27 104t39.5 84t47.5 61.5q43 43 93 65.5t108 22.5q113 0 166 -63t53 -182q0 -95 -20.5 -179 t-62.5 -147.5t-104.5 -100.5t-146.5 -37q-99 0 -154.5 64t-55.5 185z" />
<glyph unicode="1" horiz-adv-x="436" d="M344 615q-26 -15 -54 -32t-56 -33.5t-55 -32t-49 -27.5l-28 59q24 13 52 28.5t56.5 32t56 33t50.5 31.5q14 9 24 12t24 3h48q12 0 15 -4t1 -18l-114 -644q-1 -5 -2.5 -9.5t-5.5 -8t-12 -6t-21 -2.5q-22 0 -28.5 5.5t-6.5 12.5v2.5t1 6.5z" />
<glyph unicode="2" horiz-adv-x="545" d="M451 66q5 0 10.5 -2.5t5.5 -14.5q0 -3 -1 -10.5t-3 -15.5q-5 -17 -11.5 -20t-20.5 -3h-372q-8 0 -12.5 2t-9.5 12q-7 12 -8.5 18t-1.5 10q0 14 16 25q124 82 205.5 144t129 113t66.5 94.5t19 88.5q0 67 -36.5 97t-100.5 30q-44 0 -87.5 -11t-94.5 -33l-2 64q45 21 96 33 t108 12q43 0 79.5 -11.5t62.5 -34.5t41 -57t15 -78q0 -64 -30 -121.5t-83 -112t-127.5 -108.5t-162.5 -110h310z" />
<glyph unicode="3" horiz-adv-x="570" d="M30 47q0 11 5 22.5t10 19.5q7 11 16 11q3 0 6.5 -1.5l10.5 -4.5q33 -16 75 -26t91 -10q97 0 149 43.5t52 121.5q0 35 -11.5 55.5t-31 31t-44.5 13.5t-51 3h-76q-8 0 -11.5 2.5t-3.5 12.5q0 4 0.5 10t2.5 16q4 15 8.5 19t12.5 4h55q32 0 65.5 5t61 20t45 42.5t17.5 72.5 q0 23 -7.5 42.5t-24.5 33t-45 21t-69 7.5q-36 0 -82 -9.5t-96 -26.5l-3 61q42 17 95.5 28.5t107.5 11.5q52 0 90.5 -12.5t63 -33.5t36 -49.5t11.5 -61.5q0 -75 -37.5 -118.5t-100.5 -60.5v-3q51 -14 76.5 -46t25.5 -86q0 -57 -20 -101t-56.5 -74.5t-89.5 -46.5t-119 -16 q-27 0 -55 3t-54.5 8.5t-50 13.5t-40.5 17q-10 6 -10 15z" />
<glyph unicode="4" horiz-adv-x="600" d="M479 23q-1 -5 -2 -9.5t-5 -8t-11.5 -6t-20.5 -2.5q-26 0 -30 8.5t-2 18.5l26 147h-340q-19 0 -24.5 5t-12.5 19q-8 16 -8 28q0 14 10 30.5t23 34.5q32 44 70.5 93.5t79.5 101.5t83.5 104t82.5 102h92q-47 -54 -91.5 -108t-89 -109.5t-89 -113.5t-91.5 -121h316l33 185h72 z" />
<glyph unicode="5" horiz-adv-x="565" d="M334 423q54 0 89.5 -14.5t57 -38.5t30.5 -55.5t9 -65.5q0 -63 -21.5 -111.5t-59.5 -81.5t-90.5 -49.5t-113.5 -16.5q-60 0 -113.5 14.5t-84.5 32.5q-9 5 -9 17q0 10 5 21t12 22q6 9 13 9q5 0 9 -2l10 -5q42 -20 81.5 -31t77.5 -11q99 0 151.5 47t52.5 138q0 57 -29 88 t-105 31q-41 0 -79.5 -11t-69.5 -23q-15 -6 -23 -6t-17 7q-6 6 -7 12t-1 8q0 5 5.5 24t11.5 39l77 260q4 12 8 15t12 3h327l-12 -67h-276l-68 -233q45 19 76.5 26.5t63.5 7.5z" />
<glyph unicode="6" horiz-adv-x="604" d="M169 354q49 38 101 59t115 21q38 0 71 -11t57 -32.5t37.5 -52.5t13.5 -71q0 -59 -20 -109.5t-55.5 -87.5t-84.5 -58.5t-106 -21.5q-99 0 -158.5 62t-59.5 182q0 119 29 206.5t78.5 145t116 85.5t141.5 28q37 0 72.5 -5.5t62.5 -17.5l-22 -61q-23 8 -56.5 13.5t-65.5 5.5 q-48 0 -91.5 -15t-78 -48.5t-60 -87t-37.5 -129.5zM303 52q43 0 77.5 16t58 43.5t36 64.5t12.5 79q0 54 -33.5 85.5t-92.5 31.5q-23 0 -49.5 -6.5t-53 -18.5t-51.5 -28t-45 -34q-1 -8 -1.5 -16t-0.5 -24q0 -52 10.5 -88.5t29 -60t45 -34t58.5 -10.5z" />
<glyph unicode="7" horiz-adv-x="553" d="M581 689q11 0 15 -10t5 -15.5t1 -8.5q0 -6 -2.5 -12.5t-10.5 -17.5l-433 -595q-15 -21 -27 -27t-38 -6q-15 0 -24.5 3t-9.5 11t9 20l435 590h-383l12 68h451z" />
<glyph unicode="8" horiz-adv-x="596" d="M549 210q0 -63 -24.5 -105t-63.5 -67.5t-89 -36.5t-101 -11q-55 0 -96 13t-68.5 36t-41 54t-13.5 67q0 71 38 121t106 84q-72 37 -72 121q0 49 20 88.5t54.5 67t82 42.5t102.5 15q50 0 88 -13.5t63.5 -35.5t38.5 -51t13 -59q0 -67 -35 -109.5t-101 -77.5q55 -22 77 -60.5 t22 -82.5zM284 52q40 0 74 9.5t58.5 28t38 45.5t13.5 62q0 42 -29.5 72.5t-97.5 48.5l-79 22q-26 -8 -49.5 -24t-41.5 -38t-28.5 -48t-10.5 -55q0 -52 37.5 -87.5t114.5 -35.5zM386 378q52 26 87 62.5t35 84.5q0 57 -34.5 85t-100.5 28q-36 0 -67.5 -9.5t-54.5 -27 t-36.5 -43.5t-13.5 -59q0 -38 24 -60.5t66 -33.5z" />
<glyph unicode="9" horiz-adv-x="597" d="M244 -10q-45 0 -82.5 5.5t-60.5 14.5q-8 3 -9.5 5.5t-1.5 7.5t2.5 16.5t4.5 16.5q4 12 8 15t7 3q6 0 27 -6q20 -5 46.5 -10t58.5 -5q52 0 95 20t74.5 57t51.5 90t28 119q-43 -37 -96.5 -60.5t-117.5 -23.5q-83 0 -130.5 45.5t-47.5 123.5q0 56 19.5 106t55 87.5 t85.5 59.5t112 22q52 0 90.5 -17.5t64.5 -49.5t39 -77t13 -101q0 -120 -26 -207.5t-71 -144.5t-106.5 -84.5t-132.5 -27.5zM362 637q-46 0 -80.5 -17.5t-58 -46t-35.5 -65t-12 -74.5q0 -117 131 -117q25 0 53 8t54 21t48 29.5t36 32.5q2 9 2.5 23t0.5 25q0 92 -36.5 136.5 t-102.5 44.5z" />
<glyph unicode=":" horiz-adv-x="165" d="M45 104q24 0 34.5 -10.5t10.5 -29.5q0 -18 -4.5 -33t-13.5 -25q-16 -16 -46 -16q-25 0 -35.5 10.5t-10.5 30.5q0 17 4.5 32.5t13.5 24.5q16 16 47 16zM96 410q24 0 34.5 -10.5t10.5 -29.5q0 -18 -4.5 -33t-13.5 -25q-16 -16 -46 -16q-25 0 -35.5 10.5t-10.5 30.5 q0 17 4.5 32.5t13.5 24.5q16 16 47 16z" />
<glyph unicode=";" horiz-adv-x="165" d="M95 410q24 0 34.5 -10.5t10.5 -29.5q0 -18 -4.5 -33t-13.5 -25q-16 -16 -46 -16q-25 0 -35.5 10.5t-10.5 30.5q0 17 4.5 32.5t13.5 24.5q16 16 47 16zM92 51q0 -19 -4.5 -39t-15 -42.5t-29 -49t-46.5 -57.5q-14 -15 -18 -17.5t-7 -2.5q-6 0 -15 5q-8 5 -10.5 9t-2.5 8 q0 5 14 24q7 9 15.5 21t16.5 24.5t13.5 24t5.5 19.5q0 9 -4.5 14t-10.5 10.5t-10.5 12.5t-4.5 21q0 32 19 49.5t47 17.5q24 0 35.5 -16t11.5 -36z" />
<glyph unicode="&#x3c;" horiz-adv-x="517" d="M508 414l-335 -156l270 -148l-37 -62l-303 176q-15 8 -15 22q0 3 0.5 10t2.5 14q2 11 7 17.5t18 12.5l365 176z" />
<glyph unicode="=" horiz-adv-x="517" d="M462 202l-12 -67h-365q-7 0 -10.5 2.5t-3.5 12.5q0 3 0.5 9t1.5 11q4 22 10.5 27t13.5 5h365zM495 385l-12 -67h-365q-7 0 -10.5 2.5t-3.5 12.5q0 3 0.5 9t1.5 11q4 22 10.5 27t13.5 5h365z" />
<glyph unicode="&#x3e;" horiz-adv-x="517" d="M54 110l335 156l-270 148l37 62l303 -176q15 -8 15 -22q0 -3 -0.5 -10t-2.5 -14q-2 -11 -7 -17.5t-18 -12.5l-365 -176z" />
<glyph unicode="?" horiz-adv-x="427" d="M110 296q2 12 5 20.5t9 15t15.5 12t25.5 11.5q55 22 88.5 42.5t52 41.5t24.5 43t6 47q0 29 -10.5 48.5t-28.5 31.5t-42 17.5t-50 5.5q-42 0 -77 -7t-64 -15l7 65q34 12 74.5 18t75.5 6q40 0 75 -10.5t61.5 -31.5t42 -52t15.5 -72q0 -53 -19.5 -89t-49.5 -61.5 t-67.5 -42.5t-73.5 -32q-10 -4 -15.5 -7.5t-9 -8.5t-5.5 -13.5t-5 -21.5l-10 -57q-2 -8 -7.5 -16.5t-30.5 -8.5q-23 0 -26.5 9.5t-1.5 20.5zM108 99q43 0 43 -38q0 -36 -17 -56q-8 -7 -18.5 -11t-26.5 -4q-44 0 -44 39q0 17 4.5 31.5t13.5 23.5q15 15 45 15z" />
<glyph unicode="@" horiz-adv-x="970" d="M419 132q33 0 67.5 21t59.5 57l39 221q-9 3 -28.5 5t-30.5 2q-38 0 -71.5 -14t-58.5 -41t-39.5 -66t-14.5 -89q0 -45 19.5 -70.5t57.5 -25.5zM679 132q42 0 77 22.5t60 60.5t39 88.5t14 106.5q0 70 -26 120t-69.5 82.5t-100.5 48t-120 15.5q-93 0 -175 -32t-143.5 -93 t-97 -148t-35.5 -197q0 -74 23 -131t66.5 -96.5t105 -60t138.5 -20.5q75 0 132.5 10.5t114.5 25.5q5 2 11 3t8 1q9 0 10 -13q1 -5 1 -9.5v-8.5q0 -27 -18 -33q-25 -9 -58 -16.5t-69 -13t-71.5 -8.5t-66.5 -3q-92 0 -167.5 23.5t-129 70.5t-82.5 117t-29 162q0 120 38 219 t108.5 170t170 110t221.5 39q80 0 151 -21t124 -62t84 -103t31 -144q0 -70 -18 -132.5t-53 -109t-87.5 -74t-121.5 -27.5q-47 0 -79.5 18.5t-41.5 53.5q-23 -32 -61 -51.5t-89 -19.5q-66 0 -100 41t-34 111q0 57 20 107.5t57 88.5t89.5 60t117.5 22q30 0 66.5 -7t60.5 -16 l-38 -209q-5 -31 -8 -51t-3 -32q0 -20 10.5 -37.5t42.5 -17.5z" />
<glyph unicode="A" horiz-adv-x="638" d="M426 689q14 0 17 -5.5t7 -29.5q21 -149 40.5 -295.5t42.5 -312.5q2 -14 2.5 -20.5t0.5 -10.5q0 -10 -10 -14t-26 -4q-26 0 -33 5.5t-9 19.5l-18 155h-302l-75 -155q-6 -12 -17 -18.5t-37 -6.5q-21 0 -25.5 4.5t-4.5 9.5q0 6 4 14.5t9 19.5q79 165 157.5 322t150.5 302 q6 12 11.5 16t18.5 4h96zM355 624q-46 -94 -93.5 -194t-90.5 -188h261q-5 42 -11.5 91t-13.5 99.5t-13.5 99.5t-12.5 92h-26z" />
<glyph unicode="B" horiz-adv-x="599" d="M370 689q61 0 94 -11.5t58 -35.5q15 -15 25.5 -41.5t10.5 -58.5q0 -73 -35.5 -116t-101.5 -60v-3q51 -8 84 -39t33 -91q0 -76 -28.5 -122t-73 -70.5t-99 -32.5t-106.5 -8h-193q-9 0 -17.5 3.5t-8.5 14.5q0 3 1 11t3 16l114 644h240zM99 68h132q51 0 89.5 6t68.5 23 q34 20 50 57t16 74q0 17 -4 32t-13 27q-14 17 -40.5 28t-81.5 11h-171zM156 390h120q47 0 81.5 6t60.5 23q29 19 43.5 49.5t14.5 64.5q0 25 -6 40.5t-14 23.5q-14 14 -34 19.5t-61 5.5h-164z" />
<glyph unicode="C" horiz-adv-x="576" d="M313 -10q-74 0 -125 22t-83 59.5t-46.5 88t-14.5 107.5q0 93 27.5 172t79.5 137t126 90.5t166 32.5q51 0 91.5 -6.5t59.5 -14.5l-20 -62q-22 7 -55.5 12t-74.5 5q-75 0 -134 -27.5t-99.5 -75.5t-62 -113.5t-21.5 -140.5q0 -58 14 -99.5t39.5 -68t61 -39t79.5 -12.5 q38 0 70 5t55 10q12 2 19 4t12 2q11 0 11 -22q0 -5 -0.5 -13.5t-2.5 -16.5q-2 -7 -8.5 -10t-21.5 -7q-19 -5 -59 -12t-83 -7z" />
<glyph unicode="D" horiz-adv-x="673" d="M38 0q-9 0 -17.5 3.5t-8.5 14.5q0 3 1 11t3 16l114 644h193q32 0 63.5 -1.5t61 -7t56.5 -17t50 -31.5q35 -30 55 -79t20 -115q0 -50 -9 -100t-26.5 -96t-43 -85.5t-57.5 -69.5q-23 -21 -51.5 -37t-64 -27.5t-80 -17t-99.5 -5.5h-160zM99 68h108q32 0 63 2t60.5 9.5 t56.5 21.5t52 39t45 59t33.5 72.5t21 80.5t7.5 84q0 57 -14 90t-37 56q-27 26 -63.5 33t-87.5 7h-147z" />
<glyph unicode="E" horiz-adv-x="553" d="M125 661q4 28 35 28h397l-12 -66h-348l-40 -230h300l-12 -66h-300l-46 -260h354l-12 -67h-403q-9 0 -17.5 3.5t-8.5 14.5q0 5 1 12t3 15z" />
<glyph unicode="F" horiz-adv-x="532" d="M93 27q-2 -12 -9 -22t-37 -10q-21 0 -28 5.5t-7 13.5q0 3 1 9t2 10l111 628q4 28 35 28h391l-12 -66h-342l-43 -244h301l-11 -66h-301z" />
<glyph unicode="G" horiz-adv-x="672" d="M611 612q-45 11 -89 16.5t-86 5.5q-77 0 -134.5 -27.5t-96.5 -76t-58.5 -114t-19.5 -140.5q0 -51 10.5 -92t35.5 -69.5t67 -43.5t106 -15q13 0 30.5 1t35.5 2.5t35.5 4l31.5 4.5l41 230h-176l12 67h225q20 0 20 -14q0 -6 -1 -13.5t-3 -15.5l-48 -270q-4 -22 -8.5 -28 t-16.5 -10q-38 -11 -91 -17.5t-105 -6.5q-138 0 -211 69t-73 208q0 90 25 169t74.5 137.5t124.5 92t174 33.5q47 0 97 -5.5t88 -18.5z" />
<glyph unicode="H" horiz-adv-x="672" d="M581 689h79l-117 -662q-2 -12 -9 -22t-37 -10q-21 0 -28 5.5t-7 13.5q0 3 1 9t2 10l51 289h-371l-52 -295q-2 -12 -9 -22t-37 -10q-21 0 -28 5.5t-7 13.5q0 3 1 9t2 10l116 656h79l-53 -300h371z" />
<glyph unicode="I" d="M97 27q-2 -12 -9 -22t-37 -10q-21 0 -28 5.5t-7 13.5q0 3 1 9t2 10l116 656h79z" />
<glyph unicode="J" horiz-adv-x="428" d="M421 689l-81 -460q-11 -62 -28.5 -109t-49.5 -77q-30 -28 -72.5 -40.5t-105.5 -12.5q-25 0 -51 3.5t-43 9.5q-10 3 -10 13q0 8 2 15.5t5 15.5q4 10 7.5 13t8.5 3t11.5 -1.5t16.5 -3.5q34 -6 61 -6q38 0 66 10t48 29q22 20 34 54.5t22 87.5l80 456h79z" />
<glyph unicode="K" horiz-adv-x="585" d="M93 27q-2 -12 -9 -22t-37 -10q-21 0 -28 5.5t-7 13.5q0 3 1 9t2 10l116 656h79l-62 -351l372 351h97l-300 -288l192 -360q7 -14 9.5 -19.5t0.5 -10.5q-1 -6 -7 -10t-28 -4q-30 0 -39 6t-17 23l-170 327l-129 -122z" />
<glyph unicode="L" horiz-adv-x="496" d="M130 689h79l-110 -622h309l-12 -67h-358q-9 0 -17.5 3.5t-8.5 14.5q0 3 1 11t3 16z" />
<glyph unicode="M" horiz-adv-x="856" d="M780 659q-1 -11 -3.5 -54.5t-6.5 -105t-9.5 -133t-10.5 -138.5t-10 -122.5t-9 -84.5q-2 -12 -14.5 -19t-30.5 -7q-26 0 -31 8.5t-3 19.5q13 115 26 261t25 333h-10q-65 -131 -130 -265t-130 -265h-116l-76 530h-10q-4 -14 -15.5 -59t-27 -106t-32 -130t-31.5 -130.5 t-25.5 -107.5t-13.5 -61q-2 -11 -11 -19.5t-34 -8.5q-20 0 -28.5 5t-8.5 13q0 4 2.5 14.5t6.5 27.5q16 67 34 141.5t38 153.5t42 159.5t46 160.5q3 11 7.5 15t17.5 4h91q13 0 15.5 -5t5.5 -28q0 -3 3.5 -26.5t9 -59t12 -80t12.5 -90.5q15 -108 34 -243h9q67 138 122 248 q23 47 45 92.5t40 82t30 60.5l14 28q7 14 11.5 17.5t18.5 3.5h85q16 0 20.5 -4t3.5 -26z" />
<glyph unicode="N" horiz-adv-x="669" d="M89 27q-2 -12 -9 -22t-36 -10q-18 0 -25 5t-7 13q0 3 1 9t2 11l116 656h98l251 -584l103 584h74l-115 -654q-5 -24 -16.5 -31t-36.5 -7q-14 0 -22.5 2t-15 7.5t-12 15t-11.5 24.5l-237 553z" />
<glyph unicode="O" horiz-adv-x="690" d="M394 631q-69 0 -120 -33.5t-84 -86t-49 -117.5t-16 -127q0 -47 10 -85.5t31.5 -66t54.5 -42.5t80 -15q72 0 122 33t81.5 85.5t46 117.5t14.5 128q0 46 -8.5 84.5t-29 66t-53 43t-80.5 15.5zM408 699q51 0 94.5 -15.5t75.5 -48.5t50 -84.5t18 -122.5q0 -78 -20.5 -156.5 t-64 -141t-110.5 -101.5t-161 -39q-59 0 -104.5 19.5t-77 55t-48 85.5t-16.5 111q0 84 23.5 163t69 140t113.5 98t158 37z" />
<glyph unicode="P" horiz-adv-x="597" d="M278 309q54 0 95.5 11t70.5 35.5t44 63t15 93.5q0 39 -14 61.5t-37 33t-53.5 13t-63.5 2.5h-137l-55 -313h135zM93 27q-2 -12 -9 -22t-37 -10q-21 0 -28 5.5t-7 13.5q0 3 1 9t2 10l116 656h216q46 0 89 -6t76 -24t53 -51t20 -86q0 -72 -19.5 -123.5t-58.5 -86.5 q-44 -38 -101.5 -53.5t-141.5 -15.5h-133z" />
<glyph unicode="Q" horiz-adv-x="690" d="M408 699q51 0 94.5 -15.5t75.5 -48.5t50 -84.5t18 -122.5q0 -57 -10 -115.5t-32 -111t-55.5 -96t-79.5 -70.5l81 -141q5 -9 5 -15q0 -12 -30 -31q-11 -7 -18.5 -8t-10.5 -1q-11 0 -18 14l-78 153q-16 -5 -44.5 -10.5t-63.5 -5.5q-61 0 -107.5 20t-77.5 56t-47 86t-16 109 q0 84 23.5 163t69 140t113.5 98t158 37zM394 631q-69 0 -120 -33.5t-84 -86t-49 -117.5t-16 -127q0 -96 42.5 -152.5t135.5 -56.5q76 0 126.5 33t80.5 85.5t42.5 117.5t12.5 128q0 46 -8.5 84.5t-29 66t-53 43t-80.5 15.5z" />
<glyph unicode="R" horiz-adv-x="613" d="M151 352h159q39 0 74 8t61 28.5t41 54.5t15 87q0 28 -10.5 46t-29.5 28.5t-44.5 14t-56.5 3.5h-162zM93 27q-2 -12 -9 -22t-37 -10q-21 0 -28 5.5t-7 13.5q0 3 1 9t2 10l116 656h242q45 0 83.5 -7.5t66 -25.5t43.5 -47.5t16 -74.5q0 -108 -59.5 -170t-159.5 -72l123 -265 q4 -10 4 -14q-3 -16 -42 -16q-24 0 -32.5 5.5t-16.5 22.5l-115 261h-145z" />
<glyph unicode="S" horiz-adv-x="548" d="M355 699q45 0 84 -6.5t71 -17.5l-18 -65q-35 11 -73 16.5t-70 5.5q-39 0 -72 -8.5t-57.5 -24.5t-38 -39.5t-13.5 -53.5q0 -21 8 -36t21 -26.5t30 -20.5t35 -17q54 -24 93 -43.5t64.5 -42t37.5 -51t12 -70.5q0 -52 -19.5 -91t-54.5 -65.5t-85 -39.5t-110 -13 q-51 0 -99.5 9t-83.5 25q-10 5 -10 13q0 4 2.5 13t5.5 17q5 15 11 18.5t11 3.5q4 0 16 -4q42 -14 78 -20.5t75 -6.5q84 0 134.5 33t50.5 103q0 26 -10 44t-30.5 33t-50 29.5t-68.5 32.5q-28 13 -53.5 27.5t-44.5 33.5t-30.5 44t-11.5 60q0 49 19.5 87t54.5 63t83 38t106 13z " />
<glyph unicode="T" horiz-adv-x="577" d="M270 27q-2 -12 -9 -22t-37 -10q-21 0 -28.5 5.5t-7.5 13.5q0 3 1 9t2 10l105 590h-222l12 66h523l-12 -66h-222z" />
<glyph unicode="U" horiz-adv-x="647" d="M563 262q-8 -44 -18.5 -76.5t-23 -57t-27.5 -42.5t-32 -33q-42 -36 -95 -49.5t-107 -13.5q-60 0 -106.5 18.5t-73.5 53.5q-18 22 -27.5 50.5t-9.5 66.5q0 30 6 66l78 444h79l-78 -443q-2 -14 -4 -28.5t-2 -26.5q0 -28 7 -53.5t24 -42.5t47 -27.5t72 -10.5q44 0 77 11.5 t59 33.5q15 13 27 28.5t21.5 36.5t17 48t13.5 62l73 412h78z" />
<glyph unicode="V" horiz-adv-x="620" d="M319 27q-6 -12 -19 -19.5t-52 -7.5q-21 0 -32.5 2t-18 5.5t-8.5 8.5t-3 11q-23 160 -47.5 321t-45.5 341h81q10 -84 20 -167.5t20 -162.5t20 -152t20 -137h12l65 136.5t72.5 153t76 163t76.5 166.5h85q-44 -92 -88 -184.5t-86 -179t-79.5 -162.5t-68.5 -136z" />
<glyph unicode="W" horiz-adv-x="969" d="M638 70h10q60 140 126.5 297t130.5 322h81q-75 -189 -145.5 -350t-132.5 -311q-3 -6 -6.5 -11t-11.5 -8.5t-22 -6t-37 -2.5q-25 0 -38 2.5t-19 6.5t-7 9t-2 11l-31 572h-8l-223 -575q-2 -6 -5.5 -10.5t-11 -8t-21.5 -5.5t-38 -2t-37.5 2.5t-20.5 6.5t-9 9t-2 11 q-13 147 -30.5 315t-25.5 345h82q4 -77 9.5 -158t11.5 -161t13 -156t13 -144h10q55 143 115 297t116 302q5 13 8.5 16.5t12.5 3.5h96q9 0 11.5 -3t3.5 -17z" />
<glyph unicode="X" horiz-adv-x="625" d="M-16 34q75 93 144.5 174t139.5 156q-20 36 -42 76t-44 82t-43 84t-39 83h84q13 -29 29 -63t34 -70t36.5 -71.5t36.5 -65.5q22 25 51 59t59.5 70t60.5 72.5t55 68.5h89q-23 -29 -55 -67.5t-69 -82.5t-77.5 -90t-79.5 -89q48 -83 88 -162t81 -164q2 -5 4.5 -10t2.5 -10 q0 -8 -13 -12.5t-28 -4.5q-14 0 -22.5 2t-13 5.5t-7 9t-5.5 12.5q-15 35 -33 73.5t-36 75t-36 70.5t-33 60q-55 -59 -114.5 -136t-122.5 -151q-8 -10 -18.5 -15.5t-38.5 -5.5q-20 0 -28 3.5t-8 11.5q0 5 3 10.5t8 11.5z" />
<glyph unicode="Y" horiz-adv-x="591" d="M247 261q-39 95 -78 202.5t-77 225.5h85q14 -46 29.5 -95t30.5 -96t29 -89.5t26 -73.5h9q21 31 51 76.5t61.5 95t62 98t52.5 84.5h89q-79 -122 -150 -226.5t-141 -201.5l-41 -234q-2 -12 -9 -22t-37 -10q-21 0 -28 5.5t-7 13.5q0 3 1 9t2 10z" />
<glyph unicode="Z" horiz-adv-x="552" d="M537 689q18 0 22 -14q5 -13 2 -29q-2 -11 -12 -24l-457 -555h339q5 0 10.5 -2.5t5.5 -14.5q0 -3 -1 -10.5t-3 -15.5q-5 -17 -11.5 -20.5t-20.5 -3.5h-400q-10 0 -14.5 3t-7.5 11q-5 12 -5 20q0 15 15 31l459 558h-347l13 66h413z" />
<glyph unicode="[" horiz-adv-x="279" d="M73 -153h122l-12 -66h-173q-14 0 -18 5t-2 19l152 861q2 14 8 18.5t20 4.5h173l-11 -66h-122z" />
<glyph unicode="\" horiz-adv-x="352" d="M289 7q0 -17 -33 -17q-24 0 -30 5t-8 19l-95 685h71l86 -616q6 -41 7.5 -56.5t1.5 -19.5z" />
<glyph unicode="]" horiz-adv-x="279" d="M165 623h-121l11 66h172q14 0 18 -4.5t2 -18.5l-152 -861q-2 -14 -8 -19t-20 -5h-172l12 66h121z" />
<glyph unicode="^" horiz-adv-x="496" d="M469 447q5 -9 8 -17t3 -13q0 -7 -6.5 -12t-14.5 -10q-7 -4 -13.5 -6.5t-11.5 -2.5q-6 0 -10.5 5.5t-10.5 16.5l-97 191h-6l-168 -192q-12 -14 -18 -17.5t-11 -3.5t-13 3t-13 7q-6 5 -12 10.5t-6 12.5q0 5 3 9.5t13 16.5l183 219q14 16 25 20.5t28 4.5t27 -4.5t18 -18.5z " />
<glyph unicode="_" horiz-adv-x="477" d="M411 -44l-12 -66h-417q-7 0 -10.5 2.5t-3.5 12.5q0 3 0.5 8.5t1.5 10.5q4 22 10.5 27t13.5 5h417z" />
<glyph unicode="`" horiz-adv-x="313" d="M359 656q9 -6 9 -12q0 -9 -11 -24q-8 -11 -12 -14t-8 -3q-5 0 -18 7l-184 99l47 69z" />
<glyph unicode="a" horiz-adv-x="545" d="M426 463q-26 8 -44.5 9.5t-33.5 1.5q-35 0 -77 -13.5t-78 -47.5t-60.5 -90.5t-24.5 -142.5q0 -58 28 -92.5t79 -34.5q42 0 81 27t69 67zM431 18q-1 -13 -8 -17t-28 -4q-26 0 -31.5 7t-5.5 33v35q-28 -31 -70.5 -55.5t-97.5 -24.5q-75 0 -118 50t-43 132t23 148.5t66 114 t104.5 73.5t138.5 26q47 0 88 -9.5t61 -17.5l-60 -316q-8 -43 -12.5 -90.5t-6.5 -84.5z" />
<glyph unicode="b" horiz-adv-x="574" d="M27 22q-8 4 -9.5 8t0.5 13l122 691h76l-43 -245q44 23 81.5 35t82.5 12q38 0 70.5 -13t56.5 -38t38 -62t14 -85q0 -79 -20.5 -148.5t-69.5 -118.5q-38 -38 -93 -59.5t-133 -21.5q-24 0 -50 3t-49.5 8t-43 10.5t-30.5 10.5zM99 71q23 -8 56 -13.5t58 -5.5q56 0 98 20.5 t70 57.5t42 87.5t14 110.5q0 43 -10.5 71.5t-28.5 45t-42 23t-50 6.5q-32 0 -72 -13.5t-72 -31.5z" />
<glyph unicode="c" horiz-adv-x="462" d="M249 -10q-56 0 -97.5 15t-68.5 42.5t-40.5 66t-13.5 85.5q0 70 20.5 131.5t59.5 107t95 72t127 26.5q34 0 69 -6t50 -14l-18 -62q-20 7 -47 12.5t-59 5.5q-51 0 -91 -19.5t-68.5 -54.5t-43.5 -83.5t-15 -106.5q0 -71 35.5 -111.5t113.5 -40.5q42 0 72 6t39 6q8 0 10 -3.5 t2 -10.5q0 -5 -1 -14.5t-3 -18.5q-2 -7 -6 -10.5t-15 -6.5q-20 -6 -48.5 -10t-57.5 -4z" />
<glyph unicode="d" horiz-adv-x="567" d="M493 734h77l-121 -685q-2 -10 -5.5 -13.5t-20.5 -10.5q-11 -5 -30.5 -11t-44 -11t-53 -9t-56.5 -4q-47 0 -85.5 13.5t-66.5 39.5t-43 64.5t-15 89.5q0 72 21 133.5t59.5 107.5t94 72t124.5 26q33 0 65 -8t60 -22zM443 448q-19 10 -49 18t-65 8q-47 0 -87 -20t-70 -56 t-47 -86t-17 -110q0 -33 8 -60.5t25 -47.5t44 -31t65 -11q44 0 76 7.5t51 14.5z" />
<glyph unicode="e" horiz-adv-x="529" d="M407 301q8 35 8 65q1 54 -24 81.5t-85 27.5q-66 0 -113.5 -39t-69.5 -135h284zM381 5q-21 -5 -57.5 -10t-75.5 -5q-46 0 -86 11t-69.5 35t-46.5 62t-17 92q0 22 3.5 55.5t14 71t29.5 76t49 69.5q34 35 78 54.5t109 19.5q181 0 180 -168q0 -32 -6.5 -63.5t-15.5 -65.5 h-358q-3 -17 -3.5 -30t-0.5 -23q0 -39 11 -64.5t31 -40t49.5 -20.5t67.5 -6q27 0 55.5 3.5t49.5 7.5q15 3 22 3q9 0 9 -11q0 -6 -0.5 -15t-2.5 -17q-2 -11 -5 -14.5t-14 -6.5z" />
<glyph unicode="f" horiz-adv-x="353" d="M134 465h-85q-8 0 -12 2t-4 12q0 7 3 21q3 12 7.5 15.5t15.5 4.5l85 6l8 43q15 90 61 131q47 44 134 44q26 0 47 -3t37 -8l-15 -59q-14 4 -31 6t-31 2q-53 0 -82.5 -23.5t-41.5 -85.5l-8 -47h154l-16 -61h-149l-87 -507q-9 -51 -21.5 -89t-41.5 -63q-20 -18 -48.5 -27 t-61.5 -9q-38 0 -63 9q-8 3 -10 6.5t-2 8.5q0 6 3 18t5 17q4 12 13 12q7 0 19.5 -3.5t34.5 -3.5q17 0 31 4.5t27 15.5q17 15 24 38.5t13 57.5z" />
<glyph unicode="g" horiz-adv-x="560" d="M440 463q-10 3 -31 7t-52 4q-57 0 -101.5 -23t-75 -62.5t-46.5 -92t-16 -111.5q0 -65 32.5 -96t86.5 -31q21 0 42 6t39.5 15t34 19.5t25.5 19.5zM368 54q-26 -22 -62.5 -40t-91.5 -18q-40 0 -72.5 13.5t-55 37.5t-35 57.5t-12.5 73.5q0 86 25 153t69.5 112.5t105.5 69 t132 23.5q37 0 75.5 -6.5t77.5 -20.5l-88 -497q-11 -61 -30 -108.5t-54 -78.5q-34 -29 -78.5 -42t-104.5 -13q-18 0 -36.5 1t-35.5 3.5t-31.5 5.5t-24.5 7q-8 3 -10 6t-2 9q0 5 2.5 15t4.5 17q4 12 8 15.5t9 3.5q4 0 9 -1.5t16 -3.5q16 -4 41 -7.5t52 -3.5q48 0 80 10 t53 30.5t33.5 53t21.5 77.5z" />
<glyph unicode="h" horiz-adv-x="565" d="M447 31q-2 -12 -4 -16.5t-5 -7.5q-4 -4 -12.5 -7t-22.5 -3q-23 0 -29 7t-6 13q0 3 1 10t3 15l50 282q2 13 5.5 33.5t3.5 31.5q0 25 -7 41t-19 25t-28 12.5t-35 3.5q-41 0 -90 -18.5t-94 -43.5l-67 -378q-2 -12 -4 -16.5t-5 -7.5q-4 -4 -12.5 -7t-22.5 -3q-23 0 -29 7 t-6 13q0 3 1 10t3 15l122 692h77l-47 -265q50 31 96.5 49t100.5 18q30 0 56.5 -8.5t46 -26t30.5 -44t11 -61.5q0 -13 -6 -49z" />
<glyph unicode="i" horiz-adv-x="222" d="M95 31q-2 -12 -4 -16.5t-5 -7.5q-4 -4 -12.5 -7t-22.5 -3q-23 0 -29 7t-6 13q0 3 1 10t3 15l86 484h77zM181 737q24 0 34.5 -10.5t10.5 -29.5q0 -18 -4.5 -33t-13.5 -25q-16 -16 -46 -16q-25 0 -35.5 10.5t-10.5 30.5q0 17 4.5 32.5t13.5 24.5q16 16 47 16z" />
<glyph unicode="j" horiz-adv-x="210" d="M76 -35q-8 -51 -21 -89t-42 -63q-41 -36 -109 -36q-37 0 -62 9q-8 3 -10 6.5t-2 8.5q0 6 3 18t5 17q4 12 13 12q7 0 19.5 -3.5t33.5 -3.5q16 0 30 4.5t27 15.5q17 15 24 38.5t13 57.5l100 569h77zM173 737q24 0 34.5 -10.5t10.5 -29.5q0 -18 -4.5 -33t-13.5 -25 q-16 -16 -46 -16q-25 0 -35.5 10.5t-10.5 30.5q0 17 4.5 32.5t13.5 24.5q16 16 47 16z" />
<glyph unicode="k" horiz-adv-x="503" d="M99 31q-2 -12 -4 -16.5t-5 -7.5q-4 -4 -12.5 -7t-22.5 -3q-23 0 -29 7t-6 13q0 3 1 10t3 15l122 692h77l-80 -450l280 242h97l-237 -209l143 -286q5 -10 5 -15q0 -9 -12 -14t-30 -5q-25 0 -32.5 8t-17.5 28l-115 240l-97 -84z" />
<glyph unicode="l" horiz-adv-x="268" d="M220 734l-105 -594q-2 -12 -4 -24.5t-2 -17.5q0 -17 7 -27q5 -8 18 -11t27 -3q9 0 18.5 1.5t13.5 1.5q8 0 8 -7q0 -16 -3 -37q-1 -11 -13 -15q-10 -3 -23.5 -4.5t-26.5 -1.5q-20 0 -38.5 4.5t-33 14.5t-23 26.5t-8.5 39.5q0 16 2.5 33.5t5.5 34.5l103 586h77z" />
<glyph unicode="m" horiz-adv-x="882" d="M742 332q3 18 5 32t2 29q0 39 -23.5 58.5t-61.5 19.5q-21 0 -44.5 -5.5t-47 -13.5t-45.5 -19t-40 -21q1 -5 1 -13v-10q0 -11 -1 -23.5t-3 -20.5l-56 -314q-2 -12 -4 -16.5t-5 -7.5q-4 -4 -12.5 -7t-22.5 -3q-23 0 -29 7t-6 13q0 3 1 10t3 15l52 285q2 13 4.5 32t2.5 30 q0 16 -3.5 30.5t-12.5 26t-25.5 18.5t-43.5 7q-21 0 -45 -6t-47 -14.5t-42.5 -18t-32.5 -16.5l-69 -385q-2 -12 -4 -16.5t-5 -7.5q-4 -4 -12.5 -7t-22.5 -3q-23 0 -29 7t-6 13q0 3 1 10t3 15l86 484h69l-6 -49q43 23 91 41t93 18q43 0 77.5 -18.5t48.5 -51.5q36 21 65 35 t53.5 21.5t45.5 10.5t42 3q29 0 55.5 -7.5t46.5 -24t31.5 -42.5t11.5 -63q0 -8 -1 -21.5t-4 -30.5l-56 -316q-2 -12 -4 -16.5t-5 -7.5q-4 -4 -12.5 -7t-22.5 -3q-23 0 -29 7t-6 13q0 3 1 10t3 15z" />
<glyph unicode="n" horiz-adv-x="564" d="M422 324q8 46 8 63q0 26 -6.5 42.5t-18.5 25.5t-28 12.5t-35 3.5t-42 -5t-47 -13.5t-48.5 -20t-46.5 -23.5l-67 -378q-2 -12 -4 -16.5t-5 -7.5q-4 -4 -12.5 -7t-22.5 -3q-23 0 -29 7t-6 13q0 3 1 10t3 15l86 484h69l-7 -56q54 28 102.5 47t96.5 19q67 0 106 -33.5 t39 -107.5q0 -10 -1.5 -24.5t-5.5 -35.5l-54 -304q-2 -12 -4 -16.5t-5 -7.5q-4 -4 -12.5 -7t-22.5 -3q-23 0 -29 7t-6 13q0 3 1 10t3 15z" />
<glyph unicode="o" horiz-adv-x="580" d="M312 475q-46 0 -83.5 -21t-64.5 -58.5t-41.5 -88t-14.5 -109.5q0 -66 34 -106.5t97 -40.5q46 0 84 21t64.5 58.5t41 88t14.5 109.5q0 68 -34 107.5t-97 39.5zM323 536q48 0 85 -15t62.5 -42t38.5 -64t13 -81q0 -91 -26.5 -157.5t-77.5 -113.5q-36 -34 -81 -53.5 t-109 -19.5q-46 0 -83 14.5t-62.5 41t-39.5 64t-14 82.5q0 85 24 148.5t68 111.5q38 41 88.5 62.5t113.5 21.5z" />
<glyph unicode="p" horiz-adv-x="575" d="M101 79q20 -10 50.5 -18.5t65.5 -8.5q58 0 100 22.5t69 61t39.5 88.5t12.5 104q0 31 -9 57.5t-27 46t-45 31t-64 11.5q-33 0 -66 -5.5t-60 -13.5zM100 507q42 13 95.5 21t107.5 8q104 0 159 -53.5t55 -144.5q0 -85 -24 -156.5t-75 -119.5q-37 -35 -84.5 -53.5 t-106.5 -18.5q-35 0 -70.5 7.5t-65.5 22.5l-39 -216q-2 -12 -4 -16.5t-5 -7.5q-4 -4 -12.5 -7t-22.5 -3q-23 0 -29 7t-6 13q0 3 1 10t3 15z" />
<glyph unicode="q" horiz-adv-x="565" d="M445 459q-21 6 -44.5 10.5t-56.5 4.5q-65 0 -110 -25t-73 -64.5t-40.5 -88t-12.5 -94.5q0 -72 34.5 -110.5t89.5 -38.5q41 0 82 20.5t71 46.5zM406 -196q-2 -12 -4 -16.5t-5 -7.5q-4 -4 -12.5 -7t-22.5 -3q-23 0 -29 7t-6 13q0 3 1 10t3 15l44 239q-38 -32 -77.5 -48 t-88.5 -16q-41 0 -74 15.5t-56.5 43.5t-36.5 65.5t-13 81.5q0 73 20 135t60.5 107.5t102 71.5t143.5 26q44 0 90 -9t84 -24z" />
<glyph unicode="r" horiz-adv-x="364" d="M154 408q51 55 108.5 86.5t111.5 41.5l-15 -87q-50 -8 -103.5 -34t-110.5 -78l-54 -306q-2 -12 -4 -16.5t-5 -7.5q-4 -4 -12.5 -7t-22.5 -3q-23 0 -29 7t-6 13q0 3 1 10t3 15l86 484h68z" />
<glyph unicode="s" horiz-adv-x="440" d="M388 456q-20 6 -48 11t-57 5q-27 0 -51.5 -5t-43.5 -15.5t-30 -27t-11 -39.5q0 -12 3.5 -22.5t12.5 -20t25.5 -19t42.5 -20.5q39 -16 66 -31t43 -31.5t23 -37.5t7 -49q0 -75 -56.5 -119.5t-168.5 -44.5q-15 0 -35 2t-40 6t-37.5 8.5t-27.5 9.5q-6 3 -7.5 5t-1.5 7 q0 12 7 31q5 14 9.5 17.5t9.5 3.5q6 0 17 -4t27.5 -8.5t38 -8.5t48.5 -4q66 0 103.5 24.5t37.5 71.5q0 17 -5 28.5t-16 20.5t-30 18t-46 21q-68 31 -95.5 62.5t-27.5 76.5t20 75.5t50.5 48.5t67 26t68.5 8q39 0 72.5 -6.5t53.5 -14.5z" />
<glyph unicode="t" horiz-adv-x="374" d="M47 505q23 13 47 30.5t46 38t40.5 42t30.5 44.5h35l-24 -134h163l-13 -61h-160l-54 -305q-3 -17 -5 -31.5t-2 -20.5q0 -30 18.5 -40.5t50.5 -10.5q23 0 43 3.5t28 3.5q11 0 11 -10t-5 -32q-2 -8 -5 -12t-12 -7q-17 -5 -40 -8t-42 -3q-63 0 -93.5 29t-30.5 77q0 8 1 20.5 t4 31.5l56 315h-93q-12 0 -12 7q0 5 2 13q2 7 4.5 11t10.5 9z" />
<glyph unicode="u" horiz-adv-x="534" d="M176 -10q-66 0 -106 33.5t-40 97.5q0 14 2 30.5t5 34.5l60 340h77l-59 -332q-3 -17 -5 -33t-2 -27q0 -14 3.5 -28.5t13.5 -25.5t28 -18t47 -7q42 0 77.5 20.5t76.5 71.5l68 379h77l-63 -352q-11 -62 -13.5 -104t-2.5 -52q0 -14 -9 -17.5t-29 -3.5q-22 0 -28.5 6.5 t-6.5 26.5v42q-12 -13 -28 -27.5t-37 -26.5t-47 -20t-59 -8z" />
<glyph unicode="v" horiz-adv-x="499" d="M511 526q-70 -137 -136.5 -268t-121.5 -236q-4 -8 -8 -12.5t-11 -6.5t-18 -2.5t-30 -0.5q-21 0 -33 1t-18.5 3.5t-9 7t-3.5 11.5q-7 50 -16 112t-19 128.5t-19 133.5t-16 129h80q7 -55 13.5 -115t13 -121t13.5 -120t14 -113h10q54 107 113.5 227.5t119.5 241.5h82z" />
<glyph unicode="w" horiz-adv-x="781" d="M791 526q-23 -57 -53 -123t-61.5 -133t-63 -131.5t-56.5 -117.5q-6 -12 -20 -16.5t-48 -4.5q-21 0 -32.5 1.5t-17.5 4.5t-7.5 6.5t-1.5 8.5l-19 406h-6l-183 -405q-3 -6 -6 -10t-10 -6.5t-19 -4t-33 -1.5q-22 0 -34 1.5t-18 4.5t-7.5 7.5t-2.5 10.5q-6 52 -10.5 112.5 t-8 125.5t-6 132t-3.5 132h81q0 -58 1.5 -119t3.5 -121t4 -118t5 -111h7l204 453q5 11 9 13.5t12 2.5h70q8 0 10.5 -3t3.5 -15q0 -1 1 -20.5t2.5 -51.5t3.5 -72.5t4 -82.5q4 -99 11 -224h8q22 49 48 107t53.5 119.5t54 123.5t50.5 119h80z" />
<glyph unicode="x" horiz-adv-x="505" d="M-33 28q61 65 121.5 132t111.5 121q-26 50 -61.5 112t-72.5 133h85q23 -50 51.5 -102t50.5 -96q18 21 41 45.5t47 50.5t47 52t42 50h85q-48 -58 -106 -120t-121 -128l132 -246q3 -5 5 -9.5t2 -9.5t-8 -11.5t-25 -6.5q-24 0 -33.5 7t-18.5 24l-108 203 q-18 -21 -39.5 -45.5t-45 -51t-48 -54t-47.5 -54.5q-10 -11 -23 -20t-41 -9q-32 0 -32 16q0 7 9 17z" />
<glyph unicode="y" horiz-adv-x="502" d="M514 526q-42 -86 -82.5 -170t-83 -172t-90 -184t-102.5 -207q-5 -9 -14 -16t-35 -7q-17 0 -23.5 4.5t-6.5 9.5q0 3 1 6.5t6 11.5q32 59 56 106.5t46 91.5h-26q-13 0 -17 5.5t-6 13.5q-20 115 -39.5 247t-33.5 260h79q3 -38 7.5 -77.5t10.5 -93t15.5 -125t23.5 -173.5h11 q24 52 52 110.5t57.5 119.5t58.5 122t56 117h79z" />
<glyph unicode="z" horiz-adv-x="454" d="M3 0q-12 0 -17 8q-6 9 -8 13.5t-2 7.5q0 4 2 7.5t8 10.5l354 418h-276l11 61h344q14 0 18 -6q7 -12 7 -24q0 -7 -3.5 -12.5t-8.5 -11.5l-346 -410h261q6 0 10.5 -3t4.5 -16q0 -2 -1 -9.5t-3 -14.5q-4 -11 -8 -15t-14 -4h-333z" />
<glyph unicode="{" horiz-adv-x="300" d="M353 626h-44q-35 0 -48.5 -13t-14.5 -54q-1 -18 -1.5 -40.5t-1 -48t-2 -52t-3.5 -51.5q-5 -62 -34 -93.5t-86 -42.5q27 -5 42.5 -16.5t22.5 -25t8.5 -28t1.5 -25.5q0 -29 -11 -68t-24 -77t-24 -71t-11 -51q0 -11 7.5 -19t30.5 -8h55l-11 -61h-60q-19 0 -36.5 3.5 t-30.5 12t-21 22.5t-8 36q0 25 12 61t26.5 76t26.5 78.5t12 67.5q0 21 -9 36.5t-44 20.5q-6 1 -9.5 4t-3.5 13q0 9 3 24q5 23 9.5 29t14.5 7q38 4 56 22.5t25 65.5q3 22 4 56.5t1 70.5t1 68t4 50q5 26 16 42.5t27 25.5t36 12.5t42 3.5h65z" />
<glyph unicode="|" d="M68 -196q-2 -12 -4 -16.5t-5 -7.5q-4 -4 -12.5 -7t-22.5 -3q-23 0 -29 7t-6 13q0 3 1 10t3 15l154 874h77z" />
<glyph unicode="}" horiz-adv-x="300" d="M-94 -156h44q35 0 48 13t15 54q1 18 1.5 40.5t1 48t2 52t3.5 51.5q5 62 34 93.5t86 42.5q-27 5 -42.5 16.5t-22.5 25t-8.5 28t-1.5 25.5q0 29 11 68t24 77t24 71t11 51q0 11 -7.5 19t-30.5 8h-55l11 61h60q19 0 36.5 -3.5t30.5 -12t21 -22.5t8 -36q0 -25 -12 -61 t-26.5 -76t-26.5 -78.5t-12 -67.5q0 -21 9 -36.5t44 -20.5q6 -1 9.5 -4t3.5 -13q0 -9 -3 -24q-5 -23 -9.5 -29t-14.5 -7q-38 -4 -56 -22.5t-25 -65.5q-3 -23 -4 -57t-1 -70t-1 -68t-4 -50q-5 -26 -16 -42.5t-27 -25.5t-36 -12.5t-42 -3.5h-65z" />
<glyph unicode="~" horiz-adv-x="512" d="M442 296q-22 -30 -51.5 -54.5t-63.5 -24.5q-24 0 -43.5 8t-37 18t-34 18t-34.5 8q-14 0 -30 -7.5t-36 -26.5q-10 -9 -15.5 -14t-10.5 -5q-3 0 -6.5 2t-11.5 9q-9 8 -11.5 13t-2.5 8q0 6 7 16t29 29q30 26 55 33.5t36 7.5q23 0 41.5 -8t35.5 -17t33 -17t35 -8 q23 0 42.5 16t34.5 31z" />
<glyph unicode="&#xa1;" horiz-adv-x="206" d="M-30.9873 -204.958l98.9941 487.971q3 15.999 10.999 20.998q8 5 24.998 5q16 0 20.499 -5.5q4.5 -5.49902 2.5 -19.499l-73.9951 -488.97h-83.9951zM112.004 385.006q-42.9971 0 -42.9971 37.998q0 35.998 16.999 55.9961q7.99902 7 18.498 11 q10.5 3.99902 26.499 3.99902q43.9971 0 43.9971 -38.9971q0 -16.999 -4.5 -31.498q-4.49902 -14.499 -13.499 -23.499q-14.999 -14.999 -44.9971 -14.999z" />
<glyph unicode="&#xa2;" horiz-adv-x="488" d="M405 533q13 -1 27.5 -3t28.5 -5t25.5 -6t17.5 -6l-17 -63q-11 4 -21 7t-20.5 5t-23 4t-29.5 4l-72 -414q35 2 60.5 7.5t34.5 5.5q7 0 11 -2.5t4 -12.5q-1 -13 -2 -21t-2 -10q-2 -9 -5.5 -12t-15.5 -6q-20 -5 -47 -9t-50 -5l-15 -83q-2 -14 -8 -21t-32 -7q-17 0 -23 3.5 t-6 11.5q0 3 1 10.5t3 15.5l12 70q-54 5 -90 20.5t-58 41t-31.5 60.5t-9.5 80q0 85 22.5 147.5t61.5 104.5t91 64.5t110 26.5l18 103h68zM325 470q-50 -3 -86.5 -26t-60.5 -60t-35.5 -85t-11.5 -100q0 -71 28.5 -102.5t93.5 -39.5z" />
<glyph unicode="&#xa3;" horiz-adv-x="541" d="M160 369q-8 23 -12 49t-4 49q0 57 20 100.5t53.5 72.5t78 44t94.5 15q59 0 106.5 -13t79.5 -33l-24 -62q-32 17 -74.5 29.5t-81.5 12.5q-37 0 -69.5 -10.5t-57 -32.5t-38.5 -56t-14 -80q0 -24 4.5 -44t10.5 -40h196l-11 -62h-169q2 -7 5.5 -22.5t3.5 -39.5 q0 -60 -32 -103t-98 -76h341l-12 -67h-423q-8 0 -12.5 2t-4.5 11q0 3 0.5 8t1.5 10q4 21 8.5 26t16.5 11q27 13 52.5 27t45 34.5t31.5 48.5t12 69q0 11 -3.5 31t-7.5 30h-88q-8 0 -11.5 2t-3.5 10q0 3 0.5 7.5t1.5 9.5q3 17 7.5 21t15.5 5z" />
<glyph unicode="&#xa4;" horiz-adv-x="620" d="M385 137q-27 -18 -54.5 -26.5t-53.5 -8.5t-54 8.5t-48 26.5l-75 -65q-5 -5 -9 -7.5t-9 -2.5q-8 0 -21 14q-11 14 -11 23q0 7 3 11.5t11 11.5l73 62q-10 17 -14 37.5t-4 38.5q0 40 16.5 77.5t39.5 61.5l-63 78l50 43l66 -83q19 15 48.5 26.5t59.5 11.5q36 0 62 -11.5 t40 -26.5l95 83l37 -46l-94 -81q16 -29 16 -76q0 -39 -16 -77.5t-38 -61.5l50 -60q8 -10 8 -16q0 -8 -19 -26q-17 -14 -26 -14q-4 0 -13 10zM283 165q28 0 54 11.5t46 31t32 46.5t12 57q0 45 -28 72t-71 27q-28 0 -54 -11.5t-46 -31.5t-32 -46.5t-12 -57.5q0 -45 27 -71.5 t72 -26.5z" />
<glyph unicode="&#xa5;" horiz-adv-x="586" d="M257 316q-36 112 -65 200.5t-52 172.5h82q6 -24 15 -55t21.5 -74t29 -101t38.5 -135q30 46 61 94t61.5 95t59 92t52.5 84h86q-52 -85 -118 -179t-133 -194h133l-11 -61h-163l-12 -68h163l-10 -61h-163l-18 -97q-2 -12 -4 -16.5t-5 -7.5q-4 -4 -12.5 -7t-22.5 -3 q-23 0 -29 7t-6 13q0 3 1 10t3 15l15 86h-141q-8 0 -12 2.5t-4 10.5q0 3 0.5 9.5t2.5 13.5q4 17 9.5 21t13.5 4h142l12 68h-145q-8 0 -12 2.5t-4 10.5q0 3 0.5 9.5t2.5 13.5q4 17 9.5 21t13.5 4h115z" />
<glyph unicode="&#xa6;" d="M163 342q-2 -12 -4 -16.5t-5 -7.5q-4 -4 -12.5 -7t-22.5 -3q-23 0 -29 7t-6 13q0 3 1 10t3 15l59 336h77zM68 -196q-2 -12 -4 -16.5t-5 -7.5q-4 -4 -12.5 -7t-22.5 -3q-23 0 -29 7t-6 13q0 3 1 10t3 15l59 336h77z" />
<glyph unicode="&#xa7;" horiz-adv-x="440" d="M418 616q-20 7 -48.5 12.5t-57.5 5.5q-62 0 -98.5 -25.5t-36.5 -63.5q0 -27 16 -43.5t49 -28.5l59 -23q28 -11 46.5 -22.5t29.5 -25.5t15.5 -31.5t4.5 -41.5q0 -27 -8 -48.5t-21.5 -39t-32 -31.5t-38.5 -26q38 -22 52.5 -50.5t14.5 -70.5q0 -38 -16 -69t-44.5 -53 t-68.5 -34t-88 -12q-60 0 -98 8.5t-60 17.5q-13 6 -13 14q0 5 3 13t5 14q6 15 10 21t12 6q4 0 9.5 -2t13.5 -5q32 -11 58.5 -16t61.5 -5q68 0 104.5 23.5t36.5 68.5q0 31 -17 50t-64 36l-58 21q-59 22 -89.5 48.5t-30.5 78.5q0 36 11.5 62t28.5 43t37.5 28t37.5 17 q-20 13 -32.5 34t-12.5 54q0 41 16 73t44 54.5t66 34.5t81 12q33 0 69 -6t59 -14zM228 212q16 5 33.5 14t32 22.5t24 30.5t9.5 38q0 16 -4.5 27.5t-18.5 22t-39.5 21t-67.5 24.5q-14 -5 -31 -13.5t-32 -22t-25.5 -32.5t-10.5 -43q0 -14 6 -25.5t20.5 -21.5t39.5 -20t64 -22z " />
<glyph unicode="&#xa8;" horiz-adv-x="340" d="M119 620q-23 0 -34.5 12t-11.5 32q0 25 18 46.5t50 21.5q23 0 34 -12t11 -32q0 -26 -18 -47t-49 -21zM319 620q-23 0 -34.5 12t-11.5 32q0 25 18 46.5t50 21.5q23 0 34 -12t11 -32q0 -26 -18 -47t-49 -21z" />
<glyph unicode="&#xa9;" horiz-adv-x="786" d="M379 166q-70 0 -107.5 36.5t-37.5 108.5q0 48 16 87.5t43.5 67t64 42.5t78.5 15q29 0 52 -5t38 -10l-14 -49q-18 6 -37.5 9.5t-34.5 3.5q-31 0 -57.5 -10.5t-46 -31t-30.5 -50t-11 -67.5q0 -20 4 -37.5t15.5 -30.5t31 -20.5t51.5 -7.5q15 0 28.5 2t25.5 5q6 2 10.5 3 t6.5 1q10 0 10 -12q0 -11 -3 -24q-2 -7 -5 -9.5t-14 -5.5q-4 -1 -13 -3t-19.5 -3.5t-22.5 -3t-22 -1.5zM336 32q76 0 141 29.5t112.5 80.5t74.5 119.5t27 146.5q0 63 -17.5 109.5t-49.5 77.5t-76 46.5t-98 15.5q-76 0 -141 -29.5t-112.5 -80t-74.5 -119t-27 -146.5 q0 -63 17.5 -110t49 -78t76 -46.5t98.5 -15.5zM338 -23q-69 0 -126 20.5t-97.5 59.5t-62.5 95.5t-22 128.5q0 84 30 162t84.5 137.5t131.5 95.5t172 36q69 0 126 -20.5t97.5 -59.5t62.5 -95.5t22 -128.5q0 -84 -30 -162t-84.5 -137.5t-132 -95.5t-171.5 -36z" />
<glyph unicode="&#xaa;" horiz-adv-x="387" d="M148 682q17 6 46.5 11.5t59.5 5.5q61 0 91 -23.5t30 -60.5q0 -8 -1 -20.5t-5 -32.5l-18 -102q-8 -45 -9.5 -69t-3.5 -31q-1 -6 -5.5 -11t-18.5 -5q-16 0 -21 5t-5 12l-1 23q-26 -23 -53.5 -34t-56.5 -11q-45 0 -73.5 25t-28.5 70q0 50 40 84t117 34q39 0 76 -8l2 11 q2 11 4 23.5t2 20.5q0 24 -18.5 37.5t-58.5 13.5q-19 0 -45 -5t-52 -13zM239 507q-45 0 -73.5 -15.5t-28.5 -53.5q0 -29 18.5 -40t38.5 -11q26 0 51 12.5t42 30.5l14 71q-13 2 -30 4t-32 2z" />
<glyph unicode="&#xab;" horiz-adv-x="628" d="M260 98l-46 -42l-157 170q-10 11 -13 18.5t-3 18.5q0 9 6 18.5t24 23.5l214 167l37 -48l-189 -164zM540 98l-46 -42l-157 170q-10 11 -13 18.5t-3 18.5q0 9 6 18.5t24 23.5l214 167l37 -48l-189 -164z" />
<glyph unicode="&#xac;" horiz-adv-x="517" d="M458 180q-2 -11 -3.5 -15t-4.5 -7t-10.5 -5.5t-20.5 -2.5q-21 0 -26.5 6t-5.5 11q0 8 3 23l23 124h-297q-7 0 -10.5 2.5t-3.5 12.5q0 3 0.5 9t1.5 11q4 22 10.5 27t13.5 5h365z" />
<glyph unicode="&#xad;" horiz-adv-x="347" d="M307 296l-12 -66h-249q-7 0 -10.5 2.5t-3.5 12.5q0 3 0.5 8.5t1.5 10.5q4 22 10.5 27t13.5 5h249z" />
<glyph unicode="&#xae;" horiz-adv-x="786" d="M344 354h75q28 0 51 14t23 55q0 27 -16 36.5t-46 9.5h-67zM313 519h126q48 0 80.5 -20.5t32.5 -70.5t-29.5 -81t-70.5 -36l45 -107q6 -14 6 -20q0 -8 -11 -10.5t-22 -2.5q-17 0 -23.5 4t-10.5 14l-45 114h-56l-20 -113q-2 -8 -8 -14t-26 -6t-24 6t-2 14zM336 32 q76 0 141 29.5t112.5 80.5t74.5 119.5t27 146.5q0 63 -17.5 109.5t-49.5 77.5t-76 46.5t-98 15.5q-76 0 -141 -29.5t-112.5 -80t-74.5 -119t-27 -146.5q0 -63 17.5 -110t49 -78t76 -46.5t98.5 -15.5zM338 -23q-69 0 -126 20.5t-97.5 59.5t-62.5 95.5t-22 128.5q0 84 30 162 t84.5 137.5t131.5 95.5t172 36q69 0 126 -20.5t97.5 -59.5t62.5 -95.5t22 -128.5q0 -84 -30 -162t-84.5 -137.5t-132 -95.5t-171.5 -36z" />
<glyph unicode="&#xaf;" horiz-adv-x="305" d="M317 707l-11 -62h-238q-6 0 -10 3.5t-4 14.5q0 8 3 22q4 16 8 19t14 3h238z" />
<glyph unicode="&#xb0;" horiz-adv-x="368" d="M214 526q42 0 63 27t21 67q0 28 -14.5 42.5t-39.5 14.5q-38 0 -61 -26.5t-23 -66.5q0 -28 14.5 -43t39.5 -15zM209 463q-25 0 -46.5 7t-38 21.5t-26 36.5t-9.5 52q0 33 11.5 62t32.5 50.5t50 34t65 12.5q25 0 46.5 -7t38 -21.5t26 -36.5t9.5 -52q0 -33 -11.5 -62 t-32.5 -50.5t-50 -34t-65 -12.5z" />
<glyph unicode="&#xb1;" horiz-adv-x="517" d="M268 385l29 162h69l-29 -162h157l-12 -67h-156l-24 -135q-2 -11 -9 -20t-32 -9q-17 0 -23.5 5.5t-6.5 12.5q0 3 0.5 7t2.5 12l23 127h-140q-7 0 -10.5 2.5t-3.5 12.5q0 3 0.5 9t1.5 11q4 22 10.5 27t13.5 5h139zM438 67l-12 -67h-365q-7 0 -10.5 2.5t-3.5 12.5q0 3 0.5 9 t1.5 11q4 22 10.5 27t13.5 5h365z" />
<glyph unicode="&#xb2;" horiz-adv-x="347" d="M292 398q7 0 12 -1.5t5 -12.5q0 -8 -3 -23q-2 -11 -7.5 -14.5t-16.5 -3.5h-187q-5 0 -8.5 1.5t-6.5 9.5q-6 15 -6 24q0 5 3.5 8.5t13.5 9.5q55 34 91 61t57 50t29.5 43.5t8.5 43.5t-13.5 37.5t-42.5 14.5q-23 0 -43.5 -7t-44.5 -18l-1 52q22 11 47.5 18.5t57.5 7.5 q54 0 81 -25t27 -71q0 -32 -12 -59.5t-33.5 -52t-52.5 -47.5t-69 -46h114z" />
<glyph unicode="&#xb3;" horiz-adv-x="348" d="M71 377q0 10 9 28q4 7 7.5 9t7.5 2q7 0 17 -4q17 -7 33.5 -11t36.5 -4q82 0 82 61q-1 26 -15 35t-45 9h-22q-8 0 -12.5 1.5t-4.5 9.5q0 6 2 16q3 16 7.5 19.5t14.5 3.5h22q32 0 51 9.5t19 38.5q0 20 -13 33t-43 13q-17 0 -39 -5t-54 -18l-1 51q28 12 54 18.5t58 6.5 q27 0 47 -7.5t32.5 -20t18.5 -28.5t6 -33q0 -29 -14 -51.5t-49 -33.5v-1q23 -8 34.5 -24t11.5 -47q0 -51 -39 -82t-107 -31q-29 0 -56.5 5.5t-46.5 15.5q-10 6 -10 16z" />
<glyph unicode="&#xb4;" horiz-adv-x="312" d="M309 778l37 -71l-221 -98l-10 -4t-9 -2q-3 0 -7.5 3t-9.5 14q-5 10 -5.5 14.5t-0.5 6.5q0 6 3.5 9.5t8.5 6.5z" />
<glyph unicode="&#xb5;" horiz-adv-x="556" d="M222 55q43 0 86 17.5t81 62.5l70 391h77l-63 -352q-11 -62 -13.5 -104t-2.5 -52q0 -14 -9 -17.5t-29 -3.5q-22 0 -28.5 6.5t-6.5 26.5v35q-13 -13 -30 -26.5t-38.5 -24t-46.5 -17.5t-53 -7q-43 0 -76 12.5t-44 32.5l-42 -237q-1 -4 -2.5 -9t-6 -9t-13 -7t-21.5 -3 q-14 0 -20.5 3t-9.5 7t-3 9t1 9l128 728h77l-57 -327q-5 -25 -6.5 -41t-1.5 -25q0 -42 24.5 -60t78.5 -18z" />
<glyph unicode="&#xb6;" horiz-adv-x="535" d="M575 689l-12 -67h-66l-145 -821q-1 -4 -3 -9t-6.5 -9t-13 -7t-22.5 -3q-26 0 -30 10t-2 18l145 821h-66l-145 -821q-1 -4 -3 -9t-6.5 -9t-13 -7t-22.5 -3q-26 0 -30 10t-2 18l90 510q-72 7 -112 45.5t-40 106.5q0 54 18.5 96t51.5 71t78 44t97 15h260z" />
<glyph unicode="&#xb7;" horiz-adv-x="183" d="M94 320q24 0 34.5 -10.5t10.5 -29.5q0 -18 -4.5 -33t-13.5 -25q-16 -16 -46 -16q-25 0 -35.5 10.5t-10.5 30.5q0 17 4.5 32.5t13.5 24.5q16 16 47 16z" />
<glyph unicode="&#xb8;" horiz-adv-x="289" d="M110 23h54l-35 -88q13 5 22.5 6t20.5 1q32 0 52.5 -19t20.5 -60q0 -34 -11.5 -57t-31 -37.5t-44.5 -20.5t-52 -6q-28 0 -49 4t-36 9q-11 4 -11 10q0 3 1 8.5t4 14.5q5 14 8 16t6 2q7 0 23 -5.5t49 -5.5q38 0 58.5 14t20.5 46q0 21 -11.5 30t-34.5 9q-15 0 -30.5 -4.5 t-19.5 -4.5q-3 0 -5.5 1.5t-7.5 6.5q-6 6 -6 10t2 10t7 17z" />
<glyph unicode="&#xb9;" horiz-adv-x="348" d="M235 624l-108 -58l-24 47q12 6 30 16t37 20.5t37 20.5t30 17q7 5 12.5 6t13.5 1h29q15 0 15 -10q0 -3 -1 -8l-56 -319q-2 -7 -7.5 -13.5t-26.5 -6.5q-18 0 -23.5 4.5t-5.5 10.5q0 3 1 8z" />
<glyph unicode="&#xba;" horiz-adv-x="421" d="M266 651q-28 0 -51.5 -13t-40 -36.5t-25.5 -54.5t-9 -67q0 -42 22 -67.5t60 -25.5q29 0 52.5 13t40 36.5t25.5 55t9 68.5q0 42 -22 66.5t-61 24.5zM272 699q63 0 100 -35.5t37 -96.5q0 -60 -17.5 -104t-49.5 -76q-20 -20 -52 -34t-75 -14q-61 0 -98 35.5t-37 98.5 q0 56 16 97.5t45 73.5q25 27 60 41t71 14z" />
<glyph unicode="&#xbb;" horiz-adv-x="628" d="M368 430l46 42l157 -170q10 -11 13 -18.5t3 -18.5q0 -9 -6 -18.5t-24 -23.5l-214 -167l-37 48l189 164zM88 430l46 42l157 -170q10 -11 13 -18.5t3 -18.5q0 -9 -6 -18.5t-24 -23.5l-214 -167l-37 48l189 164z" />
<glyph unicode="&#xbc;" horiz-adv-x="828" d="M749 16q-2 -8 -6.5 -16t-27.5 -8q-16 0 -21 4.5t-5 11.5v2.5t1 5.5l11 62h-161q-15 0 -19.5 3t-9.5 14q-2 5 -3.5 9.5t-1.5 9.5q0 8 6.5 17.5t13.5 18.5q16 22 36.5 47t41.5 51l42 52t40 49h74q-27 -31 -50 -58t-44 -52.5t-42 -52t-44 -55.5h130l16 89h59zM748 708 l-501 -676q-15 -21 -27.5 -27t-37.5 -6q-11 0 -19.5 3t-8.5 12q0 3 2 7t8 12l501 675h83zM251 624l-108 -58l-24 47q12 6 30 16t37 20.5t37 20.5t30 17q7 5 12.5 6t13.5 1h29q15 0 15 -10q0 -3 -1 -8l-56 -319q-2 -7 -7.5 -13.5t-26.5 -6.5q-18 0 -23.5 4.5t-5.5 10.5 q0 3 1 8z" />
<glyph unicode="&#xbd;" horiz-adv-x="827" d="M715 56q7 0 12 -1.5t5 -12.5q0 -8 -3 -23q-2 -11 -7.5 -14.5t-16.5 -3.5h-187q-5 0 -8.5 1.5t-6.5 9.5q-6 15 -6 24q0 5 3.5 8.5t13.5 9.5q55 34 91 61t57 50t29.5 43.5t8.5 43.5t-13.5 37.5t-42.5 14.5q-23 0 -43.5 -7t-44.5 -18l-1 52q22 11 47.5 18.5t57.5 7.5 q54 0 81 -25t27 -71q0 -32 -12 -59.5t-33.5 -52t-52.5 -47.5t-69 -46h114zM751 699l-501 -676q-15 -21 -27.5 -27t-37.5 -6q-11 0 -19.5 3t-8.5 12q0 3 2 7t8 12l501 675h83zM251 624l-108 -58l-24 47q12 6 30 16t37 20.5t37 20.5t30 17q7 5 12.5 6t13.5 1h29q15 0 15 -10 q0 -3 -1 -8l-56 -319q-2 -7 -7.5 -13.5t-26.5 -6.5q-18 0 -23.5 4.5t-5.5 10.5q0 3 1 8z" />
<glyph unicode="&#xbe;" horiz-adv-x="827" d="M749 16q-2 -8 -6.5 -16t-27.5 -8q-16 0 -21 4.5t-5 11.5v2.5t1 5.5l11 62h-161q-15 0 -19.5 3t-9.5 14q-2 5 -3.5 9.5t-1.5 9.5q0 8 6.5 17.5t13.5 18.5q16 22 36.5 47t41.5 51l42 52t40 49h74q-27 -31 -50 -58t-44 -52.5t-42 -52t-44 -55.5h130l16 89h59zM751 699 l-501 -676q-15 -21 -27.5 -27t-37.5 -6q-11 0 -19.5 3t-8.5 12q0 3 2 7t8 12l501 675h83zM96 377q0 10 9 28q4 7 7.5 9t7.5 2q7 0 17 -4q17 -7 33.5 -11t36.5 -4q82 0 82 61q-1 26 -15 35t-45 9h-22q-8 0 -12.5 1.5t-4.5 9.5q0 6 2 16q3 16 7.5 19.5t14.5 3.5h22 q32 0 51 9.5t19 38.5q0 20 -13 33t-43 13q-17 0 -39 -5t-54 -18l-1 51q28 12 54 18.5t58 6.5q27 0 47 -7.5t32.5 -20t18.5 -28.5t6 -33q0 -29 -14 -51.5t-49 -33.5v-1q23 -8 34.5 -24t11.5 -47q0 -51 -39 -82t-107 -31q-29 0 -56.5 5.5t-46.5 15.5q-10 6 -10 16z" />
<glyph unicode="&#xbf;" horiz-adv-x="435" d="M284.007 188.018q-2 -11.999 -5 -20.498q-3 -8.5 -8.99902 -14.999q-6 -6.5 -15.499 -12q-9.5 -5.49902 -25.499 -11.499q-54.9961 -21.998 -88.4941 -42.4971t-51.9971 -41.498q-18.499 -20.998 -24.498 -42.9971q-6 -21.998 -6 -46.9971q0 -28.998 10.499 -48.4971 q10.5 -19.499 28.499 -31.498q17.998 -11.999 41.9971 -17.499q23.998 -5.49902 49.9971 -5.49902q41.9971 0 76.9951 6.99902q34.998 7 63.9961 14.999l-7 -64.9961q-33.9971 -11.999 -74.4951 -17.999q-40.4971 -5.99902 -75.4951 -5.99902q-39.998 0 -74.9961 10.499 q-34.9971 10.499 -61.4961 31.498q-26.498 20.999 -41.9971 51.9971t-15.499 71.9951q0 52.9971 19.499 88.9951t49.4971 61.4961t67.4951 42.4971q37.498 16.999 73.4961 31.998q9.99902 4 15.499 7.5t8.99902 8.49902q3.5 5 5.5 13.499q2 8.5 5 21.499l9.99902 56.9961 q2 8 7.5 16.499q5.49902 8.5 30.498 8.5q22.998 0 26.498 -9.49902q3.5 -9.5 1.5 -20.499zM286.007 385.006q-42.998 0 -42.998 37.998q0 35.998 16.999 55.9961q8 7 18.499 11q10.5 3.99902 26.499 3.99902q43.9971 0 43.9971 -38.9971q0 -16.999 -4.5 -31.498 t-13.499 -23.499q-14.999 -14.999 -44.9971 -14.999z" />
<glyph unicode="&#xc0;" horiz-adv-x="638" d="M426 689q14 0 17 -5.5t7 -29.5q21 -149 40.5 -295.5t42.5 -312.5q2 -14 2.5 -20.5t0.5 -10.5q0 -10 -10 -14t-26 -4q-26 0 -33 5.5t-9 19.5l-18 155h-302l-75 -155q-6 -12 -17 -18.5t-37 -6.5q-21 0 -25.5 4.5t-4.5 9.5q0 6 4 14.5t9 19.5q79 165 157.5 322t150.5 302 q6 12 11.5 16t18.5 4h96zM355 624q-46 -94 -93.5 -194t-90.5 -188h261q-5 42 -11.5 91t-13.5 99.5t-13.5 99.5t-12.5 92h-26zM472 811q9 -6 9 -13q0 -5 -2 -11t-8 -14q-8 -11 -13 -14.5t-10 -3.5t-19 7l-183 98l50 76z" />
<glyph unicode="&#xc1;" horiz-adv-x="638" d="M426 689q14 0 17 -5.5t7 -29.5q21 -149 40.5 -295.5t42.5 -312.5q2 -14 2.5 -20.5t0.5 -10.5q0 -10 -10 -14t-26 -4q-26 0 -33 5.5t-9 19.5l-18 155h-302l-75 -155q-6 -12 -17 -18.5t-37 -6.5q-21 0 -25.5 4.5t-4.5 9.5q0 6 4 14.5t9 19.5q79 165 157.5 322t150.5 302 q6 12 11.5 16t18.5 4h96zM355 624q-46 -94 -93.5 -194t-90.5 -188h261q-5 42 -11.5 91t-13.5 99.5t-13.5 99.5t-12.5 92h-26zM530 936l39 -76l-221 -99l-10 -4t-9 -2q-3 0 -7.5 3.5t-9.5 14.5q-8 17 -8 24q0 8 3.5 11.5t8.5 6.5z" />
<glyph unicode="&#xc2;" horiz-adv-x="638" d="M426 689q14 0 17 -5.5t7 -29.5q21 -149 40.5 -295.5t42.5 -312.5q2 -14 2.5 -20.5t0.5 -10.5q0 -10 -10 -14t-26 -4q-26 0 -33 5.5t-9 19.5l-18 155h-302l-75 -155q-6 -12 -17 -18.5t-37 -6.5q-21 0 -25.5 4.5t-4.5 9.5q0 6 4 14.5t9 19.5q79 165 157.5 322t150.5 302 q6 12 11.5 16t18.5 4h96zM355 624q-46 -94 -93.5 -194t-90.5 -188h261q-5 42 -11.5 91t-13.5 99.5t-13.5 99.5t-12.5 92h-26zM398 863l-113 -89q-20 -15 -28 -15q-5 0 -9.5 4t-8.5 9q-6 8 -8 13t-2 7q0 5 8 13l142 132q5 5 7 5.5t7 0.5h40q4 0 6.5 -0.5t5.5 -5.5l90 -126 q7 -10 8.5 -13t1.5 -6t-2.5 -7t-11.5 -12q-13 -12 -21 -12q-4 0 -7.5 2t-11.5 10l-84 90h-9z" />
<glyph unicode="&#xc3;" horiz-adv-x="638" d="M426 689q14 0 17 -5.5t7 -29.5q21 -149 40.5 -295.5t42.5 -312.5q2 -14 2.5 -20.5t0.5 -10.5q0 -10 -10 -14t-26 -4q-26 0 -33 5.5t-9 19.5l-18 155h-302l-75 -155q-6 -12 -17 -18.5t-37 -6.5q-21 0 -25.5 4.5t-4.5 9.5q0 6 4 14.5t9 19.5q79 165 157.5 322t150.5 302 q6 12 11.5 16t18.5 4h96zM355 624q-46 -94 -93.5 -194t-90.5 -188h261q-5 42 -11.5 91t-13.5 99.5t-13.5 99.5t-12.5 92h-26zM219 778q-13 10 -13 18q0 5 8 17q28 42 57 64.5t60 22.5q25 0 45 -10t36.5 -22.5t31.5 -22.5t30 -10q21 0 38.5 17t36.5 42l40 -30 q-24 -40 -55 -68t-69 -28q-24 0 -42 10t-33.5 22.5t-31 22.5t-34.5 10q-14 0 -29 -10.5t-34 -35.5q-9 -13 -12 -16t-7 -3t-9 2t-14 8z" />
<glyph unicode="&#xc4;" horiz-adv-x="638" d="M426 689q14 0 17 -5.5t7 -29.5q21 -149 40.5 -295.5t42.5 -312.5q2 -14 2.5 -20.5t0.5 -10.5q0 -10 -10 -14t-26 -4q-26 0 -33 5.5t-9 19.5l-18 155h-302l-75 -155q-6 -12 -17 -18.5t-37 -6.5q-21 0 -25.5 4.5t-4.5 9.5q0 6 4 14.5t9 19.5q79 165 157.5 322t150.5 302 q6 12 11.5 16t18.5 4h96zM355 624q-46 -94 -93.5 -194t-90.5 -188h261q-5 42 -11.5 91t-13.5 99.5t-13.5 99.5t-12.5 92h-26zM293 782q-48 0 -48 46q0 26 19 48t52 22q23 0 35 -12.5t12 -32.5q0 -27 -19 -49t-51 -22zM490 782q-48 0 -48 46q0 26 19 48t52 22q23 0 35 -12.5 t12 -32.5q0 -27 -19 -49t-51 -22z" />
<glyph unicode="&#xc5;" horiz-adv-x="638" d="M426 689q14 0 17 -5.5t7 -29.5q21 -149 40.5 -295.5t42.5 -312.5q2 -14 2.5 -20.5t0.5 -10.5q0 -10 -10 -14t-26 -4q-26 0 -33 5.5t-9 19.5l-18 155h-302l-75 -155q-6 -12 -17 -18.5t-37 -6.5q-21 0 -25.5 4.5t-4.5 9.5q0 6 4 14.5t9 19.5q79 165 157.5 322t150.5 302 q6 12 11.5 16t18.5 4h96zM355 624q-46 -94 -93.5 -194t-90.5 -188h261q-5 42 -11.5 91t-13.5 99.5t-13.5 99.5t-12.5 92h-26zM395 804q25 0 44 19t19 48q0 20 -11 31t-29 11q-26 0 -44.5 -18.5t-18.5 -49.5q0 -19 10 -30t30 -11zM390 753q-43 0 -66 25t-23 63q0 25 9 47.5 t25 39t38.5 26.5t49.5 10q42 0 64.5 -24.5t22.5 -64.5q0 -26 -9 -48t-25 -38.5t-38 -26t-48 -9.5z" />
<glyph unicode="&#xc6;" horiz-adv-x="988" d="M992 689l-12 -66h-345l-40 -230h297l-12 -66h-297l-46 -260h351l-12 -67h-399q-28 0 -24 28l26 149h-273l-115 -156q-11 -15 -23 -19.5t-38 -4.5q-20 0 -28.5 1.5t-8.5 7.5q0 4 4 9.5t9 13.5q73 100 129 176t99 134t75.5 101.5t58.5 79t48.5 66t45.5 61.5 q12 16 19.5 24.5t14 12.5t14 4.5t18.5 0.5h464zM257 242h234l68 381h-30z" />
<glyph unicode="&#xc7;" horiz-adv-x="576" d="M273 -65q13 5 22.5 6t20.5 1q32 0 52.5 -19t20.5 -60q0 -34 -11.5 -57t-31 -37.5t-44.5 -20.5t-52 -6q-28 0 -49 4t-36 9q-11 4 -11 10q0 3 1 8.5t4 14.5q5 14 8 16t6 2q7 0 23 -5.5t49 -5.5q38 0 58.5 14t20.5 46q0 21 -11.5 30t-34.5 9q-15 0 -30.5 -4.5t-19.5 -4.5 q-3 0 -5.5 1.5t-7.5 6.5q-6 6 -6 10t2 10t7 17l26 67q-95 14 -147.5 84.5t-52.5 185.5q0 93 27.5 172t79.5 137t126 90.5t166 32.5q51 0 91.5 -6.5t59.5 -14.5l-20 -62q-22 7 -55.5 12t-74.5 5q-75 0 -134 -27.5t-99.5 -75.5t-62 -113.5t-21.5 -140.5q0 -58 14 -99.5 t39.5 -68t61 -39t79.5 -12.5q38 0 70 5t55 10q12 2 19 4t12 2q11 0 11 -22q0 -5 -0.5 -13.5t-2.5 -16.5q-2 -7 -8.5 -10t-21.5 -7q-19 -5 -59 -12t-83 -7h-7t-11 1z" />
<glyph unicode="&#xc8;" horiz-adv-x="553" d="M125 661q4 28 35 28h397l-12 -66h-348l-40 -230h300l-12 -66h-300l-46 -260h354l-12 -67h-403q-9 0 -17.5 3.5t-8.5 14.5q0 5 1 12t3 15zM464 811q9 -6 9 -13q0 -5 -2 -11t-8 -14q-8 -11 -13 -14.5t-10 -3.5t-19 7l-183 98l50 76z" />
<glyph unicode="&#xc9;" horiz-adv-x="553" d="M125 661q4 28 35 28h397l-12 -66h-348l-40 -230h300l-12 -66h-300l-46 -260h354l-12 -67h-403q-9 0 -17.5 3.5t-8.5 14.5q0 5 1 12t3 15zM471 936l39 -76l-221 -99l-10 -4t-9 -2q-3 0 -7.5 3.5t-9.5 14.5q-8 17 -8 24q0 8 3.5 11.5t8.5 6.5z" />
<glyph unicode="&#xca;" horiz-adv-x="553" d="M125 661q4 28 35 28h397l-12 -66h-348l-40 -230h300l-12 -66h-300l-46 -260h354l-12 -67h-403q-9 0 -17.5 3.5t-8.5 14.5q0 5 1 12t3 15zM369 863l-113 -89q-20 -15 -28 -15q-5 0 -9.5 4t-8.5 9q-6 8 -8 13t-2 7q0 5 8 13l142 132q5 5 7 5.5t7 0.5h40q4 0 6.5 -0.5 t5.5 -5.5l90 -126q7 -10 8.5 -13t1.5 -6t-2.5 -7t-11.5 -12q-13 -12 -21 -12q-4 0 -7.5 2t-11.5 10l-84 90h-9z" />
<glyph unicode="&#xcb;" horiz-adv-x="553" d="M125 661q4 28 35 28h397l-12 -66h-348l-40 -230h300l-12 -66h-300l-46 -260h354l-12 -67h-403q-9 0 -17.5 3.5t-8.5 14.5q0 5 1 12t3 15zM263 782q-48 0 -48 46q0 26 19 48t52 22q23 0 35 -12.5t12 -32.5q0 -27 -19 -49t-51 -22zM460 782q-48 0 -48 46q0 26 19 48t52 22 q23 0 35 -12.5t12 -32.5q0 -27 -19 -49t-51 -22z" />
<glyph unicode="&#xcc;" d="M97 27q-2 -12 -9 -22t-37 -10q-21 0 -28 5.5t-7 13.5q0 3 1 9t2 10l116 656h79zM249 811q9 -6 9 -13q0 -5 -2 -11t-8 -14q-8 -11 -13 -14.5t-10 -3.5t-19 7l-183 98l50 76z" />
<glyph unicode="&#xcd;" d="M97 27q-2 -12 -9 -22t-37 -10q-21 0 -28 5.5t-7 13.5q0 3 1 9t2 10l116 656h79zM335 936l39 -76l-221 -99l-10 -4t-9 -2q-3 0 -7.5 3.5t-9.5 14.5q-8 17 -8 24q0 8 3.5 11.5t8.5 6.5z" />
<glyph unicode="&#xce;" d="M97 27q-2 -12 -9 -22t-37 -10q-21 0 -28 5.5t-7 13.5q0 3 1 9t2 10l116 656h79zM198 863l-113 -89q-20 -15 -28 -15q-5 0 -9.5 4t-8.5 9q-6 8 -8 13t-2 7q0 5 8 13l142 132q5 5 7 5.5t7 0.5h40q4 0 6.5 -0.5t5.5 -5.5l90 -126q7 -10 8.5 -13t1.5 -6t-2.5 -7t-11.5 -12 q-13 -12 -21 -12q-4 0 -7.5 2t-11.5 10l-84 90h-9z" />
<glyph unicode="&#xcf;" d="M97 27q-2 -12 -9 -22t-37 -10q-21 0 -28 5.5t-7 13.5q0 3 1 9t2 10l116 656h79zM91 782q-48 0 -48 46q0 26 19 48t52 22q23 0 35 -12.5t12 -32.5q0 -27 -19 -49t-51 -22zM288 782q-48 0 -48 46q0 26 19 48t52 22q23 0 35 -12.5t12 -32.5q0 -27 -19 -49t-51 -22z" />
<glyph unicode="&#xd0;" horiz-adv-x="760" d="M125 0q-9 0 -17.5 3.5t-8.5 14.5q0 3 1 11t3 16l50 283h-92q-7 0 -10.5 2.5t-3.5 12.5q0 3 0.5 8.5t1.5 10.5q4 22 10.5 27t13.5 5h91l53 295h193q32 0 63.5 -1.5t61 -7t56.5 -17t50 -31.5q35 -30 55 -79t20 -115q0 -50 -9 -100t-26.5 -96t-43 -85.5t-57.5 -69.5 q-23 -21 -51.5 -37t-64 -27.5t-80 -17t-99.5 -5.5h-160zM243 394h196l-12 -66h-195l-46 -260h108q32 0 63 2t60.5 9.5t56.5 21.5t52 39t45 59t33.5 72.5t21 80.5t7.5 84q0 57 -14 90t-37 56q-27 26 -63.5 33t-87.5 7h-147z" />
<glyph unicode="&#xd1;" horiz-adv-x="669" d="M89 27q-2 -12 -9 -22t-36 -10q-18 0 -25 5t-7 13q0 3 1 9t2 11l116 656h98l251 -584l103 584h74l-115 -654q-5 -24 -16.5 -31t-36.5 -7q-14 0 -22.5 2t-15 7.5t-12 15t-11.5 24.5l-237 553zM242 778q-13 10 -13 18q0 5 8 17q28 42 57 64.5t60 22.5q25 0 45 -10 t36.5 -22.5t31.5 -22.5t30 -10q21 0 38.5 17t36.5 42l40 -30q-24 -40 -55 -68t-69 -28q-24 0 -42 10t-33.5 22.5t-31 22.5t-34.5 10q-14 0 -29 -10.5t-34 -35.5q-9 -13 -12 -16t-7 -3t-9 2t-14 8z" />
<glyph unicode="&#xd2;" horiz-adv-x="690" d="M394 631q-69 0 -120 -33.5t-84 -86t-49 -117.5t-16 -127q0 -47 10 -85.5t31.5 -66t54.5 -42.5t80 -15q72 0 122 33t81.5 85.5t46 117.5t14.5 128q0 46 -8.5 84.5t-29 66t-53 43t-80.5 15.5zM408 699q51 0 94.5 -15.5t75.5 -48.5t50 -84.5t18 -122.5q0 -78 -20.5 -156.5 t-64 -141t-110.5 -101.5t-161 -39q-59 0 -104.5 19.5t-77 55t-48 85.5t-16.5 111q0 84 23.5 163t69 140t113.5 98t158 37zM522 811q9 -6 9 -13q0 -5 -2 -11t-8 -14q-8 -11 -13 -14.5t-10 -3.5t-19 7l-183 98l50 76z" />
<glyph unicode="&#xd3;" horiz-adv-x="690" d="M394 631q-69 0 -120 -33.5t-84 -86t-49 -117.5t-16 -127q0 -47 10 -85.5t31.5 -66t54.5 -42.5t80 -15q72 0 122 33t81.5 85.5t46 117.5t14.5 128q0 46 -8.5 84.5t-29 66t-53 43t-80.5 15.5zM408 699q51 0 94.5 -15.5t75.5 -48.5t50 -84.5t18 -122.5q0 -78 -20.5 -156.5 t-64 -141t-110.5 -101.5t-161 -39q-59 0 -104.5 19.5t-77 55t-48 85.5t-16.5 111q0 84 23.5 163t69 140t113.5 98t158 37zM538 936l39 -76l-221 -99l-10 -4t-9 -2q-3 0 -7.5 3.5t-9.5 14.5q-8 17 -8 24q0 8 3.5 11.5t8.5 6.5z" />
<glyph unicode="&#xd4;" horiz-adv-x="690" d="M394 631q-69 0 -120 -33.5t-84 -86t-49 -117.5t-16 -127q0 -47 10 -85.5t31.5 -66t54.5 -42.5t80 -15q72 0 122 33t81.5 85.5t46 117.5t14.5 128q0 46 -8.5 84.5t-29 66t-53 43t-80.5 15.5zM408 699q51 0 94.5 -15.5t75.5 -48.5t50 -84.5t18 -122.5q0 -78 -20.5 -156.5 t-64 -141t-110.5 -101.5t-161 -39q-59 0 -104.5 19.5t-77 55t-48 85.5t-16.5 111q0 84 23.5 163t69 140t113.5 98t158 37zM424 863l-113 -89q-20 -15 -28 -15q-5 0 -9.5 4t-8.5 9q-6 8 -8 13t-2 7q0 5 8 13l142 132q5 5 7 5.5t7 0.5h40q4 0 6.5 -0.5t5.5 -5.5l90 -126 q7 -10 8.5 -13t1.5 -6t-2.5 -7t-11.5 -12q-13 -12 -21 -12q-4 0 -7.5 2t-11.5 10l-84 90h-9z" />
<glyph unicode="&#xd5;" horiz-adv-x="690" d="M394 631q-69 0 -120 -33.5t-84 -86t-49 -117.5t-16 -127q0 -47 10 -85.5t31.5 -66t54.5 -42.5t80 -15q72 0 122 33t81.5 85.5t46 117.5t14.5 128q0 46 -8.5 84.5t-29 66t-53 43t-80.5 15.5zM408 699q51 0 94.5 -15.5t75.5 -48.5t50 -84.5t18 -122.5q0 -78 -20.5 -156.5 t-64 -141t-110.5 -101.5t-161 -39q-59 0 -104.5 19.5t-77 55t-48 85.5t-16.5 111q0 84 23.5 163t69 140t113.5 98t158 37zM249 778q-13 10 -13 18q0 5 8 17q28 42 57 64.5t60 22.5q25 0 45 -10t36.5 -22.5t31.5 -22.5t30 -10q21 0 38.5 17t36.5 42l40 -30q-24 -40 -55 -68 t-69 -28q-24 0 -42 10t-33.5 22.5t-31 22.5t-34.5 10q-14 0 -29 -10.5t-34 -35.5q-9 -13 -12 -16t-7 -3t-9 2t-14 8z" />
<glyph unicode="&#xd6;" horiz-adv-x="690" d="M394 631q-69 0 -120 -33.5t-84 -86t-49 -117.5t-16 -127q0 -47 10 -85.5t31.5 -66t54.5 -42.5t80 -15q72 0 122 33t81.5 85.5t46 117.5t14.5 128q0 46 -8.5 84.5t-29 66t-53 43t-80.5 15.5zM408 699q51 0 94.5 -15.5t75.5 -48.5t50 -84.5t18 -122.5q0 -78 -20.5 -156.5 t-64 -141t-110.5 -101.5t-161 -39q-59 0 -104.5 19.5t-77 55t-48 85.5t-16.5 111q0 84 23.5 163t69 140t113.5 98t158 37zM318 782q-48 0 -48 46q0 26 19 48t52 22q23 0 35 -12.5t12 -32.5q0 -27 -19 -49t-51 -22zM515 782q-48 0 -48 46q0 26 19 48t52 22q23 0 35 -12.5 t12 -32.5q0 -27 -19 -49t-51 -22z" />
<glyph unicode="&#xd7;" horiz-adv-x="517" d="M274 214l-121 -105q-14 -11 -23 -11q-10 0 -22 13q-11 12 -12.5 18.5t-1.5 10.5q0 7 3.5 11.5t9.5 9.5l123 105l-91 113l56 48l92 -114l134 114l43 -52l-134 -115l83 -104q8 -9 8 -15q0 -13 -19 -29q-17 -14 -28 -14q-9 0 -18 12z" />
<glyph unicode="&#xd8;" horiz-adv-x="690" d="M408 699q49 0 87.5 -13.5t71.5 -43.5l83 94l47 -44l-88 -100q17 -31 27 -71.5t10 -92.5q0 -78 -20.5 -156.5t-64 -141t-110.5 -101.5t-161 -39q-52 0 -91.5 14t-72.5 42l-66 -75q-11 -11 -16 -11q-4 0 -9.5 2.5t-15.5 10.5q-7 7 -12.5 13.5t-4.5 11.5q1 3 3 6t10 13 l69 79q-18 31 -29 72.5t-11 92.5q0 84 23.5 163t69 140t113.5 98t158 37zM394 631q-69 0 -120 -33.5t-84 -86t-49 -117.5t-16 -127q0 -61 17 -106l375 424q-20 22 -49 34t-74 12zM565 422q0 30 -3 56.5t-11 48.5l-374 -423q23 -23 52 -34.5t72 -11.5q72 0 122 33t81.5 85.5 t46 117.5t14.5 128z" />
<glyph unicode="&#xd9;" horiz-adv-x="647" d="M563 262q-8 -44 -18.5 -76.5t-23 -57t-27.5 -42.5t-32 -33q-42 -36 -95 -49.5t-107 -13.5q-60 0 -106.5 18.5t-73.5 53.5q-18 22 -27.5 50.5t-9.5 66.5q0 30 6 66l78 444h79l-78 -443q-2 -14 -4 -28.5t-2 -26.5q0 -28 7 -53.5t24 -42.5t47 -27.5t72 -10.5q44 0 77 11.5 t59 33.5q15 13 27 28.5t21.5 36.5t17 48t13.5 62l73 412h78zM489 811q9 -6 9 -13q0 -5 -2 -11t-8 -14q-8 -11 -13 -14.5t-10 -3.5t-19 7l-183 98l50 76z" />
<glyph unicode="&#xda;" horiz-adv-x="647" d="M563 262q-8 -44 -18.5 -76.5t-23 -57t-27.5 -42.5t-32 -33q-42 -36 -95 -49.5t-107 -13.5q-60 0 -106.5 18.5t-73.5 53.5q-18 22 -27.5 50.5t-9.5 66.5q0 30 6 66l78 444h79l-78 -443q-2 -14 -4 -28.5t-2 -26.5q0 -28 7 -53.5t24 -42.5t47 -27.5t72 -10.5q44 0 77 11.5 t59 33.5q15 13 27 28.5t21.5 36.5t17 48t13.5 62l73 412h78zM522 936l39 -76l-221 -99l-10 -4t-9 -2q-3 0 -7.5 3.5t-9.5 14.5q-8 17 -8 24q0 8 3.5 11.5t8.5 6.5z" />
<glyph unicode="&#xdb;" horiz-adv-x="647" d="M563 262q-8 -44 -18.5 -76.5t-23 -57t-27.5 -42.5t-32 -33q-42 -36 -95 -49.5t-107 -13.5q-60 0 -106.5 18.5t-73.5 53.5q-18 22 -27.5 50.5t-9.5 66.5q0 30 6 66l78 444h79l-78 -443q-2 -14 -4 -28.5t-2 -26.5q0 -28 7 -53.5t24 -42.5t47 -27.5t72 -10.5q44 0 77 11.5 t59 33.5q15 13 27 28.5t21.5 36.5t17 48t13.5 62l73 412h78zM409 863l-113 -89q-20 -15 -28 -15q-5 0 -9.5 4t-8.5 9q-6 8 -8 13t-2 7q0 5 8 13l142 132q5 5 7 5.5t7 0.5h40q4 0 6.5 -0.5t5.5 -5.5l90 -126q7 -10 8.5 -13t1.5 -6t-2.5 -7t-11.5 -12q-13 -12 -21 -12 q-4 0 -7.5 2t-11.5 10l-84 90h-9z" />
<glyph unicode="&#xdc;" horiz-adv-x="647" d="M563 262q-8 -44 -18.5 -76.5t-23 -57t-27.5 -42.5t-32 -33q-42 -36 -95 -49.5t-107 -13.5q-60 0 -106.5 18.5t-73.5 53.5q-18 22 -27.5 50.5t-9.5 66.5q0 30 6 66l78 444h79l-78 -443q-2 -14 -4 -28.5t-2 -26.5q0 -28 7 -53.5t24 -42.5t47 -27.5t72 -10.5q44 0 77 11.5 t59 33.5q15 13 27 28.5t21.5 36.5t17 48t13.5 62l73 412h78zM294 782q-48 0 -48 46q0 26 19 48t52 22q23 0 35 -12.5t12 -32.5q0 -27 -19 -49t-51 -22zM491 782q-48 0 -48 46q0 26 19 48t52 22q23 0 35 -12.5t12 -32.5q0 -27 -19 -49t-51 -22z" />
<glyph unicode="&#xdd;" horiz-adv-x="591" d="M247 261q-39 95 -78 202.5t-77 225.5h85q14 -46 29.5 -95t30.5 -96t29 -89.5t26 -73.5h9q21 31 51 76.5t61.5 95t62 98t52.5 84.5h89q-79 -122 -150 -226.5t-141 -201.5l-41 -234q-2 -12 -9 -22t-37 -10q-21 0 -28 5.5t-7 13.5q0 3 1 9t2 10zM476 936l39 -76l-221 -99 l-10 -4t-9 -2q-3 0 -7.5 3.5t-9.5 14.5q-8 17 -8 24q0 8 3.5 11.5t8.5 6.5z" />
<glyph unicode="&#xde;" horiz-adv-x="586" d="M259 202q107 0 166 44.5t59 148.5q0 39 -14 63t-37 36.5t-53.5 16.5t-63.5 4h-137l-55 -313h135zM93 27q-2 -12 -9 -22t-37 -10q-21 0 -28 5.5t-7 13.5q0 3 1 9t2 10l116 656h79l-19 -107h137q46 0 89 -7.5t76 -27.5t53 -54.5t20 -87.5q0 -131 -78 -200 q-44 -38 -101.5 -53.5t-141.5 -15.5h-133z" />
<glyph unicode="&#xdf;" horiz-adv-x="572" d="M62 -61q-2 -12 -4 -16.5t-5 -7.5q-4 -4 -12.5 -7t-22.5 -3q-23 0 -29 7t-6 13q0 3 1 10t3 15l97 548q10 55 29.5 100t51 77.5t76.5 50.5t106 18q33 0 63.5 -7.5t54.5 -24.5t38 -44t14 -66q0 -33 -14 -58.5t-34.5 -46t-45 -36.5t-45 -30.5t-34.5 -28.5t-14 -29 q0 -16 14 -28t34.5 -23t44.5 -24t44.5 -30.5t34.5 -42.5t14 -61q0 -40 -14.5 -72t-40.5 -54.5t-62 -35t-79 -12.5q-30 0 -69 4.5t-69 17.5q-11 5 -11 15q0 11 6 28q5 14 10 18t10 4t16 -3.5t28 -7.5q21 -5 41.5 -8t41.5 -3t42.5 5t38 17t27 31t10.5 48q0 25 -14 41.5t-35 29 t-45 24t-45 26t-35 34.5t-14 49q0 28 14 51.5t35 43t45.5 37t45.5 34.5t35 34t14 37q0 38 -26.5 59.5t-80.5 21.5q-47 0 -78 -17t-51 -44t-31 -60.5t-17 -66.5z" />
<glyph unicode="&#xe0;" horiz-adv-x="545" d="M426 463q-26 8 -44.5 9.5t-33.5 1.5q-35 0 -77 -13.5t-78 -47.5t-60.5 -90.5t-24.5 -142.5q0 -58 28 -92.5t79 -34.5q42 0 81 27t69 67zM431 18q-1 -13 -8 -17t-28 -4q-26 0 -31.5 7t-5.5 33v35q-28 -31 -70.5 -55.5t-97.5 -24.5q-75 0 -118 50t-43 132t23 148.5t66 114 t104.5 73.5t138.5 26q47 0 88 -9.5t61 -17.5l-60 -316q-8 -43 -12.5 -90.5t-6.5 -84.5zM478 656q9 -6 9 -12q0 -9 -11 -24q-8 -11 -12 -14t-8 -3q-5 0 -18 7l-184 99l47 69z" />
<glyph unicode="&#xe1;" horiz-adv-x="545" d="M426 463q-26 8 -44.5 9.5t-33.5 1.5q-35 0 -77 -13.5t-78 -47.5t-60.5 -90.5t-24.5 -142.5q0 -58 28 -92.5t79 -34.5q42 0 81 27t69 67zM431 18q-1 -13 -8 -17t-28 -4q-26 0 -31.5 7t-5.5 33v35q-28 -31 -70.5 -55.5t-97.5 -24.5q-75 0 -118 50t-43 132t23 148.5t66 114 t104.5 73.5t138.5 26q47 0 88 -9.5t61 -17.5l-60 -316q-8 -43 -12.5 -90.5t-6.5 -84.5zM479 778l37 -71l-221 -98l-10 -4t-9 -2q-3 0 -7.5 3t-9.5 14q-5 10 -5.5 14.5t-0.5 6.5q0 6 3.5 9.5t8.5 6.5z" />
<glyph unicode="&#xe2;" horiz-adv-x="545" d="M426 463q-26 8 -44.5 9.5t-33.5 1.5q-35 0 -77 -13.5t-78 -47.5t-60.5 -90.5t-24.5 -142.5q0 -58 28 -92.5t79 -34.5q42 0 81 27t69 67zM431 18q-1 -13 -8 -17t-28 -4q-26 0 -31.5 7t-5.5 33v35q-28 -31 -70.5 -55.5t-97.5 -24.5q-75 0 -118 50t-43 132t23 148.5t66 114 t104.5 73.5t138.5 26q47 0 88 -9.5t61 -17.5l-60 -316q-8 -43 -12.5 -90.5t-6.5 -84.5zM361 706l-111 -90q-20 -15 -29 -15q-5 0 -9.5 4t-8.5 9q-6 8 -8 13t-2 7q0 5 8 13l142 132q5 5 7 5.5t7 0.5h40q4 0 6.5 -0.5t5.5 -5.5l90 -126q7 -10 8.5 -13t1.5 -6t-2.5 -7 t-11.5 -12q-13 -12 -21 -12q-4 0 -7.5 2t-11.5 10l-82 91h-12z" />
<glyph unicode="&#xe3;" horiz-adv-x="545" d="M426 463q-26 8 -44.5 9.5t-33.5 1.5q-35 0 -77 -13.5t-78 -47.5t-60.5 -90.5t-24.5 -142.5q0 -58 28 -92.5t79 -34.5q42 0 81 27t69 67zM431 18q-1 -13 -8 -17t-28 -4q-26 0 -31.5 7t-5.5 33v35q-28 -31 -70.5 -55.5t-97.5 -24.5q-75 0 -118 50t-43 132t23 148.5t66 114 t104.5 73.5t138.5 26q47 0 88 -9.5t61 -17.5l-60 -316q-8 -43 -12.5 -90.5t-6.5 -84.5zM183 623q-13 9 -13 17q0 5 8 17q27 41 55.5 62.5t58.5 21.5q24 0 43.5 -10t35.5 -22t30.5 -22t29.5 -10q20 0 37.5 17t35.5 41l39 -29q-23 -38 -53 -66t-68 -28q-23 0 -40.5 10 t-32.5 22t-30.5 22t-33.5 10q-13 0 -28 -10.5t-33 -34.5q-9 -12 -12 -15t-7 -3q-3 0 -8 2t-14 8z" />
<glyph unicode="&#xe4;" horiz-adv-x="545" d="M426 463q-26 8 -44.5 9.5t-33.5 1.5q-35 0 -77 -13.5t-78 -47.5t-60.5 -90.5t-24.5 -142.5q0 -58 28 -92.5t79 -34.5q42 0 81 27t69 67zM431 18q-1 -13 -8 -17t-28 -4q-26 0 -31.5 7t-5.5 33v35q-28 -31 -70.5 -55.5t-97.5 -24.5q-75 0 -118 50t-43 132t23 148.5t66 114 t104.5 73.5t138.5 26q47 0 88 -9.5t61 -17.5l-60 -316q-8 -43 -12.5 -90.5t-6.5 -84.5zM259 620q-23 0 -34.5 12t-11.5 32q0 25 18 46.5t50 21.5q23 0 34 -12t11 -32q0 -26 -18 -47t-49 -21zM459 620q-23 0 -34.5 12t-11.5 32q0 25 18 46.5t50 21.5q23 0 34 -12t11 -32 q0 -26 -18 -47t-49 -21z" />
<glyph unicode="&#xe5;" horiz-adv-x="545" d="M426 463q-26 8 -44.5 9.5t-33.5 1.5q-35 0 -77 -13.5t-78 -47.5t-60.5 -90.5t-24.5 -142.5q0 -58 28 -92.5t79 -34.5q42 0 81 27t69 67zM431 18q-1 -13 -8 -17t-28 -4q-26 0 -31.5 7t-5.5 33v35q-28 -31 -70.5 -55.5t-97.5 -24.5q-75 0 -118 50t-43 132t23 148.5t66 114 t104.5 73.5t138.5 26q47 0 88 -9.5t61 -17.5l-60 -316q-8 -43 -12.5 -90.5t-6.5 -84.5zM370 630q26 0 44.5 19t18.5 50q0 20 -10.5 31t-29.5 11q-26 0 -45 -19t-19 -50q0 -20 10.5 -31t30.5 -11zM365 582q-42 0 -64.5 24.5t-22.5 61.5q0 25 8.5 47t24.5 38.5t38 26t49 9.5 q41 0 63.5 -24t22.5 -63q0 -25 -9 -47t-25 -38t-38 -25.5t-47 -9.5z" />
<glyph unicode="&#xe6;" horiz-adv-x="872" d="M279 247q-37 0 -68.5 -7t-55 -22t-36.5 -37.5t-13 -53.5q0 -32 23 -55t77 -23q19 0 41 5.5t45 15.5t45.5 24t42.5 30q-3 7 -5.5 23t-2.5 28q0 14 0.5 29t2.5 35q-46 8 -96 8zM464 456q32 38 79 59t112 21q181 0 180 -168q0 -32 -6.5 -63.5t-15.5 -65.5h-358 q-3 -17 -3.5 -30t-0.5 -23q0 -39 11 -64.5t31 -40t49.5 -20.5t67.5 -6q27 0 55.5 3.5t49.5 7.5q15 3 22 3q9 0 9 -11q0 -6 -0.5 -15t-2.5 -17q-2 -11 -5 -14.5t-14 -6.5q-21 -5 -57.5 -10t-75.5 -5q-46 0 -79 9t-55 21.5t-35 27t-20 25.5q-16 -12 -37.5 -26t-49 -27 t-61.5 -21.5t-75 -8.5q-69 0 -109.5 33t-40.5 96q0 48 19 83t53 58t79.5 34t98.5 11q35 0 61 -4t44 -8l10 47q2 11 4 24.5t2 25.5q0 25 -10 40.5t-26.5 24.5t-39 12.5t-47.5 3.5q-34 0 -71.5 -7.5t-75.5 -19.5l2 65q25 9 70 18t93 9q63 0 107.5 -21.5t61.5 -58.5zM750 301 q8 35 8 65q1 54 -24 81.5t-85 27.5q-66 0 -113.5 -39t-69.5 -135h284z" />
<glyph unicode="&#xe7;" horiz-adv-x="462" d="M237 -10l-22 -55q13 5 22.5 6t20.5 1q32 0 52.5 -19t20.5 -60q0 -34 -11.5 -57t-31 -37.5t-44.5 -20.5t-52 -6q-28 0 -49 4t-36 9q-11 4 -11 10q0 3 1 8.5t4 14.5q5 14 8 16t6 2q7 0 23 -5.5t49 -5.5q38 0 58.5 14t20.5 46q0 21 -11.5 30t-34.5 9q-15 0 -30.5 -4.5 t-19.5 -4.5q-3 0 -5.5 1.5t-7.5 6.5q-6 6 -6 10t2 10t7 17l26 66q-80 15 -118.5 69t-38.5 134q0 70 20.5 131.5t59.5 107t95 72t127 26.5q34 0 69 -6t50 -14l-18 -62q-20 7 -47 12.5t-59 5.5q-51 0 -91 -19.5t-68.5 -54.5t-43.5 -83.5t-15 -106.5q0 -71 35.5 -111.5 t113.5 -40.5q42 0 72 6t39 6q8 0 10 -3.5t2 -10.5q0 -5 -1 -14.5t-3 -18.5q-2 -7 -6 -10.5t-15 -6.5q-20 -6 -48.5 -10t-57.5 -4h-12z" />
<glyph unicode="&#xe8;" horiz-adv-x="529" d="M407 301q8 35 8 65q1 54 -24 81.5t-85 27.5q-66 0 -113.5 -39t-69.5 -135h284zM381 5q-21 -5 -57.5 -10t-75.5 -5q-46 0 -86 11t-69.5 35t-46.5 62t-17 92q0 22 3.5 55.5t14 71t29.5 76t49 69.5q34 35 78 54.5t109 19.5q181 0 180 -168q0 -32 -6.5 -63.5t-15.5 -65.5 h-358q-3 -17 -3.5 -30t-0.5 -23q0 -39 11 -64.5t31 -40t49.5 -20.5t67.5 -6q27 0 55.5 3.5t49.5 7.5q15 3 22 3q9 0 9 -11q0 -6 -0.5 -15t-2.5 -17q-2 -11 -5 -14.5t-14 -6.5zM451 656q9 -6 9 -12q0 -9 -11 -24q-8 -11 -12 -14t-8 -3q-5 0 -18 7l-184 99l47 69z" />
<glyph unicode="&#xe9;" horiz-adv-x="529" d="M407 301q8 35 8 65q1 54 -24 81.5t-85 27.5q-66 0 -113.5 -39t-69.5 -135h284zM381 5q-21 -5 -57.5 -10t-75.5 -5q-46 0 -86 11t-69.5 35t-46.5 62t-17 92q0 22 3.5 55.5t14 71t29.5 76t49 69.5q34 35 78 54.5t109 19.5q181 0 180 -168q0 -32 -6.5 -63.5t-15.5 -65.5 h-358q-3 -17 -3.5 -30t-0.5 -23q0 -39 11 -64.5t31 -40t49.5 -20.5t67.5 -6q27 0 55.5 3.5t49.5 7.5q15 3 22 3q9 0 9 -11q0 -6 -0.5 -15t-2.5 -17q-2 -11 -5 -14.5t-14 -6.5zM457 778l37 -71l-221 -98l-10 -4t-9 -2q-3 0 -7.5 3t-9.5 14q-5 10 -5.5 14.5t-0.5 6.5 q0 6 3.5 9.5t8.5 6.5z" />
<glyph unicode="&#xea;" horiz-adv-x="529" d="M407 301q8 35 8 65q1 54 -24 81.5t-85 27.5q-66 0 -113.5 -39t-69.5 -135h284zM381 5q-21 -5 -57.5 -10t-75.5 -5q-46 0 -86 11t-69.5 35t-46.5 62t-17 92q0 22 3.5 55.5t14 71t29.5 76t49 69.5q34 35 78 54.5t109 19.5q181 0 180 -168q0 -32 -6.5 -63.5t-15.5 -65.5 h-358q-3 -17 -3.5 -30t-0.5 -23q0 -39 11 -64.5t31 -40t49.5 -20.5t67.5 -6q27 0 55.5 3.5t49.5 7.5q15 3 22 3q9 0 9 -11q0 -6 -0.5 -15t-2.5 -17q-2 -11 -5 -14.5t-14 -6.5zM337 706l-111 -90q-20 -15 -29 -15q-5 0 -9.5 4t-8.5 9q-6 8 -8 13t-2 7q0 5 8 13l142 132 q5 5 7 5.5t7 0.5h40q4 0 6.5 -0.5t5.5 -5.5l90 -126q7 -10 8.5 -13t1.5 -6t-2.5 -7t-11.5 -12q-13 -12 -21 -12q-4 0 -7.5 2t-11.5 10l-82 91h-12z" />
<glyph unicode="&#xeb;" horiz-adv-x="529" d="M407 301q8 35 8 65q1 54 -24 81.5t-85 27.5q-66 0 -113.5 -39t-69.5 -135h284zM381 5q-21 -5 -57.5 -10t-75.5 -5q-46 0 -86 11t-69.5 35t-46.5 62t-17 92q0 22 3.5 55.5t14 71t29.5 76t49 69.5q34 35 78 54.5t109 19.5q181 0 180 -168q0 -32 -6.5 -63.5t-15.5 -65.5 h-358q-3 -17 -3.5 -30t-0.5 -23q0 -39 11 -64.5t31 -40t49.5 -20.5t67.5 -6q27 0 55.5 3.5t49.5 7.5q15 3 22 3q9 0 9 -11q0 -6 -0.5 -15t-2.5 -17q-2 -11 -5 -14.5t-14 -6.5zM227 620q-23 0 -34.5 12t-11.5 32q0 25 18 46.5t50 21.5q23 0 34 -12t11 -32q0 -26 -18 -47 t-49 -21zM427 620q-23 0 -34.5 12t-11.5 32q0 25 18 46.5t50 21.5q23 0 34 -12t11 -32q0 -26 -18 -47t-49 -21z" />
<glyph unicode="&#xec;" horiz-adv-x="222" d="M95 31q-2 -12 -4 -16.5t-5 -7.5q-4 -4 -12.5 -7t-22.5 -3q-23 0 -29 7t-6 13q0 3 1 10t3 15l86 484h77zM230 656q9 -6 9 -12q0 -9 -11 -24q-8 -11 -12 -14t-8 -3q-5 0 -18 7l-184 99l47 69z" />
<glyph unicode="&#xed;" horiz-adv-x="222" d="M95 31q-2 -12 -4 -16.5t-5 -7.5q-4 -4 -12.5 -7t-22.5 -3q-23 0 -29 7t-6 13q0 3 1 10t3 15l86 484h77zM310 778l37 -71l-221 -98l-10 -4t-9 -2q-3 0 -7.5 3t-9.5 14q-5 10 -5.5 14.5t-0.5 6.5q0 6 3.5 9.5t8.5 6.5z" />
<glyph unicode="&#xee;" horiz-adv-x="222" d="M95 31q-2 -12 -4 -16.5t-5 -7.5q-4 -4 -12.5 -7t-22.5 -3q-23 0 -29 7t-6 13q0 3 1 10t3 15l86 484h77zM167 706l-111 -90q-20 -15 -29 -15q-5 0 -9.5 4t-8.5 9q-6 8 -8 13t-2 7q0 5 8 13l142 132q5 5 7 5.5t7 0.5h40q4 0 6.5 -0.5t5.5 -5.5l90 -126q7 -10 8.5 -13 t1.5 -6t-2.5 -7t-11.5 -12q-13 -12 -21 -12q-4 0 -7.5 2t-11.5 10l-82 91h-12z" />
<glyph unicode="&#xef;" horiz-adv-x="222" d="M95 31q-2 -12 -4 -16.5t-5 -7.5q-4 -4 -12.5 -7t-22.5 -3q-23 0 -29 7t-6 13q0 3 1 10t3 15l86 484h77zM59 620q-23 0 -34.5 12t-11.5 32q0 25 18 46.5t50 21.5q23 0 34 -12t11 -32q0 -26 -18 -47t-49 -21zM259 620q-23 0 -34.5 12t-11.5 32q0 25 18 46.5t50 21.5 q23 0 34 -12t11 -32q0 -26 -18 -47t-49 -21z" />
<glyph unicode="&#xf0;" horiz-adv-x="585" d="M434 485q-4 34 -14.5 62.5t-24 51t-28 38.5t-25.5 26l-103 -62q-15 -9 -22 -9q-3 0 -8 3.5t-11 14.5q-5 10 -6.5 14.5t-1.5 6.5q0 4 6.5 8.5t14.5 9.5l87 53q-20 19 -37 28t-30 17l37 53q22 -10 50 -26.5t53 -35.5l92 57l30 -48l-80 -49q48 -51 81 -129.5t33 -186.5 q0 -111 -27.5 -186t-70.5 -121t-95.5 -65.5t-102.5 -19.5q-96 0 -149 56t-53 161q0 72 21.5 132.5t60 104t90.5 68t114 24.5q26 0 45.5 -5.5t34 -13.5t24 -16.5t15.5 -15.5zM108 209q0 -32 6.5 -61t22.5 -50.5t42 -34t64 -12.5q46 0 83 22t63 61t39.5 92t13.5 115 q0 28 -8 52.5t-24 42.5t-39.5 28t-55.5 10q-34 0 -70.5 -13.5t-67 -45t-50 -82t-19.5 -124.5z" />
<glyph unicode="&#xf1;" horiz-adv-x="564" d="M422 324q8 46 8 63q0 26 -6.5 42.5t-18.5 25.5t-28 12.5t-35 3.5t-42 -5t-47 -13.5t-48.5 -20t-46.5 -23.5l-67 -378q-2 -12 -4 -16.5t-5 -7.5q-4 -4 -12.5 -7t-22.5 -3q-23 0 -29 7t-6 13q0 3 1 10t3 15l86 484h69l-7 -56q54 28 102.5 47t96.5 19q67 0 106 -33.5 t39 -107.5q0 -10 -1.5 -24.5t-5.5 -35.5l-54 -304q-2 -12 -4 -16.5t-5 -7.5q-4 -4 -12.5 -7t-22.5 -3q-23 0 -29 7t-6 13q0 3 1 10t3 15zM174 623q-13 9 -13 17q0 5 8 17q27 41 55.5 62.5t58.5 21.5q24 0 43.5 -10t35.5 -22t30.5 -22t29.5 -10q20 0 37.5 17t35.5 41l39 -29 q-23 -38 -53 -66t-68 -28q-23 0 -40.5 10t-32.5 22t-30.5 22t-33.5 10q-13 0 -28 -10.5t-33 -34.5q-9 -12 -12 -15t-7 -3q-3 0 -8 2t-14 8z" />
<glyph unicode="&#xf2;" horiz-adv-x="580" d="M312 475q-46 0 -83.5 -21t-64.5 -58.5t-41.5 -88t-14.5 -109.5q0 -66 34 -106.5t97 -40.5q46 0 84 21t64.5 58.5t41 88t14.5 109.5q0 68 -34 107.5t-97 39.5zM323 536q48 0 85 -15t62.5 -42t38.5 -64t13 -81q0 -91 -26.5 -157.5t-77.5 -113.5q-36 -34 -81 -53.5 t-109 -19.5q-46 0 -83 14.5t-62.5 41t-39.5 64t-14 82.5q0 85 24 148.5t68 111.5q38 41 88.5 62.5t113.5 21.5zM448 656q9 -6 9 -12q0 -9 -11 -24q-8 -11 -12 -14t-8 -3q-5 0 -18 7l-184 99l47 69z" />
<glyph unicode="&#xf3;" horiz-adv-x="580" d="M312 475q-46 0 -83.5 -21t-64.5 -58.5t-41.5 -88t-14.5 -109.5q0 -66 34 -106.5t97 -40.5q46 0 84 21t64.5 58.5t41 88t14.5 109.5q0 68 -34 107.5t-97 39.5zM323 536q48 0 85 -15t62.5 -42t38.5 -64t13 -81q0 -91 -26.5 -157.5t-77.5 -113.5q-36 -34 -81 -53.5 t-109 -19.5q-46 0 -83 14.5t-62.5 41t-39.5 64t-14 82.5q0 85 24 148.5t68 111.5q38 41 88.5 62.5t113.5 21.5zM449 778l37 -71l-221 -98l-10 -4t-9 -2q-3 0 -7.5 3t-9.5 14q-5 10 -5.5 14.5t-0.5 6.5q0 6 3.5 9.5t8.5 6.5z" />
<glyph unicode="&#xf4;" horiz-adv-x="580" d="M312 475q-46 0 -83.5 -21t-64.5 -58.5t-41.5 -88t-14.5 -109.5q0 -66 34 -106.5t97 -40.5q46 0 84 21t64.5 58.5t41 88t14.5 109.5q0 68 -34 107.5t-97 39.5zM323 536q48 0 85 -15t62.5 -42t38.5 -64t13 -81q0 -91 -26.5 -157.5t-77.5 -113.5q-36 -34 -81 -53.5 t-109 -19.5q-46 0 -83 14.5t-62.5 41t-39.5 64t-14 82.5q0 85 24 148.5t68 111.5q38 41 88.5 62.5t113.5 21.5zM345 706l-111 -90q-20 -15 -29 -15q-5 0 -9.5 4t-8.5 9q-6 8 -8 13t-2 7q0 5 8 13l142 132q5 5 7 5.5t7 0.5h40q4 0 6.5 -0.5t5.5 -5.5l90 -126q7 -10 8.5 -13 t1.5 -6t-2.5 -7t-11.5 -12q-13 -12 -21 -12q-4 0 -7.5 2t-11.5 10l-82 91h-12z" />
<glyph unicode="&#xf5;" horiz-adv-x="588" d="M312 475q-46 0 -83.5 -21t-64.5 -58.5t-41.5 -88t-14.5 -109.5q0 -66 34 -106.5t97 -40.5q46 0 84 21t64.5 58.5t41 88t14.5 109.5q0 68 -34 107.5t-97 39.5zM323 536q48 0 85 -15t62.5 -42t38.5 -64t13 -81q0 -91 -26.5 -157.5t-77.5 -113.5q-36 -34 -81 -53.5 t-109 -19.5q-46 0 -83 14.5t-62.5 41t-39.5 64t-14 82.5q0 85 24 148.5t68 111.5q38 41 88.5 62.5t113.5 21.5zM170 623q-13 9 -13 17q0 5 8 17q27 41 55.5 62.5t58.5 21.5q24 0 43.5 -10t35.5 -22t30.5 -22t29.5 -10q20 0 37.5 17t35.5 41l39 -29q-23 -38 -53 -66t-68 -28 q-23 0 -40.5 10t-32.5 22t-30.5 22t-33.5 10q-13 0 -28 -10.5t-33 -34.5q-9 -12 -12 -15t-7 -3q-3 0 -8 2t-14 8z" />
<glyph unicode="&#xf6;" horiz-adv-x="580" d="M312 475q-46 0 -83.5 -21t-64.5 -58.5t-41.5 -88t-14.5 -109.5q0 -66 34 -106.5t97 -40.5q46 0 84 21t64.5 58.5t41 88t14.5 109.5q0 68 -34 107.5t-97 39.5zM323 536q48 0 85 -15t62.5 -42t38.5 -64t13 -81q0 -91 -26.5 -157.5t-77.5 -113.5q-36 -34 -81 -53.5 t-109 -19.5q-46 0 -83 14.5t-62.5 41t-39.5 64t-14 82.5q0 85 24 148.5t68 111.5q38 41 88.5 62.5t113.5 21.5zM232 620q-23 0 -34.5 12t-11.5 32q0 25 18 46.5t50 21.5q23 0 34 -12t11 -32q0 -26 -18 -47t-49 -21zM432 620q-23 0 -34.5 12t-11.5 32q0 25 18 46.5t50 21.5 q23 0 34 -12t11 -32q0 -26 -18 -47t-49 -21z" />
<glyph unicode="&#xf7;" horiz-adv-x="517" d="M478 293l-12 -67h-365q-7 0 -10.5 2.5t-3.5 12.5q0 3 0.5 9t1.5 11q4 22 10.5 27t13.5 5h365zM261 138q38 0 38 -33q0 -32 -15 -48q-12 -14 -38 -14q-21 0 -30 9t-9 26q0 14 3.5 26.5t11.5 20.5q7 6 16 9.5t23 3.5zM318 477q38 0 38 -33q0 -32 -15 -48q-12 -14 -38 -14 q-21 0 -30 9t-9 26q0 14 3.5 26.5t11.5 20.5q7 6 16 9.5t23 3.5z" />
<glyph unicode="&#xf8;" horiz-adv-x="572" d="M319 536q73 0 123 -36l64 74l40 -34l-66 -76q38 -51 38 -130q0 -91 -26.5 -157.5t-77.5 -113.5q-36 -34 -81 -53.5t-109 -19.5q-37 0 -68 9.5t-56 26.5l-54 -63q-8 -9 -13 -9q-11 0 -23 11q-9 8 -11 12.5t-2 6.5q0 5 3.5 9.5t10.5 12.5l50 58q-19 25 -27.5 57.5 t-8.5 70.5q0 85 24 148.5t68 111.5q38 41 88.5 62.5t113.5 21.5zM439 328q0 21 -2.5 39.5t-10.5 34.5l-278 -321q33 -30 87 -30q46 0 84 21t64.5 58.5t41 88t14.5 109.5zM308 475q-46 0 -83.5 -21t-64.5 -58.5t-41.5 -88t-14.5 -109.5q0 -20 2 -38.5t9 -33.5l279 320 q-17 14 -38.5 21.5t-47.5 7.5z" />
<glyph unicode="&#xf9;" horiz-adv-x="534" d="M176 -10q-66 0 -106 33.5t-40 97.5q0 14 2 30.5t5 34.5l60 340h77l-59 -332q-3 -17 -5 -33t-2 -27q0 -14 3.5 -28.5t13.5 -25.5t28 -18t47 -7q42 0 77.5 20.5t76.5 71.5l68 379h77l-63 -352q-11 -62 -13.5 -104t-2.5 -52q0 -14 -9 -17.5t-29 -3.5q-22 0 -28.5 6.5 t-6.5 26.5v42q-12 -13 -28 -27.5t-37 -26.5t-47 -20t-59 -8zM415 656q9 -6 9 -12q0 -9 -11 -24q-8 -11 -12 -14t-8 -3q-5 0 -18 7l-184 99l47 69z" />
<glyph unicode="&#xfa;" horiz-adv-x="534" d="M176 -10q-66 0 -106 33.5t-40 97.5q0 14 2 30.5t5 34.5l60 340h77l-59 -332q-3 -17 -5 -33t-2 -27q0 -14 3.5 -28.5t13.5 -25.5t28 -18t47 -7q42 0 77.5 20.5t76.5 71.5l68 379h77l-63 -352q-11 -62 -13.5 -104t-2.5 -52q0 -14 -9 -17.5t-29 -3.5q-22 0 -28.5 6.5 t-6.5 26.5v42q-12 -13 -28 -27.5t-37 -26.5t-47 -20t-59 -8zM424 778l37 -71l-221 -98l-10 -4t-9 -2q-3 0 -7.5 3t-9.5 14q-5 10 -5.5 14.5t-0.5 6.5q0 6 3.5 9.5t8.5 6.5z" />
<glyph unicode="&#xfb;" horiz-adv-x="534" d="M176 -10q-66 0 -106 33.5t-40 97.5q0 14 2 30.5t5 34.5l60 340h77l-59 -332q-3 -17 -5 -33t-2 -27q0 -14 3.5 -28.5t13.5 -25.5t28 -18t47 -7q42 0 77.5 20.5t76.5 71.5l68 379h77l-63 -352q-11 -62 -13.5 -104t-2.5 -52q0 -14 -9 -17.5t-29 -3.5q-22 0 -28.5 6.5 t-6.5 26.5v42q-12 -13 -28 -27.5t-37 -26.5t-47 -20t-59 -8zM326 706l-111 -90q-20 -15 -29 -15q-5 0 -9.5 4t-8.5 9q-6 8 -8 13t-2 7q0 5 8 13l142 132q5 5 7 5.5t7 0.5h40q4 0 6.5 -0.5t5.5 -5.5l90 -126q7 -10 8.5 -13t1.5 -6t-2.5 -7t-11.5 -12q-13 -12 -21 -12 q-4 0 -7.5 2t-11.5 10l-82 91h-12z" />
<glyph unicode="&#xfc;" horiz-adv-x="534" d="M176 -10q-66 0 -106 33.5t-40 97.5q0 14 2 30.5t5 34.5l60 340h77l-59 -332q-3 -17 -5 -33t-2 -27q0 -14 3.5 -28.5t13.5 -25.5t28 -18t47 -7q42 0 77.5 20.5t76.5 71.5l68 379h77l-63 -352q-11 -62 -13.5 -104t-2.5 -52q0 -14 -9 -17.5t-29 -3.5q-22 0 -28.5 6.5 t-6.5 26.5v42q-12 -13 -28 -27.5t-37 -26.5t-47 -20t-59 -8zM214 620q-23 0 -34.5 12t-11.5 32q0 25 18 46.5t50 21.5q23 0 34 -12t11 -32q0 -26 -18 -47t-49 -21zM414 620q-23 0 -34.5 12t-11.5 32q0 25 18 46.5t50 21.5q23 0 34 -12t11 -32q0 -26 -18 -47t-49 -21z" />
<glyph unicode="&#xfd;" horiz-adv-x="502" d="M514 526q-42 -86 -82.5 -170t-83 -172t-90 -184t-102.5 -207q-5 -9 -14 -16t-35 -7q-17 0 -23.5 4.5t-6.5 9.5q0 3 1 6.5t6 11.5q32 59 56 106.5t46 91.5h-26q-13 0 -17 5.5t-6 13.5q-20 115 -39.5 247t-33.5 260h79q3 -38 7.5 -77.5t10.5 -93t15.5 -125t23.5 -173.5h11 q24 52 52 110.5t57.5 119.5t58.5 122t56 117h79zM419 778l37 -71l-221 -98l-10 -4t-9 -2q-3 0 -7.5 3t-9.5 14q-5 10 -5.5 14.5t-0.5 6.5q0 6 3.5 9.5t8.5 6.5z" />
<glyph unicode="&#xfe;" horiz-adv-x="575" d="M141 734h76l-39 -219q26 10 53.5 15.5t71.5 5.5q104 0 159 -53.5t55 -144.5q0 -85 -24 -156.5t-75 -119.5q-37 -35 -84.5 -53.5t-106.5 -18.5q-35 0 -70.5 7.5t-65.5 22.5l-39 -216q-2 -12 -4 -16.5t-5 -7.5q-4 -4 -12.5 -7t-22.5 -3q-23 0 -29 7t-6 13q0 3 1 10t3 15z M101 79q20 -10 50.5 -18.5t65.5 -8.5q58 0 100 22.5t69 61t39.5 88.5t12.5 104q0 31 -9 57.5t-27 46t-45 31t-64 11.5q-44 0 -72 -6.5t-55 -16.5z" />
<glyph unicode="&#xff;" horiz-adv-x="502" d="M514 526q-42 -86 -82.5 -170t-83 -172t-90 -184t-102.5 -207q-5 -9 -14 -16t-35 -7q-17 0 -23.5 4.5t-6.5 9.5q0 3 1 6.5t6 11.5q32 59 56 106.5t46 91.5h-26q-13 0 -17 5.5t-6 13.5q-20 115 -39.5 247t-33.5 260h79q3 -38 7.5 -77.5t10.5 -93t15.5 -125t23.5 -173.5h11 q24 52 52 110.5t57.5 119.5t58.5 122t56 117h79zM194 620q-23 0 -34.5 12t-11.5 32q0 25 18 46.5t50 21.5q23 0 34 -12t11 -32q0 -26 -18 -47t-49 -21zM394 620q-23 0 -34.5 12t-11.5 32q0 25 18 46.5t50 21.5q23 0 34 -12t11 -32q0 -26 -18 -47t-49 -21z" />
<glyph unicode="&#x100;" horiz-adv-x="638" d="M426 689q14 0 17 -5.5t7 -29.5q21 -149 40.5 -295.5t42.5 -312.5q2 -14 2.5 -20.5t0.5 -10.5q0 -10 -10 -14t-26 -4q-26 0 -33 5.5t-9 19.5l-18 155h-302l-75 -155q-6 -12 -17 -18.5t-37 -6.5q-21 0 -25.5 4.5t-4.5 9.5q0 6 4 14.5t9 19.5q79 165 157.5 322t150.5 302 q6 12 11.5 16t18.5 4h96zM355 624q-46 -94 -93.5 -194t-90.5 -188h261q-5 42 -11.5 91t-13.5 99.5t-13.5 99.5t-12.5 92h-26zM532 872l-12 -66h-239q-7 0 -10.5 2.5t-3.5 12.5q0 3 0.5 8.5t1.5 10.5q4 22 10.5 27t13.5 5h239z" />
<glyph unicode="&#x101;" horiz-adv-x="545" d="M426 463q-26 8 -44.5 9.5t-33.5 1.5q-35 0 -77 -13.5t-78 -47.5t-60.5 -90.5t-24.5 -142.5q0 -58 28 -92.5t79 -34.5q42 0 81 27t69 67zM431 18q-1 -13 -8 -17t-28 -4q-26 0 -31.5 7t-5.5 33v35q-28 -31 -70.5 -55.5t-97.5 -24.5q-75 0 -118 50t-43 132t23 148.5t66 114 t104.5 73.5t138.5 26q47 0 88 -9.5t61 -17.5l-60 -316q-8 -43 -12.5 -90.5t-6.5 -84.5zM506 707l-11 -62h-238q-6 0 -10 3.5t-4 14.5q0 8 3 22q4 16 8 19t14 3h238z" />
<glyph unicode="&#x102;" horiz-adv-x="638" d="M426 689q14 0 17 -5.5t7 -29.5q21 -149 40.5 -295.5t42.5 -312.5q2 -14 2.5 -20.5t0.5 -10.5q0 -10 -10 -14t-26 -4q-26 0 -33 5.5t-9 19.5l-18 155h-302l-75 -155q-6 -12 -17 -18.5t-37 -6.5q-21 0 -25.5 4.5t-4.5 9.5q0 6 4 14.5t9 19.5q79 165 157.5 322t150.5 302 q6 12 11.5 16t18.5 4h96zM355 624q-46 -94 -93.5 -194t-90.5 -188h261q-5 42 -11.5 91t-13.5 99.5t-13.5 99.5t-12.5 92h-26zM390 782q-74 0 -107.5 37t-33.5 97q0 5 0.5 11t1.5 11h55q-2 -48 21.5 -67.5t63.5 -19.5q16 0 34.5 3.5t34.5 13.5t28.5 26.5t18.5 43.5h59 q-7 -44 -24 -73.5t-41 -48t-52.5 -26.5t-58.5 -8z" />
<glyph unicode="&#x103;" horiz-adv-x="545" d="M426 463q-26 8 -44.5 9.5t-33.5 1.5q-35 0 -77 -13.5t-78 -47.5t-60.5 -90.5t-24.5 -142.5q0 -58 28 -92.5t79 -34.5q42 0 81 27t69 67zM431 18q-1 -13 -8 -17t-28 -4q-26 0 -31.5 7t-5.5 33v35q-28 -31 -70.5 -55.5t-97.5 -24.5q-75 0 -118 50t-43 132t23 148.5t66 114 t104.5 73.5t138.5 26q47 0 88 -9.5t61 -17.5l-60 -316q-8 -43 -12.5 -90.5t-6.5 -84.5zM358 608q-74 0 -107.5 37t-33.5 97q0 5 0.5 11t1.5 11h52q-2 -48 20.5 -73t67.5 -25q19 0 37.5 5.5t35 17t28.5 30t18 45.5h56q-7 -44 -24 -73.5t-41 -48t-52.5 -26.5t-58.5 -8z" />
<glyph unicode="&#x104;" horiz-adv-x="638" d="M324 -134q0 52 37 91t97 65l-18 155h-302l-75 -155q-6 -12 -17 -18.5t-37 -6.5q-21 0 -25.5 4.5t-4.5 9.5q0 6 4 14.5t9 19.5q79 165 157.5 322t150.5 302q6 12 11.5 16t18.5 4h96q14 0 17 -5.5t7 -29.5q21 -149 40.5 -295.5t42.5 -312.5q3 -27 3 -29q0 -4 -2 -6t-12 -6 q-15 -6 -37.5 -15.5t-44 -24.5t-36.5 -36t-15 -51q0 -6 1.5 -13.5t7 -14t15.5 -11t28 -4.5q23 0 38 4.5t22 4.5q3 0 5.5 -1.5t4.5 -8.5t2.5 -14.5t0.5 -9.5q0 -7 -3 -10.5t-12 -6.5q-10 -3 -32 -7t-42 -4q-51 0 -76 22.5t-25 61.5zM355 624q-46 -94 -93.5 -194t-90.5 -188 h261q-5 42 -11.5 91t-13.5 99.5t-13.5 99.5t-12.5 92h-26z" />
<glyph unicode="&#x105;" horiz-adv-x="545" d="M426 463q-26 8 -44.5 9.5t-33.5 1.5q-35 0 -77 -13.5t-78 -47.5t-60.5 -90.5t-24.5 -142.5q0 -62 29.5 -94.5t80.5 -32.5q42 0 81 23.5t68 58.5zM363 17q-2 14 -2 25.5t1 22.5q-13 -13 -30.5 -26t-39.5 -23.5t-47 -17t-52 -6.5q-75 0 -119.5 48.5t-44.5 133.5t25.5 155 t73.5 119t106.5 68.5t126.5 19.5q47 0 88 -9.5t61 -17.5l-56 -316q-8 -43 -13.5 -90.5t-5.5 -84.5q0 -10 -4.5 -13.5t-13.5 -6.5q-20 -7 -40 -18.5t-36.5 -27t-26.5 -34.5t-10 -40q0 -6 1.5 -13.5t7 -14t15.5 -11t28 -4.5q23 0 38 4.5t22 4.5q3 0 5.5 -1.5t4.5 -8.5 t2.5 -14.5t0.5 -9.5q0 -7 -3 -10.5t-12 -6.5q-10 -3 -32 -7t-42 -4q-51 0 -76 22.5t-25 61.5q0 27 10.5 50t28 41.5t39.5 33.5t46 26z" />
<glyph unicode="&#x106;" horiz-adv-x="576" d="M313 -10q-74 0 -125 22t-83 59.5t-46.5 88t-14.5 107.5q0 93 27.5 172t79.5 137t126 90.5t166 32.5q51 0 91.5 -6.5t59.5 -14.5l-20 -62q-22 7 -55.5 12t-74.5 5q-75 0 -134 -27.5t-99.5 -75.5t-62 -113.5t-21.5 -140.5q0 -58 14 -99.5t39.5 -68t61 -39t79.5 -12.5 q38 0 70 5t55 10q12 2 19 4t12 2q11 0 11 -22q0 -5 -0.5 -13.5t-2.5 -16.5q-2 -7 -8.5 -10t-21.5 -7q-19 -5 -59 -12t-83 -7zM543 936l39 -76l-221 -99l-10 -4t-9 -2q-3 0 -7.5 3.5t-9.5 14.5q-8 17 -8 24q0 8 3.5 11.5t8.5 6.5z" />
<glyph unicode="&#x107;" horiz-adv-x="462" d="M249 -10q-56 0 -97.5 15t-68.5 42.5t-40.5 66t-13.5 85.5q0 70 20.5 131.5t59.5 107t95 72t127 26.5q34 0 69 -6t50 -14l-18 -62q-20 7 -47 12.5t-59 5.5q-51 0 -91 -19.5t-68.5 -54.5t-43.5 -83.5t-15 -106.5q0 -71 35.5 -111.5t113.5 -40.5q42 0 72 6t39 6q8 0 10 -3.5 t2 -10.5q0 -5 -1 -14.5t-3 -18.5q-2 -7 -6 -10.5t-15 -6.5q-20 -6 -48.5 -10t-57.5 -4zM474 778l37 -71l-221 -98l-10 -4t-9 -2q-3 0 -7.5 3t-9.5 14q-5 10 -5.5 14.5t-0.5 6.5q0 6 3.5 9.5t8.5 6.5z" />
<glyph unicode="&#x108;" horiz-adv-x="576" d="M313 -10q-74 0 -125 22t-83 59.5t-46.5 88t-14.5 107.5q0 93 27.5 172t79.5 137t126 90.5t166 32.5q51 0 91.5 -6.5t59.5 -14.5l-20 -62q-22 7 -55.5 12t-74.5 5q-75 0 -134 -27.5t-99.5 -75.5t-62 -113.5t-21.5 -140.5q0 -58 14 -99.5t39.5 -68t61 -39t79.5 -12.5 q38 0 70 5t55 10q12 2 19 4t12 2q11 0 11 -22q0 -5 -0.5 -13.5t-2.5 -16.5q-2 -7 -8.5 -10t-21.5 -7q-19 -5 -59 -12t-83 -7zM451 863l-113 -89q-20 -15 -28 -15q-5 0 -9.5 4t-8.5 9q-6 8 -8 13t-2 7q0 5 8 13l142 132q5 5 7 5.5t7 0.5h40q4 0 6.5 -0.5t5.5 -5.5l90 -126 q7 -10 8.5 -13t1.5 -6t-2.5 -7t-11.5 -12q-13 -12 -21 -12q-4 0 -7.5 2t-11.5 10l-84 90h-9z" />
<glyph unicode="&#x109;" horiz-adv-x="462" d="M249 -10q-56 0 -97.5 15t-68.5 42.5t-40.5 66t-13.5 85.5q0 70 20.5 131.5t59.5 107t95 72t127 26.5q34 0 69 -6t50 -14l-18 -62q-20 7 -47 12.5t-59 5.5q-51 0 -91 -19.5t-68.5 -54.5t-43.5 -83.5t-15 -106.5q0 -71 35.5 -111.5t113.5 -40.5q42 0 72 6t39 6q8 0 10 -3.5 t2 -10.5q0 -5 -1 -14.5t-3 -18.5q-2 -7 -6 -10.5t-15 -6.5q-20 -6 -48.5 -10t-57.5 -4zM357 706l-111 -90q-20 -15 -29 -15q-5 0 -9.5 4t-8.5 9q-6 8 -8 13t-2 7q0 5 8 13l142 132q5 5 7 5.5t7 0.5h40q4 0 6.5 -0.5t5.5 -5.5l90 -126q7 -10 8.5 -13t1.5 -6t-2.5 -7 t-11.5 -12q-13 -12 -21 -12q-4 0 -7.5 2t-11.5 10l-82 91h-12z" />
<glyph unicode="&#x10a;" horiz-adv-x="576" d="M313 -10q-74 0 -125 22t-83 59.5t-46.5 88t-14.5 107.5q0 93 27.5 172t79.5 137t126 90.5t166 32.5q51 0 91.5 -6.5t59.5 -14.5l-20 -62q-22 7 -55.5 12t-74.5 5q-75 0 -134 -27.5t-99.5 -75.5t-62 -113.5t-21.5 -140.5q0 -58 14 -99.5t39.5 -68t61 -39t79.5 -12.5 q38 0 70 5t55 10q12 2 19 4t12 2q11 0 11 -22q0 -5 -0.5 -13.5t-2.5 -16.5q-2 -7 -8.5 -10t-21.5 -7q-19 -5 -59 -12t-83 -7zM451 790q-28 0 -42 15.5t-14 38.5q0 32 20.5 57t58.5 25q28 0 42 -15.5t14 -39.5q0 -31 -21 -56t-58 -25z" />
<glyph unicode="&#x10b;" horiz-adv-x="462" d="M249 -10q-56 0 -97.5 15t-68.5 42.5t-40.5 66t-13.5 85.5q0 70 20.5 131.5t59.5 107t95 72t127 26.5q34 0 69 -6t50 -14l-18 -62q-20 7 -47 12.5t-59 5.5q-51 0 -91 -19.5t-68.5 -54.5t-43.5 -83.5t-15 -106.5q0 -71 35.5 -111.5t113.5 -40.5q42 0 72 6t39 6q8 0 10 -3.5 t2 -10.5q0 -5 -1 -14.5t-3 -18.5q-2 -7 -6 -10.5t-15 -6.5q-20 -6 -48.5 -10t-57.5 -4zM346 616q-26 0 -39.5 14.5t-13.5 37.5q0 29 19.5 53t54.5 24q26 0 39.5 -14.5t13.5 -37.5q0 -29 -19.5 -53t-54.5 -24z" />
<glyph unicode="&#x10c;" horiz-adv-x="576" d="M313 -10q-74 0 -125 22t-83 59.5t-46.5 88t-14.5 107.5q0 93 27.5 172t79.5 137t126 90.5t166 32.5q51 0 91.5 -6.5t59.5 -14.5l-20 -62q-22 7 -55.5 12t-74.5 5q-75 0 -134 -27.5t-99.5 -75.5t-62 -113.5t-21.5 -140.5q0 -58 14 -99.5t39.5 -68t61 -39t79.5 -12.5 q38 0 70 5t55 10q12 2 19 4t12 2q11 0 11 -22q0 -5 -0.5 -13.5t-2.5 -16.5q-2 -7 -8.5 -10t-21.5 -7q-19 -5 -59 -12t-83 -7zM456 853l130 103l35 -39l-135 -129q-10 -10 -20 -14t-27 -4q-20 0 -26.5 5t-12.5 13l-94 130l42 38l96 -103h12z" />
<glyph unicode="&#x10d;" horiz-adv-x="462" d="M249 -10q-56 0 -97.5 15t-68.5 42.5t-40.5 66t-13.5 85.5q0 70 20.5 131.5t59.5 107t95 72t127 26.5q34 0 69 -6t50 -14l-18 -62q-20 7 -47 12.5t-59 5.5q-51 0 -91 -19.5t-68.5 -54.5t-43.5 -83.5t-15 -106.5q0 -71 35.5 -111.5t113.5 -40.5q42 0 72 6t39 6q8 0 10 -3.5 t2 -10.5q0 -5 -1 -14.5t-3 -18.5q-2 -7 -6 -10.5t-15 -6.5q-20 -6 -48.5 -10t-57.5 -4zM357 676l130 106l32 -37l-135 -128q-11 -10 -20.5 -13.5t-26.5 -3.5q-19 0 -26 4.5t-13 12.5l-92 128l43 37l90 -106h18z" />
<glyph unicode="&#x10e;" horiz-adv-x="673" d="M38 0q-9 0 -17.5 3.5t-8.5 14.5q0 3 1 11t3 16l114 644h193q32 0 63.5 -1.5t61 -7t56.5 -17t50 -31.5q35 -30 55 -79t20 -115q0 -50 -9 -100t-26.5 -96t-43 -85.5t-57.5 -69.5q-23 -21 -51.5 -37t-64 -27.5t-80 -17t-99.5 -5.5h-160zM99 68h108q32 0 63 2t60.5 9.5 t56.5 21.5t52 39t45 59t33.5 72.5t21 80.5t7.5 84q0 57 -14 90t-37 56q-27 26 -63.5 33t-87.5 7h-147zM380 853l130 103l35 -39l-135 -129q-10 -10 -20 -14t-27 -4q-20 0 -26.5 5t-12.5 13l-94 130l42 38l96 -103h12z" />
<glyph unicode="&#x10f;" horiz-adv-x="656" d="M493 734h77l-121 -685q-2 -10 -5.5 -13.5t-20.5 -10.5q-11 -5 -30.5 -11t-44 -11t-53 -9t-56.5 -4q-47 0 -85.5 13.5t-66.5 39.5t-43 64.5t-15 89.5q0 72 21 133.5t59.5 107.5t94 72t124.5 26q33 0 65 -8t60 -22zM443 448q-19 10 -49 18t-65 8q-47 0 -87 -20t-70 -56 t-47 -86t-17 -110q0 -33 8 -60.5t25 -47.5t44 -31t65 -11q44 0 76 7.5t51 14.5zM671 548q-6 -17 -12 -22t-27 -5q-27 0 -27 14q0 3 1 7l51 192h79z" />
<glyph unicode="&#x110;" horiz-adv-x="760" d="M125 0q-9 0 -17.5 3.5t-8.5 14.5q0 3 1 11t3 16l50 283h-92q-7 0 -10.5 2.5t-3.5 12.5q0 3 0.5 8.5t1.5 10.5q4 22 10.5 27t13.5 5h91l53 295h193q32 0 63.5 -1.5t61 -7t56.5 -17t50 -31.5q35 -30 55 -79t20 -115q0 -50 -9 -100t-26.5 -96t-43 -85.5t-57.5 -69.5 q-23 -21 -51.5 -37t-64 -27.5t-80 -17t-99.5 -5.5h-160zM243 394h196l-12 -66h-195l-46 -260h108q32 0 63 2t60.5 9.5t56.5 21.5t52 39t45 59t33.5 72.5t21 80.5t7.5 84q0 57 -14 90t-37 56q-27 26 -63.5 33t-87.5 7h-147z" />
<glyph unicode="&#x111;" horiz-adv-x="574" d="M469 598h-147q-6 0 -10 3.5t-4 14.5q0 8 3 22q4 16 8 19t14 3h147l13 74h77l-13 -74h93l-11 -62h-93l-97 -549q-2 -10 -5.5 -13.5t-20.5 -10.5q-11 -5 -30.5 -11t-44 -11t-53 -9t-56.5 -4q-47 0 -85.5 13.5t-66.5 39.5t-43 64.5t-15 89.5q0 72 21 133.5t59.5 107.5t94 72 t124.5 26q33 0 65 -8t60 -22zM443 448q-19 10 -49 18t-65 8q-47 0 -87 -20t-70 -56t-47 -86t-17 -110q0 -33 8 -60.5t25 -47.5t44 -31t65 -11q44 0 76 7.5t51 14.5z" />
<glyph unicode="&#x112;" horiz-adv-x="553" d="M125 661q4 28 35 28h397l-12 -66h-348l-40 -230h300l-12 -66h-300l-46 -260h354l-12 -67h-403q-9 0 -17.5 3.5t-8.5 14.5q0 5 1 12t3 15zM499 872l-12 -66h-239q-7 0 -10.5 2.5t-3.5 12.5q0 3 0.5 8.5t1.5 10.5q4 22 10.5 27t13.5 5h239z" />
<glyph unicode="&#x113;" horiz-adv-x="529" d="M407 301q8 35 8 65q1 54 -24 81.5t-85 27.5q-66 0 -113.5 -39t-69.5 -135h284zM381 5q-21 -5 -57.5 -10t-75.5 -5q-46 0 -86 11t-69.5 35t-46.5 62t-17 92q0 22 3.5 55.5t14 71t29.5 76t49 69.5q34 35 78 54.5t109 19.5q181 0 180 -168q0 -32 -6.5 -63.5t-15.5 -65.5 h-358q-3 -17 -3.5 -30t-0.5 -23q0 -39 11 -64.5t31 -40t49.5 -20.5t67.5 -6q27 0 55.5 3.5t49.5 7.5q15 3 22 3q9 0 9 -11q0 -6 -0.5 -15t-2.5 -17q-2 -11 -5 -14.5t-14 -6.5zM469 707l-11 -62h-238q-6 0 -10 3.5t-4 14.5q0 8 3 22q4 16 8 19t14 3h238z" />
<glyph unicode="&#x114;" horiz-adv-x="553" d="M125 661q4 28 35 28h397l-12 -66h-348l-40 -230h300l-12 -66h-300l-46 -260h354l-12 -67h-403q-9 0 -17.5 3.5t-8.5 14.5q0 5 1 12t3 15zM358 782q-74 0 -107.5 37t-33.5 97q0 5 0.5 11t1.5 11h55q-2 -48 21.5 -67.5t63.5 -19.5q16 0 34.5 3.5t34.5 13.5t28.5 26.5 t18.5 43.5h59q-7 -44 -24 -73.5t-41 -48t-52.5 -26.5t-58.5 -8z" />
<glyph unicode="&#x115;" horiz-adv-x="529" d="M407 301q8 35 8 65q1 54 -24 81.5t-85 27.5q-66 0 -113.5 -39t-69.5 -135h284zM381 5q-21 -5 -57.5 -10t-75.5 -5q-46 0 -86 11t-69.5 35t-46.5 62t-17 92q0 22 3.5 55.5t14 71t29.5 76t49 69.5q34 35 78 54.5t109 19.5q181 0 180 -168q0 -32 -6.5 -63.5t-15.5 -65.5 h-358q-3 -17 -3.5 -30t-0.5 -23q0 -39 11 -64.5t31 -40t49.5 -20.5t67.5 -6q27 0 55.5 3.5t49.5 7.5q15 3 22 3q9 0 9 -11q0 -6 -0.5 -15t-2.5 -17q-2 -11 -5 -14.5t-14 -6.5zM325 608q-74 0 -107.5 37t-33.5 97q0 5 0.5 11t1.5 11h52q-2 -48 20.5 -73t67.5 -25 q19 0 37.5 5.5t35 17t28.5 30t18 45.5h56q-7 -44 -24 -73.5t-41 -48t-52.5 -26.5t-58.5 -8z" />
<glyph unicode="&#x116;" horiz-adv-x="553" d="M125 661q4 28 35 28h397l-12 -66h-348l-40 -230h300l-12 -66h-300l-46 -260h354l-12 -67h-403q-9 0 -17.5 3.5t-8.5 14.5q0 5 1 12t3 15zM360 790q-28 0 -42 15.5t-14 38.5q0 32 20.5 57t58.5 25q28 0 42 -15.5t14 -39.5q0 -31 -21 -56t-58 -25z" />
<glyph unicode="&#x117;" horiz-adv-x="529" d="M407 301q8 35 8 65q1 54 -24 81.5t-85 27.5q-66 0 -113.5 -39t-69.5 -135h284zM381 5q-21 -5 -57.5 -10t-75.5 -5q-46 0 -86 11t-69.5 35t-46.5 62t-17 92q0 22 3.5 55.5t14 71t29.5 76t49 69.5q34 35 78 54.5t109 19.5q181 0 180 -168q0 -32 -6.5 -63.5t-15.5 -65.5 h-358q-3 -17 -3.5 -30t-0.5 -23q0 -39 11 -64.5t31 -40t49.5 -20.5t67.5 -6q27 0 55.5 3.5t49.5 7.5q15 3 22 3q9 0 9 -11q0 -6 -0.5 -15t-2.5 -17q-2 -11 -5 -14.5t-14 -6.5zM329 616q-26 0 -39.5 14.5t-13.5 37.5q0 29 19.5 53t54.5 24q26 0 39.5 -14.5t13.5 -37.5 q0 -29 -19.5 -53t-54.5 -24z" />
<glyph unicode="&#x118;" horiz-adv-x="553" d="M222 -134q0 45 28.5 80.5t70.5 53.5h-283q-9 0 -17.5 3.5t-8.5 14.5q0 5 1 12t3 15l109 616q4 28 35 28h397l-12 -66h-348l-40 -230h300l-12 -66h-300l-46 -260h354l-12 -67q-29 -1 -56.5 -10.5t-49.5 -26t-35 -38.5t-13 -47q0 -6 1.5 -13.5t7 -14t15.5 -11t28 -4.5 q23 0 38 4.5t22 4.5q3 0 5.5 -1.5t4.5 -8.5t2.5 -14.5t0.5 -9.5q0 -7 -3 -10.5t-12 -6.5q-10 -3 -32 -7t-42 -4q-51 0 -76 22.5t-25 61.5z" />
<glyph unicode="&#x119;" horiz-adv-x="529" d="M407 301q8 35 8 65q1 54 -24 81.5t-85 27.5q-66 0 -113.5 -39t-69.5 -135h284zM381 5q-28 -8 -54 -21t-45.5 -29.5t-31 -36t-11.5 -40.5q0 -6 1.5 -13.5t7 -14t15.5 -11t28 -4.5q23 0 38 4.5t22 4.5q3 0 5.5 -1.5t4.5 -8.5t2.5 -14.5t0.5 -9.5q0 -7 -3 -10.5t-12 -6.5 q-10 -3 -32 -7t-42 -4q-51 0 -76 22.5t-25 61.5q0 22 7 41.5t19 35.5t27.5 28.5t32.5 19.5q-6 -1 -8 -1h-4q-48 0 -88 11t-69 35t-45.5 62t-16.5 92q0 22 3.5 55.5t14 71t29.5 76t49 69.5q34 35 78 54.5t109 19.5q181 0 180 -168q0 -32 -6.5 -63.5t-15.5 -65.5h-358 q-3 -17 -3.5 -30t-0.5 -23q0 -39 11 -64.5t31 -40t49.5 -20.5t67.5 -6q27 0 55.5 3.5t49.5 7.5q15 3 22 3q9 0 9 -11q0 -6 -0.5 -15t-2.5 -17q-2 -11 -5 -14.5t-14 -6.5z" />
<glyph unicode="&#x11a;" horiz-adv-x="553" d="M125 661q4 28 35 28h397l-12 -66h-348l-40 -230h300l-12 -66h-300l-46 -260h354l-12 -67h-403q-9 0 -17.5 3.5t-8.5 14.5q0 5 1 12t3 15zM364 853l130 103l35 -39l-135 -129q-10 -10 -20 -14t-27 -4q-20 0 -26.5 5t-12.5 13l-94 130l42 38l96 -103h12z" />
<glyph unicode="&#x11b;" horiz-adv-x="529" d="M407 301q8 35 8 65q1 54 -24 81.5t-85 27.5q-66 0 -113.5 -39t-69.5 -135h284zM381 5q-21 -5 -57.5 -10t-75.5 -5q-46 0 -86 11t-69.5 35t-46.5 62t-17 92q0 22 3.5 55.5t14 71t29.5 76t49 69.5q34 35 78 54.5t109 19.5q181 0 180 -168q0 -32 -6.5 -63.5t-15.5 -65.5 h-358q-3 -17 -3.5 -30t-0.5 -23q0 -39 11 -64.5t31 -40t49.5 -20.5t67.5 -6q27 0 55.5 3.5t49.5 7.5q15 3 22 3q9 0 9 -11q0 -6 -0.5 -15t-2.5 -17q-2 -11 -5 -14.5t-14 -6.5zM337 676l130 106l32 -37l-135 -128q-11 -10 -20.5 -13.5t-26.5 -3.5q-19 0 -26 4.5t-13 12.5 l-92 128l43 37l90 -106h18z" />
<glyph unicode="&#x11c;" horiz-adv-x="672" d="M611 612q-45 11 -89 16.5t-86 5.5q-77 0 -134.5 -27.5t-96.5 -76t-58.5 -114t-19.5 -140.5q0 -51 10.5 -92t35.5 -69.5t67 -43.5t106 -15q13 0 30.5 1t35.5 2.5t35.5 4l31.5 4.5l41 230h-176l12 67h225q20 0 20 -14q0 -6 -1 -13.5t-3 -15.5l-48 -270q-4 -22 -8.5 -28 t-16.5 -10q-38 -11 -91 -17.5t-105 -6.5q-138 0 -211 69t-73 208q0 90 25 169t74.5 137.5t124.5 92t174 33.5q47 0 97 -5.5t88 -18.5zM470 863l-113 -89q-20 -15 -28 -15q-5 0 -9.5 4t-8.5 9q-6 8 -8 13t-2 7q0 5 8 13l142 132q5 5 7 5.5t7 0.5h40q4 0 6.5 -0.5t5.5 -5.5 l90 -126q7 -10 8.5 -13t1.5 -6t-2.5 -7t-11.5 -12q-13 -12 -21 -12q-4 0 -7.5 2t-11.5 10l-84 90h-9z" />
<glyph unicode="&#x11d;" horiz-adv-x="560" d="M440 463q-10 3 -31 7t-52 4q-57 0 -101.5 -23t-75 -62.5t-46.5 -92t-16 -111.5q0 -65 32.5 -96t86.5 -31q21 0 42 6t39.5 15t34 19.5t25.5 19.5zM368 54q-26 -22 -62.5 -40t-91.5 -18q-40 0 -72.5 13.5t-55 37.5t-35 57.5t-12.5 73.5q0 86 25 153t69.5 112.5t105.5 69 t132 23.5q37 0 75.5 -6.5t77.5 -20.5l-88 -497q-11 -61 -30 -108.5t-54 -78.5q-34 -29 -78.5 -42t-104.5 -13q-18 0 -36.5 1t-35.5 3.5t-31.5 5.5t-24.5 7q-8 3 -10 6t-2 9q0 5 2.5 15t4.5 17q4 12 8 15.5t9 3.5q4 0 9 -1.5t16 -3.5q16 -4 41 -7.5t52 -3.5q48 0 80 10 t53 30.5t33.5 53t21.5 77.5zM385 706l-111 -90q-20 -15 -29 -15q-5 0 -9.5 4t-8.5 9q-6 8 -8 13t-2 7q0 5 8 13l142 132q5 5 7 5.5t7 0.5h40q4 0 6.5 -0.5t5.5 -5.5l90 -126q7 -10 8.5 -13t1.5 -6t-2.5 -7t-11.5 -12q-13 -12 -21 -12q-4 0 -7.5 2t-11.5 10l-82 91h-12z" />
<glyph unicode="&#x11e;" horiz-adv-x="672" d="M611 612q-45 11 -89 16.5t-86 5.5q-77 0 -134.5 -27.5t-96.5 -76t-58.5 -114t-19.5 -140.5q0 -51 10.5 -92t35.5 -69.5t67 -43.5t106 -15q13 0 30.5 1t35.5 2.5t35.5 4l31.5 4.5l41 230h-176l12 67h225q20 0 20 -14q0 -6 -1 -13.5t-3 -15.5l-48 -270q-4 -22 -8.5 -28 t-16.5 -10q-38 -11 -91 -17.5t-105 -6.5q-138 0 -211 69t-73 208q0 90 25 169t74.5 137.5t124.5 92t174 33.5q47 0 97 -5.5t88 -18.5zM462 782q-74 0 -107.5 37t-33.5 97q0 5 0.5 11t1.5 11h55q-2 -48 21.5 -67.5t63.5 -19.5q16 0 34.5 3.5t34.5 13.5t28.5 26.5t18.5 43.5 h59q-7 -44 -24 -73.5t-41 -48t-52.5 -26.5t-58.5 -8z" />
<glyph unicode="&#x11f;" horiz-adv-x="560" d="M440 463q-10 3 -31 7t-52 4q-57 0 -101.5 -23t-75 -62.5t-46.5 -92t-16 -111.5q0 -65 32.5 -96t86.5 -31q21 0 42 6t39.5 15t34 19.5t25.5 19.5zM368 54q-26 -22 -62.5 -40t-91.5 -18q-40 0 -72.5 13.5t-55 37.5t-35 57.5t-12.5 73.5q0 86 25 153t69.5 112.5t105.5 69 t132 23.5q37 0 75.5 -6.5t77.5 -20.5l-88 -497q-11 -61 -30 -108.5t-54 -78.5q-34 -29 -78.5 -42t-104.5 -13q-18 0 -36.5 1t-35.5 3.5t-31.5 5.5t-24.5 7q-8 3 -10 6t-2 9q0 5 2.5 15t4.5 17q4 12 8 15.5t9 3.5q4 0 9 -1.5t16 -3.5q16 -4 41 -7.5t52 -3.5q48 0 80 10 t53 30.5t33.5 53t21.5 77.5zM371 608q-74 0 -107.5 37t-33.5 97q0 5 0.5 11t1.5 11h52q-2 -48 20.5 -73t67.5 -25q19 0 37.5 5.5t35 17t28.5 30t18 45.5h56q-7 -44 -24 -73.5t-41 -48t-52.5 -26.5t-58.5 -8z" />
<glyph unicode="&#x120;" horiz-adv-x="672" d="M611 612q-45 11 -89 16.5t-86 5.5q-77 0 -134.5 -27.5t-96.5 -76t-58.5 -114t-19.5 -140.5q0 -51 10.5 -92t35.5 -69.5t67 -43.5t106 -15q13 0 30.5 1t35.5 2.5t35.5 4l31.5 4.5l41 230h-176l12 67h225q20 0 20 -14q0 -6 -1 -13.5t-3 -15.5l-48 -270q-4 -22 -8.5 -28 t-16.5 -10q-38 -11 -91 -17.5t-105 -6.5q-138 0 -211 69t-73 208q0 90 25 169t74.5 137.5t124.5 92t174 33.5q47 0 97 -5.5t88 -18.5zM467 790q-28 0 -42 15.5t-14 38.5q0 32 20.5 57t58.5 25q28 0 42 -15.5t14 -39.5q0 -31 -21 -56t-58 -25z" />
<glyph unicode="&#x121;" horiz-adv-x="560" d="M440 463q-10 3 -31 7t-52 4q-57 0 -101.5 -23t-75 -62.5t-46.5 -92t-16 -111.5q0 -65 32.5 -96t86.5 -31q21 0 42 6t39.5 15t34 19.5t25.5 19.5zM368 54q-26 -22 -62.5 -40t-91.5 -18q-40 0 -72.5 13.5t-55 37.5t-35 57.5t-12.5 73.5q0 86 25 153t69.5 112.5t105.5 69 t132 23.5q37 0 75.5 -6.5t77.5 -20.5l-88 -497q-11 -61 -30 -108.5t-54 -78.5q-34 -29 -78.5 -42t-104.5 -13q-18 0 -36.5 1t-35.5 3.5t-31.5 5.5t-24.5 7q-8 3 -10 6t-2 9q0 5 2.5 15t4.5 17q4 12 8 15.5t9 3.5q4 0 9 -1.5t16 -3.5q16 -4 41 -7.5t52 -3.5q48 0 80 10 t53 30.5t33.5 53t21.5 77.5zM376 616q-26 0 -39.5 14.5t-13.5 37.5q0 29 19.5 53t54.5 24q26 0 39.5 -14.5t13.5 -37.5q0 -29 -19.5 -53t-54.5 -24z" />
<glyph unicode="&#x122;" horiz-adv-x="672" d="M611 612q-45 11 -89 16.5t-86 5.5q-77 0 -134.5 -27.5t-96.5 -76t-58.5 -114t-19.5 -140.5q0 -51 10.5 -92t35.5 -69.5t67 -43.5t106 -15q13 0 30.5 1t35.5 2.5t35.5 4l31.5 4.5l41 230h-176l12 67h225q20 0 20 -14q0 -6 -1 -13.5t-3 -15.5l-48 -270q-4 -22 -8.5 -28 t-16.5 -10q-38 -11 -91 -17.5t-105 -6.5q-138 0 -211 69t-73 208q0 90 25 169t74.5 137.5t124.5 92t174 33.5q47 0 97 -5.5t88 -18.5zM304 -257q-6 -17 -12 -22t-27 -5q-27 0 -27 14q0 3 1 7l51 192h79z" />
<glyph unicode="&#x123;" horiz-adv-x="560" d="M440 463q-10 3 -31 7t-52 4q-57 0 -101.5 -23t-75 -62.5t-46.5 -92t-16 -111.5q0 -65 32.5 -96t86.5 -31q21 0 42 6t39.5 15t34 19.5t25.5 19.5zM368 54q-26 -22 -62.5 -40t-91.5 -18q-40 0 -72.5 13.5t-55 37.5t-35 57.5t-12.5 73.5q0 86 25 153t69.5 112.5t105.5 69 t132 23.5q37 0 75.5 -6.5t77.5 -20.5l-88 -497q-11 -61 -30 -108.5t-54 -78.5q-34 -29 -78.5 -42t-104.5 -13q-18 0 -36.5 1t-35.5 3.5t-31.5 5.5t-24.5 7q-8 3 -10 6t-2 9q0 5 2.5 15t4.5 17q4 12 8 15.5t9 3.5q4 0 9 -1.5t16 -3.5q16 -4 41 -7.5t52 -3.5q48 0 80 10 t53 30.5t33.5 53t21.5 77.5zM406.009 780.984q6 16.999 12 21.999q5.99902 4.99902 26.998 4.99902q26.998 0 26.998 -13.999q0 -3 -1 -6.99902l-50.9971 -191.988h-78.9951z" />
<glyph unicode="&#x124;" horiz-adv-x="664" d="M578 689h79l-117 -662q-2 -12 -9 -22t-37 -10q-21 0 -28 5.5t-7 13.5q0 3 1 9t2 10l51 289h-371l-52 -295q-2 -12 -9 -22t-37 -10q-21 0 -28 5.5t-7 13.5q0 3 1 9t2 10l116 656h79l-53 -300h371zM410 863l-113 -89q-20 -15 -28 -15q-5 0 -9.5 4t-8.5 9q-6 8 -8 13t-2 7 q0 5 8 13l142 132q5 5 7 5.5t7 0.5h40q4 0 6.5 -0.5t5.5 -5.5l90 -126q7 -10 8.5 -13t1.5 -6t-2.5 -7t-11.5 -12q-13 -12 -21 -12q-4 0 -7.5 2t-11.5 10l-84 90h-9z" />
<glyph unicode="&#x125;" horiz-adv-x="565" d="M447 31q-2 -12 -4 -16.5t-5 -7.5q-4 -4 -12.5 -7t-22.5 -3q-23 0 -29 7t-6 13q0 3 1 10t3 15l50 282q2 13 5.5 33.5t3.5 31.5q0 25 -7 41t-19 25t-28 12.5t-35 3.5q-41 0 -90 -18.5t-94 -43.5l-67 -378q-2 -12 -4 -16.5t-5 -7.5q-4 -4 -12.5 -7t-22.5 -3q-23 0 -29 7 t-6 13q0 3 1 10t3 15l122 692h77l-47 -265q50 31 96.5 49t100.5 18q30 0 56.5 -8.5t46 -26t30.5 -44t11 -61.5q0 -13 -6 -49zM196 876l-111 -90q-20 -15 -29 -15q-5 0 -9.5 4t-8.5 9q-6 8 -8 13t-2 7q0 5 8 13l142 132q5 5 7 5.5t7 0.5h40q4 0 6.5 -0.5t5.5 -5.5l90 -126 q7 -10 8.5 -13t1.5 -6t-2.5 -7t-11.5 -12q-13 -12 -21 -12q-4 0 -7.5 2t-11.5 10l-82 91h-12z" />
<glyph unicode="&#x126;" horiz-adv-x="794" d="M171 576l20 113h79l-20 -113h371l20 113h79l-20 -113h96l-12 -66h-96l-85 -483q-2 -12 -9 -22t-37 -10q-21 0 -28 5.5t-7 13.5q0 3 1 9t2 10l51 289h-371l-52 -295q-2 -12 -9 -22t-37 -10q-21 0 -28 5.5t-7 13.5q0 3 1 9t2 10l84 477h-82q-7 0 -10.5 2.5t-3.5 12.5 q0 3 0.5 8.5t1.5 10.5q4 22 10.5 27t13.5 5h82zM609 510h-371l-21 -121h371z" />
<glyph unicode="&#x127;" horiz-adv-x="565" d="M447 31q-2 -12 -4 -16.5t-5 -7.5q-4 -4 -12.5 -7t-22.5 -3q-23 0 -29 7t-6 13q0 3 1 10t3 15l50 282q2 13 5.5 33.5t3.5 31.5q0 25 -7 41t-19 25t-28 12.5t-35 3.5q-41 0 -90 -18.5t-94 -43.5l-67 -378q-2 -12 -4 -16.5t-5 -7.5q-4 -4 -12.5 -7t-22.5 -3q-23 0 -29 7 t-6 13q0 3 1 10t3 15l98 556h-78q-6 0 -10 3.5t-4 14.5q0 8 3 22q4 16 8 19t14 3h78l13 74h77l-13 -74h162l-11 -62h-162l-23 -129q50 31 96.5 49t100.5 18q30 0 56.5 -8.5t46 -26t30.5 -44t11 -61.5q0 -13 -6 -49z" />
<glyph unicode="&#x128;" d="M97 27q-2 -12 -9 -22t-37 -10q-21 0 -28 5.5t-7 13.5q0 3 1 9t2 10l116 656h79zM18 778q-13 10 -13 18q0 5 8 17q28 42 57 64.5t60 22.5q25 0 45 -10t36.5 -22.5t31.5 -22.5t30 -10q21 0 38.5 17t36.5 42l40 -30q-24 -40 -55 -68t-69 -28q-24 0 -42 10t-33.5 22.5 t-31 22.5t-34.5 10q-14 0 -29 -10.5t-34 -35.5q-9 -13 -12 -16t-7 -3t-9 2t-14 8z" />
<glyph unicode="&#x129;" horiz-adv-x="222" d="M95 31q-2 -12 -4 -16.5t-5 -7.5q-4 -4 -12.5 -7t-22.5 -3q-23 0 -29 7t-6 13q0 3 1 10t3 15l86 484h77zM-6 623q-13 9 -13 17q0 5 8 17q27 41 55.5 62.5t58.5 21.5q24 0 43.5 -10t35.5 -22t30.5 -22t29.5 -10q20 0 37.5 17t35.5 41l39 -29q-23 -38 -53 -66t-68 -28 q-23 0 -40.5 10t-32.5 22t-30.5 22t-33.5 10q-13 0 -28 -10.5t-33 -34.5q-9 -12 -12 -15t-7 -3q-3 0 -8 2t-14 8z" />
<glyph unicode="&#x12a;" d="M97 27q-2 -12 -9 -22t-37 -10q-21 0 -28 5.5t-7 13.5q0 3 1 9t2 10l116 656h79zM332 872l-12 -66h-239q-7 0 -10.5 2.5t-3.5 12.5q0 3 0.5 8.5t1.5 10.5q4 22 10.5 27t13.5 5h239z" />
<glyph unicode="&#x12b;" horiz-adv-x="222" d="M95 31q-2 -12 -4 -16.5t-5 -7.5q-4 -4 -12.5 -7t-22.5 -3q-23 0 -29 7t-6 13q0 3 1 10t3 15l86 484h77zM299 707l-11 -62h-238q-6 0 -10 3.5t-4 14.5q0 8 3 22q4 16 8 19t14 3h238z" />
<glyph unicode="&#x12c;" d="M97 27q-2 -12 -9 -22t-37 -10q-21 0 -28 5.5t-7 13.5q0 3 1 9t2 10l116 656h79zM187 782q-74 0 -107.5 37t-33.5 97q0 5 0.5 11t1.5 11h55q-2 -48 21.5 -67.5t63.5 -19.5q16 0 34.5 3.5t34.5 13.5t28.5 26.5t18.5 43.5h59q-7 -44 -24 -73.5t-41 -48t-52.5 -26.5t-58.5 -8 z" />
<glyph unicode="&#x12d;" horiz-adv-x="222" d="M95 31q-2 -12 -4 -16.5t-5 -7.5q-4 -4 -12.5 -7t-22.5 -3q-23 0 -29 7t-6 13q0 3 1 10t3 15l86 484h77zM159 608q-74 0 -107.5 37t-33.5 97q0 5 0.5 11t1.5 11h52q-2 -48 20.5 -73t67.5 -25q19 0 37.5 5.5t35 17t28.5 30t18 45.5h56q-7 -44 -24 -73.5t-41 -48 t-52.5 -26.5t-58.5 -8z" />
<glyph unicode="&#x12e;" d="M15 9q1 5 2 12.5t2 11.5l116 656h79l-117 -662q-4 -22 -18 -27q-18 -6 -36 -18t-33 -28t-24.5 -35.5t-9.5 -40.5q0 -6 1.5 -13.5t7 -14t15.5 -11t28 -4.5q23 0 38 4.5t22 4.5q3 0 5.5 -1.5t4.5 -8.5t2.5 -14.5t0.5 -9.5q0 -7 -3 -10.5t-12 -6.5q-10 -3 -32 -7t-42 -4 q-51 0 -76 22.5t-25 61.5q0 31 10.5 54.5t26.5 40.5t34 28.5t33 19.5z" />
<glyph unicode="&#x12f;" horiz-adv-x="222" d="M82 4q-6 -4 -23 -14.5t-34.5 -27t-31 -38t-13.5 -46.5q0 -6 1.5 -13.5t7 -14t15.5 -11t28 -4.5q23 0 38 4.5t22 4.5q3 0 5.5 -1.5t4.5 -8.5t2.5 -14.5t0.5 -9.5q0 -7 -3 -10.5t-12 -6.5q-10 -3 -32 -7t-42 -4q-51 0 -76 22.5t-25 61.5q0 21 8 42.5t21.5 41t31.5 36 t39 28.5l5 28l86 484h77l-88 -495q-2 -12 -4.5 -17.5t-8.5 -9.5zM181 737q24 0 34.5 -10.5t10.5 -29.5q0 -18 -4.5 -33t-13.5 -25q-16 -16 -46 -16q-25 0 -35.5 10.5t-10.5 30.5q0 17 4.5 32.5t13.5 24.5q16 16 47 16z" />
<glyph unicode="&#x130;" d="M97 27q-2 -12 -9 -22t-37 -10q-21 0 -28 5.5t-7 13.5q0 3 1 9t2 10l116 656h79zM193 790q-28 0 -42 15.5t-14 38.5q0 32 20.5 57t58.5 25q28 0 42 -15.5t14 -39.5q0 -31 -21 -56t-58 -25z" />
<glyph unicode="&#x131;" horiz-adv-x="222" d="M95 31q-2 -12 -4 -16.5t-5 -7.5q-4 -4 -12.5 -7t-22.5 -3q-23 0 -29 7t-6 13q0 3 1 10t3 15l86 484h77z" />
<glyph unicode="&#x132;" horiz-adv-x="650" d="M97 27q-2 -12 -9 -22t-37 -10q-21 0 -28 5.5t-7 13.5q0 3 1 9t2 10l116 656h79zM643 689l-81 -460q-11 -62 -28.5 -109t-49.5 -77q-30 -28 -72.5 -40.5t-105.5 -12.5q-25 0 -51 3.5t-43 9.5q-10 3 -10 13q0 8 2 15.5t5 15.5q4 10 7.5 13t8.5 3t11.5 -1.5t16.5 -3.5 q34 -6 61 -6q38 0 66 10t48 29q22 20 34 54.5t22 87.5l80 456h79z" />
<glyph unicode="&#x133;" horiz-adv-x="460" d="M95 31q-2 -12 -4 -16.5t-5 -7.5q-4 -4 -12.5 -7t-22.5 -3q-23 0 -29 7t-6 13q0 3 1 10t3 15l86 484h77zM181 737q24 0 34.5 -10.5t10.5 -29.5q0 -18 -4.5 -33t-13.5 -25q-16 -16 -46 -16q-25 0 -35.5 10.5t-10.5 30.5q0 17 4.5 32.5t13.5 24.5q16 16 47 16zM326 -35 q-8 -51 -21 -89t-42 -63q-41 -36 -109 -36q-37 0 -62 9q-8 3 -10 6.5t-2 8.5q0 6 3 18t5 17q4 12 13 12q7 0 19.5 -3.5t33.5 -3.5q16 0 30 4.5t27 15.5q17 15 24 38.5t13 57.5l100 569h77zM423 737q24 0 34.5 -10.5t10.5 -29.5q0 -18 -4.5 -33t-13.5 -25q-16 -16 -46 -16 q-25 0 -35.5 10.5t-10.5 30.5q0 17 4.5 32.5t13.5 24.5q16 16 47 16z" />
<glyph unicode="&#x134;" horiz-adv-x="404" d="M421 689l-81 -460q-11 -62 -28.5 -109t-49.5 -77q-30 -28 -72.5 -40.5t-105.5 -12.5q-25 0 -51 3.5t-43 9.5q-10 3 -10 13q0 8 2 15.5t5 15.5q4 10 7.5 13t8.5 3t11.5 -1.5t16.5 -3.5q34 -6 61 -6q38 0 66 10t48 29q22 20 34 54.5t22 87.5l80 456h79zM404 863l-113 -89 q-20 -15 -28 -15q-5 0 -9.5 4t-8.5 9q-6 8 -8 13t-2 7q0 5 8 13l142 132q5 5 7 5.5t7 0.5h40q4 0 6.5 -0.5t5.5 -5.5l90 -126q7 -10 8.5 -13t1.5 -6t-2.5 -7t-11.5 -12q-13 -12 -21 -12q-4 0 -7.5 2t-11.5 10l-84 90h-9z" />
<glyph unicode="&#x135;" horiz-adv-x="210" d="M76 -35q-8 -51 -21 -89t-42 -63q-41 -36 -109 -36q-37 0 -62 9q-8 3 -10 6.5t-2 8.5q0 6 3 18t5 17q4 12 13 12q7 0 19.5 -3.5t33.5 -3.5q16 0 30 4.5t27 15.5q17 15 24 38.5t13 57.5l100 569h77zM157 706l-111 -90q-20 -15 -29 -15q-5 0 -9.5 4t-8.5 9q-6 8 -8 13t-2 7 q0 5 8 13l142 132q5 5 7 5.5t7 0.5h40q4 0 6.5 -0.5t5.5 -5.5l90 -126q7 -10 8.5 -13t1.5 -6t-2.5 -7t-11.5 -12q-13 -12 -21 -12q-4 0 -7.5 2t-11.5 10l-82 91h-12z" />
<glyph unicode="&#x136;" horiz-adv-x="585" d="M93 27q-2 -12 -9 -22t-37 -10q-21 0 -28 5.5t-7 13.5q0 3 1 9t2 10l116 656h79l-62 -351l372 351h97l-300 -288l192 -360q7 -14 9.5 -19.5t0.5 -10.5q-1 -6 -7 -10t-28 -4q-30 0 -39 6t-17 23l-170 327l-129 -122zM218 -257q-6 -17 -12 -22t-27 -5q-27 0 -27 14q0 3 1 7 l51 192h79z" />
<glyph unicode="&#x137;" horiz-adv-x="503" d="M99 31q-2 -12 -4 -16.5t-5 -7.5q-4 -4 -12.5 -7t-22.5 -3q-23 0 -29 7t-6 13q0 3 1 10t3 15l122 692h77l-80 -450l280 242h97l-237 -209l143 -286q5 -10 5 -15q0 -9 -12 -14t-30 -5q-25 0 -32.5 8t-17.5 28l-115 240l-97 -84zM180 -257q-6 -17 -12 -22t-27 -5 q-27 0 -27 14q0 3 1 7l51 192h79z" />
<glyph unicode="&#x138;" horiz-adv-x="506" d="M98 25q-1 -4 -3 -9t-6.5 -9t-13 -7t-22.5 -3q-26 0 -30 10t-2 18l88 501h77l-45 -257l292 257h90l-226 -198l138 -299q2 -4 2.5 -6.5t-0.5 -7.5q-3 -16 -40 -16q-25 0 -34 6.5t-18 27.5l-110 247l-109 -94z" />
<glyph unicode="&#x139;" horiz-adv-x="496" d="M130 689h79l-110 -622h309l-12 -67h-358q-9 0 -17.5 3.5t-8.5 14.5q0 3 1 11t3 16zM330 936l39 -76l-221 -99l-10 -4t-9 -2q-3 0 -7.5 3.5t-9.5 14.5q-8 17 -8 24q0 8 3.5 11.5t8.5 6.5z" />
<glyph unicode="&#x13a;" horiz-adv-x="268" d="M220 734l-105 -594q-2 -12 -4 -24.5t-2 -17.5q0 -17 7 -27q5 -8 18 -11t27 -3q9 0 18.5 1.5t13.5 1.5q8 0 8 -7q0 -16 -3 -37q-1 -11 -13 -15q-10 -3 -23.5 -4.5t-26.5 -1.5q-20 0 -38.5 4.5t-33 14.5t-23 26.5t-8.5 39.5q0 16 2.5 33.5t5.5 34.5l103 586h77zM339 958 l37 -71l-221 -98l-10 -4t-9 -2q-3 0 -7.5 3t-9.5 14q-5 10 -5.5 14.5t-0.5 6.5q0 6 3.5 9.5t8.5 6.5z" />
<glyph unicode="&#x13b;" horiz-adv-x="496" d="M130 689h79l-110 -622h309l-12 -67h-358q-9 0 -17.5 3.5t-8.5 14.5q0 3 1 11t3 16zM190 -257q-6 -17 -12 -22t-27 -5q-27 0 -27 14q0 3 1 7l51 192h79z" />
<glyph unicode="&#x13c;" horiz-adv-x="268" d="M220 734l-105 -594q-2 -12 -4 -24.5t-2 -17.5q0 -17 7 -27q5 -8 18 -11t27 -3q9 0 18.5 1.5t13.5 1.5q8 0 8 -7q0 -16 -3 -37q-1 -11 -13 -15q-10 -3 -23.5 -4.5t-26.5 -1.5q-20 0 -38.5 4.5t-33 14.5t-23 26.5t-8.5 39.5q0 16 2.5 33.5t5.5 34.5l103 586h77zM76 -257 q-6 -17 -12 -22t-27 -5q-27 0 -27 14q0 3 1 7l51 192h79z" />
<glyph unicode="&#x13d;" horiz-adv-x="496" d="M130 689h79l-110 -622h309l-12 -67h-358q-9 0 -17.5 3.5t-8.5 14.5q0 3 1 11t3 16zM348 503q-6 -17 -12 -22t-27 -5q-27 0 -27 14q0 3 1 7l51 192h79z" />
<glyph unicode="&#x13e;" horiz-adv-x="290" d="M220 734l-105 -594q-2 -12 -4 -24.5t-2 -17.5q0 -17 7 -27q5 -8 18 -11t27 -3q9 0 18.5 1.5t13.5 1.5q8 0 8 -7q0 -16 -3 -37q-1 -11 -13 -15q-10 -3 -23.5 -4.5t-26.5 -1.5q-20 0 -38.5 4.5t-33 14.5t-23 26.5t-8.5 39.5q0 16 2.5 33.5t5.5 34.5l103 586h77zM321 548 q-6 -17 -12 -22t-27 -5q-27 0 -27 14q0 3 1 7l51 192h79z" />
<glyph unicode="&#x13f;" horiz-adv-x="496" d="M130 689h79l-110 -622h309l-12 -67h-358q-9 0 -17.5 3.5t-8.5 14.5q0 3 1 11t3 16zM346 327q-26 0 -39.5 14.5t-13.5 37.5q0 29 19.5 53t54.5 24q26 0 39.5 -14.5t13.5 -37.5q0 -29 -19.5 -53t-54.5 -24z" />
<glyph unicode="&#x140;" horiz-adv-x="362" d="M220 734l-105 -594q-2 -12 -4 -24.5t-2 -17.5q0 -17 7 -27q5 -8 18 -11t27 -3q9 0 18.5 1.5t13.5 1.5q8 0 8 -7q0 -16 -3 -37q-1 -11 -13 -15q-10 -3 -23.5 -4.5t-26.5 -1.5q-20 0 -38.5 4.5t-33 14.5t-23 26.5t-8.5 39.5q0 16 2.5 33.5t5.5 34.5l103 586h77zM292 315 q-26 0 -39.5 14.5t-13.5 37.5q0 29 19.5 53t54.5 24q26 0 39.5 -14.5t13.5 -37.5q0 -29 -19.5 -53t-54.5 -24z" />
<glyph unicode="&#x141;" horiz-adv-x="545" d="M103 259l-81 -46q-8 -5 -14 -5q-4 0 -9 3.5t-13 18.5q-7 14 -7 23q0 6 3.5 9t8.5 6l126 69l62 352h79l-55 -309l140 78l27 -55l-181 -102l-41 -234h309l-12 -67h-358q-9 0 -17.5 3.5t-8.5 14.5q0 3 1 11t3 16z" />
<glyph unicode="&#x142;" horiz-adv-x="355" d="M278 734l-57 -324l131 76l27 -52l-171 -99l-1 -1l-34 -194q-2 -12 -4 -24.5t-2 -17.5q0 -17 7 -27q5 -8 18 -11t27 -3q9 0 18.5 1.5t13.5 1.5q8 0 8 -7q0 -16 -3 -37q-1 -11 -13 -15q-10 -3 -23.5 -4.5t-26.5 -1.5q-20 0 -38.5 4.5t-33 14.5t-23 26.5t-8.5 39.5 q0 16 2.5 33.5t5.5 34.5l25 144l-85 -49q-13 -8 -20 -8q-4 0 -8 4t-11 18q-5 9 -6 13.5t-1 7.5q0 8 13 16l132 76l64 364h77z" />
<glyph unicode="&#x143;" horiz-adv-x="669" d="M89 27q-2 -12 -9 -22t-36 -10q-18 0 -25 5t-7 13q0 3 1 9t2 11l116 656h98l251 -584l103 584h74l-115 -654q-5 -24 -16.5 -31t-36.5 -7q-14 0 -22.5 2t-15 7.5t-12 15t-11.5 24.5l-237 553zM528 936l39 -76l-221 -99l-10 -4t-9 -2q-3 0 -7.5 3.5t-9.5 14.5q-8 17 -8 24 q0 8 3.5 11.5t8.5 6.5z" />
<glyph unicode="&#x144;" horiz-adv-x="564" d="M422 324q8 46 8 63q0 26 -6.5 42.5t-18.5 25.5t-28 12.5t-35 3.5t-42 -5t-47 -13.5t-48.5 -20t-46.5 -23.5l-67 -378q-2 -12 -4 -16.5t-5 -7.5q-4 -4 -12.5 -7t-22.5 -3q-23 0 -29 7t-6 13q0 3 1 10t3 15l86 484h69l-7 -56q54 28 102.5 47t96.5 19q67 0 106 -33.5 t39 -107.5q0 -10 -1.5 -24.5t-5.5 -35.5l-54 -304q-2 -12 -4 -16.5t-5 -7.5q-4 -4 -12.5 -7t-22.5 -3q-23 0 -29 7t-6 13q0 3 1 10t3 15zM476 778l37 -71l-221 -98l-10 -4t-9 -2q-3 0 -7.5 3t-9.5 14q-5 10 -5.5 14.5t-0.5 6.5q0 6 3.5 9.5t8.5 6.5z" />
<glyph unicode="&#x145;" horiz-adv-x="669" d="M89 27q-2 -12 -9 -22t-36 -10q-18 0 -25 5t-7 13q0 3 1 9t2 11l116 656h98l251 -584l103 584h74l-115 -654q-5 -24 -16.5 -31t-36.5 -7q-14 0 -22.5 2t-15 7.5t-12 15t-11.5 24.5l-237 553zM263 -257q-6 -17 -12 -22t-27 -5q-27 0 -27 14q0 3 1 7l51 192h79z" />
<glyph unicode="&#x146;" horiz-adv-x="564" d="M422 324q8 46 8 63q0 26 -6.5 42.5t-18.5 25.5t-28 12.5t-35 3.5t-42 -5t-47 -13.5t-48.5 -20t-46.5 -23.5l-67 -378q-2 -12 -4 -16.5t-5 -7.5q-4 -4 -12.5 -7t-22.5 -3q-23 0 -29 7t-6 13q0 3 1 10t3 15l86 484h69l-7 -56q54 28 102.5 47t96.5 19q67 0 106 -33.5 t39 -107.5q0 -10 -1.5 -24.5t-5.5 -35.5l-54 -304q-2 -12 -4 -16.5t-5 -7.5q-4 -4 -12.5 -7t-22.5 -3q-23 0 -29 7t-6 13q0 3 1 10t3 15zM195 -257q-6 -17 -12 -22t-27 -5q-27 0 -27 14q0 3 1 7l51 192h79z" />
<glyph unicode="&#x147;" horiz-adv-x="669" d="M89 27q-2 -12 -9 -22t-36 -10q-18 0 -25 5t-7 13q0 3 1 9t2 11l116 656h98l251 -584l103 584h74l-115 -654q-5 -24 -16.5 -31t-36.5 -7q-14 0 -22.5 2t-15 7.5t-12 15t-11.5 24.5l-237 553zM421 853l130 103l35 -39l-135 -129q-10 -10 -20 -14t-27 -4q-20 0 -26.5 5 t-12.5 13l-94 130l42 38l96 -103h12z" />
<glyph unicode="&#x148;" horiz-adv-x="564" d="M422 324q8 46 8 63q0 26 -6.5 42.5t-18.5 25.5t-28 12.5t-35 3.5t-42 -5t-47 -13.5t-48.5 -20t-46.5 -23.5l-67 -378q-2 -12 -4 -16.5t-5 -7.5q-4 -4 -12.5 -7t-22.5 -3q-23 0 -29 7t-6 13q0 3 1 10t3 15l86 484h69l-7 -56q54 28 102.5 47t96.5 19q67 0 106 -33.5 t39 -107.5q0 -10 -1.5 -24.5t-5.5 -35.5l-54 -304q-2 -12 -4 -16.5t-5 -7.5q-4 -4 -12.5 -7t-22.5 -3q-23 0 -29 7t-6 13q0 3 1 10t3 15zM373 676l130 106l32 -37l-135 -128q-11 -10 -20.5 -13.5t-26.5 -3.5q-19 0 -26 4.5t-13 12.5l-92 128l43 37l90 -106h18z" />
<glyph unicode="&#x149;" horiz-adv-x="659" d="M517 324q8 46 8 63q0 26 -6.5 42.5t-18.5 25.5t-28 12.5t-35 3.5t-42 -5t-47 -13.5t-48.5 -20t-46.5 -23.5l-67 -378q-2 -12 -4 -16.5t-5 -7.5q-4 -4 -12.5 -7t-22.5 -3q-23 0 -29 7t-6 13q0 3 1 10t3 15l86 484h69l-7 -56q54 28 102.5 47t96.5 19q67 0 106 -33.5 t39 -107.5q0 -10 -1.5 -24.5t-5.5 -35.5l-54 -304q-2 -12 -4 -16.5t-5 -7.5q-4 -4 -12.5 -7t-22.5 -3q-23 0 -29 7t-6 13q0 3 1 10t3 15zM160 648q0 -19 -4.5 -39t-15 -42.5t-29 -49t-46.5 -57.5q-14 -15 -18 -17.5t-7 -2.5q-6 0 -15 5q-8 5 -10.5 9t-2.5 8q0 5 14 24 q7 9 15.5 21t16.5 24.5t13.5 24t5.5 19.5q0 9 -4.5 14t-10.5 10.5t-10.5 12.5t-4.5 21q0 32 19 49.5t47 17.5q24 0 35.5 -16t11.5 -36z" />
<glyph unicode="&#x14a;" horiz-adv-x="669" d="M192 607l-103 -580q-2 -12 -9 -22t-36 -10q-18 0 -25 5t-7 13q0 3 1 9t2 11l116 656h102l249 -566l101 566h74l-122 -693q-9 -53 -21.5 -90t-41.5 -62q-41 -36 -109 -36q-37 0 -62 9q-8 3 -10 6.5t-2 8.5q0 6 3 18t5 17q4 12 13 12q7 0 19.5 -3.5t33.5 -3.5q16 0 30 4.5 t27 15.5q16 14 23 35.5t11 43.5l5 29z" />
<glyph unicode="&#x14b;" horiz-adv-x="564" d="M422 324q8 46 8 63q0 26 -6.5 42.5t-18.5 25.5t-28 12.5t-35 3.5t-42 -5t-47 -13.5t-48.5 -20t-46.5 -23.5l-67 -378q-2 -12 -4 -16.5t-5 -7.5q-4 -4 -12.5 -7t-22.5 -3q-23 0 -29 7t-6 13q0 3 1 10t3 15l86 484h69l-7 -56q54 28 102.5 47t96.5 19q67 0 106 -33.5 t39 -107.5q0 -10 -1.5 -24.5t-5.5 -35.5l-56 -317q-9 -51 -21.5 -89t-41.5 -63q-41 -36 -109 -36q-37 0 -62 9q-8 3 -10 6.5t-2 8.5q0 6 3 18t5 17q4 12 13 12q7 0 19.5 -3.5t33.5 -3.5q16 0 30 4.5t27 15.5q17 15 24 38.5t13 57.5z" />
<glyph unicode="&#x14c;" horiz-adv-x="690" d="M394 631q-69 0 -120 -33.5t-84 -86t-49 -117.5t-16 -127q0 -47 10 -85.5t31.5 -66t54.5 -42.5t80 -15q72 0 122 33t81.5 85.5t46 117.5t14.5 128q0 46 -8.5 84.5t-29 66t-53 43t-80.5 15.5zM408 699q51 0 94.5 -15.5t75.5 -48.5t50 -84.5t18 -122.5q0 -78 -20.5 -156.5 t-64 -141t-110.5 -101.5t-161 -39q-59 0 -104.5 19.5t-77 55t-48 85.5t-16.5 111q0 84 23.5 163t69 140t113.5 98t158 37zM561 872l-12 -66h-239q-7 0 -10.5 2.5t-3.5 12.5q0 3 0.5 8.5t1.5 10.5q4 22 10.5 27t13.5 5h239z" />
<glyph unicode="&#x14d;" horiz-adv-x="580" d="M312 475q-46 0 -83.5 -21t-64.5 -58.5t-41.5 -88t-14.5 -109.5q0 -66 34 -106.5t97 -40.5q46 0 84 21t64.5 58.5t41 88t14.5 109.5q0 68 -34 107.5t-97 39.5zM323 536q48 0 85 -15t62.5 -42t38.5 -64t13 -81q0 -91 -26.5 -157.5t-77.5 -113.5q-36 -34 -81 -53.5 t-109 -19.5q-46 0 -83 14.5t-62.5 41t-39.5 64t-14 82.5q0 85 24 148.5t68 111.5q38 41 88.5 62.5t113.5 21.5zM472 707l-11 -62h-238q-6 0 -10 3.5t-4 14.5q0 8 3 22q4 16 8 19t14 3h238z" />
<glyph unicode="&#x14e;" horiz-adv-x="690" d="M394 631q-69 0 -120 -33.5t-84 -86t-49 -117.5t-16 -127q0 -47 10 -85.5t31.5 -66t54.5 -42.5t80 -15q72 0 122 33t81.5 85.5t46 117.5t14.5 128q0 46 -8.5 84.5t-29 66t-53 43t-80.5 15.5zM408 699q51 0 94.5 -15.5t75.5 -48.5t50 -84.5t18 -122.5q0 -78 -20.5 -156.5 t-64 -141t-110.5 -101.5t-161 -39q-59 0 -104.5 19.5t-77 55t-48 85.5t-16.5 111q0 84 23.5 163t69 140t113.5 98t158 37zM412 782q-74 0 -107.5 37t-33.5 97q0 5 0.5 11t1.5 11h55q-2 -48 21.5 -67.5t63.5 -19.5q16 0 34.5 3.5t34.5 13.5t28.5 26.5t18.5 43.5h59 q-7 -44 -24 -73.5t-41 -48t-52.5 -26.5t-58.5 -8z" />
<glyph unicode="&#x14f;" horiz-adv-x="580" d="M312 475q-46 0 -83.5 -21t-64.5 -58.5t-41.5 -88t-14.5 -109.5q0 -66 34 -106.5t97 -40.5q46 0 84 21t64.5 58.5t41 88t14.5 109.5q0 68 -34 107.5t-97 39.5zM323 536q48 0 85 -15t62.5 -42t38.5 -64t13 -81q0 -91 -26.5 -157.5t-77.5 -113.5q-36 -34 -81 -53.5 t-109 -19.5q-46 0 -83 14.5t-62.5 41t-39.5 64t-14 82.5q0 85 24 148.5t68 111.5q38 41 88.5 62.5t113.5 21.5zM335 608q-74 0 -107.5 37t-33.5 97q0 5 0.5 11t1.5 11h52q-2 -48 20.5 -73t67.5 -25q19 0 37.5 5.5t35 17t28.5 30t18 45.5h56q-7 -44 -24 -73.5t-41 -48 t-52.5 -26.5t-58.5 -8z" />
<glyph unicode="&#x150;" horiz-adv-x="690" d="M394 631q-69 0 -120 -33.5t-84 -86t-49 -117.5t-16 -127q0 -47 10 -85.5t31.5 -66t54.5 -42.5t80 -15q72 0 122 33t81.5 85.5t46 117.5t14.5 128q0 46 -8.5 84.5t-29 66t-53 43t-80.5 15.5zM408 699q51 0 94.5 -15.5t75.5 -48.5t50 -84.5t18 -122.5q0 -78 -20.5 -156.5 t-64 -141t-110.5 -101.5t-161 -39q-59 0 -104.5 19.5t-77 55t-48 85.5t-16.5 111q0 84 23.5 163t69 140t113.5 98t158 37zM456 963l43 -59l-209 -135q-8 -5 -11 -6t-5 -1t-6.5 3t-12.5 14q-10 16 -10 23q0 4 12 13zM683 963l43 -59l-209 -135q-8 -5 -11 -6t-5 -1t-6.5 3 t-12.5 14q-10 16 -10 23q0 4 12 13z" />
<glyph unicode="&#x151;" horiz-adv-x="580" d="M312 475q-46 0 -83.5 -21t-64.5 -58.5t-41.5 -88t-14.5 -109.5q0 -66 34 -106.5t97 -40.5q46 0 84 21t64.5 58.5t41 88t14.5 109.5q0 68 -34 107.5t-97 39.5zM323 536q48 0 85 -15t62.5 -42t38.5 -64t13 -81q0 -91 -26.5 -157.5t-77.5 -113.5q-36 -34 -81 -53.5 t-109 -19.5q-46 0 -83 14.5t-62.5 41t-39.5 64t-14 82.5q0 85 24 148.5t68 111.5q38 41 88.5 62.5t113.5 21.5zM396 801l43 -59l-209 -135q-8 -5 -11 -6t-5 -1t-6.5 3t-12.5 14q-10 16 -10 23q0 4 12 13zM604 801l43 -59l-209 -135q-8 -5 -11 -6t-5 -1t-6.5 3t-12.5 14 q-10 16 -10 23q0 4 12 13z" />
<glyph unicode="&#x152;" horiz-adv-x="996" d="M561 621h-105q-32 0 -63 -2t-60.5 -9.5t-56.5 -21.5t-52 -39t-43.5 -59t-30.5 -72.5t-17.5 -80.5t-5.5 -84q0 -57 14 -90t37 -56q27 -26 63.5 -33t87.5 -7h134zM350 0q-32 0 -63.5 1.5t-61 7t-56.5 17t-50 31.5q-35 30 -55 79t-20 115q0 50 7.5 100t23 96t39.5 85.5 t56 69.5q46 42 115 64.5t180 22.5h535l-12 -66h-348l-40 -230h300l-12 -66h-300l-46 -260h354l-12 -67h-534z" />
<glyph unicode="&#x153;" horiz-adv-x="929" d="M781 5q-21 -5 -57.5 -10t-75.5 -5q-69 0 -122 24t-79 80q-7 -8 -14 -15.5t-15 -15.5q-36 -34 -81 -53.5t-109 -19.5q-46 0 -83 14.5t-62.5 41t-39.5 64t-14 82.5q0 85 24 148.5t68 111.5q38 41 88.5 62.5t113.5 21.5q66 0 110 -27.5t67 -75.5q6 8 12 15t13 14 q34 35 78 54.5t109 19.5q181 0 180 -168q0 -32 -6.5 -63.5t-15.5 -65.5h-357q-2 -12 -3.5 -27.5t-1.5 -25.5q0 -39 11 -64.5t31 -40t49.5 -20.5t67.5 -6q27 0 55.5 3.5t49.5 7.5q15 3 22 3q9 0 9 -11q0 -6 -0.5 -15t-2.5 -17q-2 -11 -5 -14.5t-14 -6.5zM807 301q8 35 8 65 q1 54 -24 81.5t-85 27.5q-66 0 -113.5 -39t-69.5 -135h284zM312 475q-46 0 -83.5 -21t-64.5 -58.5t-41.5 -88t-14.5 -109.5q0 -66 34 -106.5t97 -40.5q46 0 84 21t64.5 58.5t41 88t14.5 109.5q0 68 -34 107.5t-97 39.5z" />
<glyph unicode="&#x154;" horiz-adv-x="613" d="M151 352h159q39 0 74 8t61 28.5t41 54.5t15 87q0 28 -10.5 46t-29.5 28.5t-44.5 14t-56.5 3.5h-162zM93 27q-2 -12 -9 -22t-37 -10q-21 0 -28 5.5t-7 13.5q0 3 1 9t2 10l116 656h242q45 0 83.5 -7.5t66 -25.5t43.5 -47.5t16 -74.5q0 -108 -59.5 -170t-159.5 -72l123 -265 q4 -10 4 -14q-3 -16 -42 -16q-24 0 -32.5 5.5t-16.5 22.5l-115 261h-145zM478 936l39 -76l-221 -99l-10 -4t-9 -2q-3 0 -7.5 3.5t-9.5 14.5q-8 17 -8 24q0 8 3.5 11.5t8.5 6.5z" />
<glyph unicode="&#x155;" horiz-adv-x="364" d="M154 408q51 55 108.5 86.5t111.5 41.5l-15 -87q-50 -8 -103.5 -34t-110.5 -78l-54 -306q-2 -12 -4 -16.5t-5 -7.5q-4 -4 -12.5 -7t-22.5 -3q-23 0 -29 7t-6 13q0 3 1 10t3 15l86 484h68zM349 778l37 -71l-221 -98l-10 -4t-9 -2q-3 0 -7.5 3t-9.5 14q-5 10 -5.5 14.5 t-0.5 6.5q0 6 3.5 9.5t8.5 6.5z" />
<glyph unicode="&#x156;" horiz-adv-x="613" d="M151 352h159q39 0 74 8t61 28.5t41 54.5t15 87q0 28 -10.5 46t-29.5 28.5t-44.5 14t-56.5 3.5h-162zM93 27q-2 -12 -9 -22t-37 -10q-21 0 -28 5.5t-7 13.5q0 3 1 9t2 10l116 656h242q45 0 83.5 -7.5t66 -25.5t43.5 -47.5t16 -74.5q0 -108 -59.5 -170t-159.5 -72l123 -265 q4 -10 4 -14q-3 -16 -42 -16q-24 0 -32.5 5.5t-16.5 22.5l-115 261h-145zM209 -257q-6 -17 -12 -22t-27 -5q-27 0 -27 14q0 3 1 7l51 192h79z" />
<glyph unicode="&#x157;" horiz-adv-x="364" d="M154 408q51 55 108.5 86.5t111.5 41.5l-15 -87q-50 -8 -103.5 -34t-110.5 -78l-54 -306q-2 -12 -4 -16.5t-5 -7.5q-4 -4 -12.5 -7t-22.5 -3q-23 0 -29 7t-6 13q0 3 1 10t3 15l86 484h68zM13 -257q-6 -17 -12 -22t-27 -5q-27 0 -27 14q0 3 1 7l51 192h79z" />
<glyph unicode="&#x158;" horiz-adv-x="613" d="M151 352h159q39 0 74 8t61 28.5t41 54.5t15 87q0 28 -10.5 46t-29.5 28.5t-44.5 14t-56.5 3.5h-162zM93 27q-2 -12 -9 -22t-37 -10q-21 0 -28 5.5t-7 13.5q0 3 1 9t2 10l116 656h242q45 0 83.5 -7.5t66 -25.5t43.5 -47.5t16 -74.5q0 -108 -59.5 -170t-159.5 -72l123 -265 q4 -10 4 -14q-3 -16 -42 -16q-24 0 -32.5 5.5t-16.5 22.5l-115 261h-145zM367 853l130 103l35 -39l-135 -129q-10 -10 -20 -14t-27 -4q-20 0 -26.5 5t-12.5 13l-94 130l42 38l96 -103h12z" />
<glyph unicode="&#x159;" horiz-adv-x="364" d="M154 408q51 55 108.5 86.5t111.5 41.5l-15 -87q-50 -8 -103.5 -34t-110.5 -78l-54 -306q-2 -12 -4 -16.5t-5 -7.5q-4 -4 -12.5 -7t-22.5 -3q-23 0 -29 7t-6 13q0 3 1 10t3 15l86 484h68zM255 676l130 106l32 -37l-135 -128q-11 -10 -20.5 -13.5t-26.5 -3.5q-19 0 -26 4.5 t-13 12.5l-92 128l43 37l90 -106h18z" />
<glyph unicode="&#x15a;" horiz-adv-x="548" d="M355 699q45 0 84 -6.5t71 -17.5l-18 -65q-35 11 -73 16.5t-70 5.5q-39 0 -72 -8.5t-57.5 -24.5t-38 -39.5t-13.5 -53.5q0 -21 8 -36t21 -26.5t30 -20.5t35 -17q54 -24 93 -43.5t64.5 -42t37.5 -51t12 -70.5q0 -52 -19.5 -91t-54.5 -65.5t-85 -39.5t-110 -13 q-51 0 -99.5 9t-83.5 25q-10 5 -10 13q0 4 2.5 13t5.5 17q5 15 11 18.5t11 3.5q4 0 16 -4q42 -14 78 -20.5t75 -6.5q84 0 134.5 33t50.5 103q0 26 -10 44t-30.5 33t-50 29.5t-68.5 32.5q-28 13 -53.5 27.5t-44.5 33.5t-30.5 44t-11.5 60q0 49 19.5 87t54.5 63t83 38t106 13z M477 936l39 -76l-221 -99l-10 -4t-9 -2q-3 0 -7.5 3.5t-9.5 14.5q-8 17 -8 24q0 8 3.5 11.5t8.5 6.5z" />
<glyph unicode="&#x15b;" horiz-adv-x="440" d="M388 456q-20 6 -48 11t-57 5q-27 0 -51.5 -5t-43.5 -15.5t-30 -27t-11 -39.5q0 -12 3.5 -22.5t12.5 -20t25.5 -19t42.5 -20.5q39 -16 66 -31t43 -31.5t23 -37.5t7 -49q0 -75 -56.5 -119.5t-168.5 -44.5q-15 0 -35 2t-40 6t-37.5 8.5t-27.5 9.5q-6 3 -7.5 5t-1.5 7 q0 12 7 31q5 14 9.5 17.5t9.5 3.5q6 0 17 -4t27.5 -8.5t38 -8.5t48.5 -4q66 0 103.5 24.5t37.5 71.5q0 17 -5 28.5t-16 20.5t-30 18t-46 21q-68 31 -95.5 62.5t-27.5 76.5t20 75.5t50.5 48.5t67 26t68.5 8q39 0 72.5 -6.5t53.5 -14.5zM400 778l37 -71l-221 -98l-10 -4t-9 -2 q-3 0 -7.5 3t-9.5 14q-5 10 -5.5 14.5t-0.5 6.5q0 6 3.5 9.5t8.5 6.5z" />
<glyph unicode="&#x15c;" horiz-adv-x="548" d="M355 699q45 0 84 -6.5t71 -17.5l-18 -65q-35 11 -73 16.5t-70 5.5q-39 0 -72 -8.5t-57.5 -24.5t-38 -39.5t-13.5 -53.5q0 -21 8 -36t21 -26.5t30 -20.5t35 -17q54 -24 93 -43.5t64.5 -42t37.5 -51t12 -70.5q0 -52 -19.5 -91t-54.5 -65.5t-85 -39.5t-110 -13 q-51 0 -99.5 9t-83.5 25q-10 5 -10 13q0 4 2.5 13t5.5 17q5 15 11 18.5t11 3.5q4 0 16 -4q42 -14 78 -20.5t75 -6.5q84 0 134.5 33t50.5 103q0 26 -10 44t-30.5 33t-50 29.5t-68.5 32.5q-28 13 -53.5 27.5t-44.5 33.5t-30.5 44t-11.5 60q0 49 19.5 87t54.5 63t83 38t106 13z M382 863l-113 -89q-20 -15 -28 -15q-5 0 -9.5 4t-8.5 9q-6 8 -8 13t-2 7q0 5 8 13l142 132q5 5 7 5.5t7 0.5h40q4 0 6.5 -0.5t5.5 -5.5l90 -126q7 -10 8.5 -13t1.5 -6t-2.5 -7t-11.5 -12q-13 -12 -21 -12q-4 0 -7.5 2t-11.5 10l-84 90h-9z" />
<glyph unicode="&#x15d;" horiz-adv-x="440" d="M388 456q-20 6 -48 11t-57 5q-27 0 -51.5 -5t-43.5 -15.5t-30 -27t-11 -39.5q0 -12 3.5 -22.5t12.5 -20t25.5 -19t42.5 -20.5q39 -16 66 -31t43 -31.5t23 -37.5t7 -49q0 -75 -56.5 -119.5t-168.5 -44.5q-15 0 -35 2t-40 6t-37.5 8.5t-27.5 9.5q-6 3 -7.5 5t-1.5 7 q0 12 7 31q5 14 9.5 17.5t9.5 3.5q6 0 17 -4t27.5 -8.5t38 -8.5t48.5 -4q66 0 103.5 24.5t37.5 71.5q0 17 -5 28.5t-16 20.5t-30 18t-46 21q-68 31 -95.5 62.5t-27.5 76.5t20 75.5t50.5 48.5t67 26t68.5 8q39 0 72.5 -6.5t53.5 -14.5zM291 706l-111 -90q-20 -15 -29 -15 q-5 0 -9.5 4t-8.5 9q-6 8 -8 13t-2 7q0 5 8 13l142 132q5 5 7 5.5t7 0.5h40q4 0 6.5 -0.5t5.5 -5.5l90 -126q7 -10 8.5 -13t1.5 -6t-2.5 -7t-11.5 -12q-13 -12 -21 -12q-4 0 -7.5 2t-11.5 10l-82 91h-12z" />
<glyph unicode="&#x15e;" horiz-adv-x="548" d="M159 -8q-13 1 -30.5 3t-36.5 6t-38.5 9.5t-36.5 13.5q-10 5 -10 13q0 4 2.5 13t5.5 17q5 15 11 18.5t11 3.5q4 0 16 -4q42 -14 78 -20.5t75 -6.5q84 0 134.5 33t50.5 103q0 26 -10 44t-30.5 33t-50 29.5t-68.5 32.5q-28 13 -53.5 27.5t-44.5 33.5t-30.5 44t-11.5 60 q0 49 19.5 87t54.5 63t83 38t106 13q45 0 84 -6.5t71 -17.5l-18 -65q-35 11 -73 16.5t-70 5.5q-39 0 -72 -8.5t-57.5 -24.5t-38 -39.5t-13.5 -53.5q0 -21 8 -36t21 -26.5t30 -20.5t35 -17q54 -24 93 -43.5t64.5 -42t37.5 -51t12 -70.5q0 -52 -19 -90.5t-53.5 -64.5 t-81.5 -39.5t-103 -14.5l-22 -55q13 5 22.5 6t20.5 1q32 0 52.5 -19t20.5 -60q0 -34 -11.5 -57t-31 -37.5t-44.5 -20.5t-52 -6q-28 0 -49 4t-36 9q-11 4 -11 10q0 3 1 8.5t4 14.5q5 14 8 16t6 2q7 0 23 -5.5t49 -5.5q38 0 58.5 14t20.5 46q0 21 -11.5 30t-34.5 9 q-15 0 -30.5 -4.5t-19.5 -4.5q-3 0 -5.5 1.5t-7.5 6.5q-6 6 -6 10t2 10t7 17z" />
<glyph unicode="&#x15f;" horiz-adv-x="440" d="M388 456q-20 6 -48 11t-57 5q-27 0 -51.5 -5t-43.5 -15.5t-30 -27t-11 -39.5q0 -12 3.5 -22.5t12.5 -20t25.5 -19t42.5 -20.5q39 -16 66 -31t43 -31.5t23 -37.5t7 -49q0 -72 -51.5 -115.5t-154.5 -47.5l-22 -56q13 5 22.5 6t20.5 1q32 0 52.5 -19t20.5 -60 q0 -34 -11.5 -57t-31 -37.5t-44.5 -20.5t-52 -6q-28 0 -49 4t-36 9q-11 4 -11 10q0 3 1 8.5t4 14.5q5 14 8 16t6 2q7 0 23 -5.5t49 -5.5q38 0 58.5 14t20.5 46q0 21 -11.5 30t-34.5 9q-15 0 -30.5 -4.5t-19.5 -4.5q-3 0 -5.5 1.5t-7.5 6.5q-6 6 -6 10t2 10t7 17l24 62 q-29 3 -60.5 9.5t-45.5 14.5q-6 3 -7.5 5t-1.5 7q0 12 7 31q5 14 9.5 17.5t9.5 3.5q6 0 17 -4t27.5 -8.5t38 -8.5t48.5 -4q66 0 103.5 24.5t37.5 71.5q0 17 -5 28.5t-16 20.5t-30 18t-46 21q-68 31 -95.5 62.5t-27.5 76.5t20 75.5t50.5 48.5t67 26t68.5 8q39 0 72.5 -6.5 t53.5 -14.5z" />
<glyph unicode="&#x160;" horiz-adv-x="548" d="M355 699q45 0 84 -6.5t71 -17.5l-18 -65q-35 11 -73 16.5t-70 5.5q-39 0 -72 -8.5t-57.5 -24.5t-38 -39.5t-13.5 -53.5q0 -21 8 -36t21 -26.5t30 -20.5t35 -17q54 -24 93 -43.5t64.5 -42t37.5 -51t12 -70.5q0 -52 -19.5 -91t-54.5 -65.5t-85 -39.5t-110 -13 q-51 0 -99.5 9t-83.5 25q-10 5 -10 13q0 4 2.5 13t5.5 17q5 15 11 18.5t11 3.5q4 0 16 -4q42 -14 78 -20.5t75 -6.5q84 0 134.5 33t50.5 103q0 26 -10 44t-30.5 33t-50 29.5t-68.5 32.5q-28 13 -53.5 27.5t-44.5 33.5t-30.5 44t-11.5 60q0 49 19.5 87t54.5 63t83 38t106 13z M378 853l130 103l35 -39l-135 -129q-10 -10 -20 -14t-27 -4q-20 0 -26.5 5t-12.5 13l-94 130l42 38l96 -103h12z" />
<glyph unicode="&#x161;" horiz-adv-x="440" d="M388 456q-20 6 -48 11t-57 5q-27 0 -51.5 -5t-43.5 -15.5t-30 -27t-11 -39.5q0 -12 3.5 -22.5t12.5 -20t25.5 -19t42.5 -20.5q39 -16 66 -31t43 -31.5t23 -37.5t7 -49q0 -75 -56.5 -119.5t-168.5 -44.5q-15 0 -35 2t-40 6t-37.5 8.5t-27.5 9.5q-6 3 -7.5 5t-1.5 7 q0 12 7 31q5 14 9.5 17.5t9.5 3.5q6 0 17 -4t27.5 -8.5t38 -8.5t48.5 -4q66 0 103.5 24.5t37.5 71.5q0 17 -5 28.5t-16 20.5t-30 18t-46 21q-68 31 -95.5 62.5t-27.5 76.5t20 75.5t50.5 48.5t67 26t68.5 8q39 0 72.5 -6.5t53.5 -14.5zM308 676l130 106l32 -37l-135 -128 q-11 -10 -20.5 -13.5t-26.5 -3.5q-19 0 -26 4.5t-13 12.5l-92 128l43 37l90 -106h18z" />
<glyph unicode="&#x162;" horiz-adv-x="577" d="M270 27q-2 -12 -9 -22t-37 -10q-21 0 -28.5 5.5t-7.5 13.5q0 3 1 9t2 10l105 590h-222l12 66h523l-12 -66h-222zM189 -257q-6 -17 -12 -22t-27 -5q-27 0 -27 14q0 3 1 7l51 192h79z" />
<glyph unicode="&#x163;" horiz-adv-x="374" d="M47 505q23 13 47 30.5t46 38t40.5 42t30.5 44.5h35l-24 -134h163l-13 -61h-160l-54 -305q-3 -17 -5 -31.5t-2 -20.5q0 -30 18.5 -40.5t50.5 -10.5q23 0 43 3.5t28 3.5q11 0 11 -10t-5 -32q-2 -8 -5 -12t-12 -7q-17 -5 -40 -8t-42 -3q-63 0 -93.5 29t-30.5 77q0 8 1 20.5 t4 31.5l56 315h-93q-12 0 -12 7q0 5 2 13q2 7 4.5 11t10.5 9zM150 -257q-6 -17 -12 -22t-27 -5q-27 0 -27 14q0 3 1 7l51 192h79z" />
<glyph unicode="&#x164;" horiz-adv-x="577" d="M270 27q-2 -12 -9 -22t-37 -10q-21 0 -28.5 5.5t-7.5 13.5q0 3 1 9t2 10l105 590h-222l12 66h523l-12 -66h-222zM374 853l130 103l35 -39l-135 -129q-10 -10 -20 -14t-27 -4q-20 0 -26.5 5t-12.5 13l-94 130l42 38l96 -103h12z" />
<glyph unicode="&#x165;" horiz-adv-x="374" d="M47 505q23 13 47 30.5t46 38t40.5 42t30.5 44.5h35l-24 -134h163l-13 -61h-160l-54 -305q-3 -17 -5 -31.5t-2 -20.5q0 -30 18.5 -40.5t50.5 -10.5q23 0 43 3.5t28 3.5q11 0 11 -10t-5 -32q-2 -8 -5 -12t-12 -7q-17 -5 -40 -8t-42 -3q-63 0 -93.5 29t-30.5 77q0 8 1 20.5 t4 31.5l56 315h-93q-12 0 -12 7q0 5 2 13q2 7 4.5 11t10.5 9zM378 615q-6 -17 -12 -22t-27 -5q-27 0 -27 14q0 3 1 7l51 192h79z" />
<glyph unicode="&#x166;" horiz-adv-x="577" d="M329 363h141l-12 -66h-141l-47 -270q-2 -12 -9 -22t-37 -10q-21 0 -28.5 5.5t-7.5 13.5q0 3 1 9t2 10l47 264h-110q-7 0 -10.5 2.5t-3.5 12.5q0 3 0.5 8.5t1.5 10.5q4 22 10.5 27t13.5 5h109l47 260h-222l12 66h523l-12 -66h-222z" />
<glyph unicode="&#x167;" horiz-adv-x="374" d="M55 505q23 13 47 30.5t46 38t40.5 42t30.5 44.5h35l-24 -134h157l-13 -61h-154l-31 -172h130l-11 -61h-130l-12 -72q-3 -17 -5 -31.5t-2 -20.5q0 -30 18.5 -40.5t50.5 -10.5q23 0 44 4t29 4q11 0 11 -10t-5 -32q-2 -8 -5 -12t-12 -7q-17 -5 -41 -8.5t-43 -3.5 q-63 0 -93.5 29t-30.5 77q0 8 1 20.5t4 31.5l14 82h-57q-6 0 -10 3.5t-4 14.5q0 8 3 22q4 16 8 18.5t14 2.5h57l31 172h-93q-12 0 -12 7q0 5 2 13q2 7 4.5 11t10.5 9z" />
<glyph unicode="&#x168;" horiz-adv-x="647" d="M563 262q-8 -44 -18.5 -76.5t-23 -57t-27.5 -42.5t-32 -33q-42 -36 -95 -49.5t-107 -13.5q-60 0 -106.5 18.5t-73.5 53.5q-18 22 -27.5 50.5t-9.5 66.5q0 30 6 66l78 444h79l-78 -443q-2 -14 -4 -28.5t-2 -26.5q0 -28 7 -53.5t24 -42.5t47 -27.5t72 -10.5q44 0 77 11.5 t59 33.5q15 13 27 28.5t21.5 36.5t17 48t13.5 62l73 412h78zM229 778q-13 10 -13 18q0 5 8 17q28 42 57 64.5t60 22.5q25 0 45 -10t36.5 -22.5t31.5 -22.5t30 -10q21 0 38.5 17t36.5 42l40 -30q-24 -40 -55 -68t-69 -28q-24 0 -42 10t-33.5 22.5t-31 22.5t-34.5 10 q-14 0 -29 -10.5t-34 -35.5q-9 -13 -12 -16t-7 -3t-9 2t-14 8z" />
<glyph unicode="&#x169;" horiz-adv-x="550" d="M176 -10q-66 0 -106 33.5t-40 97.5q0 14 2 30.5t5 34.5l60 340h77l-59 -332q-3 -17 -5 -33t-2 -27q0 -14 3.5 -28.5t13.5 -25.5t28 -18t47 -7q42 0 77.5 20.5t76.5 71.5l68 379h77l-63 -352q-11 -62 -13.5 -104t-2.5 -52q0 -14 -9 -17.5t-29 -3.5q-22 0 -28.5 6.5 t-6.5 26.5v42q-12 -13 -28 -27.5t-37 -26.5t-47 -20t-59 -8zM155 623q-13 9 -13 17q0 5 8 17q27 41 55.5 62.5t58.5 21.5q24 0 43.5 -10t35.5 -22t30.5 -22t29.5 -10q20 0 37.5 17t35.5 41l39 -29q-23 -38 -53 -66t-68 -28q-23 0 -40.5 10t-32.5 22t-30.5 22t-33.5 10 q-13 0 -28 -10.5t-33 -34.5q-9 -12 -12 -15t-7 -3q-3 0 -8 2t-14 8z" />
<glyph unicode="&#x16a;" horiz-adv-x="647" d="M563 262q-8 -44 -18.5 -76.5t-23 -57t-27.5 -42.5t-32 -33q-42 -36 -95 -49.5t-107 -13.5q-60 0 -106.5 18.5t-73.5 53.5q-18 22 -27.5 50.5t-9.5 66.5q0 30 6 66l78 444h79l-78 -443q-2 -14 -4 -28.5t-2 -26.5q0 -28 7 -53.5t24 -42.5t47 -27.5t72 -10.5q44 0 77 11.5 t59 33.5q15 13 27 28.5t21.5 36.5t17 48t13.5 62l73 412h78zM530 872l-12 -66h-239q-7 0 -10.5 2.5t-3.5 12.5q0 3 0.5 8.5t1.5 10.5q4 22 10.5 27t13.5 5h239z" />
<glyph unicode="&#x16b;" horiz-adv-x="534" d="M176 -10q-66 0 -106 33.5t-40 97.5q0 14 2 30.5t5 34.5l60 340h77l-59 -332q-3 -17 -5 -33t-2 -27q0 -14 3.5 -28.5t13.5 -25.5t28 -18t47 -7q42 0 77.5 20.5t76.5 71.5l68 379h77l-63 -352q-11 -62 -13.5 -104t-2.5 -52q0 -14 -9 -17.5t-29 -3.5q-22 0 -28.5 6.5 t-6.5 26.5v42q-12 -13 -28 -27.5t-37 -26.5t-47 -20t-59 -8zM453 707l-11 -62h-238q-6 0 -10 3.5t-4 14.5q0 8 3 22q4 16 8 19t14 3h238z" />
<glyph unicode="&#x16c;" horiz-adv-x="647" d="M563 262q-8 -44 -18.5 -76.5t-23 -57t-27.5 -42.5t-32 -33q-42 -36 -95 -49.5t-107 -13.5q-60 0 -106.5 18.5t-73.5 53.5q-18 22 -27.5 50.5t-9.5 66.5q0 30 6 66l78 444h79l-78 -443q-2 -14 -4 -28.5t-2 -26.5q0 -28 7 -53.5t24 -42.5t47 -27.5t72 -10.5q44 0 77 11.5 t59 33.5q15 13 27 28.5t21.5 36.5t17 48t13.5 62l73 412h78zM390 782q-74 0 -107.5 37t-33.5 97q0 5 0.5 11t1.5 11h55q-2 -48 21.5 -67.5t63.5 -19.5q16 0 34.5 3.5t34.5 13.5t28.5 26.5t18.5 43.5h59q-7 -44 -24 -73.5t-41 -48t-52.5 -26.5t-58.5 -8z" />
<glyph unicode="&#x16d;" horiz-adv-x="534" d="M176 -10q-66 0 -106 33.5t-40 97.5q0 14 2 30.5t5 34.5l60 340h77l-59 -332q-3 -17 -5 -33t-2 -27q0 -14 3.5 -28.5t13.5 -25.5t28 -18t47 -7q42 0 77.5 20.5t76.5 71.5l68 379h77l-63 -352q-11 -62 -13.5 -104t-2.5 -52q0 -14 -9 -17.5t-29 -3.5q-22 0 -28.5 6.5 t-6.5 26.5v42q-12 -13 -28 -27.5t-37 -26.5t-47 -20t-59 -8zM313 608q-74 0 -107.5 37t-33.5 97q0 5 0.5 11t1.5 11h52q-2 -48 20.5 -73t67.5 -25q19 0 37.5 5.5t35 17t28.5 30t18 45.5h56q-7 -44 -24 -73.5t-41 -48t-52.5 -26.5t-58.5 -8z" />
<glyph unicode="&#x16e;" horiz-adv-x="647" d="M563 262q-8 -44 -18.5 -76.5t-23 -57t-27.5 -42.5t-32 -33q-42 -36 -95 -49.5t-107 -13.5q-60 0 -106.5 18.5t-73.5 53.5q-18 22 -27.5 50.5t-9.5 66.5q0 30 6 66l78 444h79l-78 -443q-2 -14 -4 -28.5t-2 -26.5q0 -28 7 -53.5t24 -42.5t47 -27.5t72 -10.5q44 0 77 11.5 t59 33.5q15 13 27 28.5t21.5 36.5t17 48t13.5 62l73 412h78zM392 804q25 0 44 19t19 48q0 20 -11 31t-29 11q-26 0 -44.5 -18.5t-18.5 -49.5q0 -19 10 -30t30 -11zM387 753q-43 0 -66 25t-23 63q0 25 9 47.5t25 39t38.5 26.5t49.5 10q42 0 64.5 -24.5t22.5 -64.5 q0 -26 -9 -48t-25 -38.5t-38 -26t-48 -9.5z" />
<glyph unicode="&#x16f;" horiz-adv-x="534" d="M176 -10q-66 0 -106 33.5t-40 97.5q0 14 2 30.5t5 34.5l60 340h77l-59 -332q-3 -17 -5 -33t-2 -27q0 -14 3.5 -28.5t13.5 -25.5t28 -18t47 -7q42 0 77.5 20.5t76.5 71.5l68 379h77l-63 -352q-11 -62 -13.5 -104t-2.5 -52q0 -14 -9 -17.5t-29 -3.5q-22 0 -28.5 6.5 t-6.5 26.5v42q-12 -13 -28 -27.5t-37 -26.5t-47 -20t-59 -8zM308 630q26 0 44.5 19t18.5 50q0 20 -10.5 31t-29.5 11q-26 0 -45 -19t-19 -50q0 -20 10.5 -31t30.5 -11zM303 582q-42 0 -64.5 24.5t-22.5 61.5q0 25 8.5 47t24.5 38.5t38 26t49 9.5q41 0 63.5 -24t22.5 -63 q0 -25 -9 -47t-25 -38t-38 -25.5t-47 -9.5z" />
<glyph unicode="&#x170;" horiz-adv-x="647" d="M563 262q-8 -44 -18.5 -76.5t-23 -57t-27.5 -42.5t-32 -33q-42 -36 -95 -49.5t-107 -13.5q-60 0 -106.5 18.5t-73.5 53.5q-18 22 -27.5 50.5t-9.5 66.5q0 30 6 66l78 444h79l-78 -443q-2 -14 -4 -28.5t-2 -26.5q0 -28 7 -53.5t24 -42.5t47 -27.5t72 -10.5q44 0 77 11.5 t59 33.5q15 13 27 28.5t21.5 36.5t17 48t13.5 62l73 412h78zM428 963l43 -59l-209 -135q-8 -5 -11 -6t-5 -1t-6.5 3t-12.5 14q-10 16 -10 23q0 4 12 13zM655 963l43 -59l-209 -135q-8 -5 -11 -6t-5 -1t-6.5 3t-12.5 14q-10 16 -10 23q0 4 12 13z" />
<glyph unicode="&#x171;" horiz-adv-x="534" d="M176 -10q-66 0 -106 33.5t-40 97.5q0 14 2 30.5t5 34.5l60 340h77l-59 -332q-3 -17 -5 -33t-2 -27q0 -14 3.5 -28.5t13.5 -25.5t28 -18t47 -7q42 0 77.5 20.5t76.5 71.5l68 379h77l-63 -352q-11 -62 -13.5 -104t-2.5 -52q0 -14 -9 -17.5t-29 -3.5q-22 0 -28.5 6.5 t-6.5 26.5v42q-12 -13 -28 -27.5t-37 -26.5t-47 -20t-59 -8zM404 801l43 -59l-209 -135q-8 -5 -11 -6t-5 -1t-6.5 3t-12.5 14q-10 16 -10 23q0 4 12 13zM612 801l43 -59l-209 -135q-8 -5 -11 -6t-5 -1t-6.5 3t-12.5 14q-10 16 -10 23q0 4 12 13z" />
<glyph unicode="&#x172;" horiz-adv-x="647" d="M218 -134q0 22 7.5 41.5t19.5 35.5t26 28.5t28 20.5q-8 -1 -19.5 -1.5t-19.5 -0.5q-60 0 -106.5 18.5t-73.5 53.5q-18 22 -27.5 50.5t-9.5 66.5q0 30 6 66l78 444h79l-78 -443q-2 -14 -4 -28.5t-2 -26.5q0 -28 7 -53.5t24 -42.5t47 -27.5t72 -10.5q44 0 77 11.5t59 33.5 q15 13 27 28.5t21.5 36.5t17 48t13.5 62l73 412h78l-75 -427q-8 -44 -18.5 -76.5t-23 -57t-27.5 -42.5t-32 -33q-19 -17 -49 -34.5t-59 -38.5t-50 -46t-21 -56q0 -6 1.5 -13.5t7 -14t15.5 -11t28 -4.5q23 0 38 4.5t22 4.5q3 0 5.5 -1.5t4.5 -8.5t2.5 -14.5t0.5 -9.5 q0 -7 -3 -10.5t-12 -6.5q-10 -3 -32 -7t-42 -4q-51 0 -76 22.5t-25 61.5z" />
<glyph unicode="&#x173;" horiz-adv-x="534" d="M348 17q-2 14 -2 25.5t1 22.5q-13 -13 -30.5 -26.5t-39.5 -24t-47.5 -17.5t-53.5 -7q-66 0 -106 33.5t-40 97.5q0 14 2 30.5t5 34.5l60 340h77l-59 -332q-3 -17 -5 -33t-2 -27q0 -14 3.5 -28.5t13.5 -25.5t28 -18t47 -7q33 0 73.5 17.5t78.5 62.5l70 391h77l-63 -352 q-11 -62 -13.5 -104t-2.5 -52t-4.5 -13.5t-13.5 -6.5q-20 -7 -40 -18.5t-36.5 -27t-26.5 -34.5t-10 -40q0 -6 1.5 -13.5t7 -14t15.5 -11t28 -4.5q23 0 38 4.5t22 4.5q3 0 5.5 -1.5t4.5 -8.5t2.5 -14.5t0.5 -9.5q0 -7 -3 -10.5t-12 -6.5q-10 -3 -32 -7t-42 -4q-51 0 -76 22.5 t-25 61.5q0 27 10.5 50t28 41.5t39.5 33.5t46 26z" />
<glyph unicode="&#x174;" horiz-adv-x="969" d="M638 70h10q60 140 126.5 297t130.5 322h81q-75 -189 -145.5 -350t-132.5 -311q-3 -6 -6.5 -11t-11.5 -8.5t-22 -6t-37 -2.5q-25 0 -38 2.5t-19 6.5t-7 9t-2 11l-31 572h-8l-223 -575q-2 -6 -5.5 -10.5t-11 -8t-21.5 -5.5t-38 -2t-37.5 2.5t-20.5 6.5t-9 9t-2 11 q-13 147 -30.5 315t-25.5 345h82q4 -77 9.5 -158t11.5 -161t13 -156t13 -144h10q55 143 115 297t116 302q5 13 8.5 16.5t12.5 3.5h96q9 0 11.5 -3t3.5 -17zM567 863l-113 -89q-20 -15 -28 -15q-5 0 -9.5 4t-8.5 9q-6 8 -8 13t-2 7q0 5 8 13l142 132q5 5 7 5.5t7 0.5h40 q4 0 6.5 -0.5t5.5 -5.5l90 -126q7 -10 8.5 -13t1.5 -6t-2.5 -7t-11.5 -12q-13 -12 -21 -12q-4 0 -7.5 2t-11.5 10l-84 90h-9z" />
<glyph unicode="&#x175;" horiz-adv-x="781" d="M791 526q-23 -57 -53 -123t-61.5 -133t-63 -131.5t-56.5 -117.5q-6 -12 -20 -16.5t-48 -4.5q-21 0 -32.5 1.5t-17.5 4.5t-7.5 6.5t-1.5 8.5l-19 406h-6l-183 -405q-3 -6 -6 -10t-10 -6.5t-19 -4t-33 -1.5q-22 0 -34 1.5t-18 4.5t-7.5 7.5t-2.5 10.5q-6 52 -10.5 112.5 t-8 125.5t-6 132t-3.5 132h81q0 -58 1.5 -119t3.5 -121t4 -118t5 -111h7l204 453q5 11 9 13.5t12 2.5h70q8 0 10.5 -3t3.5 -15q0 -1 1 -20.5t2.5 -51.5t3.5 -72.5t4 -82.5q4 -99 11 -224h8q22 49 48 107t53.5 119.5t54 123.5t50.5 119h80zM453 706l-111 -90q-20 -15 -29 -15 q-5 0 -9.5 4t-8.5 9q-6 8 -8 13t-2 7q0 5 8 13l142 132q5 5 7 5.5t7 0.5h40q4 0 6.5 -0.5t5.5 -5.5l90 -126q7 -10 8.5 -13t1.5 -6t-2.5 -7t-11.5 -12q-13 -12 -21 -12q-4 0 -7.5 2t-11.5 10l-82 91h-12z" />
<glyph unicode="&#x176;" horiz-adv-x="591" d="M247 261q-39 95 -78 202.5t-77 225.5h85q14 -46 29.5 -95t30.5 -96t29 -89.5t26 -73.5h9q21 31 51 76.5t61.5 95t62 98t52.5 84.5h89q-79 -122 -150 -226.5t-141 -201.5l-41 -234q-2 -12 -9 -22t-37 -10q-21 0 -28 5.5t-7 13.5q0 3 1 9t2 10zM371 863l-113 -89 q-20 -15 -28 -15q-5 0 -9.5 4t-8.5 9q-6 8 -8 13t-2 7q0 5 8 13l142 132q5 5 7 5.5t7 0.5h40q4 0 6.5 -0.5t5.5 -5.5l90 -126q7 -10 8.5 -13t1.5 -6t-2.5 -7t-11.5 -12q-13 -12 -21 -12q-4 0 -7.5 2t-11.5 10l-84 90h-9z" />
<glyph unicode="&#x177;" horiz-adv-x="502" d="M514 526q-42 -86 -82.5 -170t-83 -172t-90 -184t-102.5 -207q-5 -9 -14 -16t-35 -7q-17 0 -23.5 4.5t-6.5 9.5q0 3 1 6.5t6 11.5q32 59 56 106.5t46 91.5h-26q-13 0 -17 5.5t-6 13.5q-20 115 -39.5 247t-33.5 260h79q3 -38 7.5 -77.5t10.5 -93t15.5 -125t23.5 -173.5h11 q24 52 52 110.5t57.5 119.5t58.5 122t56 117h79zM303 706l-111 -90q-20 -15 -29 -15q-5 0 -9.5 4t-8.5 9q-6 8 -8 13t-2 7q0 5 8 13l142 132q5 5 7 5.5t7 0.5h40q4 0 6.5 -0.5t5.5 -5.5l90 -126q7 -10 8.5 -13t1.5 -6t-2.5 -7t-11.5 -12q-13 -12 -21 -12q-4 0 -7.5 2 t-11.5 10l-82 91h-12z" />
<glyph unicode="&#x178;" horiz-adv-x="591" d="M247 261q-39 95 -78 202.5t-77 225.5h85q14 -46 29.5 -95t30.5 -96t29 -89.5t26 -73.5h9q21 31 51 76.5t61.5 95t62 98t52.5 84.5h89q-79 -122 -150 -226.5t-141 -201.5l-41 -234q-2 -12 -9 -22t-37 -10q-21 0 -28 5.5t-7 13.5q0 3 1 9t2 10zM263 782q-48 0 -48 46 q0 26 19 48t52 22q23 0 35 -12.5t12 -32.5q0 -27 -19 -49t-51 -22zM460 782q-48 0 -48 46q0 26 19 48t52 22q23 0 35 -12.5t12 -32.5q0 -27 -19 -49t-51 -22z" />
<glyph unicode="&#x179;" horiz-adv-x="552" d="M537 689q18 0 22 -14q5 -13 2 -29q-2 -11 -12 -24l-457 -555h339q5 0 10.5 -2.5t5.5 -14.5q0 -3 -1 -10.5t-3 -15.5q-5 -17 -11.5 -20.5t-20.5 -3.5h-400q-10 0 -14.5 3t-7.5 11q-5 12 -5 20q0 15 15 31l459 558h-347l13 66h413zM487 936l39 -76l-221 -99l-10 -4t-9 -2 q-3 0 -7.5 3.5t-9.5 14.5q-8 17 -8 24q0 8 3.5 11.5t8.5 6.5z" />
<glyph unicode="&#x17a;" horiz-adv-x="454" d="M3 0q-12 0 -17 8q-6 9 -8 13.5t-2 7.5q0 4 2 7.5t8 10.5l354 418h-276l11 61h344q14 0 18 -6q7 -12 7 -24q0 -7 -3.5 -12.5t-8.5 -11.5l-346 -410h261q6 0 10.5 -3t4.5 -16q0 -2 -1 -9.5t-3 -14.5q-4 -11 -8 -15t-14 -4h-333zM388 778l37 -71l-221 -98l-10 -4t-9 -2 q-3 0 -7.5 3t-9.5 14q-5 10 -5.5 14.5t-0.5 6.5q0 6 3.5 9.5t8.5 6.5z" />
<glyph unicode="&#x17b;" horiz-adv-x="552" d="M537 689q18 0 22 -14q5 -13 2 -29q-2 -11 -12 -24l-457 -555h339q5 0 10.5 -2.5t5.5 -14.5q0 -3 -1 -10.5t-3 -15.5q-5 -17 -11.5 -20.5t-20.5 -3.5h-400q-10 0 -14.5 3t-7.5 11q-5 12 -5 20q0 15 15 31l459 558h-347l13 66h413zM346 790q-28 0 -42 15.5t-14 38.5 q0 32 20.5 57t58.5 25q28 0 42 -15.5t14 -39.5q0 -31 -21 -56t-58 -25z" />
<glyph unicode="&#x17c;" horiz-adv-x="454" d="M3 0q-12 0 -17 8q-6 9 -8 13.5t-2 7.5q0 4 2 7.5t8 10.5l354 418h-276l11 61h344q14 0 18 -6q7 -12 7 -24q0 -7 -3.5 -12.5t-8.5 -11.5l-346 -410h261q6 0 10.5 -3t4.5 -16q0 -2 -1 -9.5t-3 -14.5q-4 -11 -8 -15t-14 -4h-333zM261 616q-26 0 -39.5 14.5t-13.5 37.5 q0 29 19.5 53t54.5 24q26 0 39.5 -14.5t13.5 -37.5q0 -29 -19.5 -53t-54.5 -24z" />
<glyph unicode="&#x17d;" horiz-adv-x="552" d="M537 689q18 0 22 -14q5 -13 2 -29q-2 -11 -12 -24l-457 -555h339q5 0 10.5 -2.5t5.5 -14.5q0 -3 -1 -10.5t-3 -15.5q-5 -17 -11.5 -20.5t-20.5 -3.5h-400q-10 0 -14.5 3t-7.5 11q-5 12 -5 20q0 15 15 31l459 558h-347l13 66h413zM358 853l130 103l35 -39l-135 -129 q-10 -10 -20 -14t-27 -4q-20 0 -26.5 5t-12.5 13l-94 130l42 38l96 -103h12z" />
<glyph unicode="&#x17e;" horiz-adv-x="454" d="M3 0q-12 0 -17 8q-6 9 -8 13.5t-2 7.5q0 4 2 7.5t8 10.5l354 418h-276l11 61h344q14 0 18 -6q7 -12 7 -24q0 -7 -3.5 -12.5t-8.5 -11.5l-346 -410h261q6 0 10.5 -3t4.5 -16q0 -2 -1 -9.5t-3 -14.5q-4 -11 -8 -15t-14 -4h-333zM280 676l130 106l32 -37l-135 -128 q-11 -10 -20.5 -13.5t-26.5 -3.5q-19 0 -26 4.5t-13 12.5l-92 128l43 37l90 -106h18z" />
<glyph unicode="&#x17f;" horiz-adv-x="320" d="M137 465h-85q-8 0 -12 2t-4 12q0 7 3 21q3 12 7.5 15.5t15.5 4.5l85 6l8 43q15 90 61 131q47 44 134 44q26 0 47 -3t37 -8l-15 -59q-14 4 -31 6t-31 2q-53 0 -82.5 -23.5t-41.5 -85.5l-109 -615q-9 -51 -21.5 -89t-41.5 -63q-20 -18 -48.5 -27t-61.5 -9q-38 0 -63 9 q-8 3 -10 6.5t-2 8.5q0 6 3 18t5 17q4 12 13 12q7 0 19.5 -3.5t34.5 -3.5q17 0 31 4.5t27 15.5q17 15 24 38.5t13 57.5z" />
<glyph unicode="&#x192;" horiz-adv-x="384" d="M153 320h-85q-8 0 -12 2t-4 12q0 7 3 21q3 12 7.5 15.5t15.5 4.5l85 6l26 143q15 90 61 131q47 44 137 44q26 0 48.5 -3t38.5 -8l-15 -59q-14 4 -32.5 6t-32.5 2q-56 0 -85.5 -23.5t-41.5 -85.5l-26 -147h157l-10 -61h-158l-64 -362q-9 -51 -21.5 -89t-41.5 -63 q-41 -36 -112 -36q-18 0 -34.5 2t-29.5 7q-8 3 -10 6.5t-2 8.5q0 6 3 18t5 17q4 12 13 12q7 0 20.5 -3.5t34.5 -3.5q19 0 33 4.5t27 15.5q17 15 24 38.5t13 57.5z" />
<glyph unicode="&#x218;" horiz-adv-x="548" d="M355 699q45 0 84 -6.5t71 -17.5l-18 -65q-35 11 -73 16.5t-70 5.5q-39 0 -72 -8.5t-57.5 -24.5t-38 -39.5t-13.5 -53.5q0 -21 8 -36t21 -26.5t30 -20.5t35 -17q54 -24 93 -43.5t64.5 -42t37.5 -51t12 -70.5q0 -52 -19.5 -91t-54.5 -65.5t-85 -39.5t-110 -13 q-51 0 -99.5 9t-83.5 25q-10 5 -10 13q0 4 2.5 13t5.5 17q5 15 11 18.5t11 3.5q4 0 16 -4q42 -14 78 -20.5t75 -6.5q84 0 134.5 33t50.5 103q0 26 -10 44t-30.5 33t-50 29.5t-68.5 32.5q-28 13 -53.5 27.5t-44.5 33.5t-30.5 44t-11.5 60q0 49 19.5 87t54.5 63t83 38t106 13z M163 -257q-6 -17 -12 -22t-27 -5q-27 0 -27 14q0 3 1 7l51 192h79z" />
<glyph unicode="&#x219;" horiz-adv-x="440" d="M388 456q-20 6 -48 11t-57 5q-27 0 -51.5 -5t-43.5 -15.5t-30 -27t-11 -39.5q0 -12 3.5 -22.5t12.5 -20t25.5 -19t42.5 -20.5q39 -16 66 -31t43 -31.5t23 -37.5t7 -49q0 -75 -56.5 -119.5t-168.5 -44.5q-15 0 -35 2t-40 6t-37.5 8.5t-27.5 9.5q-6 3 -7.5 5t-1.5 7 q0 12 7 31q5 14 9.5 17.5t9.5 3.5q6 0 17 -4t27.5 -8.5t38 -8.5t48.5 -4q66 0 103.5 24.5t37.5 71.5q0 17 -5 28.5t-16 20.5t-30 18t-46 21q-68 31 -95.5 62.5t-27.5 76.5t20 75.5t50.5 48.5t67 26t68.5 8q39 0 72.5 -6.5t53.5 -14.5zM124 -257q-6 -17 -12 -22t-27 -5 q-27 0 -27 14q0 3 1 7l51 192h79z" />
<glyph unicode="&#x21a;" horiz-adv-x="577" d="M270 27q-2 -12 -9 -22t-37 -10q-21 0 -28.5 5.5t-7.5 13.5q0 3 1 9t2 10l105 590h-222l12 66h523l-12 -66h-222zM189 -257q-6 -17 -12 -22t-27 -5q-27 0 -27 14q0 3 1 7l51 192h79z" />
<glyph unicode="&#x21b;" horiz-adv-x="374" d="M47 505q23 13 47 30.5t46 38t40.5 42t30.5 44.5h35l-24 -134h163l-13 -61h-160l-54 -305q-3 -17 -5 -31.5t-2 -20.5q0 -30 18.5 -40.5t50.5 -10.5q23 0 43 3.5t28 3.5q11 0 11 -10t-5 -32q-2 -8 -5 -12t-12 -7q-17 -5 -40 -8t-42 -3q-63 0 -93.5 29t-30.5 77q0 8 1 20.5 t4 31.5l56 315h-93q-12 0 -12 7q0 5 2 13q2 7 4.5 11t10.5 9zM150 -257q-6 -17 -12 -22t-27 -5q-27 0 -27 14q0 3 1 7l51 192h79z" />
<glyph unicode="&#x2c6;" horiz-adv-x="336" d="M225 706l-111 -90q-20 -15 -29 -15q-5 0 -9.5 4t-8.5 9q-6 8 -8 13t-2 7q0 5 8 13l142 132q5 5 7 5.5t7 0.5h40q4 0 6.5 -0.5t5.5 -5.5l90 -126q7 -10 8.5 -13t1.5 -6t-2.5 -7t-11.5 -12q-13 -12 -21 -12q-4 0 -7.5 2t-11.5 10l-82 91h-12z" />
<glyph unicode="&#x2c7;" horiz-adv-x="322" d="M221 676l130 106l32 -37l-135 -128q-11 -10 -20.5 -13.5t-26.5 -3.5q-19 0 -26 4.5t-13 12.5l-92 128l43 37l90 -106h18z" />
<glyph unicode="&#x2d8;" horiz-adv-x="347" d="M229 608q-74 0 -107.5 37t-33.5 97q0 5 0.5 11t1.5 11h52q-2 -48 20.5 -73t67.5 -25q19 0 37.5 5.5t35 17t28.5 30t18 45.5h56q-7 -44 -24 -73.5t-41 -48t-52.5 -26.5t-58.5 -8z" />
<glyph unicode="&#x2d9;" horiz-adv-x="265" d="M182 616q-26 0 -39.5 14.5t-13.5 37.5q0 29 19.5 53t54.5 24q26 0 39.5 -14.5t13.5 -37.5q0 -29 -19.5 -53t-54.5 -24z" />
<glyph unicode="&#x2da;" horiz-adv-x="296" d="M197 630q26 0 44.5 19t18.5 50q0 20 -10.5 31t-29.5 11q-26 0 -45 -19t-19 -50q0 -20 10.5 -31t30.5 -11zM192 582q-42 0 -64.5 24.5t-22.5 61.5q0 25 8.5 47t24.5 38.5t38 26t49 9.5q41 0 63.5 -24t22.5 -63q0 -25 -9 -47t-25 -38t-38 -25.5t-47 -9.5z" />
<glyph unicode="&#x2db;" horiz-adv-x="296" d="M38 -134q0 27 10.5 50t28.5 42t41 35.5t48 30.5h62q-24 -16 -47 -33t-40 -35t-27.5 -37.5t-10.5 -40.5q0 -6 1.5 -13.5t7 -14t15.5 -11t28 -4.5q23 0 38 4.5t22 4.5q3 0 5.5 -1.5t4.5 -8.5t2.5 -14.5t0.5 -9.5q0 -7 -3 -10.5t-12 -6.5q-10 -3 -32 -7t-42 -4 q-51 0 -76 22.5t-25 61.5z" />
<glyph unicode="&#x2dc;" horiz-adv-x="358" d="M64 623q-13 9 -13 17q0 5 8 17q27 41 55.5 62.5t58.5 21.5q24 0 43.5 -10t35.5 -22t30.5 -22t29.5 -10q20 0 37.5 17t35.5 41l39 -29q-23 -38 -53 -66t-68 -28q-23 0 -40.5 10t-32.5 22t-30.5 22t-33.5 10q-13 0 -28 -10.5t-33 -34.5q-9 -12 -12 -15t-7 -3q-3 0 -8 2 t-14 8z" />
<glyph unicode="&#x2dd;" horiz-adv-x="397" d="M275 801l43 -59l-209 -135q-8 -5 -11 -6t-5 -1t-6.5 3t-12.5 14q-10 16 -10 23q0 4 12 13zM483 801l43 -59l-209 -135q-8 -5 -11 -6t-5 -1t-6.5 3t-12.5 14q-10 16 -10 23q0 4 12 13z" />
<glyph unicode="&#x326;" horiz-adv-x="322" d="M150 -257q-6 -17 -12 -22t-27 -5q-27 0 -27 14q0 3 1 7l51 192h79z" />
<glyph unicode="&#x3a9;" horiz-adv-x="705" d="M241 68q9 -6 9 -12q0 -5 -2 -12t-5 -14t-6.5 -13t-5.5 -9q-5 -6 -9.5 -7t-6.5 -1h-222l12 67h153q-19 14 -38 32.5t-34.5 45.5t-25 64t-9.5 87q0 85 25 158.5t71 128t110 85.5t142 31q70 0 119.5 -20.5t81 -57t46 -86.5t14.5 -109q0 -83 -23 -145t-55.5 -105.5t-68.5 -70 t-62 -38.5h151l-12 -67h-222q-2 0 -7 1t-7 7q-2 4 -4 13t-2 17q0 13 2.5 19t13.5 11q30 13 67.5 40t70.5 70.5t55.5 104t22.5 140.5q0 97 -46 152.5t-137 55.5q-57 0 -105.5 -24t-84.5 -68.5t-56 -107t-20 -140.5q0 -52 9 -88t24 -61t35 -42.5t42 -31.5z" />
<glyph unicode="&#x3c0;" horiz-adv-x="582" d="M585 465h-99l-56 -322q-2 -12 -3.5 -23.5t-1.5 -17.5q0 -17 7 -27q8 -10 21.5 -11.5t22.5 -1.5q12 0 23 1.5t13 1.5q4 0 6 -1.5t2 -7.5q0 -5 -1 -16.5t-3 -21.5q-1 -10 -14 -14q-14 -4 -28.5 -5.5t-28.5 -1.5q-60 0 -84 31q-8 10 -11.5 24t-3.5 37q0 18 6 51l57 325h-184 l-77 -434q-2 -12 -4 -16.5t-5 -7.5q-4 -4 -12.5 -7t-22.5 -3q-23 0 -29 7t-6 13q0 3 1 10t3 15l75 423h-99l13 61h536z" />
<glyph unicode="&#x2013;" horiz-adv-x="543" d="M503 296l-12 -66h-445q-7 0 -10.5 2.5t-3.5 12.5q0 3 0.5 8.5t1.5 10.5q4 22 10.5 27t13.5 5h445z" />
<glyph unicode="&#x2014;" horiz-adv-x="1033" d="M993 296l-12 -66h-935q-7 0 -10.5 2.5t-3.5 12.5q0 3 0.5 8.5t1.5 10.5q4 22 10.5 27t13.5 5h935z" />
<glyph unicode="&#x2018;" horiz-adv-x="156" d="M40.0059 495.003q0 18.999 4.5 38.998q4.49902 19.999 14.999 42.4971q10.499 22.499 28.998 48.9971t46.4971 57.4961q13.999 14.999 17.999 17.499t6.99902 2.5q6 0 15 -5q7.99902 -4.99902 10.499 -8.99902t2.5 -7.99902q0 -5 -13.999 -23.999 q-7 -8.99902 -15.499 -20.999q-8.5 -11.999 -16.499 -24.498q-8 -12.499 -13.5 -23.999q-5.49902 -11.499 -5.49902 -19.498q0 -9 4.5 -13.999q4.49902 -5 10.499 -10.5t10.499 -12.499q4.5 -7 4.5 -20.999q0 -31.998 -18.999 -49.4971t-46.9971 -17.499 q-23.998 0 -35.498 15.999q-11.499 15.999 -11.499 35.998z" />
<glyph unicode="&#x2019;" horiz-adv-x="156" d="M188 647q0 -19 -4.5 -39t-15 -42.5t-29 -49t-46.5 -57.5q-14 -15 -18 -17.5t-7 -2.5q-6 0 -15 5q-8 5 -10.5 9t-2.5 8q0 5 14 24q7 9 15.5 21t16.5 24.5t13.5 24t5.5 19.5q0 9 -4.5 14t-10.5 10.5t-10.5 12.5t-4.5 21q0 32 19 49.5t47 17.5q24 0 35.5 -16t11.5 -36z" />
<glyph unicode="&#x201a;" horiz-adv-x="166" d="M96 27q0 -19 -4.5 -39t-15 -42.5t-29 -49t-46.5 -57.5q-14 -15 -18 -17.5t-7 -2.5q-6 0 -15 5q-8 5 -10.5 9t-2.5 8q0 5 14 24q7 9 15.5 21t16.5 24.5t13.5 24t5.5 19.5q0 9 -4.5 14t-10.5 10.5t-10.5 12.5t-4.5 21q0 32 19 49.5t47 17.5q24 0 35.5 -16t11.5 -36z" />
<glyph unicode="&#x201c;" horiz-adv-x="333" d="M40.0059 495.003q0 18.999 4.5 38.998q4.49902 19.999 14.999 42.4971q10.499 22.499 28.998 48.9971t46.4971 57.4961q13.999 14.999 17.999 17.499t6.99902 2.5q6 0 15 -5q7.99902 -4.99902 10.499 -8.99902t2.5 -7.99902q0 -5 -13.999 -23.999 q-7 -8.99902 -15.499 -20.999q-8.5 -11.999 -16.499 -24.498q-8 -12.499 -13.5 -23.999q-5.49902 -11.499 -5.49902 -19.498q0 -9 4.5 -13.999q4.49902 -5 10.499 -10.5t10.499 -12.499q4.5 -7 4.5 -20.999q0 -31.998 -18.999 -49.4971t-46.9971 -17.499 q-23.998 0 -35.498 15.999q-11.499 15.999 -11.499 35.998zM217.006 495.003q0 18.999 4.5 38.998q4.49902 19.999 14.999 42.4971q10.499 22.499 28.998 48.9971t46.4971 57.4961q13.999 14.999 17.999 17.499t6.99902 2.5q6 0 15 -5q7.99902 -4.99902 10.499 -8.99902 t2.5 -7.99902q0 -5 -13.999 -23.999q-7 -8.99902 -15.499 -20.999q-8.5 -11.999 -16.499 -24.498q-8 -12.499 -13.5 -23.999q-5.49902 -11.499 -5.49902 -19.498q0 -9 4.5 -13.999q4.49902 -5 10.499 -10.5t10.499 -12.499q4.5 -7 4.5 -20.999q0 -31.998 -18.999 -49.4971 t-46.9971 -17.499q-23.998 0 -35.498 15.999q-11.499 15.999 -11.499 35.998z" />
<glyph unicode="&#x201d;" horiz-adv-x="333" d="M188 648q0 -19 -4.5 -39t-15 -42.5t-29 -49t-46.5 -57.5q-14 -15 -18 -17.5t-7 -2.5q-6 0 -15 5q-8 5 -10.5 9t-2.5 8q0 5 14 24q7 9 15.5 21t16.5 24.5t13.5 24t5.5 19.5q0 9 -4.5 14t-10.5 10.5t-10.5 12.5t-4.5 21q0 32 19 49.5t47 17.5q24 0 35.5 -16t11.5 -36z M365 648q0 -19 -4.5 -39t-15 -42.5t-29 -49t-46.5 -57.5q-14 -15 -18 -17.5t-7 -2.5q-6 0 -15 5q-8 5 -10.5 9t-2.5 8q0 5 14 24q7 9 15.5 21t16.5 24.5t13.5 24t5.5 19.5q0 9 -4.5 14t-10.5 10.5t-10.5 12.5t-4.5 21q0 32 19 49.5t47 17.5q24 0 35.5 -16t11.5 -36z" />
<glyph unicode="&#x201e;" horiz-adv-x="343" d="M96 26q0 -19 -4.5 -39t-15 -42.5t-29 -49t-46.5 -57.5q-14 -15 -18 -17.5t-7 -2.5q-6 0 -15 5q-8 5 -10.5 9t-2.5 8q0 5 14 24q7 9 15.5 21t16.5 24.5t13.5 24t5.5 19.5q0 9 -4.5 14t-10.5 10.5t-10.5 12.5t-4.5 21q0 32 19 49.5t47 17.5q24 0 35.5 -16t11.5 -36zM273 26 q0 -19 -4.5 -39t-15 -42.5t-29 -49t-46.5 -57.5q-14 -15 -18 -17.5t-7 -2.5q-6 0 -15 5q-8 5 -10.5 9t-2.5 8q0 5 14 24q7 9 15.5 21t16.5 24.5t13.5 24t5.5 19.5q0 9 -4.5 14t-10.5 10.5t-10.5 12.5t-4.5 21q0 32 19 49.5t47 17.5q24 0 35.5 -16t11.5 -36z" />
<glyph unicode="&#x2020;" horiz-adv-x="381" d="M156 15q-2 -12 -7 -17t-22 -5q-14 0 -19 3.5t-5 8.5q0 2 1 7.5t3 19.5l69 419l-125 -2l11 58l123 -1l30 183h69l-34 -183l125 1l-11 -58l-125 2z" />
<glyph unicode="&#x2021;" horiz-adv-x="400" d="M175 15q-2 -12 -7 -17t-22 -5q-14 0 -19 3.5t-5 8.5q0 2 1 7.5t3 19.5l33 205l-108 -2l10 58l108 -1l26 159l-125 -2l11 58l123 -1l30 183h69l-34 -183l125 1l-11 -58l-125 2l-30 -159l110 1l-10 -58l-111 2z" />
<glyph unicode="&#x2022;" horiz-adv-x="325" d="M171 368q50 0 71 -19.5t21 -54.5q0 -33 -9.5 -61.5t-26.5 -45.5q-16 -14 -38.5 -22t-54.5 -8q-51 0 -72.5 19.5t-21.5 55.5q0 33 9 61t26 45q16 14 38.5 22t57.5 8z" />
<glyph unicode="&#x2026;" horiz-adv-x="620" d="M73 104q24 0 34.5 -10.5t10.5 -29.5q0 -18 -4.5 -33t-13.5 -25q-16 -16 -46 -16q-25 0 -35.5 10.5t-10.5 30.5q0 17 4.5 32.5t13.5 24.5q16 16 47 16zM288 104q24 0 34.5 -10.5t10.5 -29.5q0 -18 -4.5 -33t-13.5 -25q-16 -16 -46 -16q-25 0 -35.5 10.5t-10.5 30.5 q0 17 4.5 32.5t13.5 24.5q16 16 47 16zM505 104q24 0 34.5 -10.5t10.5 -29.5q0 -18 -4.5 -33t-13.5 -25q-16 -16 -46 -16q-25 0 -35.5 10.5t-10.5 30.5q0 17 4.5 32.5t13.5 24.5q16 16 47 16z" />
<glyph unicode="&#x2030;" horiz-adv-x="1183" d="M241 398q29 0 48.5 15.5t31 39t16.5 51t5 51.5q0 49 -19 67.5t-44 18.5q-23 0 -41.5 -13t-31.5 -35t-19.5 -50.5t-6.5 -59.5q0 -48 17.5 -66.5t43.5 -18.5zM283 699q63 0 96 -36t33 -111q0 -42 -12 -80.5t-34 -67.5t-54.5 -46.5t-72.5 -17.5q-27 0 -51 8t-41 26t-27 45.5 t-10 66.5q0 42 12 80.5t34 68t54 47t73 17.5zM611 48q29 0 48.5 15.5t31 39t16.5 51t5 51.5q0 49 -19 67.5t-44 18.5q-23 0 -41.5 -13t-31.5 -35t-19.5 -50.5t-6.5 -59.5q0 -48 17.5 -66.5t43.5 -18.5zM653 349q63 0 96 -36t33 -111q0 -42 -12 -80.5t-34 -67.5t-54.5 -46.5 t-72.5 -17.5q-27 0 -51 8t-41 26t-27 45.5t-10 66.5q0 42 12 80.5t34 68t54 47t73 17.5zM966 48q29 0 48.5 15.5t31 39t16.5 51t5 51.5q0 49 -19 67.5t-44 18.5q-23 0 -41.5 -13t-31.5 -35t-19.5 -50.5t-6.5 -59.5q0 -48 17.5 -66.5t43.5 -18.5zM1008 349q63 0 96 -36 t33 -111q0 -42 -12 -80.5t-34 -67.5t-54.5 -46.5t-72.5 -17.5q-27 0 -51 8t-41 26t-27 45.5t-10 66.5q0 42 12 80.5t34 68t54 47t73 17.5zM751 699l-501 -676q-15 -21 -27.5 -27t-37.5 -6q-11 0 -19.5 3t-8.5 12q0 3 2 7t8 12l501 675h83z" />
<glyph unicode="&#x2039;" horiz-adv-x="348" d="M260 98l-46 -42l-157 170q-10 11 -13 18.5t-3 18.5q0 9 6 18.5t24 23.5l214 167l37 -48l-189 -164z" />
<glyph unicode="&#x203a;" horiz-adv-x="348" d="M88 430l46 42l157 -170q10 -11 13 -18.5t3 -18.5q0 -9 -6 -18.5t-24 -23.5l-214 -167l-37 48l189 164z" />
<glyph unicode="&#x2044;" horiz-adv-x="341" d="M510 699l-501 -676q-15 -21 -27.5 -27t-37.5 -6q-11 0 -19.5 3t-8.5 12q0 3 2 7t8 12l501 675h83z" />
<glyph unicode="&#x20ac;" horiz-adv-x="617" d="M160 446q48 128 135.5 190.5t208.5 62.5q39 0 76.5 -6t65.5 -16l-20 -64q-26 8 -56 14t-61 6q-39 0 -79 -8.5t-76 -30t-65.5 -57.5t-47.5 -91h214l-11 -61h-219q-5 -13 -8 -31.5t-5 -36.5h220l-11 -61h-214q0 -38 6.5 -74t27 -64t58 -44.5t97.5 -16.5q26 0 54.5 5.5 t48.5 10.5q18 5 28 8t15 3q3 0 7.5 -2.5t4.5 -21.5q0 -24 -3 -31.5t-18 -12.5q-32 -10 -71.5 -18t-84.5 -8q-72 0 -120 20.5t-76.5 56t-40 84t-11.5 105.5h-82q-11 0 -14.5 2.5t-3.5 10.5q0 6 1 12t2 10q3 14 9 16.5t17 3.5l76 6q5 36 9 52q2 10 4 16h-77q-11 0 -14.5 2.5 t-3.5 10.5q0 6 1 12t2 10q3 14 9 16.5t17 3.5z" />
<glyph unicode="&#x2116;" horiz-adv-x="1086" d="M121 27q-2 -12 -9 -22t-36 -10q-18 0 -25 5t-7 13q0 3 1 9t2 11l116 656h98l251 -584l103 584h74l-115 -654q-5 -24 -16.5 -31t-36.5 -7q-14 0 -22.5 2t-15 7.5t-12 15t-11.5 24.5l-237 553zM941 651q-28 0 -51.5 -13t-40 -36.5t-25.5 -54.5t-9 -67q0 -42 22 -67.5 t60 -25.5q29 0 52.5 13t40 36.5t25.5 55t9 68.5q0 42 -22 66.5t-61 24.5zM947 699q63 0 100 -35.5t37 -96.5q0 -60 -17.5 -104t-49.5 -76q-20 -20 -52 -34t-75 -14q-61 0 -98 35.5t-37 98.5q0 56 16 97.5t45 73.5q25 27 60 41t71 14z" />
<glyph unicode="&#x2122;" horiz-adv-x="633" d="M172 640h-89l8 49h232l-8 -49h-89l-37 -211q-2 -8 -7.5 -13t-24.5 -5q-17 0 -20.5 5.5t-1.5 13.5zM632 666q0 -4 -1.5 -23t-3 -44.5t-4 -54.5t-4 -53.5t-3 -40.5t-1.5 -17q-3 -22 -30 -22q-18 0 -21 7t-2 15q2 27 5 56.5t6 57t5.5 50.5t3.5 38h-3q-35 -74 -58 -122.5 t-31 -66.5h-62q-6 46 -10 85q-4 33 -7 64t-5 40h-3q-5 -21 -12 -47t-13.5 -53t-13.5 -53.5t-12 -48.5q-2 -8 -8.5 -15t-22.5 -7q-14 0 -20 6t-4 14q1 9 5.5 25.5t12 45t19 70t27.5 99.5q2 8 6.5 13t16.5 5h44q11 0 14.5 -4.5t4.5 -16.5l19 -166h4l81 173q5 9 8.5 11.5 t14.5 2.5h43q11 0 13.5 -3.5t1.5 -19.5z" />
<glyph unicode="&#x212e;" horiz-adv-x="804" d="M181 316q-5 0 -5 -5v-182q0 -10 9 -21q42 -45 100.5 -71t126.5 -26q72 0 133.5 29.5t103.5 79.5h54q-51 -58 -126.5 -93.5t-165.5 -35.5q-77 0 -144.5 26t-117.5 71t-79.5 105.5t-29.5 129.5t29.5 130t79.5 106t117.5 71t144.5 26q76 0 143 -26t117.5 -71t79.5 -106 t29 -130v-7h-599zM644 521q0 12 -10 22q-42 43 -99 68t-123 25q-68 0 -126 -25.5t-100 -70.5q-10 -8 -10 -23v-179q0 -5 5 -5h458q5 0 5 5v183z" />
<glyph unicode="&#x2190;" horiz-adv-x="652" d="M279 118q3 -4 -1 -9.5t-21 -19.5l-10 -9q-15 -14 -21 -16.5t-9 1.5l-137 201q-6 9 -8 13t0 9l1 8q1 5 4 9t12 13l208 201q5 4 9.5 1.5t15.5 -16.5l7 -9q11 -14 13.5 -19.5t-2.5 -9.5l-142 -133h434q5 0 6 -7t-3 -27l-2 -14q-4 -20 -7 -27t-8 -7h-434z" />
<glyph unicode="&#x2191;" horiz-adv-x="652" d="M188 332q-4 -4 -9 -1t-16 17l-8 9q-11 14 -12.5 19t3.5 9l228 176q10 8 14 10.5t9 2.5h8q5 0 8.5 -2.5t10.5 -10.5l166 -176q3 -4 -0.5 -9t-18.5 -19l-10 -9q-17 -14 -23 -17t-8 1l-110 120l-78 -443q-1 -5 -8 -7t-27 -2h-14q-20 0 -26 2t-5 7l78 443z" />
<glyph unicode="&#x2192;" horiz-adv-x="652" d="M504 251h-434q-5 0 -6 7t3 27l2 14q4 20 7 27t8 7h434l-94 133q-3 4 1 9.5t20 19.5l11 9q15 14 20.5 16.5t8.5 -1.5l138 -201q6 -9 7.5 -13t0.5 -9l-1 -8q-2 -5 -4.5 -9t-11.5 -13l-209 -201q-5 -4 -9 -1.5t-15 16.5l-8 9q-11 14 -13 19.5t3 9.5z" />
<glyph unicode="&#x2193;" horiz-adv-x="652" d="M282 122l78 443q1 5 7.5 7t26.5 2h14q20 0 26.5 -2t5.5 -7l-78 -443l152 120q4 4 9 1t16 -17l7 -9q11 -14 12.5 -19t-2.5 -9l-229 -176q-9 -8 -13.5 -10.5t-9.5 -2.5h-8q-5 0 -8 2.5t-11 10.5l-165 176q-4 4 -0.5 9t18.5 19l11 9q16 14 22.5 17t8.5 -1z" />
<glyph unicode="&#x2202;" horiz-adv-x="579" d="M271 444q53 0 102 -20.5t83 -66.5q3 18 4.5 35t1.5 41q0 58 -10.5 97t-30.5 62.5t-49.5 33.5t-69.5 10q-33 0 -57 -5.5t-49 -12.5l-1 62q31 10 63.5 14.5t50.5 4.5q115 0 173 -65t58 -213q0 -98 -24.5 -178t-66 -136t-96.5 -86.5t-117 -30.5q-105 0 -155.5 53.5 t-50.5 153.5q0 53 20 98.5t54 78.5t77 51.5t90 18.5zM236 57q31 0 62.5 12t60 38.5t50.5 69t34 103.5q-10 15 -25.5 32t-35.5 31.5t-45 23.5t-55 9q-37 0 -68.5 -14t-55 -38.5t-37 -57t-13.5 -69.5q0 -69 34 -104.5t94 -35.5z" />
<glyph unicode="&#x2206;" horiz-adv-x="639" d="M425 689q14 0 17 -5.5t7 -29.5q21 -149 41 -297t42 -311q2 -14 2.5 -20.5t0.5 -10.5q0 -10 -11 -12.5t-45 -2.5h-450q-33 0 -42 1.5t-9 9.5q0 6 4 14.5t9 19.5q79 165 157.5 322t150.5 302q6 12 11.5 16t18.5 4h96zM352 624q-15 -31 -37 -76.5t-47.5 -97.5t-52 -107.5 t-51.5 -107t-46.5 -95.5t-35.5 -73h368q-4 28 -9.5 72.5t-12 97t-13.5 109t-14 109t-13 96.5t-10 73h-26z" />
<glyph unicode="&#x220f;" horiz-adv-x="761" d="M566 623h-272l-125 -706q-2 -12 -9 -22t-37 -10q-21 0 -28.5 5.5t-7.5 13.5q0 3 1 9t2 10l124 700h-105l12 66h641l-12 -66h-104l-125 -706q-2 -12 -9 -22t-37 -10q-21 0 -28.5 5.5t-7.5 13.5q0 3 1 9t2 10z" />
<glyph unicode="&#x2211;" horiz-adv-x="524" d="M73 -42h357l-12 -68h-429q-7 0 -9.5 1.5t-5.5 6.5q-6 10 -6 25q0 10 2.5 15.5t10.5 16.5l279 349l2 10l-164 309q-5 10 -5 18q0 17 13 36q5 8 10.5 10t16.5 2h421l-13 -67h-358l145 -274q5 -10 6.5 -15t-0.5 -15l-5 -26q-2 -11 -5.5 -17.5t-14.5 -20.5z" />
<glyph unicode="&#x221a;" horiz-adv-x="580" d="M55 416q-5 0 -10 3t-5 16q0 3 1 11t3 15q5 16 13 19t19 3h101q9 0 10 -11l51 -391h24l343 696h75l-376 -758q-5 -9 -10 -14t-16 -5h-88q-8 0 -10.5 3.5t-4.5 14.5l-53 398h-67z" />
<glyph unicode="&#x221e;" horiz-adv-x="771" d="M366 271q-14 -15 -31.5 -34.5t-41.5 -37t-54.5 -29.5t-68.5 -12q-37 0 -63 11t-42.5 30t-24.5 45.5t-8 56.5q0 46 15.5 80.5t41.5 58t58.5 35.5t67.5 12q59 0 100.5 -29t70.5 -88q27 30 50.5 52t47 36.5t47.5 21.5t53 7q70 0 103.5 -38t33.5 -104q0 -45 -15 -80 t-40.5 -59t-58 -36t-68.5 -12q-34 0 -60.5 10t-47.5 26.5t-36.5 36.5t-28.5 40zM415 316q31 -54 59.5 -76.5t68.5 -22.5q19 0 39 6t36 20.5t26 38.5t10 59q0 15 -3.5 30.5t-12 27.5t-23.5 20t-39 8q-36 0 -75.5 -28.5t-85.5 -82.5zM340 329q-9 18 -20 35.5t-26.5 31.5 t-36 22.5t-46.5 8.5q-20 0 -40 -7.5t-36 -23t-26 -38.5t-10 -54q0 -34 17.5 -60.5t61.5 -26.5q41 0 80 29t82 83z" />
<glyph unicode="&#x222b;" horiz-adv-x="330" d="M1 -223q-23 0 -42.5 3t-30.5 7t-11 15q0 5 3 16.5t8 24.5q3 7 10 7q4 0 20 -4t33 -4q44 0 70.5 14.5t41 45t19.5 78.5t5 115q0 34 -1 73t-2.5 76.5t-2.5 71t-1 57.5q0 64 6.5 123t27.5 104t61 72t108 27q36 0 51 -4.5t26 -8.5l-20 -58q-11 4 -24.5 6t-24.5 2 q-49 0 -76 -21.5t-39.5 -58t-15 -85t-2.5 -102.5q0 -55 3.5 -130t3.5 -148q0 -89 -12.5 -149t-38 -96.5t-64 -52.5t-89.5 -16z" />
<glyph unicode="&#x2248;" horiz-adv-x="517" d="M487 362q-22 -30 -51.5 -54.5t-63.5 -24.5q-24 0 -43.5 8t-37 18t-34 18t-34.5 8q-14 0 -30 -7.5t-36 -26.5q-10 -9 -15.5 -14t-10.5 -5q-3 0 -6.5 2t-11.5 9q-9 8 -11.5 13t-2.5 8q0 6 7 16t29 29q30 26 55 33.5t36 7.5q23 0 41.5 -8t35.5 -17t33 -17t35 -8 q23 0 42.5 16t34.5 31zM140.027 154.018q21.998 29.999 51.4961 54.4971q29.499 24.499 63.4961 24.499q23.999 0 43.498 -8q19.498 -7.99902 36.9971 -17.999q17.499 -9.99902 33.998 -17.999q16.499 -7.99902 34.498 -7.99902q13.999 0 29.998 7.49902 q15.999 7.5 35.998 26.499q9.99902 8.99902 15.499 13.999t10.499 5q3 0 6.5 -2t11.499 -9q9 -7.99902 11.5 -12.999q2.49902 -5 2.49902 -7.99902q0 -6 -6.99902 -16q-7 -9.99902 -28.998 -28.998q-29.998 -25.998 -54.9971 -33.498q-24.998 -7.49902 -35.998 -7.49902 q-22.998 0 -41.4971 7.99902q-18.499 8 -35.498 16.999q-16.999 9 -32.998 16.999q-15.999 8 -34.998 8q-22.998 0 -42.4971 -15.999t-34.498 -30.998z" />
<glyph unicode="&#x2260;" horiz-adv-x="517" d="M118 318q-7 0 -10.5 2.5t-3.5 12.5q0 3 0.5 9t1.5 11q4 22 10.5 27t13.5 5h189l76 133h71l-76 -133h105l-12 -67h-130l-65 -116h174l-12 -67h-200l-61 -109q-7 -12 -14.5 -17t-31.5 -5q-29 0 -29 11q0 2 1 5t5 10l59 105h-94q-7 0 -10.5 2.5t-3.5 12.5q0 3 0.5 9t1.5 11 q4 22 10.5 27t13.5 5h120l65 116h-164z" />
<glyph unicode="&#x2264;" horiz-adv-x="517" d="M438 67l-12 -67h-365q-7 0 -10.5 2.5t-3.5 12.5q0 3 0.5 9t1.5 11q4 22 10.5 27t13.5 5h365zM522 504l-335 -156l270 -148l-37 -62l-303 176q-15 8 -15 22q0 3 0.5 10t2.5 14q2 11 7 17.5t18 12.5l365 176z" />
<glyph unicode="&#x2265;" horiz-adv-x="517" d="M42 0l11 67h364q8 0 13 -5.5t1 -27.5q-5 -22 -10 -28t-15 -6h-364zM68 200l335 156l-270 148l37 62l303 -176q15 -8 15 -22q0 -3 -0.5 -10t-2.5 -14q-2 -11 -7 -17.5t-18 -12.5l-365 -176z" />
<glyph unicode="&#x25ca;" horiz-adv-x="626" d="M388 689q7 0 10 -3t8 -13l162 -300q5 -10 6.5 -15t1.5 -10q0 -11 -5.5 -19t-13.5 -18l-269 -306q-8 -9 -11.5 -12t-10.5 -3h-26q-7 0 -10 3t-8 12l-161 306q-3 7 -5.5 12.5t-2.5 10.5q0 11 4 19t15 20l268 300q10 11 13.5 13.5t10.5 2.5h24zM267 71l239 273l-140 259h-2 l-238 -269l139 -263h2z" />
<glyph unicode="&#x266a;" horiz-adv-x="676" d="M543 408q-3 -2 -5 -0.5t-7 10.5l-3 6q-5 9 -5 11.5t4 4.5q35 22 40 50q3 16 -3.5 27t-18.5 19t-28.5 14t-34.5 13q-14 5 -28.5 13t-25.5 20l-83 -472q-11 -64 -54.5 -99t-112.5 -35q-55 0 -80 24t-19 56q3 16 13 30.5t26 25.5t37.5 17.5t47.5 6.5q23 0 47.5 -7t41.5 -20 l104 588q1 5 4.5 7t18.5 2h8q16 0 19.5 -2t2.5 -7l-5 -25q20 -18 44.5 -29t48.5 -21q22 -9 42.5 -18t35 -22t21.5 -31t2 -46q-6 -31 -30.5 -60.5t-64.5 -50.5z" />
<glyph unicode="&#xe000;" horiz-adv-x="525" d="M0 525h525v-525h-525v525z" />
<glyph unicode="&#xf8ff;" horiz-adv-x="535" d="M460 201h-258v62h195v66h-195v193h258v-64h-192v-64h192v-193zM460 586h-320v-521h71v-65h-136v650h385v-64z" />
<glyph horiz-adv-x="313" d="M369 811q9 -6 9 -13q0 -5 -2 -11t-8 -14q-8 -11 -13 -14.5t-10 -3.5t-19 7l-183 98l50 76z" />
<glyph horiz-adv-x="313" d="M322 936l39 -76l-221 -99l-10 -4t-9 -2q-3 0 -7.5 3.5t-9.5 14.5q-8 17 -8 24q0 8 3.5 11.5t8.5 6.5z" />
<glyph horiz-adv-x="344" d="M137 782q-48 0 -48 46q0 26 19 48t52 22q23 0 35 -12.5t12 -32.5q0 -27 -19 -49t-51 -22zM334 782q-48 0 -48 46q0 26 19 48t52 22q23 0 35 -12.5t12 -32.5q0 -27 -19 -49t-51 -22z" />
<glyph horiz-adv-x="336" d="M242 863l-113 -89q-20 -15 -28 -15q-5 0 -9.5 4t-8.5 9q-6 8 -8 13t-2 7q0 5 8 13l142 132q5 5 7 5.5t7 0.5h40q4 0 6.5 -0.5t5.5 -5.5l90 -126q7 -10 8.5 -13t1.5 -6t-2.5 -7t-11.5 -12q-13 -12 -21 -12q-4 0 -7.5 2t-11.5 10l-84 90h-9z" />
<glyph horiz-adv-x="361" d="M77 778q-13 10 -13 18q0 5 8 17q28 42 57 64.5t60 22.5q25 0 45 -10t36.5 -22.5t31.5 -22.5t30 -10q21 0 38.5 17t36.5 42l40 -30q-24 -40 -55 -68t-69 -28q-24 0 -42 10t-33.5 22.5t-31 22.5t-34.5 10q-14 0 -29 -10.5t-34 -35.5q-9 -13 -12 -16t-7 -3t-9 2t-14 8z" />
<glyph horiz-adv-x="305" d="M332 872l-12 -66h-239q-7 0 -10.5 2.5t-3.5 12.5q0 3 0.5 8.5t1.5 10.5q4 22 10.5 27t13.5 5h239z" />
<glyph horiz-adv-x="347" d="M243 782q-74 0 -107.5 37t-33.5 97q0 5 0.5 11t1.5 11h55q-2 -48 21.5 -67.5t63.5 -19.5q16 0 34.5 3.5t34.5 13.5t28.5 26.5t18.5 43.5h59q-7 -44 -24 -73.5t-41 -48t-52.5 -26.5t-58.5 -8z" />
<glyph horiz-adv-x="273" d="M200 790q-28 0 -42 15.5t-14 38.5q0 32 20.5 57t58.5 25q28 0 42 -15.5t14 -39.5q0 -31 -21 -56t-58 -25z" />
<glyph horiz-adv-x="296" d="M212 804q25 0 44 19t19 48q0 20 -11 31t-29 11q-26 0 -44.5 -18.5t-18.5 -49.5q0 -19 10 -30t30 -11zM207 753q-43 0 -66 25t-23 63q0 25 9 47.5t25 39t38.5 26.5t49.5 10q42 0 64.5 -24.5t22.5 -64.5q0 -26 -9 -48t-25 -38.5t-38 -26t-48 -9.5z" />
<glyph horiz-adv-x="396" d="M278 963l43 -59l-209 -135q-8 -5 -11 -6t-5 -1t-6.5 3t-12.5 14q-10 16 -10 23q0 4 12 13zM505 963l43 -59l-209 -135q-8 -5 -11 -6t-5 -1t-6.5 3t-12.5 14q-10 16 -10 23q0 4 12 13z" />
<glyph horiz-adv-x="314" d="M233 853l130 103l35 -39l-135 -129q-10 -10 -20 -14t-27 -4q-20 0 -26.5 5t-12.5 13l-94 130l42 38l96 -103h12z" />
</font>
</defs>
</svg>
